<svg width="461" height="325" viewBox="0 0 461 325" fill="none" xmlns="http://www.w3.org/2000/svg">
<g filter="url(#filter0_dd_33_1231)">
<path d="M338.857 261.201C333.533 285.73 353.909 303 353.65 303C307.906 303 281.218 279.088 269.227 264.555H154.073C75.6097 264.555 12 205.782 12 133.278C12 60.773 75.6097 2 154.073 2H306.802C385.265 2 448.875 60.7763 448.875 133.278C448.875 169.53 432.973 202.349 407.261 226.107C388.778 243.187 365.218 255.583 338.857 261.201Z" fill="#304FFB"/>
<path d="M144.205 77.6125H138.263V94.3833H136.442V78.1875H130.596V119.635H136.442V99.9896H138.263V121.6H144.205V77.6125ZM104.146 110.867H115.79V82.0208H110.759V91.2688H109.082V82.0208H104.146V110.867ZM109.082 105.404V96.6354H110.759V105.404H109.082ZM117.324 110.867H128.871V82.0208H123.936V91.2688H122.259V82.0208H117.324V110.867ZM122.259 105.404V96.6354H123.936V105.404H122.259ZM181.331 77.6125H174.335V121.6H181.331V77.6125ZM144.195 108.806L147.789 114.269C163.793 106.77 168.082 95.725 168.106 82.1646H146.687V87.5313H161.062C160.08 97.0188 155.384 103.535 144.195 108.806ZM217.68 81.4458H193.195V86.9563H196.789V106.147L192.093 106.171L192.811 111.729C200.286 111.705 210.181 111.514 219.07 109.908L218.734 104.973C217.225 105.165 215.644 105.332 214.039 105.452V86.9563H217.68V81.4458ZM203.449 106.027V86.9563H207.426V105.883C206.084 105.931 204.767 105.979 203.449 106.027ZM220.651 121.6H227.551V99.6542H233.78V94.0958H227.551V77.6125H220.651V121.6ZM268.558 99.9896H244.264V95.6292H267.169V90.2625H244.264V86.2375H268.223V80.6792H237.221V105.404H268.558V99.9896ZM232.621 116.665H272.823V111.106H232.621V116.665ZM309.949 77.6125H303.049V90.9333H291.596V96.4917H303.049V121.696H309.949V77.6125ZM274.778 111.442H278.611C285.008 111.466 291.956 111.106 299.071 109.621L298.353 103.967C292.627 105.093 287.02 105.572 281.726 105.692V82.2604H274.778V111.442ZM347.41 77.6125H340.51V121.456H347.41V99.7979H353.304V94.1438H347.41V77.6125ZM311.808 108.854L315.689 114.125C330.615 106.794 335.526 95.4135 335.526 82.0208H314.443V87.675H328.507C327.309 97.2344 321.894 103.775 311.808 108.854ZM147.118 177.056H132.456V181.8H140.697V183.765H132.647V195.36H135.283C142.063 195.36 144.89 195.312 148.172 194.69L147.789 189.898C145.201 190.305 143.069 190.377 139.02 190.377V188.269H147.118V177.056ZM128.479 174.852H168.585V169.485H151.814V167.401C159.912 166.826 164.632 164.143 164.656 159.71C164.632 154.751 158.618 151.996 148.508 151.948C138.349 151.996 132.336 154.751 132.36 159.71C132.336 164.095 136.96 166.778 144.962 167.377V169.485H128.479V174.852ZM139.595 159.71C139.571 157.914 142.326 157.027 148.508 157.027C154.641 157.027 157.516 157.914 157.516 159.71C157.516 161.603 154.641 162.346 148.508 162.394C142.326 162.346 139.571 161.603 139.595 159.71ZM149.322 195.36H164.129V177.056H149.322V195.36ZM155.024 190.377V181.896H158.331V190.377H155.024ZM191 156.165H169.965V161.531H183.98C182.926 171.019 177.943 177.535 167.809 182.806L171.354 188.221C181.609 183.142 187.023 176.266 189.419 168.144H198.811V174.708H188.748V180.171H198.811V195.6H205.663V151.613H198.811V162.681H190.569C190.856 160.573 191 158.393 191 156.165ZM244.322 171.738H219.789V160.717H244.034V155.158H212.984V177.2H244.322V171.738ZM208.384 190.473H248.586V184.771H208.384V190.473ZM285.569 151.613H278.716V160.765H271.769V166.323H278.716V172.648H271.721V178.254H278.716V195.696H285.569V151.613ZM249.727 160.621H262.856V167.185H249.871V186.017H253.369C260.053 185.993 265.635 185.897 272.104 184.915L271.529 179.308C266.354 180.027 261.802 180.291 256.723 180.363V172.504H269.612V155.206H249.727V160.621ZM328.492 185.01H319.915V174.421C323.102 172.36 325.018 169.294 325.042 165.508C325.018 158.345 317.879 153.577 308.319 153.577C298.736 153.577 291.668 158.345 291.692 165.508C291.668 169.366 293.657 172.48 296.963 174.565V185.01H288.29V190.617H328.492V185.01ZM298.544 165.508C298.52 161.292 302.33 158.968 308.319 158.992C314.261 158.968 318.19 161.292 318.19 165.508C318.19 169.677 314.261 172.121 308.319 172.121C302.33 172.121 298.52 169.677 298.544 165.508ZM303.767 185.01V177.056C305.205 177.296 306.714 177.44 308.319 177.44C309.925 177.44 311.482 177.296 312.919 177.056V185.01H303.767Z" fill="white"/>
</g>
<defs>
<filter id="filter0_dd_33_1231" x="0" y="0" width="460.875" height="325" filterUnits="userSpaceOnUse" color-interpolation-filters="sRGB">
<feFlood flood-opacity="0" result="BackgroundImageFix"/>
<feColorMatrix in="SourceAlpha" type="matrix" values="0 0 0 0 0 0 0 0 0 0 0 0 0 0 0 0 0 0 127 0" result="hardAlpha"/>
<feMorphology radius="2" operator="erode" in="SourceAlpha" result="effect1_dropShadow_33_1231"/>
<feOffset dy="4"/>
<feGaussianBlur stdDeviation="3"/>
<feComposite in2="hardAlpha" operator="out"/>
<feColorMatrix type="matrix" values="0 0 0 0 0 0 0 0 0 0 0 0 0 0 0 0 0 0 0.05 0"/>
<feBlend mode="normal" in2="BackgroundImageFix" result="effect1_dropShadow_33_1231"/>
<feColorMatrix in="SourceAlpha" type="matrix" values="0 0 0 0 0 0 0 0 0 0 0 0 0 0 0 0 0 0 127 0" result="hardAlpha"/>
<feMorphology radius="3" operator="erode" in="SourceAlpha" result="effect2_dropShadow_33_1231"/>
<feOffset dy="10"/>
<feGaussianBlur stdDeviation="7.5"/>
<feComposite in2="hardAlpha" operator="out"/>
<feColorMatrix type="matrix" values="0 0 0 0 0 0 0 0 0 0 0 0 0 0 0 0 0 0 0.1 0"/>
<feBlend mode="normal" in2="effect1_dropShadow_33_1231" result="effect2_dropShadow_33_1231"/>
<feBlend mode="normal" in="SourceGraphic" in2="effect2_dropShadow_33_1231" result="shape"/>
</filter>
</defs>
</svg>
