<svg width="1064" height="1230" viewBox="0 0 1064 1230" fill="none" xmlns="http://www.w3.org/2000/svg">
<g filter="url(#filter0_dd_33_1421)">
<rect x="12" y="2" width="1040" height="1200" rx="25" fill="#5980F9"/>
<path d="M311.886 182.71C321.406 182.71 328.476 176.27 328.476 167.52C328.476 163.32 326.306 159.75 322.736 157.37H330.926V151H315.736V143.65H308.036V151H291.376V157.37H301.036C297.466 159.75 295.296 163.32 295.296 167.52C295.296 176.27 302.366 182.71 311.886 182.71ZM347.796 189.57V146.24H340.376V156.53H331.626V163.04H340.376V170.95H331.626V177.39H340.376V189.57H347.796ZM311.886 176.27C306.846 176.27 302.716 172.35 302.716 166.82C302.716 161.29 306.846 157.37 311.886 157.37C316.926 157.37 321.056 161.29 321.056 166.82C321.056 172.35 316.926 176.27 311.886 176.27ZM348.916 207.63V200.98H309.786V187.68H301.946V207.63H348.916ZM408.376 146.73H361.126V153.24H400.606V169.55H355.176V176.13H414.676V169.55H408.376V146.73ZM409.076 207.77V184.25H360.776V207.77H409.076ZM368.406 190.62H401.446V201.26H368.406V190.62ZM492.729 174.8V146.24H485.169V151.49H472.989V146.8H441.139V153.03H465.359C465.149 160.03 455.279 166.75 439.319 168.15L440.579 174.59C457.799 173.05 469.069 166.4 472.149 157.51H485.169V163.88H471.729V169.9H485.169V174.8H492.729ZM493.849 208.05V201.82H454.089V195.94H492.729V178.65H446.389V184.67H485.169V190.2H446.529V208.05H493.849ZM556.809 208.47V146.24H549.529V208.47H556.809ZM543.509 207.56V146.38H536.509V168.78H526.569V175.22H536.509V207.56H543.509ZM529.439 147.85H501.649V154.15H512.009V164.72C512.009 175.92 507.669 187.82 499.199 196.78L504.659 202.03C509.699 196.15 513.479 189.5 515.929 182.85L525.939 200.42L531.539 196.01L518.309 174.8C519.079 171.37 519.429 167.94 519.429 164.72V154.15H529.439V147.85ZM613.539 208.47V175.78H623.689V169.13H613.539V146.24H605.979V208.47H613.539ZM568.599 201.54C588.549 189.92 596.669 173.61 596.669 154.57V148.06H566.009V154.57H589.109C589.109 171.51 581.269 186.14 564.329 195.03L568.599 201.54ZM699.992 208.47V174.52H709.792V167.87H699.992V146.24H692.642V208.47H699.992ZM665.622 190.76C677.662 190.76 686.132 182.08 686.132 170.46C686.132 158.84 677.662 150.16 665.622 150.16C653.582 150.16 645.112 158.84 645.112 170.46C645.112 182.08 653.582 190.76 665.622 190.76ZM665.622 184.11C657.922 184.11 652.742 178.44 652.742 170.46C652.742 162.48 657.922 156.81 665.622 156.81C673.322 156.81 678.502 162.48 678.502 170.46C678.502 178.44 673.182 184.11 665.622 184.11ZM764.373 188.87V146.24H756.813V188.87H764.373ZM714.533 177.39H750.863V170.67H722.443V146.52H714.533V177.39ZM765.493 207.63V200.98H726.363V186H718.523V207.63H765.493ZM240.99 306.47V273.78H250.79V267.13H240.99V244.24H233.43V306.47H240.99ZM196.19 300.31C217.05 288.06 224.61 271.33 224.61 252.36V245.85H192.62V252.29H217.12C217.12 256.77 216.63 260.97 215.72 264.96H191.92V271.61L213.69 271.4C209.98 280.43 202.98 287.99 191.92 293.87L196.19 300.31ZM305.28 280.71V274.13H266.99V251.87H304.44V245.22H259.15V280.71H305.28ZM311.72 301.85V295.2H252.22V301.85H311.72ZM389.773 272.8V244.24H382.213V249.49H370.033V244.8H338.183V251.03H362.403C362.193 258.03 352.323 264.75 336.363 266.15L337.623 272.59C354.843 271.05 366.113 264.4 369.193 255.51H382.213V261.88H368.773V267.9H382.213V272.8H389.773ZM390.893 306.05V299.82H351.133V293.94H389.773V276.65H343.433V282.67H382.213V288.2H343.573V306.05H390.893ZM453.853 306.47V244.24H446.573V306.47H453.853ZM440.553 305.56V244.38H433.553V266.78H423.613V273.22H433.553V305.56H440.553ZM426.483 245.85H398.693V252.15H409.053V262.72C409.053 273.92 404.713 285.82 396.243 294.78L401.703 300.03C406.743 294.15 410.523 287.5 412.973 280.85L422.983 298.42L428.583 294.01L415.353 272.8C416.123 269.37 416.473 265.94 416.473 262.72V252.15H426.483V245.85ZM506.103 250.12V254.25H465.783V268.81H514.643V263.63H473.413V259.36H513.733V244.45H465.643V250.12H506.103ZM519.683 278.19V272.59H460.183V278.19H519.683ZM506.103 287.08V291.14H465.783V306.19H514.643V300.52H473.413V296.32H513.733V281.97H465.643V287.22L506.103 287.08ZM563.226 270.56C573.376 270.56 580.236 264.68 580.236 256.7C580.236 248.72 573.376 242.7 563.226 242.7C553.076 242.7 546.216 248.72 546.216 256.7C546.216 264.68 553.076 270.56 563.226 270.56ZM598.436 289.81V244.24H590.876V254.39H582.966V260.83H590.876V289.81H598.436ZM563.226 264.54C557.696 264.54 553.776 261.25 553.776 256.7C553.776 252.15 557.696 248.86 563.226 248.86C568.756 248.86 572.676 252.15 572.676 256.7C572.676 261.25 568.756 264.54 563.226 264.54ZM543.136 280.71H560.356V289.67H567.706V280.71H584.226V274.48H543.136V280.71ZM599.556 305.63V299.12H557.626V288.48H550.136V305.63H599.556ZM645.296 252.5H629.756V242.21H622.126V252.5H605.886V259.01H645.296V252.5ZM657.966 306.47V275.95H667.416V269.51H657.966V244.24H650.546V306.47H657.966ZM625.976 297.37C636.546 297.37 643.826 289.53 643.826 280.71C643.826 271.89 636.546 264.05 625.976 264.05C615.406 264.05 608.126 271.89 608.126 280.71C608.126 289.53 615.406 297.37 625.976 297.37ZM625.976 290.93C620.026 290.93 615.756 286.52 615.756 280.71C615.756 274.9 620.026 270.49 625.976 270.49C631.926 270.49 636.196 274.9 636.196 280.71C636.196 286.52 631.926 290.93 625.976 290.93ZM722.396 306.47V244.24H714.766V306.47H722.396ZM684.386 245.71V251.87C684.386 267.69 678.016 281.2 666.186 291.28L671.576 297.58C679.276 290.37 684.806 282.39 688.166 273.78L703.986 296.53L709.586 291L690.546 265.94C691.596 261.39 692.156 256.7 692.156 251.87V245.71H684.386ZM736.216 244.38V266.78H784.726V260.13H743.986V244.38H736.216ZM730.476 280.99H789.976V274.34H730.476V280.99ZM784.936 299.05H744.126V286.59H736.356V305.63H784.936V299.05ZM827.009 244.52H819.379V270.07H867.679V244.52H860.049V250.96H827.009V244.52ZM827.009 263.98V257.12H860.049V263.98H827.009ZM813.779 282.46H840.799V292.75H848.359V282.46H873.279V276.09H813.779V282.46ZM867.889 305.63V299.12H827.429V288.13H819.729V305.63H867.889Z" fill="white"/>
<path d="M322.736 157.37V156.37H319.434L322.182 158.202L322.736 157.37ZM330.926 157.37V158.37H331.926V157.37H330.926ZM330.926 151H331.926V150H330.926V151ZM315.736 151H314.736V152H315.736V151ZM315.736 143.65H316.736V142.65H315.736V143.65ZM308.036 143.65V142.65H307.036V143.65H308.036ZM308.036 151V152H309.036V151H308.036ZM291.376 151V150H290.376V151H291.376ZM291.376 157.37H290.376V158.37H291.376V157.37ZM301.036 157.37L301.591 158.202L304.339 156.37H301.036V157.37ZM347.796 189.57V190.57H348.796V189.57H347.796ZM347.796 146.24H348.796V145.24H347.796V146.24ZM340.376 146.24V145.24H339.376V146.24H340.376ZM340.376 156.53V157.53H341.376V156.53H340.376ZM331.626 156.53V155.53H330.626V156.53H331.626ZM331.626 163.04H330.626V164.04H331.626V163.04ZM340.376 163.04H341.376V162.04H340.376V163.04ZM340.376 170.95V171.95H341.376V170.95H340.376ZM331.626 170.95V169.95H330.626V170.95H331.626ZM331.626 177.39H330.626V178.39H331.626V177.39ZM340.376 177.39H341.376V176.39H340.376V177.39ZM340.376 189.57H339.376V190.57H340.376V189.57ZM348.916 207.63V208.63H349.916V207.63H348.916ZM348.916 200.98H349.916V199.98H348.916V200.98ZM309.786 200.98H308.786V201.98H309.786V200.98ZM309.786 187.68H310.786V186.68H309.786V187.68ZM301.946 187.68V186.68H300.946V187.68H301.946ZM301.946 207.63H300.946V208.63H301.946V207.63ZM311.886 183.71C321.872 183.71 329.476 176.905 329.476 167.52H327.476C327.476 175.635 320.94 181.71 311.886 181.71V183.71ZM329.476 167.52C329.476 162.939 327.098 159.076 323.291 156.538L322.182 158.202C325.514 160.424 327.476 163.701 327.476 167.52H329.476ZM322.736 158.37H330.926V156.37H322.736V158.37ZM331.926 157.37V151H329.926V157.37H331.926ZM330.926 150H315.736V152H330.926V150ZM316.736 151V143.65H314.736V151H316.736ZM315.736 142.65H308.036V144.65H315.736V142.65ZM307.036 143.65V151H309.036V143.65H307.036ZM308.036 150H291.376V152H308.036V150ZM290.376 151V157.37H292.376V151H290.376ZM291.376 158.37H301.036V156.37H291.376V158.37ZM300.482 156.538C296.674 159.076 294.296 162.939 294.296 167.52H296.296C296.296 163.701 298.258 160.424 301.591 158.202L300.482 156.538ZM294.296 167.52C294.296 176.905 301.9 183.71 311.886 183.71V181.71C302.832 181.71 296.296 175.635 296.296 167.52H294.296ZM348.796 189.57V146.24H346.796V189.57H348.796ZM347.796 145.24H340.376V147.24H347.796V145.24ZM339.376 146.24V156.53H341.376V146.24H339.376ZM340.376 155.53H331.626V157.53H340.376V155.53ZM330.626 156.53V163.04H332.626V156.53H330.626ZM331.626 164.04H340.376V162.04H331.626V164.04ZM339.376 163.04V170.95H341.376V163.04H339.376ZM340.376 169.95H331.626V171.95H340.376V169.95ZM330.626 170.95V177.39H332.626V170.95H330.626ZM331.626 178.39H340.376V176.39H331.626V178.39ZM339.376 177.39V189.57H341.376V177.39H339.376ZM340.376 190.57H347.796V188.57H340.376V190.57ZM311.886 175.27C307.404 175.27 303.716 171.803 303.716 166.82H301.716C301.716 172.897 306.289 177.27 311.886 177.27V175.27ZM303.716 166.82C303.716 161.837 307.404 158.37 311.886 158.37V156.37C306.289 156.37 301.716 160.743 301.716 166.82H303.716ZM311.886 158.37C316.369 158.37 320.056 161.837 320.056 166.82H322.056C322.056 160.743 317.484 156.37 311.886 156.37V158.37ZM320.056 166.82C320.056 171.803 316.369 175.27 311.886 175.27V177.27C317.484 177.27 322.056 172.897 322.056 166.82H320.056ZM349.916 207.63V200.98H347.916V207.63H349.916ZM348.916 199.98H309.786V201.98H348.916V199.98ZM310.786 200.98V187.68H308.786V200.98H310.786ZM309.786 186.68H301.946V188.68H309.786V186.68ZM300.946 187.68V207.63H302.946V187.68H300.946ZM301.946 208.63H348.916V206.63H301.946V208.63ZM408.376 146.73H409.376V145.73H408.376V146.73ZM361.126 146.73V145.73H360.126V146.73H361.126ZM361.126 153.24H360.126V154.24H361.126V153.24ZM400.606 153.24H401.606V152.24H400.606V153.24ZM400.606 169.55V170.55H401.606V169.55H400.606ZM355.176 169.55V168.55H354.176V169.55H355.176ZM355.176 176.13H354.176V177.13H355.176V176.13ZM414.676 176.13V177.13H415.676V176.13H414.676ZM414.676 169.55H415.676V168.55H414.676V169.55ZM408.376 169.55H407.376V170.55H408.376V169.55ZM409.076 207.77V208.77H410.076V207.77H409.076ZM409.076 184.25H410.076V183.25H409.076V184.25ZM360.776 184.25V183.25H359.776V184.25H360.776ZM360.776 207.77H359.776V208.77H360.776V207.77ZM368.406 190.62V189.62H367.406V190.62H368.406ZM401.446 190.62H402.446V189.62H401.446V190.62ZM401.446 201.26V202.26H402.446V201.26H401.446ZM368.406 201.26H367.406V202.26H368.406V201.26ZM408.376 145.73H361.126V147.73H408.376V145.73ZM360.126 146.73V153.24H362.126V146.73H360.126ZM361.126 154.24H400.606V152.24H361.126V154.24ZM399.606 153.24V169.55H401.606V153.24H399.606ZM400.606 168.55H355.176V170.55H400.606V168.55ZM354.176 169.55V176.13H356.176V169.55H354.176ZM355.176 177.13H414.676V175.13H355.176V177.13ZM415.676 176.13V169.55H413.676V176.13H415.676ZM414.676 168.55H408.376V170.55H414.676V168.55ZM409.376 169.55V146.73H407.376V169.55H409.376ZM410.076 207.77V184.25H408.076V207.77H410.076ZM409.076 183.25H360.776V185.25H409.076V183.25ZM359.776 184.25V207.77H361.776V184.25H359.776ZM360.776 208.77H409.076V206.77H360.776V208.77ZM368.406 191.62H401.446V189.62H368.406V191.62ZM400.446 190.62V201.26H402.446V190.62H400.446ZM401.446 200.26H368.406V202.26H401.446V200.26ZM369.406 201.26V190.62H367.406V201.26H369.406ZM492.729 174.8V175.8H493.729V174.8H492.729ZM492.729 146.24H493.729V145.24H492.729V146.24ZM485.169 146.24V145.24H484.169V146.24H485.169ZM485.169 151.49V152.49H486.169V151.49H485.169ZM472.989 151.49H471.989V152.49H472.989V151.49ZM472.989 146.8H473.989V145.8H472.989V146.8ZM441.139 146.8V145.8H440.139V146.8H441.139ZM441.139 153.03H440.139V154.03H441.139V153.03ZM465.359 153.03L466.359 153.06L466.39 152.03H465.359V153.03ZM439.319 168.15L439.232 167.154L438.124 167.251L438.338 168.342L439.319 168.15ZM440.579 174.59L439.598 174.782L439.771 175.666L440.668 175.586L440.579 174.59ZM472.149 157.51V156.51H471.437L471.204 157.183L472.149 157.51ZM485.169 157.51H486.169V156.51H485.169V157.51ZM485.169 163.88V164.88H486.169V163.88H485.169ZM471.729 163.88V162.88H470.729V163.88H471.729ZM471.729 169.9H470.729V170.9H471.729V169.9ZM485.169 169.9H486.169V168.9H485.169V169.9ZM485.169 174.8H484.169V175.8H485.169V174.8ZM493.849 208.05V209.05H494.849V208.05H493.849ZM493.849 201.82H494.849V200.82H493.849V201.82ZM454.089 201.82H453.089V202.82H454.089V201.82ZM454.089 195.94V194.94H453.089V195.94H454.089ZM492.729 195.94V196.94H493.729V195.94H492.729ZM492.729 178.65H493.729V177.65H492.729V178.65ZM446.389 178.65V177.65H445.389V178.65H446.389ZM446.389 184.67H445.389V185.67H446.389V184.67ZM485.169 184.67H486.169V183.67H485.169V184.67ZM485.169 190.2V191.2H486.169V190.2H485.169ZM446.529 190.2V189.2H445.529V190.2H446.529ZM446.529 208.05H445.529V209.05H446.529V208.05ZM493.729 174.8V146.24H491.729V174.8H493.729ZM492.729 145.24H485.169V147.24H492.729V145.24ZM484.169 146.24V151.49H486.169V146.24H484.169ZM485.169 150.49H472.989V152.49H485.169V150.49ZM473.989 151.49V146.8H471.989V151.49H473.989ZM472.989 145.8H441.139V147.8H472.989V145.8ZM440.139 146.8V153.03H442.139V146.8H440.139ZM441.139 154.03H465.359V152.03H441.139V154.03ZM464.36 153C464.269 156.015 462.078 159.189 457.726 161.836C453.401 164.466 447.102 166.463 439.232 167.154L439.406 169.146C447.496 168.437 454.112 166.374 458.765 163.544C463.39 160.731 466.239 157.045 466.359 153.06L464.36 153ZM438.338 168.342L439.598 174.782L441.561 174.398L440.3 167.958L438.338 168.342ZM440.668 175.586C458.002 174.036 469.814 167.306 473.094 157.837L471.204 157.183C468.325 165.494 457.596 172.064 440.49 173.594L440.668 175.586ZM472.149 158.51H485.169V156.51H472.149V158.51ZM484.169 157.51V163.88H486.169V157.51H484.169ZM485.169 162.88H471.729V164.88H485.169V162.88ZM470.729 163.88V169.9H472.729V163.88H470.729ZM471.729 170.9H485.169V168.9H471.729V170.9ZM484.169 169.9V174.8H486.169V169.9H484.169ZM485.169 175.8H492.729V173.8H485.169V175.8ZM494.849 208.05V201.82H492.849V208.05H494.849ZM493.849 200.82H454.089V202.82H493.849V200.82ZM455.089 201.82V195.94H453.089V201.82H455.089ZM454.089 196.94H492.729V194.94H454.089V196.94ZM493.729 195.94V178.65H491.729V195.94H493.729ZM492.729 177.65H446.389V179.65H492.729V177.65ZM445.389 178.65V184.67H447.389V178.65H445.389ZM446.389 185.67H485.169V183.67H446.389V185.67ZM484.169 184.67V190.2H486.169V184.67H484.169ZM485.169 189.2H446.529V191.2H485.169V189.2ZM445.529 190.2V208.05H447.529V190.2H445.529ZM446.529 209.05H493.849V207.05H446.529V209.05ZM556.809 208.47V209.47H557.809V208.47H556.809ZM556.809 146.24H557.809V145.24H556.809V146.24ZM549.529 146.24V145.24H548.529V146.24H549.529ZM549.529 208.47H548.529V209.47H549.529V208.47ZM543.509 207.56V208.56H544.509V207.56H543.509ZM543.509 146.38H544.509V145.38H543.509V146.38ZM536.509 146.38V145.38H535.509V146.38H536.509ZM536.509 168.78V169.78H537.509V168.78H536.509ZM526.569 168.78V167.78H525.569V168.78H526.569ZM526.569 175.22H525.569V176.22H526.569V175.22ZM536.509 175.22H537.509V174.22H536.509V175.22ZM536.509 207.56H535.509V208.56H536.509V207.56ZM529.439 147.85H530.439V146.85H529.439V147.85ZM501.649 147.85V146.85H500.649V147.85H501.649ZM501.649 154.15H500.649V155.15H501.649V154.15ZM512.009 154.15H513.009V153.15H512.009V154.15ZM499.199 196.78L498.472 196.093L497.791 196.814L498.506 197.501L499.199 196.78ZM504.659 202.03L503.966 202.751L504.729 203.485L505.418 202.681L504.659 202.03ZM515.929 182.85L516.798 182.355L515.734 180.487L514.991 182.504L515.929 182.85ZM525.939 200.42L525.07 200.915L525.645 201.924L526.558 201.206L525.939 200.42ZM531.539 196.01L532.158 196.796L532.862 196.241L532.388 195.481L531.539 196.01ZM518.309 174.8L517.333 174.581L517.244 174.981L517.461 175.329L518.309 174.8ZM519.429 154.15V153.15H518.429V154.15H519.429ZM529.439 154.15V155.15H530.439V154.15H529.439ZM557.809 208.47V146.24H555.809V208.47H557.809ZM556.809 145.24H549.529V147.24H556.809V145.24ZM548.529 146.24V208.47H550.529V146.24H548.529ZM549.529 209.47H556.809V207.47H549.529V209.47ZM544.509 207.56V146.38H542.509V207.56H544.509ZM543.509 145.38H536.509V147.38H543.509V145.38ZM535.509 146.38V168.78H537.509V146.38H535.509ZM536.509 167.78H526.569V169.78H536.509V167.78ZM525.569 168.78V175.22H527.569V168.78H525.569ZM526.569 176.22H536.509V174.22H526.569V176.22ZM535.509 175.22V207.56H537.509V175.22H535.509ZM536.509 208.56H543.509V206.56H536.509V208.56ZM529.439 146.85H501.649V148.85H529.439V146.85ZM500.649 147.85V154.15H502.649V147.85H500.649ZM501.649 155.15H512.009V153.15H501.649V155.15ZM511.009 154.15V164.72H513.009V154.15H511.009ZM511.009 164.72C511.009 175.674 506.76 187.326 498.472 196.093L499.926 197.467C508.578 188.314 513.009 176.166 513.009 164.72H511.009ZM498.506 197.501L503.966 202.751L505.352 201.309L499.892 196.059L498.506 197.501ZM505.418 202.681C510.539 196.707 514.378 189.953 516.868 183.196L514.991 182.504C512.58 189.047 508.86 195.593 503.9 201.379L505.418 202.681ZM515.06 183.345L525.07 200.915L526.808 199.925L516.798 182.355L515.06 183.345ZM526.558 201.206L532.158 196.796L530.921 195.224L525.32 199.634L526.558 201.206ZM532.388 195.481L519.158 174.271L517.461 175.329L530.691 196.539L532.388 195.481ZM519.285 175.019C520.072 171.515 520.429 168.011 520.429 164.72H518.429C518.429 167.869 518.087 171.225 517.333 174.581L519.285 175.019ZM520.429 164.72V154.15H518.429V164.72H520.429ZM519.429 155.15H529.439V153.15H519.429V155.15ZM530.439 154.15V147.85H528.439V154.15H530.439ZM613.539 208.47V209.47H614.539V208.47H613.539ZM613.539 175.78V174.78H612.539V175.78H613.539ZM623.689 175.78V176.78H624.689V175.78H623.689ZM623.689 169.13H624.689V168.13H623.689V169.13ZM613.539 169.13H612.539V170.13H613.539V169.13ZM613.539 146.24H614.539V145.24H613.539V146.24ZM605.979 146.24V145.24H604.979V146.24H605.979ZM605.979 208.47H604.979V209.47H605.979V208.47ZM568.599 201.54L567.763 202.088L568.283 202.881L569.103 202.404L568.599 201.54ZM596.669 148.06H597.669V147.06H596.669V148.06ZM566.009 148.06V147.06H565.009V148.06H566.009ZM566.009 154.57H565.009V155.57H566.009V154.57ZM589.109 154.57H590.109V153.57H589.109V154.57ZM564.329 195.03L563.865 194.145L562.889 194.657L563.493 195.578L564.329 195.03ZM614.539 208.47V175.78H612.539V208.47H614.539ZM613.539 176.78H623.689V174.78H613.539V176.78ZM624.689 175.78V169.13H622.689V175.78H624.689ZM623.689 168.13H613.539V170.13H623.689V168.13ZM614.539 169.13V146.24H612.539V169.13H614.539ZM613.539 145.24H605.979V147.24H613.539V145.24ZM604.979 146.24V208.47H606.979V146.24H604.979ZM605.979 209.47H613.539V207.47H605.979V209.47ZM569.103 202.404C589.363 190.603 597.669 173.963 597.669 154.57H595.669C595.669 173.257 587.736 189.237 568.096 200.676L569.103 202.404ZM597.669 154.57V148.06H595.669V154.57H597.669ZM596.669 147.06H566.009V149.06H596.669V147.06ZM565.009 148.06V154.57H567.009V148.06H565.009ZM566.009 155.57H589.109V153.57H566.009V155.57ZM588.109 154.57C588.109 171.153 580.463 185.434 563.865 194.145L564.794 195.915C582.076 186.846 590.109 171.867 590.109 154.57H588.109ZM563.493 195.578L567.763 202.088L569.435 200.992L565.165 194.482L563.493 195.578ZM699.992 208.47V209.47H700.992V208.47H699.992ZM699.992 174.52V173.52H698.992V174.52H699.992ZM709.792 174.52V175.52H710.792V174.52H709.792ZM709.792 167.87H710.792V166.87H709.792V167.87ZM699.992 167.87H698.992V168.87H699.992V167.87ZM699.992 146.24H700.992V145.24H699.992V146.24ZM692.642 146.24V145.24H691.642V146.24H692.642ZM692.642 208.47H691.642V209.47H692.642V208.47ZM700.992 208.47V174.52H698.992V208.47H700.992ZM699.992 175.52H709.792V173.52H699.992V175.52ZM710.792 174.52V167.87H708.792V174.52H710.792ZM709.792 166.87H699.992V168.87H709.792V166.87ZM700.992 167.87V146.24H698.992V167.87H700.992ZM699.992 145.24H692.642V147.24H699.992V145.24ZM691.642 146.24V208.47H693.642V146.24H691.642ZM692.642 209.47H699.992V207.47H692.642V209.47ZM665.622 191.76C678.214 191.76 687.132 182.632 687.132 170.46H685.132C685.132 181.528 677.11 189.76 665.622 189.76V191.76ZM687.132 170.46C687.132 158.288 678.214 149.16 665.622 149.16V151.16C677.11 151.16 685.132 159.392 685.132 170.46H687.132ZM665.622 149.16C653.03 149.16 644.112 158.288 644.112 170.46H646.112C646.112 159.392 654.134 151.16 665.622 151.16V149.16ZM644.112 170.46C644.112 182.632 653.03 191.76 665.622 191.76V189.76C654.134 189.76 646.112 181.528 646.112 170.46H644.112ZM665.622 183.11C662.029 183.11 659.08 181.793 657.025 179.595C654.964 177.39 653.742 174.233 653.742 170.46H651.742C651.742 174.667 653.11 178.335 655.564 180.96C658.024 183.592 661.515 185.11 665.622 185.11V183.11ZM653.742 170.46C653.742 166.687 654.964 163.53 657.025 161.325C659.08 159.127 662.029 157.81 665.622 157.81V155.81C661.515 155.81 658.024 157.328 655.564 159.96C653.11 162.585 651.742 166.253 651.742 170.46H653.742ZM665.622 157.81C669.215 157.81 672.164 159.127 674.219 161.325C676.28 163.53 677.502 166.687 677.502 170.46H679.502C679.502 166.253 678.134 162.585 675.68 159.96C673.22 157.328 669.729 155.81 665.622 155.81V157.81ZM677.502 170.46C677.502 174.226 676.249 177.383 674.169 179.592C672.093 181.796 669.141 183.11 665.622 183.11V185.11C669.663 185.11 673.151 183.589 675.625 180.963C678.095 178.342 679.502 174.674 679.502 170.46H677.502ZM764.373 188.87V189.87H765.373V188.87H764.373ZM764.373 146.24H765.373V145.24H764.373V146.24ZM756.813 146.24V145.24H755.813V146.24H756.813ZM756.813 188.87H755.813V189.87H756.813V188.87ZM714.533 177.39H713.533V178.39H714.533V177.39ZM750.863 177.39V178.39H751.863V177.39H750.863ZM750.863 170.67H751.863V169.67H750.863V170.67ZM722.443 170.67H721.443V171.67H722.443V170.67ZM722.443 146.52H723.443V145.52H722.443V146.52ZM714.533 146.52V145.52H713.533V146.52H714.533ZM765.493 207.63V208.63H766.493V207.63H765.493ZM765.493 200.98H766.493V199.98H765.493V200.98ZM726.363 200.98H725.363V201.98H726.363V200.98ZM726.363 186H727.363V185H726.363V186ZM718.523 186V185H717.523V186H718.523ZM718.523 207.63H717.523V208.63H718.523V207.63ZM765.373 188.87V146.24H763.373V188.87H765.373ZM764.373 145.24H756.813V147.24H764.373V145.24ZM755.813 146.24V188.87H757.813V146.24H755.813ZM756.813 189.87H764.373V187.87H756.813V189.87ZM714.533 178.39H750.863V176.39H714.533V178.39ZM751.863 177.39V170.67H749.863V177.39H751.863ZM750.863 169.67H722.443V171.67H750.863V169.67ZM723.443 170.67V146.52H721.443V170.67H723.443ZM722.443 145.52H714.533V147.52H722.443V145.52ZM713.533 146.52V177.39H715.533V146.52H713.533ZM766.493 207.63V200.98H764.493V207.63H766.493ZM765.493 199.98H726.363V201.98H765.493V199.98ZM727.363 200.98V186H725.363V200.98H727.363ZM726.363 185H718.523V187H726.363V185ZM717.523 186V207.63H719.523V186H717.523ZM718.523 208.63H765.493V206.63H718.523V208.63ZM240.99 306.47V307.47H241.99V306.47H240.99ZM240.99 273.78V272.78H239.99V273.78H240.99ZM250.79 273.78V274.78H251.79V273.78H250.79ZM250.79 267.13H251.79V266.13H250.79V267.13ZM240.99 267.13H239.99V268.13H240.99V267.13ZM240.99 244.24H241.99V243.24H240.99V244.24ZM233.43 244.24V243.24H232.43V244.24H233.43ZM233.43 306.47H232.43V307.47H233.43V306.47ZM196.19 300.31L195.357 300.863L195.88 301.652L196.697 301.172L196.19 300.31ZM224.61 245.85H225.61V244.85H224.61V245.85ZM192.62 245.85V244.85H191.62V245.85H192.62ZM192.62 252.29H191.62V253.29H192.62V252.29ZM217.12 252.29H218.12V251.29H217.12V252.29ZM215.72 264.96V265.96H216.518L216.695 265.182L215.72 264.96ZM191.92 264.96V263.96H190.92V264.96H191.92ZM191.92 271.61H190.92V272.62L191.93 272.61L191.92 271.61ZM213.69 271.4L214.615 271.78L215.188 270.385L213.681 270.4L213.69 271.4ZM191.92 293.87L191.451 292.987L190.478 293.504L191.087 294.423L191.92 293.87ZM241.99 306.47V273.78H239.99V306.47H241.99ZM240.99 274.78H250.79V272.78H240.99V274.78ZM251.79 273.78V267.13H249.79V273.78H251.79ZM250.79 266.13H240.99V268.13H250.79V266.13ZM241.99 267.13V244.24H239.99V267.13H241.99ZM240.99 243.24H233.43V245.24H240.99V243.24ZM232.43 244.24V306.47H234.43V244.24H232.43ZM233.43 307.47H240.99V305.47H233.43V307.47ZM196.697 301.172C207.257 294.971 214.5 287.604 219.097 279.341C223.692 271.08 225.61 261.98 225.61 252.36H223.61C223.61 261.71 221.748 270.46 217.349 278.369C212.951 286.276 205.984 293.399 195.684 299.448L196.697 301.172ZM225.61 252.36V245.85H223.61V252.36H225.61ZM224.61 244.85H192.62V246.85H224.61V244.85ZM191.62 245.85V252.29H193.62V245.85H191.62ZM192.62 253.29H217.12V251.29H192.62V253.29ZM216.12 252.29C216.12 256.696 215.638 260.821 214.745 264.738L216.695 265.182C217.622 261.119 218.12 256.844 218.12 252.29H216.12ZM215.72 263.96H191.92V265.96H215.72V263.96ZM190.92 264.96V271.61H192.92V264.96H190.92ZM191.93 272.61L213.7 272.4L213.681 270.4L191.911 270.61L191.93 272.61ZM212.765 271.02C209.158 279.799 202.341 287.197 191.451 292.987L192.39 294.753C203.619 288.783 210.802 281.061 214.615 271.78L212.765 271.02ZM191.087 294.423L195.357 300.863L197.024 299.757L192.754 293.317L191.087 294.423ZM305.28 280.71V281.71H306.28V280.71H305.28ZM305.28 274.13H306.28V273.13H305.28V274.13ZM266.99 274.13H265.99V275.13H266.99V274.13ZM266.99 251.87V250.87H265.99V251.87H266.99ZM304.44 251.87V252.87H305.44V251.87H304.44ZM304.44 245.22H305.44V244.22H304.44V245.22ZM259.15 245.22V244.22H258.15V245.22H259.15ZM259.15 280.71H258.15V281.71H259.15V280.71ZM311.72 301.85V302.85H312.72V301.85H311.72ZM311.72 295.2H312.72V294.2H311.72V295.2ZM252.22 295.2V294.2H251.22V295.2H252.22ZM252.22 301.85H251.22V302.85H252.22V301.85ZM306.28 280.71V274.13H304.28V280.71H306.28ZM305.28 273.13H266.99V275.13H305.28V273.13ZM267.99 274.13V251.87H265.99V274.13H267.99ZM266.99 252.87H304.44V250.87H266.99V252.87ZM305.44 251.87V245.22H303.44V251.87H305.44ZM304.44 244.22H259.15V246.22H304.44V244.22ZM258.15 245.22V280.71H260.15V245.22H258.15ZM259.15 281.71H305.28V279.71H259.15V281.71ZM312.72 301.85V295.2H310.72V301.85H312.72ZM311.72 294.2H252.22V296.2H311.72V294.2ZM251.22 295.2V301.85H253.22V295.2H251.22ZM252.22 302.85H311.72V300.85H252.22V302.85ZM389.773 272.8V273.8H390.773V272.8H389.773ZM389.773 244.24H390.773V243.24H389.773V244.24ZM382.213 244.24V243.24H381.213V244.24H382.213ZM382.213 249.49V250.49H383.213V249.49H382.213ZM370.033 249.49H369.033V250.49H370.033V249.49ZM370.033 244.8H371.033V243.8H370.033V244.8ZM338.183 244.8V243.8H337.183V244.8H338.183ZM338.183 251.03H337.183V252.03H338.183V251.03ZM362.403 251.03L363.403 251.06L363.434 250.03H362.403V251.03ZM336.363 266.15L336.276 265.154L335.168 265.251L335.382 266.342L336.363 266.15ZM337.623 272.59L336.642 272.782L336.815 273.666L337.712 273.586L337.623 272.59ZM369.193 255.51V254.51H368.481L368.248 255.183L369.193 255.51ZM382.213 255.51H383.213V254.51H382.213V255.51ZM382.213 261.88V262.88H383.213V261.88H382.213ZM368.773 261.88V260.88H367.773V261.88H368.773ZM368.773 267.9H367.773V268.9H368.773V267.9ZM382.213 267.9H383.213V266.9H382.213V267.9ZM382.213 272.8H381.213V273.8H382.213V272.8ZM390.893 306.05V307.05H391.893V306.05H390.893ZM390.893 299.82H391.893V298.82H390.893V299.82ZM351.133 299.82H350.133V300.82H351.133V299.82ZM351.133 293.94V292.94H350.133V293.94H351.133ZM389.773 293.94V294.94H390.773V293.94H389.773ZM389.773 276.65H390.773V275.65H389.773V276.65ZM343.433 276.65V275.65H342.433V276.65H343.433ZM343.433 282.67H342.433V283.67H343.433V282.67ZM382.213 282.67H383.213V281.67H382.213V282.67ZM382.213 288.2V289.2H383.213V288.2H382.213ZM343.573 288.2V287.2H342.573V288.2H343.573ZM343.573 306.05H342.573V307.05H343.573V306.05ZM390.773 272.8V244.24H388.773V272.8H390.773ZM389.773 243.24H382.213V245.24H389.773V243.24ZM381.213 244.24V249.49H383.213V244.24H381.213ZM382.213 248.49H370.033V250.49H382.213V248.49ZM371.033 249.49V244.8H369.033V249.49H371.033ZM370.033 243.8H338.183V245.8H370.033V243.8ZM337.183 244.8V251.03H339.183V244.8H337.183ZM338.183 252.03H362.403V250.03H338.183V252.03ZM361.404 251C361.313 254.015 359.122 257.189 354.77 259.836C350.445 262.466 344.146 264.463 336.276 265.154L336.45 267.146C344.54 266.437 351.156 264.374 355.809 261.544C360.434 258.731 363.283 255.045 363.403 251.06L361.404 251ZM335.382 266.342L336.642 272.782L338.604 272.398L337.344 265.958L335.382 266.342ZM337.712 273.586C355.046 272.036 366.858 265.306 370.138 255.837L368.248 255.183C365.369 263.494 354.64 270.064 337.534 271.594L337.712 273.586ZM369.193 256.51H382.213V254.51H369.193V256.51ZM381.213 255.51V261.88H383.213V255.51H381.213ZM382.213 260.88H368.773V262.88H382.213V260.88ZM367.773 261.88V267.9H369.773V261.88H367.773ZM368.773 268.9H382.213V266.9H368.773V268.9ZM381.213 267.9V272.8H383.213V267.9H381.213ZM382.213 273.8H389.773V271.8H382.213V273.8ZM391.893 306.05V299.82H389.893V306.05H391.893ZM390.893 298.82H351.133V300.82H390.893V298.82ZM352.133 299.82V293.94H350.133V299.82H352.133ZM351.133 294.94H389.773V292.94H351.133V294.94ZM390.773 293.94V276.65H388.773V293.94H390.773ZM389.773 275.65H343.433V277.65H389.773V275.65ZM342.433 276.65V282.67H344.433V276.65H342.433ZM343.433 283.67H382.213V281.67H343.433V283.67ZM381.213 282.67V288.2H383.213V282.67H381.213ZM382.213 287.2H343.573V289.2H382.213V287.2ZM342.573 288.2V306.05H344.573V288.2H342.573ZM343.573 307.05H390.893V305.05H343.573V307.05ZM453.853 306.47V307.47H454.853V306.47H453.853ZM453.853 244.24H454.853V243.24H453.853V244.24ZM446.573 244.24V243.24H445.573V244.24H446.573ZM446.573 306.47H445.573V307.47H446.573V306.47ZM440.553 305.56V306.56H441.553V305.56H440.553ZM440.553 244.38H441.553V243.38H440.553V244.38ZM433.553 244.38V243.38H432.553V244.38H433.553ZM433.553 266.78V267.78H434.553V266.78H433.553ZM423.613 266.78V265.78H422.613V266.78H423.613ZM423.613 273.22H422.613V274.22H423.613V273.22ZM433.553 273.22H434.553V272.22H433.553V273.22ZM433.553 305.56H432.553V306.56H433.553V305.56ZM426.483 245.85H427.483V244.85H426.483V245.85ZM398.693 245.85V244.85H397.693V245.85H398.693ZM398.693 252.15H397.693V253.15H398.693V252.15ZM409.053 252.15H410.053V251.15H409.053V252.15ZM396.243 294.78L395.516 294.093L394.835 294.814L395.55 295.501L396.243 294.78ZM401.703 300.03L401.01 300.751L401.773 301.485L402.462 300.681L401.703 300.03ZM412.973 280.85L413.842 280.355L412.778 278.487L412.035 280.504L412.973 280.85ZM422.983 298.42L422.114 298.915L422.689 299.924L423.602 299.206L422.983 298.42ZM428.583 294.01L429.202 294.796L429.906 294.241L429.432 293.481L428.583 294.01ZM415.353 272.8L414.377 272.581L414.288 272.981L414.505 273.329L415.353 272.8ZM416.473 252.15V251.15H415.473V252.15H416.473ZM426.483 252.15V253.15H427.483V252.15H426.483ZM454.853 306.47V244.24H452.853V306.47H454.853ZM453.853 243.24H446.573V245.24H453.853V243.24ZM445.573 244.24V306.47H447.573V244.24H445.573ZM446.573 307.47H453.853V305.47H446.573V307.47ZM441.553 305.56V244.38H439.553V305.56H441.553ZM440.553 243.38H433.553V245.38H440.553V243.38ZM432.553 244.38V266.78H434.553V244.38H432.553ZM433.553 265.78H423.613V267.78H433.553V265.78ZM422.613 266.78V273.22H424.613V266.78H422.613ZM423.613 274.22H433.553V272.22H423.613V274.22ZM432.553 273.22V305.56H434.553V273.22H432.553ZM433.553 306.56H440.553V304.56H433.553V306.56ZM426.483 244.85H398.693V246.85H426.483V244.85ZM397.693 245.85V252.15H399.693V245.85H397.693ZM398.693 253.15H409.053V251.15H398.693V253.15ZM408.053 252.15V262.72H410.053V252.15H408.053ZM408.053 262.72C408.053 273.674 403.804 285.326 395.516 294.093L396.97 295.467C405.622 286.314 410.053 274.166 410.053 262.72H408.053ZM395.55 295.501L401.01 300.751L402.396 299.309L396.936 294.059L395.55 295.501ZM402.462 300.681C407.583 294.707 411.422 287.953 413.911 281.196L412.035 280.504C409.624 287.047 405.904 293.593 400.944 299.379L402.462 300.681ZM412.104 281.345L422.114 298.915L423.852 297.925L413.842 280.355L412.104 281.345ZM423.602 299.206L429.202 294.796L427.964 293.224L422.364 297.634L423.602 299.206ZM429.432 293.481L416.202 272.271L414.505 273.329L427.735 294.539L429.432 293.481ZM416.329 273.019C417.116 269.515 417.473 266.011 417.473 262.72H415.473C415.473 265.869 415.131 269.225 414.377 272.581L416.329 273.019ZM417.473 262.72V252.15H415.473V262.72H417.473ZM416.473 253.15H426.483V251.15H416.473V253.15ZM427.483 252.15V245.85H425.483V252.15H427.483ZM506.103 250.12H507.103V249.12H506.103V250.12ZM506.103 254.25V255.25H507.103V254.25H506.103ZM465.783 254.25V253.25H464.783V254.25H465.783ZM465.783 268.81H464.783V269.81H465.783V268.81ZM514.643 268.81V269.81H515.643V268.81H514.643ZM514.643 263.63H515.643V262.63H514.643V263.63ZM473.413 263.63H472.413V264.63H473.413V263.63ZM473.413 259.36V258.36H472.413V259.36H473.413ZM513.733 259.36V260.36H514.733V259.36H513.733ZM513.733 244.45H514.733V243.45H513.733V244.45ZM465.643 244.45V243.45H464.643V244.45H465.643ZM465.643 250.12H464.643V251.12H465.643V250.12ZM519.683 278.19V279.19H520.683V278.19H519.683ZM519.683 272.59H520.683V271.59H519.683V272.59ZM460.183 272.59V271.59H459.183V272.59H460.183ZM460.183 278.19H459.183V279.19H460.183V278.19ZM506.103 287.08H507.103V286.077L506.1 286.08L506.103 287.08ZM506.103 291.14V292.14H507.103V291.14H506.103ZM465.783 291.14V290.14H464.783V291.14H465.783ZM465.783 306.19H464.783V307.19H465.783V306.19ZM514.643 306.19V307.19H515.643V306.19H514.643ZM514.643 300.52H515.643V299.52H514.643V300.52ZM473.413 300.52H472.413V301.52H473.413V300.52ZM473.413 296.32V295.32H472.413V296.32H473.413ZM513.733 296.32V297.32H514.733V296.32H513.733ZM513.733 281.97H514.733V280.97H513.733V281.97ZM465.643 281.97V280.97H464.643V281.97H465.643ZM465.643 287.22H464.643V288.223L465.647 288.22L465.643 287.22ZM505.103 250.12V254.25H507.103V250.12H505.103ZM506.103 253.25H465.783V255.25H506.103V253.25ZM464.783 254.25V268.81H466.783V254.25H464.783ZM465.783 269.81H514.643V267.81H465.783V269.81ZM515.643 268.81V263.63H513.643V268.81H515.643ZM514.643 262.63H473.413V264.63H514.643V262.63ZM474.413 263.63V259.36H472.413V263.63H474.413ZM473.413 260.36H513.733V258.36H473.413V260.36ZM514.733 259.36V244.45H512.733V259.36H514.733ZM513.733 243.45H465.643V245.45H513.733V243.45ZM464.643 244.45V250.12H466.643V244.45H464.643ZM465.643 251.12H506.103V249.12H465.643V251.12ZM520.683 278.19V272.59H518.683V278.19H520.683ZM519.683 271.59H460.183V273.59H519.683V271.59ZM459.183 272.59V278.19H461.183V272.59H459.183ZM460.183 279.19H519.683V277.19H460.183V279.19ZM505.103 287.08V291.14H507.103V287.08H505.103ZM506.103 290.14H465.783V292.14H506.103V290.14ZM464.783 291.14V306.19H466.783V291.14H464.783ZM465.783 307.19H514.643V305.19H465.783V307.19ZM515.643 306.19V300.52H513.643V306.19H515.643ZM514.643 299.52H473.413V301.52H514.643V299.52ZM474.413 300.52V296.32H472.413V300.52H474.413ZM473.413 297.32H513.733V295.32H473.413V297.32ZM514.733 296.32V281.97H512.733V296.32H514.733ZM513.733 280.97H465.643V282.97H513.733V280.97ZM464.643 281.97V287.22H466.643V281.97H464.643ZM465.647 288.22L506.107 288.08L506.1 286.08L465.64 286.22L465.647 288.22ZM598.436 289.81V290.81H599.436V289.81H598.436ZM598.436 244.24H599.436V243.24H598.436V244.24ZM590.876 244.24V243.24H589.876V244.24H590.876ZM590.876 254.39V255.39H591.876V254.39H590.876ZM582.966 254.39V253.39H581.966V254.39H582.966ZM582.966 260.83H581.966V261.83H582.966V260.83ZM590.876 260.83H591.876V259.83H590.876V260.83ZM590.876 289.81H589.876V290.81H590.876V289.81ZM543.136 280.71H542.136V281.71H543.136V280.71ZM560.356 280.71H561.356V279.71H560.356V280.71ZM560.356 289.67H559.356V290.67H560.356V289.67ZM567.706 289.67V290.67H568.706V289.67H567.706ZM567.706 280.71V279.71H566.706V280.71H567.706ZM584.226 280.71V281.71H585.226V280.71H584.226ZM584.226 274.48H585.226V273.48H584.226V274.48ZM543.136 274.48V273.48H542.136V274.48H543.136ZM599.556 305.63V306.63H600.556V305.63H599.556ZM599.556 299.12H600.556V298.12H599.556V299.12ZM557.626 299.12H556.626V300.12H557.626V299.12ZM557.626 288.48H558.626V287.48H557.626V288.48ZM550.136 288.48V287.48H549.136V288.48H550.136ZM550.136 305.63H549.136V306.63H550.136V305.63ZM563.226 271.56C573.742 271.56 581.236 265.402 581.236 256.7H579.236C579.236 263.958 573.01 269.56 563.226 269.56V271.56ZM581.236 256.7C581.236 248.01 573.756 241.7 563.226 241.7V243.7C572.996 243.7 579.236 249.43 579.236 256.7H581.236ZM563.226 241.7C552.696 241.7 545.216 248.01 545.216 256.7H547.216C547.216 249.43 553.456 243.7 563.226 243.7V241.7ZM545.216 256.7C545.216 265.402 552.71 271.56 563.226 271.56V269.56C553.442 269.56 547.216 263.958 547.216 256.7H545.216ZM599.436 289.81V244.24H597.436V289.81H599.436ZM598.436 243.24H590.876V245.24H598.436V243.24ZM589.876 244.24V254.39H591.876V244.24H589.876ZM590.876 253.39H582.966V255.39H590.876V253.39ZM581.966 254.39V260.83H583.966V254.39H581.966ZM582.966 261.83H590.876V259.83H582.966V261.83ZM589.876 260.83V289.81H591.876V260.83H589.876ZM590.876 290.81H598.436V288.81H590.876V290.81ZM563.226 263.54C558.069 263.54 554.776 260.534 554.776 256.7H552.776C552.776 261.966 557.323 265.54 563.226 265.54V263.54ZM554.776 256.7C554.776 252.866 558.069 249.86 563.226 249.86V247.86C557.323 247.86 552.776 251.434 552.776 256.7H554.776ZM563.226 249.86C568.383 249.86 571.676 252.866 571.676 256.7H573.676C573.676 251.434 569.129 247.86 563.226 247.86V249.86ZM571.676 256.7C571.676 260.534 568.383 263.54 563.226 263.54V265.54C569.129 265.54 573.676 261.966 573.676 256.7H571.676ZM543.136 281.71H560.356V279.71H543.136V281.71ZM559.356 280.71V289.67H561.356V280.71H559.356ZM560.356 290.67H567.706V288.67H560.356V290.67ZM568.706 289.67V280.71H566.706V289.67H568.706ZM567.706 281.71H584.226V279.71H567.706V281.71ZM585.226 280.71V274.48H583.226V280.71H585.226ZM584.226 273.48H543.136V275.48H584.226V273.48ZM542.136 274.48V280.71H544.136V274.48H542.136ZM600.556 305.63V299.12H598.556V305.63H600.556ZM599.556 298.12H557.626V300.12H599.556V298.12ZM558.626 299.12V288.48H556.626V299.12H558.626ZM557.626 287.48H550.136V289.48H557.626V287.48ZM549.136 288.48V305.63H551.136V288.48H549.136ZM550.136 306.63H599.556V304.63H550.136V306.63ZM645.296 252.5H646.296V251.5H645.296V252.5ZM629.756 252.5H628.756V253.5H629.756V252.5ZM629.756 242.21H630.756V241.21H629.756V242.21ZM622.126 242.21V241.21H621.126V242.21H622.126ZM622.126 252.5V253.5H623.126V252.5H622.126ZM605.886 252.5V251.5H604.886V252.5H605.886ZM605.886 259.01H604.886V260.01H605.886V259.01ZM645.296 259.01V260.01H646.296V259.01H645.296ZM657.966 306.47V307.47H658.966V306.47H657.966ZM657.966 275.95V274.95H656.966V275.95H657.966ZM667.416 275.95V276.95H668.416V275.95H667.416ZM667.416 269.51H668.416V268.51H667.416V269.51ZM657.966 269.51H656.966V270.51H657.966V269.51ZM657.966 244.24H658.966V243.24H657.966V244.24ZM650.546 244.24V243.24H649.546V244.24H650.546ZM650.546 306.47H649.546V307.47H650.546V306.47ZM645.296 251.5H629.756V253.5H645.296V251.5ZM630.756 252.5V242.21H628.756V252.5H630.756ZM629.756 241.21H622.126V243.21H629.756V241.21ZM621.126 242.21V252.5H623.126V242.21H621.126ZM622.126 251.5H605.886V253.5H622.126V251.5ZM604.886 252.5V259.01H606.886V252.5H604.886ZM605.886 260.01H645.296V258.01H605.886V260.01ZM646.296 259.01V252.5H644.296V259.01H646.296ZM658.966 306.47V275.95H656.966V306.47H658.966ZM657.966 276.95H667.416V274.95H657.966V276.95ZM668.416 275.95V269.51H666.416V275.95H668.416ZM667.416 268.51H657.966V270.51H667.416V268.51ZM658.966 269.51V244.24H656.966V269.51H658.966ZM657.966 243.24H650.546V245.24H657.966V243.24ZM649.546 244.24V306.47H651.546V244.24H649.546ZM650.546 307.47H657.966V305.47H650.546V307.47ZM625.976 298.37C637.074 298.37 644.826 290.106 644.826 280.71H642.826C642.826 288.954 636.018 296.37 625.976 296.37V298.37ZM644.826 280.71C644.826 271.314 637.074 263.05 625.976 263.05V265.05C636.018 265.05 642.826 272.466 642.826 280.71H644.826ZM625.976 263.05C614.878 263.05 607.126 271.314 607.126 280.71H609.126C609.126 272.466 615.934 265.05 625.976 265.05V263.05ZM607.126 280.71C607.126 290.106 614.878 298.37 625.976 298.37V296.37C615.934 296.37 609.126 288.954 609.126 280.71H607.126ZM625.976 289.93C620.587 289.93 616.756 285.977 616.756 280.71H614.756C614.756 287.063 619.465 291.93 625.976 291.93V289.93ZM616.756 280.71C616.756 275.443 620.587 271.49 625.976 271.49V269.49C619.465 269.49 614.756 274.357 614.756 280.71H616.756ZM625.976 271.49C631.365 271.49 635.196 275.443 635.196 280.71H637.196C637.196 274.357 632.487 269.49 625.976 269.49V271.49ZM635.196 280.71C635.196 285.977 631.365 289.93 625.976 289.93V291.93C632.487 291.93 637.196 287.063 637.196 280.71H635.196ZM722.396 306.47V307.47H723.396V306.47H722.396ZM722.396 244.24H723.396V243.24H722.396V244.24ZM714.766 244.24V243.24H713.766V244.24H714.766ZM714.766 306.47H713.766V307.47H714.766V306.47ZM684.386 245.71V244.71H683.386V245.71H684.386ZM666.186 291.28L665.538 290.519L664.775 291.169L665.426 291.93L666.186 291.28ZM671.576 297.58L670.816 298.23L671.496 299.025L672.26 298.31L671.576 297.58ZM688.166 273.78L688.987 273.209L687.916 271.669L687.235 273.416L688.166 273.78ZM703.986 296.53L703.165 297.101L703.843 298.076L704.689 297.242L703.986 296.53ZM709.586 291L710.289 291.712L710.914 291.094L710.382 290.395L709.586 291ZM690.546 265.94L689.572 265.715L689.466 266.172L689.75 266.545L690.546 265.94ZM692.156 245.71H693.156V244.71H692.156V245.71ZM723.396 306.47V244.24H721.396V306.47H723.396ZM722.396 243.24H714.766V245.24H722.396V243.24ZM713.766 244.24V306.47H715.766V244.24H713.766ZM714.766 307.47H722.396V305.47H714.766V307.47ZM683.386 245.71V251.87H685.386V245.71H683.386ZM683.386 251.87C683.386 267.394 677.147 280.627 665.538 290.519L666.835 292.041C678.885 281.773 685.386 267.986 685.386 251.87H683.386ZM665.426 291.93L670.816 298.23L672.336 296.93L666.946 290.63L665.426 291.93ZM672.26 298.31C680.055 291.01 685.677 282.909 689.098 274.144L687.235 273.416C683.935 281.871 678.497 289.73 670.893 296.85L672.26 298.31ZM687.345 274.351L703.165 297.101L704.807 295.959L688.987 273.209L687.345 274.351ZM704.689 297.242L710.289 291.712L708.883 290.288L703.283 295.818L704.689 297.242ZM710.382 290.395L691.342 265.335L689.75 266.545L708.79 291.605L710.382 290.395ZM691.52 266.165C692.587 261.543 693.156 256.778 693.156 251.87H691.156C691.156 256.622 690.605 261.237 689.572 265.715L691.52 266.165ZM693.156 251.87V245.71H691.156V251.87H693.156ZM692.156 244.71H684.386V246.71H692.156V244.71ZM736.216 244.38V243.38H735.216V244.38H736.216ZM736.216 266.78H735.216V267.78H736.216V266.78ZM784.726 266.78V267.78H785.726V266.78H784.726ZM784.726 260.13H785.726V259.13H784.726V260.13ZM743.986 260.13H742.986V261.13H743.986V260.13ZM743.986 244.38H744.986V243.38H743.986V244.38ZM730.476 280.99H729.476V281.99H730.476V280.99ZM789.976 280.99V281.99H790.976V280.99H789.976ZM789.976 274.34H790.976V273.34H789.976V274.34ZM730.476 274.34V273.34H729.476V274.34H730.476ZM784.936 299.05H785.936V298.05H784.936V299.05ZM744.126 299.05H743.126V300.05H744.126V299.05ZM744.126 286.59H745.126V285.59H744.126V286.59ZM736.356 286.59V285.59H735.356V286.59H736.356ZM736.356 305.63H735.356V306.63H736.356V305.63ZM784.936 305.63V306.63H785.936V305.63H784.936ZM735.216 244.38V266.78H737.216V244.38H735.216ZM736.216 267.78H784.726V265.78H736.216V267.78ZM785.726 266.78V260.13H783.726V266.78H785.726ZM784.726 259.13H743.986V261.13H784.726V259.13ZM744.986 260.13V244.38H742.986V260.13H744.986ZM743.986 243.38H736.216V245.38H743.986V243.38ZM730.476 281.99H789.976V279.99H730.476V281.99ZM790.976 280.99V274.34H788.976V280.99H790.976ZM789.976 273.34H730.476V275.34H789.976V273.34ZM729.476 274.34V280.99H731.476V274.34H729.476ZM784.936 298.05H744.126V300.05H784.936V298.05ZM745.126 299.05V286.59H743.126V299.05H745.126ZM744.126 285.59H736.356V287.59H744.126V285.59ZM735.356 286.59V305.63H737.356V286.59H735.356ZM736.356 306.63H784.936V304.63H736.356V306.63ZM785.936 305.63V299.05H783.936V305.63H785.936ZM827.009 244.52H828.009V243.52H827.009V244.52ZM819.379 244.52V243.52H818.379V244.52H819.379ZM819.379 270.07H818.379V271.07H819.379V270.07ZM867.679 270.07V271.07H868.679V270.07H867.679ZM867.679 244.52H868.679V243.52H867.679V244.52ZM860.049 244.52V243.52H859.049V244.52H860.049ZM860.049 250.96V251.96H861.049V250.96H860.049ZM827.009 250.96H826.009V251.96H827.009V250.96ZM827.009 263.98H826.009V264.98H827.009V263.98ZM827.009 257.12V256.12H826.009V257.12H827.009ZM860.049 257.12H861.049V256.12H860.049V257.12ZM860.049 263.98V264.98H861.049V263.98H860.049ZM813.779 282.46H812.779V283.46H813.779V282.46ZM840.799 282.46H841.799V281.46H840.799V282.46ZM840.799 292.75H839.799V293.75H840.799V292.75ZM848.359 292.75V293.75H849.359V292.75H848.359ZM848.359 282.46V281.46H847.359V282.46H848.359ZM873.279 282.46V283.46H874.279V282.46H873.279ZM873.279 276.09H874.279V275.09H873.279V276.09ZM813.779 276.09V275.09H812.779V276.09H813.779ZM867.889 305.63V306.63H868.889V305.63H867.889ZM867.889 299.12H868.889V298.12H867.889V299.12ZM827.429 299.12H826.429V300.12H827.429V299.12ZM827.429 288.13H828.429V287.13H827.429V288.13ZM819.729 288.13V287.13H818.729V288.13H819.729ZM819.729 305.63H818.729V306.63H819.729V305.63ZM827.009 243.52H819.379V245.52H827.009V243.52ZM818.379 244.52V270.07H820.379V244.52H818.379ZM819.379 271.07H867.679V269.07H819.379V271.07ZM868.679 270.07V244.52H866.679V270.07H868.679ZM867.679 243.52H860.049V245.52H867.679V243.52ZM859.049 244.52V250.96H861.049V244.52H859.049ZM860.049 249.96H827.009V251.96H860.049V249.96ZM828.009 250.96V244.52H826.009V250.96H828.009ZM828.009 263.98V257.12H826.009V263.98H828.009ZM827.009 258.12H860.049V256.12H827.009V258.12ZM859.049 257.12V263.98H861.049V257.12H859.049ZM860.049 262.98H827.009V264.98H860.049V262.98ZM813.779 283.46H840.799V281.46H813.779V283.46ZM839.799 282.46V292.75H841.799V282.46H839.799ZM840.799 293.75H848.359V291.75H840.799V293.75ZM849.359 292.75V282.46H847.359V292.75H849.359ZM848.359 283.46H873.279V281.46H848.359V283.46ZM874.279 282.46V276.09H872.279V282.46H874.279ZM873.279 275.09H813.779V277.09H873.279V275.09ZM812.779 276.09V282.46H814.779V276.09H812.779ZM868.889 305.63V299.12H866.889V305.63H868.889ZM867.889 298.12H827.429V300.12H867.889V298.12ZM828.429 299.12V288.13H826.429V299.12H828.429ZM827.429 287.13H819.729V289.13H827.429V287.13ZM818.729 288.13V305.63H820.729V288.13H818.729ZM819.729 306.63H867.889V304.63H819.729V306.63Z" fill="white"/>
<path d="M352.492 363.404H348.317V374.259H339.704V365.997H335.573V372.677H325.729V365.997H321.554V385.948H339.704V377.643H348.317V392.496H352.492V363.404ZM325.729 382.564V375.885H335.573V382.564H325.729ZM326.784 401.9H353.371V398.517H331.002V389.64H326.784V401.9ZM389.089 363.36H384.958V378.961H376.125V382.389H384.958V402.735H389.089V363.36ZM356.218 392.145L358.416 395.44C371.775 388.827 376.213 378.983 376.257 367.579H357.976V370.919H372.017C371.292 379.95 366.655 387.047 356.218 392.145ZM428.983 394.518H412.943V387.618H425.511V384.19H401.473V378.434H424.588V366.129H397.254V369.557H420.458V375.094H397.342V387.618H408.812V394.518H392.948V398.033H428.983V394.518ZM465.581 383.092H429.545V386.476H445.761V394.122H449.98V386.476H465.581V383.092ZM433.5 372.281C433.479 377.181 439.06 380.235 447.519 380.235C455.979 380.235 461.516 377.181 461.494 372.281C461.516 367.359 455.979 364.305 447.519 364.283C439.06 364.305 433.479 367.359 433.5 372.281ZM434.072 401.9H461.582V398.473H438.247V390.343H434.072V401.9ZM437.983 372.281C437.939 369.359 441.762 367.645 447.519 367.623C453.298 367.645 457.077 369.359 457.099 372.281C457.077 375.116 453.298 376.852 447.519 376.852C441.762 376.852 437.939 375.116 437.983 372.281ZM507.794 363.404H503.62V373.644H497.292V377.071H503.62V381.949H497.292V385.289H503.62V393.419H507.794V363.404ZM475.011 371.358H497.16V367.975H488.371V363.36H484.24V367.975H475.011V371.358ZM477.208 380.807C477.208 385.333 480.944 388.409 486.261 388.409C491.557 388.409 495.336 385.333 495.358 380.807C495.336 376.302 491.557 373.226 486.261 373.248C480.944 373.226 477.208 376.302 477.208 380.807ZM481.12 380.807C481.098 378.214 483.207 376.544 486.261 376.5C489.271 376.544 491.403 378.214 491.447 380.807C491.403 383.487 489.271 385.157 486.261 385.157C483.207 385.157 481.098 383.487 481.12 380.807ZM482.086 401.9H508.673V398.517H486.305V390.782H482.086V401.9ZM543.074 365.338H516.135V368.766H538.943C538.943 371.754 538.899 375.116 537.844 379.708H511.609V383.136H547.644V379.708H542.063C543.096 374.962 543.096 371.402 543.074 368.326V365.338ZM516.003 402.252H543.118V388.146H516.003V402.252ZM520.09 398.868V391.441H538.987V398.868H520.09ZM589.814 363.36H585.639V368.81H577.092C577.312 367.645 577.421 366.437 577.421 365.162H559.667V368.59H572.829C572.148 374.369 567.05 378.763 557.602 380.851L559.052 384.278C567.753 382.257 573.708 378.214 576.147 372.105H585.639V376.368H575.664V379.62H585.639V383.399H589.814V363.36ZM564.062 388.365H585.639V391.881H564.15V402.34H591V399H568.281V395.045H589.814V385.069H564.062V388.365ZM627.422 363.36H623.423V402.735H627.422V363.36ZM593.057 391.881L595.606 395.001C599.451 392.606 602.132 388.211 603.538 383.07C604.922 387.816 607.493 391.837 611.25 394.078L613.755 391.002C608.218 387.816 605.494 381.07 605.494 374.347V371.183H612.261V367.799H594.244V371.183H601.495V374.347C601.473 381.356 598.638 388.519 593.057 391.881ZM609.361 380.719H615.469V400.758H619.424V364.195H615.469V377.291H609.361V380.719ZM662.13 374.874H639.147V364.767H635.016V378.214H662.13V374.874ZM630.226 386.52H666.261V383.18H630.226V386.52ZM634.708 401.812H662.394V398.385H638.883V390.255H634.708V401.812ZM706.849 367.359H679.515V370.787H702.718V371.578C702.718 376.544 702.718 382.323 701.136 390.211L705.399 390.606C706.849 382.191 706.849 376.676 706.849 371.578V367.359ZM675.648 397.154H711.551V393.683H675.648V397.154ZM732.241 366.832H713.828V385.201H732.241V366.832ZM717.915 381.905V370.216H728.154V381.905H717.915ZM718.266 401.9H744.897V398.517H722.441V389.42H718.266V401.9ZM739.052 392.188H743.227V378.609H748.94V375.094H743.227V363.316H739.052V392.188ZM756.182 367.184H751.041L751.436 389.815H755.787L756.182 367.184ZM750.513 396.188C750.491 397.901 751.919 399.286 753.633 399.308C755.325 399.286 756.731 397.901 756.753 396.188C756.731 394.474 755.325 393.067 753.633 393.067C751.919 393.067 750.491 394.474 750.513 396.188ZM332.501 426.36H328.282V454.969H332.501V441.478H338.214V438.006H332.501V426.36ZM301.52 447.322L303.277 450.662C314.791 447.168 321.822 439.676 321.822 429.349H303.189V432.82H317.274C316.461 439.302 310.748 444.554 301.52 447.322ZM307.496 464.9H334.127V461.517H311.715V452.024H307.496V464.9ZM371.032 426.36H366.857V433.655H360.705V437.083H366.857V441.214H360.705V444.729H366.857V455.584H371.032V426.36ZM338.249 446.487L338.776 450.003C345.083 449.981 353.959 449.827 361.496 448.641L361.32 445.564C359.76 445.74 358.156 445.872 356.486 446.004V432.82H360.266V429.437H339.348V432.82H343.039V446.465C341.347 446.465 339.721 446.487 338.249 446.487ZM345.368 464.9H372.043V461.517H349.587V453.211H345.368V464.9ZM347.082 446.399V432.82H352.487V446.224C350.664 446.29 348.862 446.355 347.082 446.399ZM405.784 426.404H401.609V455.848H405.784V442.532H411.497V439.061H405.784V426.404ZM374.891 434.358H398.357V430.975H388.733V426.36H384.559V430.975H374.891V434.358ZM377.044 443.675C377.022 448.135 380.911 451.036 386.624 451.058C392.271 451.036 396.16 448.135 396.16 443.675C396.16 439.17 392.271 436.226 386.624 436.248C380.911 436.226 377.022 439.17 377.044 443.675ZM380.823 464.9H407.454V461.517H384.998V453.519H380.823V464.9ZM381.087 443.675C381.043 441.082 383.284 439.478 386.624 439.456C389.964 439.478 392.205 441.082 392.249 443.675C392.205 446.246 389.964 447.828 386.624 447.806C383.284 447.828 381.043 446.246 381.087 443.675ZM440.703 430.359H422.729V433.743H436.506C436.353 435.984 436.023 438.116 435.43 440.137L420.664 441.126L421.279 444.729L434.133 443.521C431.804 448.509 427.563 452.75 420.444 456.243L422.729 459.363C437.1 452.288 440.659 441.983 440.703 430.359ZM446.724 465.691H450.898V445.521H457.007V442.093H450.898V426.36H446.724V465.691ZM488.771 445.037H465.479V433.304H488.419V429.876H461.349V448.465H488.771V445.037ZM456.866 460.55H492.901V457.078H456.866V460.55ZM535.071 426.36H530.896V431.81H522.349C522.569 430.645 522.679 429.437 522.679 428.162H504.925V431.59H518.086C517.405 437.369 512.308 441.763 502.859 443.851L504.31 447.278C513.011 445.257 518.965 441.214 521.404 435.105H530.896V439.368H520.921V442.62H530.896V446.399H535.071V426.36ZM509.319 451.365H530.896V454.881H509.407V465.34H536.258V462H513.538V458.045H535.071V448.069H509.319V451.365ZM572.68 426.36H568.681V465.735H572.68V426.36ZM538.314 454.881L540.863 458.001C544.708 455.606 547.389 451.211 548.795 446.07C550.18 450.816 552.75 454.837 556.508 457.078L559.013 454.002C553.476 450.816 550.751 444.07 550.751 437.347V434.183H557.519V430.799H539.501V434.183H546.752V437.347C546.73 444.356 543.896 451.519 538.314 454.881ZM554.618 443.719H560.727V463.758H564.682V427.195H560.727V440.291H554.618V443.719ZM606.201 426.36H602.026V465.691H606.201V445.521H612.31V442.049H606.201V426.36ZM575.571 455.188L577.9 458.44C590.864 452.046 595.874 441.873 595.918 430.491H577.549V433.963H591.655C590.798 443.147 585.437 450.267 575.571 455.188ZM651.579 426.36H647.404V465.691H651.579V445.521H657.688V442.049H651.579V426.36ZM620.949 455.188L623.278 458.44C636.242 452.046 641.252 441.873 641.296 430.491H622.927V433.963H637.033C636.176 443.147 630.815 450.267 620.949 455.188ZM689.363 436.995H666.468V427.063H662.337V440.379H689.363V436.995ZM657.547 447.981H693.494V444.554H657.547V447.981ZM661.81 458.353C661.81 462.967 666.929 465.56 675.477 465.56C683.958 465.56 689.034 462.967 689.056 458.353C689.034 453.76 683.958 451.167 675.477 451.189C666.929 451.167 661.81 453.76 661.81 458.353ZM666.028 458.353C666.006 455.804 669.456 454.463 675.477 454.441C681.409 454.463 684.881 455.804 684.881 458.353C684.881 460.879 681.409 462.33 675.477 462.352C669.456 462.33 666.006 460.879 666.028 458.353ZM713.656 432.864H705.966V427.503H701.835V432.864H694.101V436.248H713.656V432.864ZM695.375 447.674C695.353 453.057 698.957 456.836 703.9 456.814C708.888 456.836 712.448 453.057 712.47 447.674C712.448 442.378 708.888 438.621 703.9 438.621C698.957 438.621 695.353 442.378 695.375 447.674ZM699.066 447.674C699.044 444.4 701.066 442.115 703.9 442.093C706.735 442.115 708.778 444.4 708.778 447.674C708.778 451.014 706.735 453.255 703.9 453.255C701.066 453.255 699.044 451.014 699.066 447.674ZM715.458 463.89H719.413V446.18H723.939V465.735H727.895V426.36H723.939V442.752H719.413V427.239H715.458V463.89ZM766.865 457.342H758.252V446.971C761.416 445.191 763.306 442.4 763.306 438.929C763.306 432.732 757.219 428.667 748.76 428.646C740.322 428.667 734.236 432.732 734.258 438.929C734.236 442.466 736.213 445.279 739.443 447.059V457.342H730.83V460.813H766.865V457.342ZM738.301 438.929C738.301 434.688 742.585 431.985 748.76 431.985C754.89 431.985 759.241 434.688 759.263 438.929C759.241 443.147 754.89 445.894 748.76 445.916C742.585 445.894 738.301 443.147 738.301 438.929ZM743.574 457.342V448.597C745.156 448.97 746.914 449.168 748.76 449.168C750.649 449.168 752.429 448.97 754.033 448.597V457.342H743.574ZM771.954 462.308C773.646 462.286 775.052 460.901 775.074 459.188C775.052 457.474 773.646 456.067 771.954 456.067C770.24 456.067 768.812 457.474 768.834 459.188C768.812 460.901 770.24 462.286 771.954 462.308Z" fill="white"/>
<path d="M710.13 1040.1C707.781 1043.86 703.139 1046.09 698.266 1045.08C690.687 1043.51 682.16 1040.41 678.467 1034.3C671.118 1022.11 681.993 951.371 681.993 951.371L710.438 982.323L710.846 998.931L711.713 1033.97C711.827 1036.22 711.239 1038.32 710.131 1040.07L710.13 1040.1Z" fill="#FFC3C6"/>
<path d="M728.615 982.745C728.365 985.021 727.832 986.683 726.938 987.513C709.931 1003.55 685.093 967.143 685.093 967.143L690.012 890.518C690.012 890.518 690.05 890.532 690.15 890.576C704.522 896.274 715.166 908.288 718.782 922.846C719.368 925.197 719.982 927.723 720.602 930.337C721.172 932.749 721.748 935.249 722.321 937.798C725.469 951.793 728.418 967.282 728.756 977.325C728.766 977.575 728.763 977.824 728.773 978.073C728.802 979.83 728.753 981.396 728.602 982.744L728.615 982.745Z" fill="#FFC3C6"/>
<path d="M739.095 868.016C738.781 868.271 738.454 868.526 738.102 868.779C730.453 874.362 720.685 876.495 711.233 874.898L691.257 871.53L695.275 808.92C695.275 808.92 701.006 809.261 702.969 811.719L710.771 820.276L740.299 852.687C740.649 853.069 740.96 853.461 741.231 853.875C744.304 858.366 743.485 864.468 739.094 868.029L739.095 868.016Z" fill="#FFC3C6"/>
<path d="M468 1202C468 1202 479.101 1181.72 499.113 1163.2C511.303 1151.93 522.876 1147.26 530.058 1145.34C531.018 1145.08 533.225 1144.74 536.263 1144.34C571.542 1139.7 603.453 1121.69 624.986 1094.38C644.45 1069.69 654.067 1039.09 652.085 1008.14L648.976 959.697L362.025 947.743L340.046 1104.07L326.729 1162.29L430 1202L468 1202Z" fill="#FFC3C6"/>
<path d="M433.698 569.507L401.315 1033.25C399.866 1054 416.151 1071.94 437.688 1073.34L638.212 1086.32C659.749 1087.72 678.382 1072.04 679.83 1051.29L712.213 587.546C713.661 566.804 697.377 548.859 675.84 547.465L475.315 534.477C453.779 533.082 435.146 548.766 433.698 569.507Z" fill="#0E3B89"/>
<path d="M428.814 642.262L426.017 682.322C424.575 682.229 423.482 681.025 423.579 679.636L426.025 644.61C426.122 643.221 427.372 642.169 428.814 642.262Z" fill="#0E3B89"/>
<path d="M431.403 605.403L430.034 625.006C428.592 624.912 427.499 623.708 427.596 622.319L428.614 607.739C428.711 606.35 429.962 605.298 431.403 605.391L431.403 605.403Z" fill="#0E3B89"/>
<path d="M674.894 561.12L645 559.178L495.3 549.482L474.366 548.123C460.656 547.232 448.793 557.221 447.868 570.426L415.478 1034.17C414.552 1047.37 424.924 1058.8 438.635 1059.69L639.15 1072.67C652.861 1073.56 664.723 1063.57 665.648 1050.37L698.039 586.627C698.964 573.422 688.592 561.998 674.881 561.107L674.894 561.12Z" fill="white"/>
<path d="M477.02 1064.67C476.98 1065.31 476.836 1065.93 476.758 1066.55C470.451 1110.03 445.547 1148.97 408.26 1174.2L384.191 1190.49L301.912 1150.12C301.912 1150.12 309.401 1144.21 325.164 1097.42C335.019 1068.16 330.318 1028.4 335.269 994.78C339.688 964.801 351.475 939.27 355.11 926.949C356.843 921.101 358.315 912.66 359.494 904.164C362.828 880.221 368.337 856.62 376.094 833.662C384.454 808.948 391.827 784.523 394.17 758.492C395.033 748.87 399.149 729.866 413.362 735.406C427.942 741.093 435.469 758.56 439.155 772.04C448.261 805.389 444.953 840.812 438.486 874.305C435.482 889.876 426.093 910.482 423.432 923.932C423.432 923.932 483.474 970.971 477.022 1064.65L477.02 1064.67Z" fill="#FFC3C6"/>
<path d="M479 1176.5C479 1176.5 473.594 1158.77 468 1202L263.5 1202C263.5 1202 261 1204 305.664 1145.62L479 1176.5Z" fill="#FFC3C6"/>
<path d="M461.61 726.584L455.522 821.432C454.906 831.026 462.48 839.288 472.449 839.882L638.207 849.75C648.169 850.343 656.748 843.049 657.364 833.449L663.452 738.6C664.068 729.006 656.494 720.744 646.526 720.151L480.761 710.282C470.799 709.689 462.227 716.983 461.61 726.584Z" fill="#1F41FF"/>
<path d="M626.92 832.046C634.607 832.504 641.228 826.87 641.703 819.467C642.178 812.064 636.328 805.687 628.641 805.229C620.954 804.772 614.333 810.406 613.858 817.809C613.383 825.212 619.233 831.589 626.92 832.046Z" fill="#8DBBFF"/>
<path d="M608.777 830.966C616.464 831.424 623.085 825.79 623.561 818.387C624.036 810.984 618.186 804.607 610.499 804.149C602.812 803.692 596.191 809.326 595.716 816.729C595.24 824.132 601.091 830.509 608.777 830.966Z" fill="#112DA5"/>
<path d="M662.881 746.812L461.039 734.795L459.942 751.884L661.784 763.9L662.881 746.812Z" fill="#B6D4FF"/>
<path d="M506.038 771.078L479.486 769.497C476.959 769.347 474.784 771.197 474.627 773.631L473.92 784.653C473.764 787.087 475.685 789.182 478.212 789.332L504.765 790.913C507.292 791.063 509.467 789.212 509.623 786.779L510.33 775.757C510.487 773.323 508.565 771.228 506.038 771.078Z" fill="#B6D4FF"/>
<path d="M546.561 962.884C570.323 964.299 590.777 946.894 592.246 924.009C593.715 901.124 575.643 881.425 551.88 880.011C528.118 878.596 507.665 896.001 506.196 918.886C504.727 941.771 522.799 961.469 546.561 962.884Z" fill="#F78752"/>
<path d="M569.919 908.996C568.407 907.309 565.553 907.14 563.837 908.634L544.041 925.821L535.737 916.616C534.963 915.771 533.939 915.275 532.775 915.206C531.611 915.136 530.532 915.508 529.655 916.254C527.899 917.783 527.727 920.458 529.275 922.184L540.426 934.571C541.201 935.416 542.225 935.912 543.389 935.982C544.552 936.051 545.631 935.68 546.509 934.933L569.538 914.926C571.295 913.398 571.466 910.722 569.919 908.996Z" fill="white"/>
</g>
<defs>
<filter id="filter0_dd_33_1421" x="0" y="0" width="1064" height="1224.01" filterUnits="userSpaceOnUse" color-interpolation-filters="sRGB">
<feFlood flood-opacity="0" result="BackgroundImageFix"/>
<feColorMatrix in="SourceAlpha" type="matrix" values="0 0 0 0 0 0 0 0 0 0 0 0 0 0 0 0 0 0 127 0" result="hardAlpha"/>
<feMorphology radius="2" operator="erode" in="SourceAlpha" result="effect1_dropShadow_33_1421"/>
<feOffset dy="4"/>
<feGaussianBlur stdDeviation="3"/>
<feComposite in2="hardAlpha" operator="out"/>
<feColorMatrix type="matrix" values="0 0 0 0 0 0 0 0 0 0 0 0 0 0 0 0 0 0 0.05 0"/>
<feBlend mode="normal" in2="BackgroundImageFix" result="effect1_dropShadow_33_1421"/>
<feColorMatrix in="SourceAlpha" type="matrix" values="0 0 0 0 0 0 0 0 0 0 0 0 0 0 0 0 0 0 127 0" result="hardAlpha"/>
<feMorphology radius="3" operator="erode" in="SourceAlpha" result="effect2_dropShadow_33_1421"/>
<feOffset dy="10"/>
<feGaussianBlur stdDeviation="7.5"/>
<feComposite in2="hardAlpha" operator="out"/>
<feColorMatrix type="matrix" values="0 0 0 0 0 0 0 0 0 0 0 0 0 0 0 0 0 0 0.1 0"/>
<feBlend mode="normal" in2="effect1_dropShadow_33_1421" result="effect2_dropShadow_33_1421"/>
<feBlend mode="normal" in="SourceGraphic" in2="effect2_dropShadow_33_1421" result="shape"/>
</filter>
</defs>
</svg>
