<svg width="1064" height="1224" viewBox="0 0 1064 1224" fill="none" xmlns="http://www.w3.org/2000/svg">
<g filter="url(#filter0_dd_33_1280)">
<rect x="12" y="2" width="1040" height="1200" rx="25" fill="#304FFB"/>
<path d="M268.045 1033.77C268.045 1038.96 242.141 1043.16 210.167 1043.16C178.193 1043.16 152.289 1038.96 152.289 1033.77C152.289 1028.58 178.193 1024.39 210.167 1024.39C242.141 1024.39 268.045 1028.58 268.045 1033.77Z" fill="#EEEEEE"/>
<path d="M215.384 862.358C215.125 862.86 214.988 863.423 215.004 863.986C215.004 864.29 215.034 864.609 215.125 864.898C217.757 874.283 219.491 890.514 219.491 908.995C219.491 926.305 217.97 941.638 215.612 951.221C215.566 951.419 215.521 951.616 215.475 951.799C215.384 952.134 215.353 952.468 215.353 952.818C215.384 953.776 215.81 954.719 216.555 955.389C218.533 957.199 219.765 959.785 219.765 962.66C219.765 964.926 219.004 967.01 217.711 968.683C217.133 969.428 216.89 970.356 216.996 971.254C217.042 971.756 217.194 972.258 217.468 972.699C217.544 972.821 217.62 972.942 217.711 973.064C219.004 974.737 219.765 976.821 219.765 979.087C219.765 981.187 219.111 983.134 217.985 984.731C217.513 985.4 217.3 986.221 217.361 987.012C217.392 987.53 217.544 988.016 217.802 988.473C217.848 988.579 217.909 988.686 217.985 988.777C219.111 990.374 219.765 992.321 219.765 994.42C219.765 997.234 218.593 999.759 216.692 1001.55C216.266 1001.98 215.779 1002.35 215.277 1002.68C214.912 1002.92 214.578 1003.21 214.319 1003.55C213.848 1004.16 213.559 1004.89 213.559 1005.68V1039.51C213.559 1040.51 213.148 1041.42 212.494 1042.09C211.824 1042.75 210.912 1043.16 209.908 1043.16C207.885 1043.16 206.257 1041.53 206.257 1039.51V1005.68C206.257 1004.93 206.014 1004.23 205.573 1003.65C205.299 1003.27 204.949 1002.94 204.538 1002.68C204.189 1002.45 203.839 1002.19 203.519 1001.93C201.39 1000.11 200.051 997.432 200.051 994.42C200.051 992.321 200.705 990.374 201.831 988.777C201.968 988.579 202.089 988.366 202.181 988.138C202.394 987.667 202.485 987.149 202.454 986.647C202.454 985.963 202.242 985.294 201.831 984.731C200.705 983.134 200.051 981.187 200.051 979.087C200.051 976.821 200.812 974.737 202.105 973.064C202.424 972.668 202.622 972.212 202.728 971.741C202.88 971.223 202.896 970.676 202.774 970.159C202.667 969.626 202.454 969.124 202.105 968.683C200.812 967.01 200.051 964.926 200.051 962.66C200.051 959.785 201.283 957.199 203.261 955.389C204.036 954.689 204.462 953.731 204.462 952.727C204.462 952.407 204.417 952.103 204.341 951.799C204.28 951.586 204.234 951.358 204.173 951.13C201.831 941.547 200.325 926.244 200.325 908.995C200.325 890.514 202.059 874.283 204.691 864.898C204.767 864.67 204.797 864.427 204.797 864.183C204.843 863.651 204.751 863.103 204.554 862.617C204.325 862.069 203.976 861.567 203.504 861.171C201.39 859.361 200.051 856.684 200.051 853.688C200.051 851.847 200.568 850.113 201.451 848.638C201.724 848.181 201.892 847.664 201.937 847.162C201.983 846.615 201.907 846.052 201.709 845.519C201.633 845.291 201.527 845.078 201.405 844.88C196.02 835.906 192.385 818.702 192.385 798.928C192.385 782.302 194.955 767.502 198.971 757.858C198.986 757.812 199.017 757.752 199.032 757.706C199.215 757.219 199.26 756.702 199.199 756.185C199.154 755.607 198.956 755.014 198.621 754.512C196.781 751.652 195.67 748.062 195.67 744.168C195.67 739.316 197.374 734.95 200.112 731.847C200.158 731.802 200.203 731.756 200.218 731.695C200.584 731.284 200.827 730.798 200.933 730.28C201.116 729.596 201.07 728.866 200.781 728.166C200.31 727.025 200.051 725.763 200.051 724.455C200.051 720.986 201.831 717.959 204.538 716.195C205.573 715.526 206.257 714.431 206.257 713.198V657.861C206.257 656.857 206.668 655.944 207.322 655.275C207.991 654.621 208.904 654.21 209.908 654.21C211.931 654.21 213.559 655.853 213.559 657.861V713.198C213.559 714.431 214.243 715.526 215.277 716.195C217.985 717.959 219.765 720.986 219.765 724.455C219.765 725.763 219.506 727.025 219.035 728.166C218.776 728.79 218.715 729.459 218.837 730.098C218.928 730.6 219.126 731.087 219.46 731.512C219.521 731.634 219.613 731.741 219.704 731.847C222.442 734.95 224.145 739.316 224.145 744.168C224.145 748.062 223.035 751.652 221.194 754.512C220.875 754.998 220.677 755.546 220.616 756.094C220.54 756.611 220.586 757.128 220.753 757.615C220.784 757.691 220.814 757.782 220.845 757.858C224.86 767.502 227.431 782.302 227.431 798.928C227.431 818.702 223.796 835.906 218.411 844.88C218.152 845.322 217.97 845.793 217.909 846.28C217.833 846.782 217.863 847.314 218 847.801C218.091 848.09 218.213 848.364 218.365 848.638C219.247 850.113 219.765 851.847 219.765 853.688C219.765 856.684 218.426 859.361 216.312 861.171C215.916 861.506 215.597 861.902 215.384 862.358Z" fill="#EEEEEE"/>
<path d="M220.754 757.615C216.449 758.269 212.388 758.436 209.269 758.436C205.679 758.436 202.333 758.178 199.032 757.706C199.215 757.219 199.26 756.702 199.2 756.185C202.455 756.657 205.756 756.915 209.269 756.915C212.357 756.915 216.373 756.748 220.617 756.094C220.541 756.611 220.586 757.128 220.754 757.615Z" fill="#C7C7C7"/>
<path d="M219.461 731.512C218.046 731.832 216.525 732.121 214.852 732.349C213.3 732.547 211.749 732.638 210.182 732.638C206.851 732.638 203.52 732.227 200.219 731.695C200.584 731.284 200.827 730.797 200.934 730.28C205.512 730.995 210.136 731.451 214.654 730.843C216.16 730.645 217.559 730.387 218.837 730.098C218.928 730.6 219.126 731.086 219.461 731.512Z" fill="#C7C7C7"/>
<path d="M218.001 847.801C215.841 848.181 213.651 848.364 211.46 848.364C208.251 848.364 205.041 847.953 201.938 847.162C201.984 846.615 201.908 846.052 201.71 845.52C206.958 846.98 212.555 847.238 217.91 846.28C217.834 846.782 217.864 847.314 218.001 847.801Z" fill="#C7C7C7"/>
<path d="M215.385 862.358C215.126 862.86 214.989 863.423 215.005 863.986C215.005 864.001 214.959 864.001 214.944 864.001C213.149 864.321 211.324 864.458 209.513 864.458C207.932 864.458 206.35 864.351 204.798 864.184C204.844 863.651 204.752 863.104 204.555 862.617C207.886 863.012 211.339 863.089 214.685 862.495C214.913 862.45 215.157 862.404 215.385 862.358Z" fill="#C7C7C7"/>
<path d="M215.613 951.22C215.567 951.418 215.521 951.616 215.476 951.798C215.384 952.133 215.354 952.467 215.354 952.817C215.263 952.848 215.156 952.863 215.065 952.878C213.605 953.137 212.129 953.243 210.654 953.243C208.57 953.243 206.501 953.03 204.463 952.726C204.463 952.407 204.417 952.102 204.341 951.798C204.28 951.585 204.235 951.357 204.174 951.129C207.672 951.692 211.323 951.996 214.806 951.388C215.08 951.342 215.339 951.281 215.613 951.22Z" fill="#C7C7C7"/>
<path d="M217.468 972.698C215.932 973.018 214.304 973.17 212.631 973.17C212.266 973.17 211.901 973.155 211.536 973.155C208.539 973.033 205.603 972.47 202.729 971.74C202.881 971.223 202.896 970.675 202.774 970.158C205.664 970.934 208.615 971.512 211.597 971.634C213.483 971.71 215.293 971.588 216.996 971.253C217.042 971.755 217.194 972.257 217.468 972.698Z" fill="#C7C7C7"/>
<path d="M217.803 988.472C216.145 988.837 214.411 989.065 212.632 989.141C212.175 989.141 211.719 989.172 211.247 989.172C208.084 989.172 204.996 988.73 202.182 988.137C202.395 987.666 202.486 987.148 202.455 986.646C205.589 987.316 209.057 987.772 212.571 987.62C214.229 987.544 215.826 987.346 217.362 987.012C217.393 987.529 217.545 988.015 217.803 988.472Z" fill="#C7C7C7"/>
<path d="M216.692 1001.55C216.266 1001.98 215.78 1002.35 215.278 1002.68C214.913 1002.92 214.578 1003.21 214.319 1003.55C212.844 1003.75 211.338 1003.82 209.802 1003.82C208.402 1003.82 206.988 1003.76 205.573 1003.65C205.299 1003.27 204.949 1002.94 204.539 1002.68C204.189 1002.45 203.839 1002.19 203.52 1001.93C208.098 1002.41 212.646 1002.56 216.692 1001.55Z" fill="#C7C7C7"/>
<path d="M210.258 1040.49C192.233 1040.49 174.694 1038.33 158.145 1034.03C157.734 1033.92 157.491 1033.51 157.597 1033.1C157.704 1032.69 158.13 1032.45 158.525 1032.55C190.894 1041 227.127 1041.12 263.299 1032.92C263.71 1032.81 264.12 1033.09 264.212 1033.5C264.303 1033.91 264.044 1034.32 263.633 1034.41C245.7 1038.47 227.735 1040.51 210.243 1040.51L210.258 1040.49Z" fill="#C7C7C7"/>
<path d="M287.535 671.15C286.844 671.2 286.153 671.2 285.478 671.2C235.648 671.2 185.817 671.2 135.986 671.2C132.412 671.2 128.097 670.762 126.546 667.542C125.754 665.89 125.973 663.952 126.276 662.148C133.441 621.218 177.54 601.141 215.486 602.827C233.085 603.602 250.752 608.356 265.283 618.302C279.056 627.725 291.024 644.11 293.873 661.035C294.379 664.019 294.463 667.542 292.188 669.565C290.923 670.678 289.238 671.049 287.518 671.167L287.535 671.15Z" fill="#B0C2FF"/>
<g style="mix-blend-mode:multiply" opacity="0.5">
<path d="M289.085 659.03C248.324 660.463 207.529 660.732 166.751 659.906C155.186 659.67 143.639 659.367 132.075 658.962C130.996 658.929 130.996 660.614 132.075 660.648C172.836 662.148 213.631 662.502 254.41 661.744C265.974 661.525 277.521 661.221 289.085 660.834C290.249 660.8 290.249 658.996 289.085 659.03Z" fill="#567DFF"/>
</g>
<path d="M346.293 1019.25L350.455 1039.41C350.904 1041.6 353.063 1043.2 355.586 1043.2H365.114C367.629 1043.2 369.788 1041.61 370.245 1039.41L374.407 1019.25C374.99 1016.42 372.531 1013.8 369.276 1013.8H351.424C348.169 1013.8 345.71 1016.42 346.293 1019.25Z" fill="#ABABAB"/>
<path d="M589.82 1019.25L585.659 1039.41C585.209 1041.6 583.05 1043.2 580.528 1043.2H570.999C568.484 1043.2 566.325 1041.61 565.868 1039.41L561.706 1019.25C561.123 1016.42 563.582 1013.8 566.837 1013.8H584.689C587.944 1013.8 590.403 1016.42 589.82 1019.25Z" fill="#ABABAB"/>
<path d="M604.479 1018.37H326.152C319.027 1018.37 313.25 1012.72 313.25 1005.74V559.631C313.25 552.654 319.027 547 326.152 547H604.479C611.604 547 617.381 552.654 617.381 559.631V1005.74C617.381 1012.72 611.604 1018.37 604.479 1018.37Z" fill="#DFDFDF"/>
<path d="M452.124 556.254H331.101C325.633 556.254 321.201 560.682 321.201 566.145V935.483C321.201 940.946 325.633 945.374 331.101 945.374H452.124C457.591 945.374 462.024 940.946 462.024 935.483V566.145C462.024 560.682 457.591 556.254 452.124 556.254Z" fill="#F4F4F4"/>
<path d="M599.557 556.254H478.533C473.066 556.254 468.634 560.682 468.634 566.145V935.483C468.634 940.946 473.066 945.374 478.533 945.374H599.557C605.024 945.374 609.456 940.946 609.456 935.483V566.145C609.456 560.682 605.024 556.254 599.557 556.254Z" fill="#F4F4F4"/>
<path d="M599.159 952.973H330.425C324.958 952.973 320.525 957.401 320.525 962.863V998.371C320.525 1003.83 324.958 1008.26 330.425 1008.26H599.159C604.627 1008.26 609.059 1003.83 609.059 998.371V962.863C609.059 957.401 604.627 952.973 599.159 952.973Z" fill="#F4F4F4"/>
<path d="M451.13 807.941C451.13 810.492 449.057 812.563 446.504 812.563C443.942 812.563 441.877 810.492 441.877 807.941V713.104C441.877 710.553 443.95 708.481 446.504 708.481C449.065 708.481 451.13 710.553 451.13 713.104V807.941Z" fill="#AEAEAE"/>
<path d="M489.644 807.779C489.644 810.33 487.571 812.401 485.017 812.401C482.456 812.401 480.391 810.33 480.391 807.779V712.942C480.391 710.39 482.464 708.319 485.017 708.319C487.579 708.319 489.644 710.39 489.644 712.942V807.779Z" fill="#AEAEAE"/>
<path d="M504.136 971.025C504.136 972.222 503.166 973.191 501.968 973.191H428.802C427.604 973.191 426.635 972.222 426.635 971.025C426.635 969.828 427.604 968.859 428.802 968.859H501.968C503.166 968.859 504.136 969.828 504.136 971.025Z" fill="#C5C5C5"/>
<rect x="662.115" y="700.812" width="250.781" height="341.062" rx="17.8333" fill="#F1F5FB"/>
<path d="M871.998 716.068H848.075C838.766 716.068 831.219 723.609 831.219 732.911C831.219 742.213 838.766 749.754 848.075 749.754H871.998C881.308 749.754 888.855 742.213 888.855 732.911C888.855 723.609 881.308 716.068 871.998 716.068Z" fill="url(#paint0_linear_33_1280)"/>
<path d="M801.537 748.39C809.487 748.39 815.932 741.95 815.932 734.005C815.932 726.061 809.487 719.621 801.537 719.621C793.586 719.621 787.141 726.061 787.141 734.005C787.141 741.95 793.586 748.39 801.537 748.39Z" fill="url(#paint1_linear_33_1280)"/>
<path d="M757.876 748.392C765.827 748.392 772.272 741.952 772.272 734.007C772.272 726.063 765.827 719.623 757.876 719.623C749.926 719.623 743.48 726.063 743.48 734.007C743.48 741.952 749.926 748.392 757.876 748.392Z" fill="url(#paint2_linear_33_1280)"/>
<path d="M876.09 886.748C879.129 837.529 841.66 795.168 792.402 792.132C743.144 789.096 700.75 826.534 697.711 875.753C694.672 924.971 732.14 967.332 781.398 970.369C830.657 973.405 873.051 935.967 876.09 886.748Z" fill="#EEEFF3"/>
<path d="M786.935 951.836C825.908 951.836 857.501 920.267 857.501 881.326C857.501 842.385 825.908 810.816 786.935 810.816C747.963 810.816 716.369 842.385 716.369 881.326C716.369 920.267 747.963 951.836 786.935 951.836Z" fill="url(#paint3_linear_33_1280)"/>
<path d="M772.697 820.752C785.886 817.653 799.727 818.935 812.121 824.404C824.515 829.873 834.787 839.23 841.38 851.057C847.973 862.884 850.527 876.537 848.655 889.945C846.783 903.353 840.587 915.786 831.006 925.359C821.426 934.932 808.983 941.122 795.564 942.993C782.145 944.863 768.482 942.312 756.645 935.724C744.809 929.137 735.444 918.873 729.971 906.489C724.498 894.104 723.215 880.275 726.316 867.096C728.974 855.828 734.722 845.523 742.914 837.337C751.107 829.151 761.42 823.408 772.697 820.752Z" fill="url(#paint4_linear_33_1280)"/>
<g style="mix-blend-mode:screen" opacity="0.5">
<path d="M853.894 883.952L790.535 947.26C781.724 946.327 773.249 943.371 765.771 938.622L845.305 859.208C850.04 866.683 852.979 875.152 853.894 883.952Z" fill="#3A3959"/>
</g>
<path d="M449.644 1081.28C455.235 1075.42 459.727 1068.88 464.359 1062.44C467.33 1058.31 470.207 1054.09 473.084 1049.92C474.558 1047.77 476.547 1045.55 475.868 1042.91C475.424 1041.23 473.201 1040.24 471.33 1040.68C468.429 1041.37 467.049 1044.09 465.622 1046.13C462.721 1050.31 459.82 1054.48 457.013 1058.71C452.638 1065.27 448.124 1071.8 444.802 1078.83C443.726 1081.11 447.843 1083.14 449.644 1081.26V1081.28Z" fill="#3B3D43"/>
<path d="M679.173 1078.82C675.852 1071.79 671.338 1065.27 666.965 1058.71C664.158 1054.47 661.235 1050.32 658.358 1046.13C656.931 1044.07 655.551 1041.35 652.651 1040.68C650.804 1040.24 648.558 1041.23 648.114 1042.91C647.412 1045.52 649.4 1047.77 650.897 1049.92C653.797 1054.11 656.651 1058.3 659.621 1062.43C664.228 1068.85 668.742 1075.41 674.332 1081.27C676.109 1083.13 680.249 1081.12 679.173 1078.84V1078.82Z" fill="#3B3D43"/>
<path d="M691.478 870.229H432.495C431.272 870.229 430.281 872.087 430.281 874.379V1057.77C430.281 1060.06 431.272 1061.92 432.495 1061.92H691.478C692.701 1061.92 693.692 1060.06 693.692 1057.77V874.379C693.692 872.087 692.701 870.229 691.478 870.229Z" fill="#2A43CF"/>
<path d="M683.26 1052.92H439.771V879.818H683.26V1052.92ZM442.77 1049.9H680.262V882.817H442.794V1049.9H442.77Z" fill="#172B97"/>
<path d="M590.067 893.224H533.299V896.247H590.067V893.224Z" fill="#172B97"/>
<path d="M644.117 1001.83H479.834V1004.85H644.117V1001.83Z" fill="#172B97"/>
<path d="M644.117 1018.73H479.834V1021.75H644.117V1018.73Z" fill="#172B97"/>
<path d="M644.117 1010.2H479.834V1013.23H644.117V1010.2Z" fill="#172B97"/>
<path d="M420.988 174.24V146.52H372.688V174.24H420.988ZM380.318 152.96H413.358V168.01H380.318V152.96ZM367.088 188.73H392.988V208.47H400.688V188.73H426.588V182.29H367.088V188.73ZM483.319 208.47V146.24H475.759V170.18H461.409C462.949 165.14 463.719 159.89 463.719 154.57V148.06H432.639V154.57H456.019C456.019 170.74 447.549 186.35 430.889 195.03L435.299 201.54C446.709 195.1 454.479 186.42 458.959 176.76H475.759V208.47H483.319ZM521.499 175.43C532.629 175.43 540.609 169.06 540.609 160.03C540.609 151 532.629 144.56 521.499 144.56C510.369 144.56 502.389 151 502.389 160.03C502.389 169.06 510.369 175.43 521.499 175.43ZM521.499 169.34C514.569 169.34 510.019 165.49 510.019 160.03C510.019 154.64 514.569 150.72 521.499 150.72C528.429 150.72 532.979 154.64 532.979 160.03C532.979 165.49 528.429 169.34 521.499 169.34ZM491.749 185.58H518.769V195.24H526.329V185.58H551.249V179.21H491.749V185.58ZM545.859 207.63V201.12H505.259V190.34H497.699V207.63H545.859ZM628.951 167.45V146.31H580.651V167.45H628.951ZM588.281 152.61H621.321V161.71H588.281V152.61ZM629.511 208.19V202.38H588.211V197.83H628.601V182.92H608.581V177.88H634.551V172H575.051V177.88H601.021V182.92H580.511V188.38H621.041V192.65H580.651V208.19H629.511ZM690.931 189.57V146.24H683.371V161.57H670.981C672.171 158.77 672.731 155.76 672.731 152.68V146.8H640.391V153.38H665.101C664.681 163.04 654.601 172 638.291 175.01L640.531 181.94C652.641 179.56 661.671 174.52 667.061 168.01H683.371V189.57H690.931ZM692.051 207.63V200.98H652.921V187.05H645.081V207.63H692.051ZM249.791 285.05V278.75H223.821V273.78C231.801 272.59 237.191 267.76 237.191 261.04C237.191 257.4 235.231 254.46 231.941 252.5H245.521V246.48H223.891V241.16H216.191V246.48H194.701V252.5H208.141C204.851 254.46 202.891 257.4 202.891 261.04C202.891 267.76 208.281 272.59 216.261 273.78V278.75H190.291V285.05H249.791ZM220.041 268.18C214.511 268.18 210.451 264.89 210.451 260.34C210.451 255.79 214.511 252.5 220.041 252.5C225.571 252.5 229.631 255.79 229.631 260.34C229.631 264.89 225.571 268.18 220.041 268.18ZM244.681 305.63V299.19H203.801V289.46H196.241V305.63H244.681ZM304.421 306.47V273.5H314.221V266.85H304.421V244.24H296.861V306.47H304.421ZM254.021 245.85V252.36H267.811V258.52C267.811 269.65 262.491 283.3 251.011 293.31L256.401 299.33C263.331 292.47 268.301 284.84 271.451 277.28L286.081 298.28L291.541 293.03L273.971 269.79C274.951 265.87 275.511 262.09 275.511 258.52V252.36H289.161V245.85H254.021ZM369.551 306.47V244.24H361.991V264.05H348.271V270.56H361.991V306.47H369.551ZM330.491 245.71V254.67C330.491 268.53 324.471 281.76 312.991 291.35L318.241 297.58C325.591 290.65 330.981 282.95 334.271 274.83L349.531 296.53L354.991 291L336.721 267.27C337.701 263.14 338.261 258.87 338.261 254.67V245.71H330.491ZM457.754 277.98V272.45H431.784V268.74C440.674 267.76 446.694 263.07 446.694 255.72C446.694 247.39 438.924 241.86 428.004 241.86C417.084 241.86 409.314 247.39 409.314 255.72C409.314 263.07 415.334 267.76 424.224 268.74V272.45H398.254V277.98H457.754ZM428.004 263.63C421.494 263.63 416.944 260.48 416.944 255.72C416.944 251.03 421.494 247.81 428.004 247.81C434.514 247.81 439.064 251.03 439.064 255.72C439.064 260.48 434.514 263.63 428.004 263.63ZM426.394 306.19V300.8H410.504V296.11H425.694V281.97H403.014V286.94H418.834V291.42H403.154V306.19H426.394ZM452.854 306.19V281.97H429.264V306.19H452.854ZM435.844 286.8H445.714V300.8H435.844V286.8ZM513.784 306.47V244.24H506.224V306.47H513.784ZM466.324 299.47C486.274 288.13 495.584 270.91 495.584 252.57V246.06H463.804V252.57H487.884C487.884 269.02 479.064 283.93 462.054 292.96L466.324 299.47ZM576.114 306.47V244.24H568.554V306.47H576.114ZM528.654 299.47C548.604 288.13 557.914 270.91 557.914 252.57V246.06H526.134V252.57H550.214C550.214 269.02 541.394 283.93 524.384 292.96L528.654 299.47ZM626.376 276.51C636.456 276.51 643.456 270.63 643.456 262.72C643.456 259.08 641.286 255.86 637.646 253.76H646.676V247.74H630.226V241.44H622.526V247.74H605.376V253.76H615.106C611.466 255.86 609.296 259.08 609.296 262.72C609.296 270.63 616.296 276.51 626.376 276.51ZM659.766 277.42V244.24H652.206V277.42H659.766ZM626.376 270.28C620.776 270.28 616.716 266.57 616.716 262.02C616.716 257.47 620.776 253.76 626.376 253.76C631.976 253.76 636.036 257.47 636.036 262.02C636.036 266.57 631.976 270.28 626.376 270.28ZM659.766 305.77V281.62H613.566V305.77H659.766ZM620.986 287.92H652.346V299.4H620.986V287.92ZM721.606 280.71V274.13H683.316V251.87H720.766V245.22H675.476V280.71H721.606ZM728.046 301.85V295.2H668.546V301.85H728.046ZM783.727 287.57V244.24H776.167V287.57H783.727ZM747.257 244.52V250.33C747.257 259.01 740.887 268.25 730.177 273.99L734.657 280.36C742.007 276.09 747.467 270.7 750.897 264.89L765.877 279.1L770.847 273.29L753.767 258.45C754.607 255.79 755.027 253.06 755.027 250.33V244.52H747.257ZM784.847 305.63V298.98H745.717V284.7H737.877V305.63H784.847ZM827.409 244.52H819.779V270.07H868.079V244.52H860.449V250.96H827.409V244.52ZM827.409 263.98V257.12H860.449V263.98H827.409ZM814.179 282.46H841.199V292.75H848.759V282.46H873.679V276.09H814.179V282.46ZM868.289 305.63V299.12H827.829V288.13H820.129V305.63H868.289Z" fill="white"/>
<path d="M420.988 174.24V175.24H421.988V174.24H420.988ZM420.988 146.52H421.988V145.52H420.988V146.52ZM372.688 146.52V145.52H371.688V146.52H372.688ZM372.688 174.24H371.688V175.24H372.688V174.24ZM380.318 152.96V151.96H379.318V152.96H380.318ZM413.358 152.96H414.358V151.96H413.358V152.96ZM413.358 168.01V169.01H414.358V168.01H413.358ZM380.318 168.01H379.318V169.01H380.318V168.01ZM367.088 188.73H366.088V189.73H367.088V188.73ZM392.988 188.73H393.988V187.73H392.988V188.73ZM392.988 208.47H391.988V209.47H392.988V208.47ZM400.688 208.47V209.47H401.688V208.47H400.688ZM400.688 188.73V187.73H399.688V188.73H400.688ZM426.588 188.73V189.73H427.588V188.73H426.588ZM426.588 182.29H427.588V181.29H426.588V182.29ZM367.088 182.29V181.29H366.088V182.29H367.088ZM421.988 174.24V146.52H419.988V174.24H421.988ZM420.988 145.52H372.688V147.52H420.988V145.52ZM371.688 146.52V174.24H373.688V146.52H371.688ZM372.688 175.24H420.988V173.24H372.688V175.24ZM380.318 153.96H413.358V151.96H380.318V153.96ZM412.358 152.96V168.01H414.358V152.96H412.358ZM413.358 167.01H380.318V169.01H413.358V167.01ZM381.318 168.01V152.96H379.318V168.01H381.318ZM367.088 189.73H392.988V187.73H367.088V189.73ZM391.988 188.73V208.47H393.988V188.73H391.988ZM392.988 209.47H400.688V207.47H392.988V209.47ZM401.688 208.47V188.73H399.688V208.47H401.688ZM400.688 189.73H426.588V187.73H400.688V189.73ZM427.588 188.73V182.29H425.588V188.73H427.588ZM426.588 181.29H367.088V183.29H426.588V181.29ZM366.088 182.29V188.73H368.088V182.29H366.088ZM483.319 208.47V209.47H484.319V208.47H483.319ZM483.319 146.24H484.319V145.24H483.319V146.24ZM475.759 146.24V145.24H474.759V146.24H475.759ZM475.759 170.18V171.18H476.759V170.18H475.759ZM461.409 170.18L460.452 169.888L460.057 171.18H461.409V170.18ZM463.719 148.06H464.719V147.06H463.719V148.06ZM432.639 148.06V147.06H431.639V148.06H432.639ZM432.639 154.57H431.639V155.57H432.639V154.57ZM456.019 154.57H457.019V153.57H456.019V154.57ZM430.889 195.03L430.426 194.143L429.431 194.662L430.061 195.591L430.889 195.03ZM435.299 201.54L434.471 202.101L434.988 202.864L435.79 202.411L435.299 201.54ZM458.959 176.76V175.76H458.32L458.051 176.339L458.959 176.76ZM475.759 176.76H476.759V175.76H475.759V176.76ZM475.759 208.47H474.759V209.47H475.759V208.47ZM484.319 208.47V146.24H482.319V208.47H484.319ZM483.319 145.24H475.759V147.24H483.319V145.24ZM474.759 146.24V170.18H476.759V146.24H474.759ZM475.759 169.18H461.409V171.18H475.759V169.18ZM462.365 170.472C463.935 165.335 464.719 159.987 464.719 154.57H462.719C462.719 159.793 461.963 164.945 460.452 169.888L462.365 170.472ZM464.719 154.57V148.06H462.719V154.57H464.719ZM463.719 147.06H432.639V149.06H463.719V147.06ZM431.639 148.06V154.57H433.639V148.06H431.639ZM432.639 155.57H456.019V153.57H432.639V155.57ZM455.019 154.57C455.019 170.376 446.749 185.639 430.426 194.143L431.351 195.917C448.349 187.061 457.019 171.104 457.019 154.57H455.019ZM430.061 195.591L434.471 202.101L436.126 200.979L431.716 194.469L430.061 195.591ZM435.79 202.411C447.372 195.874 455.293 187.041 459.866 177.181L458.051 176.339C453.664 185.799 446.045 194.326 434.807 200.669L435.79 202.411ZM458.959 177.76H475.759V175.76H458.959V177.76ZM474.759 176.76V208.47H476.759V176.76H474.759ZM475.759 209.47H483.319V207.47H475.759V209.47ZM491.749 185.58H490.749V186.58H491.749V185.58ZM518.769 185.58H519.769V184.58H518.769V185.58ZM518.769 195.24H517.769V196.24H518.769V195.24ZM526.329 195.24V196.24H527.329V195.24H526.329ZM526.329 185.58V184.58H525.329V185.58H526.329ZM551.249 185.58V186.58H552.249V185.58H551.249ZM551.249 179.21H552.249V178.21H551.249V179.21ZM491.749 179.21V178.21H490.749V179.21H491.749ZM545.859 207.63V208.63H546.859V207.63H545.859ZM545.859 201.12H546.859V200.12H545.859V201.12ZM505.259 201.12H504.259V202.12H505.259V201.12ZM505.259 190.34H506.259V189.34H505.259V190.34ZM497.699 190.34V189.34H496.699V190.34H497.699ZM497.699 207.63H496.699V208.63H497.699V207.63ZM521.499 176.43C532.966 176.43 541.609 169.805 541.609 160.03H539.609C539.609 168.315 532.292 174.43 521.499 174.43V176.43ZM541.609 160.03C541.609 150.26 532.972 143.56 521.499 143.56V145.56C532.285 145.56 539.609 151.74 539.609 160.03H541.609ZM521.499 143.56C510.025 143.56 501.389 150.26 501.389 160.03H503.389C503.389 151.74 510.712 145.56 521.499 145.56V143.56ZM501.389 160.03C501.389 169.805 510.032 176.43 521.499 176.43V174.43C510.706 174.43 503.389 168.315 503.389 160.03H501.389ZM521.499 168.34C518.213 168.34 515.583 167.428 513.794 165.96C512.021 164.504 511.019 162.459 511.019 160.03H509.019C509.019 163.061 510.291 165.671 512.525 167.505C514.745 169.327 517.855 170.34 521.499 170.34V168.34ZM511.019 160.03C511.019 157.638 512.019 155.592 513.796 154.125C515.586 152.648 518.217 151.72 521.499 151.72V149.72C517.85 149.72 514.741 150.752 512.523 152.582C510.293 154.423 509.019 157.032 509.019 160.03H511.019ZM521.499 151.72C524.78 151.72 527.411 152.648 529.201 154.125C530.978 155.592 531.979 157.638 531.979 160.03H533.979C533.979 157.032 532.704 154.423 530.474 152.582C528.257 150.752 525.147 149.72 521.499 149.72V151.72ZM531.979 160.03C531.979 162.459 530.976 164.504 529.203 165.96C527.415 167.428 524.785 168.34 521.499 168.34V170.34C525.143 170.34 528.253 169.327 530.472 167.505C532.706 165.671 533.979 163.061 533.979 160.03H531.979ZM491.749 186.58H518.769V184.58H491.749V186.58ZM517.769 185.58V195.24H519.769V185.58H517.769ZM518.769 196.24H526.329V194.24H518.769V196.24ZM527.329 195.24V185.58H525.329V195.24H527.329ZM526.329 186.58H551.249V184.58H526.329V186.58ZM552.249 185.58V179.21H550.249V185.58H552.249ZM551.249 178.21H491.749V180.21H551.249V178.21ZM490.749 179.21V185.58H492.749V179.21H490.749ZM546.859 207.63V201.12H544.859V207.63H546.859ZM545.859 200.12H505.259V202.12H545.859V200.12ZM506.259 201.12V190.34H504.259V201.12H506.259ZM505.259 189.34H497.699V191.34H505.259V189.34ZM496.699 190.34V207.63H498.699V190.34H496.699ZM497.699 208.63H545.859V206.63H497.699V208.63ZM628.951 167.45V168.45H629.951V167.45H628.951ZM628.951 146.31H629.951V145.31H628.951V146.31ZM580.651 146.31V145.31H579.651V146.31H580.651ZM580.651 167.45H579.651V168.45H580.651V167.45ZM588.281 152.61V151.61H587.281V152.61H588.281ZM621.321 152.61H622.321V151.61H621.321V152.61ZM621.321 161.71V162.71H622.321V161.71H621.321ZM588.281 161.71H587.281V162.71H588.281V161.71ZM629.511 208.19V209.19H630.511V208.19H629.511ZM629.511 202.38H630.511V201.38H629.511V202.38ZM588.211 202.38H587.211V203.38H588.211V202.38ZM588.211 197.83V196.83H587.211V197.83H588.211ZM628.601 197.83V198.83H629.601V197.83H628.601ZM628.601 182.92H629.601V181.92H628.601V182.92ZM608.581 182.92H607.581V183.92H608.581V182.92ZM608.581 177.88V176.88H607.581V177.88H608.581ZM634.551 177.88V178.88H635.551V177.88H634.551ZM634.551 172H635.551V171H634.551V172ZM575.051 172V171H574.051V172H575.051ZM575.051 177.88H574.051V178.88H575.051V177.88ZM601.021 177.88H602.021V176.88H601.021V177.88ZM601.021 182.92V183.92H602.021V182.92H601.021ZM580.511 182.92V181.92H579.511V182.92H580.511ZM580.511 188.38H579.511V189.38H580.511V188.38ZM621.041 188.38H622.041V187.38H621.041V188.38ZM621.041 192.65V193.65H622.041V192.65H621.041ZM580.651 192.65V191.65H579.651V192.65H580.651ZM580.651 208.19H579.651V209.19H580.651V208.19ZM629.951 167.45V146.31H627.951V167.45H629.951ZM628.951 145.31H580.651V147.31H628.951V145.31ZM579.651 146.31V167.45H581.651V146.31H579.651ZM580.651 168.45H628.951V166.45H580.651V168.45ZM588.281 153.61H621.321V151.61H588.281V153.61ZM620.321 152.61V161.71H622.321V152.61H620.321ZM621.321 160.71H588.281V162.71H621.321V160.71ZM589.281 161.71V152.61H587.281V161.71H589.281ZM630.511 208.19V202.38H628.511V208.19H630.511ZM629.511 201.38H588.211V203.38H629.511V201.38ZM589.211 202.38V197.83H587.211V202.38H589.211ZM588.211 198.83H628.601V196.83H588.211V198.83ZM629.601 197.83V182.92H627.601V197.83H629.601ZM628.601 181.92H608.581V183.92H628.601V181.92ZM609.581 182.92V177.88H607.581V182.92H609.581ZM608.581 178.88H634.551V176.88H608.581V178.88ZM635.551 177.88V172H633.551V177.88H635.551ZM634.551 171H575.051V173H634.551V171ZM574.051 172V177.88H576.051V172H574.051ZM575.051 178.88H601.021V176.88H575.051V178.88ZM600.021 177.88V182.92H602.021V177.88H600.021ZM601.021 181.92H580.511V183.92H601.021V181.92ZM579.511 182.92V188.38H581.511V182.92H579.511ZM580.511 189.38H621.041V187.38H580.511V189.38ZM620.041 188.38V192.65H622.041V188.38H620.041ZM621.041 191.65H580.651V193.65H621.041V191.65ZM579.651 192.65V208.19H581.651V192.65H579.651ZM580.651 209.19H629.511V207.19H580.651V209.19ZM690.931 189.57V190.57H691.931V189.57H690.931ZM690.931 146.24H691.931V145.24H690.931V146.24ZM683.371 146.24V145.24H682.371V146.24H683.371ZM683.371 161.57V162.57H684.371V161.57H683.371ZM670.981 161.57L670.061 161.179L669.47 162.57H670.981V161.57ZM672.731 146.8H673.731V145.8H672.731V146.8ZM640.391 146.8V145.8H639.391V146.8H640.391ZM640.391 153.38H639.391V154.38H640.391V153.38ZM665.101 153.38L666.1 153.423L666.146 152.38H665.101V153.38ZM638.291 175.01L638.11 174.027L636.989 174.233L637.34 175.318L638.291 175.01ZM640.531 181.94L639.58 182.248L639.853 183.092L640.724 182.921L640.531 181.94ZM667.061 168.01V167.01H666.591L666.291 167.372L667.061 168.01ZM683.371 168.01H684.371V167.01H683.371V168.01ZM683.371 189.57H682.371V190.57H683.371V189.57ZM692.051 207.63V208.63H693.051V207.63H692.051ZM692.051 200.98H693.051V199.98H692.051V200.98ZM652.921 200.98H651.921V201.98H652.921V200.98ZM652.921 187.05H653.921V186.05H652.921V187.05ZM645.081 187.05V186.05H644.081V187.05H645.081ZM645.081 207.63H644.081V208.63H645.081V207.63ZM691.931 189.57V146.24H689.931V189.57H691.931ZM690.931 145.24H683.371V147.24H690.931V145.24ZM682.371 146.24V161.57H684.371V146.24H682.371ZM683.371 160.57H670.981V162.57H683.371V160.57ZM671.902 161.961C673.149 159.026 673.731 155.882 673.731 152.68H671.731C671.731 155.638 671.194 158.514 670.061 161.179L671.902 161.961ZM673.731 152.68V146.8H671.731V152.68H673.731ZM672.731 145.8H640.391V147.8H672.731V145.8ZM639.391 146.8V153.38H641.391V146.8H639.391ZM640.391 154.38H665.101V152.38H640.391V154.38ZM664.102 153.337C663.713 162.284 654.261 171.046 638.11 174.027L638.473 175.993C654.942 172.954 665.65 163.796 666.1 153.423L664.102 153.337ZM637.34 175.318L639.58 182.248L641.483 181.632L639.243 174.702L637.34 175.318ZM640.724 182.921C652.992 180.51 662.255 175.383 667.832 168.648L666.291 167.372C661.088 173.657 652.291 178.61 640.339 180.959L640.724 182.921ZM667.061 169.01H683.371V167.01H667.061V169.01ZM682.371 168.01V189.57H684.371V168.01H682.371ZM683.371 190.57H690.931V188.57H683.371V190.57ZM693.051 207.63V200.98H691.051V207.63H693.051ZM692.051 199.98H652.921V201.98H692.051V199.98ZM653.921 200.98V187.05H651.921V200.98H653.921ZM652.921 186.05H645.081V188.05H652.921V186.05ZM644.081 187.05V207.63H646.081V187.05H644.081ZM645.081 208.63H692.051V206.63H645.081V208.63ZM249.791 285.05V286.05H250.791V285.05H249.791ZM249.791 278.75H250.791V277.75H249.791V278.75ZM223.821 278.75H222.821V279.75H223.821V278.75ZM223.821 273.78L223.673 272.791L222.821 272.918V273.78H223.821ZM231.941 252.5V251.5H228.308L231.429 253.359L231.941 252.5ZM245.521 252.5V253.5H246.521V252.5H245.521ZM245.521 246.48H246.521V245.48H245.521V246.48ZM223.891 246.48H222.891V247.48H223.891V246.48ZM223.891 241.16H224.891V240.16H223.891V241.16ZM216.191 241.16V240.16H215.191V241.16H216.191ZM216.191 246.48V247.48H217.191V246.48H216.191ZM194.701 246.48V245.48H193.701V246.48H194.701ZM194.701 252.5H193.701V253.5H194.701V252.5ZM208.141 252.5L208.652 253.359L211.773 251.5H208.141V252.5ZM216.261 273.78H217.261V272.918L216.408 272.791L216.261 273.78ZM216.261 278.75V279.75H217.261V278.75H216.261ZM190.291 278.75V277.75H189.291V278.75H190.291ZM190.291 285.05H189.291V286.05H190.291V285.05ZM244.681 305.63V306.63H245.681V305.63H244.681ZM244.681 299.19H245.681V298.19H244.681V299.19ZM203.801 299.19H202.801V300.19H203.801V299.19ZM203.801 289.46H204.801V288.46H203.801V289.46ZM196.241 289.46V288.46H195.241V289.46H196.241ZM196.241 305.63H195.241V306.63H196.241V305.63ZM250.791 285.05V278.75H248.791V285.05H250.791ZM249.791 277.75H223.821V279.75H249.791V277.75ZM224.821 278.75V273.78H222.821V278.75H224.821ZM223.968 274.769C232.241 273.535 238.191 268.431 238.191 261.04H236.191C236.191 267.089 231.36 271.645 223.673 272.791L223.968 274.769ZM238.191 261.04C238.191 256.983 235.985 253.745 232.452 251.641L231.429 253.359C234.476 255.175 236.191 257.817 236.191 261.04H238.191ZM231.941 253.5H245.521V251.5H231.941V253.5ZM246.521 252.5V246.48H244.521V252.5H246.521ZM245.521 245.48H223.891V247.48H245.521V245.48ZM224.891 246.48V241.16H222.891V246.48H224.891ZM223.891 240.16H216.191V242.16H223.891V240.16ZM215.191 241.16V246.48H217.191V241.16H215.191ZM216.191 245.48H194.701V247.48H216.191V245.48ZM193.701 246.48V252.5H195.701V246.48H193.701ZM194.701 253.5H208.141V251.5H194.701V253.5ZM207.629 251.641C204.096 253.745 201.891 256.983 201.891 261.04H203.891C203.891 257.817 205.605 255.175 208.652 253.359L207.629 251.641ZM201.891 261.04C201.891 268.431 207.84 273.535 216.113 274.769L216.408 272.791C208.721 271.645 203.891 267.089 203.891 261.04H201.891ZM215.261 273.78V278.75H217.261V273.78H215.261ZM216.261 277.75H190.291V279.75H216.261V277.75ZM189.291 278.75V285.05H191.291V278.75H189.291ZM190.291 286.05H249.791V284.05H190.291V286.05ZM220.041 267.18C214.862 267.18 211.451 264.157 211.451 260.34H209.451C209.451 265.623 214.159 269.18 220.041 269.18V267.18ZM211.451 260.34C211.451 256.523 214.862 253.5 220.041 253.5V251.5C214.159 251.5 209.451 255.057 209.451 260.34H211.451ZM220.041 253.5C225.219 253.5 228.631 256.523 228.631 260.34H230.631C230.631 255.057 225.922 251.5 220.041 251.5V253.5ZM228.631 260.34C228.631 264.157 225.219 267.18 220.041 267.18V269.18C225.922 269.18 230.631 265.623 230.631 260.34H228.631ZM245.681 305.63V299.19H243.681V305.63H245.681ZM244.681 298.19H203.801V300.19H244.681V298.19ZM204.801 299.19V289.46H202.801V299.19H204.801ZM203.801 288.46H196.241V290.46H203.801V288.46ZM195.241 289.46V305.63H197.241V289.46H195.241ZM196.241 306.63H244.681V304.63H196.241V306.63ZM304.421 306.47V307.47H305.421V306.47H304.421ZM304.421 273.5V272.5H303.421V273.5H304.421ZM314.221 273.5V274.5H315.221V273.5H314.221ZM314.221 266.85H315.221V265.85H314.221V266.85ZM304.421 266.85H303.421V267.85H304.421V266.85ZM304.421 244.24H305.421V243.24H304.421V244.24ZM296.861 244.24V243.24H295.861V244.24H296.861ZM296.861 306.47H295.861V307.47H296.861V306.47ZM254.021 245.85V244.85H253.021V245.85H254.021ZM254.021 252.36H253.021V253.36H254.021V252.36ZM267.811 252.36H268.811V251.36H267.811V252.36ZM251.011 293.31L250.354 292.556L249.59 293.222L250.266 293.977L251.011 293.31ZM256.401 299.33L255.656 299.997L256.357 300.78L257.104 300.041L256.401 299.33ZM271.451 277.28L272.271 276.708L271.229 275.212L270.528 276.895L271.451 277.28ZM286.081 298.28L285.26 298.852L285.93 299.813L286.774 299.001L286.081 298.28ZM291.541 293.03L292.234 293.751L292.874 293.135L292.338 292.427L291.541 293.03ZM273.971 269.79L273.001 269.547L272.885 270.012L273.173 270.393L273.971 269.79ZM275.511 252.36V251.36H274.511V252.36H275.511ZM289.161 252.36V253.36H290.161V252.36H289.161ZM289.161 245.85H290.161V244.85H289.161V245.85ZM305.421 306.47V273.5H303.421V306.47H305.421ZM304.421 274.5H314.221V272.5H304.421V274.5ZM315.221 273.5V266.85H313.221V273.5H315.221ZM314.221 265.85H304.421V267.85H314.221V265.85ZM305.421 266.85V244.24H303.421V266.85H305.421ZM304.421 243.24H296.861V245.24H304.421V243.24ZM295.861 244.24V306.47H297.861V244.24H295.861ZM296.861 307.47H304.421V305.47H296.861V307.47ZM253.021 245.85V252.36H255.021V245.85H253.021ZM254.021 253.36H267.811V251.36H254.021V253.36ZM266.811 252.36V258.52H268.811V252.36H266.811ZM266.811 258.52C266.811 269.359 261.617 282.735 250.354 292.556L251.668 294.064C263.364 283.865 268.811 269.941 268.811 258.52H266.811ZM250.266 293.977L255.656 299.997L257.146 298.663L251.756 292.643L250.266 293.977ZM257.104 300.041C264.127 293.088 269.172 285.348 272.374 277.665L270.528 276.895C267.429 284.332 262.534 291.852 255.697 298.619L257.104 300.041ZM270.63 277.852L285.26 298.852L286.901 297.708L272.271 276.708L270.63 277.852ZM286.774 299.001L292.234 293.751L290.848 292.309L285.388 297.559L286.774 299.001ZM292.338 292.427L274.768 269.187L273.173 270.393L290.743 293.633L292.338 292.427ZM274.941 270.033C275.935 266.056 276.511 262.192 276.511 258.52H274.511C274.511 261.988 273.966 265.684 273.001 269.547L274.941 270.033ZM276.511 258.52V252.36H274.511V258.52H276.511ZM275.511 253.36H289.161V251.36H275.511V253.36ZM290.161 252.36V245.85H288.161V252.36H290.161ZM289.161 244.85H254.021V246.85H289.161V244.85ZM369.551 306.47V307.47H370.551V306.47H369.551ZM369.551 244.24H370.551V243.24H369.551V244.24ZM361.991 244.24V243.24H360.991V244.24H361.991ZM361.991 264.05V265.05H362.991V264.05H361.991ZM348.271 264.05V263.05H347.271V264.05H348.271ZM348.271 270.56H347.271V271.56H348.271V270.56ZM361.991 270.56H362.991V269.56H361.991V270.56ZM361.991 306.47H360.991V307.47H361.991V306.47ZM330.491 245.71V244.71H329.491V245.71H330.491ZM312.991 291.35L312.35 290.583L311.579 291.226L312.226 291.994L312.991 291.35ZM318.241 297.58L317.476 298.224L318.157 299.033L318.927 298.308L318.241 297.58ZM334.271 274.83L335.089 274.255L334.033 272.754L333.344 274.454L334.271 274.83ZM349.531 296.53L348.713 297.105L349.401 298.084L350.242 297.233L349.531 296.53ZM354.991 291L355.702 291.703L356.316 291.082L355.783 290.39L354.991 291ZM336.721 267.27L335.748 267.039L335.638 267.503L335.928 267.88L336.721 267.27ZM338.261 245.71H339.261V244.71H338.261V245.71ZM370.551 306.47V244.24H368.551V306.47H370.551ZM369.551 243.24H361.991V245.24H369.551V243.24ZM360.991 244.24V264.05H362.991V244.24H360.991ZM361.991 263.05H348.271V265.05H361.991V263.05ZM347.271 264.05V270.56H349.271V264.05H347.271ZM348.271 271.56H361.991V269.56H348.271V271.56ZM360.991 270.56V306.47H362.991V270.56H360.991ZM361.991 307.47H369.551V305.47H361.991V307.47ZM329.491 245.71V254.67H331.491V245.71H329.491ZM329.491 254.67C329.491 268.229 323.606 281.18 312.35 290.583L313.632 292.117C325.336 282.34 331.491 268.831 331.491 254.67H329.491ZM312.226 291.994L317.476 298.224L319.005 296.936L313.755 290.706L312.226 291.994ZM318.927 298.308C326.368 291.292 331.847 283.475 335.198 275.206L333.344 274.454C330.115 282.425 324.814 290.008 317.555 296.852L318.927 298.308ZM333.453 275.405L348.713 297.105L350.349 295.955L335.089 274.255L333.453 275.405ZM350.242 297.233L355.702 291.703L354.279 290.297L348.819 295.827L350.242 297.233ZM355.783 290.39L337.513 266.66L335.928 267.88L354.198 291.61L355.783 290.39ZM337.694 267.501C338.689 263.305 339.261 258.957 339.261 254.67H337.261C337.261 258.783 336.712 262.975 335.748 267.039L337.694 267.501ZM339.261 254.67V245.71H337.261V254.67H339.261ZM338.261 244.71H330.491V246.71H338.261V244.71ZM457.754 277.98V278.98H458.754V277.98H457.754ZM457.754 272.45H458.754V271.45H457.754V272.45ZM431.784 272.45H430.784V273.45H431.784V272.45ZM431.784 268.74L431.674 267.746L430.784 267.844V268.74H431.784ZM424.224 268.74H425.224V267.844L424.333 267.746L424.224 268.74ZM424.224 272.45V273.45H425.224V272.45H424.224ZM398.254 272.45V271.45H397.254V272.45H398.254ZM398.254 277.98H397.254V278.98H398.254V277.98ZM426.394 306.19V307.19H427.394V306.19H426.394ZM426.394 300.8H427.394V299.8H426.394V300.8ZM410.504 300.8H409.504V301.8H410.504V300.8ZM410.504 296.11V295.11H409.504V296.11H410.504ZM425.694 296.11V297.11H426.694V296.11H425.694ZM425.694 281.97H426.694V280.97H425.694V281.97ZM403.014 281.97V280.97H402.014V281.97H403.014ZM403.014 286.94H402.014V287.94H403.014V286.94ZM418.834 286.94H419.834V285.94H418.834V286.94ZM418.834 291.42V292.42H419.834V291.42H418.834ZM403.154 291.42V290.42H402.154V291.42H403.154ZM403.154 306.19H402.154V307.19H403.154V306.19ZM452.854 306.19V307.19H453.854V306.19H452.854ZM452.854 281.97H453.854V280.97H452.854V281.97ZM429.264 281.97V280.97H428.264V281.97H429.264ZM429.264 306.19H428.264V307.19H429.264V306.19ZM435.844 286.8V285.8H434.844V286.8H435.844ZM445.714 286.8H446.714V285.8H445.714V286.8ZM445.714 300.8V301.8H446.714V300.8H445.714ZM435.844 300.8H434.844V301.8H435.844V300.8ZM458.754 277.98V272.45H456.754V277.98H458.754ZM457.754 271.45H431.784V273.45H457.754V271.45ZM432.784 272.45V268.74H430.784V272.45H432.784ZM431.893 269.734C436.474 269.229 440.409 267.759 443.218 265.382C446.051 262.985 447.694 259.699 447.694 255.72H445.694C445.694 259.09 444.326 261.825 441.926 263.855C439.503 265.906 435.983 267.271 431.674 267.746L431.893 269.734ZM447.694 255.72C447.694 251.207 445.575 247.454 442.035 244.86C438.516 242.281 433.621 240.86 428.004 240.86V242.86C433.306 242.86 437.756 244.204 440.852 246.473C443.927 248.726 445.694 251.903 445.694 255.72H447.694ZM428.004 240.86C422.386 240.86 417.491 242.281 413.972 244.86C410.432 247.454 408.314 251.207 408.314 255.72H410.314C410.314 251.903 412.08 248.726 415.155 246.473C418.251 244.204 422.701 242.86 428.004 242.86V240.86ZM408.314 255.72C408.314 259.699 409.956 262.985 412.789 265.382C415.598 267.759 419.533 269.229 424.114 269.734L424.333 267.746C420.024 267.271 416.504 265.906 414.081 263.855C411.681 261.825 410.314 259.09 410.314 255.72H408.314ZM423.224 268.74V272.45H425.224V268.74H423.224ZM424.224 271.45H398.254V273.45H424.224V271.45ZM397.254 272.45V277.98H399.254V272.45H397.254ZM398.254 278.98H457.754V276.98H398.254V278.98ZM428.004 262.63C424.897 262.63 422.35 261.877 420.61 260.644C418.894 259.428 417.944 257.741 417.944 255.72H415.944C415.944 258.459 417.268 260.727 419.454 262.276C421.617 263.808 424.6 264.63 428.004 264.63V262.63ZM417.944 255.72C417.944 253.737 418.891 252.048 420.613 250.82C422.355 249.578 424.902 248.81 428.004 248.81V246.81C424.595 246.81 421.612 247.652 419.452 249.192C417.271 250.747 415.944 253.013 415.944 255.72H417.944ZM428.004 248.81C431.105 248.81 433.652 249.578 435.394 250.82C437.116 252.048 438.064 253.737 438.064 255.72H440.064C440.064 253.013 438.736 250.747 436.555 249.192C434.395 247.652 431.412 246.81 428.004 246.81V248.81ZM438.064 255.72C438.064 257.741 437.113 259.428 435.397 260.644C433.657 261.877 431.11 262.63 428.004 262.63V264.63C431.407 264.63 434.39 263.808 436.553 262.276C438.739 260.727 440.064 258.459 440.064 255.72H438.064ZM427.394 306.19V300.8H425.394V306.19H427.394ZM426.394 299.8H410.504V301.8H426.394V299.8ZM411.504 300.8V296.11H409.504V300.8H411.504ZM410.504 297.11H425.694V295.11H410.504V297.11ZM426.694 296.11V281.97H424.694V296.11H426.694ZM425.694 280.97H403.014V282.97H425.694V280.97ZM402.014 281.97V286.94H404.014V281.97H402.014ZM403.014 287.94H418.834V285.94H403.014V287.94ZM417.834 286.94V291.42H419.834V286.94H417.834ZM418.834 290.42H403.154V292.42H418.834V290.42ZM402.154 291.42V306.19H404.154V291.42H402.154ZM403.154 307.19H426.394V305.19H403.154V307.19ZM453.854 306.19V281.97H451.854V306.19H453.854ZM452.854 280.97H429.264V282.97H452.854V280.97ZM428.264 281.97V306.19H430.264V281.97H428.264ZM429.264 307.19H452.854V305.19H429.264V307.19ZM435.844 287.8H445.714V285.8H435.844V287.8ZM444.714 286.8V300.8H446.714V286.8H444.714ZM445.714 299.8H435.844V301.8H445.714V299.8ZM436.844 300.8V286.8H434.844V300.8H436.844ZM513.784 306.47V307.47H514.784V306.47H513.784ZM513.784 244.24H514.784V243.24H513.784V244.24ZM506.224 244.24V243.24H505.224V244.24H506.224ZM506.224 306.47H505.224V307.47H506.224V306.47ZM466.324 299.47L465.487 300.018L466.002 300.803L466.818 300.339L466.324 299.47ZM495.584 246.06H496.584V245.06H495.584V246.06ZM463.804 246.06V245.06H462.804V246.06H463.804ZM463.804 252.57H462.804V253.57H463.804V252.57ZM487.884 252.57H488.884V251.57H487.884V252.57ZM462.054 292.96L461.585 292.077L460.616 292.591L461.217 293.508L462.054 292.96ZM514.784 306.47V244.24H512.784V306.47H514.784ZM513.784 243.24H506.224V245.24H513.784V243.24ZM505.224 244.24V306.47H507.224V244.24H505.224ZM506.224 307.47H513.784V305.47H506.224V307.47ZM466.818 300.339C487.061 288.833 496.584 271.292 496.584 252.57H494.584C494.584 270.528 485.487 287.427 465.829 298.601L466.818 300.339ZM496.584 252.57V246.06H494.584V252.57H496.584ZM495.584 245.06H463.804V247.06H495.584V245.06ZM462.804 246.06V252.57H464.804V246.06H462.804ZM463.804 253.57H487.884V251.57H463.804V253.57ZM486.884 252.57C486.884 268.622 478.294 283.207 461.585 292.077L462.522 293.843C479.834 284.653 488.884 269.418 488.884 252.57H486.884ZM461.217 293.508L465.487 300.018L467.16 298.922L462.89 292.412L461.217 293.508ZM576.114 306.47V307.47H577.114V306.47H576.114ZM576.114 244.24H577.114V243.24H576.114V244.24ZM568.554 244.24V243.24H567.554V244.24H568.554ZM568.554 306.47H567.554V307.47H568.554V306.47ZM528.654 299.47L527.818 300.018L528.332 300.803L529.148 300.339L528.654 299.47ZM557.914 246.06H558.914V245.06H557.914V246.06ZM526.134 246.06V245.06H525.134V246.06H526.134ZM526.134 252.57H525.134V253.57H526.134V252.57ZM550.214 252.57H551.214V251.57H550.214V252.57ZM524.384 292.96L523.915 292.077L522.946 292.591L523.547 293.508L524.384 292.96ZM577.114 306.47V244.24H575.114V306.47H577.114ZM576.114 243.24H568.554V245.24H576.114V243.24ZM567.554 244.24V306.47H569.554V244.24H567.554ZM568.554 307.47H576.114V305.47H568.554V307.47ZM529.148 300.339C549.391 288.833 558.914 271.292 558.914 252.57H556.914C556.914 270.528 547.817 287.427 528.16 298.601L529.148 300.339ZM558.914 252.57V246.06H556.914V252.57H558.914ZM557.914 245.06H526.134V247.06H557.914V245.06ZM525.134 246.06V252.57H527.134V246.06H525.134ZM526.134 253.57H550.214V251.57H526.134V253.57ZM549.214 252.57C549.214 268.622 540.624 283.207 523.915 292.077L524.853 293.843C542.164 284.653 551.214 269.418 551.214 252.57H549.214ZM523.547 293.508L527.818 300.018L529.49 298.922L525.22 292.412L523.547 293.508ZM637.646 253.76V252.76H633.912L637.147 254.626L637.646 253.76ZM646.676 253.76V254.76H647.676V253.76H646.676ZM646.676 247.74H647.676V246.74H646.676V247.74ZM630.226 247.74H629.226V248.74H630.226V247.74ZM630.226 241.44H631.226V240.44H630.226V241.44ZM622.526 241.44V240.44H621.526V241.44H622.526ZM622.526 247.74V248.74H623.526V247.74H622.526ZM605.376 247.74V246.74H604.376V247.74H605.376ZM605.376 253.76H604.376V254.76H605.376V253.76ZM615.106 253.76L615.606 254.626L618.841 252.76H615.106V253.76ZM659.766 277.42V278.42H660.766V277.42H659.766ZM659.766 244.24H660.766V243.24H659.766V244.24ZM652.206 244.24V243.24H651.206V244.24H652.206ZM652.206 277.42H651.206V278.42H652.206V277.42ZM659.766 305.77V306.77H660.766V305.77H659.766ZM659.766 281.62H660.766V280.62H659.766V281.62ZM613.566 281.62V280.62H612.566V281.62H613.566ZM613.566 305.77H612.566V306.77H613.566V305.77ZM620.986 287.92V286.92H619.986V287.92H620.986ZM652.346 287.92H653.346V286.92H652.346V287.92ZM652.346 299.4V300.4H653.346V299.4H652.346ZM620.986 299.4H619.986V300.4H620.986V299.4ZM626.376 277.51C636.81 277.51 644.456 271.362 644.456 262.72H642.456C642.456 269.898 636.103 275.51 626.376 275.51V277.51ZM644.456 262.72C644.456 258.64 642.017 255.127 638.146 252.894L637.147 254.626C640.556 256.593 642.456 259.52 642.456 262.72H644.456ZM637.646 254.76H646.676V252.76H637.646V254.76ZM647.676 253.76V247.74H645.676V253.76H647.676ZM646.676 246.74H630.226V248.74H646.676V246.74ZM631.226 247.74V241.44H629.226V247.74H631.226ZM630.226 240.44H622.526V242.44H630.226V240.44ZM621.526 241.44V247.74H623.526V241.44H621.526ZM622.526 246.74H605.376V248.74H622.526V246.74ZM604.376 247.74V253.76H606.376V247.74H604.376ZM605.376 254.76H615.106V252.76H605.376V254.76ZM614.607 252.894C610.736 255.127 608.296 258.64 608.296 262.72H610.296C610.296 259.52 612.197 256.593 615.606 254.626L614.607 252.894ZM608.296 262.72C608.296 271.362 615.943 277.51 626.376 277.51V275.51C616.65 275.51 610.296 269.898 610.296 262.72H608.296ZM660.766 277.42V244.24H658.766V277.42H660.766ZM659.766 243.24H652.206V245.24H659.766V243.24ZM651.206 244.24V277.42H653.206V244.24H651.206ZM652.206 278.42H659.766V276.42H652.206V278.42ZM626.376 269.28C621.196 269.28 617.716 265.894 617.716 262.02H615.716C615.716 267.246 620.357 271.28 626.376 271.28V269.28ZM617.716 262.02C617.716 258.146 621.196 254.76 626.376 254.76V252.76C620.357 252.76 615.716 256.794 615.716 262.02H617.716ZM626.376 254.76C631.557 254.76 635.036 258.146 635.036 262.02H637.036C637.036 256.794 632.396 252.76 626.376 252.76V254.76ZM635.036 262.02C635.036 265.894 631.557 269.28 626.376 269.28V271.28C632.396 271.28 637.036 267.246 637.036 262.02H635.036ZM660.766 305.77V281.62H658.766V305.77H660.766ZM659.766 280.62H613.566V282.62H659.766V280.62ZM612.566 281.62V305.77H614.566V281.62H612.566ZM613.566 306.77H659.766V304.77H613.566V306.77ZM620.986 288.92H652.346V286.92H620.986V288.92ZM651.346 287.92V299.4H653.346V287.92H651.346ZM652.346 298.4H620.986V300.4H652.346V298.4ZM621.986 299.4V287.92H619.986V299.4H621.986ZM721.607 280.71V281.71H722.607V280.71H721.607ZM721.607 274.13H722.607V273.13H721.607V274.13ZM683.316 274.13H682.316V275.13H683.316V274.13ZM683.316 251.87V250.87H682.316V251.87H683.316ZM720.766 251.87V252.87H721.766V251.87H720.766ZM720.766 245.22H721.766V244.22H720.766V245.22ZM675.476 245.22V244.22H674.476V245.22H675.476ZM675.476 280.71H674.476V281.71H675.476V280.71ZM728.047 301.85V302.85H729.047V301.85H728.047ZM728.047 295.2H729.047V294.2H728.047V295.2ZM668.546 295.2V294.2H667.546V295.2H668.546ZM668.546 301.85H667.546V302.85H668.546V301.85ZM722.607 280.71V274.13H720.607V280.71H722.607ZM721.607 273.13H683.316V275.13H721.607V273.13ZM684.316 274.13V251.87H682.316V274.13H684.316ZM683.316 252.87H720.766V250.87H683.316V252.87ZM721.766 251.87V245.22H719.766V251.87H721.766ZM720.766 244.22H675.476V246.22H720.766V244.22ZM674.476 245.22V280.71H676.476V245.22H674.476ZM675.476 281.71H721.607V279.71H675.476V281.71ZM729.047 301.85V295.2H727.047V301.85H729.047ZM728.047 294.2H668.546V296.2H728.047V294.2ZM667.546 295.2V301.85H669.546V295.2H667.546ZM668.546 302.85H728.047V300.85H668.546V302.85ZM783.727 287.57V288.57H784.727V287.57H783.727ZM783.727 244.24H784.727V243.24H783.727V244.24ZM776.167 244.24V243.24H775.167V244.24H776.167ZM776.167 287.57H775.167V288.57H776.167V287.57ZM747.257 244.52V243.52H746.257V244.52H747.257ZM730.177 273.99L729.704 273.109L728.709 273.642L729.359 274.565L730.177 273.99ZM734.657 280.36L733.839 280.935L734.366 281.685L735.159 281.225L734.657 280.36ZM750.897 264.89L751.585 264.164L750.674 263.3L750.035 264.382L750.897 264.89ZM765.877 279.1L765.188 279.826L765.952 280.55L766.636 279.75L765.877 279.1ZM770.847 273.29L771.606 273.94L772.252 273.186L771.502 272.535L770.847 273.29ZM753.767 258.45L752.813 258.149L752.615 258.775L753.111 259.205L753.767 258.45ZM755.027 244.52H756.027V243.52H755.027V244.52ZM784.847 305.63V306.63H785.847V305.63H784.847ZM784.847 298.98H785.847V297.98H784.847V298.98ZM745.717 298.98H744.717V299.98H745.717V298.98ZM745.717 284.7H746.717V283.7H745.717V284.7ZM737.877 284.7V283.7H736.877V284.7H737.877ZM737.877 305.63H736.877V306.63H737.877V305.63ZM784.727 287.57V244.24H782.727V287.57H784.727ZM783.727 243.24H776.167V245.24H783.727V243.24ZM775.167 244.24V287.57H777.167V244.24H775.167ZM776.167 288.57H783.727V286.57H776.167V288.57ZM746.257 244.52V250.33H748.257V244.52H746.257ZM746.257 250.33C746.257 258.526 740.206 267.48 729.704 273.109L730.649 274.871C741.567 269.02 748.257 259.494 748.257 250.33H746.257ZM729.359 274.565L733.839 280.935L735.475 279.785L730.995 273.415L729.359 274.565ZM735.159 281.225C742.637 276.88 748.23 271.375 751.758 265.398L750.035 264.382C746.704 270.025 741.376 275.3 734.154 279.495L735.159 281.225ZM750.208 265.616L765.188 279.826L766.565 278.374L751.585 264.164L750.208 265.616ZM766.636 279.75L771.606 273.94L770.087 272.64L765.117 278.45L766.636 279.75ZM771.502 272.535L754.422 257.695L753.111 259.205L770.191 274.045L771.502 272.535ZM754.72 258.751C755.591 255.995 756.027 253.163 756.027 250.33H754.027C754.027 252.957 753.622 255.585 752.813 258.149L754.72 258.751ZM756.027 250.33V244.52H754.027V250.33H756.027ZM755.027 243.52H747.257V245.52H755.027V243.52ZM785.847 305.63V298.98H783.847V305.63H785.847ZM784.847 297.98H745.717V299.98H784.847V297.98ZM746.717 298.98V284.7H744.717V298.98H746.717ZM745.717 283.7H737.877V285.7H745.717V283.7ZM736.877 284.7V305.63H738.877V284.7H736.877ZM737.877 306.63H784.847V304.63H737.877V306.63ZM827.409 244.52H828.409V243.52H827.409V244.52ZM819.779 244.52V243.52H818.779V244.52H819.779ZM819.779 270.07H818.779V271.07H819.779V270.07ZM868.079 270.07V271.07H869.079V270.07H868.079ZM868.079 244.52H869.079V243.52H868.079V244.52ZM860.449 244.52V243.52H859.449V244.52H860.449ZM860.449 250.96V251.96H861.449V250.96H860.449ZM827.409 250.96H826.409V251.96H827.409V250.96ZM827.409 263.98H826.409V264.98H827.409V263.98ZM827.409 257.12V256.12H826.409V257.12H827.409ZM860.449 257.12H861.449V256.12H860.449V257.12ZM860.449 263.98V264.98H861.449V263.98H860.449ZM814.179 282.46H813.179V283.46H814.179V282.46ZM841.199 282.46H842.199V281.46H841.199V282.46ZM841.199 292.75H840.199V293.75H841.199V292.75ZM848.759 292.75V293.75H849.759V292.75H848.759ZM848.759 282.46V281.46H847.759V282.46H848.759ZM873.679 282.46V283.46H874.679V282.46H873.679ZM873.679 276.09H874.679V275.09H873.679V276.09ZM814.179 276.09V275.09H813.179V276.09H814.179ZM868.289 305.63V306.63H869.289V305.63H868.289ZM868.289 299.12H869.289V298.12H868.289V299.12ZM827.829 299.12H826.829V300.12H827.829V299.12ZM827.829 288.13H828.829V287.13H827.829V288.13ZM820.129 288.13V287.13H819.129V288.13H820.129ZM820.129 305.63H819.129V306.63H820.129V305.63ZM827.409 243.52H819.779V245.52H827.409V243.52ZM818.779 244.52V270.07H820.779V244.52H818.779ZM819.779 271.07H868.079V269.07H819.779V271.07ZM869.079 270.07V244.52H867.079V270.07H869.079ZM868.079 243.52H860.449V245.52H868.079V243.52ZM859.449 244.52V250.96H861.449V244.52H859.449ZM860.449 249.96H827.409V251.96H860.449V249.96ZM828.409 250.96V244.52H826.409V250.96H828.409ZM828.409 263.98V257.12H826.409V263.98H828.409ZM827.409 258.12H860.449V256.12H827.409V258.12ZM859.449 257.12V263.98H861.449V257.12H859.449ZM860.449 262.98H827.409V264.98H860.449V262.98ZM814.179 283.46H841.199V281.46H814.179V283.46ZM840.199 282.46V292.75H842.199V282.46H840.199ZM841.199 293.75H848.759V291.75H841.199V293.75ZM849.759 292.75V282.46H847.759V292.75H849.759ZM848.759 283.46H873.679V281.46H848.759V283.46ZM874.679 282.46V276.09H872.679V282.46H874.679ZM873.679 275.09H814.179V277.09H873.679V275.09ZM813.179 276.09V282.46H815.179V276.09H813.179ZM869.289 305.63V299.12H867.289V305.63H869.289ZM868.289 298.12H827.829V300.12H868.289V298.12ZM828.829 299.12V288.13H826.829V299.12H828.829ZM827.829 287.13H820.129V289.13H827.829V287.13ZM819.129 288.13V305.63H821.129V288.13H819.129ZM820.129 306.63H868.289V304.63H820.129V306.63Z" fill="white"/>
<path d="M190.409 363.404H186.234V374.039H178.719V377.423H186.234V392.232H190.409V363.404ZM157.625 384.015L159.779 387.398C164.459 385.729 167.909 382.257 169.623 377.906C171.336 381.817 174.61 384.981 179.027 386.52L181.18 383.18C175.226 381.202 171.666 376.258 171.688 371.358V369.82H180.125V366.393H158.9V369.82H167.425V371.358C167.447 376.786 163.668 381.971 157.625 384.015ZM164.833 401.9H191.463V398.517H169.007V389.64H164.833V401.9ZM230.214 383.268H194.179V386.651H210.439V394.298H214.57V386.651H230.214V383.268ZM198.662 401.9H226.215V398.517H202.836V390.562H198.662V401.9ZM198.793 379.181H225.556V365.206H198.793V379.181ZM202.88 375.885V368.502H221.425V375.885H202.88ZM262.145 367.403H240.084V370.831H244.127V389.684C242.37 389.706 240.678 389.728 239.118 389.728L239.601 393.199C246.5 393.177 255.795 393.045 264.035 391.661L263.815 388.629C261.969 388.849 260.058 389.024 258.102 389.178V370.831H262.145V367.403ZM248.17 389.618V370.831H254.059V389.42C252.082 389.508 250.104 389.574 248.17 389.618ZM266.1 402.735H270.275V382.301H276.603V378.873H270.275V363.36H266.1V402.735ZM308.191 384.322H284.988V378.609H306.96V375.313H284.988V369.996H307.795V366.612H280.769V387.662H308.191V384.322ZM276.243 397.77H312.278V394.342H276.243V397.77ZM345.755 363.36H341.581V376.061H329.847V379.488H341.581V402.823H345.755V363.36ZM314.994 393.331H318.158C324.332 393.353 330.045 393.001 336.395 391.705L335.868 388.277C330.133 389.42 324.837 389.771 319.212 389.859V367.711H314.994V393.331ZM380.2 363.36H376.025V402.691H380.2V382.521H386.308V379.049H380.2V363.36ZM349.57 392.188L351.899 395.44C364.863 389.046 369.873 378.873 369.917 367.491H351.547V370.963H365.654C364.797 380.147 359.436 387.267 349.57 392.188ZM428.698 363.36H424.699V378.961H419.601V364.151H415.778V400.714H419.601V382.389H424.699V402.735H428.698V363.36ZM396.222 393.287H398.859C404.594 393.243 408.681 393.089 413.405 392.101L413.097 388.673C408.878 389.486 405.231 389.706 400.397 389.728V371.49H410.988V368.106H396.222V393.287ZM464.197 363.404H460.022V392.232H464.197V363.404ZM431.765 383.355L434.006 386.651C438.621 384.872 442.026 381.224 443.762 376.654C445.52 380.917 448.882 384.256 453.43 385.948L455.583 382.608C449.497 380.499 445.85 375.226 445.872 369.469V365.558H441.609V369.469C441.587 375.401 437.939 381.07 431.765 383.355ZM438.445 401.9H465.383V398.517H442.664V389.508H438.445V401.9ZM512.915 385.948H476.879V389.332H492.744V402.691H496.831V389.332H512.915V385.948ZM481.406 380.938H508.388V365.47H481.406V380.938ZM485.493 377.687V368.81H504.213V377.687H485.493ZM546.348 363.36H542.217V378.961H533.384V382.389H542.217V402.735H546.348V363.36ZM513.477 392.145L515.674 395.44C529.034 388.827 533.472 378.983 533.516 367.579H515.235V370.919H529.275C528.55 379.95 523.914 387.047 513.477 392.145ZM586.198 383.092H550.163V386.476H566.378V394.122H570.597V386.476H586.198V383.092ZM554.118 372.281C554.096 377.181 559.677 380.235 568.136 380.235C576.596 380.235 582.133 377.181 582.111 372.281C582.133 367.359 576.596 364.305 568.136 364.283C559.677 364.305 554.096 367.359 554.118 372.281ZM554.689 401.9H582.199V398.473H558.864V390.343H554.689V401.9ZM558.6 372.281C558.556 369.359 562.379 367.645 568.136 367.623C573.915 367.645 577.694 369.359 577.716 372.281C577.694 375.116 573.915 376.852 568.136 376.852C562.379 376.852 558.556 375.116 558.6 372.281ZM631.488 379.664H595.584V383.004H611.405V386.432H599.891V389.64H622.831V392.628H599.935V402.34H628.06V399.132H604.022V395.66H626.961V386.432H615.58V383.004H631.488V379.664ZM600.199 376.764H626.874V364.635H600.199V376.764ZM604.286 373.468V367.931H622.699V373.468H604.286ZM665.053 363.404H660.878V375.27H652.705V378.741H660.878V392.408H665.053V363.404ZM632.797 384.674L634.555 388.014C645.871 384.366 652.924 376.632 652.968 366.349H634.819V369.82H648.376C647.519 376.5 641.564 381.839 632.797 384.674ZM639.697 401.9H666.064V398.517H643.916V389.42H639.697V401.9ZM686.797 364.02C677.92 363.998 672.713 366.393 672.735 370.787C672.713 375.204 677.92 377.599 686.797 377.599C695.674 377.599 700.838 375.204 700.86 370.787C700.838 366.393 695.674 363.998 686.797 364.02ZM668.868 383.355H704.771V380.016H668.868V383.355ZM673.174 389.508H696.114V392.584H673.218V402.34H701.343V399.132H677.305V395.616H700.245V386.388H673.174V389.508ZM677.085 370.787C677.063 368.458 680.535 367.096 686.797 367.096C693.104 367.096 696.575 368.458 696.553 370.787C696.575 373.226 693.104 374.479 686.797 374.479C680.535 374.479 677.063 373.226 677.085 370.787ZM730.813 386.563H717.981V389.552H726.902V392.76H718.113V402.34H720.266C725.913 402.34 728.638 402.296 732.043 401.637L731.736 398.604C728.813 399.132 726.44 399.198 722.024 399.22V395.66H730.813V386.563ZM714.246 383.707H750.149V380.367H734.153V377.73C741.755 377.335 746.216 374.852 746.238 370.743C746.216 366.283 740.964 363.778 732.175 363.8C723.342 363.778 718.091 366.283 718.113 370.743C718.091 374.83 722.507 377.291 730.066 377.708V380.367H714.246V383.707ZM722.463 370.743C722.441 368.348 725.913 366.942 732.175 366.92C738.394 366.942 741.953 368.348 741.931 370.743C741.953 373.204 738.394 374.522 732.175 374.566C725.913 374.522 722.441 373.204 722.463 370.743ZM733.23 402.34H746.062V386.563H733.23V402.34ZM736.746 399.264V389.596H742.502V399.264H736.746ZM770.926 367.579H752.557V370.919H766.729C765.938 380.016 760.885 387.157 750.755 392.145L752.953 395.484C762.225 390.958 767.323 384.608 769.564 377.291H779.54V384.498H768.949V387.926H779.54V402.691H783.67V363.316H779.54V373.951H770.355C770.75 371.886 770.926 369.754 770.926 367.579ZM819.433 382.037H796.142V370.304H819.082V366.876H792.011V385.465H819.433V382.037ZM787.529 397.55H823.564V394.078H787.529V397.55ZM856.954 363.36H852.823V372.149H845.352V375.577H852.823V382.872H845.132V386.344H852.823V402.823H856.954V363.36ZM825.533 370.216H838.892V377.906H825.621V393.727H828.609C834.827 393.727 839.859 393.551 846.011 392.584L845.66 389.156C840.057 389.969 835.354 390.233 829.795 390.255V381.202H842.979V366.832H825.533V370.216ZM896.847 394.342H888.234V383.971C891.398 382.191 893.288 379.4 893.288 375.929C893.288 369.732 887.201 365.667 878.742 365.646C870.304 365.667 864.218 369.732 864.24 375.929C864.218 379.466 866.195 382.279 869.425 384.059V394.342H860.812V397.813H896.847V394.342ZM868.283 375.929C868.283 371.688 872.567 368.985 878.742 368.985C884.872 368.985 889.223 371.688 889.245 375.929C889.223 380.147 884.872 382.894 878.742 382.916C872.567 382.894 868.283 380.147 868.283 375.929ZM873.556 394.342V385.597C875.138 385.97 876.896 386.168 878.742 386.168C880.631 386.168 882.411 385.97 884.015 385.597V394.342H873.556ZM901.936 399.308C903.628 399.286 905.034 397.901 905.056 396.188C905.034 394.474 903.628 393.067 901.936 393.067C900.222 393.067 898.794 394.474 898.816 396.188C898.794 397.901 900.222 399.286 901.936 399.308Z" fill="white"/>
</g>
<defs>
<filter id="filter0_dd_33_1280" x="0" y="0" width="1064" height="1224" filterUnits="userSpaceOnUse" color-interpolation-filters="sRGB">
<feFlood flood-opacity="0" result="BackgroundImageFix"/>
<feColorMatrix in="SourceAlpha" type="matrix" values="0 0 0 0 0 0 0 0 0 0 0 0 0 0 0 0 0 0 127 0" result="hardAlpha"/>
<feMorphology radius="2" operator="erode" in="SourceAlpha" result="effect1_dropShadow_33_1280"/>
<feOffset dy="4"/>
<feGaussianBlur stdDeviation="3"/>
<feComposite in2="hardAlpha" operator="out"/>
<feColorMatrix type="matrix" values="0 0 0 0 0 0 0 0 0 0 0 0 0 0 0 0 0 0 0.05 0"/>
<feBlend mode="normal" in2="BackgroundImageFix" result="effect1_dropShadow_33_1280"/>
<feColorMatrix in="SourceAlpha" type="matrix" values="0 0 0 0 0 0 0 0 0 0 0 0 0 0 0 0 0 0 127 0" result="hardAlpha"/>
<feMorphology radius="3" operator="erode" in="SourceAlpha" result="effect2_dropShadow_33_1280"/>
<feOffset dy="10"/>
<feGaussianBlur stdDeviation="7.5"/>
<feComposite in2="hardAlpha" operator="out"/>
<feColorMatrix type="matrix" values="0 0 0 0 0 0 0 0 0 0 0 0 0 0 0 0 0 0 0.1 0"/>
<feBlend mode="normal" in2="effect1_dropShadow_33_1280" result="effect2_dropShadow_33_1280"/>
<feBlend mode="normal" in="SourceGraphic" in2="effect2_dropShadow_33_1280" result="shape"/>
</filter>
<linearGradient id="paint0_linear_33_1280" x1="860.063" y1="713.871" x2="860.063" y2="773.606" gradientUnits="userSpaceOnUse">
<stop stop-color="#76AEFC"/>
<stop offset="0.08" stop-color="#6C9BFC"/>
<stop offset="0.29" stop-color="#5370FC"/>
<stop offset="0.49" stop-color="#3F4DFC"/>
<stop offset="0.68" stop-color="#3134FC"/>
<stop offset="0.86" stop-color="#2925FC"/>
<stop offset="1" stop-color="#2620FC"/>
</linearGradient>
<linearGradient id="paint1_linear_33_1280" x1="801.537" y1="711.043" x2="801.537" y2="756.654" gradientUnits="userSpaceOnUse">
<stop stop-color="#92BEFC"/>
<stop offset="0.19" stop-color="#87B8FC"/>
<stop offset="0.53" stop-color="#7AB0FC"/>
<stop offset="0.84" stop-color="#76AEFC"/>
</linearGradient>
<linearGradient id="paint2_linear_33_1280" x1="757.876" y1="711.045" x2="757.876" y2="756.656" gradientUnits="userSpaceOnUse">
<stop stop-color="#92BEFC"/>
<stop offset="0.19" stop-color="#87B8FC"/>
<stop offset="0.53" stop-color="#7AB0FC"/>
<stop offset="0.84" stop-color="#76AEFC"/>
</linearGradient>
<linearGradient id="paint3_linear_33_1280" x1="857.501" y1="881.326" x2="716.369" y2="881.326" gradientUnits="userSpaceOnUse">
<stop stop-color="#A7ADBA"/>
<stop offset="1" stop-color="#DADCE0"/>
</linearGradient>
<linearGradient id="paint4_linear_33_1280" x1="849.074" y1="881.324" x2="724.693" y2="881.324" gradientUnits="userSpaceOnUse">
<stop stop-color="#46413F"/>
<stop offset="0.22" stop-color="#413C3B"/>
<stop offset="0.48" stop-color="#332F2E"/>
<stop offset="0.75" stop-color="#1C1A19"/>
<stop offset="1"/>
</linearGradient>
</defs>
</svg>
