<svg width="1064" height="1224" viewBox="0 0 1064 1224" fill="none" xmlns="http://www.w3.org/2000/svg">
<g filter="url(#filter0_dd_33_1331)">
<rect x="12" y="2" width="1040" height="1200" rx="25" fill="#E6F0FF"/>
<path d="M222.017 618.759C211.565 593.462 180.846 582.147 153.404 593.485C125.962 604.824 112.189 634.522 122.641 659.819C133.093 685.116 163.813 696.431 191.255 685.093C218.697 673.754 232.469 644.055 222.017 618.759Z" fill="#EF6400"/>
<path d="M221.279 611.641C211.506 587.988 181.337 578.005 153.896 589.344C126.454 600.682 112.13 629.049 121.903 652.702C131.676 676.355 161.845 686.338 189.287 674.999C216.729 663.66 231.052 635.294 221.279 611.641Z" fill="#FA965E"/>
<path d="M202.309 662.89C192.303 671.038 179.766 675.483 167.001 675.442C154.236 675.4 142.792 670.85 134.756 662.655C126.721 654.46 123.056 643.574 124.458 632.015C125.836 620.449 132.115 609.614 142.121 601.466C152.127 593.317 164.664 588.873 177.429 588.914C190.194 588.955 201.638 593.505 209.674 601.7C217.709 609.896 221.374 620.781 219.972 632.341C218.585 643.891 212.3 654.75 202.294 662.899L202.309 662.89ZM167.326 672.867C192.097 672.952 214.437 654.762 217.142 632.335C219.846 609.907 201.885 591.589 177.129 591.495C152.348 591.394 129.993 609.593 127.288 632.021C124.584 654.448 142.545 672.767 167.301 672.861L167.326 672.867Z" fill="#F45800"/>
<path d="M611.469 468.467C631.876 464.895 651.314 478.542 654.885 498.949L673.571 605.708L576.241 622.743L551.088 479.035L611.469 468.467Z" fill="#DAE2F5"/>
<path d="M364.26 751.06L330.239 555.771C326.668 535.363 340.314 515.926 360.722 512.354L611.469 468.467C591.061 472.039 577.415 491.476 580.986 511.884L620.799 740.263C624.371 760.67 610.724 780.108 590.317 783.679C569.909 787.251 550.462 773.606 546.89 753.199L541.042 719.788L364.261 751.063L364.26 751.06Z" fill="#F6F9FF"/>
<path d="M467.163 732.855L467.14 732.72C463.568 712.312 477.214 692.875 497.622 689.303C518.03 685.731 537.467 699.378 541.039 719.786L546.886 753.196C550.458 773.604 569.905 787.249 590.31 783.677L479.431 803.084L467.157 732.856L467.163 732.855Z" fill="#DAE2F5"/>
<path d="M553.25 539.806L364.884 572.775C363.062 573.094 361.324 571.874 361.006 570.052C360.687 568.23 361.907 566.492 363.729 566.173L552.094 533.204C553.917 532.885 555.654 534.105 555.973 535.928C556.292 537.75 555.072 539.488 553.25 539.806Z" fill="#C4CFE0"/>
<path d="M558.976 572.52L370.61 605.489C368.788 605.808 367.05 604.588 366.731 602.766C366.412 600.944 367.632 599.206 369.454 598.887L557.82 565.918C559.642 565.599 561.38 566.819 561.699 568.641C562.018 570.464 560.798 572.201 558.976 572.52Z" fill="#C4CFE0"/>
<path d="M564.847 606.066L376.481 639.035C374.659 639.354 372.921 638.134 372.602 636.312C372.283 634.49 373.503 632.752 375.326 632.433L563.691 599.464C565.513 599.145 567.251 600.365 567.57 602.187C567.889 604.01 566.669 605.747 564.847 606.066Z" fill="#C4CFE0"/>
<path d="M524.69 646.811L382.207 671.749C380.384 672.068 378.647 670.848 378.328 669.026C378.009 667.204 379.229 665.466 381.051 665.147L523.534 640.208C525.357 639.89 527.094 641.11 527.413 642.932C527.732 644.754 526.512 646.492 524.69 646.811Z" fill="#C4CFE0"/>
<path d="M262.112 1033.35L269.476 1022.86L279.965 1030.23L287.329 1019.74L297.817 1027.1L305.181 1016.61L315.67 1023.98L323.034 1013.49L333.522 1020.85L340.886 1010.36L351.375 1017.73L358.739 1007.24L369.227 1014.6L376.591 1004.11L387.08 1011.48L394.444 1000.99L404.932 1008.35L412.296 997.865L422.785 1005.23L430.149 994.741L440.637 1002.1L448.001 991.616L458.49 998.98L465.854 988.491L476.342 995.855L483.706 985.367L494.195 992.73L501.559 982.242L512.047 989.606L509.447 975.564L467.103 732.726C463.532 712.318 477.178 692.881 497.586 689.309L246.875 733.19C226.468 736.762 212.821 756.199 216.393 776.607L258.736 1019.45L262.112 1033.35Z" fill="white"/>
<path d="M436.59 768.245L248.224 801.214C246.402 801.533 244.664 800.313 244.345 798.491C244.026 796.668 245.246 794.931 247.069 794.612L435.434 761.643C437.256 761.324 438.994 762.544 439.313 764.366C439.632 766.188 438.412 767.926 436.59 768.245Z" fill="#C4CFE0"/>
<path d="M442.315 800.96L253.95 833.929C252.128 834.248 250.39 833.028 250.071 831.205C249.752 829.383 250.972 827.645 252.794 827.327L441.16 794.358C442.982 794.039 444.72 795.259 445.039 797.081C445.358 798.903 444.138 800.641 442.315 800.96Z" fill="#C4CFE0"/>
<path d="M448.187 834.509L259.822 867.478C258 867.797 256.262 866.576 255.943 864.754C255.624 862.932 256.844 861.194 258.666 860.875L447.032 827.906C448.854 827.587 450.592 828.807 450.911 830.63C451.23 832.452 450.01 834.19 448.187 834.509Z" fill="#C4CFE0"/>
<path d="M408.031 875.254L265.548 900.192C263.725 900.511 261.988 899.291 261.669 897.469C261.35 895.647 262.57 893.909 264.392 893.59L406.875 868.652C408.697 868.333 410.435 869.553 410.754 871.375C411.073 873.197 409.853 874.935 408.031 875.254Z" fill="#C4CFE0"/>
<path d="M459.784 900.769L271.419 933.738C269.596 934.057 267.859 932.837 267.54 931.015C267.221 929.193 268.441 927.455 270.263 927.136L458.629 894.167C460.451 893.848 462.188 895.068 462.507 896.89C462.826 898.713 461.606 900.45 459.784 900.769Z" fill="#C4CFE0"/>
<path d="M419.628 941.514L277.145 966.452C275.323 966.771 273.585 965.551 273.266 963.729C272.947 961.907 274.167 960.169 275.99 959.85L418.473 934.912C420.295 934.593 422.033 935.813 422.352 937.635C422.671 939.457 421.451 941.195 419.628 941.514Z" fill="#C4CFE0"/>
<path d="M851.359 617.062L842.07 632.31C841.341 633.526 840.928 634.827 840.784 636.02C840.632 637.283 840.861 638.474 841.378 639.398C841.531 639.673 841.733 639.93 841.937 640.164C842.145 640.376 842.358 640.541 842.594 640.709L1012.31 744.044C1012.96 744.448 1013.73 744.611 1014.53 744.545C1016.31 744.411 1018.25 743.178 1019.66 741.205C1019.71 741.142 1019.77 741.055 1019.82 740.969C1019.88 740.86 1029.41 725.221 1029.47 725.111C1031.1 722.188 1030.98 718.914 1029.21 717.374C1029.07 717.24 1028.92 717.128 1028.74 717.037L859.055 613.682C858.816 613.537 858.552 613.412 858.282 613.333C857.989 613.251 857.671 613.19 857.347 613.174C856.303 613.141 855.143 613.49 854.08 614.2C853.067 614.87 852.114 615.826 851.382 617.065L851.359 617.062Z" fill="#FA965E"/>
<path d="M921.833 688.94L1012.76 744.309C1013.35 744.659 1014.03 744.788 1014.79 744.693C1016.45 744.473 1018.3 743.184 1019.68 741.208C1019.73 741.144 1019.79 741.058 1019.85 740.972C1019.91 740.863 1029.43 725.223 1029.49 725.114C1031.15 722.194 1031.18 719.008 1029.63 717.61C1029.5 717.502 1029.37 717.393 1029.22 717.305L968.441 680.311C966.098 682.753 956.77 691.943 942.439 693.195C932.533 694.049 925.113 690.709 921.854 688.966L921.833 688.94Z" fill="#F66919"/>
<path d="M859.135 650.767L861.07 651.945L877.517 624.935L875.582 623.757L859.135 650.767Z" fill="#F45800"/>
<path d="M885.514 666.815L887.449 667.993L903.895 640.983L901.96 639.805L885.514 666.815Z" fill="#F45800"/>
<path d="M917.663 686.383L919.598 687.562L936.044 660.551L934.109 659.373L917.663 686.383Z" fill="#F45800"/>
<path d="M935.881 697.476L937.816 698.654L954.258 671.641L952.323 670.463L935.881 697.476Z" fill="#F45800"/>
<path d="M848.833 644.466L850.768 645.645L867.214 618.634L865.279 617.456L848.833 644.466Z" fill="#F45800"/>
<path d="M858.259 613.331L841.938 640.165C842.145 640.376 842.358 640.541 842.594 640.71L843.81 641.438L860.245 614.432L859.029 613.703C858.791 613.558 858.526 613.433 858.257 613.354L858.259 613.331Z" fill="#F45800"/>
<path d="M175.533 783.037L170.278 789.419C169.864 789.928 169.59 790.498 169.445 791.035C169.293 791.604 169.32 792.165 169.497 792.622C169.549 792.758 169.625 792.889 169.703 793.01C169.784 793.12 169.871 793.21 169.968 793.303L240.997 851.771C241.268 851.998 241.611 852.124 241.982 852.145C242.809 852.201 243.78 851.763 244.552 850.95C244.581 850.925 244.612 850.889 244.644 850.853C244.679 850.807 250.067 844.262 250.101 844.216C251.041 842.983 251.202 841.474 250.491 840.652C250.433 840.581 250.371 840.52 250.297 840.467L179.282 781.992C179.182 781.91 179.069 781.835 178.95 781.781C178.821 781.724 178.679 781.675 178.532 781.647C178.056 781.563 177.501 781.648 176.967 781.903C176.46 782.144 175.96 782.52 175.544 783.04L175.533 783.037Z" fill="#FA965E"/>
<path d="M203.133 820.594L241.189 851.921C241.434 852.12 241.739 852.224 242.092 852.23C242.866 852.238 243.8 851.768 244.562 850.953C244.591 850.927 244.623 850.891 244.654 850.856C244.689 850.809 250.077 844.264 250.112 844.218C251.062 842.988 251.286 841.53 250.665 840.787C250.614 840.729 250.563 840.671 250.499 840.621L225.06 819.688C223.826 820.654 218.95 824.256 212.299 823.892C207.703 823.635 204.52 821.619 203.14 820.607L203.133 820.594Z" fill="#F66919"/>
<path d="M176.892 798.995L177.702 799.662L187.008 788.358L186.198 787.691L176.892 798.995Z" fill="#F45800"/>
<path d="M187.933 808.077L188.743 808.743L198.049 797.439L197.239 796.772L187.933 808.077Z" fill="#F45800"/>
<path d="M201.389 819.149L202.199 819.815L211.505 808.511L210.695 807.844L201.389 819.149Z" fill="#F45800"/>
<path d="M209.014 825.425L209.824 826.092L219.128 814.786L218.318 814.119L209.014 825.425Z" fill="#F45800"/>
<path d="M172.583 795.433L173.393 796.1L182.698 784.795L181.888 784.129L172.583 795.433Z" fill="#F45800"/>
<path d="M178.94 781.779L169.703 793.01C169.784 793.121 169.871 793.21 169.968 793.303L170.478 793.716L179.778 782.413L179.269 782C179.169 781.917 179.056 781.843 178.937 781.789L178.94 781.779Z" fill="#F45800"/>
<path d="M864.325 761.527L611.052 712.119C598.378 709.647 586.099 717.917 583.627 730.591L514.419 1085.37C511.946 1098.04 520.216 1110.32 532.89 1112.79L786.164 1162.2C798.838 1164.67 811.116 1156.4 813.589 1143.73L882.797 788.952C885.27 776.278 876.999 763.999 864.325 761.527Z" fill="#C8CCE8"/>
<path d="M865.991 752.985L612.718 703.577C600.044 701.105 587.765 709.375 585.293 722.049L516.085 1076.83C513.612 1089.5 521.882 1101.78 534.556 1104.25L787.83 1153.66C800.504 1156.13 812.782 1147.86 815.255 1135.19L884.463 780.41C886.936 767.736 878.665 755.457 865.991 752.985Z" fill="white"/>
<path d="M845.02 795.77L616.07 751.107C612.267 750.365 608.582 752.847 607.84 756.65L599.515 799.325C598.774 803.128 601.255 806.812 605.058 807.554L834.009 852.217C837.812 852.959 841.497 850.477 842.239 846.674L850.563 803.999C851.305 800.196 848.824 796.512 845.02 795.77Z" fill="#6D6D6D"/>
<path d="M595.096 836.642L626.441 842.756C627.961 843.053 628.954 844.529 628.658 846.048L626.564 856.781C626.268 858.301 624.792 859.295 623.272 858.999L591.928 852.884C590.408 852.588 589.414 851.112 589.711 849.592L591.804 838.859C592.101 837.339 593.577 836.345 595.096 836.642Z" fill="#82A1EF"/>
<path d="M646.563 846.682L677.908 852.796C679.427 853.093 680.421 854.569 680.125 856.088L678.031 866.821C677.735 868.341 676.259 869.335 674.739 869.039L643.395 862.924C641.875 862.628 640.881 861.152 641.177 859.632L643.271 848.899C643.568 847.379 645.043 846.385 646.563 846.682Z" fill="#D9E1FB"/>
<path d="M698.03 856.722L729.374 862.836C730.894 863.133 731.888 864.609 731.592 866.128L729.498 876.861C729.201 878.381 727.726 879.375 726.206 879.079L694.861 872.964C693.342 872.668 692.348 871.192 692.644 869.672L694.738 858.939C695.035 857.419 696.51 856.425 698.03 856.722Z" fill="#D9E1FB"/>
<path d="M749.497 866.762L780.841 872.877C782.361 873.173 783.355 874.649 783.058 876.168L780.965 886.901C780.668 888.421 779.192 889.415 777.673 889.119L746.328 883.004C744.809 882.708 743.815 881.232 744.111 879.712L746.205 868.979C746.501 867.459 747.977 866.465 749.497 866.762Z" fill="#D9E1FB"/>
<path d="M800.965 876.802L832.31 882.917C833.83 883.213 834.824 884.689 834.527 886.208L832.433 896.942C832.137 898.461 830.661 899.455 829.141 899.159L797.797 893.044C796.277 892.748 795.283 891.272 795.58 889.752L797.674 879.019C797.97 877.499 799.446 876.506 800.965 876.802Z" fill="#D9E1FB"/>
<path d="M589.03 867.739L620.374 873.853C621.894 874.15 622.888 875.625 622.592 877.145L616.477 908.489C616.181 910.009 614.705 911.003 613.185 910.707L581.841 904.592C580.321 904.296 579.327 902.82 579.623 901.3L585.738 869.956C586.035 868.436 587.51 867.442 589.03 867.739Z" fill="#EEEEEE"/>
<path d="M579.434 916.926L610.779 923.041C612.298 923.337 613.292 924.813 612.996 926.332L606.881 957.677C606.585 959.197 605.109 960.191 603.589 959.894L572.245 953.78C570.725 953.483 569.731 952.007 570.028 950.488L576.142 919.143C576.439 917.623 577.914 916.63 579.434 916.926Z" fill="#EEEEEE"/>
<path d="M601.185 972.225L569.84 966.111C568.319 965.814 566.845 966.806 566.549 968.328L560.434 999.672C560.137 1001.19 561.13 1002.67 562.651 1002.96L593.996 1009.08C595.517 1009.38 596.991 1008.38 597.288 1006.86L603.402 975.517C603.699 973.996 602.706 972.522 601.185 972.225Z" fill="#EEEEEE"/>
<path d="M591.589 1021.41L560.245 1015.3C558.723 1015 557.25 1015.99 556.953 1017.51L550.838 1048.86C550.542 1050.38 551.534 1051.85 553.056 1052.15L584.4 1058.26C585.921 1058.56 587.395 1057.57 587.692 1056.05L593.806 1024.7C594.103 1023.18 593.111 1021.71 591.589 1021.41Z" fill="#EEEEEE"/>
<path d="M671.841 883.893L640.497 877.779C638.975 877.482 637.502 878.474 637.205 879.996L631.09 911.34C630.794 912.862 631.786 914.335 633.307 914.632L664.652 920.747C666.173 921.043 667.647 920.051 667.944 918.529L674.058 887.185C674.355 885.664 673.362 884.19 671.841 883.893Z" fill="#EEEEEE"/>
<path d="M630.901 926.966L662.245 933.081C663.765 933.377 664.759 934.853 664.463 936.372L658.348 967.717C658.052 969.237 656.576 970.231 655.056 969.934L623.712 963.82C622.192 963.523 621.198 962.047 621.495 960.528L627.609 929.183C627.906 927.663 629.381 926.67 630.901 926.966Z" fill="#EEEEEE"/>
<path d="M621.307 976.151L652.652 982.265C654.171 982.562 655.165 984.037 654.869 985.557L648.754 1016.9C648.458 1018.42 646.982 1019.42 645.463 1019.12L614.118 1013C612.598 1012.71 611.604 1011.23 611.901 1009.71L618.015 978.368C618.312 976.848 619.788 975.854 621.307 976.151Z" fill="#EEEEEE"/>
<path d="M643.056 1031.45L611.712 1025.34C610.19 1025.04 608.716 1026.03 608.42 1027.55L602.305 1058.9C602.008 1060.42 603.001 1061.89 604.522 1062.19L635.867 1068.3C637.388 1068.6 638.862 1067.61 639.159 1066.09L645.273 1034.74C645.57 1033.22 644.577 1031.75 643.056 1031.45Z" fill="#EEEEEE"/>
<path d="M691.963 887.819L723.308 893.933C724.828 894.23 725.822 895.705 725.525 897.225L719.411 928.57C719.114 930.089 717.638 931.083 716.119 930.787L684.774 924.672C683.255 924.376 682.261 922.9 682.557 921.38L688.672 890.036C688.968 888.516 690.444 887.522 691.963 887.819Z" fill="#EEEEEE"/>
<path d="M682.368 937.006L713.712 943.121C715.232 943.417 716.226 944.893 715.929 946.412L709.815 977.757C709.518 979.277 708.043 980.271 706.523 979.974L675.179 973.86C673.659 973.563 672.665 972.088 672.961 970.568L679.076 939.223C679.372 937.704 680.848 936.71 682.368 937.006Z" fill="#EEEEEE"/>
<path d="M704.119 992.305L672.774 986.191C671.253 985.894 669.779 986.887 669.482 988.408L663.368 1019.75C663.071 1021.27 664.064 1022.75 665.585 1023.04L696.929 1029.16C698.451 1029.46 699.924 1028.46 700.221 1026.94L706.336 995.597C706.632 994.076 705.64 992.602 704.119 992.305Z" fill="#EEEEEE"/>
<path d="M663.178 1035.37L694.523 1041.49C696.043 1041.79 697.036 1043.26 696.74 1044.78L690.625 1076.13C690.329 1077.64 688.853 1078.64 687.334 1078.34L655.989 1072.23C654.469 1071.93 653.475 1070.46 653.772 1068.94L659.886 1037.59C660.183 1036.07 661.659 1035.08 663.178 1035.37Z" fill="#EEEEEE"/>
<path d="M743.43 897.859L774.775 903.973C776.295 904.27 777.288 905.745 776.992 907.265L770.877 938.61C770.581 940.129 769.105 941.123 767.586 940.827L736.241 934.712C734.721 934.416 733.727 932.94 734.024 931.42L740.138 900.076C740.435 898.556 741.911 897.562 743.43 897.859Z" fill="#D9E1FB"/>
<path d="M733.837 947.046L765.181 953.161C766.701 953.457 767.695 954.933 767.398 956.453L761.284 987.797C760.987 989.317 759.512 990.311 757.992 990.014L726.647 983.9C725.128 983.603 724.134 982.128 724.43 980.608L730.545 949.263C730.841 947.744 732.317 946.75 733.837 947.046Z" fill="#D9E1FB"/>
<path d="M755.585 1002.35L724.241 996.231C722.72 995.934 721.246 996.927 720.949 998.448L705.24 1078.98C704.943 1080.5 705.936 1081.97 707.457 1082.27L738.801 1088.38C740.323 1088.68 741.797 1087.69 742.093 1086.17L757.803 1005.64C758.099 1004.12 757.107 1002.64 755.585 1002.35Z" fill="#D9E1FB"/>
<path d="M826.244 914.013L794.899 907.899C793.378 907.602 791.904 908.595 791.607 910.116L785.493 941.46C785.196 942.982 786.189 944.455 787.71 944.752L819.054 950.867C820.576 951.164 822.049 950.171 822.346 948.65L828.461 917.305C828.757 915.784 827.765 914.31 826.244 914.013Z" fill="#D9E1FB"/>
<path d="M785.303 957.085L816.648 963.2C818.168 963.496 819.161 964.972 818.865 966.492L812.75 997.836C812.454 999.356 810.978 1000.35 809.459 1000.05L778.114 993.939C776.594 993.642 775.6 992.167 775.897 990.647L782.011 959.302C782.308 957.783 783.784 956.789 785.303 957.085Z" fill="#D9E1FB"/>
<path d="M775.71 1006.27L807.054 1012.39C808.574 1012.68 809.568 1014.16 809.271 1015.68L803.157 1047.02C802.86 1048.54 801.385 1049.54 799.865 1049.24L768.52 1043.12C767.001 1042.83 766.007 1041.35 766.303 1039.83L772.418 1008.49C772.714 1006.97 774.19 1005.97 775.71 1006.27Z" fill="#D9E1FB"/>
<path d="M766.114 1055.46L797.458 1061.57C798.978 1061.87 799.972 1063.34 799.676 1064.86L793.561 1096.21C793.265 1097.73 791.789 1098.72 790.269 1098.42L758.925 1092.31C757.405 1092.01 756.411 1090.54 756.707 1089.02L762.822 1057.67C763.118 1056.15 764.594 1055.16 766.114 1055.46Z" fill="#D9E1FB"/>
<mask id="mask0_33_1331" style="mask-type:alpha" maskUnits="userSpaceOnUse" x="12" y="2" width="1041" height="1200">
<rect x="12.001" y="2" width="1040" height="1200" rx="25" fill="#FFC1A1"/>
</mask>
<g mask="url(#mask0_33_1331)">
<path d="M862.159 1214.97C901.838 1194.31 917.251 1145.39 896.584 1105.71C875.917 1066.03 826.996 1050.61 787.317 1071.28C747.638 1091.95 732.226 1140.87 752.893 1180.55C773.559 1220.23 822.48 1235.64 862.159 1214.97Z" fill="#EF6400"/>
<path d="M842.601 1216.28C886.563 1207.97 915.472 1165.61 907.171 1121.65C898.87 1077.68 856.503 1048.77 812.541 1057.08C768.579 1065.38 739.67 1107.74 747.971 1151.71C756.272 1195.67 798.639 1224.58 842.601 1216.28Z" fill="#FA965E"/>
<path d="M855.293 1205.81C836.924 1212.97 816.877 1212.57 798.821 1204.65C780.766 1196.72 766.868 1182.26 759.702 1163.89C752.535 1145.52 752.938 1125.47 760.862 1107.42C768.769 1089.36 783.252 1075.46 801.621 1068.3C819.989 1061.13 840.036 1061.53 858.092 1069.46C876.147 1077.38 890.046 1091.85 897.212 1110.22C904.378 1128.58 903.976 1148.63 896.051 1166.69C888.126 1184.74 873.661 1198.64 855.293 1205.81ZM800.578 1200.62C835.624 1215.98 876.646 1199.98 892.004 1164.93C907.362 1129.89 891.364 1088.86 856.318 1073.51C821.27 1058.11 780.267 1074.13 764.891 1109.17C749.533 1144.22 765.531 1185.24 800.577 1200.6L800.578 1200.62Z" fill="#F45800"/>
</g>
<mask id="mask1_33_1331" style="mask-type:alpha" maskUnits="userSpaceOnUse" x="12" y="2" width="1041" height="1200">
<rect x="12.001" y="2" width="1040" height="1200" rx="25" fill="#E6F0FF"/>
</mask>
<g mask="url(#mask1_33_1331)">
<path d="M130.294 1033.83L136.477 1047.42C136.96 1048.5 137.173 1049.62 137.173 1050.62C137.173 1051.69 136.864 1052.65 136.342 1053.37C136.187 1053.58 135.994 1053.77 135.801 1053.95C135.608 1054.1 135.414 1054.22 135.202 1054.33L-15.9778 1123.1C-16.5575 1123.37 -17.2144 1123.43 -17.8714 1123.3C-19.3399 1123.01 -20.8278 1121.79 -21.7939 1120.01C-21.8325 1119.95 -21.8712 1119.88 -21.9098 1119.8C-21.9485 1119.7 -28.2863 1105.77 -28.3249 1105.67C-29.3877 1103.09 -28.9626 1100.38 -27.3395 1099.28C-27.2042 1099.18 -27.069 1099.11 -26.9144 1099.05L124.246 1030.26C124.459 1030.16 124.69 1030.08 124.922 1030.05C125.174 1030.01 125.444 1029.99 125.715 1030.01C126.584 1030.08 127.512 1030.49 128.323 1031.19C129.096 1031.84 129.792 1032.73 130.275 1033.83L130.294 1033.83Z" fill="#FA965E"/>
<path d="M64.6172 1086.43L-16.383 1123.28C-16.9047 1123.51 -17.4844 1123.55 -18.1027 1123.39C-19.4553 1123.05 -20.8658 1121.79 -21.8126 1120.01C-21.8513 1119.95 -21.8899 1119.88 -21.9286 1119.8C-21.9672 1119.7 -28.305 1105.77 -28.3437 1105.68C-29.4257 1103.09 -29.1359 1100.44 -27.706 1099.43C-27.5901 1099.36 -27.4742 1099.28 -27.3389 1099.22L26.8029 1074.6C28.5033 1076.87 35.3242 1085.43 47.0916 1087.9C55.2264 1089.6 61.7188 1087.57 64.5979 1086.45L64.6172 1086.43Z" fill="#F66919"/>
<path d="M120.467 1061.03L118.743 1061.81L107.798 1037.75L109.522 1036.97L120.467 1061.03Z" fill="#F45800"/>
<path d="M96.9707 1071.71L95.2471 1072.49L84.3022 1048.43L86.0258 1047.64L96.9707 1071.71Z" fill="#F45800"/>
<path d="M68.333 1084.73L66.6094 1085.51L55.6645 1061.45L57.3881 1060.67L68.333 1084.73Z" fill="#F45800"/>
<path d="M52.1037 1092.11L50.3799 1092.89L39.4392 1068.83L41.163 1068.05L52.1037 1092.11Z" fill="#F45800"/>
<path d="M129.648 1056.83L127.925 1057.61L116.98 1033.55L118.704 1032.77L129.648 1056.83Z" fill="#F45800"/>
<path d="M124.941 1030.05L135.801 1053.95C135.608 1054.1 135.414 1054.22 135.202 1054.34L134.12 1054.82L123.183 1030.76L124.265 1030.28C124.478 1030.18 124.71 1030.11 124.941 1030.07L124.941 1030.05Z" fill="#F45800"/>
</g>
<path d="M360.858 208.47V146.24H353.298V167.94H340.978V174.31H353.298V208.47H360.858ZM308.428 147.85V154.22H322.498V161.22C322.498 173.05 316.618 185.79 305.418 195.31L310.808 201.33C318.088 194.68 323.198 187.19 326.348 179.56L340.978 200.28L346.438 194.96L328.798 172.07C329.708 168.36 330.128 164.72 330.128 161.22V154.22H344.128V147.85H308.428ZM422.838 180.82V146.24H415.418V151.77H405.758V157.72H415.418V164.51H405.758V170.39H415.418V180.82H422.838ZM405.198 178.37V172.42H378.808V165.28H402.258V146.8H371.108V152.82H394.768V159.54H371.248V178.37H405.198ZM422.838 207.77V185.02H376.638V207.77H422.838ZM384.128 191.11H415.348V201.54H384.128V191.11ZM450.239 182.71C460.109 182.71 467.179 176.27 467.179 167.52C467.179 163.32 465.009 159.75 461.369 157.37H469.839V151H454.089V143.65H446.389V151H429.939V157.37H439.109C435.469 159.75 433.299 163.32 433.299 167.52C433.299 176.27 440.369 182.71 450.239 182.71ZM482.369 189.57V168.92H491.469V162.41H482.369V146.24H474.809V189.57H482.369ZM450.239 176.27C444.849 176.27 440.719 172.35 440.719 166.82C440.719 161.29 444.849 157.37 450.239 157.37C455.629 157.37 459.759 161.29 459.759 166.82C459.759 172.35 455.629 176.27 450.239 176.27ZM483.489 207.63V200.98H445.829V187.68H438.269V207.63H483.489ZM564.621 208.47V175.78H574.771V169.13H564.621V146.24H557.061V208.47H564.621ZM519.681 201.54C539.631 189.92 547.751 173.61 547.751 154.57V148.06H517.091V154.57H540.191C540.191 171.51 532.351 186.14 515.411 195.03L519.681 201.54ZM630.801 180.82V146.24H623.241V152.47H610.851V146.8H579.211V153.24H603.221C602.731 162.83 592.931 170.74 577.321 173.05L579.141 179.84C595.381 177.32 606.861 169.48 610.011 158.63H623.241V167.31H609.801V173.54H623.241V180.82H630.801ZM630.801 185.02H584.111V191.53H623.241V208.47H630.801V185.02ZM668.631 185.86C681.231 185.86 691.101 177.53 691.101 165.49C691.101 153.45 681.231 145.12 668.631 145.12C656.031 145.12 646.161 153.45 646.161 165.49C646.161 177.53 656.031 185.86 668.631 185.86ZM668.631 179.28C660.371 179.28 654.001 173.54 654.001 165.49C654.001 157.44 660.371 151.7 668.631 151.7C676.891 151.7 683.261 157.44 683.261 165.49C683.261 173.54 676.891 179.28 668.631 179.28ZM698.381 204.06V197.48H638.881V204.06H698.381ZM760.712 205.11V198.6H734.742V185.86H755.252V179.7H715.142V169.27H753.922V146.87H707.372V153.1H746.292V163.11H707.512V185.86H727.182V198.6H701.212V205.11H760.712ZM217.326 306.47V244.24H210.256V306.47H217.326ZM205.356 305.56V244.38H198.566V259.92H190.516V265.94H198.566V275.88H190.516V281.9H198.566V305.56H205.356ZM161.116 297.37H193.246V291.21H186.806V251.87H192.126V245.85H161.256V251.87H166.506V291.21H161.116V297.37ZM180.296 251.87V291.21H173.226V251.87H180.296ZM276.156 306.47V244.24H268.596V306.47H276.156ZM228.696 299.47C248.646 288.13 257.956 270.91 257.956 252.57V246.06H226.176V252.57H250.256C250.256 269.02 241.436 283.93 224.426 292.96L228.696 299.47ZM339.186 265.45V244.31H290.886V265.45H339.186ZM298.516 250.61H331.556V259.71H298.516V250.61ZM339.746 306.19V300.38H298.446V295.83H338.836V280.92H318.816V275.88H344.786V270H285.286V275.88H311.256V280.92H290.746V286.38H331.276V290.65H290.886V306.19H339.746ZM407.298 253.48H393.158V242.84H385.528V253.48H370.338V259.85H385.598V263.07C385.598 275.18 379.088 286.1 368.028 294.22L372.788 300.38C380.138 294.5 385.668 287.64 389.098 280.36L404.078 298.84L409.048 293.38L391.758 273.08C392.598 269.79 393.088 266.43 393.088 263.07V259.85H407.298V253.48ZM423.888 306.47V244.24H416.328V269.58H404.148V275.95H416.328V306.47H423.888ZM484.819 306.47V244.24H477.259V306.47H484.819ZM471.659 297.79V291.35H442.049V273.85H465.919V245.01H434.279V251.24H458.289V267.69H434.419V297.79H471.659ZM532.729 252.5H517.189V242.21H509.559V252.5H493.319V259.01H532.729V252.5ZM545.399 306.47V275.95H554.849V269.51H545.399V244.24H537.979V306.47H545.399ZM513.409 297.37C523.979 297.37 531.259 289.53 531.259 280.71C531.259 271.89 523.979 264.05 513.409 264.05C502.839 264.05 495.559 271.89 495.559 280.71C495.559 289.53 502.839 297.37 513.409 297.37ZM513.409 290.93C507.459 290.93 503.189 286.52 503.189 280.71C503.189 274.9 507.459 270.49 513.409 270.49C519.359 270.49 523.629 274.9 523.629 280.71C523.629 286.52 519.359 290.93 513.409 290.93ZM607.519 282.6V245.22H561.039V251.8H599.749V282.6H607.519ZM615.079 301.5V294.92H584.559V269.72H576.929V294.92H555.579V301.5H615.079ZM691.731 276.79V244.24H684.171V276.79H691.731ZM655.261 244.52V249C655.261 257.19 649.941 265.03 638.251 270.21L642.241 276.65C650.081 272.8 655.611 268.11 658.971 262.79L674.371 275.11L678.781 269.23L661.841 256.7C662.611 254.18 663.031 251.66 663.031 249V244.52H655.261ZM643.781 305.77H692.781V299.68H682.421V286.8H692.291V280.99H644.271V286.8H654.141V299.68H643.781V305.77ZM675.141 286.8V299.68H661.421V286.8H675.141ZM730.962 283.86C743.562 283.86 753.432 275.53 753.432 263.49C753.432 251.45 743.562 243.12 730.962 243.12C718.362 243.12 708.492 251.45 708.492 263.49C708.492 275.53 718.362 283.86 730.962 283.86ZM730.962 277.28C722.702 277.28 716.332 271.54 716.332 263.49C716.332 255.44 722.702 249.7 730.962 249.7C739.222 249.7 745.592 255.44 745.592 263.49C745.592 271.54 739.222 277.28 730.962 277.28ZM760.712 302.06V295.48H701.212V302.06H760.712ZM816.392 287.57V244.24H808.832V287.57H816.392ZM779.922 244.52V250.33C779.922 259.01 773.552 268.25 762.842 273.99L767.322 280.36C774.672 276.09 780.132 270.7 783.562 264.89L798.542 279.1L803.512 273.29L786.432 258.45C787.272 255.79 787.692 253.06 787.692 250.33V244.52H779.922ZM817.512 305.63V298.98H778.382V284.7H770.542V305.63H817.512ZM860.074 244.52H852.444V270.07H900.744V244.52H893.114V250.96H860.074V244.52ZM860.074 263.98V257.12H893.114V263.98H860.074ZM846.844 282.46H873.864V292.75H881.424V282.46H906.344V276.09H846.844V282.46ZM900.954 305.63V299.12H860.494V288.13H852.794V305.63H900.954Z" fill="#333333"/>
<path d="M360.858 208.47V209.47H361.858V208.47H360.858ZM360.858 146.24H361.858V145.24H360.858V146.24ZM353.298 146.24V145.24H352.298V146.24H353.298ZM353.298 167.94V168.94H354.298V167.94H353.298ZM340.978 167.94V166.94H339.978V167.94H340.978ZM340.978 174.31H339.978V175.31H340.978V174.31ZM353.298 174.31H354.298V173.31H353.298V174.31ZM353.298 208.47H352.298V209.47H353.298V208.47ZM308.428 147.85V146.85H307.428V147.85H308.428ZM308.428 154.22H307.428V155.22H308.428V154.22ZM322.498 154.22H323.498V153.22H322.498V154.22ZM305.418 195.31L304.771 194.548L303.989 195.213L304.673 195.977L305.418 195.31ZM310.808 201.33L310.063 201.997L310.737 202.75L311.483 202.068L310.808 201.33ZM326.348 179.56L327.165 178.983L326.117 177.499L325.424 179.178L326.348 179.56ZM340.978 200.28L340.162 200.857L340.837 201.814L341.676 200.996L340.978 200.28ZM346.438 194.96L347.136 195.676L347.774 195.055L347.23 194.35L346.438 194.96ZM328.798 172.07L327.827 171.832L327.713 172.299L328.006 172.68L328.798 172.07ZM330.128 154.22V153.22H329.128V154.22H330.128ZM344.128 154.22V155.22H345.128V154.22H344.128ZM344.128 147.85H345.128V146.85H344.128V147.85ZM361.858 208.47V146.24H359.858V208.47H361.858ZM360.858 145.24H353.298V147.24H360.858V145.24ZM352.298 146.24V167.94H354.298V146.24H352.298ZM353.298 166.94H340.978V168.94H353.298V166.94ZM339.978 167.94V174.31H341.978V167.94H339.978ZM340.978 175.31H353.298V173.31H340.978V175.31ZM352.298 174.31V208.47H354.298V174.31H352.298ZM353.298 209.47H360.858V207.47H353.298V209.47ZM307.428 147.85V154.22H309.428V147.85H307.428ZM308.428 155.22H322.498V153.22H308.428V155.22ZM321.498 154.22V161.22H323.498V154.22H321.498ZM321.498 161.22C321.498 172.724 315.773 185.196 304.771 194.548L306.066 196.072C317.464 186.384 323.498 173.376 323.498 161.22H321.498ZM304.673 195.977L310.063 201.997L311.553 200.663L306.163 194.643L304.673 195.977ZM311.483 202.068C318.868 195.322 324.065 187.712 327.273 179.942L325.424 179.178C322.332 186.668 317.309 194.038 310.134 200.592L311.483 202.068ZM325.532 180.137L340.162 200.857L341.795 199.703L327.165 178.983L325.532 180.137ZM341.676 200.996L347.136 195.676L345.741 194.244L340.281 199.564L341.676 200.996ZM347.23 194.35L329.59 171.46L328.006 172.68L345.646 195.57L347.23 194.35ZM329.77 172.308C330.699 168.52 331.128 164.8 331.128 161.22H329.128C329.128 164.64 328.718 168.2 327.827 171.832L329.77 172.308ZM331.128 161.22V154.22H329.128V161.22H331.128ZM330.128 155.22H344.128V153.22H330.128V155.22ZM345.128 154.22V147.85H343.128V154.22H345.128ZM344.128 146.85H308.428V148.85H344.128V146.85ZM422.838 180.82V181.82H423.838V180.82H422.838ZM422.838 146.24H423.838V145.24H422.838V146.24ZM415.418 146.24V145.24H414.418V146.24H415.418ZM415.418 151.77V152.77H416.418V151.77H415.418ZM405.758 151.77V150.77H404.758V151.77H405.758ZM405.758 157.72H404.758V158.72H405.758V157.72ZM415.418 157.72H416.418V156.72H415.418V157.72ZM415.418 164.51V165.51H416.418V164.51H415.418ZM405.758 164.51V163.51H404.758V164.51H405.758ZM405.758 170.39H404.758V171.39H405.758V170.39ZM415.418 170.39H416.418V169.39H415.418V170.39ZM415.418 180.82H414.418V181.82H415.418V180.82ZM405.198 178.37V179.37H406.198V178.37H405.198ZM405.198 172.42H406.198V171.42H405.198V172.42ZM378.808 172.42H377.808V173.42H378.808V172.42ZM378.808 165.28V164.28H377.808V165.28H378.808ZM402.258 165.28V166.28H403.258V165.28H402.258ZM402.258 146.8H403.258V145.8H402.258V146.8ZM371.108 146.8V145.8H370.108V146.8H371.108ZM371.108 152.82H370.108V153.82H371.108V152.82ZM394.768 152.82H395.768V151.82H394.768V152.82ZM394.768 159.54V160.54H395.768V159.54H394.768ZM371.248 159.54V158.54H370.248V159.54H371.248ZM371.248 178.37H370.248V179.37H371.248V178.37ZM422.838 207.77V208.77H423.838V207.77H422.838ZM422.838 185.02H423.838V184.02H422.838V185.02ZM376.638 185.02V184.02H375.638V185.02H376.638ZM376.638 207.77H375.638V208.77H376.638V207.77ZM384.128 191.11V190.11H383.128V191.11H384.128ZM415.348 191.11H416.348V190.11H415.348V191.11ZM415.348 201.54V202.54H416.348V201.54H415.348ZM384.128 201.54H383.128V202.54H384.128V201.54ZM423.838 180.82V146.24H421.838V180.82H423.838ZM422.838 145.24H415.418V147.24H422.838V145.24ZM414.418 146.24V151.77H416.418V146.24H414.418ZM415.418 150.77H405.758V152.77H415.418V150.77ZM404.758 151.77V157.72H406.758V151.77H404.758ZM405.758 158.72H415.418V156.72H405.758V158.72ZM414.418 157.72V164.51H416.418V157.72H414.418ZM415.418 163.51H405.758V165.51H415.418V163.51ZM404.758 164.51V170.39H406.758V164.51H404.758ZM405.758 171.39H415.418V169.39H405.758V171.39ZM414.418 170.39V180.82H416.418V170.39H414.418ZM415.418 181.82H422.838V179.82H415.418V181.82ZM406.198 178.37V172.42H404.198V178.37H406.198ZM405.198 171.42H378.808V173.42H405.198V171.42ZM379.808 172.42V165.28H377.808V172.42H379.808ZM378.808 166.28H402.258V164.28H378.808V166.28ZM403.258 165.28V146.8H401.258V165.28H403.258ZM402.258 145.8H371.108V147.8H402.258V145.8ZM370.108 146.8V152.82H372.108V146.8H370.108ZM371.108 153.82H394.768V151.82H371.108V153.82ZM393.768 152.82V159.54H395.768V152.82H393.768ZM394.768 158.54H371.248V160.54H394.768V158.54ZM370.248 159.54V178.37H372.248V159.54H370.248ZM371.248 179.37H405.198V177.37H371.248V179.37ZM423.838 207.77V185.02H421.838V207.77H423.838ZM422.838 184.02H376.638V186.02H422.838V184.02ZM375.638 185.02V207.77H377.638V185.02H375.638ZM376.638 208.77H422.838V206.77H376.638V208.77ZM384.128 192.11H415.348V190.11H384.128V192.11ZM414.348 191.11V201.54H416.348V191.11H414.348ZM415.348 200.54H384.128V202.54H415.348V200.54ZM385.128 201.54V191.11H383.128V201.54H385.128ZM461.369 157.37V156.37H458.012L460.821 158.207L461.369 157.37ZM469.839 157.37V158.37H470.839V157.37H469.839ZM469.839 151H470.839V150H469.839V151ZM454.089 151H453.089V152H454.089V151ZM454.089 143.65H455.089V142.65H454.089V143.65ZM446.389 143.65V142.65H445.389V143.65H446.389ZM446.389 151V152H447.389V151H446.389ZM429.939 151V150H428.939V151H429.939ZM429.939 157.37H428.939V158.37H429.939V157.37ZM439.109 157.37L439.656 158.207L442.465 156.37H439.109V157.37ZM482.369 189.57V190.57H483.369V189.57H482.369ZM482.369 168.92V167.92H481.369V168.92H482.369ZM491.469 168.92V169.92H492.469V168.92H491.469ZM491.469 162.41H492.469V161.41H491.469V162.41ZM482.369 162.41H481.369V163.41H482.369V162.41ZM482.369 146.24H483.369V145.24H482.369V146.24ZM474.809 146.24V145.24H473.809V146.24H474.809ZM474.809 189.57H473.809V190.57H474.809V189.57ZM483.489 207.63V208.63H484.489V207.63H483.489ZM483.489 200.98H484.489V199.98H483.489V200.98ZM445.829 200.98H444.829V201.98H445.829V200.98ZM445.829 187.68H446.829V186.68H445.829V187.68ZM438.269 187.68V186.68H437.269V187.68H438.269ZM438.269 207.63H437.269V208.63H438.269V207.63ZM450.239 183.71C460.56 183.71 468.179 176.918 468.179 167.52H466.179C466.179 175.622 459.657 181.71 450.239 181.71V183.71ZM468.179 167.52C468.179 162.937 465.798 159.071 461.916 156.533L460.821 158.207C464.219 160.429 466.179 163.703 466.179 167.52H468.179ZM461.369 158.37H469.839V156.37H461.369V158.37ZM470.839 157.37V151H468.839V157.37H470.839ZM469.839 150H454.089V152H469.839V150ZM455.089 151V143.65H453.089V151H455.089ZM454.089 142.65H446.389V144.65H454.089V142.65ZM445.389 143.65V151H447.389V143.65H445.389ZM446.389 150H429.939V152H446.389V150ZM428.939 151V157.37H430.939V151H428.939ZM429.939 158.37H439.109V156.37H429.939V158.37ZM438.561 156.533C434.679 159.071 432.299 162.937 432.299 167.52H434.299C434.299 163.703 436.258 160.429 439.656 158.207L438.561 156.533ZM432.299 167.52C432.299 176.918 439.917 183.71 450.239 183.71V181.71C440.82 181.71 434.299 175.622 434.299 167.52H432.299ZM483.369 189.57V168.92H481.369V189.57H483.369ZM482.369 169.92H491.469V167.92H482.369V169.92ZM492.469 168.92V162.41H490.469V168.92H492.469ZM491.469 161.41H482.369V163.41H491.469V161.41ZM483.369 162.41V146.24H481.369V162.41H483.369ZM482.369 145.24H474.809V147.24H482.369V145.24ZM473.809 146.24V189.57H475.809V146.24H473.809ZM474.809 190.57H482.369V188.57H474.809V190.57ZM450.239 175.27C445.381 175.27 441.719 171.778 441.719 166.82H439.719C439.719 172.922 444.316 177.27 450.239 177.27V175.27ZM441.719 166.82C441.719 161.862 445.381 158.37 450.239 158.37V156.37C444.316 156.37 439.719 160.718 439.719 166.82H441.719ZM450.239 158.37C455.096 158.37 458.759 161.862 458.759 166.82H460.759C460.759 160.718 456.161 156.37 450.239 156.37V158.37ZM458.759 166.82C458.759 171.778 455.096 175.27 450.239 175.27V177.27C456.161 177.27 460.759 172.922 460.759 166.82H458.759ZM484.489 207.63V200.98H482.489V207.63H484.489ZM483.489 199.98H445.829V201.98H483.489V199.98ZM446.829 200.98V187.68H444.829V200.98H446.829ZM445.829 186.68H438.269V188.68H445.829V186.68ZM437.269 187.68V207.63H439.269V187.68H437.269ZM438.269 208.63H483.489V206.63H438.269V208.63ZM564.621 208.47V209.47H565.621V208.47H564.621ZM564.621 175.78V174.78H563.621V175.78H564.621ZM574.771 175.78V176.78H575.771V175.78H574.771ZM574.771 169.13H575.771V168.13H574.771V169.13ZM564.621 169.13H563.621V170.13H564.621V169.13ZM564.621 146.24H565.621V145.24H564.621V146.24ZM557.061 146.24V145.24H556.061V146.24H557.061ZM557.061 208.47H556.061V209.47H557.061V208.47ZM519.681 201.54L518.845 202.088L519.365 202.881L520.185 202.404L519.681 201.54ZM547.751 148.06H548.751V147.06H547.751V148.06ZM517.091 148.06V147.06H516.091V148.06H517.091ZM517.091 154.57H516.091V155.57H517.091V154.57ZM540.191 154.57H541.191V153.57H540.191V154.57ZM515.411 195.03L514.947 194.145L513.971 194.657L514.575 195.578L515.411 195.03ZM565.621 208.47V175.78H563.621V208.47H565.621ZM564.621 176.78H574.771V174.78H564.621V176.78ZM575.771 175.78V169.13H573.771V175.78H575.771ZM574.771 168.13H564.621V170.13H574.771V168.13ZM565.621 169.13V146.24H563.621V169.13H565.621ZM564.621 145.24H557.061V147.24H564.621V145.24ZM556.061 146.24V208.47H558.061V146.24H556.061ZM557.061 209.47H564.621V207.47H557.061V209.47ZM520.185 202.404C540.445 190.603 548.751 173.963 548.751 154.57H546.751C546.751 173.257 538.818 189.237 519.178 200.676L520.185 202.404ZM548.751 154.57V148.06H546.751V154.57H548.751ZM547.751 147.06H517.091V149.06H547.751V147.06ZM516.091 148.06V154.57H518.091V148.06H516.091ZM517.091 155.57H540.191V153.57H517.091V155.57ZM539.191 154.57C539.191 171.153 531.545 185.434 514.947 194.145L515.876 195.915C533.158 186.846 541.191 171.867 541.191 154.57H539.191ZM514.575 195.578L518.845 202.088L520.517 200.992L516.247 194.482L514.575 195.578ZM630.801 180.82V181.82H631.801V180.82H630.801ZM630.801 146.24H631.801V145.24H630.801V146.24ZM623.241 146.24V145.24H622.241V146.24H623.241ZM623.241 152.47V153.47H624.241V152.47H623.241ZM610.851 152.47H609.851V153.47H610.851V152.47ZM610.851 146.8H611.851V145.8H610.851V146.8ZM579.211 146.8V145.8H578.211V146.8H579.211ZM579.211 153.24H578.211V154.24H579.211V153.24ZM603.221 153.24L604.22 153.291L604.274 152.24H603.221V153.24ZM577.321 173.05L577.175 172.061L576.065 172.225L576.355 173.309L577.321 173.05ZM579.141 179.84L578.175 180.099L578.408 180.966L579.295 180.828L579.141 179.84ZM610.011 158.63V157.63H609.26L609.051 158.351L610.011 158.63ZM623.241 158.63H624.241V157.63H623.241V158.63ZM623.241 167.31V168.31H624.241V167.31H623.241ZM609.801 167.31V166.31H608.801V167.31H609.801ZM609.801 173.54H608.801V174.54H609.801V173.54ZM623.241 173.54H624.241V172.54H623.241V173.54ZM623.241 180.82H622.241V181.82H623.241V180.82ZM630.801 185.02H631.801V184.02H630.801V185.02ZM584.111 185.02V184.02H583.111V185.02H584.111ZM584.111 191.53H583.111V192.53H584.111V191.53ZM623.241 191.53H624.241V190.53H623.241V191.53ZM623.241 208.47H622.241V209.47H623.241V208.47ZM630.801 208.47V209.47H631.801V208.47H630.801ZM631.801 180.82V146.24H629.801V180.82H631.801ZM630.801 145.24H623.241V147.24H630.801V145.24ZM622.241 146.24V152.47H624.241V146.24H622.241ZM623.241 151.47H610.851V153.47H623.241V151.47ZM611.851 152.47V146.8H609.851V152.47H611.851ZM610.851 145.8H579.211V147.8H610.851V145.8ZM578.211 146.8V153.24H580.211V146.8H578.211ZM579.211 154.24H603.221V152.24H579.211V154.24ZM602.223 153.189C601.771 162.038 592.638 169.772 577.175 172.061L577.468 174.039C593.224 171.708 603.692 163.622 604.22 153.291L602.223 153.189ZM576.355 173.309L578.175 180.099L580.107 179.581L578.287 172.791L576.355 173.309ZM579.295 180.828C595.714 178.28 607.666 170.296 610.972 158.909L609.051 158.351C606.057 168.664 595.048 176.36 578.988 178.852L579.295 180.828ZM610.011 159.63H623.241V157.63H610.011V159.63ZM622.241 158.63V167.31H624.241V158.63H622.241ZM623.241 166.31H609.801V168.31H623.241V166.31ZM608.801 167.31V173.54H610.801V167.31H608.801ZM609.801 174.54H623.241V172.54H609.801V174.54ZM622.241 173.54V180.82H624.241V173.54H622.241ZM623.241 181.82H630.801V179.82H623.241V181.82ZM630.801 184.02H584.111V186.02H630.801V184.02ZM583.111 185.02V191.53H585.111V185.02H583.111ZM584.111 192.53H623.241V190.53H584.111V192.53ZM622.241 191.53V208.47H624.241V191.53H622.241ZM623.241 209.47H630.801V207.47H623.241V209.47ZM631.801 208.47V185.02H629.801V208.47H631.801ZM698.381 204.06V205.06H699.381V204.06H698.381ZM698.381 197.48H699.381V196.48H698.381V197.48ZM638.881 197.48V196.48H637.881V197.48H638.881ZM638.881 204.06H637.881V205.06H638.881V204.06ZM668.631 186.86C681.668 186.86 692.101 178.191 692.101 165.49H690.101C690.101 176.869 680.795 184.86 668.631 184.86V186.86ZM692.101 165.49C692.101 152.789 681.668 144.12 668.631 144.12V146.12C680.795 146.12 690.101 154.111 690.101 165.49H692.101ZM668.631 144.12C655.595 144.12 645.161 152.789 645.161 165.49H647.161C647.161 154.111 656.468 146.12 668.631 146.12V144.12ZM645.161 165.49C645.161 178.191 655.595 186.86 668.631 186.86V184.86C656.468 184.86 647.161 176.869 647.161 165.49H645.161ZM668.631 178.28C660.854 178.28 655.001 172.921 655.001 165.49H653.001C653.001 174.159 659.889 180.28 668.631 180.28V178.28ZM655.001 165.49C655.001 158.059 660.854 152.7 668.631 152.7V150.7C659.889 150.7 653.001 156.821 653.001 165.49H655.001ZM668.631 152.7C676.409 152.7 682.261 158.059 682.261 165.49H684.261C684.261 156.821 677.374 150.7 668.631 150.7V152.7ZM682.261 165.49C682.261 172.921 676.409 178.28 668.631 178.28V180.28C677.374 180.28 684.261 174.159 684.261 165.49H682.261ZM699.381 204.06V197.48H697.381V204.06H699.381ZM698.381 196.48H638.881V198.48H698.381V196.48ZM637.881 197.48V204.06H639.881V197.48H637.881ZM638.881 205.06H698.381V203.06H638.881V205.06ZM760.712 205.11V206.11H761.712V205.11H760.712ZM760.712 198.6H761.712V197.6H760.712V198.6ZM734.742 198.6H733.742V199.6H734.742V198.6ZM734.742 185.86V184.86H733.742V185.86H734.742ZM755.252 185.86V186.86H756.252V185.86H755.252ZM755.252 179.7H756.252V178.7H755.252V179.7ZM715.142 179.7H714.142V180.7H715.142V179.7ZM715.142 169.27V168.27H714.142V169.27H715.142ZM753.922 169.27V170.27H754.922V169.27H753.922ZM753.922 146.87H754.922V145.87H753.922V146.87ZM707.372 146.87V145.87H706.372V146.87H707.372ZM707.372 153.1H706.372V154.1H707.372V153.1ZM746.292 153.1H747.292V152.1H746.292V153.1ZM746.292 163.11V164.11H747.292V163.11H746.292ZM707.512 163.11V162.11H706.512V163.11H707.512ZM707.512 185.86H706.512V186.86H707.512V185.86ZM727.182 185.86H728.182V184.86H727.182V185.86ZM727.182 198.6V199.6H728.182V198.6H727.182ZM701.212 198.6V197.6H700.212V198.6H701.212ZM701.212 205.11H700.212V206.11H701.212V205.11ZM761.712 205.11V198.6H759.712V205.11H761.712ZM760.712 197.6H734.742V199.6H760.712V197.6ZM735.742 198.6V185.86H733.742V198.6H735.742ZM734.742 186.86H755.252V184.86H734.742V186.86ZM756.252 185.86V179.7H754.252V185.86H756.252ZM755.252 178.7H715.142V180.7H755.252V178.7ZM716.142 179.7V169.27H714.142V179.7H716.142ZM715.142 170.27H753.922V168.27H715.142V170.27ZM754.922 169.27V146.87H752.922V169.27H754.922ZM753.922 145.87H707.372V147.87H753.922V145.87ZM706.372 146.87V153.1H708.372V146.87H706.372ZM707.372 154.1H746.292V152.1H707.372V154.1ZM745.292 153.1V163.11H747.292V153.1H745.292ZM746.292 162.11H707.512V164.11H746.292V162.11ZM706.512 163.11V185.86H708.512V163.11H706.512ZM707.512 186.86H727.182V184.86H707.512V186.86ZM726.182 185.86V198.6H728.182V185.86H726.182ZM727.182 197.6H701.212V199.6H727.182V197.6ZM700.212 198.6V205.11H702.212V198.6H700.212ZM701.212 206.11H760.712V204.11H701.212V206.11ZM217.326 306.47V307.47H218.326V306.47H217.326ZM217.326 244.24H218.326V243.24H217.326V244.24ZM210.256 244.24V243.24H209.256V244.24H210.256ZM210.256 306.47H209.256V307.47H210.256V306.47ZM205.356 305.56V306.56H206.356V305.56H205.356ZM205.356 244.38H206.356V243.38H205.356V244.38ZM198.566 244.38V243.38H197.566V244.38H198.566ZM198.566 259.92V260.92H199.566V259.92H198.566ZM190.516 259.92V258.92H189.516V259.92H190.516ZM190.516 265.94H189.516V266.94H190.516V265.94ZM198.566 265.94H199.566V264.94H198.566V265.94ZM198.566 275.88V276.88H199.566V275.88H198.566ZM190.516 275.88V274.88H189.516V275.88H190.516ZM190.516 281.9H189.516V282.9H190.516V281.9ZM198.566 281.9H199.566V280.9H198.566V281.9ZM198.566 305.56H197.566V306.56H198.566V305.56ZM161.116 297.37H160.116V298.37H161.116V297.37ZM193.246 297.37V298.37H194.246V297.37H193.246ZM193.246 291.21H194.246V290.21H193.246V291.21ZM186.806 291.21H185.806V292.21H186.806V291.21ZM186.806 251.87V250.87H185.806V251.87H186.806ZM192.126 251.87V252.87H193.126V251.87H192.126ZM192.126 245.85H193.126V244.85H192.126V245.85ZM161.256 245.85V244.85H160.256V245.85H161.256ZM161.256 251.87H160.256V252.87H161.256V251.87ZM166.506 251.87H167.506V250.87H166.506V251.87ZM166.506 291.21V292.21H167.506V291.21H166.506ZM161.116 291.21V290.21H160.116V291.21H161.116ZM180.296 251.87H181.296V250.87H180.296V251.87ZM180.296 291.21V292.21H181.296V291.21H180.296ZM173.226 291.21H172.226V292.21H173.226V291.21ZM173.226 251.87V250.87H172.226V251.87H173.226ZM218.326 306.47V244.24H216.326V306.47H218.326ZM217.326 243.24H210.256V245.24H217.326V243.24ZM209.256 244.24V306.47H211.256V244.24H209.256ZM210.256 307.47H217.326V305.47H210.256V307.47ZM206.356 305.56V244.38H204.356V305.56H206.356ZM205.356 243.38H198.566V245.38H205.356V243.38ZM197.566 244.38V259.92H199.566V244.38H197.566ZM198.566 258.92H190.516V260.92H198.566V258.92ZM189.516 259.92V265.94H191.516V259.92H189.516ZM190.516 266.94H198.566V264.94H190.516V266.94ZM197.566 265.94V275.88H199.566V265.94H197.566ZM198.566 274.88H190.516V276.88H198.566V274.88ZM189.516 275.88V281.9H191.516V275.88H189.516ZM190.516 282.9H198.566V280.9H190.516V282.9ZM197.566 281.9V305.56H199.566V281.9H197.566ZM198.566 306.56H205.356V304.56H198.566V306.56ZM161.116 298.37H193.246V296.37H161.116V298.37ZM194.246 297.37V291.21H192.246V297.37H194.246ZM193.246 290.21H186.806V292.21H193.246V290.21ZM187.806 291.21V251.87H185.806V291.21H187.806ZM186.806 252.87H192.126V250.87H186.806V252.87ZM193.126 251.87V245.85H191.126V251.87H193.126ZM192.126 244.85H161.256V246.85H192.126V244.85ZM160.256 245.85V251.87H162.256V245.85H160.256ZM161.256 252.87H166.506V250.87H161.256V252.87ZM165.506 251.87V291.21H167.506V251.87H165.506ZM166.506 290.21H161.116V292.21H166.506V290.21ZM160.116 291.21V297.37H162.116V291.21H160.116ZM179.296 251.87V291.21H181.296V251.87H179.296ZM180.296 290.21H173.226V292.21H180.296V290.21ZM174.226 291.21V251.87H172.226V291.21H174.226ZM173.226 252.87H180.296V250.87H173.226V252.87ZM276.156 306.47V307.47H277.156V306.47H276.156ZM276.156 244.24H277.156V243.24H276.156V244.24ZM268.596 244.24V243.24H267.596V244.24H268.596ZM268.596 306.47H267.596V307.47H268.596V306.47ZM228.696 299.47L227.859 300.018L228.374 300.803L229.19 300.339L228.696 299.47ZM257.956 246.06H258.956V245.06H257.956V246.06ZM226.176 246.06V245.06H225.176V246.06H226.176ZM226.176 252.57H225.176V253.57H226.176V252.57ZM250.256 252.57H251.256V251.57H250.256V252.57ZM224.426 292.96L223.957 292.077L222.988 292.591L223.589 293.508L224.426 292.96ZM277.156 306.47V244.24H275.156V306.47H277.156ZM276.156 243.24H268.596V245.24H276.156V243.24ZM267.596 244.24V306.47H269.596V244.24H267.596ZM268.596 307.47H276.156V305.47H268.596V307.47ZM229.19 300.339C249.433 288.833 258.956 271.292 258.956 252.57H256.956C256.956 270.528 247.859 287.427 228.201 298.601L229.19 300.339ZM258.956 252.57V246.06H256.956V252.57H258.956ZM257.956 245.06H226.176V247.06H257.956V245.06ZM225.176 246.06V252.57H227.176V246.06H225.176ZM226.176 253.57H250.256V251.57H226.176V253.57ZM249.256 252.57C249.256 268.622 240.666 283.207 223.957 292.077L224.895 293.843C242.206 284.653 251.256 269.418 251.256 252.57H249.256ZM223.589 293.508L227.859 300.018L229.532 298.922L225.262 292.412L223.589 293.508ZM339.186 265.45V266.45H340.186V265.45H339.186ZM339.186 244.31H340.186V243.31H339.186V244.31ZM290.886 244.31V243.31H289.886V244.31H290.886ZM290.886 265.45H289.886V266.45H290.886V265.45ZM298.516 250.61V249.61H297.516V250.61H298.516ZM331.556 250.61H332.556V249.61H331.556V250.61ZM331.556 259.71V260.71H332.556V259.71H331.556ZM298.516 259.71H297.516V260.71H298.516V259.71ZM339.746 306.19V307.19H340.746V306.19H339.746ZM339.746 300.38H340.746V299.38H339.746V300.38ZM298.446 300.38H297.446V301.38H298.446V300.38ZM298.446 295.83V294.83H297.446V295.83H298.446ZM338.836 295.83V296.83H339.836V295.83H338.836ZM338.836 280.92H339.836V279.92H338.836V280.92ZM318.816 280.92H317.816V281.92H318.816V280.92ZM318.816 275.88V274.88H317.816V275.88H318.816ZM344.786 275.88V276.88H345.786V275.88H344.786ZM344.786 270H345.786V269H344.786V270ZM285.286 270V269H284.286V270H285.286ZM285.286 275.88H284.286V276.88H285.286V275.88ZM311.256 275.88H312.256V274.88H311.256V275.88ZM311.256 280.92V281.92H312.256V280.92H311.256ZM290.746 280.92V279.92H289.746V280.92H290.746ZM290.746 286.38H289.746V287.38H290.746V286.38ZM331.276 286.38H332.276V285.38H331.276V286.38ZM331.276 290.65V291.65H332.276V290.65H331.276ZM290.886 290.65V289.65H289.886V290.65H290.886ZM290.886 306.19H289.886V307.19H290.886V306.19ZM340.186 265.45V244.31H338.186V265.45H340.186ZM339.186 243.31H290.886V245.31H339.186V243.31ZM289.886 244.31V265.45H291.886V244.31H289.886ZM290.886 266.45H339.186V264.45H290.886V266.45ZM298.516 251.61H331.556V249.61H298.516V251.61ZM330.556 250.61V259.71H332.556V250.61H330.556ZM331.556 258.71H298.516V260.71H331.556V258.71ZM299.516 259.71V250.61H297.516V259.71H299.516ZM340.746 306.19V300.38H338.746V306.19H340.746ZM339.746 299.38H298.446V301.38H339.746V299.38ZM299.446 300.38V295.83H297.446V300.38H299.446ZM298.446 296.83H338.836V294.83H298.446V296.83ZM339.836 295.83V280.92H337.836V295.83H339.836ZM338.836 279.92H318.816V281.92H338.836V279.92ZM319.816 280.92V275.88H317.816V280.92H319.816ZM318.816 276.88H344.786V274.88H318.816V276.88ZM345.786 275.88V270H343.786V275.88H345.786ZM344.786 269H285.286V271H344.786V269ZM284.286 270V275.88H286.286V270H284.286ZM285.286 276.88H311.256V274.88H285.286V276.88ZM310.256 275.88V280.92H312.256V275.88H310.256ZM311.256 279.92H290.746V281.92H311.256V279.92ZM289.746 280.92V286.38H291.746V280.92H289.746ZM290.746 287.38H331.276V285.38H290.746V287.38ZM330.276 286.38V290.65H332.276V286.38H330.276ZM331.276 289.65H290.886V291.65H331.276V289.65ZM289.886 290.65V306.19H291.886V290.65H289.886ZM290.886 307.19H339.746V305.19H290.886V307.19ZM407.298 253.48H408.298V252.48H407.298V253.48ZM393.158 253.48H392.158V254.48H393.158V253.48ZM393.158 242.84H394.158V241.84H393.158V242.84ZM385.528 242.84V241.84H384.528V242.84H385.528ZM385.528 253.48V254.48H386.528V253.48H385.528ZM370.338 253.48V252.48H369.338V253.48H370.338ZM370.338 259.85H369.338V260.85H370.338V259.85ZM385.598 259.85H386.598V258.85H385.598V259.85ZM368.028 294.22L367.437 293.414L366.611 294.02L367.237 294.831L368.028 294.22ZM372.788 300.38L371.997 300.991L372.619 301.796L373.413 301.161L372.788 300.38ZM389.098 280.36L389.875 279.73L388.873 278.493L388.194 279.934L389.098 280.36ZM404.078 298.84L403.302 299.47L404.035 300.374L404.818 299.513L404.078 298.84ZM409.048 293.38L409.788 294.053L410.381 293.402L409.81 292.732L409.048 293.38ZM391.758 273.08L390.79 272.833L390.661 273.334L390.997 273.728L391.758 273.08ZM393.088 259.85V258.85H392.088V259.85H393.088ZM407.298 259.85V260.85H408.298V259.85H407.298ZM423.888 306.47V307.47H424.888V306.47H423.888ZM423.888 244.24H424.888V243.24H423.888V244.24ZM416.328 244.24V243.24H415.328V244.24H416.328ZM416.328 269.58V270.58H417.328V269.58H416.328ZM404.148 269.58V268.58H403.148V269.58H404.148ZM404.148 275.95H403.148V276.95H404.148V275.95ZM416.328 275.95H417.328V274.95H416.328V275.95ZM416.328 306.47H415.328V307.47H416.328V306.47ZM407.298 252.48H393.158V254.48H407.298V252.48ZM394.158 253.48V242.84H392.158V253.48H394.158ZM393.158 241.84H385.528V243.84H393.158V241.84ZM384.528 242.84V253.48H386.528V242.84H384.528ZM385.528 252.48H370.338V254.48H385.528V252.48ZM369.338 253.48V259.85H371.338V253.48H369.338ZM370.338 260.85H385.598V258.85H370.338V260.85ZM384.598 259.85V263.07H386.598V259.85H384.598ZM384.598 263.07C384.598 274.789 378.305 285.435 367.437 293.414L368.62 295.026C379.872 286.765 386.598 275.571 386.598 263.07H384.598ZM367.237 294.831L371.997 300.991L373.58 299.769L368.82 293.609L367.237 294.831ZM373.413 301.161C380.867 295.198 386.5 288.221 390.003 280.786L388.194 279.934C384.837 287.059 379.41 293.802 372.164 299.599L373.413 301.161ZM388.322 280.99L403.302 299.47L404.855 298.21L389.875 279.73L388.322 280.99ZM404.818 299.513L409.788 294.053L408.309 292.707L403.339 298.167L404.818 299.513ZM409.81 292.732L392.52 272.432L390.997 273.728L408.287 294.028L409.81 292.732ZM392.727 273.327C393.584 269.971 394.088 266.527 394.088 263.07H392.088C392.088 266.333 391.612 269.609 390.79 272.833L392.727 273.327ZM394.088 263.07V259.85H392.088V263.07H394.088ZM393.088 260.85H407.298V258.85H393.088V260.85ZM408.298 259.85V253.48H406.298V259.85H408.298ZM424.888 306.47V244.24H422.888V306.47H424.888ZM423.888 243.24H416.328V245.24H423.888V243.24ZM415.328 244.24V269.58H417.328V244.24H415.328ZM416.328 268.58H404.148V270.58H416.328V268.58ZM403.148 269.58V275.95H405.148V269.58H403.148ZM404.148 276.95H416.328V274.95H404.148V276.95ZM415.328 275.95V306.47H417.328V275.95H415.328ZM416.328 307.47H423.888V305.47H416.328V307.47ZM484.819 306.47V307.47H485.819V306.47H484.819ZM484.819 244.24H485.819V243.24H484.819V244.24ZM477.259 244.24V243.24H476.259V244.24H477.259ZM477.259 306.47H476.259V307.47H477.259V306.47ZM471.659 297.79V298.79H472.659V297.79H471.659ZM471.659 291.35H472.659V290.35H471.659V291.35ZM442.049 291.35H441.049V292.35H442.049V291.35ZM442.049 273.85V272.85H441.049V273.85H442.049ZM465.919 273.85V274.85H466.919V273.85H465.919ZM465.919 245.01H466.919V244.01H465.919V245.01ZM434.279 245.01V244.01H433.279V245.01H434.279ZM434.279 251.24H433.279V252.24H434.279V251.24ZM458.289 251.24H459.289V250.24H458.289V251.24ZM458.289 267.69V268.69H459.289V267.69H458.289ZM434.419 267.69V266.69H433.419V267.69H434.419ZM434.419 297.79H433.419V298.79H434.419V297.79ZM485.819 306.47V244.24H483.819V306.47H485.819ZM484.819 243.24H477.259V245.24H484.819V243.24ZM476.259 244.24V306.47H478.259V244.24H476.259ZM477.259 307.47H484.819V305.47H477.259V307.47ZM472.659 297.79V291.35H470.659V297.79H472.659ZM471.659 290.35H442.049V292.35H471.659V290.35ZM443.049 291.35V273.85H441.049V291.35H443.049ZM442.049 274.85H465.919V272.85H442.049V274.85ZM466.919 273.85V245.01H464.919V273.85H466.919ZM465.919 244.01H434.279V246.01H465.919V244.01ZM433.279 245.01V251.24H435.279V245.01H433.279ZM434.279 252.24H458.289V250.24H434.279V252.24ZM457.289 251.24V267.69H459.289V251.24H457.289ZM458.289 266.69H434.419V268.69H458.289V266.69ZM433.419 267.69V297.79H435.419V267.69H433.419ZM434.419 298.79H471.659V296.79H434.419V298.79ZM532.729 252.5H533.729V251.5H532.729V252.5ZM517.189 252.5H516.189V253.5H517.189V252.5ZM517.189 242.21H518.189V241.21H517.189V242.21ZM509.559 242.21V241.21H508.559V242.21H509.559ZM509.559 252.5V253.5H510.559V252.5H509.559ZM493.319 252.5V251.5H492.319V252.5H493.319ZM493.319 259.01H492.319V260.01H493.319V259.01ZM532.729 259.01V260.01H533.729V259.01H532.729ZM545.399 306.47V307.47H546.399V306.47H545.399ZM545.399 275.95V274.95H544.399V275.95H545.399ZM554.849 275.95V276.95H555.849V275.95H554.849ZM554.849 269.51H555.849V268.51H554.849V269.51ZM545.399 269.51H544.399V270.51H545.399V269.51ZM545.399 244.24H546.399V243.24H545.399V244.24ZM537.979 244.24V243.24H536.979V244.24H537.979ZM537.979 306.47H536.979V307.47H537.979V306.47ZM532.729 251.5H517.189V253.5H532.729V251.5ZM518.189 252.5V242.21H516.189V252.5H518.189ZM517.189 241.21H509.559V243.21H517.189V241.21ZM508.559 242.21V252.5H510.559V242.21H508.559ZM509.559 251.5H493.319V253.5H509.559V251.5ZM492.319 252.5V259.01H494.319V252.5H492.319ZM493.319 260.01H532.729V258.01H493.319V260.01ZM533.729 259.01V252.5H531.729V259.01H533.729ZM546.399 306.47V275.95H544.399V306.47H546.399ZM545.399 276.95H554.849V274.95H545.399V276.95ZM555.849 275.95V269.51H553.849V275.95H555.849ZM554.849 268.51H545.399V270.51H554.849V268.51ZM546.399 269.51V244.24H544.399V269.51H546.399ZM545.399 243.24H537.979V245.24H545.399V243.24ZM536.979 244.24V306.47H538.979V244.24H536.979ZM537.979 307.47H545.399V305.47H537.979V307.47ZM513.409 298.37C524.507 298.37 532.259 290.106 532.259 280.71H530.259C530.259 288.954 523.45 296.37 513.409 296.37V298.37ZM532.259 280.71C532.259 271.314 524.507 263.05 513.409 263.05V265.05C523.45 265.05 530.259 272.466 530.259 280.71H532.259ZM513.409 263.05C502.31 263.05 494.559 271.314 494.559 280.71H496.559C496.559 272.466 503.367 265.05 513.409 265.05V263.05ZM494.559 280.71C494.559 290.106 502.31 298.37 513.409 298.37V296.37C503.367 296.37 496.559 288.954 496.559 280.71H494.559ZM513.409 289.93C508.02 289.93 504.189 285.977 504.189 280.71H502.189C502.189 287.063 506.897 291.93 513.409 291.93V289.93ZM504.189 280.71C504.189 275.443 508.02 271.49 513.409 271.49V269.49C506.897 269.49 502.189 274.357 502.189 280.71H504.189ZM513.409 271.49C518.797 271.49 522.629 275.443 522.629 280.71H524.629C524.629 274.357 519.92 269.49 513.409 269.49V271.49ZM522.629 280.71C522.629 285.977 518.797 289.93 513.409 289.93V291.93C519.92 291.93 524.629 287.063 524.629 280.71H522.629ZM607.519 282.6V283.6H608.519V282.6H607.519ZM607.519 245.22H608.519V244.22H607.519V245.22ZM561.039 245.22V244.22H560.039V245.22H561.039ZM561.039 251.8H560.039V252.8H561.039V251.8ZM599.749 251.8H600.749V250.8H599.749V251.8ZM599.749 282.6H598.749V283.6H599.749V282.6ZM615.079 301.5V302.5H616.079V301.5H615.079ZM615.079 294.92H616.079V293.92H615.079V294.92ZM584.559 294.92H583.559V295.92H584.559V294.92ZM584.559 269.72H585.559V268.72H584.559V269.72ZM576.929 269.72V268.72H575.929V269.72H576.929ZM576.929 294.92V295.92H577.929V294.92H576.929ZM555.579 294.92V293.92H554.579V294.92H555.579ZM555.579 301.5H554.579V302.5H555.579V301.5ZM608.519 282.6V245.22H606.519V282.6H608.519ZM607.519 244.22H561.039V246.22H607.519V244.22ZM560.039 245.22V251.8H562.039V245.22H560.039ZM561.039 252.8H599.749V250.8H561.039V252.8ZM598.749 251.8V282.6H600.749V251.8H598.749ZM599.749 283.6H607.519V281.6H599.749V283.6ZM616.079 301.5V294.92H614.079V301.5H616.079ZM615.079 293.92H584.559V295.92H615.079V293.92ZM585.559 294.92V269.72H583.559V294.92H585.559ZM584.559 268.72H576.929V270.72H584.559V268.72ZM575.929 269.72V294.92H577.929V269.72H575.929ZM576.929 293.92H555.579V295.92H576.929V293.92ZM554.579 294.92V301.5H556.579V294.92H554.579ZM555.579 302.5H615.079V300.5H555.579V302.5ZM691.731 276.79V277.79H692.731V276.79H691.731ZM691.731 244.24H692.731V243.24H691.731V244.24ZM684.171 244.24V243.24H683.171V244.24H684.171ZM684.171 276.79H683.171V277.79H684.171V276.79ZM655.261 244.52V243.52H654.261V244.52H655.261ZM638.251 270.21L637.846 269.296L636.797 269.761L637.401 270.737L638.251 270.21ZM642.241 276.65L641.391 277.177L641.869 277.947L642.682 277.548L642.241 276.65ZM658.971 262.79L659.596 262.009L658.723 261.311L658.126 262.256L658.971 262.79ZM674.371 275.11L673.747 275.891L674.552 276.535L675.171 275.71L674.371 275.11ZM678.781 269.23L679.581 269.83L680.185 269.025L679.376 268.426L678.781 269.23ZM661.841 256.7L660.885 256.408L660.679 257.084L661.247 257.504L661.841 256.7ZM663.031 244.52H664.031V243.52H663.031V244.52ZM643.781 305.77H642.781V306.77H643.781V305.77ZM692.781 305.77V306.77H693.781V305.77H692.781ZM692.781 299.68H693.781V298.68H692.781V299.68ZM682.421 299.68H681.421V300.68H682.421V299.68ZM682.421 286.8V285.8H681.421V286.8H682.421ZM692.291 286.8V287.8H693.291V286.8H692.291ZM692.291 280.99H693.291V279.99H692.291V280.99ZM644.271 280.99V279.99H643.271V280.99H644.271ZM644.271 286.8H643.271V287.8H644.271V286.8ZM654.141 286.8H655.141V285.8H654.141V286.8ZM654.141 299.68V300.68H655.141V299.68H654.141ZM643.781 299.68V298.68H642.781V299.68H643.781ZM675.141 286.8H676.141V285.8H675.141V286.8ZM675.141 299.68V300.68H676.141V299.68H675.141ZM661.421 299.68H660.421V300.68H661.421V299.68ZM661.421 286.8V285.8H660.421V286.8H661.421ZM692.731 276.79V244.24H690.731V276.79H692.731ZM691.731 243.24H684.171V245.24H691.731V243.24ZM683.171 244.24V276.79H685.171V244.24H683.171ZM684.171 277.79H691.731V275.79H684.171V277.79ZM654.261 244.52V249H656.261V244.52H654.261ZM654.261 249C654.261 256.677 649.296 264.222 637.846 269.296L638.657 271.124C650.587 265.838 656.261 257.703 656.261 249H654.261ZM637.401 270.737L641.391 277.177L643.092 276.123L639.102 269.683L637.401 270.737ZM642.682 277.548C650.639 273.64 656.332 268.841 659.817 263.324L658.126 262.256C654.89 267.379 649.524 271.96 641.801 275.752L642.682 277.548ZM658.347 263.571L673.747 275.891L674.996 274.329L659.596 262.009L658.347 263.571ZM675.171 275.71L679.581 269.83L677.981 268.63L673.571 274.51L675.171 275.71ZM679.376 268.426L662.436 255.896L661.247 257.504L678.187 270.034L679.376 268.426ZM662.798 256.992C663.594 254.388 664.031 251.769 664.031 249H662.031C662.031 251.55 661.629 253.972 660.885 256.408L662.798 256.992ZM664.031 249V244.52H662.031V249H664.031ZM663.031 243.52H655.261V245.52H663.031V243.52ZM643.781 306.77H692.781V304.77H643.781V306.77ZM693.781 305.77V299.68H691.781V305.77H693.781ZM692.781 298.68H682.421V300.68H692.781V298.68ZM683.421 299.68V286.8H681.421V299.68H683.421ZM682.421 287.8H692.291V285.8H682.421V287.8ZM693.291 286.8V280.99H691.291V286.8H693.291ZM692.291 279.99H644.271V281.99H692.291V279.99ZM643.271 280.99V286.8H645.271V280.99H643.271ZM644.271 287.8H654.141V285.8H644.271V287.8ZM653.141 286.8V299.68H655.141V286.8H653.141ZM654.141 298.68H643.781V300.68H654.141V298.68ZM642.781 299.68V305.77H644.781V299.68H642.781ZM674.141 286.8V299.68H676.141V286.8H674.141ZM675.141 298.68H661.421V300.68H675.141V298.68ZM662.421 299.68V286.8H660.421V299.68H662.421ZM661.421 287.8H675.141V285.8H661.421V287.8ZM760.712 302.06V303.06H761.712V302.06H760.712ZM760.712 295.48H761.712V294.48H760.712V295.48ZM701.212 295.48V294.48H700.212V295.48H701.212ZM701.212 302.06H700.212V303.06H701.212V302.06ZM730.962 284.86C743.998 284.86 754.432 276.191 754.432 263.49H752.432C752.432 274.869 743.125 282.86 730.962 282.86V284.86ZM754.432 263.49C754.432 250.789 743.998 242.12 730.962 242.12V244.12C743.125 244.12 752.432 252.111 752.432 263.49H754.432ZM730.962 242.12C717.925 242.12 707.492 250.789 707.492 263.49H709.492C709.492 252.111 718.798 244.12 730.962 244.12V242.12ZM707.492 263.49C707.492 276.191 717.925 284.86 730.962 284.86V282.86C718.798 282.86 709.492 274.869 709.492 263.49H707.492ZM730.962 276.28C723.184 276.28 717.332 270.921 717.332 263.49H715.332C715.332 272.159 722.219 278.28 730.962 278.28V276.28ZM717.332 263.49C717.332 256.059 723.184 250.7 730.962 250.7V248.7C722.219 248.7 715.332 254.821 715.332 263.49H717.332ZM730.962 250.7C738.739 250.7 744.592 256.059 744.592 263.49H746.592C746.592 254.821 739.704 248.7 730.962 248.7V250.7ZM744.592 263.49C744.592 270.921 738.739 276.28 730.962 276.28V278.28C739.704 278.28 746.592 272.159 746.592 263.49H744.592ZM761.712 302.06V295.48H759.712V302.06H761.712ZM760.712 294.48H701.212V296.48H760.712V294.48ZM700.212 295.48V302.06H702.212V295.48H700.212ZM701.212 303.06H760.712V301.06H701.212V303.06ZM816.392 287.57V288.57H817.392V287.57H816.392ZM816.392 244.24H817.392V243.24H816.392V244.24ZM808.832 244.24V243.24H807.832V244.24H808.832ZM808.832 287.57H807.832V288.57H808.832V287.57ZM779.922 244.52V243.52H778.922V244.52H779.922ZM762.842 273.99L762.369 273.109L761.374 273.642L762.024 274.565L762.842 273.99ZM767.322 280.36L766.504 280.935L767.031 281.685L767.824 281.225L767.322 280.36ZM783.562 264.89L784.25 264.164L783.339 263.3L782.701 264.382L783.562 264.89ZM798.542 279.1L797.853 279.826L798.617 280.55L799.302 279.75L798.542 279.1ZM803.512 273.29L804.271 273.94L804.917 273.186L804.167 272.535L803.512 273.29ZM786.432 258.45L785.478 258.149L785.28 258.775L785.776 259.205L786.432 258.45ZM787.692 244.52H788.692V243.52H787.692V244.52ZM817.512 305.63V306.63H818.512V305.63H817.512ZM817.512 298.98H818.512V297.98H817.512V298.98ZM778.382 298.98H777.382V299.98H778.382V298.98ZM778.382 284.7H779.382V283.7H778.382V284.7ZM770.542 284.7V283.7H769.542V284.7H770.542ZM770.542 305.63H769.542V306.63H770.542V305.63ZM817.392 287.57V244.24H815.392V287.57H817.392ZM816.392 243.24H808.832V245.24H816.392V243.24ZM807.832 244.24V287.57H809.832V244.24H807.832ZM808.832 288.57H816.392V286.57H808.832V288.57ZM778.922 244.52V250.33H780.922V244.52H778.922ZM778.922 250.33C778.922 258.526 772.871 267.48 762.369 273.109L763.314 274.871C774.232 269.02 780.922 259.494 780.922 250.33H778.922ZM762.024 274.565L766.504 280.935L768.14 279.785L763.66 273.415L762.024 274.565ZM767.824 281.225C775.302 276.88 780.895 271.375 784.423 265.398L782.701 264.382C779.369 270.025 774.041 275.3 766.819 279.495L767.824 281.225ZM782.873 265.616L797.853 279.826L799.23 278.374L784.25 264.164L782.873 265.616ZM799.302 279.75L804.271 273.94L802.752 272.64L797.782 278.45L799.302 279.75ZM804.167 272.535L787.087 257.695L785.776 259.205L802.856 274.045L804.167 272.535ZM787.385 258.751C788.256 255.995 788.692 253.163 788.692 250.33H786.692C786.692 252.957 786.288 255.585 785.478 258.149L787.385 258.751ZM788.692 250.33V244.52H786.692V250.33H788.692ZM787.692 243.52H779.922V245.52H787.692V243.52ZM818.512 305.63V298.98H816.512V305.63H818.512ZM817.512 297.98H778.382V299.98H817.512V297.98ZM779.382 298.98V284.7H777.382V298.98H779.382ZM778.382 283.7H770.542V285.7H778.382V283.7ZM769.542 284.7V305.63H771.542V284.7H769.542ZM770.542 306.63H817.512V304.63H770.542V306.63ZM860.074 244.52H861.074V243.52H860.074V244.52ZM852.444 244.52V243.52H851.444V244.52H852.444ZM852.444 270.07H851.444V271.07H852.444V270.07ZM900.744 270.07V271.07H901.744V270.07H900.744ZM900.744 244.52H901.744V243.52H900.744V244.52ZM893.114 244.52V243.52H892.114V244.52H893.114ZM893.114 250.96V251.96H894.114V250.96H893.114ZM860.074 250.96H859.074V251.96H860.074V250.96ZM860.074 263.98H859.074V264.98H860.074V263.98ZM860.074 257.12V256.12H859.074V257.12H860.074ZM893.114 257.12H894.114V256.12H893.114V257.12ZM893.114 263.98V264.98H894.114V263.98H893.114ZM846.844 282.46H845.844V283.46H846.844V282.46ZM873.864 282.46H874.864V281.46H873.864V282.46ZM873.864 292.75H872.864V293.75H873.864V292.75ZM881.424 292.75V293.75H882.424V292.75H881.424ZM881.424 282.46V281.46H880.424V282.46H881.424ZM906.344 282.46V283.46H907.344V282.46H906.344ZM906.344 276.09H907.344V275.09H906.344V276.09ZM846.844 276.09V275.09H845.844V276.09H846.844ZM900.954 305.63V306.63H901.954V305.63H900.954ZM900.954 299.12H901.954V298.12H900.954V299.12ZM860.494 299.12H859.494V300.12H860.494V299.12ZM860.494 288.13H861.494V287.13H860.494V288.13ZM852.794 288.13V287.13H851.794V288.13H852.794ZM852.794 305.63H851.794V306.63H852.794V305.63ZM860.074 243.52H852.444V245.52H860.074V243.52ZM851.444 244.52V270.07H853.444V244.52H851.444ZM852.444 271.07H900.744V269.07H852.444V271.07ZM901.744 270.07V244.52H899.744V270.07H901.744ZM900.744 243.52H893.114V245.52H900.744V243.52ZM892.114 244.52V250.96H894.114V244.52H892.114ZM893.114 249.96H860.074V251.96H893.114V249.96ZM861.074 250.96V244.52H859.074V250.96H861.074ZM861.074 263.98V257.12H859.074V263.98H861.074ZM860.074 258.12H893.114V256.12H860.074V258.12ZM892.114 257.12V263.98H894.114V257.12H892.114ZM893.114 262.98H860.074V264.98H893.114V262.98ZM846.844 283.46H873.864V281.46H846.844V283.46ZM872.864 282.46V292.75H874.864V282.46H872.864ZM873.864 293.75H881.424V291.75H873.864V293.75ZM882.424 292.75V282.46H880.424V292.75H882.424ZM881.424 283.46H906.344V281.46H881.424V283.46ZM907.344 282.46V276.09H905.344V282.46H907.344ZM906.344 275.09H846.844V277.09H906.344V275.09ZM845.844 276.09V282.46H847.844V276.09H845.844ZM901.954 305.63V299.12H899.954V305.63H901.954ZM900.954 298.12H860.494V300.12H900.954V298.12ZM861.494 299.12V288.13H859.494V299.12H861.494ZM860.494 287.13H852.794V289.13H860.494V287.13ZM851.794 288.13V305.63H853.794V288.13H851.794ZM852.794 306.63H900.954V304.63H852.794V306.63Z" fill="#333333"/>
<path d="M149.723 366.832H131.178V393.419H134.342C141.615 393.397 146.845 393.199 152.931 392.188L152.536 388.805C146.845 389.75 141.967 389.991 135.397 390.035V381.202H148.932V377.862H135.397V370.26H149.723V366.832ZM156.007 402.735H160.182V382.389H166.51V378.873H160.182V363.36H156.007V402.735ZM185.785 365.162C179.764 365.118 175.436 368.941 175.458 374.303C175.436 379.73 179.764 383.531 185.785 383.531C191.014 383.531 195.057 380.499 195.87 375.973H203.539V384.498H207.713V363.36H203.539V372.545H195.848C194.991 368.128 190.97 365.118 185.785 365.162ZM179.457 374.303C179.435 370.919 182.071 368.612 185.785 368.634C189.432 368.612 192.025 370.919 192.025 374.303C192.025 377.665 189.432 380.016 185.785 380.016C182.071 380.016 179.435 377.665 179.457 374.303ZM182.049 402.252H207.713V386.388H203.539V390.958H186.18V386.388H182.049V402.252ZM186.18 398.824V394.254H203.539V398.824H186.18ZM223.305 375.445V373.863H230.292V370.436H223.305V364.767H219.394V370.436H212.275V373.863H219.394V375.445C219.35 381.795 216.538 388.541 211.088 391.705L213.549 394.869C217.351 392.584 219.987 388.475 221.394 383.707C222.822 388.167 225.458 391.925 229.282 393.946L231.611 390.87C226.184 387.948 223.305 381.642 223.305 375.445ZM227.7 382.169H233.369V400.758H237.324V364.195H233.369V378.697H227.7V382.169ZM241.323 402.735H245.322V363.36H241.323V402.735ZM290.7 363.36H286.701V378.961H281.603V364.151H277.78V400.714H281.603V382.389H286.701V402.735H290.7V363.36ZM258.224 393.287H260.861C266.596 393.243 270.683 393.089 275.407 392.101L275.099 388.673C270.88 389.486 267.233 389.706 262.399 389.728V371.49H272.99V368.106H258.224V393.287ZM326.155 363.36H321.98V402.823H326.155V363.36ZM295.745 393.375H314.641V366.656H310.51V376.764H299.919V366.656H295.745V393.375ZM299.919 389.947V380.06H310.51V389.947H299.919ZM354.174 384.278H350V391.266C346.066 391.397 342.309 391.419 339.145 391.441L339.672 394.869C346.704 394.869 356.262 394.803 365.161 393.155L364.853 390.079C361.425 390.584 357.778 390.892 354.174 391.09V384.278ZM340.2 382.389L342.177 385.553C346.901 384.212 350.373 381.202 352.087 377.269C353.867 381.004 357.382 383.861 362.084 385.201L364.018 381.949C358.129 380.367 354.394 376.39 354.174 371.754H363.007V368.37H354.174V363.668H350V368.37H341.254V371.754H349.956C349.736 376.588 346.066 380.697 340.2 382.389ZM367.314 402.823H371.489V363.36H367.314V402.823ZM409.361 363.36H405.362V378.961H400.264V364.151H396.441V400.714H400.264V382.389H405.362V402.735H409.361V363.36ZM376.885 393.287H379.522C385.257 393.243 389.344 393.089 394.068 392.101L393.76 388.673C389.542 389.486 385.894 389.706 381.06 389.728V371.49H391.651V368.106H376.885V393.287ZM421.604 392.804H437.073V399H441.643V392.804H445.994V388.717H441.643V367.184H435.667L421.604 388.893V392.804ZM426.702 388.717V388.453L436.721 372.94H437.073V388.717H426.702ZM459.696 399.439C467.057 399.439 471.363 393.507 471.385 383.092C471.363 372.743 466.991 366.744 459.696 366.744C452.379 366.744 448.006 372.743 448.006 383.092C448.006 393.507 452.335 399.439 459.696 399.439ZM452.84 383.092C452.84 375.182 455.411 370.853 459.696 370.831C463.958 370.853 466.551 375.182 466.551 383.092C466.551 391.024 463.98 395.265 459.696 395.265C455.389 395.265 452.818 391.024 452.84 383.092ZM490.756 391.354V393.023C490.756 396.627 493.02 399.681 497.216 399.659C501.391 399.681 503.676 396.627 503.676 393.023V391.354C503.676 387.75 501.457 384.718 497.216 384.718C493.085 384.718 490.756 387.772 490.756 391.354ZM474.716 374.83C474.716 378.412 476.979 381.444 481.22 381.466C485.373 381.444 487.658 378.412 487.636 374.83V373.16C487.658 369.557 485.439 366.502 481.22 366.524C477.089 366.502 474.716 369.557 474.716 373.16V374.83ZM476.254 399H479.946L501.831 367.184H498.139L476.254 399ZM478.364 374.83V373.16C478.386 371.38 479.155 369.645 481.22 369.645C483.352 369.645 484.011 371.38 483.989 373.16V374.83C484.011 376.588 483.308 378.324 481.22 378.302C479.111 378.324 478.386 376.588 478.364 374.83ZM494.404 393.023V391.354C494.382 389.574 495.151 387.86 497.216 387.838C499.37 387.86 500.029 389.574 500.029 391.354V393.023C500.029 394.803 499.304 396.517 497.216 396.539C495.107 396.517 494.382 394.803 494.404 393.023ZM547.868 363.36H543.693V377.511H535.563V380.938H543.693V402.823H547.868V363.36ZM514.557 391.837L517.106 395.089C521.654 392.76 525.236 387.86 526.994 382.147C528.751 387.508 532.245 392.101 536.793 394.298L539.298 390.958C533.256 388.277 529.059 381.092 529.059 374.435V370.743H537.804V367.315H516.139V370.743H524.84V374.435C524.818 381.51 520.578 388.958 514.557 391.837ZM584.465 388.497H558.318V402.208H584.465V388.497ZM553.22 368.766H566.228V373.424H553.264V385.157H556.121C564.119 385.179 568.03 385.091 572.82 384.278L572.468 380.938C568.074 381.62 564.47 381.751 557.395 381.773V376.588H570.403V365.338H553.22V368.766ZM562.449 398.868V391.793H580.334V398.868H562.449ZM572.908 380.104H580.291V386.52H584.465V363.404H580.291V368.678H572.908V372.105H580.291V376.72H572.908V380.104ZM619.217 363.404H615.042V392.848H619.217V379.532H624.93V376.061H619.217V363.404ZM588.324 371.358H611.791V367.975H602.167V363.36H597.992V367.975H588.324V371.358ZM590.477 380.675C590.455 385.135 594.344 388.036 600.057 388.058C605.704 388.036 609.593 385.135 609.593 380.675C609.593 376.17 605.704 373.226 600.057 373.248C594.344 373.226 590.455 376.17 590.477 380.675ZM594.256 401.9H620.887V398.517H598.431V390.519H594.256V401.9ZM594.52 380.675C594.476 378.082 596.717 376.478 600.057 376.456C603.397 376.478 605.638 378.082 605.682 380.675C605.638 383.246 603.397 384.828 600.057 384.806C596.717 384.828 594.476 383.246 594.52 380.675ZM647.852 373.38V366.656H643.633V373.38C643.611 380.675 639.546 388.255 633.438 391.178L636.075 394.562C640.623 392.21 644.051 387.42 645.787 381.751C647.522 387.135 650.906 391.573 655.367 393.814L657.916 390.475C651.895 387.772 647.852 380.587 647.852 373.38ZM653.565 379.84H662.354V402.823H666.485V363.36H662.354V376.456H653.565V379.84ZM702.907 363.36H698.732V402.823H702.907V363.36ZM672.497 393.375H691.393V366.656H687.262V376.764H676.671V366.656H672.497V393.375ZM676.671 389.947V380.06H687.262V389.947H676.671ZM726.936 368.941V365.953H722.542V368.941C722.52 375.357 715.73 381.378 708.259 382.784L710.105 386.256C716.411 384.85 722.19 380.741 724.783 375.226C727.332 380.763 733.11 384.894 739.417 386.256L741.35 382.784C733.77 381.422 726.936 375.357 726.936 368.941ZM706.941 397.55H742.976V394.078H706.941V397.55ZM779.574 381.422H743.539V384.63H779.574V381.422ZM747.801 390.387H771.004V393.287H747.845V402.252H776.366V399.308H752.02V396.056H775.135V387.398H747.801V390.387ZM748.065 367.315H770.873V370.128H748.153V378.829H775.707V375.885H752.284V372.896H775.047V364.371H748.065V367.315ZM822.754 363.36H818.755V402.735H822.754V363.36ZM788.389 391.881L790.938 395.001C794.783 392.606 797.464 388.211 798.87 383.07C800.254 387.816 802.825 391.837 806.583 394.078L809.087 391.002C803.55 387.816 800.826 381.07 800.826 374.347V371.183H807.593V367.799H789.576V371.183H796.827V374.347C796.805 381.356 793.97 388.519 788.389 391.881ZM804.693 380.719H810.801V400.758H814.756V364.195H810.801V377.291H804.693V380.719ZM843.356 388.102C834.918 388.102 829.513 390.804 829.513 395.396C829.513 399.967 834.918 402.669 843.356 402.647C851.881 402.669 857.265 399.967 857.287 395.396C857.265 390.804 851.881 388.102 843.356 388.102ZM825.646 384.85H861.461V381.466H844.103V374.083H840.016V381.466H825.646V384.85ZM829.821 368.634H852.848C852.848 371.688 852.848 374.588 851.793 378.609L855.88 379.049C857.001 374.984 857.001 371.732 856.979 368.59V365.294H829.821V368.634ZM833.688 395.396C833.644 392.804 837.401 391.288 843.356 391.266C849.376 391.288 853.112 392.804 853.156 395.396C853.112 397.945 849.376 399.417 843.356 399.439C837.401 399.417 833.644 397.945 833.688 395.396ZM881.711 369.864H874.021V364.503H869.89V369.864H862.156V373.248H881.711V369.864ZM863.43 384.674C863.408 390.057 867.012 393.836 871.956 393.814C876.943 393.836 880.503 390.057 880.525 384.674C880.503 379.378 876.943 375.621 871.956 375.621C867.012 375.621 863.408 379.378 863.43 384.674ZM867.122 384.674C867.1 381.4 869.121 379.115 871.956 379.093C874.79 379.115 876.833 381.4 876.833 384.674C876.833 388.014 874.79 390.255 871.956 390.255C869.121 390.255 867.1 388.014 867.122 384.674ZM883.513 400.89H887.468V383.18H891.995V402.735H895.95V363.36H891.995V379.752H887.468V364.239H883.513V400.89ZM934.92 394.342H926.307V383.971C929.471 382.191 931.361 379.4 931.361 375.929C931.361 369.732 925.274 365.667 916.815 365.646C908.377 365.667 902.291 369.732 902.313 375.929C902.291 379.466 904.269 382.279 907.499 384.059V394.342H898.885V397.813H934.92V394.342ZM906.356 375.929C906.356 371.688 910.641 368.985 916.815 368.985C922.945 368.985 927.296 371.688 927.318 375.929C927.296 380.147 922.945 382.894 916.815 382.916C910.641 382.894 906.356 380.147 906.356 375.929ZM911.629 394.342V385.597C913.211 385.97 914.969 386.168 916.815 386.168C918.705 386.168 920.484 385.97 922.088 385.597V394.342H911.629ZM940.009 399.308C941.701 399.286 943.107 397.901 943.129 396.188C943.107 394.474 941.701 393.067 940.009 393.067C938.295 393.067 936.867 394.474 936.889 396.188C936.867 397.901 938.295 399.286 940.009 399.308Z" fill="#333333"/>
</g>
<defs>
<filter id="filter0_dd_33_1331" x="0" y="0" width="1064" height="1224" filterUnits="userSpaceOnUse" color-interpolation-filters="sRGB">
<feFlood flood-opacity="0" result="BackgroundImageFix"/>
<feColorMatrix in="SourceAlpha" type="matrix" values="0 0 0 0 0 0 0 0 0 0 0 0 0 0 0 0 0 0 127 0" result="hardAlpha"/>
<feMorphology radius="2" operator="erode" in="SourceAlpha" result="effect1_dropShadow_33_1331"/>
<feOffset dy="4"/>
<feGaussianBlur stdDeviation="3"/>
<feComposite in2="hardAlpha" operator="out"/>
<feColorMatrix type="matrix" values="0 0 0 0 0 0 0 0 0 0 0 0 0 0 0 0 0 0 0.05 0"/>
<feBlend mode="normal" in2="BackgroundImageFix" result="effect1_dropShadow_33_1331"/>
<feColorMatrix in="SourceAlpha" type="matrix" values="0 0 0 0 0 0 0 0 0 0 0 0 0 0 0 0 0 0 127 0" result="hardAlpha"/>
<feMorphology radius="3" operator="erode" in="SourceAlpha" result="effect2_dropShadow_33_1331"/>
<feOffset dy="10"/>
<feGaussianBlur stdDeviation="7.5"/>
<feComposite in2="hardAlpha" operator="out"/>
<feColorMatrix type="matrix" values="0 0 0 0 0 0 0 0 0 0 0 0 0 0 0 0 0 0 0.1 0"/>
<feBlend mode="normal" in2="effect1_dropShadow_33_1331" result="effect2_dropShadow_33_1331"/>
<feBlend mode="normal" in="SourceGraphic" in2="effect2_dropShadow_33_1331" result="shape"/>
</filter>
</defs>
</svg>
