<svg width="1064" height="1147" viewBox="0 0 1064 1147" fill="none" xmlns="http://www.w3.org/2000/svg">
<g filter="url(#filter0_dd_33_969)">
<rect x="12" y="2" width="1040" height="1123" rx="50" fill="white"/>
<path d="M382.133 375.967C376.534 376.008 372.474 379.392 372.453 384.211C372.474 389.051 376.534 392.414 382.133 392.414C387.67 392.414 391.751 389.051 391.772 384.211C391.751 379.392 387.67 376.008 382.133 375.967ZM376.268 384.211C376.247 381.217 378.749 379.207 382.133 379.248C385.496 379.207 387.998 381.217 387.998 384.211C387.998 387.246 385.496 389.256 382.133 389.256C378.749 389.256 376.247 387.246 376.268 384.211ZM378.031 398.238H398.334V401.479H378.154V411.035H403.42V407.918H381.928V404.391H402.19V395.121H378.031V398.238ZM398.293 393.439H402.19V374.736H398.293V393.439ZM435.629 374.777H431.732V401.766H435.629V388.887H440.961V385.605H435.629V374.777ZM408.189 395.695H425.498V377.402H421.643V383.268H412.004V377.402H408.189V395.695ZM412.004 392.578V386.344H421.643V392.578H412.004ZM412.332 410.707H437.187V407.549H416.228V399.1H412.332V410.707ZM475.426 403.611H460.373V394.875H456.517V403.611H441.793V406.811H475.426V403.611ZM442.941 392.332L444.664 395.531C450.591 394.362 456.005 390.65 458.425 385.646C460.844 390.671 466.3 394.362 472.267 395.531L473.949 392.332C466.853 391.143 460.455 385.688 460.455 379.863V377.074H456.353V379.863C456.333 385.688 450.016 391.143 442.941 392.332ZM497.873 378.51H477.283V381.709H481.056V399.305C479.416 399.325 477.836 399.346 476.38 399.346L476.832 402.586C483.271 402.565 491.946 402.442 499.636 401.15L499.431 398.32C497.708 398.525 495.924 398.689 494.099 398.833V381.709H497.873V378.51ZM484.83 399.243V381.709H490.326V399.059C488.48 399.141 486.634 399.202 484.83 399.243ZM501.564 411.486H505.46V392.414H511.367V389.215H505.46V374.736H501.564V411.486ZM522.136 408H542.11V404.145H528.411V403.898L534.44 397.787C540.019 392.312 541.577 389.666 541.618 386.344C541.577 381.524 537.619 377.895 531.897 377.895C526.237 377.895 522.095 381.483 522.136 386.918H526.401C526.422 383.76 528.514 381.668 531.815 381.668C534.933 381.668 537.312 383.534 537.312 386.467C537.312 389.071 535.691 390.958 532.431 394.342L522.136 404.719V408ZM575.057 374.777H571.161V401.479H575.057V374.777ZM545.321 386.344C545.342 391.737 549.566 395.49 555.124 395.49C560.661 395.49 564.886 391.737 564.886 386.344C564.886 381.032 560.661 377.259 555.124 377.238C549.566 377.259 545.342 381.032 545.321 386.344ZM549.136 386.344C549.115 382.96 551.699 380.643 555.124 380.643C558.487 380.643 561.071 382.96 561.071 386.344C561.071 389.81 558.487 392.086 555.124 392.086C551.699 392.086 549.115 389.81 549.136 386.344ZM551.022 410.707H576.165V407.549H554.96V398.771H551.022V410.707ZM613.131 392.66H605.01V387.738C607.861 386.569 609.46 384.724 609.481 382.283C609.46 377.915 604.416 375.372 596.356 375.393C588.276 375.372 583.21 377.915 583.231 382.283C583.21 384.724 584.81 386.569 587.661 387.718V392.66H579.622V395.818H613.131V392.66ZM583.6 404.842C583.6 409.087 588.358 411.404 596.356 411.404C604.251 411.404 609.009 409.087 609.03 404.842C609.009 400.638 604.251 398.32 596.356 398.32C588.358 398.32 583.6 400.638 583.6 404.842ZM587.251 382.283C587.23 379.822 590.634 378.407 596.356 378.387C602.037 378.407 605.482 379.822 605.461 382.283C605.482 384.744 602.037 386.118 596.356 386.139C590.634 386.118 587.23 384.744 587.251 382.283ZM587.538 404.842C587.517 402.586 590.737 401.314 596.356 401.314C601.893 401.314 605.133 402.586 605.133 404.842C605.133 407.139 601.893 408.451 596.356 408.41C590.737 408.451 587.517 407.139 587.538 404.842ZM591.598 392.66V388.764C593.034 388.969 594.633 389.092 596.356 389.092C598.099 389.092 599.719 388.969 601.155 388.743V392.66H591.598ZM654.211 374.736H650.273V411.486H654.211V374.736ZM624.023 401.643L626.074 404.801C638.687 398.751 643.26 389.44 643.26 378.674H625.787V381.791H639.322C638.564 390.363 633.785 396.987 624.023 401.643ZM689.209 376.5H661.769V379.617H672.844C672.659 383.596 667.409 387.144 660.539 387.984L662.015 391.061C668.291 390.24 673.438 387.308 675.448 383.186C677.417 387.308 682.585 390.24 688.881 391.061L690.357 387.984C683.528 387.144 678.237 383.616 678.012 379.617H689.209V376.5ZM658.652 396.598H673.828V403.734H677.683V396.598H692.285V393.439H658.652V396.598ZM662.836 410.707H688.553V407.549H666.732V400.207H662.836V410.707Z" fill="#333333"/>
<path d="M175.438 617.852H170.668V632.977H168.562V618.41H163.879V655.148H168.562V637.445H170.668V656.953H175.438V617.852ZM140.289 647.328H150.387V621.805H146.348V630.355H144.285V621.805H140.289V647.328ZM144.285 642.988V634.652H146.348V642.988H144.285ZM151.977 647.328H162.031V621.805H158.035V630.355H155.973V621.805H151.977V647.328ZM155.973 642.988V634.652H158.035V642.988H155.973ZM209.739 617.852H204.196V656.953H209.739V617.852ZM176.996 645.867L179.875 650.25C193.84 643.654 197.987 633.793 198.008 621.934H179.102V626.23H192.422C191.541 634.91 187.094 641.098 176.996 645.867Z" fill="#304FFB"/>
<path d="M145.832 818L148.41 810.309H160.119L162.719 818H168.691L157.691 786.891H150.816L139.859 818H145.832ZM149.914 805.797L154.125 793.25H154.383L158.615 805.797H149.914ZM183.356 792.305V786.117H178.586V792.305C178.565 799.48 174.998 806.914 168.746 809.879L171.668 813.703C176.116 811.469 179.295 807.086 180.993 801.801C182.647 806.742 185.676 810.846 189.887 812.973L192.809 809.148C186.793 806.248 183.313 799.244 183.356 792.305ZM195.129 821.824H199.899V802.273H205.871V798.191H199.899V782.98H195.129V821.824Z" fill="#747F8F"/>
<path d="M141.879 983H154.469C161.58 983 165.082 979.369 165.082 974.535C165.082 969.809 161.73 967.059 158.422 966.887V966.586C161.473 965.855 163.857 963.75 163.879 959.969C163.857 955.328 160.527 951.891 153.781 951.891H141.879V983ZM147.465 978.316V969.164H153.738C157.219 969.186 159.389 971.312 159.41 974.105C159.389 976.576 157.691 978.316 153.609 978.316H147.465ZM147.465 965.125V956.531H153.223C156.553 956.531 158.271 958.271 158.293 960.656C158.271 963.428 156.037 965.125 153.094 965.125H147.465ZM180.606 957.305V951.117H175.836V957.305C175.815 964.48 172.248 971.914 165.996 974.879L168.918 978.703C173.366 976.469 176.545 972.086 178.243 966.801C179.897 971.742 182.926 975.846 187.137 977.973L190.059 974.148C184.043 971.248 180.563 964.244 180.606 957.305ZM192.379 986.824H197.149V967.273H203.121V963.191H197.149V947.98H192.379V986.824Z" fill="#747F8F"/>
<rect x="253" y="567" width="4" height="470" fill="#AFBACB"/>
<rect x="257" y="602" width="200" height="70" fill="#304FFB"/>
<rect x="257" y="766" width="521" height="70" fill="#AFBACB"/>
<rect x="257" y="931" width="433" height="70" fill="#AFBACB"/>
<path d="M489.061 648.138H505.181V654H511.729V648.138H515.942V642.597H511.729V620.845H503.074L489.061 642.689V648.138ZM496.022 642.597V642.322L504.952 628.401H505.272V642.597H496.022ZM531.48 654.458C539.036 654.458 544.485 650.474 544.485 645.07C544.485 640.903 541.234 637.514 537.204 636.873V636.644C540.684 635.957 543.226 632.957 543.249 629.317C543.226 624.165 538.257 620.387 531.48 620.387C524.702 620.387 519.733 624.165 519.756 629.317C519.733 632.957 522.206 635.957 525.801 636.644V636.873C521.68 637.514 518.474 640.903 518.474 645.07C518.474 650.474 523.901 654.458 531.48 654.458ZM525.664 644.383C525.641 641.498 528.114 639.414 531.48 639.391C534.846 639.414 537.319 641.521 537.296 644.383C537.319 647.222 534.983 649.214 531.48 649.192C527.976 649.214 525.641 647.222 525.664 644.383ZM526.488 630.003C526.465 627.416 528.503 625.607 531.48 625.607C534.433 625.607 536.494 627.416 536.517 630.003C536.494 632.66 534.388 634.514 531.48 634.537C528.549 634.514 526.465 632.66 526.488 630.003ZM554.253 650.611H547.75L545.46 663.663H550.314L554.253 650.611ZM570.385 654.458C578.674 654.458 583.711 648.321 583.711 637.422C583.711 626.592 578.651 620.387 570.385 620.387C562.119 620.387 557.059 626.592 557.059 637.422C557.059 648.276 562.073 654.458 570.385 654.458ZM564.111 637.422C564.111 629.843 566.561 626.042 570.385 626.019C574.209 626.042 576.682 629.843 576.659 637.422C576.682 645.07 574.232 648.779 570.385 648.779C566.538 648.779 564.065 645.07 564.111 637.422ZM599.936 654.458C608.225 654.458 613.262 648.321 613.262 637.422C613.262 626.592 608.202 620.387 599.936 620.387C591.67 620.387 586.609 626.592 586.609 637.422C586.609 648.276 591.624 654.458 599.936 654.458ZM593.662 637.422C593.662 629.843 596.112 626.042 599.936 626.019C603.76 626.042 606.232 629.843 606.21 637.422C606.232 645.07 603.782 648.779 599.936 648.779C596.089 648.779 593.616 645.07 593.662 637.422ZM629.486 654.458C637.775 654.458 642.813 648.321 642.813 637.422C642.813 626.592 637.752 620.387 629.486 620.387C621.22 620.387 616.16 626.592 616.16 637.422C616.16 648.276 621.174 654.458 629.486 654.458ZM623.212 637.422C623.212 629.843 625.662 626.042 629.486 626.019C633.31 626.042 635.783 629.843 635.76 637.422C635.783 645.07 633.333 648.779 629.486 648.779C625.639 648.779 623.167 645.07 623.212 637.422ZM680.102 616.586H674.241V640.765H666.272V644.749H674.241V648.047H680.102V616.586ZM644.657 635.041L645.344 639.666C648.504 639.666 652.053 639.643 655.785 639.506V645.024H649.969V657.48H681.018V652.809H655.785V647.085H661.647V639.162C665.013 638.911 668.425 638.521 671.722 637.972L671.401 633.804C662.586 634.881 652.282 634.995 644.657 635.041ZM647.725 625.47C647.725 629.935 652.007 632.82 658.212 632.797C664.257 632.82 668.585 629.935 668.608 625.47C668.585 621.028 664.257 617.982 658.212 618.005C652.007 617.982 647.725 621.028 647.725 625.47ZM653.267 625.47C653.244 623.409 655.236 622.264 658.212 622.264C661.006 622.264 663.021 623.409 663.067 625.47C663.021 627.485 661.006 628.607 658.212 628.584C655.236 628.607 653.244 627.485 653.267 625.47Z" fill="#304FFB"/>
<path d="M815.918 789.547H812.121L805.793 793.695V797.387L811.875 793.414H812.016V815H815.918V789.547ZM822.387 815H839.508V811.695H827.766V811.484L832.934 806.246C837.715 801.553 839.051 799.285 839.086 796.438C839.051 792.307 835.658 789.195 830.754 789.195C825.902 789.195 822.352 792.271 822.387 796.93H826.043C826.061 794.223 827.854 792.43 830.684 792.43C833.355 792.43 835.395 794.029 835.395 796.543C835.395 798.775 834.006 800.393 831.211 803.293L822.387 812.188V815ZM843.797 815H860.918V811.695H849.176V811.484L854.344 806.246C859.125 801.553 860.461 799.285 860.496 796.438C860.461 792.307 857.068 789.195 852.164 789.195C847.312 789.195 843.762 792.271 843.797 796.93H847.453C847.471 794.223 849.264 792.43 852.094 792.43C854.766 792.43 856.805 794.029 856.805 796.543C856.805 798.775 855.416 800.393 852.621 803.293L843.797 812.188V815ZM869.777 812.574H865.84L863.977 822.277H866.965L869.777 812.574ZM882.75 815.352C888.639 815.352 892.084 810.605 892.102 802.273C892.084 793.994 888.586 789.195 882.75 789.195C876.896 789.195 873.398 793.994 873.398 802.273C873.398 810.605 876.861 815.352 882.75 815.352ZM877.266 802.273C877.266 795.945 879.322 792.482 882.75 792.465C886.16 792.482 888.234 795.945 888.234 802.273C888.234 808.619 886.178 812.012 882.75 812.012C879.305 812.012 877.248 808.619 877.266 802.273ZM904.969 815.352C910.857 815.352 914.303 810.605 914.32 802.273C914.303 793.994 910.805 789.195 904.969 789.195C899.115 789.195 895.617 793.994 895.617 802.273C895.617 810.605 899.08 815.352 904.969 815.352ZM899.484 802.273C899.484 795.945 901.541 792.482 904.969 792.465C908.379 792.482 910.453 795.945 910.453 802.273C910.453 808.619 908.396 812.012 904.969 812.012C901.523 812.012 899.467 808.619 899.484 802.273ZM927.188 815.352C933.076 815.352 936.521 810.605 936.539 802.273C936.521 793.994 933.023 789.195 927.188 789.195C921.334 789.195 917.836 793.994 917.836 802.273C917.836 810.605 921.299 815.352 927.188 815.352ZM921.703 802.273C921.703 795.945 923.76 792.482 927.188 792.465C930.598 792.482 932.672 795.945 932.672 802.273C932.672 808.619 930.615 812.012 927.188 812.012C923.742 812.012 921.686 808.619 921.703 802.273ZM965.648 786.523H962.309V805.016H955.98V807.371H962.309V810.395H965.648V786.523ZM939.316 800.902L939.738 803.574C942.287 803.574 945.223 803.574 948.281 803.451V809.41H951.621V803.275C954.398 803.082 957.229 802.801 959.918 802.344L959.707 799.953C952.992 800.797 945.135 800.85 939.316 800.902ZM941.777 793.273C941.76 796.631 944.959 798.758 949.617 798.758C954.223 798.758 957.422 796.631 957.422 793.273C957.422 789.934 954.223 787.719 949.617 787.719C944.941 787.719 941.76 789.934 941.777 793.273ZM943.676 817.32H966.422V814.613H946.98V808.074H943.676V817.32ZM944.941 793.273C944.924 791.393 946.822 790.18 949.617 790.215C952.307 790.18 954.24 791.393 954.258 793.273C954.24 795.137 952.307 796.297 949.617 796.297C946.822 796.297 944.924 795.137 944.941 793.273Z" fill="#AFBACB"/>
<path d="M731.918 954.547H728.121L721.793 958.695V962.387L727.875 958.414H728.016V980H731.918V954.547ZM747.246 980.352C753.135 980.352 756.58 975.605 756.598 967.273C756.58 958.994 753.082 954.195 747.246 954.195C741.393 954.195 737.895 958.994 737.895 967.273C737.895 975.605 741.357 980.352 747.246 980.352ZM741.762 967.273C741.762 960.945 743.818 957.482 747.246 957.465C750.656 957.482 752.73 960.945 752.73 967.273C752.73 973.619 750.674 977.012 747.246 977.012C743.801 977.012 741.744 973.619 741.762 967.273ZM760.043 975.043H772.418V980H776.074V975.043H779.555V971.773H776.074V954.547H771.293L760.043 971.914V975.043ZM764.121 971.773V971.562L772.137 959.152H772.418V971.773H764.121ZM787.078 977.574H783.141L781.277 987.277H784.266L787.078 977.574ZM800.051 980.352C805.939 980.352 809.385 975.605 809.402 967.273C809.385 958.994 805.887 954.195 800.051 954.195C794.197 954.195 790.699 958.994 790.699 967.273C790.699 975.605 794.162 980.352 800.051 980.352ZM794.566 967.273C794.566 960.945 796.623 957.482 800.051 957.465C803.461 957.482 805.535 960.945 805.535 967.273C805.535 973.619 803.479 977.012 800.051 977.012C796.605 977.012 794.549 973.619 794.566 967.273ZM822.27 980.352C828.158 980.352 831.604 975.605 831.621 967.273C831.604 958.994 828.105 954.195 822.27 954.195C816.416 954.195 812.918 958.994 812.918 967.273C812.918 975.605 816.381 980.352 822.27 980.352ZM816.785 967.273C816.785 960.945 818.842 957.482 822.27 957.465C825.68 957.482 827.754 960.945 827.754 967.273C827.754 973.619 825.697 977.012 822.27 977.012C818.824 977.012 816.768 973.619 816.785 967.273ZM844.488 980.352C850.377 980.352 853.822 975.605 853.84 967.273C853.822 958.994 850.324 954.195 844.488 954.195C838.635 954.195 835.137 958.994 835.137 967.273C835.137 975.605 838.6 980.352 844.488 980.352ZM839.004 967.273C839.004 960.945 841.061 957.482 844.488 957.465C847.898 957.482 849.973 960.945 849.973 967.273C849.973 973.619 847.916 977.012 844.488 977.012C841.043 977.012 838.986 973.619 839.004 967.273ZM882.949 951.523H879.609V970.016H873.281V972.371H879.609V975.395H882.949V951.523ZM856.617 965.902L857.039 968.574C859.588 968.574 862.523 968.574 865.582 968.451V974.41H868.922V968.275C871.699 968.082 874.529 967.801 877.219 967.344L877.008 964.953C870.293 965.797 862.436 965.85 856.617 965.902ZM859.078 958.273C859.061 961.631 862.26 963.758 866.918 963.758C871.523 963.758 874.723 961.631 874.723 958.273C874.723 954.934 871.523 952.719 866.918 952.719C862.242 952.719 859.061 954.934 859.078 958.273ZM860.977 982.32H883.723V979.613H864.281V973.074H860.977V982.32ZM862.242 958.273C862.225 956.393 864.123 955.18 866.918 955.215C869.607 955.18 871.541 956.393 871.559 958.273C871.541 960.137 869.607 961.297 866.918 961.297C864.123 961.297 862.225 960.137 862.242 958.273Z" fill="#AFBACB"/>
<g clip-path="url(#clip0_33_969)">
<path d="M458.891 284.908H475.679L469.741 315.148C469.501 316.38 468.423 317.253 467.174 317.253H458.891V284.908Z" fill="#A15137"/>
<path d="M458.891 284.908H442.102L448.041 315.148C448.28 316.38 449.358 317.253 450.608 317.253H458.891V284.908Z" fill="#B67056"/>
<path d="M604.888 284.908H621.677L615.738 315.148C615.499 316.38 614.421 317.253 613.171 317.253H604.888V284.908Z" fill="#A15137"/>
<path d="M604.888 284.908H588.1L594.038 315.148C594.278 316.38 595.356 317.253 596.605 317.253H604.888V284.908Z" fill="#B67056"/>
<path d="M279.505 235.107V181.507C279.505 178.615 277.725 176.253 275.535 176.253H430.02C432.211 176.253 433.991 178.598 433.991 181.507V235.107C433.991 248.028 441.932 258.553 451.686 258.553H297.218C287.463 258.553 279.522 248.045 279.522 235.107H279.505Z" fill="#073E9C"/>
<path d="M421.549 130.611C422.764 124.381 426.649 120.257 430.944 120.017L764.029 120L776.984 124.535C772.637 124.672 765.98 131.158 764.747 137.473L743.852 244.092L764.029 249.431L430.944 249.448V249.363L400.653 237.246L421.549 130.611Z" fill="#2252F9"/>
<path d="M632.185 212.637H292.717C287.035 212.637 282.431 219.14 282.431 227.166V244.006C282.431 251.742 286.727 258.057 292.135 258.484C294.821 266.305 300.469 271.713 307.041 271.713H612.093C618.648 271.713 624.295 266.322 626.982 258.536H632.185C637.866 258.536 642.47 252.033 642.47 244.006V227.166C642.47 219.14 637.866 212.637 632.185 212.637Z" fill="#174CDE"/>
<path d="M777.925 124.912L766.989 120.531C761.581 118.374 755.968 122.875 754.462 130.594L733.566 237.212L764.08 249.431L784.976 142.813C786.499 135.094 783.333 127.068 777.925 124.912Z" fill="#174CDE"/>
<path d="M640.913 235.108V181.507C640.913 178.615 639.185 176.253 637.045 176.253H723.162C744.177 176.253 765.193 176.219 786.209 176.253C787.287 176.253 788.382 176.253 789.375 176.63C791.411 177.366 791.856 179.488 792.01 181.336C792.643 188.815 792.284 196.448 792.25 203.944C792.181 214.024 791.976 224.086 791.976 234.166V235.108C791.976 262.575 775.478 284.909 755.199 284.909H604.153C624.433 284.909 640.93 262.558 640.93 235.108H640.913Z" fill="#073E9C"/>
<path d="M271.804 235.107C271.804 262.575 287.6 284.908 307.024 284.908H612.093C631.517 284.908 647.313 262.557 647.313 235.107V181.507C647.313 178.615 645.653 176.253 643.6 176.253H632.373C630.319 176.253 628.659 178.598 628.659 181.507V235.107C628.659 248.028 621.215 258.553 612.076 258.553H307.024C297.885 258.553 290.441 248.045 290.441 235.107V181.507C290.441 178.615 288.781 176.253 286.727 176.253H275.517C273.464 176.253 271.804 178.598 271.804 181.507V235.107Z" fill="#0D43B8"/>
<path d="M332.42 284.908L322.135 313.762C321.536 315.456 322.785 317.253 324.599 317.253H330.897L349.209 284.908H332.42Z" fill="#B67056"/>
<path d="M349.209 284.908L330.897 317.253H340.72C341.559 317.253 342.329 316.86 342.825 316.192L365.758 284.908H349.209Z" fill="#A15137"/>
<path d="M731.188 284.908L741.473 313.762C742.072 315.456 740.823 317.253 739.009 317.253H732.711L714.399 284.908H731.188Z" fill="#A15137"/>
<path d="M714.4 284.908L732.711 317.253H722.888C722.049 317.253 721.279 316.86 720.783 316.192L697.851 284.908H714.4Z" fill="#B67056"/>
<path d="M451.806 227.166C451.806 219.14 456.41 212.637 462.092 212.637H610.895C616.577 212.637 621.181 219.14 621.181 227.166V244.006C621.181 252.033 616.577 258.536 610.895 258.536H462.109C456.427 258.536 451.823 252.033 451.823 244.006V227.166H451.806Z" fill="#2252F9"/>
<path d="M282.431 227.166C282.431 219.14 287.035 212.637 292.717 212.637H441.52C447.202 212.637 451.806 219.14 451.806 227.166V244.006C451.806 252.033 447.202 258.536 441.52 258.536H292.717C287.035 258.536 282.431 252.033 282.431 244.006V227.166Z" fill="#2252F9"/>
</g>
<line x1="49.75" y1="488.25" x2="1014.25" y2="488.25" stroke="#6C7076" stroke-width="1.5" stroke-linecap="round" stroke-dasharray="12 12"/>
</g>
<defs>
<filter id="filter0_dd_33_969" x="0" y="0" width="1064" height="1147" filterUnits="userSpaceOnUse" color-interpolation-filters="sRGB">
<feFlood flood-opacity="0" result="BackgroundImageFix"/>
<feColorMatrix in="SourceAlpha" type="matrix" values="0 0 0 0 0 0 0 0 0 0 0 0 0 0 0 0 0 0 127 0" result="hardAlpha"/>
<feMorphology radius="2" operator="erode" in="SourceAlpha" result="effect1_dropShadow_33_969"/>
<feOffset dy="4"/>
<feGaussianBlur stdDeviation="3"/>
<feComposite in2="hardAlpha" operator="out"/>
<feColorMatrix type="matrix" values="0 0 0 0 0 0 0 0 0 0 0 0 0 0 0 0 0 0 0.05 0"/>
<feBlend mode="normal" in2="BackgroundImageFix" result="effect1_dropShadow_33_969"/>
<feColorMatrix in="SourceAlpha" type="matrix" values="0 0 0 0 0 0 0 0 0 0 0 0 0 0 0 0 0 0 127 0" result="hardAlpha"/>
<feMorphology radius="3" operator="erode" in="SourceAlpha" result="effect2_dropShadow_33_969"/>
<feOffset dy="10"/>
<feGaussianBlur stdDeviation="7.5"/>
<feComposite in2="hardAlpha" operator="out"/>
<feColorMatrix type="matrix" values="0 0 0 0 0 0 0 0 0 0 0 0 0 0 0 0 0 0 0.1 0"/>
<feBlend mode="normal" in2="effect1_dropShadow_33_969" result="effect2_dropShadow_33_969"/>
<feBlend mode="normal" in="SourceGraphic" in2="effect2_dropShadow_33_969" result="shape"/>
</filter>
<clipPath id="clip0_33_969">
<rect width="520.583" height="197.27" fill="white" transform="translate(271.804 120)"/>
</clipPath>
</defs>
</svg>
