<svg width="1064" height="1147" viewBox="0 0 1064 1147" fill="none" xmlns="http://www.w3.org/2000/svg">
<g filter="url(#filter0_dd_33_1001)">
<rect x="12" y="2" width="1040" height="1123" rx="50" fill="white"/>
<path d="M408.025 408H428V404.145H414.301V403.898L420.33 397.787C425.908 392.312 427.467 389.666 427.508 386.344C427.467 381.524 423.509 377.895 417.787 377.895C412.127 377.895 407.984 381.483 408.025 386.918H412.291C412.311 383.76 414.403 381.668 417.705 381.668C420.822 381.668 423.201 383.534 423.201 386.467C423.201 389.071 421.581 390.958 418.32 394.342L408.025 404.719V408ZM459.347 374.695H455.451V401.314H459.347V388.6H464.72V385.359H459.347V374.695ZM432.113 394.957H435.025C442.9 394.957 447.248 394.711 452.211 393.727L451.759 390.568C447.145 391.512 443.126 391.737 435.968 391.717V381.012H448.519V377.854H432.113V394.957ZM436.051 410.707H460.906V407.549H439.947V398.566H436.051V410.707ZM487.753 384.088V377.812H483.816V384.088C483.795 390.896 480.001 397.972 474.3 400.699L476.761 403.857C481.006 401.663 484.205 397.192 485.825 391.901C487.446 396.926 490.604 401.068 494.767 403.16L497.146 400.043C491.527 397.521 487.753 390.814 487.753 384.088ZM493.085 390.117H501.288V411.568H505.144V374.736H501.288V386.959H493.085V390.117ZM538.419 374.777H534.522V395.039H538.419V386.631H543.792V383.35H538.419V374.777ZM511.021 379.699H523.94V383.678H511.062V394.301H514.015C521.069 394.28 525.93 394.055 531.61 393.07L531.2 389.871C525.848 390.855 521.336 391.04 514.958 391.102V386.672H527.755V376.5H511.021V379.699ZM514.917 411.035H538.419V396.598H534.522V400.74H518.772V396.598H514.917V411.035ZM518.772 407.877V403.816H534.522V407.877H518.772ZM557.421 381.504V380.52H565.337V377.361H545.444V380.52H553.524V381.545C553.504 386.651 550.038 391.389 544.296 393.275L546.305 396.393C550.715 394.854 553.934 391.676 555.534 387.656C557.154 391.143 560.21 393.911 564.393 395.244L566.239 392.209C560.661 390.445 557.4 386.18 557.421 381.504ZM549.259 404.514C549.259 408.882 553.955 411.425 561.604 411.404C569.172 411.425 573.786 408.882 573.786 404.514C573.786 400.207 569.172 397.685 561.604 397.705C553.955 397.685 549.259 400.207 549.259 404.514ZM553.155 404.514C553.135 402.114 556.293 400.761 561.604 400.781C566.875 400.761 569.992 402.114 569.971 404.514C569.992 406.975 566.875 408.349 561.604 408.328C556.293 408.349 553.135 406.975 553.155 404.514ZM569.561 396.803H573.458V387.041H578.79V383.842H573.458V374.736H569.561V396.803ZM619.172 374.736H615.235V411.486H619.172V374.736ZM588.985 401.643L591.035 404.801C603.648 398.751 608.221 389.44 608.221 378.674H590.748V381.791H604.283C603.525 390.363 598.746 396.987 588.985 401.643ZM654.17 376.5H626.73V379.617H637.805C637.62 383.596 632.37 387.144 625.5 387.984L626.977 391.061C633.252 390.24 638.399 387.308 640.409 383.186C642.378 387.308 647.546 390.24 653.842 391.061L655.318 387.984C648.489 387.144 643.198 383.616 642.973 379.617H654.17V376.5ZM623.613 396.598H638.789V403.734H642.645V396.598H657.246V393.439H623.613V396.598ZM627.797 410.707H653.514V407.549H631.693V400.207H627.797V410.707Z" fill="#333333"/>
<path d="M175.438 617.852H170.668V632.977H168.562V618.41H163.879V655.148H168.562V637.445H170.668V656.953H175.438V617.852ZM140.289 647.328H150.387V621.805H146.348V630.355H144.285V621.805H140.289V647.328ZM144.285 642.988V634.652H146.348V642.988H144.285ZM151.977 647.328H162.031V621.805H158.035V630.355H155.973V621.805H151.977V647.328ZM155.973 642.988V634.652H158.035V642.988H155.973ZM209.739 617.852H204.196V656.953H209.739V617.852ZM176.996 645.867L179.875 650.25C193.84 643.654 197.987 633.793 198.008 621.934H179.102V626.23H192.422C191.541 634.91 187.094 641.098 176.996 645.867Z" fill="#304FFB"/>
<path d="M145.832 818L148.41 810.309H160.119L162.719 818H168.691L157.691 786.891H150.816L139.859 818H145.832ZM149.914 805.797L154.125 793.25H154.383L158.615 805.797H149.914ZM183.356 792.305V786.117H178.586V792.305C178.565 799.48 174.998 806.914 168.746 809.879L171.668 813.703C176.116 811.469 179.295 807.086 180.993 801.801C182.647 806.742 185.676 810.846 189.887 812.973L192.809 809.148C186.793 806.248 183.313 799.244 183.356 792.305ZM195.129 821.824H199.899V802.273H205.871V798.191H199.899V782.98H195.129V821.824Z" fill="#747F8F"/>
<path d="M141.879 983H154.469C161.58 983 165.082 979.369 165.082 974.535C165.082 969.809 161.73 967.059 158.422 966.887V966.586C161.473 965.855 163.857 963.75 163.879 959.969C163.857 955.328 160.527 951.891 153.781 951.891H141.879V983ZM147.465 978.316V969.164H153.738C157.219 969.186 159.389 971.312 159.41 974.105C159.389 976.576 157.691 978.316 153.609 978.316H147.465ZM147.465 965.125V956.531H153.223C156.553 956.531 158.271 958.271 158.293 960.656C158.271 963.428 156.037 965.125 153.094 965.125H147.465ZM180.606 957.305V951.117H175.836V957.305C175.815 964.48 172.248 971.914 165.996 974.879L168.918 978.703C173.366 976.469 176.545 972.086 178.243 966.801C179.897 971.742 182.926 975.846 187.137 977.973L190.059 974.148C184.043 971.248 180.563 964.244 180.606 957.305ZM192.379 986.824H197.149V967.273H203.121V963.191H197.149V947.98H192.379V986.824Z" fill="#747F8F"/>
<rect x="253" y="567" width="4" height="470" fill="#AFBACB"/>
<rect x="257" y="602" width="200" height="70" fill="#304FFB"/>
<rect x="257" y="766" width="521" height="70" fill="#AFBACB"/>
<rect x="257" y="931" width="433" height="70" fill="#AFBACB"/>
<path d="M501.792 654.458C509.256 654.458 514.34 649.672 514.34 642.963C514.34 636.598 509.806 632.041 503.715 632.064C500.807 632.041 498.288 633.232 497.075 634.858H496.8L497.716 626.477H512.462V620.845H492.037L490.251 639.941H496.48C497.464 638.086 499.204 637.147 501.7 637.147C505.181 637.17 507.676 639.62 507.653 643.147C507.676 646.604 505.226 649.031 501.792 649.008C498.907 649.031 496.548 647.245 496.388 644.658H489.702C489.816 650.382 494.877 654.458 501.792 654.458ZM517.054 648.138H533.174V654H539.723V648.138H543.936V642.597H539.723V620.845H531.068L517.054 642.689V648.138ZM524.015 642.597V642.322L532.945 628.401H533.266V642.597H524.015ZM553.749 650.611H547.246L544.956 663.663H549.81L553.749 650.611ZM569.881 654.458C578.17 654.458 583.208 648.321 583.208 637.422C583.208 626.592 578.147 620.387 569.881 620.387C561.615 620.387 556.555 626.592 556.555 637.422C556.555 648.276 561.57 654.458 569.881 654.458ZM563.608 637.422C563.608 629.843 566.058 626.042 569.881 626.019C573.705 626.042 576.178 629.843 576.155 637.422C576.178 645.07 573.728 648.779 569.881 648.779C566.035 648.779 563.562 645.07 563.608 637.422ZM599.432 654.458C607.721 654.458 612.758 648.321 612.758 637.422C612.758 626.592 607.698 620.387 599.432 620.387C591.166 620.387 586.106 626.592 586.106 637.422C586.106 648.276 591.12 654.458 599.432 654.458ZM593.158 637.422C593.158 629.843 595.608 626.042 599.432 626.019C603.256 626.042 605.729 629.843 605.706 637.422C605.729 645.07 603.279 648.779 599.432 648.779C595.585 648.779 593.112 645.07 593.158 637.422ZM628.982 654.458C637.271 654.458 642.309 648.321 642.309 637.422C642.309 626.592 637.248 620.387 628.982 620.387C620.716 620.387 615.656 626.592 615.656 637.422C615.656 648.276 620.671 654.458 628.982 654.458ZM622.709 637.422C622.709 629.843 625.159 626.042 628.982 626.019C632.806 626.042 635.279 629.843 635.256 637.422C635.279 645.07 632.829 648.779 628.982 648.779C625.136 648.779 622.663 645.07 622.709 637.422ZM679.599 616.586H673.737V640.765H665.769V644.749H673.737V648.047H679.599V616.586ZM644.153 635.041L644.84 639.666C648 639.666 651.549 639.643 655.282 639.506V645.024H649.466V657.48H680.515V652.809H655.282V647.085H661.143V639.162C664.509 638.911 667.921 638.521 671.218 637.972L670.898 633.804C662.082 634.881 651.778 634.995 644.153 635.041ZM647.222 625.47C647.222 629.935 651.503 632.82 657.709 632.797C663.754 632.82 668.081 629.935 668.104 625.47C668.081 621.028 663.754 617.982 657.709 618.005C651.503 617.982 647.222 621.028 647.222 625.47ZM652.763 625.47C652.74 623.409 654.732 622.264 657.709 622.264C660.502 622.264 662.517 623.409 662.563 625.47C662.517 627.485 660.502 628.607 657.709 628.584C654.732 628.607 652.74 627.485 652.763 625.47Z" fill="#304FFB"/>
<path d="M815.918 789.547H812.121L805.793 793.695V797.387L811.875 793.414H812.016V815H815.918V789.547ZM831.246 815.352C837.135 815.352 840.58 810.605 840.598 802.273C840.58 793.994 837.082 789.195 831.246 789.195C825.393 789.195 821.895 793.994 821.895 802.273C821.895 810.605 825.357 815.352 831.246 815.352ZM825.762 802.273C825.762 795.945 827.818 792.482 831.246 792.465C834.656 792.482 836.73 795.945 836.73 802.273C836.73 808.619 834.674 812.012 831.246 812.012C827.801 812.012 825.744 808.619 825.762 802.273ZM844.605 815H861.727V811.695H849.984V811.484L855.152 806.246C859.934 801.553 861.27 799.285 861.305 796.438C861.27 792.307 857.877 789.195 852.973 789.195C848.121 789.195 844.57 792.271 844.605 796.93H848.262C848.279 794.223 850.072 792.43 852.902 792.43C855.574 792.43 857.613 794.029 857.613 796.543C857.613 798.775 856.225 800.393 853.43 803.293L844.605 812.188V815ZM870.586 812.574H866.648L864.785 822.277H867.773L870.586 812.574ZM883.559 815.352C889.447 815.352 892.893 810.605 892.91 802.273C892.893 793.994 889.395 789.195 883.559 789.195C877.705 789.195 874.207 793.994 874.207 802.273C874.207 810.605 877.67 815.352 883.559 815.352ZM878.074 802.273C878.074 795.945 880.131 792.482 883.559 792.465C886.969 792.482 889.043 795.945 889.043 802.273C889.043 808.619 886.986 812.012 883.559 812.012C880.113 812.012 878.057 808.619 878.074 802.273ZM905.777 815.352C911.666 815.352 915.111 810.605 915.129 802.273C915.111 793.994 911.613 789.195 905.777 789.195C899.924 789.195 896.426 793.994 896.426 802.273C896.426 810.605 899.889 815.352 905.777 815.352ZM900.293 802.273C900.293 795.945 902.35 792.482 905.777 792.465C909.188 792.482 911.262 795.945 911.262 802.273C911.262 808.619 909.205 812.012 905.777 812.012C902.332 812.012 900.275 808.619 900.293 802.273ZM927.996 815.352C933.885 815.352 937.33 810.605 937.348 802.273C937.33 793.994 933.832 789.195 927.996 789.195C922.143 789.195 918.645 793.994 918.645 802.273C918.645 810.605 922.107 815.352 927.996 815.352ZM922.512 802.273C922.512 795.945 924.568 792.482 927.996 792.465C931.406 792.482 933.48 795.945 933.48 802.273C933.48 808.619 931.424 812.012 927.996 812.012C924.551 812.012 922.494 808.619 922.512 802.273ZM966.457 786.523H963.117V805.016H956.789V807.371H963.117V810.395H966.457V786.523ZM940.125 800.902L940.547 803.574C943.096 803.574 946.031 803.574 949.09 803.451V809.41H952.43V803.275C955.207 803.082 958.037 802.801 960.727 802.344L960.516 799.953C953.801 800.797 945.943 800.85 940.125 800.902ZM942.586 793.273C942.568 796.631 945.768 798.758 950.426 798.758C955.031 798.758 958.23 796.631 958.23 793.273C958.23 789.934 955.031 787.719 950.426 787.719C945.75 787.719 942.568 789.934 942.586 793.273ZM944.484 817.32H967.23V814.613H947.789V808.074H944.484V817.32ZM945.75 793.273C945.732 791.393 947.631 790.18 950.426 790.215C953.115 790.18 955.049 791.393 955.066 793.273C955.049 795.137 953.115 796.297 950.426 796.297C947.631 796.297 945.732 795.137 945.75 793.273Z" fill="#AFBACB"/>
<path d="M731.004 954.195C725.467 954.16 721.863 957.957 721.863 962.809C721.863 967.678 725.52 971.176 730.09 971.176C732.832 971.176 735.223 969.875 736.594 967.73H736.91C736.875 973.549 734.572 976.959 730.652 976.977C728.086 976.959 726.434 975.465 725.906 973.32H722.074C722.689 977.451 725.959 980.352 730.652 980.352C736.752 980.352 740.602 975.289 740.602 966.359C740.584 957.043 735.68 954.23 731.004 954.195ZM725.625 962.738C725.607 959.82 727.928 957.43 731.004 957.43C734.115 957.43 736.383 959.943 736.383 962.703C736.383 965.516 734.01 968.029 730.934 968.012C727.84 968.029 725.643 965.691 725.625 962.738ZM753.574 980.352C759.023 980.352 762.908 977.363 762.926 973.215C762.908 969.945 760.553 967.273 757.582 966.816V966.676C760.148 966.078 761.924 963.758 761.941 960.98C761.924 957.061 758.373 954.195 753.574 954.195C748.705 954.195 745.172 957.061 745.172 960.98C745.172 963.758 746.912 966.078 749.531 966.676V966.816C746.525 967.273 744.188 969.945 744.223 973.215C744.188 977.363 748.037 980.352 753.574 980.352ZM748.16 972.934C748.107 970.314 750.41 968.398 753.574 968.398C756.703 968.398 758.988 970.314 758.988 972.934C758.988 975.43 756.879 977.152 753.574 977.152C750.217 977.152 748.107 975.43 748.16 972.934ZM748.934 961.332C748.951 958.959 750.779 957.342 753.574 957.359C756.299 957.342 758.162 958.959 758.145 961.332C758.162 963.723 756.229 965.357 753.574 965.34C750.85 965.357 748.951 963.705 748.934 961.332ZM770.73 977.574H766.793L764.93 987.277H767.918L770.73 977.574ZM783.703 980.352C789.592 980.352 793.037 975.605 793.055 967.273C793.037 958.994 789.539 954.195 783.703 954.195C777.85 954.195 774.352 958.994 774.352 967.273C774.352 975.605 777.814 980.352 783.703 980.352ZM778.219 967.273C778.219 960.945 780.275 957.482 783.703 957.465C787.113 957.482 789.188 960.945 789.188 967.273C789.188 973.619 787.131 977.012 783.703 977.012C780.258 977.012 778.201 973.619 778.219 967.273ZM805.922 980.352C811.811 980.352 815.256 975.605 815.273 967.273C815.256 958.994 811.758 954.195 805.922 954.195C800.068 954.195 796.57 958.994 796.57 967.273C796.57 975.605 800.033 980.352 805.922 980.352ZM800.438 967.273C800.438 960.945 802.494 957.482 805.922 957.465C809.332 957.482 811.406 960.945 811.406 967.273C811.406 973.619 809.35 977.012 805.922 977.012C802.477 977.012 800.42 973.619 800.438 967.273ZM828.141 980.352C834.029 980.352 837.475 975.605 837.492 967.273C837.475 958.994 833.977 954.195 828.141 954.195C822.287 954.195 818.789 958.994 818.789 967.273C818.789 975.605 822.252 980.352 828.141 980.352ZM822.656 967.273C822.656 960.945 824.713 957.482 828.141 957.465C831.551 957.482 833.625 960.945 833.625 967.273C833.625 973.619 831.568 977.012 828.141 977.012C824.695 977.012 822.639 973.619 822.656 967.273ZM866.602 951.523H863.262V970.016H856.934V972.371H863.262V975.395H866.602V951.523ZM840.27 965.902L840.691 968.574C843.24 968.574 846.176 968.574 849.234 968.451V974.41H852.574V968.275C855.352 968.082 858.182 967.801 860.871 967.344L860.66 964.953C853.945 965.797 846.088 965.85 840.27 965.902ZM842.73 958.273C842.713 961.631 845.912 963.758 850.57 963.758C855.176 963.758 858.375 961.631 858.375 958.273C858.375 954.934 855.176 952.719 850.57 952.719C845.895 952.719 842.713 954.934 842.73 958.273ZM844.629 982.32H867.375V979.613H847.934V973.074H844.629V982.32ZM845.895 958.273C845.877 956.393 847.775 955.18 850.57 955.215C853.26 955.18 855.193 956.393 855.211 958.273C855.193 960.137 853.26 961.297 850.57 961.297C847.775 961.297 845.877 960.137 845.895 958.273Z" fill="#AFBACB"/>
<line x1="49.75" y1="488.25" x2="1014.25" y2="488.25" stroke="#6C7076" stroke-width="1.5" stroke-linecap="round" stroke-dasharray="12 12"/>
<g clip-path="url(#clip0_33_1001)">
<path d="M351.726 326.075C357.088 319.591 361.395 312.345 365.837 305.21C368.686 300.634 371.446 295.967 374.205 291.345C375.619 288.967 377.526 286.499 376.875 283.583C376.449 281.721 374.318 280.621 372.523 281.115C369.741 281.878 368.417 284.884 367.049 287.15C364.267 291.772 361.485 296.393 358.793 301.082C354.597 308.351 350.267 315.575 347.082 323.36C346.05 325.895 349.998 328.139 351.726 326.052V326.075Z" fill="#2E313F"/>
<path d="M721.634 323.36C718.448 315.575 714.119 308.351 709.923 301.082C707.231 296.393 704.427 291.794 701.667 287.15C700.299 284.862 698.975 281.855 696.193 281.115C694.421 280.621 692.267 281.721 691.841 283.583C691.168 286.477 693.074 288.967 694.51 291.345C697.292 295.989 700.029 300.634 702.879 305.21C707.298 312.322 711.628 319.591 716.99 326.075C718.695 328.139 722.666 325.918 721.634 323.383V323.36Z" fill="#2E313F"/>
<path d="M752.729 112H311.769C309.687 112 308 113.687 308 115.769V282.304C308 284.386 309.687 286.073 311.769 286.073H752.729C754.811 286.073 756.498 284.386 756.498 282.304V115.769C756.498 113.687 754.811 112 752.729 112Z" fill="#5973FF"/>
<path d="M747.882 277.414H316.592V120.683H747.882V277.414ZM319.306 274.676H745.168V123.397H319.329V274.676H319.306Z" fill="#304FFB"/>
<path d="M534.167 122.051H531.43V276.045H534.167V122.051Z" fill="#304FFB"/>
<path d="M447.904 132.82H396.506V135.557H447.904V132.82Z" fill="#304FFB"/>
<path d="M664.717 132.82H613.318V135.557H664.717V132.82Z" fill="#304FFB"/>
<path d="M496.588 231.152H347.844V233.889H496.588V231.152Z" fill="#304FFB"/>
<path d="M496.588 246.453H347.844V249.19H496.588V246.453Z" fill="#304FFB"/>
<path d="M496.588 238.735H347.844V241.472H496.588V238.735Z" fill="#304FFB"/>
</g>
</g>
<defs>
<filter id="filter0_dd_33_1001" x="0" y="0" width="1064" height="1147" filterUnits="userSpaceOnUse" color-interpolation-filters="sRGB">
<feFlood flood-opacity="0" result="BackgroundImageFix"/>
<feColorMatrix in="SourceAlpha" type="matrix" values="0 0 0 0 0 0 0 0 0 0 0 0 0 0 0 0 0 0 127 0" result="hardAlpha"/>
<feMorphology radius="2" operator="erode" in="SourceAlpha" result="effect1_dropShadow_33_1001"/>
<feOffset dy="4"/>
<feGaussianBlur stdDeviation="3"/>
<feComposite in2="hardAlpha" operator="out"/>
<feColorMatrix type="matrix" values="0 0 0 0 0 0 0 0 0 0 0 0 0 0 0 0 0 0 0.05 0"/>
<feBlend mode="normal" in2="BackgroundImageFix" result="effect1_dropShadow_33_1001"/>
<feColorMatrix in="SourceAlpha" type="matrix" values="0 0 0 0 0 0 0 0 0 0 0 0 0 0 0 0 0 0 127 0" result="hardAlpha"/>
<feMorphology radius="3" operator="erode" in="SourceAlpha" result="effect2_dropShadow_33_1001"/>
<feOffset dy="10"/>
<feGaussianBlur stdDeviation="7.5"/>
<feComposite in2="hardAlpha" operator="out"/>
<feColorMatrix type="matrix" values="0 0 0 0 0 0 0 0 0 0 0 0 0 0 0 0 0 0 0.1 0"/>
<feBlend mode="normal" in2="effect1_dropShadow_33_1001" result="effect2_dropShadow_33_1001"/>
<feBlend mode="normal" in="SourceGraphic" in2="effect2_dropShadow_33_1001" result="shape"/>
</filter>
<clipPath id="clip0_33_1001">
<rect width="448.498" height="214.882" fill="white" transform="translate(308 112)"/>
</clipPath>
</defs>
</svg>
