<svg width="671" height="901" viewBox="0 0 671 901" fill="none" xmlns="http://www.w3.org/2000/svg">
<rect x="6.80225" width="587.996" height="878.377" rx="33.0683" fill="#F4F5F8"/>
<line x1="6.80225" y1="98.8959" x2="593.765" y2="98.8959" stroke="#EBEBEB" stroke-width="1.25219"/>
<path d="M76.556 170.724H72.8569V201.124H76.556V185.319H79.9524V182.158H76.556V170.724ZM52.0075 193.961H60.7508V173.515H57.657V180.812H55.1013V173.515H52.0075V193.961ZM55.1013 190.901V183.772H57.657V190.901H55.1013ZM62.1296 193.961H70.8056V173.515H67.7118V180.812H65.1561V173.515H62.1296V193.961ZM65.1561 190.901V183.772H67.7118V190.901H65.1561ZM109.175 194.465H81.3985V197.526H109.175V194.465ZM84.6267 175.903H102.181V179.669H84.694V189.589H106.586V186.63H88.4267V182.662H105.88V172.876H84.6267V175.903ZM135.977 173.515H114.051V176.508H132.21C132.194 180.157 132.194 184.478 131 190.396L134.766 190.8C135.943 184.444 135.943 180.224 135.977 176.441V173.515ZM111.159 197.189H138.869V194.129H125.081V183.57H121.382V194.129H111.159V197.189ZM173.069 170.724H169.269V192.649H173.069V182.595H177.306V179.467H173.069V170.724ZM148.991 186.529L150.538 189.488C159.533 186.882 164.813 181.115 164.796 173.044H150.269V176.104H160.71C160.071 180.728 155.952 184.511 148.991 186.529ZM153.531 200.518H174.212V197.492H157.331V190.396H153.531V200.518ZM204.309 170.724H200.576V176.239H196.272V179.266H200.576V182.158H196.272V185.251H200.576V193.188H204.309V170.724ZM178.886 186.092L179.29 189.186C184.132 189.186 190.875 189.068 196.642 188.143L196.474 185.419C195.398 185.537 194.288 185.638 193.144 185.722V176.004H195.835V173.011H179.66V176.004H182.316V186.075C181.106 186.092 179.945 186.092 178.886 186.092ZM184.334 200.518H205.082V197.492H188.1V191.439H184.334V200.518ZM185.948 186.025V176.004H189.546V185.907C188.336 185.958 187.125 186.008 185.948 186.025ZM232.59 170.758H228.857V193.457H232.59V183.402H236.827V180.308H232.59V170.758ZM208.647 177.113H226.672V174.12H219.542V170.724H215.81V174.12H208.647V177.113ZM210.194 184.175C210.194 187.656 213.237 189.926 217.659 189.926C222.048 189.926 225.074 187.656 225.091 184.175C225.074 180.678 222.048 178.358 217.659 178.358C213.237 178.358 210.194 180.678 210.194 184.175ZM213.12 200.518H233.801V197.492H216.852V191.674H213.12V200.518ZM213.826 184.175C213.809 182.326 215.356 181.25 217.659 181.25C219.963 181.25 221.527 182.326 221.527 184.175C221.527 186.008 219.963 187.05 217.659 187.034C215.356 187.05 213.809 186.008 213.826 184.175ZM77.8003 217.724H74.2357V229.628H70.8056V218.296H67.3756V246.577H70.8056V232.621H74.2357V248.124H77.8003V217.724ZM52.5792 241.028H54.6305C58.8677 240.995 62.0455 240.894 65.7278 240.154L65.4588 237.094C62.365 237.665 59.6411 237.834 56.3456 237.867V224.349H63.9455V221.322H52.5792V241.028ZM98.4479 220.751H91.9913V217.455H88.2586V220.751H81.4657V223.71H98.4479V220.751ZM83.0462 230.604C83.0294 233.983 85.9214 236.219 90.0745 236.219C94.2107 236.219 97.1868 233.983 97.2036 230.604C97.1868 227.207 94.2107 224.92 90.0745 224.92C85.9214 224.92 83.0294 227.207 83.0462 230.604ZM86.2409 242.811C86.2409 246.106 90.1922 248.09 96.632 248.09C103.055 248.09 107.006 246.106 107.023 242.811C107.006 239.465 103.055 237.514 96.632 237.531C90.1922 237.514 86.2409 239.465 86.2409 242.811ZM86.5435 230.604C86.5267 228.788 87.9223 227.712 90.0745 227.712C92.2267 227.712 93.7063 228.788 93.7063 230.604C93.7063 232.386 92.2267 233.428 90.0745 233.428C87.9223 233.428 86.5267 232.386 86.5435 230.604ZM90.1754 242.811C90.1586 241.196 92.5293 240.389 96.632 240.389C100.701 240.389 103.021 241.196 103.021 242.811C103.021 244.391 100.701 245.249 96.632 245.232C92.5293 245.249 90.1586 244.391 90.1754 242.811ZM98.616 233.63H103.122V237.195H106.855V217.724H103.122V224.618H98.6496V227.644H103.122V230.637H98.616V233.63ZM137.557 217.724H133.993V248.124H137.557V217.724ZM110.823 238.002L111.26 241.095C115.195 241.079 121.433 240.961 126.124 240.154L125.855 237.363C125.031 237.464 124.14 237.548 123.198 237.615V224.315H125.35V221.255H111.428V224.315H113.581V237.985L110.823 238.002ZM116.943 237.918V224.315H119.835V237.817C118.877 237.85 117.902 237.884 116.943 237.918ZM124.644 235.446H128.041V246.61H131.504V218.363H128.041V226.198H124.644V229.292H128.041V232.386H124.644V235.446ZM166.309 217.724H162.543V248.124H166.309V217.724ZM141.122 239.75L143.072 242.743C153.716 237.682 157.23 229.998 157.23 220.952H142.669V223.912H153.43C152.757 230.822 149.092 235.967 141.122 239.75ZM198.39 230.065H170.681V233.025H182.619V235.311H173.943V238.136H191.261V240.087H173.976V247.855H195.767V244.996H177.642V242.777H194.927V235.311H186.352V233.025H198.39V230.065ZM174.178 228.149H194.826V218.666H174.178V228.149ZM177.844 225.223V221.591H191.093V225.223H177.844ZM234.103 217.724H230.404V228.619H224.217V220.078H220.551V227.644H213.523V220.078H209.757V240.793H224.217V231.68H230.404V248.157H234.103V217.724ZM213.523 237.8V230.57H220.551V237.8H213.523ZM263.696 217.724H259.997V248.157H263.696V217.724ZM240.022 223.407H250.548V228.821H240.056V240.961H242.712C248.177 240.978 252.717 240.776 257.878 239.885L257.542 236.825C252.801 237.615 248.681 237.867 243.889 237.901V231.781H254.348V220.381H240.022V223.407ZM293.524 217.724H289.758V248.124H293.524V217.724ZM268.337 239.75L270.287 242.743C280.931 237.682 284.445 229.998 284.445 220.952H269.884V223.912H280.645C279.972 230.822 276.307 235.967 268.337 239.75Z" fill="#111111"/>
<ellipse cx="453.676" cy="306.527" rx="107.218" ry="16.4349" fill="#D3D3D3"/>
<g clip-path="url(#clip0_208_7192)">
<path d="M394.173 222.191C410.908 219.882 457.887 231.206 457.887 231.206C457.887 231.206 442.375 281.352 440.643 285.727C438.912 290.101 436.54 293.117 429.623 291.792L385.01 283.248L394.174 222.185L394.173 222.191Z" fill="#D1613C"/>
<path d="M389.098 284.037C398.886 262.166 413.236 225.257 396.81 222.111C382.324 219.337 380.992 258.516 381.858 282.651L389.098 284.037Z" fill="#DA7348"/>
<path d="M429.511 255.761C429.459 226.379 428.916 207.459 430.339 193.989C432.183 176.636 451.184 159.165 493.135 167.199C535.085 175.233 539.465 199.482 535.72 214.368C531.976 229.253 505.676 299.489 505.676 299.489L430.528 273.852L429.512 255.755L429.511 255.761Z" fill="#D1613C"/>
<path d="M420.328 256.454C420.517 227.119 425.803 206.311 427.284 192.852C429.184 175.517 444.819 157.946 484.937 165.63C525.056 173.313 529.055 197.489 525.342 212.381C521.636 227.274 495.881 297.614 495.881 297.614L424.106 272.623L420.328 256.454Z" fill="#DA7348"/>
<path d="M402.481 258.221L392.984 284.781L463.178 298.224L466.335 270.45L402.481 258.221Z" fill="#DA7348"/>
<path d="M402.05 258.139C403.346 251.368 413.558 247.947 423.406 248.788C433.255 249.63 462.796 252.895 472.474 260.874C482.145 268.851 489.361 274.86 468.617 270.887L402.05 258.139Z" fill="#DF8058"/>
<path d="M474.783 237.629C487.854 234.618 523.795 243.828 523.795 243.828C523.795 243.828 509.608 294.228 508.079 298.641C506.551 303.054 504.578 306.147 499.272 305.131L465.05 298.577L474.778 237.622L474.783 237.629Z" fill="#D1613C"/>
<path d="M468.364 299.218C478.153 277.347 492.503 240.438 476.077 237.292C461.59 234.518 460.259 273.696 461.124 297.831L468.364 299.218Z" fill="#DA7348"/>
</g>
<path d="M67.0637 300.545C74.6277 300.545 80.7595 294.414 80.7595 286.85C80.7595 279.286 74.6277 273.154 67.0637 273.154C59.4997 273.154 53.3679 279.286 53.3679 286.85C53.3679 294.414 59.4997 300.545 67.0637 300.545Z" fill="#D3D3D3"/>
<path d="M72.3262 280.626C72.048 280.02 71.6458 279.48 71.1455 279.04C70.6035 278.584 69.9796 278.235 69.3071 278.011C68.5466 277.755 67.7482 277.629 66.9457 277.64C66.1736 277.632 65.4067 277.769 64.6856 278.045C64.0117 278.307 63.3978 278.703 62.8808 279.209C62.3398 279.724 61.9094 280.344 61.6158 281.031C61.5607 281.139 61.5156 281.252 61.4809 281.368C61.3935 281.598 61.3632 281.845 61.3926 282.089C61.4219 282.333 61.51 282.566 61.6494 282.768C61.7887 282.971 61.9751 283.136 62.1926 283.251C62.41 283.365 62.652 283.425 62.8977 283.426H63.0495C63.3708 283.427 63.6844 283.327 63.9451 283.139C64.2058 282.951 64.4 282.685 64.5 282.38C64.6066 281.805 64.9115 281.286 65.3615 280.913C65.8115 280.54 66.3781 280.337 66.9626 280.339C67.313 280.332 67.6617 280.389 67.9914 280.508C68.2856 280.632 68.5543 280.809 68.7842 281.031C69.0123 281.242 69.1909 281.501 69.3071 281.79C69.4435 282.097 69.5125 282.431 69.5094 282.768C69.5269 282.942 69.5269 283.117 69.5094 283.291C69.4774 283.479 69.4024 283.658 69.2902 283.814C69.1389 284.04 68.9636 284.249 68.7673 284.438C68.4753 284.754 68.1595 285.047 67.8228 285.315C67.0317 285.913 66.3764 286.671 65.9 287.541C65.7004 288.021 65.5698 288.526 65.512 289.042C65.512 289.245 65.512 289.464 65.512 289.7C65.4882 289.913 65.5098 290.129 65.5753 290.333C65.6409 290.537 65.7489 290.725 65.8923 290.884C66.0357 291.044 66.2113 291.171 66.4074 291.257C66.6035 291.344 66.8157 291.388 67.03 291.387C67.4112 291.388 67.7785 291.243 68.0573 290.983C68.3361 290.723 68.5055 290.367 68.5312 289.987C68.5454 289.588 68.6252 289.195 68.7673 288.823C68.8993 288.568 69.07 288.334 69.2733 288.131C69.5432 287.862 69.8805 287.541 70.3022 287.187C71.1149 286.581 71.7975 285.818 72.3093 284.944C72.6506 284.288 72.8399 283.564 72.8632 282.825C72.8916 281.927 72.7663 281.589 72.4672 280.913L72.3262 280.626Z" fill="white"/>
<path d="M66.9457 292.534C66.4983 292.534 66.0693 292.711 65.753 293.028C65.4367 293.344 65.259 293.773 65.259 294.22C65.2476 294.449 65.2827 294.677 65.3624 294.892C65.442 295.106 65.5644 295.302 65.7222 295.468C65.8799 295.634 66.0698 295.765 66.2801 295.855C66.4905 295.945 66.7169 295.992 66.9457 295.991C67.1745 295.992 67.4009 295.945 67.6112 295.855C67.8216 295.765 68.0114 295.634 68.1691 295.468C68.3269 295.302 68.4494 295.106 68.529 294.892C68.6086 294.677 68.6438 294.449 68.6324 294.22C68.6324 293.773 68.4546 293.344 68.1383 293.028C67.822 292.711 67.393 292.534 66.9457 292.534Z" fill="white"/>
<path d="M104.351 276.875H91.0192V278.78H101.976C101.976 280.149 101.933 281.658 101.526 283.659H88.8364V285.563H96.4547V288.153C92.913 288.377 90.8052 289.672 90.8052 291.769C90.8052 294.123 93.3945 295.45 97.6531 295.45C101.858 295.45 104.437 294.123 104.458 291.769C104.437 289.672 102.329 288.377 98.8086 288.142V285.563H106.513V283.659H103.923C104.362 281.508 104.362 279.796 104.351 278.352V276.875ZM93.2233 291.769C93.2019 290.614 94.7855 290.025 97.6531 290.015C100.456 290.025 102.04 290.614 102.061 291.769C102.04 292.946 100.456 293.545 97.6531 293.545C94.7855 293.545 93.2019 292.946 93.2233 291.769ZM123.29 277.068H109.958V278.972H120.914C120.914 280.385 120.872 281.968 120.412 284.065H107.775V285.991H125.451V284.065H122.819C123.301 281.786 123.301 280.074 123.29 278.566V277.068ZM109.894 295.236H123.268V288.238H109.894V295.236ZM112.226 293.31V290.1H120.914V293.31H112.226ZM136.151 279.208H132.62V276.683H130.266V279.208H126.671V281.112H136.151V279.208ZM127.227 286.633C127.206 289.319 128.993 291.192 131.443 291.192C133.904 291.192 135.659 289.319 135.659 286.633C135.659 284.001 133.904 282.129 131.443 282.139C128.993 282.129 127.206 284.001 127.227 286.633ZM129.325 286.633C129.314 285.114 130.191 284.108 131.443 284.108C132.684 284.108 133.562 285.114 133.562 286.633C133.562 288.196 132.684 289.169 131.443 289.159C130.191 289.169 129.314 288.196 129.325 286.633ZM136.964 294.594H139.19V286.013H141.073V295.471H143.341V276.126H141.073V284.087H139.19V276.533H136.964V294.594ZM163.329 291.17H159.263V286.227C160.761 285.339 161.67 283.98 161.659 282.289C161.67 279.208 158.631 277.175 154.448 277.175C150.286 277.175 147.268 279.208 147.279 282.289C147.268 284.001 148.199 285.392 149.74 286.28V291.17H145.653V293.118H163.329V291.17ZM149.611 282.289C149.601 280.278 151.559 279.047 154.448 279.058C157.326 279.047 159.327 280.278 159.327 282.289C159.327 284.269 157.326 285.531 154.448 285.521C151.559 285.531 149.601 284.269 149.611 282.289ZM152.094 291.17V287.147C152.821 287.297 153.613 287.382 154.448 287.382C155.304 287.382 156.106 287.297 156.845 287.136V291.17H152.094Z" fill="#949494"/>
<g filter="url(#filter0_d_208_7192)">
<rect x="31.8459" y="359.351" width="261.394" height="288.003" rx="25.0437" fill="white"/>
</g>
<g filter="url(#filter1_d_208_7192)">
<rect x="307.327" y="359.351" width="261.394" height="288.003" rx="25.0437" fill="white"/>
</g>
<g clip-path="url(#clip1_208_7192)">
<rect x="301.066" y="584.744" width="273.916" height="76.6964" fill="#E6F0FF"/>
<path d="M531.155 621.415H524.894L535.851 640.198H542.112L531.155 621.415Z" fill="white"/>
<path d="M513.938 591.005H507.677L514.72 601.962H520.981L513.938 591.005Z" fill="white"/>
<path d="M347.241 621.415H353.502L342.545 640.198H336.284L347.241 621.415Z" fill="white"/>
<path d="M364.458 591.005H370.719L363.676 601.962H357.415L364.458 591.005Z" fill="white"/>
<rect x="420.8" y="505.327" width="42.5234" height="34.3459" rx="4.90655" fill="#FDECAB"/>
<g clip-path="url(#clip2_208_7192)">
<path d="M472.963 524.52H439.593C437.908 524.52 436.542 525.886 436.542 527.57V585.505C436.542 587.19 437.908 588.556 439.593 588.556H472.963C474.647 588.556 476.013 587.19 476.013 585.505V527.57C476.013 525.886 474.647 524.52 472.963 524.52Z" fill="#DDDDDD"/>
<path d="M446.371 513.623H404.852C402.964 513.623 401.433 515.154 401.433 517.042V580.429C401.433 582.317 402.964 583.848 404.852 583.848H446.371C448.259 583.848 449.79 582.317 449.79 580.429V517.042C449.79 515.154 448.259 513.623 446.371 513.623Z" fill="#C8C8C8"/>
<mask id="mask0_208_7192" style="mask-type:luminance" maskUnits="userSpaceOnUse" x="401" y="513" width="49" height="71">
<path d="M446.061 513.615H405.161C403.102 513.615 401.433 515.284 401.433 517.343V580.111C401.433 582.17 403.102 583.84 405.161 583.84H446.061C448.121 583.84 449.79 582.17 449.79 580.111V517.343C449.79 515.284 448.121 513.615 446.061 513.615Z" fill="white"/>
</mask>
<g mask="url(#mask0_208_7192)">
<path d="M424.274 513.504H401.389V580.082H424.274V513.504Z" fill="#EAEFFF"/>
<path d="M449.834 513.504H426.949V580.082H449.834V513.504Z" fill="#EAEFFF"/>
</g>
<path d="M493.143 569.596H483.764L479.704 551.176C479.395 549.654 478.726 548.229 477.752 547.02C475.342 544.117 471.776 543.336 468.092 543.336H410.245C406.259 543.336 402.59 543.336 400.085 547.404C399.407 548.544 398.921 549.789 398.648 551.088L394.574 569.633H385.216C382.903 569.633 383.227 573.715 383.227 576.028C383.228 576.848 383.47 577.649 383.922 578.332C384.374 579.016 385.016 579.552 385.769 579.875L389.873 582.004C389.652 582.741 388.399 583.529 388.399 586.425V620.59C388.401 621.596 388.802 622.56 389.513 623.271C390.224 623.983 391.188 624.383 392.194 624.385H485.945C486.443 624.385 486.937 624.287 487.397 624.096C487.857 623.905 488.276 623.626 488.628 623.274C488.98 622.921 489.26 622.503 489.451 622.043C489.641 621.582 489.739 621.089 489.739 620.59V586.425C489.739 583.374 488.531 582.741 488.317 582.004L492.458 579.86C493.229 579.544 493.888 579.007 494.353 578.315C494.817 577.624 495.066 576.81 495.066 575.977C495.133 573.678 495.457 569.596 493.143 569.596Z" fill="#4561FA"/>
<path d="M472.808 631.945H483.764C484.061 631.95 484.355 631.895 484.63 631.784C484.905 631.673 485.154 631.507 485.364 631.298C485.574 631.088 485.739 630.838 485.85 630.563C485.962 630.288 486.016 629.994 486.011 629.698V624.4H470.538V629.698C470.539 629.994 470.599 630.288 470.713 630.561C470.828 630.835 470.996 631.083 471.207 631.292C471.417 631.501 471.667 631.666 471.942 631.778C472.217 631.89 472.511 631.947 472.808 631.945Z" fill="#4A5966"/>
<path d="M394.507 631.945H405.471C406.066 631.943 406.637 631.705 407.058 631.284C407.479 630.863 407.716 630.293 407.718 629.698V624.4H392.245V629.698C392.246 629.994 392.306 630.287 392.42 630.56C392.534 630.833 392.701 631.081 392.911 631.29C393.121 631.498 393.37 631.664 393.644 631.776C393.918 631.888 394.211 631.946 394.507 631.945Z" fill="#4A5966"/>
<path d="M413.768 596.373C413.77 595.528 413.461 594.712 412.899 594.08C412.338 593.448 411.564 593.045 410.725 592.947L399.333 591.621C398.849 591.564 398.359 591.61 397.893 591.756C397.428 591.902 396.999 592.145 396.635 592.468C396.27 592.792 395.978 593.189 395.778 593.633C395.577 594.078 395.473 594.56 395.473 595.047V597.493H413.768V596.373Z" fill="#DB754C"/>
<path d="M398.928 607.351H410.29C411.205 607.349 412.082 606.984 412.729 606.336C413.375 605.688 413.738 604.81 413.738 603.895V597.47H395.473V603.895C395.473 604.812 395.837 605.691 396.485 606.339C397.133 606.987 398.012 607.351 398.928 607.351Z" fill="white"/>
<path d="M466.161 596.373C466.161 595.528 466.472 594.711 467.034 594.08C467.597 593.448 468.372 593.045 469.212 592.947L480.573 591.621C481.057 591.564 481.548 591.61 482.012 591.756C482.477 591.902 482.906 592.145 483.27 592.468C483.634 592.792 483.925 593.189 484.125 593.634C484.324 594.078 484.427 594.56 484.427 595.047V597.493H466.161V596.373Z" fill="#DB754C"/>
<path d="M480.978 607.351H469.617C468.701 607.351 467.822 606.987 467.173 606.339C466.525 605.691 466.161 604.812 466.161 603.895V597.47H484.427V603.895C484.427 604.81 484.064 605.688 483.417 606.336C482.771 606.984 481.894 607.349 480.978 607.351Z" fill="white"/>
<path d="M472.329 574.923H406.643C406.111 574.924 405.585 574.81 405.102 574.588C404.619 574.367 404.189 574.044 403.843 573.64C403.496 573.237 403.241 572.764 403.095 572.253C402.949 571.741 402.914 571.205 402.995 570.679L405.552 553.983C405.685 553.105 406.131 552.304 406.808 551.729C407.485 551.153 408.348 550.842 409.236 550.852H469.765C470.645 550.852 471.497 551.169 472.165 551.743C472.833 552.318 473.272 553.112 473.404 553.983L475.961 570.679C476.042 571.203 476.008 571.739 475.863 572.249C475.717 572.759 475.464 573.232 475.119 573.635C474.774 574.038 474.346 574.361 473.865 574.584C473.383 574.806 472.859 574.922 472.329 574.923Z" fill="#8CB2FF"/>
</g>
</g>
<path d="M141.372 565.595C138.905 554.88 131.821 545.615 122.484 540.021C116.271 536.298 107.377 533.587 99.788 535.073C99.1261 534.402 98.4256 533.77 97.69 533.182C87.4655 525.145 72.3166 527.474 64.9898 538.329C63.9473 539.871 66.1424 541.807 67.2011 540.24C72.5756 532.278 83.0397 528.875 91.8299 532.986C93.5244 533.783 95.1046 534.807 96.5276 536.03C94.0694 536.97 91.8803 538.509 90.156 540.511C86.7759 544.459 85.4776 550.383 88.5598 554.9C91.2697 558.868 96.6539 560.968 101.002 558.401C105.007 556.033 106.237 550.844 105.687 546.471C105.23 543.262 103.962 540.225 102.006 537.653C108.513 536.958 115.86 539.515 120.991 542.552C125.38 545.146 129.203 548.609 132.23 552.733C135.258 556.856 137.427 561.555 138.607 566.546C139.038 568.375 141.793 567.421 141.372 565.595ZM101.582 542.585C103.171 545.997 103.621 550.635 101.501 553.937C99.053 557.744 94.1124 557.072 91.4446 553.874C88.2069 550.004 89.952 544.606 93.2932 541.442C94.861 539.977 96.7454 538.9 98.7972 538.297C99.9137 539.592 100.85 541.035 101.582 542.585Z" fill="#C7DDFF"/>
<path d="M119.023 602.713L118.92 602.664C118.057 602.247 117.02 602.61 116.604 603.472L115.368 606.037C114.952 606.899 115.314 607.936 116.176 608.352L116.28 608.402C117.142 608.818 118.179 608.456 118.595 607.593L119.832 605.029C120.248 604.166 119.886 603.129 119.023 602.713Z" fill="#B18F66"/>
<path d="M124.7 591.809L123.919 591.432L118.432 602.809L119.213 603.186L124.7 591.809Z" fill="#B18F66"/>
<path d="M142.297 588.052L137.109 585.55L117.046 627.153L122.233 629.655L142.297 588.052Z" fill="#4A5966"/>
<path d="M150.974 604.826L118.552 589.19C118.079 588.964 117.673 588.619 117.374 588.188C117.075 587.757 116.894 587.256 116.848 586.733C116.778 586.014 116.965 585.294 117.375 584.699L133.009 562.339C133.419 561.747 134.026 561.32 134.721 561.133C135.416 560.946 136.155 561.012 136.807 561.319L161.433 573.195C162.085 573.509 162.603 574.046 162.893 574.709C163.183 575.372 163.226 576.117 163.014 576.809L162.539 578.397L162.301 579.191L160.528 585.129L160.255 586.033L155.206 602.943C155.081 603.365 154.866 603.756 154.576 604.087C154.285 604.418 153.927 604.682 153.524 604.861C153.122 605.04 152.686 605.13 152.245 605.124C151.805 605.117 151.371 605.016 150.974 604.826Z" fill="#96B265"/>
<path d="M131.908 626.129C129.618 623.597 126.789 621.612 123.629 620.32C120.707 618.764 117.494 617.833 114.193 617.586C111.338 617.444 108.533 618.363 107.51 620.485C107.341 621.012 107.38 621.584 107.619 622.083C107.857 622.583 108.277 622.973 108.792 623.174L130.603 633.693C131.102 633.983 131.695 634.064 132.252 633.917C132.81 633.771 133.287 633.409 133.578 632.911C134.573 630.884 133.57 628.294 131.908 626.129Z" fill="#4A5966"/>
<path fill-rule="evenodd" clip-rule="evenodd" d="M169.82 589.835H241.404L238.16 541.598C237.69 536.304 237.062 532.758 232.54 532.758H178.684C174.162 532.758 173.535 536.304 173.064 541.598L169.82 589.835Z" fill="#C8C8C8"/>
<path fill-rule="evenodd" clip-rule="evenodd" d="M166.54 594.623H244.684C243.438 585.571 230.414 580.812 205.612 580.345C180.81 580.779 167.786 585.539 166.54 594.623Z" fill="#E8E8E8"/>
<path d="M238.088 588.087H173.137C169.447 588.087 166.456 591.078 166.456 594.768V599.157C166.456 602.847 169.447 605.838 173.137 605.838H238.088C241.777 605.838 244.768 602.847 244.768 599.157V594.768C244.768 591.078 241.777 588.087 238.088 588.087Z" fill="#C8C8C8"/>
<path d="M237.256 605.838H173.969V611.554H237.256V605.838Z" fill="#4A5966"/>
<path fill-rule="evenodd" clip-rule="evenodd" d="M172.956 545.409C173.438 540.248 174.065 536.799 178.599 536.799H232.661C237.195 536.799 237.822 540.248 238.304 545.409V541.357C237.822 536.184 237.195 532.735 232.661 532.735H178.599C174.065 532.735 173.438 536.184 172.956 541.357V545.409Z" fill="#DCDCDC"/>
<path fill-rule="evenodd" clip-rule="evenodd" d="M177.261 632.453C176.829 632.453 176.401 632.368 176.001 632.202C175.602 632.037 175.239 631.794 174.933 631.489C174.627 631.183 174.385 630.82 174.219 630.421C174.054 630.021 173.969 629.593 173.969 629.161V608.901H182.41L180.577 629.161C180.579 629.596 180.494 630.026 180.328 630.428C180.161 630.83 179.917 631.195 179.608 631.501C179.299 631.807 178.933 632.049 178.53 632.213C178.127 632.376 177.696 632.458 177.261 632.453Z" fill="#4A5966"/>
<path fill-rule="evenodd" clip-rule="evenodd" d="M233.964 632.453C234.837 632.453 235.674 632.106 236.292 631.489C236.909 630.871 237.256 630.034 237.256 629.161V608.901H228.814L230.635 629.161C230.635 629.596 230.721 630.027 230.889 630.429C231.057 630.831 231.303 631.195 231.612 631.502C231.922 631.808 232.289 632.05 232.693 632.213C233.096 632.376 233.528 632.458 233.964 632.453Z" fill="#4A5966"/>
<path d="M252.329 578.777C246.136 579.53 239.866 578.224 234.487 575.062C229.109 571.9 224.919 567.057 222.565 561.278C220.211 555.5 219.822 549.108 221.46 543.087C223.097 537.067 226.669 531.751 231.625 527.961C236.581 524.171 242.647 522.116 248.886 522.113C255.125 522.11 261.192 524.16 266.152 527.946C271.112 531.731 274.688 537.043 276.331 543.063C277.974 549.082 277.591 555.474 275.242 561.255L252.329 578.777Z" fill="#8FB5FF"/>
<path d="M275.121 561.327C275.121 561.327 257.141 558.144 252.546 577.631C252.546 577.631 252.317 578.536 252.269 578.765H252.329C253.571 577.812 274.928 561.701 275.121 561.327Z" fill="#5980F9"/>
<path d="M262.966 546.338L261.446 546.217L262.471 543.709C262.672 543.239 262.688 542.711 262.515 542.23C262.343 541.75 261.996 541.352 261.543 541.116C261.317 541.017 261.074 540.966 260.828 540.965C260.582 540.964 260.338 541.014 260.112 541.111C259.886 541.208 259.682 541.351 259.513 541.53C259.344 541.71 259.214 541.921 259.131 542.153L257.599 545.904L252.197 545.481L251.461 542.575C251.417 542.441 251.361 542.312 251.292 542.189C251.243 542.089 251.187 541.992 251.124 541.9C251.045 541.813 250.961 541.733 250.87 541.659C250.782 541.576 250.685 541.503 250.581 541.442H250.509C250.422 541.415 250.333 541.394 250.243 541.381C250.132 541.336 250.014 541.307 249.894 541.297C249.777 541.285 249.66 541.285 249.544 541.297C249.447 541.291 249.351 541.291 249.254 541.297H249.182C249.079 541.337 248.982 541.39 248.893 541.454C248.775 541.512 248.666 541.585 248.567 541.671C248.493 541.743 248.429 541.824 248.374 541.912C248.276 542.015 248.195 542.133 248.133 542.262V542.334L246.927 545.071L241.525 544.649L240.596 540.694C240.551 540.453 240.457 540.224 240.319 540.021C240.182 539.818 240.004 539.645 239.797 539.514C239.59 539.383 239.358 539.296 239.116 539.258C238.873 539.22 238.626 539.233 238.389 539.295C237.903 539.454 237.496 539.791 237.249 540.239C237.003 540.687 236.936 541.212 237.062 541.707L237.677 544.336L235.869 544.191C235.379 544.206 234.911 544.401 234.556 544.739C234.201 545.077 233.983 545.534 233.945 546.022C233.906 546.511 234.049 546.997 234.346 547.386C234.643 547.776 235.074 548.043 235.555 548.134L238.618 548.376L241.199 559.41C241.277 559.789 241.473 560.135 241.759 560.397C242.045 560.659 242.406 560.824 242.791 560.869C243.181 560.887 243.568 560.78 243.893 560.563C244.219 560.346 244.466 560.031 244.599 559.663L249.134 549.172H249.399L252.209 560.254C252.287 560.624 252.476 560.962 252.753 561.221C253.029 561.48 253.378 561.647 253.752 561.701C254.143 561.718 254.528 561.61 254.853 561.393C255.178 561.176 255.426 560.862 255.561 560.495L259.854 550.016L262.628 550.233C263.126 550.234 263.607 550.047 263.973 549.71C264.34 549.372 264.566 548.909 264.605 548.412C264.645 547.916 264.496 547.422 264.187 547.031C263.879 546.64 263.434 546.379 262.942 546.301L262.966 546.338ZM243.418 553.031L242.405 548.653L245.214 548.882L243.418 553.031ZM254.331 553.899L253.222 549.521L256.032 549.738L254.331 553.899Z" fill="white"/>
<path d="M72.3372 422.062H68.8154V437.14H72.3372V422.062ZM51.4817 434.031L53.2976 436.754C56.2416 435.778 58.2776 433.81 59.4195 431.334C60.5475 433.604 62.5148 435.406 65.3212 436.287L67.1096 433.563C63.0238 432.325 61.1528 429.271 61.1391 426.327H66.1741V423.52H52.4172V426.327H57.5623C57.5348 429.449 55.6226 432.696 51.4817 434.031ZM55.1135 441.047H68.8154V447.1H72.3372V438.24H55.1135V441.047ZM96.8246 422.062H93.3303V427.675H89.3683V430.536H93.3303V435.764H96.8246V422.062ZM75.5839 433.453L77.3723 436.204C80.33 435.241 82.3248 433.233 83.4391 430.729C84.5259 432.971 86.4381 434.773 89.2032 435.681L90.9366 432.985C87.1534 431.733 85.3513 428.844 85.2 426.052H90.1662V423.19H76.5744V426.052H81.5956C81.4168 429.106 79.5321 432.132 75.5839 433.453ZM80.1236 446.824H96.8246V436.727H93.3303V439.093H83.5904V436.727H80.1236V446.824ZM83.5904 444.018V441.789H93.3303V444.018H83.5904ZM127.695 422.062H124.228V430.894H119.579V423.988H116.139V430.069H110.994V423.988H107.5V441.212H119.579V433.728H124.228V447.155H127.695V422.062ZM110.994 438.405V432.82H116.139V438.405H110.994ZM143.901 423.218H132.097V425.886H140.462V427.537H132.18V434.581H134.326C139.898 434.581 142.979 434.471 146.515 433.893L146.184 431.279C142.993 431.761 140.283 431.857 135.647 431.884V430.014H143.901V423.218ZM135.069 438.68H148.275V440.111H135.124V446.935H152.568V444.238H138.673V442.642H151.88V436.012H135.069V438.68ZM148.358 435.131H151.88V422.062H148.358V435.131ZM176.972 422.062H173.671V447.1H176.972V422.062ZM154.961 439.423L156.942 441.9C160.505 439.836 162.83 437.36 164.261 434.498H168.361V445.999H171.635V422.612H168.361V431.719H165.348C165.953 429.656 166.215 427.427 166.215 425.034H156.337V427.867H162.734C162.253 432.779 160.024 436.424 154.961 439.423ZM202.533 441.294H197.443V435.09C199.327 433.92 200.456 432.173 200.469 430.014C200.456 425.955 196.452 423.286 191.032 423.273C185.584 423.286 181.622 425.955 181.622 430.014C181.622 432.215 182.792 433.989 184.731 435.159V441.294H179.614V444.183H202.533V441.294ZM185.089 430.014C185.089 427.496 187.441 426.038 191.032 426.052C194.568 426.038 196.989 427.496 197.003 430.014C196.989 432.462 194.568 433.976 191.032 433.976C187.441 433.976 185.089 432.462 185.089 430.014ZM188.198 441.294V436.438C189.079 436.603 190.028 436.699 191.032 436.699C192.036 436.699 192.999 436.603 193.893 436.424V441.294H188.198Z" fill="#111111"/>
<path d="M58.6109 389.052V388.817H62.6768V386.912H52.0412V388.817H56.2141V389.052C56.1927 391.588 54.5342 394.103 51.4206 395.151L52.6404 396.992C54.9301 396.221 56.5779 394.627 57.4446 392.626C58.3327 394.466 59.9269 395.922 62.1204 396.628L63.3402 394.787C60.2586 393.824 58.6109 391.438 58.6109 389.052ZM54.1811 400.18H64.988V405.038H67.3847V398.254H54.1811V400.18ZM64.988 397.355H67.3847V385.693H64.988V397.355ZM86.409 385.693H84.0337V390.144H80.6953V392.112H84.0337V396.243H86.409V385.693ZM70.1667 394.702L71.3865 396.585C73.6869 395.804 75.2919 394.178 76.1372 392.155C76.9825 393.974 78.5126 395.44 80.6739 396.178L81.8723 394.338C78.8978 393.343 77.3356 390.946 77.3142 388.624H81.3159V386.677H70.8729V388.624H74.896C74.8746 391.171 73.2268 393.675 70.1667 394.702ZM73.6548 404.802H86.409V397.056H84.0337V399.067H76.0302V397.056H73.6548V404.802ZM76.0302 402.877V400.929H84.0337V402.877H76.0302ZM105.369 385.693H103.015V392.626H99.0776V387.191H96.7451V392.005H92.2725V387.191H89.8758V400.373H99.0776V394.573H103.015V405.059H105.369V385.693ZM92.2725 398.468V393.867H96.7451V398.468H92.2725ZM124.201 385.714H121.804V397.184H124.201V385.714ZM109.071 388.731H115.641V390.636H109.114V396.414H110.762C114.507 396.425 117.128 396.318 120.178 395.836L119.878 393.91C117.118 394.37 114.753 394.466 111.447 394.466V392.455H117.995V386.848H109.071V388.731ZM111.361 404.802H124.201V398.083H111.361V404.802ZM113.715 402.877V399.988H121.868V402.877H113.715Z" fill="#595959"/>
<path d="M348.506 422.062H345.177V431.719H342.756V422.475H339.537V445.889H342.756V434.526H345.177V447.1H348.506V422.062ZM327.568 441.432H329.301C332.603 441.418 335.272 441.322 338.326 440.744L338.078 437.882C335.657 438.309 333.511 438.447 331.09 438.488V427.785H336.895V424.951H327.568V441.432ZM372.168 422.09H368.646V440.359H372.168V422.09ZM351.12 434.168L352.936 436.947C355.866 435.943 357.861 433.879 358.989 431.32C360.103 433.7 362.043 435.571 364.877 436.507L366.665 433.755C362.552 432.435 360.777 429.202 360.805 425.886V423.465H357.146V425.886C357.146 429.284 355.316 432.765 351.12 434.168ZM355.385 446.659H372.828V443.853H358.934V438.598H355.385V446.659ZM403.176 422.062H399.709V430.894H395.06V423.988H391.62V430.069H386.475V423.988H382.981V441.212H395.06V433.728H399.709V447.155H403.176V422.062ZM386.475 438.405V432.82H391.62V438.405H386.475ZM427.498 422.062H424.004V427.372H419.795V430.234H424.004V434.168H419.712V437.057H424.004V447.155H427.498V422.062ZM407.221 426.932H415.035V431.059H407.276V441.542H409.257C413.109 441.556 416.3 441.473 420.042 440.882L419.767 438.02C416.603 438.502 413.865 438.639 410.77 438.667V433.783H418.474V424.153H407.221V426.932ZM453.582 435.874H430.745V438.68H440.375V447.1H443.842V438.68H453.582V435.874ZM431.873 431.664L433.166 434.416C437.527 433.824 440.65 431.953 442.177 429.381C443.69 431.953 446.841 433.824 451.243 434.416L452.509 431.664C447.363 431.045 444.598 428.597 444.241 426.134H451.546V423.383H432.809V426.134H440.114C439.742 428.597 436.936 431.045 431.873 431.664ZM463.129 428.363V424.208H459.717V428.528C459.717 432.765 458.341 437.181 454.627 439.478L456.773 442.065C459.043 440.689 460.543 438.309 461.437 435.475C462.235 438.034 463.597 440.207 465.77 441.514L467.669 438.79C464.243 436.603 463.115 432.421 463.129 428.363ZM465.027 433.37H468.274V445.944H471.548V422.42H468.274V430.509H465.027V433.37ZM473.447 447.1H476.803V422.062H473.447V447.1ZM502.364 441.294H497.274V435.09C499.158 433.92 500.286 432.173 500.3 430.014C500.286 425.955 496.283 423.286 490.863 423.273C485.415 423.286 481.453 425.955 481.453 430.014C481.453 432.215 482.622 433.989 484.562 435.159V441.294H479.445V444.183H502.364V441.294ZM484.92 430.014C484.92 427.496 487.272 426.038 490.863 426.052C494.398 426.038 496.82 427.496 496.833 430.014C496.82 432.462 494.398 433.976 490.863 433.976C487.272 433.976 484.92 432.462 484.92 430.014ZM488.029 441.294V436.438C488.909 436.603 489.859 436.699 490.863 436.699C491.867 436.699 492.83 436.603 493.724 436.424V441.294H488.029Z" fill="#111111"/>
<path d="M343.358 385.693H341.068V393.311H338.928V386.056H336.703V404.053H338.928V395.258H341.068V405.038H343.358V385.693ZM327.586 400.223H328.87C330.914 400.223 333.129 400.084 335.74 399.624L335.504 397.548C333.471 397.944 331.652 398.094 329.983 398.126V387.918H327.586V400.223ZM361.89 385.693H359.515V389.908H356.048V391.856H359.515V395.173H355.984V397.12H359.515V405.059H361.89V385.693ZM346.333 389.266H352.624V392.733H346.397V400.672H347.895C350.901 400.672 353.362 400.608 356.326 400.137L356.134 398.19C353.523 398.575 351.308 398.693 348.751 398.704V394.595H354.957V387.362H346.333V389.266ZM380.337 394.766H369.123V389.309H380.187V387.383H366.769V396.671H380.337V394.766ZM364.629 402.577H382.305V400.608H364.629V402.577ZM399.682 385.714H397.285V397.184H399.682V385.714ZM384.552 388.731H391.122V390.636H384.595V396.414H386.243C389.988 396.425 392.609 396.318 395.659 395.836L395.359 393.91C392.599 394.37 390.234 394.466 386.928 394.466V392.455H393.476V386.848H384.552V388.731ZM386.842 404.802H399.682V398.083H386.842V404.802ZM389.196 402.877V399.988H397.349V402.877H389.196Z" fill="#595959"/>
<path fill-rule="evenodd" clip-rule="evenodd" d="M531.284 69.852C530.855 69.852 530.228 70.2926 530.228 71.2433C530.228 72.194 530.855 72.6346 531.284 72.6346H556.029C556.382 72.6346 556.681 72.4721 556.889 72.2183C557.114 71.9424 557.146 71.6705 557.117 71.5421C557.096 71.4439 557.085 71.3438 557.085 71.2433C557.085 70.2926 556.458 69.852 556.029 69.852H531.284ZM527.445 71.2433C527.445 69.1022 528.993 67.0693 531.284 67.0693H556.029C558.268 67.0693 559.798 69.0124 559.865 71.1C560.216 73.184 558.466 75.4172 556.029 75.4172H531.284C528.993 75.4172 527.445 73.3844 527.445 71.2433Z" fill="#111111"/>
<path fill-rule="evenodd" clip-rule="evenodd" d="M537.855 47.1149C537.841 47.0092 537.834 46.8901 537.834 46.7561C537.834 43.5497 540.471 40.9126 543.677 40.9126C546.884 40.9126 549.521 43.5497 549.521 46.7561C549.521 46.9094 549.511 47.0432 549.492 47.1598C553.603 49.3005 556.456 53.6147 556.456 58.5091V69.7229H553.848V58.5091C553.848 52.9704 549.216 48.3384 543.677 48.3384C538.119 48.3384 533.506 52.7289 533.506 58.5091V69.7229H530.899V58.5091C530.899 53.4246 533.753 49.1936 537.855 47.1149ZM546.663 46.0918C546.354 44.7331 545.119 43.6952 543.677 43.6952C542.24 43.6952 541.01 44.7256 540.694 46.0769C541.654 45.85 542.653 45.7306 543.677 45.7306C544.703 45.7306 545.703 45.8559 546.663 46.0918Z" fill="#111111"/>
<path fill-rule="evenodd" clip-rule="evenodd" d="M539.225 73.748C539.993 73.748 540.616 74.371 540.616 75.1394C540.616 76.8753 541.941 78.2003 543.677 78.2003C545.413 78.2003 546.738 76.8753 546.738 75.1394C546.738 74.371 547.361 73.748 548.129 73.748C548.898 73.748 549.521 74.371 549.521 75.1394C549.521 78.4121 546.95 80.9829 543.677 80.9829C540.404 80.9829 537.834 78.4121 537.834 75.1394C537.834 74.371 538.456 73.748 539.225 73.748Z" fill="#111111"/>
<path d="M58.5772 59.7029H38.2781V62.222H46.8624V63.8606C42.9126 64.1418 40.6015 65.5359 40.6015 67.847C40.6015 70.4272 43.5241 71.8702 48.4032 71.8579C53.2089 71.8702 56.1315 70.4272 56.156 67.847C56.1315 65.5481 53.8326 64.1541 49.9684 63.8728V62.222H58.5772V59.7029ZM39.183 56.4257L40.2102 58.8714C44.429 58.4801 47.2293 56.8782 48.4032 54.726C49.5893 56.8904 52.4141 58.4679 56.6207 58.8714L57.7212 56.4257C53.4902 56.0589 51.2279 54.5548 50.6899 53.0018H56.7429V50.5561H40.1368V53.0018H46.1409C45.5784 54.5425 43.3039 56.0589 39.183 56.4257ZM43.7808 67.847C43.7686 66.722 45.3216 66.184 48.4032 66.1595C51.4236 66.184 53.0133 66.722 53.0255 67.847C53.0133 68.9231 51.4236 69.5101 48.4032 69.5101C45.3216 69.5101 43.7686 68.9231 43.7808 67.847ZM77.8491 50.8985H62.2457V53.3931H74.7431C74.7309 55.3129 74.682 57.5018 74.1072 60.3633H59.9223V62.8823H68.4088V71.8824H71.5393V62.8823H80.2214V60.3633H77.2744C77.8369 57.245 77.8369 54.9828 77.8491 52.9039V50.8985ZM100.031 51.9257H95.5803V49.5044H92.4254V51.9257H87.9498V54.3713H92.4254C92.4009 56.8904 90.7501 59.4339 87.1916 60.4611L88.659 62.8823C91.2881 62.1241 93.0735 60.4978 94.0395 58.4434C95.0545 60.2532 96.8276 61.6595 99.3711 62.2953L100.814 59.8986C97.2311 58.9814 95.5681 56.6581 95.5314 54.3713H100.031V51.9257ZM90.8357 67.6025C90.8357 70.3049 93.7705 71.8702 98.4906 71.8579C103.235 71.8702 106.158 70.3049 106.17 67.6025C106.158 64.9367 103.235 63.4326 98.4906 63.4203C93.7705 63.4326 90.8357 64.9367 90.8357 67.6025ZM93.9417 67.6025C93.9417 66.4163 95.5436 65.8171 98.4906 65.8171C101.499 65.8171 103.052 66.4163 103.064 67.6025C103.052 68.8253 101.499 69.4856 98.4906 69.4856C95.5436 69.4856 93.9417 68.8253 93.9417 67.6025ZM99.3711 58.0643H102.991V63.0535H106.097V49.6023H102.991V55.5697H99.3711V58.0643ZM128.279 49.6023H125.344V71.8579H128.279V49.6023ZM108.64 65.0345L110.474 67.2356C114.632 64.7655 116.907 61.6717 117.946 57.9909H120.673V61.0236H117.518V63.5426H120.673V70.8797H123.632V50.0914H120.673V55.4719H118.46C118.594 54.4325 118.667 53.3564 118.667 52.2436H109.936V54.7627H115.561C115.133 59.1282 113.152 62.3687 108.64 65.0345ZM138.82 54.836V54.6648H143.32V52.2191H138.869V49.749H135.714V52.2191H131.238V54.6648H135.714V54.836C135.714 57.5507 134.1 60.2532 130.48 61.3415L131.996 63.7872C134.577 62.9801 136.337 61.3293 137.328 59.2382C138.331 61.1703 140.092 62.6989 142.586 63.4203L144.078 60.9991C140.458 59.8986 138.832 57.3428 138.82 54.836ZM134.613 71.4666H149.923V68.972H137.744V64.7166H134.613V71.4666ZM142.586 58.6268H146.279V66.135H149.385V49.6267H146.279V56.1078H142.586V58.6268ZM172.644 66.8198H163.961V63.4693H170.809V60.9258H157.749V58.4312H170.296V51.0452H154.594V53.5398H167.214V55.9855H154.619V63.4693H160.855V66.8198H152.271V69.3878H172.644V66.8198ZM188.051 51.9012H184.578L180.201 54.6893V57.942L184.261 55.3985H184.358V69.6079H188.051V51.9012ZM199.032 69.8525C203.459 69.8525 206.149 66.5753 206.149 60.7546C206.149 54.9705 203.447 51.6566 199.032 51.6566C194.618 51.6566 191.915 54.9705 191.915 60.7546C191.915 66.5508 194.594 69.8525 199.032 69.8525ZM195.682 60.7546C195.682 56.707 196.99 54.6771 199.032 54.6648C201.075 54.6771 202.395 56.707 202.383 60.7546C202.395 64.8388 201.087 66.8198 199.032 66.8198C196.978 66.8198 195.657 64.8388 195.682 60.7546ZM215.565 69.8525C219.992 69.8525 222.682 66.5753 222.682 60.7546C222.682 54.9705 219.98 51.6566 215.565 51.6566C211.151 51.6566 208.448 54.9705 208.448 60.7546C208.448 66.5508 211.126 69.8525 215.565 69.8525ZM212.215 60.7546C212.215 56.707 213.523 54.6771 215.565 54.6648C217.607 54.6771 218.928 56.707 218.916 60.7546C218.928 64.8388 217.62 66.8198 215.565 66.8198C213.511 66.8198 212.19 64.8388 212.215 60.7546Z" fill="#333333"/>
<path d="M245.105 66.3632C245.728 67.0759 246.837 67.0759 247.461 66.3632L254.968 57.7836C255.854 56.7715 255.135 55.1876 253.79 55.1876H238.776C237.431 55.1876 236.712 56.7715 237.598 57.7836L245.105 66.3632Z" fill="#D3D3D3"/>
<g filter="url(#filter2_d_208_7192)">
<rect x="31.6035" y="750.246" width="537.36" height="109.665" rx="25.0664" fill="white"/>
</g>
<g clip-path="url(#clip3_208_7192)">
<path d="M88.0043 821.792C97.2342 821.792 104.717 814.31 104.717 805.08C104.717 795.85 97.2342 788.368 88.0043 788.368C78.7743 788.368 71.292 795.85 71.292 805.08C71.292 814.31 78.7743 821.792 88.0043 821.792Z" fill="#FFC93D"/>
<path d="M88.0043 817.558C94.8958 817.558 100.482 811.972 100.482 805.08C100.482 798.189 94.8958 792.602 88.0043 792.602C81.1127 792.602 75.5261 798.189 75.5261 805.08C75.5261 811.972 81.1127 817.558 88.0043 817.558Z" fill="#F4A732"/>
<path d="M95.8769 802.6H94.9946L95.4699 801.106C95.6611 800.508 95.3689 799.855 94.8143 799.647C94.2625 799.437 93.6588 799.756 93.4676 800.357L92.7519 802.6H89.6023L89.0423 800.956C89.0369 800.942 89.026 800.931 89.0205 800.917C88.9904 800.841 88.944 800.775 88.9003 800.704C88.8648 800.65 88.8375 800.589 88.7938 800.543C88.7473 800.491 88.6872 800.458 88.6326 800.417C88.5752 800.374 88.5206 800.327 88.455 800.3C88.4414 800.294 88.4305 800.278 88.4141 800.273C88.3622 800.253 88.3103 800.259 88.2584 800.248C88.1873 800.232 88.119 800.212 88.048 800.212C87.9797 800.212 87.9169 800.232 87.8513 800.245C87.7967 800.256 87.7393 800.251 87.6847 800.273C87.6683 800.278 87.6574 800.294 87.641 800.3C87.5809 800.327 87.5345 800.368 87.4798 800.406C87.417 800.45 87.3542 800.488 87.3023 800.543C87.2613 800.587 87.2367 800.641 87.2012 800.693C87.1548 800.764 87.1056 800.833 87.0756 800.912C87.0701 800.925 87.0592 800.934 87.0537 800.95L86.4937 802.594H83.3441L82.6284 800.352C82.4372 799.754 81.8335 799.431 81.2817 799.642C80.7299 799.849 80.4349 800.502 80.6261 801.1L81.1014 802.594H80.047C79.4624 802.594 78.9871 803.108 78.9871 803.742C78.9871 804.376 79.4624 804.889 80.047 804.889H81.8335L83.8331 811.156C83.9806 811.614 84.3767 811.923 84.8219 811.929H84.8329C85.2754 811.929 85.6742 811.631 85.8272 811.18L87.9661 804.889H88.119L90.2579 811.177C90.4109 811.631 90.807 811.929 91.2523 811.929H91.2632C91.7112 811.923 92.1073 811.614 92.2548 811.156L94.2543 804.889H95.8688C96.4533 804.889 96.9286 804.376 96.9286 803.742C96.9286 803.108 96.4533 802.594 95.8688 802.594L95.8769 802.6ZM84.8711 807.375L84.0789 804.892H85.7152L84.8711 807.375ZM91.2277 807.375L90.3836 804.892H92.0198L91.2277 807.375Z" fill="#FFD66D"/>
</g>
<path d="M148.662 794.055H145.7V802.647H143.545V794.422H140.681V815.254H143.545V805.144H145.7V816.331H148.662V794.055ZM130.033 811.288H131.575C134.513 811.276 136.887 811.19 139.604 810.676L139.384 808.13C137.23 808.51 135.321 808.632 133.166 808.669V799.147H138.331V796.625H130.033V811.288ZM163.496 796.111H159.016V793.859H155.907V796.111H151.109V798.583H163.496V796.111ZM152.211 803.504C152.186 806.001 154.353 807.653 157.425 807.641C160.485 807.653 162.688 806.001 162.712 803.504C162.688 801.031 160.485 799.33 157.425 799.318C154.353 799.33 152.186 801.031 152.211 803.504ZM154.585 812.439C154.573 814.862 157.511 816.343 162.272 816.331C167.008 816.343 169.946 814.862 169.958 812.439C169.946 809.966 167.008 808.51 162.272 808.522C157.511 808.51 154.573 809.966 154.585 812.439ZM155.124 803.504C155.112 802.317 156.017 801.656 157.425 801.643C158.82 801.656 159.799 802.317 159.799 803.504C159.799 804.703 158.82 805.34 157.425 805.34C156.017 805.34 155.112 804.703 155.124 803.504ZM157.866 812.439C157.866 811.374 159.42 810.896 162.272 810.872C165.062 810.896 166.605 811.374 166.605 812.439C166.605 813.454 165.062 813.981 162.272 813.981C159.42 813.981 157.866 813.454 157.866 812.439ZM163.692 805.903H166.727V808.253H169.836V794.055H166.727V798.951H163.74V801.448H166.727V803.406H163.692V805.903ZM192.209 794.055H189.199V816.331H192.209V794.055ZM172.479 808.767L172.822 811.337C175.698 811.325 180.227 811.251 183.642 810.652L183.421 808.326C182.883 808.387 182.295 808.448 181.683 808.497V799.049H183.103V796.527H172.896V799.049H174.34V808.754L172.479 808.767ZM177.106 808.718V799.049H178.868V808.657L177.106 808.718ZM182.614 807.176H184.792V815.278H187.705V794.496H184.792V800.199H182.614V802.745H184.792V804.63H182.614V807.176ZM213.114 794.055H209.957V816.331H213.114V794.055ZM194.461 810.015L196.102 812.512C204.057 808.754 206.419 803.137 206.432 796.38H195.661V798.828H203.249C202.748 803.773 200.214 807.298 194.461 810.015ZM236.369 802.892H216.052V805.364H224.619V806.784H218.402V809.134H230.813V810.284H218.426V816.184H234.484V813.834H221.486V812.487H233.897V806.784H227.753V805.364H236.369V802.892ZM218.573 801.717H233.799V794.691H218.573V801.717ZM221.633 799.318V797.115H230.69V799.318H221.633ZM263.81 804.165H243.493V806.686H252.085V808.326C248.131 808.608 245.818 810.003 245.818 812.316C245.818 814.899 248.743 816.343 253.627 816.331C258.437 816.343 261.362 814.899 261.387 812.316C261.362 810.015 259.061 808.62 255.194 808.338V806.686H263.81V804.165ZM244.398 800.885L245.426 803.332C249.649 802.941 252.452 801.337 253.627 799.183C254.814 801.35 257.641 802.928 261.852 803.332L262.953 800.885C258.718 800.517 256.454 799.012 255.916 797.457H261.974V795.01H245.353V797.457H251.363C250.8 799 248.523 800.517 244.398 800.885ZM249 812.316C248.988 811.19 250.543 810.652 253.627 810.627C256.65 810.652 258.241 811.19 258.253 812.316C258.241 813.393 256.65 813.981 253.627 813.981C250.543 813.981 248.988 813.393 249 812.316ZM283.516 795.989H267.262V798.461H280.382C280.37 801.08 280.333 804.214 279.477 808.424L282.61 808.742C283.503 804.018 283.503 800.885 283.516 798.094V795.989ZM265.156 813.614H285.474V811.068H275.535V803.406H272.427V811.068H265.156V813.614ZM307.211 811.288H298.521V807.934H305.375V805.389H292.303V802.892H304.861V795.499H289.146V797.996H301.777V800.444H289.17V807.934H295.412V811.288H286.82V813.858H307.211V811.288ZM326.745 795.426H314.726V797.8H316.562V802.586C315.718 802.598 314.91 802.598 314.139 802.598L314.481 805.046C318.276 805.046 323.294 804.997 327.651 804.312L327.529 802.059C326.696 802.157 325.815 802.231 324.934 802.292V797.8H326.745V795.426ZM317.15 808.791H328.826V810.113H317.198V816.184H332.571V813.711H320.258V812.316H331.935V806.368H317.15V808.791ZM319.573 802.549V797.8H321.923V802.463C321.14 802.5 320.344 802.525 319.573 802.549ZM328.801 805.487H331.935V801.007H334.946V798.437H331.935V794.055H328.801V805.487ZM341.922 795.622C338.507 795.622 336.035 798.694 336.047 803.553C336.035 808.448 338.507 811.508 341.922 811.508C345.325 811.508 347.785 808.448 347.797 803.553C347.785 798.694 345.325 795.622 341.922 795.622ZM339.058 803.553C339.058 800.248 340.221 798.437 341.922 798.437C343.66 798.437 344.798 800.248 344.811 803.553C344.798 806.87 343.66 808.681 341.922 808.669C340.221 808.681 339.058 806.87 339.058 803.553ZM350.367 816.331H353.501V805.046H356.781V802.451H353.501V794.055H350.367V816.331ZM377.979 811.19H369.289V807.078H375.703V795.475H372.594V798.926H362.876V795.475H359.743V807.078H366.181V811.19H357.589V813.736H377.979V811.19ZM362.876 804.581V801.423H372.594V804.581H362.876ZM397.979 794.055H394.821V816.331H397.979V794.055ZM379.326 810.015L380.966 812.512C388.922 808.754 391.284 803.137 391.296 796.38H380.525V798.828H388.114C387.612 803.773 385.078 807.298 379.326 810.015Z" fill="#595959"/>
<path d="M62.0645 704.524H59.9655V712.128H58.7018V704.867H56.6455V722.944H58.7018V714.077H59.9655V723.887H62.0645V704.524ZM44.9508 719.067H49.8129V706.537H48.0351V710.928H46.7071V706.537H44.9508V719.067ZM46.7071 717.161V712.792H48.0351V717.161H46.7071ZM50.7339 719.067H55.5746V706.537H53.7968V710.928H52.4903V706.537H50.7339V719.067ZM52.4903 717.161V712.792H53.7968V717.161H52.4903ZM79.9066 704.524H77.5076V723.887H79.9066V704.524ZM63.8637 718.553L65.106 720.46C71.8852 717.236 74.1234 712.342 74.1234 706.58H64.849V708.465H71.7031C71.2747 712.867 68.94 716.144 63.8637 718.553ZM88.9668 705.873C85.9253 705.863 83.6442 707.801 83.6549 710.543C83.6442 713.295 85.9253 715.223 88.9668 715.233C92.0404 715.223 94.2787 713.295 94.3001 710.543C94.2787 707.801 92.0404 705.863 88.9668 705.873ZM82.7767 717.911L83.0766 719.86C86.4929 719.86 91.1408 719.828 95.4782 719.003L95.2854 717.268C91.098 717.868 86.268 717.911 82.7767 717.911ZM86.011 710.543C86.0003 708.936 87.2747 707.93 88.9668 707.93C90.691 707.93 91.9548 708.936 91.9655 710.543C91.9548 712.16 90.6803 713.156 88.9668 713.156C87.2747 713.156 86.0003 712.16 86.011 710.543ZM96.442 723.908H98.8196V704.524H96.442V723.908ZM122.016 704.524H119.639V723.908H122.016V713.82H124.994V711.871H122.016V704.524ZM107.644 719.175H109.251C112.742 719.175 115.344 719.089 118.354 718.575L118.075 716.561C115.419 717.022 113.031 717.172 110.022 717.183V708.294H116.704V706.366H107.644V719.175ZM143.714 707.116H141.079V704.524H138.702V715.897H141.079V713.242H143.714V711.271H141.079V709.065H143.714V707.116ZM126.022 710.264C126.011 712.984 128.26 714.901 131.248 714.912C134.225 714.901 136.453 712.984 136.474 710.264C136.453 707.533 134.225 705.616 131.248 705.638C128.26 705.616 126.011 707.533 126.022 710.264ZM128.228 720.117C128.228 722.462 130.777 723.865 134.782 723.865C138.755 723.865 141.261 722.462 141.272 720.117C141.261 717.75 138.755 716.358 134.782 716.347C130.777 716.358 128.228 717.75 128.228 720.117ZM128.356 710.264C128.346 708.669 129.577 707.619 131.248 707.63C132.897 707.619 134.129 708.669 134.139 710.264C134.129 711.871 132.897 712.888 131.248 712.899C129.577 712.888 128.346 711.871 128.356 710.264ZM130.605 720.117C130.605 718.907 132.126 718.254 134.782 718.254C137.427 718.254 138.916 718.907 138.916 720.117C138.916 721.338 137.427 721.959 134.782 721.959C132.126 721.959 130.605 721.338 130.605 720.117ZM160.035 704.545H157.658V719.003H160.035V712.599H162.734V710.628H160.035V704.545ZM144.785 708.594H156.265V706.687H151.724V704.524H149.347V706.687H144.785V708.594ZM145.77 713.092C145.77 715.308 147.708 716.754 150.525 716.754C153.32 716.754 155.248 715.308 155.259 713.092C155.248 710.864 153.32 709.386 150.525 709.386C147.708 709.386 145.77 710.864 145.77 713.092ZM147.633 723.501H160.806V721.574H150.011V717.868H147.633V723.501ZM148.083 713.092C148.073 711.914 149.058 711.228 150.525 711.228C151.992 711.228 152.988 711.914 152.988 713.092C152.988 714.259 151.992 714.923 150.525 714.912C149.058 714.923 148.073 714.259 148.083 713.092ZM176.078 709.172V706.088H173.658V709.172C173.647 712.792 171.89 716.519 168.731 717.997L170.231 719.924C172.458 718.8 174.043 716.572 174.889 713.895C175.714 716.433 177.256 718.489 179.441 719.56L180.876 717.654C177.791 716.304 176.067 712.77 176.078 709.172ZM178.734 712.706H182.803V723.908H185.16V704.524H182.803V710.778H178.734V712.706ZM203.987 704.524H201.588V723.908H203.987V704.524ZM188.908 719.346H198.332V706.109H195.976V710.95H191.285V706.109H188.908V719.346ZM191.285 717.397V712.813H195.976V717.397H191.285ZM216.838 707.18V705.745H214.311V707.18C214.3 710.157 211.366 713.156 207.371 713.884L208.421 715.876C211.655 715.191 214.311 713.209 215.585 710.628C216.849 713.231 219.505 715.201 222.75 715.876L223.821 713.884C219.762 713.177 216.838 710.168 216.838 707.18ZM206.836 721.424H224.528V719.453H206.836V721.424Z" fill="#737982"/>
<g style="mix-blend-mode:multiply">
<rect x="6.80225" width="587.996" height="878.377" rx="33.0683" fill="black" fill-opacity="0.5"/>
</g>
<g filter="url(#filter3_dd_208_7192)">
<g filter="url(#filter4_d_208_7192)">
<rect x="307.517" y="308.982" width="324.483" height="357.514" rx="31.0882" fill="white"/>
</g>
<g clip-path="url(#clip4_208_7192)">
<rect x="299.745" y="588.776" width="340.027" height="95.2075" fill="#E6F0FF"/>
<path d="M585.368 634.298H577.596L591.197 657.614H598.969L585.368 634.298Z" fill="white"/>
<path d="M563.995 596.548H556.223L564.966 610.149H572.738L563.995 596.548Z" fill="white"/>
<path d="M357.064 634.298H364.836L351.235 657.614H343.463L357.064 634.298Z" fill="white"/>
<path d="M378.437 596.548H386.209L377.466 610.149H369.694L378.437 596.548Z" fill="white"/>
<rect x="448.377" y="490.191" width="52.7867" height="42.6354" rx="6.09077" fill="#FDECAB"/>
<g clip-path="url(#clip5_208_7192)">
<path d="M513.13 514.017H471.706C469.615 514.017 467.919 515.712 467.919 517.803V589.721C467.919 591.812 469.615 593.508 471.706 593.508H513.13C515.221 593.508 516.916 591.812 516.916 589.721V517.803C516.916 515.712 515.221 514.017 513.13 514.017Z" fill="#DDDDDD"/>
<path d="M480.12 500.49H428.58C426.236 500.49 424.336 502.39 424.336 504.734V583.42C424.336 585.764 426.236 587.664 428.58 587.664H480.12C482.464 587.664 484.364 585.764 484.364 583.42V504.734C484.364 502.39 482.464 500.49 480.12 500.49Z" fill="#C8C8C8"/>
<mask id="mask1_208_7192" style="mask-type:luminance" maskUnits="userSpaceOnUse" x="424" y="500" width="61" height="88">
<path d="M479.736 500.479H428.964C426.408 500.479 424.336 502.551 424.336 505.107V583.025C424.336 585.581 426.408 587.653 428.964 587.653H479.736C482.292 587.653 484.364 585.581 484.364 583.025V505.107C484.364 502.551 482.292 500.479 479.736 500.479Z" fill="white"/>
</mask>
<g mask="url(#mask1_208_7192)">
<path d="M452.69 500.342H424.281V582.989H452.69V500.342Z" fill="#EAEFFF"/>
<path d="M484.419 500.342H456.01V582.989H484.419V500.342Z" fill="#EAEFFF"/>
</g>
<path d="M538.181 569.973H526.538L521.498 547.107C521.115 545.218 520.284 543.449 519.075 541.948C516.084 538.345 511.657 537.375 507.084 537.375H435.275C430.327 537.375 425.772 537.375 422.663 542.424C421.821 543.84 421.218 545.385 420.879 546.997L415.821 570.018H404.205C401.333 570.018 401.736 575.085 401.736 577.957C401.738 578.975 402.038 579.969 402.598 580.817C403.159 581.666 403.956 582.331 404.891 582.732L409.986 585.375C409.711 586.29 408.157 587.268 408.157 590.863V633.275C408.159 634.523 408.656 635.72 409.539 636.603C410.422 637.486 411.618 637.983 412.867 637.985H529.245C529.864 637.985 530.476 637.863 531.048 637.626C531.619 637.39 532.139 637.043 532.576 636.605C533.013 636.168 533.36 635.649 533.597 635.077C533.834 634.506 533.956 633.893 533.956 633.275V590.863C533.956 587.076 532.456 586.29 532.19 585.375L537.331 582.714C538.288 582.322 539.106 581.654 539.683 580.796C540.259 579.938 540.568 578.927 540.569 577.893C540.651 575.04 541.053 569.973 538.181 569.973Z" fill="#4561FA"/>
<path d="M512.938 647.368H526.538C526.906 647.375 527.272 647.307 527.613 647.169C527.954 647.031 528.264 646.825 528.525 646.565C528.785 646.305 528.99 645.995 529.128 645.654C529.266 645.312 529.334 644.947 529.328 644.579V638.002H510.121V644.579C510.122 644.947 510.196 645.311 510.338 645.651C510.48 645.991 510.688 646.299 510.95 646.558C511.212 646.817 511.522 647.022 511.863 647.161C512.204 647.3 512.569 647.371 512.938 647.368Z" fill="#4A5966"/>
<path d="M415.739 647.368H429.349C430.088 647.366 430.796 647.071 431.319 646.549C431.841 646.026 432.136 645.318 432.139 644.579V638.002H412.931V644.579C412.932 644.946 413.006 645.31 413.148 645.649C413.29 645.988 413.497 646.296 413.757 646.555C414.018 646.814 414.327 647.019 414.667 647.159C415.007 647.298 415.372 647.37 415.739 647.368Z" fill="#4A5966"/>
<path d="M439.648 603.212C439.65 602.163 439.267 601.15 438.57 600.365C437.874 599.581 436.913 599.08 435.87 598.959L421.73 597.313C421.129 597.242 420.52 597.299 419.942 597.48C419.365 597.661 418.832 597.963 418.38 598.364C417.927 598.766 417.565 599.259 417.316 599.811C417.067 600.363 416.938 600.961 416.937 601.566V604.602H439.648V603.212Z" fill="#DB754C"/>
<path d="M421.227 616.839H435.331C436.467 616.837 437.556 616.384 438.358 615.579C439.161 614.775 439.611 613.685 439.611 612.549V604.574H416.937V612.549C416.937 613.687 417.389 614.778 418.194 615.583C418.998 616.387 420.089 616.839 421.227 616.839Z" fill="white"/>
<path d="M504.687 603.212C504.687 602.162 505.072 601.149 505.771 600.365C506.469 599.581 507.431 599.08 508.474 598.959L522.577 597.313C523.178 597.242 523.787 597.299 524.364 597.48C524.941 597.661 525.473 597.963 525.924 598.365C526.376 598.767 526.738 599.26 526.986 599.811C527.233 600.363 527.361 600.961 527.361 601.566V604.603H504.687V603.212Z" fill="#DB754C"/>
<path d="M523.08 616.839H508.977C507.839 616.839 506.748 616.387 505.943 615.583C505.139 614.778 504.687 613.687 504.687 612.549V604.574H527.361V612.549C527.361 613.685 526.91 614.775 526.108 615.579C525.305 616.384 524.216 616.837 523.08 616.839Z" fill="white"/>
<path d="M512.343 576.585H430.803C430.143 576.586 429.491 576.444 428.891 576.169C428.291 575.894 427.757 575.493 427.327 574.992C426.897 574.492 426.581 573.904 426.399 573.269C426.218 572.635 426.175 571.969 426.276 571.316L429.45 550.591C429.615 549.5 430.169 548.506 431.009 547.792C431.85 547.077 432.92 546.691 434.023 546.703H509.16C510.254 546.704 511.311 547.097 512.14 547.81C512.968 548.523 513.514 549.51 513.678 550.591L516.852 571.316C516.952 571.967 516.911 572.632 516.73 573.265C516.55 573.898 516.235 574.485 515.806 574.985C515.378 575.485 514.847 575.887 514.25 576.163C513.652 576.439 513.001 576.583 512.343 576.585Z" fill="#8CB2FF"/>
</g>
</g>
<path d="M358.635 387.107H354.502V399.095H351.497V387.619H347.501V416.684H351.497V402.579H354.502V418.187H358.635V387.107ZM332.644 411.151H334.795C338.894 411.134 342.207 411.015 345.998 410.297L345.691 406.745C342.685 407.275 340.021 407.446 337.015 407.497V394.211H344.222V390.693H332.644V411.151ZM388.008 387.141H383.636V409.819H388.008V387.141ZM361.88 402.135L364.134 405.584C367.772 404.337 370.248 401.776 371.648 398.6C373.031 401.554 375.439 403.876 378.957 405.038L381.177 401.622C376.071 399.983 373.868 395.97 373.902 391.854V388.848H369.36V391.854C369.36 396.072 367.088 400.393 361.88 402.135ZM367.174 417.641H388.828V414.157H371.58V407.633H367.174V417.641ZM426.5 387.107H422.197V398.07H416.425V389.497H412.155V397.046H405.768V389.497H401.431V410.878H416.425V401.588H422.197V418.255H426.5V387.107ZM405.768 407.394V400.461H412.155V407.394H405.768ZM456.693 387.107H452.355V393.698H447.129V397.25H452.355V402.135H447.027V405.721H452.355V418.255H456.693V387.107ZM431.521 393.152H441.221V398.275H431.589V411.288H434.048C438.83 411.305 442.792 411.203 447.437 410.468L447.095 406.916C443.168 407.514 439.769 407.685 435.927 407.719V401.656H445.49V389.702H431.521V393.152ZM489.071 404.252H460.723V407.736H472.677V418.187H476.98V407.736H489.071V404.252ZM462.123 399.026L463.729 402.442C469.142 401.708 473.019 399.385 474.914 396.192C476.793 399.385 480.703 401.708 486.168 402.442L487.739 399.026C481.352 398.258 477.92 395.218 477.476 392.161H486.544V388.746H463.285V392.161H472.353C471.891 395.218 468.408 398.258 462.123 399.026ZM500.923 394.928V389.771H496.688V395.133C496.688 400.393 494.98 405.874 490.369 408.726L493.033 411.937C495.851 410.229 497.712 407.275 498.822 403.757C499.813 406.933 501.503 409.631 504.202 411.254L506.558 407.872C502.306 405.157 500.906 399.966 500.923 394.928ZM503.279 401.144H507.31V416.753H511.374V387.551H507.31V397.592H503.279V401.144ZM513.731 418.187H517.898V387.107H513.731V418.187ZM549.627 410.981H543.308V403.279C545.648 401.827 547.048 399.658 547.065 396.977C547.048 391.939 542.079 388.626 535.35 388.609C528.588 388.626 523.67 391.939 523.67 396.977C523.67 399.71 525.121 401.913 527.529 403.364V410.981H521.176V414.567H549.627V410.981ZM527.973 396.977C527.973 393.852 530.893 392.042 535.35 392.059C539.739 392.042 542.745 393.852 542.762 396.977C542.745 400.017 539.739 401.895 535.35 401.895C530.893 401.895 527.973 400.017 527.973 396.977ZM531.833 410.981V404.952C532.926 405.157 534.104 405.277 535.35 405.277C536.597 405.277 537.793 405.157 538.903 404.935V410.981H531.833Z" fill="#111111"/>
<path d="M352.245 341.648H349.402V351.105H346.746V342.1H343.983V364.441H346.746V353.523H349.402V365.663H352.245V341.648ZM332.666 359.686H334.26C336.797 359.686 339.547 359.513 342.788 358.942L342.495 356.365C339.972 356.856 337.714 357.042 335.642 357.082V344.411H332.666V359.686ZM375.249 341.648H372.301V346.881H367.997V349.299H372.301V353.416H367.918V355.834H372.301V365.689H375.249V341.648ZM355.937 346.084H363.747V350.388H356.017V360.243H357.876C361.609 360.243 364.663 360.164 368.343 359.579L368.104 357.162C364.863 357.64 362.113 357.786 358.939 357.799V352.699H366.643V343.72H355.937V346.084ZM398.148 352.912H384.228V346.138H397.962V343.747H381.306V355.276H398.148V352.912ZM378.65 362.608H400.592V360.164H378.65V362.608ZM422.163 341.675H419.187V355.913H422.163V341.675ZM403.381 345.42H411.537V347.785H403.434V354.957H405.48C410.129 354.97 413.383 354.838 417.168 354.24L416.796 351.849C413.37 352.42 410.434 352.54 406.33 352.54V350.043H414.459V343.083H403.381V345.42ZM406.224 365.37H422.163V357.029H406.224V365.37ZM409.146 362.98V359.393H419.267V362.98H409.146Z" fill="#595959"/>
</g>
<defs>
<filter id="filter0_d_208_7192" x="0.541285" y="337.437" width="324.003" height="350.612" filterUnits="userSpaceOnUse" color-interpolation-filters="sRGB">
<feFlood flood-opacity="0" result="BackgroundImageFix"/>
<feColorMatrix in="SourceAlpha" type="matrix" values="0 0 0 0 0 0 0 0 0 0 0 0 0 0 0 0 0 0 127 0" result="hardAlpha"/>
<feOffset dy="9.3914"/>
<feGaussianBlur stdDeviation="15.6523"/>
<feComposite in2="hardAlpha" operator="out"/>
<feColorMatrix type="matrix" values="0 0 0 0 0.584314 0 0 0 0 0.615686 0 0 0 0 0.647059 0 0 0 0.2 0"/>
<feBlend mode="normal" in2="BackgroundImageFix" result="effect1_dropShadow_208_7192"/>
<feBlend mode="normal" in="SourceGraphic" in2="effect1_dropShadow_208_7192" result="shape"/>
</filter>
<filter id="filter1_d_208_7192" x="276.022" y="337.437" width="324.003" height="350.612" filterUnits="userSpaceOnUse" color-interpolation-filters="sRGB">
<feFlood flood-opacity="0" result="BackgroundImageFix"/>
<feColorMatrix in="SourceAlpha" type="matrix" values="0 0 0 0 0 0 0 0 0 0 0 0 0 0 0 0 0 0 127 0" result="hardAlpha"/>
<feOffset dy="9.3914"/>
<feGaussianBlur stdDeviation="15.6523"/>
<feComposite in2="hardAlpha" operator="out"/>
<feColorMatrix type="matrix" values="0 0 0 0 0.584314 0 0 0 0 0.615686 0 0 0 0 0.647059 0 0 0 0.2 0"/>
<feBlend mode="normal" in2="BackgroundImageFix" result="effect1_dropShadow_208_7192"/>
<feBlend mode="normal" in="SourceGraphic" in2="effect1_dropShadow_208_7192" result="shape"/>
</filter>
<filter id="filter2_d_208_7192" x="0.270571" y="728.313" width="600.026" height="172.331" filterUnits="userSpaceOnUse" color-interpolation-filters="sRGB">
<feFlood flood-opacity="0" result="BackgroundImageFix"/>
<feColorMatrix in="SourceAlpha" type="matrix" values="0 0 0 0 0 0 0 0 0 0 0 0 0 0 0 0 0 0 127 0" result="hardAlpha"/>
<feOffset dy="9.39988"/>
<feGaussianBlur stdDeviation="15.6665"/>
<feComposite in2="hardAlpha" operator="out"/>
<feColorMatrix type="matrix" values="0 0 0 0 0.584314 0 0 0 0 0.615686 0 0 0 0 0.647059 0 0 0 0.2 0"/>
<feBlend mode="normal" in2="BackgroundImageFix" result="effect1_dropShadow_208_7192"/>
<feBlend mode="normal" in="SourceGraphic" in2="effect1_dropShadow_208_7192" result="shape"/>
</filter>
<filter id="filter3_dd_208_7192" x="292.127" y="306.417" width="355.264" height="388.295" filterUnits="userSpaceOnUse" color-interpolation-filters="sRGB">
<feFlood flood-opacity="0" result="BackgroundImageFix"/>
<feColorMatrix in="SourceAlpha" type="matrix" values="0 0 0 0 0 0 0 0 0 0 0 0 0 0 0 0 0 0 127 0" result="hardAlpha"/>
<feMorphology radius="2.56508" operator="erode" in="SourceAlpha" result="effect1_dropShadow_208_7192"/>
<feOffset dy="5.13016"/>
<feGaussianBlur stdDeviation="3.84762"/>
<feComposite in2="hardAlpha" operator="out"/>
<feColorMatrix type="matrix" values="0 0 0 0 0 0 0 0 0 0 0 0 0 0 0 0 0 0 0.05 0"/>
<feBlend mode="normal" in2="BackgroundImageFix" result="effect1_dropShadow_208_7192"/>
<feColorMatrix in="SourceAlpha" type="matrix" values="0 0 0 0 0 0 0 0 0 0 0 0 0 0 0 0 0 0 127 0" result="hardAlpha"/>
<feMorphology radius="3.84762" operator="erode" in="SourceAlpha" result="effect2_dropShadow_208_7192"/>
<feOffset dy="12.8254"/>
<feGaussianBlur stdDeviation="9.61905"/>
<feComposite in2="hardAlpha" operator="out"/>
<feColorMatrix type="matrix" values="0 0 0 0 0 0 0 0 0 0 0 0 0 0 0 0 0 0 0.1 0"/>
<feBlend mode="normal" in2="effect1_dropShadow_208_7192" result="effect2_dropShadow_208_7192"/>
<feBlend mode="normal" in="SourceGraphic" in2="effect2_dropShadow_208_7192" result="shape"/>
</filter>
<filter id="filter4_d_208_7192" x="268.657" y="281.78" width="402.203" height="435.235" filterUnits="userSpaceOnUse" color-interpolation-filters="sRGB">
<feFlood flood-opacity="0" result="BackgroundImageFix"/>
<feColorMatrix in="SourceAlpha" type="matrix" values="0 0 0 0 0 0 0 0 0 0 0 0 0 0 0 0 0 0 127 0" result="hardAlpha"/>
<feOffset dy="11.6581"/>
<feGaussianBlur stdDeviation="19.4301"/>
<feComposite in2="hardAlpha" operator="out"/>
<feColorMatrix type="matrix" values="0 0 0 0 0.584314 0 0 0 0 0.615686 0 0 0 0 0.647059 0 0 0 0.2 0"/>
<feBlend mode="normal" in2="BackgroundImageFix" result="effect1_dropShadow_208_7192"/>
<feBlend mode="normal" in="SourceGraphic" in2="effect1_dropShadow_208_7192" result="shape"/>
</filter>
<clipPath id="clip0_208_7192">
<rect width="144.276" height="134.322" fill="white" transform="translate(401.29 149.609) rotate(10.8416)"/>
</clipPath>
<clipPath id="clip1_208_7192">
<path d="M307.327 487.7H568.721V622.31C568.721 636.141 557.509 647.354 543.677 647.354H332.371C318.539 647.354 307.327 636.141 307.327 622.31V487.7Z" fill="white"/>
</clipPath>
<clipPath id="clip2_208_7192">
<rect width="111.972" height="118.441" fill="white" transform="translate(383.183 513.504)"/>
</clipPath>
<clipPath id="clip3_208_7192">
<rect width="33.4218" height="33.4218" fill="white" transform="translate(71.292 788.368)"/>
</clipPath>
<clipPath id="clip4_208_7192">
<path d="M307.517 468.309H632V635.408C632 652.578 618.081 666.496 600.912 666.496H338.605C321.436 666.496 307.517 652.578 307.517 635.408V468.309Z" fill="white"/>
</clipPath>
<clipPath id="clip5_208_7192">
<rect width="138.997" height="147.028" fill="white" transform="translate(401.681 500.342)"/>
</clipPath>
</defs>
</svg>
