<svg width="569" height="834" viewBox="0 0 569 834" fill="none" xmlns="http://www.w3.org/2000/svg">
<rect width="568.689" height="834" rx="35.4692" fill="white"/>
<g clip-path="url(#clip0_33_1624)">
<path d="M253.545 188.843H196.165C183.554 188.843 173.308 178.597 173.308 165.828C173.308 153.217 183.554 142.971 196.165 142.971H253.387C265.998 142.971 276.244 153.217 276.244 165.828C276.402 178.597 266.156 188.843 253.545 188.843Z" fill="#131FFF"/>
<path d="M218.549 142.971H196.165C208.776 142.971 219.022 153.217 219.022 165.828C219.022 178.439 208.776 188.685 196.165 188.685H218.392C231.003 188.685 241.249 178.439 241.249 165.828C241.407 153.217 231.16 142.971 218.549 142.971Z" fill="#1F47FF"/>
<path d="M219.18 165.828C219.18 153.217 208.934 142.971 196.323 142.971C183.554 142.971 173.308 153.217 173.308 165.828C173.308 178.439 183.554 188.685 196.165 188.685C208.934 188.843 219.18 178.597 219.18 165.828Z" fill="#417AFF"/>
<path d="M339.615 142.812C338.039 142.812 336.62 144.074 336.62 145.808V158.576H332.679V145.808C332.679 144.231 331.418 142.812 329.684 142.812C328.108 142.812 326.689 144.074 326.689 145.808V186.005C326.689 187.581 327.95 189 329.684 189C331.26 189 332.679 187.739 332.679 186.005V164.409H336.62V186.005C336.62 187.581 337.881 189 339.615 189C341.192 189 342.61 187.739 342.61 186.005V145.808C342.61 144.074 341.192 142.812 339.615 142.812Z" fill="#111111"/>
<path d="M392.108 142.812C390.532 142.812 389.113 144.074 389.113 145.808V186.005C389.113 187.581 390.374 189 392.108 189C393.842 189 395.103 187.739 395.103 186.005V145.808C394.946 144.074 393.685 142.812 392.108 142.812Z" fill="#111111"/>
<path d="M319.595 143.916C318.018 143.916 316.6 145.177 316.6 146.911V158.576H310.294V146.911C310.294 145.335 309.033 143.916 307.299 143.916C305.723 143.916 304.304 145.177 304.304 146.911V158.576H297.998V146.911C297.998 145.335 296.737 143.916 295.003 143.916C293.427 143.916 292.008 145.177 292.008 146.911V174.025C292.008 177.808 294.373 181.276 297.998 182.537H298.156C300.048 183.168 302.255 183.168 304.146 182.537H304.304C305.407 182.064 306.353 181.591 307.141 180.803L307.299 180.645L307.457 180.803C308.403 181.591 309.348 182.222 310.609 182.537C311.555 182.852 312.659 183.01 313.605 183.01C314.55 183.01 315.654 182.852 316.6 182.537C320.225 181.276 322.747 177.808 322.747 173.867V146.911C322.59 145.177 321.329 143.916 319.595 143.916ZM311.24 176.232C310.609 175.601 310.294 174.813 310.294 173.867V164.409H316.6V173.709C316.6 175.443 315.181 177.02 313.605 177.02C312.816 177.177 311.871 176.862 311.24 176.232ZM304.304 164.409V173.867C304.304 174.813 303.989 175.601 303.358 176.232C302.728 176.862 301.939 177.177 301.151 177.177H300.994C299.26 177.02 297.998 175.601 297.998 173.867V164.566H304.304V164.409Z" fill="#111111"/>
<path d="M352.699 147.857C352.699 149.433 353.96 150.694 355.536 150.694H372.088V157C372.088 160.626 371.458 163.621 370.354 165.985C369.093 168.507 367.517 170.399 365.468 172.291C363.576 173.867 361.211 175.128 358.532 175.916C356.955 176.389 355.221 176.862 353.645 177.177C352.226 177.493 351.28 178.596 351.28 180.015C351.28 181.749 352.857 183.168 354.748 182.852C357.743 182.379 360.423 181.591 362.945 180.488C366.413 179.069 369.251 177.177 371.773 174.655C374.138 172.291 375.872 169.611 377.133 166.301C378.394 163.148 379.024 159.68 379.024 155.896V148.803C379.024 146.754 377.29 145.02 375.241 145.02H355.694C354.118 145.02 352.699 146.281 352.699 147.857Z" fill="#111111"/>
</g>
<path d="M182.997 100.411V95.7094H180.31V100.587C180.31 105.04 178.324 109.713 174.585 111.889L176.338 113.904C178.879 112.4 180.675 109.626 181.639 106.369C182.558 109.348 184.238 111.845 186.706 113.233L188.341 111.042C184.793 109.129 182.997 104.748 182.997 100.411ZM188.984 118.197H191.641V105.99H194.795V119.482H197.453V93.3146H194.795V103.741H191.641V93.8111H188.984V118.197ZM224.702 106.574H214.1V104.383H222.219V102.222H206.565V100.061H221.693V93.8111H203.761V95.9723H218.919V98.0166H203.82V104.383H211.355V106.574H200.753V108.823H224.702V106.574ZM203.907 119.161H221.723V110.02H218.977V112.298H206.682V110.02H203.907V119.161ZM206.682 116.971V114.43H218.977V116.971H206.682ZM249.117 93.3146H246.489V119.482H249.117V93.3146ZM226.541 111.918L228.119 113.904C231.813 111.743 234.31 109.085 235.858 106.048H240.969V118.197H243.597V93.9863H240.969V103.828H236.822C237.625 101.55 237.975 99.1118 237.99 96.5564H227.768V98.8344H235.23C234.748 104.223 232.09 108.618 226.541 111.918ZM281.593 93.3146H278.848V102.865H273.065V95.3298H270.349V102.018H263.603V95.3298H260.799V113.057H273.065V105.143H278.848V119.541H281.593V93.3146ZM263.603 110.779V104.208H270.349V110.779H263.603ZM307.352 93.3146H304.578V119.541H307.352V93.3146ZM287.084 97.929H296.517V103.011H287.113V113.262H289.333C293.962 113.247 297.904 113.072 302.533 112.298L302.271 110.02C297.89 110.735 294.195 110.94 289.946 110.955V105.23H299.35V95.6802H287.084V97.929ZM332.644 100.966H317.37V94.2492H314.624V103.186H332.644V100.966ZM311.441 108.706H335.389V106.486H311.441V108.706ZM314.42 118.869H332.819V116.591H317.194V111.188H314.42V118.869ZM356.417 109.757C350.81 109.757 347.217 111.553 347.217 114.605C347.217 117.643 350.81 119.439 356.417 119.424C362.083 119.439 365.66 117.643 365.675 114.605C365.66 111.553 362.083 109.757 356.417 109.757ZM344.647 107.596H368.449V105.347H356.913V100.441H354.197V105.347H344.647V107.596ZM347.422 96.8192H362.725C362.725 98.849 362.725 100.777 362.024 103.449L364.74 103.741C365.485 101.039 365.485 98.8782 365.471 96.79V94.5996H347.422V96.8192ZM349.992 114.605C349.963 112.882 352.46 111.874 356.417 111.86C360.418 111.874 362.9 112.882 362.93 114.605C362.9 116.299 360.418 117.277 356.417 117.292C352.46 117.277 349.963 116.299 349.992 114.605ZM379.985 97.0821V94.5704H377.153V97.0821C377.138 100.82 374.685 104.369 370.611 105.814L372.012 107.976C375.108 106.866 377.415 104.544 378.584 101.623C379.766 104.354 382.03 106.486 385.067 107.538L386.469 105.347C382.424 104.018 379.971 100.704 379.985 97.0821ZM374.436 112.532H389.39V119.482H392.164V110.283H374.436V112.532ZM389.39 109.027H392.164V93.3146H389.39V109.027Z" fill="#595959"/>
<path d="M208.04 465.632C208.04 465.632 195.524 462.447 176.681 456.525C166.542 453.34 154.026 441.227 164.12 427.768C173.81 414.848 202.612 426.602 202.612 426.602L207.995 465.632H208.04Z" fill="#E0A194"/>
<path fill-rule="evenodd" clip-rule="evenodd" d="M274.392 270.167L223.518 260.297C212.751 258.413 202.432 265.681 200.593 276.448L192.697 321.67C190.813 332.437 198.08 342.755 208.803 344.594L246.487 351.144C257.254 353.029 280.762 349.081 282.647 338.359L290.543 293.137C292.427 282.37 285.159 272.051 274.392 270.167Z" fill="#E86D3F"/>
<path d="M274.392 270.166L223.518 260.297C222.889 260.207 222.261 260.207 221.633 260.162L266.406 268.865C277.173 270.75 284.396 281.068 282.557 291.835L274.661 337.057C272.867 347.286 251.602 351.323 240.251 350.067L246.487 351.144C257.254 353.028 280.762 349.08 282.647 338.358L290.542 293.136C292.427 282.369 285.159 272.051 274.392 270.166Z" fill="url(#paint0_linear_33_1624)"/>
<path d="M179.954 290.115L175.211 317.432L192.892 320.501L197.635 293.185L179.954 290.115Z" fill="url(#paint1_linear_33_1624)"/>
<path fill-rule="evenodd" clip-rule="evenodd" d="M370.219 287.843L311.449 277.659C300.682 275.775 290.363 283.042 288.524 293.809L280.628 339.031C278.744 349.798 286.012 360.116 296.734 361.956L355.504 372.14C366.271 374.024 376.589 366.756 378.429 356.034L386.325 310.812C388.209 300.045 380.941 289.727 370.219 287.843Z" fill="#E86D3F"/>
<path fill-rule="evenodd" clip-rule="evenodd" d="M357.253 404.305L172.419 370.075C165.6 368.909 160.979 362.359 162.146 355.495L166.811 328.756C168.023 321.937 174.572 317.316 181.392 318.483L366.226 352.713C373.045 353.924 377.666 360.474 376.5 367.294L371.834 394.032C370.667 400.851 364.073 405.472 357.253 404.26V404.305Z" fill="url(#paint2_linear_33_1624)"/>
<path fill-rule="evenodd" clip-rule="evenodd" d="M165.375 337.011L166.811 328.756C168.022 321.937 174.572 317.316 181.391 318.483L366.225 352.713C373.045 353.924 377.665 360.474 376.499 367.294L375.063 375.548L165.375 337.011Z" fill="url(#paint3_linear_33_1624)"/>
<path fill-rule="evenodd" clip-rule="evenodd" d="M179.956 290.132C176.547 289.549 173.272 291.837 172.644 295.246L166.453 330.822C165.869 334.232 168.157 337.507 171.567 338.135C174.977 338.718 178.251 336.43 178.88 333.021L185.071 297.444C185.654 294.035 183.366 290.76 179.956 290.177V290.132Z" fill="url(#paint4_linear_33_1624)"/>
<path fill-rule="evenodd" clip-rule="evenodd" d="M377.218 326.516L359.542 323.465L350.3 376.358L361.92 378.377C361.965 381.338 364.118 383.94 367.124 384.433C370.533 385.017 373.808 382.729 374.436 379.319L382.377 333.783C382.96 330.374 380.627 327.099 377.218 326.471V326.516Z" fill="url(#paint5_linear_33_1624)"/>
<path fill-rule="evenodd" clip-rule="evenodd" d="M359.541 323.464C356.132 322.881 352.857 325.169 352.274 328.578L346.038 364.154C345.454 367.564 347.787 370.839 351.197 371.467C354.606 372.05 357.881 369.762 358.465 366.353L364.701 330.776C365.284 327.412 362.951 324.092 359.541 323.509V323.464Z" fill="url(#paint6_linear_33_1624)"/>
<path d="M185.07 449.662C195.972 464.063 222.934 473.081 244.244 472.587V496.947H377.98L377.576 467.876C377.172 439.792 354.427 417.137 326.298 416.912L287.581 416.598C284.127 387.886 284.396 372.588 271.072 371.915C260.619 371.422 257.299 380.26 256.671 400.268C255.011 372.184 247.788 365.275 237.021 365.275C229.035 365.275 225.581 371.825 226.209 382.817C224.415 369.492 215.308 367.204 209.027 368.595C198.439 370.973 197.318 386.451 202.163 423.732C184.038 388.604 170.22 388.155 164.209 392.058C154.204 398.608 165.734 424.046 185.16 449.662H185.07Z" fill="#F5CFD1"/>
<path d="M208.309 455.494C207.905 455.494 207.501 455.225 207.412 454.821C207.412 454.686 202.97 439.388 201.176 423.821C201.131 423.282 201.49 422.834 202.028 422.789C202.566 422.744 203.015 423.103 203.06 423.641C204.81 439.029 209.161 454.148 209.206 454.327C209.341 454.821 209.071 455.359 208.578 455.494C208.488 455.494 208.399 455.494 208.309 455.494Z" fill="#E0A194"/>
<path d="M230.516 453.027C230.068 453.027 229.664 452.668 229.574 452.219C229.529 451.815 224.056 412.426 225.223 382.727C225.223 382.188 225.671 381.785 226.21 381.83C226.748 381.83 227.152 382.278 227.107 382.817C225.94 412.291 231.369 451.546 231.414 451.95C231.503 452.488 231.144 452.937 230.606 453.027C230.606 453.027 230.516 453.027 230.472 453.027H230.516Z" fill="#E0A194"/>
<path d="M257.658 447.912C257.165 447.912 256.761 447.553 256.716 447.06C256.716 446.835 254.697 423.193 255.684 400.268C255.684 399.729 256.133 399.326 256.671 399.371C257.21 399.371 257.613 399.819 257.569 400.358C256.582 423.148 258.556 446.656 258.6 446.925C258.645 447.463 258.242 447.912 257.748 447.957C257.748 447.957 257.703 447.957 257.658 447.957V447.912Z" fill="#E0A194"/>
<path d="M377.98 496.768H244.244V548.001H377.98V496.768Z" fill="url(#paint7_linear_33_1624)"/>
<path d="M264.163 533.51C257.703 533.51 252.454 528.261 252.454 521.801C252.454 515.341 257.703 510.092 264.163 510.092C270.624 510.092 275.872 515.341 275.872 521.801C275.872 528.261 270.624 533.51 264.163 533.51Z" fill="#FFFCE6"/>
<path d="M244.245 472.541H292.203C286.55 476.893 277.981 482.411 266.496 486.359C257.928 489.32 250.256 490.531 244.245 491.024C244.02 478.687 243.975 472.541 244.245 472.541Z" fill="#E0A194"/>
<rect x="48.0293" y="701.736" width="468.014" height="83.8235" rx="41.9117" fill="#1F41FF"/>
<path d="M268.894 750.702H259.071V746.69H266.793V744.207H252.058V741.015H266.22V733.102H248.975V735.558H263.218V738.614H249.029V746.69H256.069V750.702H246.355V753.212H268.894V750.702ZM290.122 733.811H272.877V736.267H287.094V736.595C287.094 739.801 287.094 743.375 286.139 748.218L289.222 748.491C290.122 743.293 290.122 739.896 290.122 736.595V733.811ZM270.504 752.693H292.987V750.21H270.504V752.693ZM315.199 731.437H312.142V749.255H315.199V731.437ZM295.089 739.214C295.089 742.857 297.995 745.408 301.746 745.408C305.498 745.408 308.391 742.857 308.377 739.214C308.391 735.626 305.498 733.061 301.746 733.047C297.995 733.061 295.089 735.626 295.089 739.214ZM298.063 739.214C298.049 737.086 299.632 735.694 301.746 735.694C303.806 735.694 305.403 737.086 305.403 739.214C305.403 741.397 303.806 742.761 301.746 742.761C299.632 742.761 298.049 741.397 298.063 739.214ZM298.881 755.586H315.881V753.13H301.937V747.454H298.881V755.586Z" fill="white"/>
<rect width="568.689" height="834" rx="35.4692" fill="black" fill-opacity="0.5"/>
<rect x="48.7278" y="596.257" width="466.617" height="82.4264" rx="41.2132" fill="white"/>
<path d="M254.902 625.232H251.873V649.899H254.902V625.232ZM234.464 643.05L234.901 645.561C239.335 645.561 245.229 645.492 250.645 644.578L250.427 642.314C248.367 642.586 246.184 642.764 244.015 642.859V640.69C246.784 640.24 248.599 638.562 248.599 636.229C248.599 633.446 246.088 631.604 242.459 631.59C238.871 631.604 236.402 633.446 236.402 636.229C236.402 638.575 238.216 640.267 240.986 640.704V642.968C238.653 643.037 236.429 643.037 234.464 643.05ZM234.983 630.471H249.99V628.07H244.015V625.314H240.986V628.07H234.983V630.471ZM239.294 636.229C239.267 634.796 240.59 633.923 242.459 633.909C244.383 633.923 245.693 634.796 245.679 636.229C245.693 637.648 244.383 638.48 242.459 638.466C240.59 638.48 239.267 637.648 239.294 636.229ZM279.187 625.26H276.131V639.64H271.301V641.768H276.131V643.923H279.187V625.26ZM258.394 636.338L258.776 638.766C260.714 638.766 262.91 638.753 265.216 638.657V643.241H268.245V638.494C270.332 638.343 272.433 638.125 274.466 637.784L274.302 635.601C269.063 636.27 262.938 636.311 258.394 636.338ZM260.277 630.526C260.277 633.173 262.788 634.851 266.444 634.864C270.032 634.851 272.556 633.173 272.583 630.526C272.556 627.92 270.032 626.146 266.444 626.16C262.788 626.146 260.277 627.92 260.277 630.526ZM261.669 649.408H279.76V646.952H264.698V642.123H261.669V649.408ZM263.142 630.526C263.142 629.189 264.466 628.384 266.444 628.398C268.327 628.384 269.677 629.189 269.691 630.526C269.677 631.863 268.327 632.641 266.444 632.654C264.466 632.641 263.142 631.863 263.142 630.526ZM301.971 625.232H298.942V649.845H301.971V637.402H305.627V634.864H301.971V625.232ZM282.516 643.105L284.235 645.452C292.434 641.413 295.436 635.042 295.449 627.797H283.853V630.308H292.366C291.766 635.929 288.518 640.103 282.516 643.105ZM327.347 625.232H324.291V638.466H327.347V625.232ZM307.237 632.109C307.237 635.478 310.075 637.852 313.895 637.839C317.701 637.852 320.539 635.478 320.525 632.109C320.539 628.684 317.701 626.31 313.895 626.324C310.075 626.31 307.237 628.684 307.237 632.109ZM310.211 632.109C310.197 630.13 311.739 628.848 313.895 628.861C316.009 628.848 317.551 630.13 317.551 632.109C317.551 634.087 316.009 635.342 313.895 635.356C311.739 635.342 310.197 634.087 310.211 632.109ZM311.03 649.599H327.347V639.612H324.318V642.15H314.031V639.612H311.03V649.599ZM314.031 647.143V644.524H324.318V647.143H314.031Z" fill="#1F41FF"/>
<rect x="48.7278" y="596.257" width="466.617" height="82.4264" rx="41.2132" stroke="#1F41FF" stroke-width="1.39706"/>
<defs>
<linearGradient id="paint0_linear_33_1624" x1="272.382" y1="310.787" x2="296.039" y2="314.017" gradientUnits="userSpaceOnUse">
<stop stop-color="#E7632F"/>
<stop offset="0.3" stop-color="#E05629"/>
<stop offset="1" stop-color="#D23E1D"/>
</linearGradient>
<linearGradient id="paint1_linear_33_1624" x1="177.356" y1="303.768" x2="195.326" y2="306.74" gradientUnits="userSpaceOnUse">
<stop stop-color="#E7632F"/>
<stop offset="0.3" stop-color="#E05629"/>
<stop offset="1" stop-color="#D23E1D"/>
</linearGradient>
<linearGradient id="paint2_linear_33_1624" x1="163.955" y1="343.92" x2="374.507" y2="378.739" gradientUnits="userSpaceOnUse">
<stop stop-color="#E7632F"/>
<stop offset="0.3" stop-color="#E05629"/>
<stop offset="1" stop-color="#D23E1D"/>
</linearGradient>
<linearGradient id="paint3_linear_33_1624" x1="183.38" y1="332.036" x2="419.455" y2="369.257" gradientUnits="userSpaceOnUse">
<stop stop-color="#E7632F"/>
<stop offset="0.3" stop-color="#E05629"/>
<stop offset="1" stop-color="#D23E1D"/>
</linearGradient>
<linearGradient id="paint4_linear_33_1624" x1="185.957" y1="315.64" x2="422.031" y2="352.86" gradientUnits="userSpaceOnUse">
<stop stop-color="#E7632F"/>
<stop offset="0.3" stop-color="#E05629"/>
<stop offset="1" stop-color="#D23E1D"/>
</linearGradient>
<linearGradient id="paint5_linear_33_1624" x1="354.133" y1="352.363" x2="378.477" y2="356.389" gradientUnits="userSpaceOnUse">
<stop stop-color="#E7632F"/>
<stop offset="0.3" stop-color="#E05629"/>
<stop offset="1" stop-color="#D23E1D"/>
</linearGradient>
<linearGradient id="paint6_linear_33_1624" x1="185.188" y1="320.559" x2="421.262" y2="357.78" gradientUnits="userSpaceOnUse">
<stop stop-color="#E7632F"/>
<stop offset="0.3" stop-color="#E05629"/>
<stop offset="1" stop-color="#D23E1D"/>
</linearGradient>
<linearGradient id="paint7_linear_33_1624" x1="424.951" y1="518.122" x2="319.344" y2="522.07" gradientUnits="userSpaceOnUse">
<stop stop-color="#83B1F9"/>
<stop offset="0.03" stop-color="#7EAAF8"/>
<stop offset="0.25" stop-color="#5D7EF7"/>
<stop offset="0.46" stop-color="#435BF6"/>
<stop offset="0.67" stop-color="#3143F5"/>
<stop offset="0.85" stop-color="#2534F5"/>
<stop offset="1" stop-color="#222FF5"/>
</linearGradient>
<clipPath id="clip0_33_1624">
<rect width="221.637" height="46.1876" fill="white" transform="translate(173.308 142.812)"/>
</clipPath>
</defs>
</svg>
