<svg width="701" height="901" viewBox="0 0 701 901" fill="none" xmlns="http://www.w3.org/2000/svg">
<rect x="36.8022" width="587.996" height="878.377" rx="33.0683" fill="#F4F5F8"/>
<line x1="36.8022" y1="98.8959" x2="623.765" y2="98.8959" stroke="#EBEBEB" stroke-width="1.25219"/>
<path d="M106.556 170.724H102.857V201.124H106.556V185.319H109.952V182.158H106.556V170.724ZM82.0075 193.961H90.7508V173.515H87.657V180.812H85.1013V173.515H82.0075V193.961ZM85.1013 190.901V183.772H87.657V190.901H85.1013ZM92.1296 193.961H100.806V173.515H97.7118V180.812H95.1561V173.515H92.1296V193.961ZM95.1561 190.901V183.772H97.7118V190.901H95.1561ZM139.175 194.465H111.398V197.526H139.175V194.465ZM114.627 175.903H132.181V179.669H114.694V189.589H136.586V186.63H118.427V182.662H135.88V172.876H114.627V175.903ZM165.977 173.515H144.051V176.508H162.21C162.194 180.157 162.194 184.478 161 190.396L164.766 190.8C165.943 184.444 165.943 180.224 165.977 176.441V173.515ZM141.159 197.189H168.869V194.129H155.081V183.57H151.382V194.129H141.159V197.189ZM203.069 170.724H199.269V192.649H203.069V182.595H207.306V179.467H203.069V170.724ZM178.991 186.529L180.538 189.488C189.533 186.882 194.813 181.115 194.796 173.044H180.269V176.104H190.71C190.071 180.728 185.952 184.511 178.991 186.529ZM183.531 200.518H204.212V197.492H187.331V190.396H183.531V200.518ZM234.309 170.724H230.576V176.239H226.272V179.266H230.576V182.158H226.272V185.251H230.576V193.188H234.309V170.724ZM208.886 186.092L209.29 189.186C214.132 189.186 220.875 189.068 226.642 188.143L226.474 185.419C225.398 185.537 224.288 185.638 223.144 185.722V176.004H225.835V173.011H209.66V176.004H212.316V186.075C211.106 186.092 209.945 186.092 208.886 186.092ZM214.334 200.518H235.082V197.492H218.1V191.439H214.334V200.518ZM215.948 186.025V176.004H219.546V185.907C218.336 185.958 217.125 186.008 215.948 186.025ZM262.59 170.758H258.857V193.457H262.59V183.402H266.827V180.308H262.59V170.758ZM238.647 177.113H256.672V174.12H249.542V170.724H245.81V174.12H238.647V177.113ZM240.194 184.175C240.194 187.656 243.237 189.926 247.659 189.926C252.048 189.926 255.074 187.656 255.091 184.175C255.074 180.678 252.048 178.358 247.659 178.358C243.237 178.358 240.194 180.678 240.194 184.175ZM243.12 200.518H263.801V197.492H246.852V191.674H243.12V200.518ZM243.826 184.175C243.809 182.326 245.356 181.25 247.659 181.25C249.963 181.25 251.527 182.326 251.527 184.175C251.527 186.008 249.963 187.05 247.659 187.034C245.356 187.05 243.809 186.008 243.826 184.175ZM107.8 217.724H104.236V229.628H100.806V218.296H97.3756V246.577H100.806V232.621H104.236V248.124H107.8V217.724ZM82.5792 241.028H84.6305C88.8677 240.995 92.0455 240.894 95.7278 240.154L95.4588 237.094C92.365 237.665 89.6411 237.834 86.3456 237.867V224.349H93.9455V221.322H82.5792V241.028ZM128.448 220.751H121.991V217.455H118.259V220.751H111.466V223.71H128.448V220.751ZM113.046 230.604C113.029 233.983 115.921 236.219 120.074 236.219C124.211 236.219 127.187 233.983 127.204 230.604C127.187 227.207 124.211 224.92 120.074 224.92C115.921 224.92 113.029 227.207 113.046 230.604ZM116.241 242.811C116.241 246.106 120.192 248.09 126.632 248.09C133.055 248.09 137.006 246.106 137.023 242.811C137.006 239.465 133.055 237.514 126.632 237.531C120.192 237.514 116.241 239.465 116.241 242.811ZM116.544 230.604C116.527 228.788 117.922 227.712 120.074 227.712C122.227 227.712 123.706 228.788 123.706 230.604C123.706 232.386 122.227 233.428 120.074 233.428C117.922 233.428 116.527 232.386 116.544 230.604ZM120.175 242.811C120.159 241.196 122.529 240.389 126.632 240.389C130.701 240.389 133.021 241.196 133.021 242.811C133.021 244.391 130.701 245.249 126.632 245.232C122.529 245.249 120.159 244.391 120.175 242.811ZM128.616 233.63H133.122V237.195H136.855V217.724H133.122V224.618H128.65V227.644H133.122V230.637H128.616V233.63ZM167.557 217.724H163.993V248.124H167.557V217.724ZM140.823 238.002L141.26 241.095C145.195 241.079 151.433 240.961 156.124 240.154L155.855 237.363C155.031 237.464 154.14 237.548 153.198 237.615V224.315H155.35V221.255H141.428V224.315H143.581V237.985L140.823 238.002ZM146.943 237.918V224.315H149.835V237.817C148.877 237.85 147.902 237.884 146.943 237.918ZM154.644 235.446H158.041V246.61H161.504V218.363H158.041V226.198H154.644V229.292H158.041V232.386H154.644V235.446ZM196.309 217.724H192.543V248.124H196.309V217.724ZM171.122 239.75L173.072 242.743C183.716 237.682 187.23 229.998 187.23 220.952H172.669V223.912H183.43C182.757 230.822 179.092 235.967 171.122 239.75ZM228.39 230.065H200.681V233.025H212.619V235.311H203.943V238.136H221.261V240.087H203.976V247.855H225.767V244.996H207.642V242.777H224.927V235.311H216.352V233.025H228.39V230.065ZM204.178 228.149H224.826V218.666H204.178V228.149ZM207.844 225.223V221.591H221.093V225.223H207.844ZM264.103 217.724H260.404V228.619H254.217V220.078H250.551V227.644H243.523V220.078H239.757V240.793H254.217V231.68H260.404V248.157H264.103V217.724ZM243.523 237.8V230.57H250.551V237.8H243.523ZM293.696 217.724H289.997V248.157H293.696V217.724ZM270.022 223.407H280.548V228.821H270.056V240.961H272.712C278.177 240.978 282.717 240.776 287.878 239.885L287.542 236.825C282.801 237.615 278.681 237.867 273.889 237.901V231.781H284.348V220.381H270.022V223.407ZM323.524 217.724H319.758V248.124H323.524V217.724ZM298.337 239.75L300.287 242.743C310.931 237.682 314.445 229.998 314.445 220.952H299.884V223.912H310.645C309.972 230.822 306.307 235.967 298.337 239.75Z" fill="#111111"/>
<ellipse cx="483.676" cy="306.527" rx="107.218" ry="16.4349" fill="#D3D3D3"/>
<g clip-path="url(#clip0_216_2704)">
<path d="M424.173 222.191C440.908 219.882 487.887 231.206 487.887 231.206C487.887 231.206 472.375 281.352 470.643 285.727C468.912 290.101 466.54 293.117 459.623 291.792L415.01 283.248L424.174 222.185L424.173 222.191Z" fill="#D1613C"/>
<path d="M419.098 284.037C428.886 262.166 443.236 225.257 426.81 222.111C412.324 219.337 410.992 258.516 411.858 282.651L419.098 284.037Z" fill="#DA7348"/>
<path d="M459.511 255.761C459.459 226.379 458.916 207.459 460.339 193.989C462.183 176.636 481.184 159.165 523.135 167.199C565.085 175.233 569.465 199.482 565.72 214.368C561.976 229.253 535.676 299.489 535.676 299.489L460.528 273.852L459.512 255.755L459.511 255.761Z" fill="#D1613C"/>
<path d="M450.328 256.454C450.517 227.119 455.803 206.311 457.284 192.852C459.184 175.517 474.819 157.946 514.937 165.63C555.056 173.313 559.055 197.489 555.342 212.381C551.636 227.274 525.881 297.614 525.881 297.614L454.106 272.623L450.328 256.454Z" fill="#DA7348"/>
<path d="M432.481 258.221L422.984 284.781L493.178 298.224L496.335 270.45L432.481 258.221Z" fill="#DA7348"/>
<path d="M432.05 258.139C433.346 251.368 443.558 247.947 453.406 248.788C463.255 249.63 492.796 252.895 502.474 260.874C512.145 268.851 519.361 274.86 498.617 270.887L432.05 258.139Z" fill="#DF8058"/>
<path d="M504.783 237.629C517.854 234.618 553.795 243.828 553.795 243.828C553.795 243.828 539.608 294.228 538.079 298.641C536.551 303.054 534.578 306.147 529.272 305.131L495.05 298.577L504.778 237.622L504.783 237.629Z" fill="#D1613C"/>
<path d="M498.364 299.218C508.153 277.347 522.503 240.438 506.077 237.292C491.59 234.518 490.259 273.696 491.124 297.831L498.364 299.218Z" fill="#DA7348"/>
</g>
<path d="M97.0637 300.545C104.628 300.545 110.76 294.414 110.76 286.85C110.76 279.286 104.628 273.154 97.0637 273.154C89.4997 273.154 83.3679 279.286 83.3679 286.85C83.3679 294.414 89.4997 300.545 97.0637 300.545Z" fill="#D3D3D3"/>
<path d="M102.326 280.626C102.048 280.02 101.646 279.48 101.146 279.04C100.604 278.584 99.9796 278.235 99.3071 278.011C98.5466 277.755 97.7482 277.629 96.9457 277.64C96.1736 277.632 95.4067 277.769 94.6856 278.045C94.0117 278.307 93.3978 278.703 92.8808 279.209C92.3398 279.724 91.9094 280.344 91.6158 281.031C91.5607 281.139 91.5156 281.252 91.4809 281.368C91.3935 281.598 91.3632 281.845 91.3926 282.089C91.4219 282.333 91.51 282.566 91.6494 282.768C91.7887 282.971 91.9751 283.136 92.1926 283.251C92.41 283.365 92.652 283.425 92.8977 283.426H93.0495C93.3708 283.427 93.6844 283.327 93.9451 283.139C94.2058 282.951 94.4 282.685 94.5 282.38C94.6066 281.805 94.9115 281.286 95.3615 280.913C95.8115 280.54 96.3781 280.337 96.9626 280.339C97.313 280.332 97.6617 280.389 97.9914 280.508C98.2856 280.632 98.5543 280.809 98.7842 281.031C99.0123 281.242 99.1909 281.501 99.3071 281.79C99.4435 282.097 99.5125 282.431 99.5094 282.768C99.5269 282.942 99.5269 283.117 99.5094 283.291C99.4774 283.479 99.4024 283.658 99.2902 283.814C99.1389 284.04 98.9636 284.249 98.7673 284.438C98.4753 284.754 98.1595 285.047 97.8228 285.315C97.0317 285.913 96.3764 286.671 95.9 287.541C95.7004 288.021 95.5698 288.526 95.512 289.042C95.512 289.245 95.512 289.464 95.512 289.7C95.4882 289.913 95.5098 290.129 95.5753 290.333C95.6409 290.537 95.7489 290.725 95.8923 290.884C96.0357 291.044 96.2113 291.171 96.4074 291.257C96.6035 291.344 96.8157 291.388 97.03 291.387C97.4112 291.388 97.7785 291.243 98.0573 290.983C98.3361 290.723 98.5055 290.367 98.5312 289.987C98.5454 289.588 98.6252 289.195 98.7673 288.823C98.8993 288.568 99.07 288.334 99.2733 288.131C99.5432 287.862 99.8805 287.541 100.302 287.187C101.115 286.581 101.797 285.818 102.309 284.944C102.651 284.288 102.84 283.564 102.863 282.825C102.892 281.927 102.766 281.589 102.467 280.913L102.326 280.626Z" fill="white"/>
<path d="M96.9457 292.534C96.4983 292.534 96.0693 292.711 95.753 293.028C95.4367 293.344 95.259 293.773 95.259 294.22C95.2476 294.449 95.2827 294.677 95.3624 294.892C95.442 295.106 95.5644 295.302 95.7222 295.468C95.8799 295.634 96.0698 295.765 96.2801 295.855C96.4905 295.945 96.7169 295.992 96.9457 295.991C97.1745 295.992 97.4009 295.945 97.6112 295.855C97.8216 295.765 98.0114 295.634 98.1691 295.468C98.3269 295.302 98.4494 295.106 98.529 294.892C98.6086 294.677 98.6438 294.449 98.6324 294.22C98.6324 293.773 98.4546 293.344 98.1383 293.028C97.822 292.711 97.393 292.534 96.9457 292.534Z" fill="white"/>
<path d="M134.351 276.875H121.019V278.78H131.976C131.976 280.149 131.933 281.658 131.526 283.659H118.836V285.563H126.455V288.153C122.913 288.377 120.805 289.672 120.805 291.769C120.805 294.123 123.395 295.45 127.653 295.45C131.858 295.45 134.437 294.123 134.458 291.769C134.437 289.672 132.329 288.377 128.809 288.142V285.563H136.513V283.659H133.923C134.362 281.508 134.362 279.796 134.351 278.352V276.875ZM123.223 291.769C123.202 290.614 124.785 290.025 127.653 290.015C130.456 290.025 132.04 290.614 132.061 291.769C132.04 292.946 130.456 293.545 127.653 293.545C124.785 293.545 123.202 292.946 123.223 291.769ZM153.29 277.068H139.958V278.972H150.914C150.914 280.385 150.872 281.968 150.412 284.065H137.775V285.991H155.451V284.065H152.819C153.301 281.786 153.301 280.074 153.29 278.566V277.068ZM139.894 295.236H153.268V288.238H139.894V295.236ZM142.226 293.31V290.1H150.914V293.31H142.226ZM166.151 279.208H162.62V276.683H160.266V279.208H156.671V281.112H166.151V279.208ZM157.227 286.633C157.206 289.319 158.993 291.192 161.443 291.192C163.904 291.192 165.659 289.319 165.659 286.633C165.659 284.001 163.904 282.129 161.443 282.139C158.993 282.129 157.206 284.001 157.227 286.633ZM159.325 286.633C159.314 285.114 160.191 284.108 161.443 284.108C162.684 284.108 163.562 285.114 163.562 286.633C163.562 288.196 162.684 289.169 161.443 289.159C160.191 289.169 159.314 288.196 159.325 286.633ZM166.964 294.594H169.19V286.013H171.073V295.471H173.341V276.126H171.073V284.087H169.19V276.533H166.964V294.594ZM193.329 291.17H189.263V286.227C190.761 285.339 191.67 283.98 191.659 282.289C191.67 279.208 188.631 277.175 184.448 277.175C180.286 277.175 177.268 279.208 177.279 282.289C177.268 284.001 178.199 285.392 179.74 286.28V291.17H175.653V293.118H193.329V291.17ZM179.611 282.289C179.601 280.278 181.559 279.047 184.448 279.058C187.326 279.047 189.327 280.278 189.327 282.289C189.327 284.269 187.326 285.531 184.448 285.521C181.559 285.531 179.601 284.269 179.611 282.289ZM182.094 291.17V287.147C182.821 287.297 183.613 287.382 184.448 287.382C185.304 287.382 186.106 287.297 186.845 287.136V291.17H182.094Z" fill="#949494"/>
<g filter="url(#filter0_d_216_2704)">
<rect x="61.8459" y="359.351" width="261.394" height="288.003" rx="25.0437" fill="white"/>
</g>
<g filter="url(#filter1_d_216_2704)">
<rect x="337.327" y="359.351" width="261.394" height="288.003" rx="25.0437" fill="white"/>
</g>
<g clip-path="url(#clip1_216_2704)">
<rect x="331.066" y="584.744" width="273.916" height="76.6964" fill="#E6F0FF"/>
<path d="M561.155 621.415H554.894L565.851 640.198H572.112L561.155 621.415Z" fill="white"/>
<path d="M543.938 591.005H537.677L544.72 601.962H550.981L543.938 591.005Z" fill="white"/>
<path d="M377.241 621.415H383.502L372.545 640.198H366.284L377.241 621.415Z" fill="white"/>
<path d="M394.458 591.005H400.719L393.676 601.962H387.415L394.458 591.005Z" fill="white"/>
<rect x="450.8" y="505.327" width="42.5234" height="34.3459" rx="4.90655" fill="#FDECAB"/>
<g clip-path="url(#clip2_216_2704)">
<path d="M502.963 524.52H469.593C467.908 524.52 466.542 525.886 466.542 527.57V585.505C466.542 587.19 467.908 588.556 469.593 588.556H502.963C504.647 588.556 506.013 587.19 506.013 585.505V527.57C506.013 525.886 504.647 524.52 502.963 524.52Z" fill="#DDDDDD"/>
<path d="M476.371 513.623H434.852C432.964 513.623 431.433 515.154 431.433 517.042V580.429C431.433 582.317 432.964 583.848 434.852 583.848H476.371C478.259 583.848 479.79 582.317 479.79 580.429V517.042C479.79 515.154 478.259 513.623 476.371 513.623Z" fill="#C8C8C8"/>
<mask id="mask0_216_2704" style="mask-type:luminance" maskUnits="userSpaceOnUse" x="431" y="513" width="49" height="71">
<path d="M476.061 513.615H435.161C433.102 513.615 431.433 515.284 431.433 517.343V580.111C431.433 582.17 433.102 583.84 435.161 583.84H476.061C478.121 583.84 479.79 582.17 479.79 580.111V517.343C479.79 515.284 478.121 513.615 476.061 513.615Z" fill="white"/>
</mask>
<g mask="url(#mask0_216_2704)">
<path d="M454.274 513.504H431.389V580.082H454.274V513.504Z" fill="#EAEFFF"/>
<path d="M479.834 513.504H456.949V580.082H479.834V513.504Z" fill="#EAEFFF"/>
</g>
<path d="M523.143 569.596H513.764L509.704 551.176C509.395 549.654 508.726 548.229 507.752 547.02C505.342 544.117 501.776 543.336 498.092 543.336H440.245C436.259 543.336 432.59 543.336 430.085 547.404C429.407 548.544 428.921 549.789 428.648 551.088L424.574 569.633H415.216C412.903 569.633 413.227 573.715 413.227 576.028C413.228 576.848 413.47 577.649 413.922 578.332C414.374 579.016 415.016 579.552 415.769 579.875L419.873 582.004C419.652 582.741 418.399 583.529 418.399 586.425V620.59C418.401 621.596 418.802 622.56 419.513 623.271C420.224 623.983 421.188 624.383 422.194 624.385H515.945C516.443 624.385 516.937 624.287 517.397 624.096C517.857 623.905 518.276 623.626 518.628 623.274C518.98 622.921 519.26 622.503 519.451 622.043C519.641 621.582 519.739 621.089 519.739 620.59V586.425C519.739 583.374 518.531 582.741 518.317 582.004L522.458 579.86C523.229 579.544 523.888 579.007 524.353 578.315C524.817 577.624 525.066 576.81 525.066 575.977C525.133 573.678 525.457 569.596 523.143 569.596Z" fill="#4561FA"/>
<path d="M502.808 631.945H513.764C514.061 631.95 514.355 631.895 514.63 631.784C514.905 631.673 515.154 631.507 515.364 631.298C515.574 631.088 515.739 630.838 515.85 630.563C515.962 630.288 516.016 629.994 516.011 629.698V624.4H500.538V629.698C500.539 629.994 500.599 630.288 500.713 630.561C500.828 630.835 500.996 631.083 501.207 631.292C501.417 631.501 501.667 631.666 501.942 631.778C502.217 631.89 502.511 631.947 502.808 631.945Z" fill="#4A5966"/>
<path d="M424.507 631.945H435.471C436.066 631.943 436.637 631.705 437.058 631.284C437.479 630.863 437.716 630.293 437.718 629.698V624.4H422.245V629.698C422.246 629.994 422.306 630.287 422.42 630.56C422.534 630.833 422.701 631.081 422.911 631.29C423.121 631.498 423.37 631.664 423.644 631.776C423.918 631.888 424.211 631.946 424.507 631.945Z" fill="#4A5966"/>
<path d="M443.768 596.373C443.77 595.528 443.461 594.712 442.899 594.08C442.338 593.448 441.564 593.045 440.725 592.947L429.333 591.621C428.849 591.564 428.359 591.61 427.893 591.756C427.428 591.902 426.999 592.145 426.635 592.468C426.27 592.792 425.978 593.189 425.778 593.633C425.577 594.078 425.473 594.56 425.473 595.047V597.493H443.768V596.373Z" fill="#DB754C"/>
<path d="M428.928 607.351H440.29C441.205 607.349 442.082 606.984 442.729 606.336C443.375 605.688 443.738 604.81 443.738 603.895V597.47H425.473V603.895C425.473 604.812 425.837 605.691 426.485 606.339C427.133 606.987 428.012 607.351 428.928 607.351Z" fill="white"/>
<path d="M496.161 596.373C496.161 595.528 496.472 594.711 497.034 594.08C497.597 593.448 498.372 593.045 499.212 592.947L510.573 591.621C511.057 591.564 511.548 591.61 512.012 591.756C512.477 591.902 512.906 592.145 513.27 592.468C513.634 592.792 513.925 593.189 514.125 593.634C514.324 594.078 514.427 594.56 514.427 595.047V597.493H496.161V596.373Z" fill="#DB754C"/>
<path d="M510.978 607.351H499.617C498.701 607.351 497.822 606.987 497.173 606.339C496.525 605.691 496.161 604.812 496.161 603.895V597.47H514.427V603.895C514.427 604.81 514.064 605.688 513.417 606.336C512.771 606.984 511.894 607.349 510.978 607.351Z" fill="white"/>
<path d="M502.329 574.923H436.643C436.111 574.924 435.585 574.81 435.102 574.588C434.619 574.367 434.189 574.044 433.843 573.64C433.496 573.237 433.241 572.764 433.095 572.253C432.949 571.741 432.914 571.205 432.995 570.679L435.552 553.983C435.685 553.105 436.131 552.304 436.808 551.729C437.485 551.153 438.348 550.842 439.236 550.852H499.765C500.645 550.852 501.497 551.169 502.165 551.743C502.833 552.318 503.272 553.112 503.404 553.983L505.961 570.679C506.042 571.203 506.008 571.739 505.863 572.249C505.717 572.759 505.464 573.232 505.119 573.635C504.774 574.038 504.346 574.361 503.865 574.584C503.383 574.806 502.859 574.922 502.329 574.923Z" fill="#8CB2FF"/>
</g>
</g>
<path d="M171.372 565.595C168.905 554.88 161.821 545.615 152.484 540.021C146.271 536.298 137.377 533.587 129.788 535.073C129.126 534.402 128.426 533.77 127.69 533.182C117.466 525.145 102.317 527.474 94.9898 538.329C93.9473 539.871 96.1424 541.807 97.2011 540.24C102.576 532.278 113.04 528.875 121.83 532.986C123.524 533.783 125.105 534.807 126.528 536.03C124.069 536.97 121.88 538.509 120.156 540.511C116.776 544.459 115.478 550.383 118.56 554.9C121.27 558.868 126.654 560.968 131.002 558.401C135.007 556.033 136.237 550.844 135.687 546.471C135.23 543.262 133.962 540.225 132.006 537.653C138.513 536.958 145.86 539.515 150.991 542.552C155.38 545.146 159.203 548.609 162.23 552.733C165.258 556.856 167.427 561.555 168.607 566.546C169.038 568.375 171.793 567.421 171.372 565.595ZM131.582 542.585C133.171 545.997 133.621 550.635 131.501 553.937C129.053 557.744 124.112 557.072 121.445 553.874C118.207 550.004 119.952 544.606 123.293 541.442C124.861 539.977 126.745 538.9 128.797 538.297C129.914 539.592 130.85 541.035 131.582 542.585Z" fill="#C7DDFF"/>
<path d="M149.023 602.713L148.92 602.664C148.057 602.247 147.02 602.61 146.604 603.472L145.368 606.037C144.952 606.899 145.314 607.936 146.176 608.352L146.28 608.402C147.142 608.818 148.179 608.456 148.595 607.593L149.832 605.029C150.248 604.166 149.886 603.129 149.023 602.713Z" fill="#B18F66"/>
<path d="M154.7 591.809L153.919 591.432L148.432 602.809L149.213 603.186L154.7 591.809Z" fill="#B18F66"/>
<path d="M172.297 588.052L167.109 585.55L147.046 627.153L152.233 629.655L172.297 588.052Z" fill="#4A5966"/>
<path d="M180.974 604.826L148.552 589.19C148.079 588.964 147.673 588.619 147.374 588.188C147.075 587.757 146.894 587.256 146.848 586.733C146.778 586.014 146.965 585.294 147.376 584.699L163.009 562.339C163.419 561.747 164.026 561.32 164.721 561.133C165.416 560.946 166.155 561.012 166.807 561.319L191.433 573.195C192.085 573.509 192.603 574.046 192.893 574.709C193.183 575.372 193.226 576.117 193.014 576.809L192.539 578.397L192.301 579.191L190.528 585.129L190.255 586.033L185.206 602.943C185.081 603.365 184.866 603.756 184.576 604.087C184.285 604.418 183.927 604.682 183.524 604.861C183.122 605.04 182.686 605.13 182.245 605.124C181.805 605.117 181.371 605.016 180.974 604.826Z" fill="#96B265"/>
<path d="M161.908 626.129C159.618 623.597 156.789 621.612 153.629 620.32C150.707 618.764 147.494 617.833 144.193 617.586C141.338 617.444 138.533 618.363 137.51 620.485C137.341 621.012 137.38 621.584 137.619 622.083C137.857 622.583 138.277 622.973 138.792 623.174L160.603 633.693C161.102 633.983 161.695 634.064 162.252 633.917C162.81 633.771 163.287 633.409 163.578 632.911C164.573 630.884 163.57 628.294 161.908 626.129Z" fill="#4A5966"/>
<path fill-rule="evenodd" clip-rule="evenodd" d="M199.82 589.835H271.404L268.16 541.598C267.69 536.304 267.062 532.758 262.54 532.758H208.684C204.162 532.758 203.535 536.304 203.064 541.598L199.82 589.835Z" fill="#C8C8C8"/>
<path fill-rule="evenodd" clip-rule="evenodd" d="M196.54 594.623H274.684C273.438 585.571 260.414 580.812 235.612 580.345C210.81 580.779 197.786 585.539 196.54 594.623Z" fill="#E8E8E8"/>
<path d="M268.088 588.087H203.137C199.447 588.087 196.456 591.078 196.456 594.768V599.157C196.456 602.847 199.447 605.838 203.137 605.838H268.088C271.777 605.838 274.768 602.847 274.768 599.157V594.768C274.768 591.078 271.777 588.087 268.088 588.087Z" fill="#C8C8C8"/>
<path d="M267.256 605.838H203.969V611.554H267.256V605.838Z" fill="#4A5966"/>
<path fill-rule="evenodd" clip-rule="evenodd" d="M202.956 545.409C203.438 540.248 204.065 536.799 208.599 536.799H262.661C267.195 536.799 267.822 540.248 268.304 545.409V541.357C267.822 536.184 267.195 532.735 262.661 532.735H208.599C204.065 532.735 203.438 536.184 202.956 541.357V545.409Z" fill="#DCDCDC"/>
<path fill-rule="evenodd" clip-rule="evenodd" d="M207.261 632.453C206.829 632.453 206.401 632.368 206.001 632.202C205.602 632.037 205.239 631.794 204.933 631.489C204.627 631.183 204.385 630.82 204.219 630.421C204.054 630.021 203.969 629.593 203.969 629.161V608.901H212.41L210.577 629.161C210.579 629.596 210.494 630.026 210.328 630.428C210.161 630.83 209.917 631.195 209.608 631.501C209.299 631.807 208.933 632.049 208.53 632.213C208.127 632.376 207.696 632.458 207.261 632.453Z" fill="#4A5966"/>
<path fill-rule="evenodd" clip-rule="evenodd" d="M263.964 632.453C264.837 632.453 265.674 632.106 266.292 631.489C266.909 630.871 267.256 630.034 267.256 629.161V608.901H258.814L260.635 629.161C260.635 629.596 260.721 630.027 260.889 630.429C261.057 630.831 261.303 631.195 261.612 631.502C261.922 631.808 262.289 632.05 262.693 632.213C263.096 632.376 263.528 632.458 263.964 632.453Z" fill="#4A5966"/>
<path d="M282.329 578.777C276.136 579.53 269.866 578.224 264.487 575.062C259.109 571.9 254.919 567.057 252.565 561.278C250.211 555.5 249.822 549.108 251.46 543.087C253.097 537.067 256.669 531.751 261.625 527.961C266.581 524.171 272.647 522.116 278.886 522.113C285.125 522.11 291.192 524.16 296.152 527.946C301.112 531.731 304.688 537.043 306.331 543.063C307.974 549.082 307.591 555.474 305.242 561.255L282.329 578.777Z" fill="#8FB5FF"/>
<path d="M305.121 561.327C305.121 561.327 287.141 558.144 282.546 577.631C282.546 577.631 282.317 578.536 282.269 578.765H282.329C283.571 577.812 304.928 561.701 305.121 561.327Z" fill="#5980F9"/>
<path d="M292.966 546.338L291.446 546.217L292.471 543.709C292.672 543.239 292.688 542.711 292.515 542.23C292.343 541.75 291.996 541.352 291.543 541.116C291.317 541.017 291.074 540.966 290.828 540.965C290.582 540.964 290.338 541.014 290.112 541.111C289.886 541.208 289.682 541.351 289.513 541.53C289.344 541.71 289.214 541.921 289.131 542.153L287.599 545.904L282.197 545.481L281.461 542.575C281.417 542.441 281.361 542.312 281.292 542.189C281.243 542.089 281.187 541.992 281.124 541.9C281.045 541.813 280.961 541.733 280.87 541.659C280.782 541.576 280.685 541.503 280.581 541.442H280.509C280.422 541.415 280.333 541.394 280.243 541.381C280.132 541.336 280.014 541.307 279.894 541.297C279.777 541.285 279.66 541.285 279.544 541.297C279.447 541.291 279.351 541.291 279.254 541.297H279.182C279.079 541.337 278.982 541.39 278.893 541.454C278.775 541.512 278.666 541.585 278.567 541.671C278.493 541.743 278.429 541.824 278.374 541.912C278.276 542.015 278.195 542.133 278.133 542.262V542.334L276.927 545.071L271.525 544.649L270.596 540.694C270.551 540.453 270.457 540.224 270.319 540.021C270.182 539.818 270.004 539.645 269.797 539.514C269.59 539.383 269.358 539.296 269.116 539.258C268.873 539.22 268.626 539.233 268.389 539.295C267.903 539.454 267.496 539.791 267.249 540.239C267.003 540.687 266.936 541.212 267.062 541.707L267.677 544.336L265.869 544.191C265.379 544.206 264.911 544.401 264.556 544.739C264.201 545.077 263.983 545.534 263.945 546.022C263.906 546.511 264.049 546.997 264.346 547.386C264.643 547.776 265.074 548.043 265.555 548.134L268.618 548.376L271.199 559.41C271.277 559.789 271.473 560.135 271.759 560.397C272.045 560.659 272.406 560.824 272.791 560.869C273.181 560.887 273.568 560.78 273.893 560.563C274.219 560.346 274.466 560.031 274.599 559.663L279.134 549.172H279.399L282.209 560.254C282.287 560.624 282.477 560.962 282.753 561.221C283.029 561.48 283.378 561.647 283.752 561.701C284.143 561.718 284.528 561.61 284.853 561.393C285.178 561.176 285.426 560.862 285.561 560.495L289.854 550.016L292.628 550.233C293.126 550.234 293.607 550.047 293.973 549.71C294.34 549.372 294.566 548.909 294.605 548.412C294.645 547.916 294.496 547.422 294.187 547.031C293.879 546.64 293.434 546.379 292.942 546.301L292.966 546.338ZM273.418 553.031L272.405 548.653L275.214 548.882L273.418 553.031ZM284.331 553.899L283.222 549.521L286.032 549.738L284.331 553.899Z" fill="white"/>
<path d="M102.337 422.062H98.8154V437.14H102.337V422.062ZM81.4817 434.031L83.2976 436.754C86.2416 435.778 88.2776 433.81 89.4195 431.334C90.5475 433.604 92.5148 435.406 95.3212 436.287L97.1096 433.563C93.0238 432.325 91.1528 429.271 91.1391 426.327H96.1741V423.52H82.4172V426.327H87.5623C87.5348 429.449 85.6226 432.696 81.4817 434.031ZM85.1135 441.047H98.8154V447.1H102.337V438.24H85.1135V441.047ZM126.825 422.062H123.33V427.675H119.368V430.536H123.33V435.764H126.825V422.062ZM105.584 433.453L107.372 436.204C110.33 435.241 112.325 433.233 113.439 430.729C114.526 432.971 116.438 434.773 119.203 435.681L120.937 432.985C117.153 431.733 115.351 428.844 115.2 426.052H120.166V423.19H106.574V426.052H111.596C111.417 429.106 109.532 432.132 105.584 433.453ZM110.124 446.824H126.825V436.727H123.33V439.093H113.59V436.727H110.124V446.824ZM113.59 444.018V441.789H123.33V444.018H113.59ZM157.695 422.062H154.228V430.894H149.579V423.988H146.139V430.069H140.994V423.988H137.5V441.212H149.579V433.728H154.228V447.155H157.695V422.062ZM140.994 438.405V432.82H146.139V438.405H140.994ZM173.901 423.218H162.097V425.886H170.462V427.537H162.18V434.581H164.326C169.898 434.581 172.979 434.471 176.515 433.893L176.184 431.279C172.993 431.761 170.283 431.857 165.647 431.884V430.014H173.901V423.218ZM165.069 438.68H178.275V440.111H165.124V446.935H182.568V444.238H168.673V442.642H181.88V436.012H165.069V438.68ZM178.358 435.131H181.88V422.062H178.358V435.131ZM206.972 422.062H203.671V447.1H206.972V422.062ZM184.961 439.423L186.942 441.9C190.505 439.836 192.83 437.36 194.261 434.498H198.361V445.999H201.635V422.612H198.361V431.719H195.348C195.953 429.656 196.215 427.427 196.215 425.034H186.337V427.867H192.734C192.253 432.779 190.024 436.424 184.961 439.423ZM232.533 441.294H227.443V435.09C229.327 433.92 230.456 432.173 230.469 430.014C230.456 425.955 226.452 423.286 221.032 423.273C215.584 423.286 211.622 425.955 211.622 430.014C211.622 432.215 212.792 433.989 214.731 435.159V441.294H209.614V444.183H232.533V441.294ZM215.089 430.014C215.089 427.496 217.441 426.038 221.032 426.052C224.568 426.038 226.989 427.496 227.003 430.014C226.989 432.462 224.568 433.976 221.032 433.976C217.441 433.976 215.089 432.462 215.089 430.014ZM218.198 441.294V436.438C219.079 436.603 220.028 436.699 221.032 436.699C222.036 436.699 222.999 436.603 223.893 436.424V441.294H218.198Z" fill="#111111"/>
<path d="M88.6109 389.052V388.817H92.6768V386.912H82.0412V388.817H86.2141V389.052C86.1927 391.588 84.5342 394.103 81.4206 395.151L82.6404 396.992C84.9301 396.221 86.5779 394.627 87.4446 392.626C88.3327 394.466 89.9269 395.922 92.1204 396.628L93.3402 394.787C90.2586 393.824 88.6109 391.438 88.6109 389.052ZM84.1811 400.18H94.988V405.038H97.3847V398.254H84.1811V400.18ZM94.988 397.355H97.3847V385.693H94.988V397.355ZM116.409 385.693H114.034V390.144H110.695V392.112H114.034V396.243H116.409V385.693ZM100.167 394.702L101.386 396.585C103.687 395.804 105.292 394.178 106.137 392.155C106.982 393.974 108.513 395.44 110.674 396.178L111.872 394.338C108.898 393.343 107.336 390.946 107.314 388.624H111.316V386.677H100.873V388.624H104.896C104.875 391.171 103.227 393.675 100.167 394.702ZM103.655 404.802H116.409V397.056H114.034V399.067H106.03V397.056H103.655V404.802ZM106.03 402.877V400.929H114.034V402.877H106.03ZM135.369 385.693H133.015V392.626H129.078V387.191H126.745V392.005H122.273V387.191H119.876V400.373H129.078V394.573H133.015V405.059H135.369V385.693ZM122.273 398.468V393.867H126.745V398.468H122.273ZM154.201 385.714H151.804V397.184H154.201V385.714ZM139.071 388.731H145.641V390.636H139.114V396.414H140.762C144.507 396.425 147.128 396.318 150.178 395.836L149.878 393.91C147.118 394.37 144.753 394.466 141.447 394.466V392.455H147.995V386.848H139.071V388.731ZM141.361 404.802H154.201V398.083H141.361V404.802ZM143.715 402.877V399.988H151.868V402.877H143.715Z" fill="#595959"/>
<path d="M378.506 422.062H375.177V431.719H372.756V422.475H369.537V445.889H372.756V434.526H375.177V447.1H378.506V422.062ZM357.568 441.432H359.301C362.603 441.418 365.272 441.322 368.326 440.744L368.078 437.882C365.657 438.309 363.511 438.447 361.09 438.488V427.785H366.895V424.951H357.568V441.432ZM402.168 422.09H398.646V440.359H402.168V422.09ZM381.12 434.168L382.936 436.947C385.866 435.943 387.861 433.879 388.989 431.32C390.103 433.7 392.043 435.571 394.877 436.507L396.665 433.755C392.552 432.435 390.777 429.202 390.805 425.886V423.465H387.146V425.886C387.146 429.284 385.316 432.765 381.12 434.168ZM385.385 446.659H402.828V443.853H388.934V438.598H385.385V446.659ZM433.176 422.062H429.709V430.894H425.06V423.988H421.62V430.069H416.475V423.988H412.981V441.212H425.06V433.728H429.709V447.155H433.176V422.062ZM416.475 438.405V432.82H421.62V438.405H416.475ZM457.498 422.062H454.004V427.372H449.795V430.234H454.004V434.168H449.712V437.057H454.004V447.155H457.498V422.062ZM437.221 426.932H445.035V431.059H437.276V441.542H439.257C443.109 441.556 446.3 441.473 450.042 440.882L449.767 438.02C446.603 438.502 443.865 438.639 440.77 438.667V433.783H448.474V424.153H437.221V426.932ZM483.582 435.874H460.745V438.68H470.375V447.1H473.842V438.68H483.582V435.874ZM461.873 431.664L463.166 434.416C467.527 433.824 470.65 431.953 472.177 429.381C473.69 431.953 476.841 433.824 481.243 434.416L482.509 431.664C477.363 431.045 474.598 428.597 474.241 426.134H481.546V423.383H462.809V426.134H470.114C469.742 428.597 466.936 431.045 461.873 431.664ZM493.129 428.363V424.208H489.717V428.528C489.717 432.765 488.341 437.181 484.627 439.478L486.773 442.065C489.043 440.689 490.543 438.309 491.437 435.475C492.235 438.034 493.597 440.207 495.77 441.514L497.669 438.79C494.243 436.603 493.115 432.421 493.129 428.363ZM495.027 433.37H498.274V445.944H501.548V422.42H498.274V430.509H495.027V433.37ZM503.447 447.1H506.803V422.062H503.447V447.1ZM532.364 441.294H527.274V435.09C529.158 433.92 530.286 432.173 530.3 430.014C530.286 425.955 526.283 423.286 520.863 423.273C515.415 423.286 511.453 425.955 511.453 430.014C511.453 432.215 512.622 433.989 514.562 435.159V441.294H509.445V444.183H532.364V441.294ZM514.92 430.014C514.92 427.496 517.272 426.038 520.863 426.052C524.398 426.038 526.82 427.496 526.833 430.014C526.82 432.462 524.398 433.976 520.863 433.976C517.272 433.976 514.92 432.462 514.92 430.014ZM518.029 441.294V436.438C518.909 436.603 519.859 436.699 520.863 436.699C521.867 436.699 522.83 436.603 523.724 436.424V441.294H518.029Z" fill="#111111"/>
<path d="M373.358 385.693H371.068V393.311H368.928V386.056H366.703V404.053H368.928V395.258H371.068V405.038H373.358V385.693ZM357.586 400.223H358.87C360.914 400.223 363.129 400.084 365.74 399.624L365.504 397.548C363.471 397.944 361.652 398.094 359.983 398.126V387.918H357.586V400.223ZM391.89 385.693H389.515V389.908H386.048V391.856H389.515V395.173H385.984V397.12H389.515V405.059H391.89V385.693ZM376.333 389.266H382.624V392.733H376.397V400.672H377.895C380.901 400.672 383.362 400.608 386.326 400.137L386.134 398.19C383.523 398.575 381.308 398.693 378.751 398.704V394.595H384.957V387.362H376.333V389.266ZM410.337 394.766H399.123V389.309H410.187V387.383H396.769V396.671H410.337V394.766ZM394.629 402.577H412.305V400.608H394.629V402.577ZM429.682 385.714H427.285V397.184H429.682V385.714ZM414.552 388.731H421.122V390.636H414.595V396.414H416.243C419.988 396.425 422.609 396.318 425.659 395.836L425.359 393.91C422.599 394.37 420.234 394.466 416.928 394.466V392.455H423.476V386.848H414.552V388.731ZM416.842 404.802H429.682V398.083H416.842V404.802ZM419.196 402.877V399.988H427.349V402.877H419.196Z" fill="#595959"/>
<path fill-rule="evenodd" clip-rule="evenodd" d="M561.284 69.852C560.855 69.852 560.228 70.2926 560.228 71.2433C560.228 72.194 560.855 72.6346 561.284 72.6346H586.029C586.382 72.6346 586.681 72.4721 586.889 72.2183C587.114 71.9424 587.146 71.6705 587.117 71.5421C587.096 71.4439 587.085 71.3438 587.085 71.2433C587.085 70.2926 586.458 69.852 586.029 69.852H561.284ZM557.445 71.2433C557.445 69.1022 558.993 67.0693 561.284 67.0693H586.029C588.268 67.0693 589.798 69.0124 589.865 71.1C590.216 73.184 588.466 75.4172 586.029 75.4172H561.284C558.993 75.4172 557.445 73.3844 557.445 71.2433Z" fill="#111111"/>
<path fill-rule="evenodd" clip-rule="evenodd" d="M567.855 47.1149C567.841 47.0092 567.834 46.8901 567.834 46.7561C567.834 43.5498 570.471 40.9126 573.677 40.9126C576.884 40.9126 579.521 43.5498 579.521 46.7561C579.521 46.9094 579.511 47.0432 579.492 47.1598C583.603 49.3005 586.456 53.6148 586.456 58.5091V69.7229H583.848V58.5091C583.848 52.9704 579.216 48.3385 573.677 48.3385C568.119 48.3385 563.506 52.7289 563.506 58.5091V69.7229H560.899V58.5091C560.899 53.4246 563.753 49.1936 567.855 47.1149ZM576.663 46.0918C576.354 44.7331 575.119 43.6952 573.677 43.6952C572.24 43.6952 571.01 44.7256 570.694 46.077C571.654 45.8501 572.653 45.7306 573.677 45.7306C574.703 45.7306 575.703 45.8559 576.663 46.0918Z" fill="#111111"/>
<path fill-rule="evenodd" clip-rule="evenodd" d="M569.225 73.748C569.993 73.748 570.616 74.371 570.616 75.1394C570.616 76.8753 571.941 78.2003 573.677 78.2003C575.413 78.2003 576.738 76.8753 576.738 75.1394C576.738 74.371 577.361 73.748 578.129 73.748C578.898 73.748 579.521 74.371 579.521 75.1394C579.521 78.4121 576.95 80.9829 573.677 80.9829C570.404 80.9829 567.834 78.4121 567.834 75.1394C567.834 74.371 568.456 73.748 569.225 73.748Z" fill="#111111"/>
<path d="M88.5772 59.7029H68.2781V62.222H76.8624V63.8606C72.9126 64.1418 70.6015 65.5359 70.6015 67.847C70.6015 70.4272 73.5241 71.8702 78.4032 71.8579C83.2089 71.8702 86.1315 70.4272 86.156 67.847C86.1315 65.5481 83.8326 64.1541 79.9684 63.8728V62.222H88.5772V59.7029ZM69.183 56.4257L70.2102 58.8714C74.429 58.4801 77.2293 56.8782 78.4032 54.726C79.5893 56.8904 82.4141 58.4679 86.6207 58.8714L87.7212 56.4257C83.4902 56.0589 81.2279 54.5548 80.6899 53.0018H86.7429V50.5561H70.1368V53.0018H76.1409C75.5784 54.5425 73.3039 56.0589 69.183 56.4257ZM73.7808 67.847C73.7686 66.722 75.3216 66.184 78.4032 66.1595C81.4236 66.184 83.0133 66.722 83.0255 67.847C83.0133 68.9231 81.4236 69.5101 78.4032 69.5101C75.3216 69.5101 73.7686 68.9231 73.7808 67.847ZM107.849 50.8985H92.2457V53.3931H104.743C104.731 55.3129 104.682 57.5018 104.107 60.3633H89.9223V62.8823H98.4088V71.8824H101.539V62.8823H110.221V60.3633H107.274C107.837 57.245 107.837 54.9828 107.849 52.9039V50.8985ZM130.031 51.9257H125.58V49.5044H122.425V51.9257H117.95V54.3713H122.425C122.401 56.8904 120.75 59.4339 117.192 60.4611L118.659 62.8823C121.288 62.1241 123.073 60.4978 124.04 58.4434C125.054 60.2532 126.828 61.6595 129.371 62.2953L130.814 59.8986C127.231 58.9814 125.568 56.6581 125.531 54.3713H130.031V51.9257ZM120.836 67.6025C120.836 70.3049 123.77 71.8702 128.491 71.8579C133.235 71.8702 136.158 70.3049 136.17 67.6025C136.158 64.9367 133.235 63.4326 128.491 63.4203C123.77 63.4326 120.836 64.9367 120.836 67.6025ZM123.942 67.6025C123.942 66.4163 125.544 65.8171 128.491 65.8171C131.499 65.8171 133.052 66.4163 133.064 67.6025C133.052 68.8253 131.499 69.4856 128.491 69.4856C125.544 69.4856 123.942 68.8253 123.942 67.6025ZM129.371 58.0643H132.991V63.0535H136.097V49.6023H132.991V55.5697H129.371V58.0643ZM158.279 49.6023H155.344V71.8579H158.279V49.6023ZM138.64 65.0345L140.474 67.2356C144.632 64.7655 146.907 61.6717 147.946 57.9909H150.673V61.0236H147.518V63.5426H150.673V70.8797H153.632V50.0914H150.673V55.4719H148.46C148.594 54.4325 148.667 53.3564 148.667 52.2436H139.936V54.7627H145.561C145.133 59.1282 143.152 62.3687 138.64 65.0345ZM168.82 54.836V54.6648H173.32V52.2191H168.869V49.749H165.714V52.2191H161.238V54.6648H165.714V54.836C165.714 57.5507 164.1 60.2532 160.48 61.3415L161.996 63.7872C164.577 62.9801 166.337 61.3293 167.328 59.2382C168.331 61.1703 170.092 62.6989 172.586 63.4203L174.078 60.9991C170.458 59.8986 168.832 57.3428 168.82 54.836ZM164.613 71.4666H179.923V68.972H167.744V64.7166H164.613V71.4666ZM172.586 58.6268H176.279V66.135H179.385V49.6267H176.279V56.1078H172.586V58.6268ZM202.644 66.8198H193.961V63.4693H200.809V60.9258H187.749V58.4312H200.296V51.0452H184.594V53.5398H197.214V55.9855H184.619V63.4693H190.855V66.8198H182.271V69.3878H202.644V66.8198ZM218.051 51.9012H214.578L210.201 54.6893V57.942L214.261 55.3985H214.358V69.6079H218.051V51.9012ZM229.032 69.8525C233.459 69.8525 236.149 66.5753 236.149 60.7546C236.149 54.9705 233.447 51.6566 229.032 51.6566C224.618 51.6566 221.915 54.9705 221.915 60.7546C221.915 66.5508 224.594 69.8525 229.032 69.8525ZM225.682 60.7546C225.682 56.707 226.99 54.6771 229.032 54.6648C231.075 54.6771 232.395 56.707 232.383 60.7546C232.395 64.8388 231.087 66.8198 229.032 66.8198C226.978 66.8198 225.657 64.8388 225.682 60.7546ZM245.565 69.8525C249.992 69.8525 252.682 66.5753 252.682 60.7546C252.682 54.9705 249.98 51.6566 245.565 51.6566C241.151 51.6566 238.448 54.9705 238.448 60.7546C238.448 66.5508 241.126 69.8525 245.565 69.8525ZM242.215 60.7546C242.215 56.707 243.523 54.6771 245.565 54.6648C247.607 54.6771 248.928 56.707 248.916 60.7546C248.928 64.8388 247.62 66.8198 245.565 66.8198C243.511 66.8198 242.19 64.8388 242.215 60.7546Z" fill="#333333"/>
<path d="M275.105 66.3632C275.728 67.0759 276.837 67.0759 277.461 66.3632L284.968 57.7836C285.854 56.7715 285.135 55.1876 283.79 55.1876H268.776C267.431 55.1876 266.712 56.7715 267.598 57.7836L275.105 66.3632Z" fill="#D3D3D3"/>
<g filter="url(#filter2_d_216_2704)">
<rect x="61.6036" y="750.246" width="537.36" height="109.665" rx="25.0664" fill="white"/>
</g>
<g clip-path="url(#clip3_216_2704)">
<path d="M118.004 821.792C127.234 821.792 134.717 814.31 134.717 805.08C134.717 795.85 127.234 788.368 118.004 788.368C108.774 788.368 101.292 795.85 101.292 805.08C101.292 814.31 108.774 821.792 118.004 821.792Z" fill="#FFC93D"/>
<path d="M118.004 817.558C124.896 817.558 130.483 811.972 130.483 805.08C130.483 798.189 124.896 792.602 118.004 792.602C111.113 792.602 105.526 798.189 105.526 805.08C105.526 811.972 111.113 817.558 118.004 817.558Z" fill="#F4A732"/>
<path d="M125.877 802.6H124.995L125.47 801.106C125.661 800.508 125.369 799.855 124.814 799.647C124.263 799.437 123.659 799.756 123.468 800.357L122.752 802.6H119.602L119.042 800.956C119.037 800.942 119.026 800.931 119.021 800.917C118.991 800.841 118.944 800.775 118.9 800.704C118.865 800.65 118.838 800.589 118.794 800.543C118.747 800.491 118.687 800.458 118.633 800.417C118.575 800.374 118.521 800.327 118.455 800.3C118.442 800.294 118.431 800.278 118.414 800.273C118.362 800.253 118.31 800.259 118.258 800.248C118.187 800.232 118.119 800.212 118.048 800.212C117.98 800.212 117.917 800.232 117.851 800.245C117.797 800.256 117.739 800.251 117.685 800.273C117.668 800.278 117.658 800.294 117.641 800.3C117.581 800.327 117.535 800.368 117.48 800.406C117.417 800.45 117.354 800.488 117.302 800.543C117.261 800.587 117.237 800.641 117.201 800.693C117.155 800.764 117.106 800.833 117.076 800.912C117.07 800.925 117.059 800.934 117.054 800.95L116.494 802.594H113.344L112.629 800.352C112.437 799.754 111.834 799.431 111.282 799.642C110.73 799.849 110.435 800.502 110.626 801.1L111.102 802.594H110.047C109.463 802.594 108.987 803.108 108.987 803.742C108.987 804.376 109.463 804.889 110.047 804.889H111.834L113.833 811.156C113.981 811.614 114.377 811.923 114.822 811.929H114.833C115.276 811.929 115.674 811.631 115.827 811.18L117.966 804.889H118.119L120.258 811.177C120.411 811.631 120.807 811.929 121.252 811.929H121.263C121.711 811.923 122.107 811.614 122.255 811.156L124.254 804.889H125.869C126.453 804.889 126.929 804.376 126.929 803.742C126.929 803.108 126.453 802.594 125.869 802.594L125.877 802.6ZM114.871 807.375L114.079 804.892H115.715L114.871 807.375ZM121.228 807.375L120.384 804.892H122.02L121.228 807.375Z" fill="#FFD66D"/>
</g>
<path d="M178.662 794.055H175.7V802.647H173.546V794.422H170.682V815.254H173.546V805.144H175.7V816.331H178.662V794.055ZM160.033 811.288H161.575C164.513 811.276 166.887 811.19 169.604 810.676L169.384 808.13C167.23 808.51 165.321 808.632 163.167 808.669V799.147H168.332V796.625H160.033V811.288ZM193.496 796.111H189.016V793.859H185.907V796.111H181.11V798.583H193.496V796.111ZM182.211 803.504C182.187 806.001 184.353 807.653 187.425 807.641C190.485 807.653 192.688 806.001 192.713 803.504C192.688 801.031 190.485 799.33 187.425 799.318C184.353 799.33 182.187 801.031 182.211 803.504ZM184.586 812.439C184.573 814.862 187.511 816.343 192.272 816.331C197.009 816.343 199.946 814.862 199.958 812.439C199.946 809.966 197.009 808.51 192.272 808.522C187.511 808.51 184.573 809.966 184.586 812.439ZM185.124 803.504C185.112 802.317 186.018 801.656 187.425 801.643C188.82 801.656 189.8 802.317 189.8 803.504C189.8 804.703 188.82 805.34 187.425 805.34C186.018 805.34 185.112 804.703 185.124 803.504ZM187.866 812.439C187.866 811.374 189.42 810.896 192.272 810.872C195.062 810.896 196.605 811.374 196.605 812.439C196.605 813.454 195.062 813.981 192.272 813.981C189.42 813.981 187.866 813.454 187.866 812.439ZM193.692 805.903H196.727V808.253H199.836V794.055H196.727V798.951H193.741V801.448H196.727V803.406H193.692V805.903ZM222.21 794.055H219.199V816.331H222.21V794.055ZM202.48 808.767L202.822 811.337C205.699 811.325 210.227 811.251 213.642 810.652L213.422 808.326C212.883 808.387 212.296 808.448 211.684 808.497V799.049H213.103V796.527H202.896V799.049H204.34V808.754L202.48 808.767ZM207.106 808.718V799.049H208.869V808.657L207.106 808.718ZM212.614 807.176H214.792V815.278H217.705V794.496H214.792V800.199H212.614V802.745H214.792V804.63H212.614V807.176ZM243.114 794.055H239.957V816.331H243.114V794.055ZM224.462 810.015L226.102 812.512C234.057 808.754 236.42 803.137 236.432 796.38H225.661V798.828H233.249C232.748 803.773 230.214 807.298 224.462 810.015ZM266.369 802.892H246.052V805.364H254.62V806.784H248.402V809.134H260.813V810.284H248.426V816.184H264.485V813.834H251.486V812.487H263.897V806.784H257.753V805.364H266.369V802.892ZM248.573 801.717H263.799V794.691H248.573V801.717ZM251.633 799.318V797.115H260.69V799.318H251.633ZM293.81 804.165H273.493V806.686H282.085V808.326C278.131 808.608 275.818 810.003 275.818 812.316C275.818 814.899 278.743 816.343 283.627 816.331C288.437 816.343 291.362 814.899 291.387 812.316C291.362 810.015 289.061 808.62 285.194 808.338V806.686H293.81V804.165ZM274.398 800.885L275.427 803.332C279.649 802.941 282.452 801.337 283.627 799.183C284.814 801.35 287.642 802.928 291.852 803.332L292.953 800.885C288.719 800.517 286.454 799.012 285.916 797.457H291.974V795.01H275.353V797.457H281.363C280.8 799 278.523 800.517 274.398 800.885ZM279 812.316C278.988 811.19 280.543 810.652 283.627 810.627C286.65 810.652 288.241 811.19 288.254 812.316C288.241 813.393 286.65 813.981 283.627 813.981C280.543 813.981 278.988 813.393 279 812.316ZM313.516 795.989H297.262V798.461H310.382C310.37 801.08 310.333 804.214 309.477 808.424L312.61 808.742C313.503 804.018 313.503 800.885 313.516 798.094V795.989ZM295.157 813.614H315.474V811.068H305.536V803.406H302.427V811.068H295.157V813.614ZM337.211 811.288H328.521V807.934H335.375V805.389H322.304V802.892H334.861V795.499H319.146V797.996H331.777V800.444H319.17V807.934H325.412V811.288H316.82V813.858H337.211V811.288ZM356.745 795.426H344.726V797.8H346.562V802.586C345.718 802.598 344.91 802.598 344.139 802.598L344.481 805.046C348.276 805.046 353.294 804.997 357.651 804.312L357.529 802.059C356.696 802.157 355.815 802.231 354.934 802.292V797.8H356.745V795.426ZM347.15 808.791H358.826V810.113H347.199V816.184H362.571V813.711H350.258V812.316H361.935V806.368H347.15V808.791ZM349.573 802.549V797.8H351.923V802.463C351.14 802.5 350.344 802.525 349.573 802.549ZM358.802 805.487H361.935V801.007H364.946V798.437H361.935V794.055H358.802V805.487ZM371.922 795.622C368.507 795.622 366.035 798.694 366.047 803.553C366.035 808.448 368.507 811.508 371.922 811.508C375.325 811.508 377.785 808.448 377.797 803.553C377.785 798.694 375.325 795.622 371.922 795.622ZM369.058 803.553C369.058 800.248 370.221 798.437 371.922 798.437C373.66 798.437 374.799 800.248 374.811 803.553C374.799 806.87 373.66 808.681 371.922 808.669C370.221 808.681 369.058 806.87 369.058 803.553ZM380.367 816.331H383.501V805.046H386.781V802.451H383.501V794.055H380.367V816.331ZM407.98 811.19H399.29V807.078H405.703V795.475H402.594V798.926H392.876V795.475H389.743V807.078H396.181V811.19H387.589V813.736H407.98V811.19ZM392.876 804.581V801.423H402.594V804.581H392.876ZM427.979 794.055H424.821V816.331H427.979V794.055ZM409.326 810.015L410.966 812.512C418.922 808.754 421.284 803.137 421.296 796.38H410.525V798.828H418.114C417.612 803.773 415.078 807.298 409.326 810.015Z" fill="#595959"/>
<path d="M92.0647 704.524H89.9656V712.128H88.7019V704.867H86.6457V722.944H88.7019V714.077H89.9656V723.887H92.0647V704.524ZM74.9509 719.067H79.813V706.537H78.0352V710.928H76.7072V706.537H74.9509V719.067ZM76.7072 717.161V712.792H78.0352V717.161H76.7072ZM80.734 719.067H85.5747V706.537H83.7969V710.928H82.4904V706.537H80.734V719.067ZM82.4904 717.161V712.792H83.7969V717.161H82.4904ZM109.907 704.524H107.508V723.887H109.907V704.524ZM93.8639 718.553L95.1062 720.46C101.885 717.236 104.124 712.342 104.124 706.58H94.8491V708.465H101.703C101.275 712.867 98.9402 716.144 93.8639 718.553ZM118.967 705.873C115.925 705.863 113.644 707.801 113.655 710.543C113.644 713.295 115.925 715.223 118.967 715.233C122.041 715.223 124.279 713.295 124.3 710.543C124.279 707.801 122.041 705.863 118.967 705.873ZM112.777 717.911L113.077 719.86C116.493 719.86 121.141 719.828 125.478 719.003L125.286 717.268C121.098 717.868 116.268 717.911 112.777 717.911ZM116.011 710.543C116 708.936 117.275 707.93 118.967 707.93C120.691 707.93 121.955 708.936 121.966 710.543C121.955 712.16 120.68 713.156 118.967 713.156C117.275 713.156 116 712.16 116.011 710.543ZM126.442 723.908H128.82V704.524H126.442V723.908ZM152.016 704.524H149.639V723.908H152.016V713.82H154.994V711.871H152.016V704.524ZM137.644 719.175H139.251C142.742 719.175 145.344 719.089 148.354 718.575L148.075 716.561C145.419 717.022 143.031 717.172 140.022 717.183V708.294H146.705V706.366H137.644V719.175ZM173.714 707.116H171.079V704.524H168.702V715.897H171.079V713.242H173.714V711.271H171.079V709.065H173.714V707.116ZM156.022 710.264C156.011 712.984 158.26 714.901 161.248 714.912C164.225 714.901 166.453 712.984 166.474 710.264C166.453 707.533 164.225 705.616 161.248 705.638C158.26 705.616 156.011 707.533 156.022 710.264ZM158.228 720.117C158.228 722.462 160.777 723.865 164.782 723.865C168.755 723.865 171.261 722.462 171.272 720.117C171.261 717.75 168.755 716.358 164.782 716.347C160.777 716.358 158.228 717.75 158.228 720.117ZM158.356 710.264C158.346 708.669 159.577 707.619 161.248 707.63C162.897 707.619 164.129 708.669 164.14 710.264C164.129 711.871 162.897 712.888 161.248 712.899C159.577 712.888 158.346 711.871 158.356 710.264ZM160.605 720.117C160.605 718.907 162.126 718.254 164.782 718.254C167.427 718.254 168.916 718.907 168.916 720.117C168.916 721.338 167.427 721.959 164.782 721.959C162.126 721.959 160.605 721.338 160.605 720.117ZM190.035 704.545H187.658V719.003H190.035V712.599H192.734V710.628H190.035V704.545ZM174.785 708.594H186.265V706.687H181.725V704.524H179.347V706.687H174.785V708.594ZM175.77 713.092C175.77 715.308 177.709 716.754 180.525 716.754C183.32 716.754 185.248 715.308 185.259 713.092C185.248 710.864 183.32 709.386 180.525 709.386C177.709 709.386 175.77 710.864 175.77 713.092ZM177.634 723.501H190.806V721.574H180.011V717.868H177.634V723.501ZM178.083 713.092C178.073 711.914 179.058 711.228 180.525 711.228C181.992 711.228 182.988 711.914 182.988 713.092C182.988 714.259 181.992 714.923 180.525 714.912C179.058 714.923 178.073 714.259 178.083 713.092ZM206.078 709.172V706.088H203.658V709.172C203.647 712.792 201.891 716.519 198.731 717.997L200.231 719.924C202.458 718.8 204.043 716.572 204.889 713.895C205.714 716.433 207.256 718.489 209.441 719.56L210.876 717.654C207.792 716.304 206.067 712.77 206.078 709.172ZM208.734 712.706H212.804V723.908H215.16V704.524H212.804V710.778H208.734V712.706ZM233.987 704.524H231.588V723.908H233.987V704.524ZM218.908 719.346H228.332V706.109H225.976V710.95H221.286V706.109H218.908V719.346ZM221.286 717.397V712.813H225.976V717.397H221.286ZM246.838 707.18V705.745H244.311V707.18C244.3 710.157 241.366 713.156 237.371 713.884L238.421 715.876C241.655 715.191 244.311 713.209 245.585 710.628C246.849 713.231 249.505 715.201 252.75 715.876L253.821 713.884C249.762 713.177 246.838 710.168 246.838 707.18ZM236.836 721.424H254.528V719.453H236.836V721.424Z" fill="#737982"/>
<g style="mix-blend-mode:multiply">
<rect x="36.8022" width="587.996" height="878.377" rx="33.0683" fill="black" fill-opacity="0.5"/>
</g>
<g filter="url(#filter3_d_216_2704)">
<rect x="337.517" y="308.982" width="324.483" height="357.514" rx="31.0882" fill="white"/>
</g>
<g clip-path="url(#clip4_216_2704)">
<rect x="329.745" y="588.776" width="340.027" height="95.2075" fill="#E6F0FF"/>
<path d="M615.368 634.298H607.596L621.197 657.614H628.969L615.368 634.298Z" fill="white"/>
<path d="M593.995 596.548H586.223L594.966 610.149H602.738L593.995 596.548Z" fill="white"/>
<path d="M387.064 634.298H394.836L381.235 657.614H373.463L387.064 634.298Z" fill="white"/>
<path d="M408.437 596.548H416.209L407.466 610.149H399.694L408.437 596.548Z" fill="white"/>
<rect x="478.377" y="490.191" width="52.7867" height="42.6354" rx="6.09077" fill="#FDECAB"/>
<g clip-path="url(#clip5_216_2704)">
<path d="M543.13 514.017H501.706C499.615 514.017 497.919 515.712 497.919 517.803V589.721C497.919 591.812 499.615 593.508 501.706 593.508H543.13C545.221 593.508 546.916 591.812 546.916 589.721V517.803C546.916 515.712 545.221 514.017 543.13 514.017Z" fill="#DDDDDD"/>
<path d="M510.12 500.49H458.58C456.236 500.49 454.336 502.39 454.336 504.734V583.42C454.336 585.764 456.236 587.664 458.58 587.664H510.12C512.464 587.664 514.364 585.764 514.364 583.42V504.734C514.364 502.39 512.464 500.49 510.12 500.49Z" fill="#C8C8C8"/>
<mask id="mask1_216_2704" style="mask-type:luminance" maskUnits="userSpaceOnUse" x="454" y="500" width="61" height="88">
<path d="M509.736 500.479H458.964C456.408 500.479 454.336 502.551 454.336 505.107V583.025C454.336 585.581 456.408 587.653 458.964 587.653H509.736C512.292 587.653 514.364 585.581 514.364 583.025V505.107C514.364 502.551 512.292 500.479 509.736 500.479Z" fill="white"/>
</mask>
<g mask="url(#mask1_216_2704)">
<path d="M482.69 500.342H454.281V582.989H482.69V500.342Z" fill="#EAEFFF"/>
<path d="M514.419 500.342H486.01V582.989H514.419V500.342Z" fill="#EAEFFF"/>
</g>
<path d="M568.181 569.973H556.538L551.498 547.107C551.115 545.218 550.284 543.449 549.075 541.948C546.084 538.345 541.657 537.375 537.084 537.375H465.275C460.327 537.375 455.772 537.375 452.663 542.424C451.821 543.84 451.218 545.385 450.879 546.997L445.821 570.018H434.205C431.333 570.018 431.736 575.085 431.736 577.957C431.738 578.975 432.038 579.969 432.598 580.817C433.159 581.666 433.956 582.331 434.891 582.732L439.986 585.375C439.711 586.29 438.157 587.268 438.157 590.863V633.275C438.159 634.523 438.656 635.72 439.539 636.603C440.422 637.486 441.618 637.983 442.867 637.985H559.245C559.864 637.985 560.476 637.863 561.048 637.626C561.619 637.39 562.139 637.043 562.576 636.605C563.013 636.168 563.36 635.649 563.597 635.077C563.834 634.506 563.956 633.893 563.956 633.275V590.863C563.956 587.076 562.456 586.29 562.19 585.375L567.331 582.714C568.287 582.322 569.106 581.654 569.683 580.796C570.259 579.938 570.568 578.927 570.569 577.893C570.651 575.04 571.053 569.973 568.181 569.973Z" fill="#4561FA"/>
<path d="M542.938 647.368H556.538C556.906 647.375 557.272 647.307 557.613 647.169C557.954 647.031 558.264 646.825 558.525 646.565C558.785 646.305 558.99 645.995 559.128 645.654C559.266 645.312 559.334 644.947 559.328 644.579V638.002H540.121V644.579C540.122 644.947 540.196 645.311 540.338 645.651C540.48 645.991 540.688 646.299 540.95 646.558C541.212 646.817 541.522 647.022 541.863 647.161C542.204 647.3 542.569 647.371 542.938 647.368Z" fill="#4A5966"/>
<path d="M445.739 647.368H459.349C460.088 647.366 460.796 647.071 461.319 646.549C461.841 646.026 462.136 645.318 462.139 644.579V638.002H442.931V644.579C442.932 644.946 443.006 645.31 443.148 645.649C443.29 645.988 443.497 646.296 443.757 646.555C444.018 646.814 444.327 647.019 444.667 647.159C445.007 647.298 445.372 647.37 445.739 647.368Z" fill="#4A5966"/>
<path d="M469.648 603.212C469.65 602.163 469.267 601.15 468.57 600.365C467.874 599.581 466.913 599.08 465.87 598.959L451.73 597.313C451.129 597.242 450.52 597.299 449.942 597.48C449.365 597.661 448.832 597.963 448.38 598.364C447.927 598.766 447.565 599.259 447.316 599.811C447.067 600.363 446.938 600.961 446.937 601.566V604.602H469.648V603.212Z" fill="#DB754C"/>
<path d="M451.227 616.839H465.331C466.467 616.837 467.556 616.384 468.358 615.579C469.161 614.775 469.611 613.685 469.611 612.549V604.574H446.937V612.549C446.937 613.687 447.389 614.778 448.194 615.583C448.998 616.387 450.089 616.839 451.227 616.839Z" fill="white"/>
<path d="M534.687 603.212C534.687 602.162 535.072 601.149 535.771 600.365C536.469 599.581 537.431 599.08 538.474 598.959L552.577 597.313C553.178 597.242 553.787 597.299 554.364 597.48C554.941 597.661 555.473 597.963 555.924 598.365C556.376 598.767 556.738 599.26 556.986 599.811C557.233 600.363 557.361 600.961 557.361 601.566V604.603H534.687V603.212Z" fill="#DB754C"/>
<path d="M553.08 616.839H538.977C537.839 616.839 536.748 616.387 535.943 615.583C535.139 614.778 534.687 613.687 534.687 612.549V604.574H557.361V612.549C557.361 613.685 556.91 614.775 556.108 615.579C555.305 616.384 554.216 616.837 553.08 616.839Z" fill="white"/>
<path d="M542.343 576.585H460.803C460.143 576.586 459.491 576.444 458.891 576.169C458.291 575.894 457.757 575.493 457.327 574.992C456.897 574.492 456.581 573.904 456.399 573.269C456.218 572.635 456.175 571.969 456.276 571.316L459.45 550.591C459.615 549.5 460.169 548.506 461.009 547.792C461.85 547.077 462.92 546.691 464.023 546.703H539.16C540.254 546.704 541.311 547.097 542.14 547.81C542.968 548.523 543.514 549.51 543.678 550.591L546.852 571.316C546.952 571.967 546.911 572.632 546.73 573.265C546.55 573.898 546.235 574.485 545.806 574.985C545.378 575.485 544.847 575.887 544.25 576.163C543.652 576.439 543.001 576.583 542.343 576.585Z" fill="#8CB2FF"/>
</g>
</g>
<path d="M388.635 387.107H384.502V399.095H381.497V387.619H377.501V416.684H381.497V402.579H384.502V418.187H388.635V387.107ZM362.644 411.151H364.795C368.894 411.134 372.207 411.015 375.998 410.297L375.691 406.745C372.685 407.275 370.021 407.446 367.015 407.497V394.211H374.222V390.693H362.644V411.151ZM418.008 387.141H413.636V409.819H418.008V387.141ZM391.88 402.135L394.134 405.584C397.772 404.337 400.248 401.776 401.648 398.6C403.031 401.554 405.439 403.876 408.957 405.038L411.177 401.622C406.071 399.983 403.868 395.97 403.902 391.854V388.848H399.36V391.854C399.36 396.072 397.088 400.393 391.88 402.135ZM397.174 417.641H418.828V414.157H401.58V407.633H397.174V417.641ZM456.5 387.107H452.197V398.07H446.425V389.497H442.155V397.046H435.768V389.497H431.431V410.878H446.425V401.588H452.197V418.255H456.5V387.107ZM435.768 407.394V400.461H442.155V407.394H435.768ZM486.693 387.107H482.355V393.698H477.129V397.25H482.355V402.135H477.027V405.721H482.355V418.255H486.693V387.107ZM461.521 393.152H471.221V398.275H461.589V411.288H464.048C468.83 411.305 472.792 411.203 477.437 410.468L477.095 406.916C473.168 407.514 469.769 407.685 465.927 407.719V401.656H475.49V389.702H461.521V393.152ZM519.071 404.252H490.723V407.736H502.677V418.187H506.98V407.736H519.071V404.252ZM492.123 399.026L493.729 402.442C499.142 401.708 503.019 399.385 504.914 396.192C506.793 399.385 510.703 401.708 516.168 402.442L517.739 399.026C511.352 398.258 507.92 395.218 507.476 392.161H516.544V388.746H493.285V392.161H502.353C501.891 395.218 498.408 398.258 492.123 399.026ZM530.923 394.928V389.771H526.688V395.133C526.688 400.393 524.98 405.874 520.369 408.726L523.033 411.937C525.851 410.229 527.712 407.275 528.822 403.757C529.813 406.933 531.503 409.631 534.202 411.254L536.558 407.872C532.306 405.157 530.906 399.966 530.923 394.928ZM533.279 401.144H537.31V416.753H541.374V387.551H537.31V397.592H533.279V401.144ZM543.731 418.187H547.898V387.107H543.731V418.187ZM579.627 410.981H573.308V403.279C575.648 401.827 577.048 399.658 577.065 396.977C577.048 391.939 572.079 388.626 565.35 388.609C558.588 388.626 553.67 391.939 553.67 396.977C553.67 399.71 555.121 401.913 557.529 403.364V410.981H551.176V414.567H579.627V410.981ZM557.973 396.977C557.973 393.852 560.893 392.042 565.35 392.059C569.739 392.042 572.745 393.852 572.762 396.977C572.745 400.017 569.739 401.895 565.35 401.895C560.893 401.895 557.973 400.017 557.973 396.977ZM561.833 410.981V404.952C562.926 405.157 564.104 405.277 565.35 405.277C566.597 405.277 567.793 405.157 568.903 404.935V410.981H561.833Z" fill="#111111"/>
<path d="M382.245 341.648H379.402V351.105H376.746V342.1H373.983V364.441H376.746V353.523H379.402V365.663H382.245V341.648ZM362.666 359.686H364.26C366.797 359.686 369.547 359.513 372.788 358.942L372.495 356.365C369.972 356.856 367.714 357.042 365.642 357.082V344.411H362.666V359.686ZM405.249 341.648H402.301V346.881H397.997V349.299H402.301V353.416H397.918V355.834H402.301V365.689H405.249V341.648ZM385.937 346.084H393.747V350.388H386.017V360.243H387.876C391.609 360.243 394.663 360.164 398.343 359.579L398.104 357.162C394.863 357.64 392.113 357.786 388.939 357.799V352.699H396.643V343.72H385.937V346.084ZM428.148 352.912H414.228V346.138H427.962V343.747H411.306V355.276H428.148V352.912ZM408.65 362.608H430.592V360.164H408.65V362.608ZM452.163 341.675H449.187V355.913H452.163V341.675ZM433.381 345.42H441.537V347.785H433.434V354.957H435.48C440.129 354.97 443.383 354.838 447.168 354.24L446.796 351.849C443.37 352.42 440.434 352.54 436.33 352.54V350.043H444.459V343.083H433.381V345.42ZM436.224 365.37H452.163V357.029H436.224V365.37ZM439.146 362.98V359.393H449.267V362.98H439.146Z" fill="#595959"/>
<defs>
<filter id="filter0_d_216_2704" x="30.5413" y="337.437" width="324.003" height="350.612" filterUnits="userSpaceOnUse" color-interpolation-filters="sRGB">
<feFlood flood-opacity="0" result="BackgroundImageFix"/>
<feColorMatrix in="SourceAlpha" type="matrix" values="0 0 0 0 0 0 0 0 0 0 0 0 0 0 0 0 0 0 127 0" result="hardAlpha"/>
<feOffset dy="9.3914"/>
<feGaussianBlur stdDeviation="15.6523"/>
<feComposite in2="hardAlpha" operator="out"/>
<feColorMatrix type="matrix" values="0 0 0 0 0.584314 0 0 0 0 0.615686 0 0 0 0 0.647059 0 0 0 0.2 0"/>
<feBlend mode="normal" in2="BackgroundImageFix" result="effect1_dropShadow_216_2704"/>
<feBlend mode="normal" in="SourceGraphic" in2="effect1_dropShadow_216_2704" result="shape"/>
</filter>
<filter id="filter1_d_216_2704" x="306.022" y="337.437" width="324.003" height="350.612" filterUnits="userSpaceOnUse" color-interpolation-filters="sRGB">
<feFlood flood-opacity="0" result="BackgroundImageFix"/>
<feColorMatrix in="SourceAlpha" type="matrix" values="0 0 0 0 0 0 0 0 0 0 0 0 0 0 0 0 0 0 127 0" result="hardAlpha"/>
<feOffset dy="9.3914"/>
<feGaussianBlur stdDeviation="15.6523"/>
<feComposite in2="hardAlpha" operator="out"/>
<feColorMatrix type="matrix" values="0 0 0 0 0.584314 0 0 0 0 0.615686 0 0 0 0 0.647059 0 0 0 0.2 0"/>
<feBlend mode="normal" in2="BackgroundImageFix" result="effect1_dropShadow_216_2704"/>
<feBlend mode="normal" in="SourceGraphic" in2="effect1_dropShadow_216_2704" result="shape"/>
</filter>
<filter id="filter2_d_216_2704" x="30.2707" y="728.313" width="600.026" height="172.331" filterUnits="userSpaceOnUse" color-interpolation-filters="sRGB">
<feFlood flood-opacity="0" result="BackgroundImageFix"/>
<feColorMatrix in="SourceAlpha" type="matrix" values="0 0 0 0 0 0 0 0 0 0 0 0 0 0 0 0 0 0 127 0" result="hardAlpha"/>
<feOffset dy="9.39988"/>
<feGaussianBlur stdDeviation="15.6665"/>
<feComposite in2="hardAlpha" operator="out"/>
<feColorMatrix type="matrix" values="0 0 0 0 0.584314 0 0 0 0 0.615686 0 0 0 0 0.647059 0 0 0 0.2 0"/>
<feBlend mode="normal" in2="BackgroundImageFix" result="effect1_dropShadow_216_2704"/>
<feBlend mode="normal" in="SourceGraphic" in2="effect1_dropShadow_216_2704" result="shape"/>
</filter>
<filter id="filter3_d_216_2704" x="298.657" y="281.78" width="402.203" height="435.235" filterUnits="userSpaceOnUse" color-interpolation-filters="sRGB">
<feFlood flood-opacity="0" result="BackgroundImageFix"/>
<feColorMatrix in="SourceAlpha" type="matrix" values="0 0 0 0 0 0 0 0 0 0 0 0 0 0 0 0 0 0 127 0" result="hardAlpha"/>
<feOffset dy="11.6581"/>
<feGaussianBlur stdDeviation="19.4301"/>
<feComposite in2="hardAlpha" operator="out"/>
<feColorMatrix type="matrix" values="0 0 0 0 0.584314 0 0 0 0 0.615686 0 0 0 0 0.647059 0 0 0 0.2 0"/>
<feBlend mode="normal" in2="BackgroundImageFix" result="effect1_dropShadow_216_2704"/>
<feBlend mode="normal" in="SourceGraphic" in2="effect1_dropShadow_216_2704" result="shape"/>
</filter>
<clipPath id="clip0_216_2704">
<rect width="144.276" height="134.322" fill="white" transform="translate(431.29 149.609) rotate(10.8416)"/>
</clipPath>
<clipPath id="clip1_216_2704">
<path d="M337.327 487.7H598.721V622.31C598.721 636.141 587.509 647.354 573.677 647.354H362.371C348.539 647.354 337.327 636.141 337.327 622.31V487.7Z" fill="white"/>
</clipPath>
<clipPath id="clip2_216_2704">
<rect width="111.972" height="118.441" fill="white" transform="translate(413.183 513.504)"/>
</clipPath>
<clipPath id="clip3_216_2704">
<rect width="33.4218" height="33.4218" fill="white" transform="translate(101.292 788.368)"/>
</clipPath>
<clipPath id="clip4_216_2704">
<path d="M337.517 468.309H662V635.408C662 652.578 648.081 666.496 630.912 666.496H368.605C351.436 666.496 337.517 652.578 337.517 635.408V468.309Z" fill="white"/>
</clipPath>
<clipPath id="clip5_216_2704">
<rect width="138.997" height="147.028" fill="white" transform="translate(431.681 500.342)"/>
</clipPath>
</defs>
</svg>
