<svg width="793" height="464" viewBox="0 0 793 464" fill="none" xmlns="http://www.w3.org/2000/svg">
<path d="M128.283 84.1895H10.918V356.781H128.283V84.1895Z" fill="#B3C9FB"/>
<path d="M308.75 84.1895H127.324V356.781H308.75V84.1895Z" fill="#587AD7"/>
<path d="M248.469 0.26625L68.002 0L137.441 87.5976L292.774 87.8639L319.08 87.9171L248.469 0.26625Z" fill="#3F4F97"/>
<path d="M124.394 87.5976H137.44L69.2794 1.43777L68.0013 0L0 87.3314L12.7802 87.3846L68.0013 18.052L124.394 87.5976Z" fill="#576EBE"/>
<path d="M124.395 87.5977L68.0024 16.4014L12.7812 87.3847L68.6414 87.4912L124.395 87.5977Z" fill="#B3C9FB"/>
<path d="M81.0478 142.339C84.2429 142.339 86.7989 139.73 86.7989 136.588V103.147C86.7989 92.816 78.0658 84.4023 67.3623 84.4023C56.6589 84.4023 47.9258 92.816 47.9258 103.147V136.588C47.9258 139.783 50.5351 142.339 53.6769 142.339H81.0478Z" fill="#587AD7"/>
<path d="M270.09 127.43H258.587C255.617 127.43 253.209 129.838 253.209 132.808V159.753C253.209 162.723 255.617 165.131 258.587 165.131H270.09C273.06 165.131 275.468 162.723 275.468 159.753V132.808C275.468 129.838 273.06 127.43 270.09 127.43Z" fill="white"/>
<path d="M227.755 127.43H216.306C213.336 127.43 210.928 129.838 210.928 132.808V159.753C210.928 162.723 213.336 165.131 216.306 165.131H227.755C230.725 165.131 233.133 162.723 233.133 159.753V132.808C233.133 129.838 230.725 127.43 227.755 127.43Z" fill="white"/>
<path d="M185.58 127.43H174.078C171.107 127.43 168.699 129.838 168.699 132.808V159.753C168.699 162.723 171.107 165.131 174.078 165.131H185.58C188.55 165.131 190.958 162.723 190.958 159.753V132.808C190.958 129.838 188.55 127.43 185.58 127.43Z" fill="white"/>
<path d="M270.089 184.087H258.587C255.617 184.087 253.209 186.495 253.209 189.465V216.41C253.209 219.381 255.617 221.789 258.587 221.789H270.089C273.06 221.789 275.468 219.381 275.468 216.41V189.465C275.468 186.495 273.06 184.087 270.089 184.087Z" fill="white"/>
<path d="M227.755 184.087H216.306C213.336 184.087 210.928 186.495 210.928 189.465V216.41C210.928 219.381 213.336 221.789 216.306 221.789H227.755C230.725 221.789 233.133 219.381 233.133 216.41V189.465C233.133 186.495 230.725 184.087 227.755 184.087Z" fill="white"/>
<path d="M185.58 184.087H174.077C171.107 184.087 168.699 186.495 168.699 189.465V216.41C168.699 219.381 171.107 221.789 174.077 221.789H185.58C188.55 221.789 190.958 219.381 190.958 216.41V189.465C190.958 186.495 188.55 184.087 185.58 184.087Z" fill="white"/>
<path d="M510.03 108.631H370.567V356.78H510.03V108.631Z" fill="#F7D1C4"/>
<path d="M377.33 356.782H247.504V114.224L307.092 51.7607L377.33 110.496V356.782Z" fill="white"/>
<path d="M522.066 118.642H377.277L307.891 39.9375H452.68L522.066 118.642Z" fill="#D9633B"/>
<path d="M317.689 115.768H298.306C294.571 115.768 291.543 118.795 291.543 122.53V153.096C291.543 156.831 294.571 159.859 298.306 159.859H317.689C321.424 159.859 324.452 156.831 324.452 153.096V122.53C324.452 118.795 321.424 115.768 317.689 115.768Z" fill="#ED977A"/>
<path d="M364.177 118.749L379.62 118.802L307.944 39.9375L237.813 118.429L252.936 118.482L307.944 58.1493L364.177 118.749Z" fill="#DE7F58"/>
<g clip-path="url(#clip0_73_3354)">
<path d="M760.435 88.4707C771.948 88.4707 781.281 97.8033 781.281 109.317C781.281 120.83 771.948 130.16 760.435 130.16C748.921 130.16 739.592 120.827 739.592 109.317C739.592 97.8062 748.924 88.4707 760.435 88.4707Z" fill="white"/>
<path d="M760.434 77.0723C778.308 77.0723 792.8 91.5636 792.8 109.437C792.8 127.311 760.434 179.976 760.434 179.976C760.434 179.976 728.072 127.311 728.072 109.437C728.072 91.5636 742.561 77.0723 760.434 77.0723ZM781.28 109.316C781.28 97.8027 771.948 88.4701 760.434 88.4701C748.921 88.4701 739.591 97.8027 739.591 109.316C739.591 120.829 748.924 130.159 760.434 130.159C771.945 130.159 781.28 120.827 781.28 109.316Z" fill="#F4855B"/>
</g>
<path d="M688.126 269.069L496.34 306.349L502.539 338.237L694.325 300.958L688.126 269.069Z" fill="#4B4F5B"/>
<path d="M568.203 156.325L565.108 156.927L618.536 431.789L621.631 431.188L568.203 156.325Z" fill="#4B4F5B"/>
<path d="M476.347 174.184L565.111 156.93L592.723 298.981L498.469 317.302L471.925 180.74C471.335 177.708 473.315 174.773 476.347 174.184Z" fill="#E7E1DD"/>
<path d="M568.214 156.322L656.995 139.065C660.018 138.477 662.953 140.457 663.541 143.481L690.087 280.05L595.834 298.371L568.222 156.321L568.214 156.322Z" fill="#E7E1DD"/>
<path d="M501.442 332.565L595.696 314.244L618.543 431.786L529.779 449.04C526.747 449.63 523.812 447.65 523.223 444.618L501.442 332.565Z" fill="#C4C7BA"/>
<path d="M598.792 313.647L693.046 295.326L714.828 407.387C715.416 410.41 713.436 413.345 710.412 413.933L621.632 431.19L598.784 313.648L598.792 313.647Z" fill="#C4C7BA"/>
<path d="M453.311 278.463C453.563 276.293 454.684 274.944 456.416 274.716C463.909 273.708 479.026 271.278 481.57 270.969C486.357 270.384 493.615 269.921 496.768 276.138C499.922 282.356 501.052 290.191 496.565 290.987C492.087 291.776 490.153 287.972 489.787 285.428C489.307 282.136 482.025 284.014 480.562 285.022C480.367 285.477 480.278 286.338 480.237 287.297C480.14 289.492 482.074 291.223 484.26 290.906C487.454 290.443 492.436 290.142 493.314 293.62C494.046 296.514 491.908 299.375 485.366 299.757C471.386 300.569 467.144 300.293 464.25 297.156C462.958 295.758 461.235 294.831 459.333 294.71L459.008 294.685L454.481 294.425C452.522 294.311 450.954 292.767 450.816 290.808L453.335 278.447H453.319L453.311 278.463Z" fill="url(#paint0_linear_73_3354)"/>
<path d="M418.542 216.158C402.888 216.158 390.201 202.999 390.201 186.769C390.201 170.538 402.888 157.38 418.542 157.38C434.195 157.38 446.882 170.538 446.882 186.769C446.882 202.999 434.195 216.158 418.542 216.158Z" fill="url(#paint1_linear_73_3354)"/>
<path d="M431.042 193.912C430.57 195.432 431.212 196.977 432.472 197.35C433.732 197.724 435.138 196.798 435.609 195.27C436.081 193.75 435.439 192.206 434.179 191.832C432.919 191.458 431.513 192.385 431.042 193.912Z" fill="#323232"/>
<path d="M431.042 193.912C430.57 195.432 431.212 196.977 432.472 197.35C433.732 197.724 435.138 196.798 435.609 195.27C436.081 193.75 435.439 192.206 434.179 191.832C432.919 191.458 431.513 192.385 431.042 193.912Z" fill="#323232"/>
<path d="M446.858 191.507C446.858 191.507 457.822 173.668 437.308 165.597C416.778 157.518 407.236 167.767 405.213 176.504L402.978 182.64L408.911 191.45L411.576 181.34C415.526 184.152 421.313 183.396 423.938 179.357C425.726 176.618 427.514 173.31 428.62 169.856C428.62 169.856 429.156 170.189 429.953 170.782C434.577 174.204 436.268 180.259 434.089 185.526L446.841 191.507H446.866H446.858Z" fill="#323232"/>
<path d="M442.745 172.765C442.745 172.765 446.752 170.067 437.991 164.418C429.229 158.769 406.838 153.357 396.923 160.241C380.79 171.44 392.095 197.846 392.095 197.846L405.107 189.621L410.154 169.774L442.745 172.765Z" fill="#323232"/>
<path d="M401.125 182.583C404.237 181.429 407.635 182.396 409.731 184.769C410.357 185.468 410.877 186.305 411.235 187.216C412.796 191.255 410.812 195.741 406.789 197.229C402.783 198.716 398.256 196.652 396.695 192.612C396.573 192.295 396.467 191.97 396.402 191.661C395.46 187.882 397.435 183.965 401.125 182.591H401.133L401.125 182.583Z" fill="url(#paint2_linear_73_3354)"/>
<g style="mix-blend-mode:multiply" opacity="0.5">
<path d="M405.554 191.475C405.725 191.483 405.903 191.442 406.058 191.336C406.391 191.093 406.464 190.637 406.212 190.304C404.44 187.923 400.864 188.516 400.71 188.549C400.304 188.622 400.027 188.996 400.1 189.402C400.174 189.8 400.564 190.06 400.97 190.003C401.003 190.003 403.782 189.54 405.001 191.182C405.139 191.361 405.335 191.466 405.546 191.483L405.554 191.475Z" fill="url(#paint3_linear_73_3354)"/>
</g>
<path d="M515.437 449.261L509.943 450.138L484.667 293.067L490.161 292.189L515.437 449.261Z" fill="#505050"/>
<path d="M523.353 456.576L521.939 449.44L717.209 412.33L718.623 419.474L523.353 456.568V456.576Z" fill="#505050"/>
<path d="M487.901 293.905C484.341 294.791 480.733 292.629 479.847 289.069C478.961 285.509 481.123 281.901 484.683 281.015C488.243 280.129 491.851 282.291 492.737 285.851C493.623 289.411 491.461 293.019 487.901 293.905Z" fill="#323232"/>
<path d="M516.055 463.403C510.788 464.24 505.814 460.64 504.977 455.373C504.14 450.107 507.74 445.133 513.007 444.296C518.274 443.459 523.248 447.059 524.085 452.326C524.922 457.592 521.321 462.566 516.055 463.403Z" fill="#323232"/>
<path d="M514.047 458.502C511.479 458.234 509.618 455.942 509.886 453.373C510.154 450.805 512.446 448.944 515.014 449.212C517.583 449.48 519.444 451.772 519.176 454.341C518.908 456.909 516.616 458.77 514.047 458.502Z" fill="#505050"/>
<path d="M449.361 178.382C449.361 161.777 435.642 150.618 418.737 150.618C401.832 150.618 388.112 161.777 388.112 178.382H449.377H449.369H449.361Z" fill="#8CABD2"/>
<path d="M426.173 178.381L455.895 179.641C458.171 179.738 459.309 176.983 457.618 175.488C454.384 172.627 450.271 169.481 448.109 169.806C444.192 170.392 431.18 176.357 426.173 178.381Z" fill="#7995C8"/>
<path d="M414.901 150.618C414.901 151.756 416.624 152.674 418.729 152.674C420.834 152.674 422.557 151.747 422.557 150.618C422.557 149.488 420.834 148.562 418.729 148.562C416.624 148.562 414.901 149.488 414.901 150.618Z" fill="#7995C8"/>
<path d="M309.463 409.664L352.693 460.046C353.408 460.875 354.668 460.94 355.473 460.192C371.256 445.563 361.316 432.445 357.187 428.154C356.399 427.333 356.505 426 357.407 425.309L410.495 384.574C410.902 384.257 411.17 383.794 411.227 383.298L419.33 319.49C419.444 318.604 418.932 317.758 418.095 317.45L365.429 297.952C364.177 297.489 362.844 298.415 362.844 299.748V361.167C362.844 361.736 362.592 362.273 362.161 362.638L309.683 406.957C308.862 407.648 308.772 408.867 309.463 409.68V409.664Z" fill="#183563"/>
<path d="M440.169 323.765L472.053 433.356C472.597 435.241 474.361 436.501 476.336 436.469C482.7 436.363 496.191 438.24 498.166 455.836C498.459 458.421 496.443 460.688 493.842 460.688H431.383C429.465 460.688 427.758 459.429 427.214 457.584L384.894 315.792C383.951 312.614 386.763 309.591 390.006 310.306L436.942 320.742C438.495 321.091 439.73 322.245 440.177 323.773H440.169V323.765Z" fill="#2A437F"/>
<path d="M389.965 222.115C400.214 216.881 412.739 222.245 417.948 234.079L426.336 246.871C429.132 251.138 432.529 254.844 436.406 257.64C449.523 267.117 462.503 270.018 469.647 269.002C471.85 268.694 473.76 270.912 473.41 273.326L470.127 296.01C469.785 298.375 468.298 300.285 466.234 300.943C422.841 314.768 401.75 283.738 396.069 273.529C395.395 272.31 394.801 271.059 394.297 269.734L386.658 249.862C381.448 238.021 382.578 229.909 389.965 222.091V222.115Z" fill="#8CABD2"/>
<path d="M418.542 216.158C418.542 216.158 434.471 218.287 446.882 320.4C447.166 322.708 445.037 324.7 442.355 324.643L364.616 322.611C362.405 322.546 360.577 321.091 360.357 319.181C358.74 305.348 355.351 251.227 394.078 209.249C395.256 207.973 397.223 207.453 399.011 207.998L418.542 216.182V216.158Z" fill="#8CABD2"/>
<defs>
<linearGradient id="paint0_linear_73_3354" x1="443.589" y1="285.908" x2="488.083" y2="285.315" gradientUnits="userSpaceOnUse">
<stop stop-color="#F2B6BA"/>
<stop offset="1" stop-color="#F2C7CA"/>
</linearGradient>
<linearGradient id="paint1_linear_73_3354" x1="446.874" y1="186.777" x2="390.201" y2="186.777" gradientUnits="userSpaceOnUse">
<stop stop-color="#F2B6BA"/>
<stop offset="1" stop-color="#F2C7CA"/>
</linearGradient>
<linearGradient id="paint2_linear_73_3354" x1="398.386" y1="184.339" x2="409.528" y2="195.481" gradientUnits="userSpaceOnUse">
<stop stop-color="#F2B6BA"/>
<stop offset="1" stop-color="#F2C7CA"/>
</linearGradient>
<linearGradient id="paint3_linear_73_3354" x1="406.367" y1="189.979" x2="400.1" y2="189.979" gradientUnits="userSpaceOnUse">
<stop stop-color="#F2B6BA"/>
<stop offset="1" stop-color="#F2C7CA"/>
</linearGradient>
<clipPath id="clip0_73_3354">
<rect width="64.8717" height="103.048" fill="white" transform="translate(728 77)"/>
</clipPath>
</defs>
</svg>
