<svg width="499" height="436" viewBox="0 0 499 436" fill="none" xmlns="http://www.w3.org/2000/svg">
<g clip-path="url(#clip0_208_6581)">
<path fill-rule="evenodd" clip-rule="evenodd" d="M125.257 436.001C118.001 436.001 111.978 429.261 111.978 420.908L106.917 366.921C106.917 358.568 117.867 351.828 125.122 351.828C132.377 351.828 142.633 358.568 142.633 366.921L138.244 420.908C138.244 429.261 132.355 436.001 124.965 436.001H125.234H125.257Z" fill="#995E46"/>
<path fill-rule="evenodd" clip-rule="evenodd" d="M383.686 436.001C376.431 436.001 370.407 429.261 370.407 420.908L365.346 366.921C365.346 358.568 376.296 351.828 383.551 351.828C390.806 351.828 401.062 358.568 401.062 366.921L396.696 420.908C396.696 429.261 390.806 436.001 383.417 436.001H383.686Z" fill="#995E46"/>
<path fill-rule="evenodd" clip-rule="evenodd" d="M464.723 157.686C464.723 146.49 463.044 135.563 460.043 125.083C460.043 124.232 460.043 123.404 459.931 122.553C459.215 121.12 458.498 119.911 457.759 118.589C446.944 87.5538 423.611 60.1456 391.859 39.5672C383.081 33.678 373.811 28.5054 363.958 24.2956C330.728 9.02409 291.519 0 249.422 0C207.324 0 170.399 8.53146 137.796 23.0864C135.982 23.803 134.191 24.6539 132.377 25.4824C129.847 26.6916 127.451 27.8784 125.033 29.2219C120.823 31.394 116.613 33.5436 112.515 36.074C77.8744 57.0107 52.5039 85.8744 41.0615 118.813C40.3449 120.135 39.6284 121.344 38.8894 122.777C38.8894 123.628 38.8894 124.456 38.7775 125.307C35.7769 135.899 34.0975 146.714 34.0975 157.91C34.0975 180.638 40.7032 202.18 52.5039 221.661C68.8503 263.154 98.0946 299.228 137.415 323.77C205.981 366.472 292.818 366.472 361.361 323.77C400.681 299.228 429.926 263.154 446.272 221.661C458.05 202.18 464.679 180.638 464.679 157.91V157.664L464.723 157.686Z" fill="#F69467"/>
<path fill-rule="evenodd" clip-rule="evenodd" d="M102.685 372.361C28.0068 373.324 5.03236 195.574 0.576294 143.602C1.18089 128.442 9.24211 120.381 24.76 119.418H56.5122C77.8073 123.023 76.5981 145.639 78.7701 162.478C87.9062 232.969 94.3999 303.93 157.904 303.079H340.849C404.354 303.796 410.848 232.969 419.984 162.478C422.156 145.639 420.947 123.157 442.242 119.418H473.994C489.512 120.381 497.573 128.554 498.177 143.602C493.721 195.552 470.747 373.324 396.069 372.361H102.573H102.685Z" fill="#E3764B"/>
<path fill-rule="evenodd" clip-rule="evenodd" d="M88.0181 280.24H410.825C405.653 242.845 351.889 223.117 249.422 221.191C146.955 223.117 93.1907 242.71 88.0181 280.24Z" fill="#F69467"/>
<path d="M379.566 247.412H119.166C101.767 247.412 87.6599 261.519 87.6599 278.918V279.03C87.6599 296.429 101.767 310.536 119.166 310.536H379.566C396.964 310.536 411.072 296.429 411.072 279.03V278.918C411.072 261.519 396.964 247.412 379.566 247.412Z" fill="#EE7F53"/>
<path d="M374.572 232.051L159.002 264.878C150.672 241.612 142.588 214.63 135.96 184.288C130.071 156.835 126.399 131.375 124.204 108.602C123.711 104.684 126.645 101.235 130.564 100.765L327.526 70.8714C331.445 70.4012 335.117 72.8419 335.856 76.4695C338.789 97.8093 342.73 120.358 347.612 143.624C353.971 175.712 363.533 205.83 374.572 232.073V232.051Z" fill="white"/>
<path d="M248.123 149.022C246.981 149.223 246.018 147.678 245.593 145.999C244.518 142.192 243.734 137.758 243.264 133.481C241.137 134.623 239.233 136.079 236.703 138.341C237.173 140.49 237.8 142.528 238.45 144.409C238.875 145.708 238.562 146.648 237.509 146.962C236.457 147.275 235.18 145.752 234.62 144.454C232.874 140.423 231.53 132.854 231.553 129.585C231.553 128.018 231.777 127.189 232.829 126.809C234.173 126.45 235.404 127.324 235.449 128.936C235.494 130.458 235.651 132.071 235.897 133.683C237.89 132.071 240.219 130.66 242.95 129.72C242.861 128.622 242.794 127.525 242.771 126.473C242.726 125.263 242.883 122.778 244.316 122.778C246.108 122.733 246.735 125.398 246.735 126.853C246.959 132.339 248.302 140.513 249.467 146.491C249.735 147.857 249.332 148.798 248.145 148.999L248.123 149.022ZM210.235 128.779C209.855 127.794 209.205 126.943 208.018 127.1C206.876 127.324 206.115 128.757 206.406 130.123C208.018 137.803 208.175 139.998 208.354 141.252C205.936 141.834 204.055 143.692 204.145 146.536C203.943 150.096 206.563 156.254 211.019 155.515C212.475 155.314 213.281 153.993 213.37 151.552C213.617 148.775 213.124 144.252 212.407 139.751C211.691 135.25 210.817 130.884 210.235 128.779ZM226.962 128.981C226.626 128.107 225.977 127.368 224.79 127.525C223.648 127.727 222.909 129.048 223.133 130.19C223.738 132.787 224.499 136.549 224.79 139.012C221.678 140.58 220.67 143.827 221.185 146.536C221.723 149.469 223.626 153.007 227.141 152.336C228.395 152.089 229.358 150.88 229.56 148.798C230.052 144.767 228.104 133.034 226.985 128.958L226.962 128.981ZM218.028 134.467C217.759 132.698 216.572 131.69 215.117 131.757C213.975 131.914 214.087 133.437 214.087 134.422C214.154 138.184 215.274 146.178 216.595 149.604C217.087 150.97 217.961 152.269 219.461 152.045C219.931 151.888 221.073 151.149 220.446 149.335C219.192 145.954 218.498 137.893 218.05 134.422V134.467H218.028ZM200.517 136.594C200.114 134.87 198.905 133.884 197.472 134.153C196.33 134.355 196.486 135.877 196.621 136.818C197.136 140.893 198.278 145.797 199.509 149.29C200.024 150.656 201.032 151.843 202.51 151.53C202.98 151.373 203.809 150.589 203.316 148.775C202.219 145.237 201.189 139.953 200.562 136.616V136.572L200.517 136.594ZM208.937 144.946C208.892 145.685 210.101 151.53 209.138 151.686C208.354 151.843 207.324 150.186 207.056 147.812C206.899 146.67 207.481 145.215 208.914 144.946H208.937ZM225.372 142.864C225.507 143.647 225.686 146.2 225.641 147.342C225.641 147.969 225.507 148.283 225.328 148.327C224.902 148.417 224.611 148.081 224.432 147.432C224.253 146.715 224.096 145.349 224.275 144.61C224.41 144.051 224.902 142.953 225.372 142.886V142.864Z" fill="black"/>
<path d="M267.694 129.181C267.425 132.741 267.246 138.317 268.366 141.698C268.657 143.265 267.627 144.139 266.955 144.139C265.835 144.139 264.94 143.041 264.469 142.101C263.394 139.974 263.059 133.189 263.215 129.091C261.312 129.449 258.132 131.801 256.027 133.368C255.199 133.95 253.497 133.637 252.781 132.898C252.086 132.159 253.049 131.017 253.766 130.233C255.692 128.263 260.013 125.687 262.723 125.217C265.858 124.792 267.783 126.471 267.671 129.225L267.694 129.181ZM282.204 136.279C282.45 137.623 282.025 138.048 281.084 138.25C280.502 138.361 278.868 137.936 278.442 136.682C276.382 129.002 275.621 123.538 274.971 118.052C274.815 117.223 275.509 116.327 276.427 116.171C277.681 115.924 278.823 117.469 278.957 118.522C279.853 125.262 280.681 129.74 282.204 136.279Z" fill="black"/>
<path d="M196.733 189.304C196.957 190.446 195.322 191.297 194.023 191.7C190.127 193.066 184.036 195.865 182.402 199.314C183.611 203.434 183.476 208.763 179.356 209.592C176.804 210.151 175.147 208.226 174.452 206.188C173.355 202.583 173.825 198.216 174.632 195.485C174.99 194.074 175.886 193.201 177.162 193.402C178.953 193.671 178.752 195.641 178.416 196.783C177.543 199.717 177.431 203.008 178.259 205.606C178.393 205.987 178.617 206.188 178.931 206.188C179.312 206.188 179.58 205.942 179.737 205.561C180.521 203.747 180.409 201.486 179.737 199.336C179.446 198.396 179.088 197.836 179.491 197.41C179.491 197.321 179.513 197.298 179.58 197.209C180.162 195.597 181.237 194.455 182.514 193.447C186.074 190.581 190.485 189.17 192.769 188.744C194.023 188.498 196.554 188.498 196.733 189.371V189.327V189.304ZM206.899 205.024C205.578 205.225 204.324 202.561 203.697 200.859C202.913 198.619 202.331 196.47 201.95 194.432C199.263 197.97 194.359 203.456 191.202 204.867C190.351 205.27 188.672 205.651 187.933 204.912C187.082 204.038 187.395 203.255 188.604 202.247C190.687 200.523 198.502 193.962 201.413 189.08C201.637 187.58 201.48 185.789 202.734 185.542C203.809 185.341 204.951 186.438 205.063 187.826C205.645 192.932 206.742 198.216 207.705 202.605C207.974 204.419 207.705 204.956 206.876 205.046L206.899 205.024ZM214.826 203.814C213.505 203.703 212.878 201.038 212.452 199.426C211.444 195.35 210.482 189.886 210.526 186.371C210.526 185.318 210.459 183.034 211.937 182.967C213.034 182.878 214.087 184.176 214.109 185.587C214.243 189.237 215.363 196.067 216.684 201.754C217.065 203.523 215.99 203.994 214.848 203.837L214.826 203.814Z" fill="black"/>
<path d="M228.149 186.458C227.567 187.645 226.47 189.056 225.977 191.116C225.574 192.303 225.305 195.191 227.679 194.967C228.91 194.923 230.321 193.557 230.344 192.415C230.478 191.161 230.12 189.795 228.933 188.541C228.395 188.026 228.328 187.6 228.463 187.332C228.642 187.018 229.493 186.906 230.209 187.108C232.896 187.623 234.643 191.967 233.568 194.878C232.448 197.811 229.112 199.155 226.828 199.155C225.059 199.043 222.349 197.699 221.678 194.363C221.051 191.026 222.193 187.153 224.499 184.354C225.372 183.413 226.044 182.697 227.253 182.853C229.112 183.122 228.664 185.518 228.104 186.458H228.149ZM243.98 170.537C244.876 178.666 245.839 183.167 248.078 190.467C248.325 191.497 248.347 192.907 247.675 193.288C246.623 193.96 245.458 193.288 244.697 191.877C242.144 186.123 240.174 176.18 239.502 168.612C239.412 167.738 239.592 166.798 240.89 166.731C242.234 166.641 243.801 168.41 244.003 170.537H243.98ZM256.095 170.896C257.752 170.739 259.319 171.568 259.364 172.105C259.453 172.889 258.491 173.448 257.617 173.762C254.93 174.859 252.176 175.688 248.795 177.793C247.339 178.688 246.511 178.778 246.13 178.352C244.988 177.21 245.727 175.844 246.914 175.016C249.713 173.045 253.676 171.209 256.095 170.896ZM262.611 181.219C262.7 181.644 262.566 182.271 261.357 182.741C257.371 184.242 254.662 185.361 251.751 186.929C250.138 187.556 248.526 187.556 248.011 186.414C247.586 185.473 248.392 184.533 249.825 183.749C252.736 182.092 255.445 180.726 259.118 180.189C260.013 180.032 262.611 180.345 262.656 181.219H262.611ZM254.527 197.341C255.58 199.02 256.139 203.029 255.848 207.418C255.804 208.515 254.93 209.5 254.102 209.567C252.825 209.679 251.997 207.574 251.952 206.634C251.862 203.924 251.706 201.416 251.303 199.222C249.131 199.58 246.511 201.349 244.697 202.67C243.129 203.88 241.965 203.253 241.607 202.76C240.823 201.82 241.293 200.722 241.898 200.05C243.958 197.901 247.317 195.572 250.34 195.259C252.512 194.99 253.878 196.289 254.505 197.341H254.527Z" fill="black"/>
<path d="M279.875 169.375C280.301 170.943 280.614 172.622 280.86 174.346C285.025 170.808 288.787 167.203 291.385 165.479C292.415 164.74 294.273 165.121 294.408 167.45C294.52 170.383 295.326 177.056 295.886 180.034C296.289 182.184 295.236 182.9 294.475 183.012C293.624 183.169 292.818 182.117 292.482 180.975C291.9 178.825 290.959 173.16 290.758 170.338C287.847 172.689 283.839 175.712 281.42 178.265C281.756 182.027 281.98 185.923 281.219 188.812C280.838 190.155 279.987 190.85 279.091 191.006C276.584 191.477 274.792 188.857 274.322 186.685C273.538 183.191 274.815 179.631 277.591 177.078C277.502 174.996 276.763 172.286 276.203 169.666C275.979 168.412 276.382 167.696 277.882 167.741C278.823 167.83 279.607 168.412 279.853 169.353L279.875 169.375ZM272.15 189.327C272.643 190.312 272.956 191.32 271.747 191.768C270.627 192.081 269.508 191.029 268.858 190.155C266.753 187.446 265.41 183.841 264.335 175.533C264.245 174.705 264.783 173.54 266.104 173.697C267.291 173.787 268.343 175.108 268.478 177.078C269.127 181.825 270.336 185.834 272.172 189.394V189.349L272.15 189.327ZM277.681 187.446C278.039 186.707 278.218 182.945 277.927 180.818C276.248 182.475 275.867 184.378 276.18 186.102C276.382 187.155 277.367 188.095 277.658 187.446H277.681ZM290.758 185.296C290.959 188.05 291.228 191.768 291.654 194.388C296.557 192.82 300.476 190.043 304.641 187.715C305.134 187.446 305.537 187.558 305.604 187.916C305.94 189.327 305.178 190.581 304.104 191.521C300.431 194.746 296.378 197.209 291.788 199.09C290.825 199.515 288.384 199.762 288.048 197.164C287.556 193.559 287.377 189.954 287.489 186.192C287.533 185.14 288.272 184.378 289.056 184.311C289.84 184.221 290.713 184.311 290.78 185.296H290.758Z" fill="black"/>
<path d="M306.5 162.12C305.649 162.904 304.775 162.433 304.395 161.851C303.029 159.814 301.529 157.418 298.707 155.223C298.326 154.865 298.237 154.35 298.349 154.014C298.483 153.656 298.797 153.342 299.267 153.275C300.409 153.029 301.394 153.432 302.424 153.992C304.081 154.932 306.029 157.709 306.858 159.903C307.082 160.53 307.059 161.269 306.477 162.142L306.5 162.12ZM305.985 164.314C306.992 164.068 308.269 163.956 309.276 164.001C311.09 164.113 311.717 165.501 311.381 166.934C310.866 169.218 307.261 173.63 308.112 176.966C309.299 177.28 313.419 174.525 312.881 171.995C312.747 171.323 312.478 170.495 313.329 170.114C314.068 169.801 314.919 170.629 315.143 171.211C315.792 172.734 315.86 174.436 314.494 176.339C315.815 181.153 316.711 184.647 315.524 189.483C319.42 187.916 324.055 186.819 328.22 186.304C329.474 186.348 330.235 187.132 330.28 187.826C330.392 189.125 329.474 189.909 328.108 190.133C323.898 190.76 319.062 192.103 314.606 193.38C313.441 193.738 310.597 194.119 310.262 192.282C310.038 191.14 310.821 190.312 311.381 188.364C311.941 186.393 312.277 183.236 311.605 179.608C310.978 180.168 308.784 182.004 306.32 181.109C301.215 178.601 305.47 170.472 307.037 167.651C305.626 168.054 303.32 168.905 301.932 169.487C300.879 169.845 299.446 169.017 299.312 168.345C299.088 167.405 299.58 166.733 300.633 166.195C301.976 165.456 304.171 164.673 305.962 164.27L305.985 164.314Z" fill="black"/>
<path d="M267.694 129.181C267.425 132.741 267.246 138.317 268.366 141.698C268.657 143.265 267.627 144.139 266.955 144.139C265.835 144.139 264.94 143.041 264.469 142.101C263.394 139.974 263.059 133.189 263.215 129.091C261.312 129.449 258.132 131.801 256.027 133.368C255.199 133.95 253.497 133.637 252.781 132.898C252.086 132.159 253.049 131.017 253.766 130.233C255.692 128.263 260.013 125.687 262.723 125.217C265.858 124.792 267.783 126.471 267.671 129.225L267.694 129.181ZM282.204 136.279C282.45 137.623 282.025 138.048 281.084 138.25C280.502 138.361 278.868 137.936 278.442 136.682C276.382 129.002 275.621 123.538 274.971 118.052C274.815 117.223 275.509 116.327 276.427 116.171C277.681 115.924 278.823 117.469 278.957 118.522C279.853 125.262 280.681 129.74 282.204 136.279Z" stroke="black" stroke-width="0.470238"/>
<path d="M196.733 189.304C196.957 190.446 195.322 191.297 194.023 191.7C190.127 193.066 184.036 195.865 182.402 199.314C183.611 203.434 183.476 208.763 179.356 209.592C176.804 210.151 175.147 208.226 174.452 206.188C173.355 202.583 173.825 198.216 174.632 195.485C174.99 194.074 175.886 193.201 177.162 193.402C178.953 193.671 178.752 195.641 178.416 196.783C177.543 199.717 177.431 203.008 178.259 205.606C178.393 205.987 178.617 206.188 178.931 206.188C179.312 206.188 179.58 205.942 179.737 205.561C180.521 203.747 180.409 201.486 179.737 199.336C179.446 198.396 179.088 197.836 179.491 197.41C179.491 197.321 179.513 197.298 179.58 197.209C180.162 195.597 181.237 194.455 182.514 193.447C186.074 190.581 190.485 189.17 192.769 188.744C194.023 188.498 196.554 188.498 196.733 189.371V189.327V189.304ZM206.899 205.024C205.578 205.225 204.324 202.561 203.697 200.859C202.913 198.619 202.331 196.47 201.95 194.432C199.263 197.97 194.359 203.456 191.202 204.867C190.351 205.27 188.672 205.651 187.933 204.912C187.082 204.038 187.395 203.255 188.604 202.247C190.687 200.523 198.502 193.962 201.413 189.08C201.637 187.58 201.48 185.789 202.734 185.542C203.809 185.341 204.951 186.438 205.063 187.826C205.645 192.932 206.742 198.216 207.705 202.605C207.974 204.419 207.705 204.956 206.876 205.046L206.899 205.024ZM214.826 203.814C213.505 203.703 212.878 201.038 212.452 199.426C211.444 195.35 210.482 189.886 210.526 186.371C210.526 185.318 210.459 183.034 211.937 182.967C213.034 182.878 214.087 184.176 214.109 185.587C214.243 189.237 215.363 196.067 216.684 201.754C217.065 203.523 215.99 203.994 214.848 203.837L214.826 203.814Z" stroke="black" stroke-width="0.470238"/>
<path d="M228.149 186.458C227.567 187.645 226.47 189.056 225.977 191.116C225.574 192.303 225.305 195.191 227.679 194.967C228.91 194.923 230.321 193.557 230.344 192.415C230.478 191.161 230.12 189.795 228.933 188.541C228.395 188.026 228.328 187.6 228.463 187.332C228.642 187.018 229.493 186.906 230.209 187.108C232.896 187.623 234.643 191.967 233.568 194.878C232.448 197.811 229.112 199.155 226.828 199.155C225.059 199.043 222.349 197.699 221.678 194.363C221.051 191.026 222.193 187.153 224.499 184.354C225.372 183.413 226.044 182.697 227.253 182.853C229.112 183.122 228.664 185.518 228.104 186.458H228.149ZM243.98 170.537C244.876 178.666 245.839 183.167 248.078 190.467C248.325 191.497 248.347 192.907 247.675 193.288C246.623 193.96 245.458 193.288 244.697 191.877C242.144 186.123 240.174 176.18 239.502 168.612C239.412 167.738 239.592 166.798 240.89 166.731C242.234 166.641 243.801 168.41 244.003 170.537H243.98ZM256.095 170.896C257.752 170.739 259.319 171.568 259.364 172.105C259.453 172.889 258.491 173.448 257.617 173.762C254.93 174.859 252.176 175.688 248.795 177.793C247.339 178.688 246.511 178.778 246.13 178.352C244.988 177.21 245.727 175.844 246.914 175.016C249.713 173.045 253.676 171.209 256.095 170.896ZM262.611 181.219C262.7 181.644 262.566 182.271 261.357 182.741C257.371 184.242 254.662 185.361 251.751 186.929C250.138 187.556 248.526 187.556 248.011 186.414C247.586 185.473 248.392 184.533 249.825 183.749C252.736 182.092 255.445 180.726 259.118 180.189C260.013 180.032 262.611 180.345 262.656 181.219H262.611ZM254.527 197.341C255.58 199.02 256.139 203.029 255.848 207.418C255.804 208.515 254.93 209.5 254.102 209.567C252.825 209.679 251.997 207.574 251.952 206.634C251.862 203.924 251.706 201.416 251.303 199.222C249.131 199.58 246.511 201.349 244.697 202.67C243.129 203.88 241.965 203.253 241.607 202.76C240.823 201.82 241.293 200.722 241.898 200.05C243.958 197.901 247.317 195.572 250.34 195.259C252.512 194.99 253.878 196.289 254.505 197.341H254.527Z" stroke="black" stroke-width="0.470238"/>
<path d="M279.875 169.375C280.301 170.943 280.614 172.622 280.86 174.346C285.025 170.808 288.787 167.203 291.385 165.479C292.415 164.74 294.273 165.121 294.408 167.45C294.52 170.383 295.326 177.056 295.886 180.034C296.289 182.184 295.236 182.9 294.475 183.012C293.624 183.169 292.818 182.117 292.482 180.975C291.9 178.825 290.959 173.16 290.758 170.338C287.847 172.689 283.839 175.712 281.42 178.265C281.756 182.027 281.98 185.923 281.219 188.812C280.838 190.155 279.987 190.85 279.091 191.006C276.584 191.477 274.792 188.857 274.322 186.685C273.538 183.191 274.815 179.631 277.591 177.078C277.502 174.996 276.763 172.286 276.203 169.666C275.979 168.412 276.382 167.696 277.882 167.741C278.823 167.83 279.607 168.412 279.853 169.353L279.875 169.375ZM272.15 189.327C272.643 190.312 272.956 191.32 271.747 191.768C270.627 192.081 269.508 191.029 268.858 190.155C266.753 187.446 265.41 183.841 264.335 175.533C264.245 174.705 264.783 173.54 266.104 173.697C267.291 173.787 268.343 175.108 268.478 177.078C269.127 181.825 270.336 185.834 272.172 189.394V189.349L272.15 189.327ZM277.681 187.446C278.039 186.707 278.218 182.945 277.927 180.818C276.248 182.475 275.867 184.378 276.18 186.102C276.382 187.155 277.367 188.095 277.658 187.446H277.681ZM290.758 185.296C290.959 188.05 291.228 191.768 291.654 194.388C296.557 192.82 300.476 190.043 304.641 187.715C305.134 187.446 305.537 187.558 305.604 187.916C305.94 189.327 305.178 190.581 304.104 191.521C300.431 194.746 296.378 197.209 291.788 199.09C290.825 199.515 288.384 199.762 288.048 197.164C287.556 193.559 287.377 189.954 287.489 186.192C287.533 185.14 288.272 184.378 289.056 184.311C289.84 184.221 290.713 184.311 290.78 185.296H290.758Z" stroke="black" stroke-width="0.470238"/>
<path d="M306.5 162.12C305.649 162.904 304.775 162.433 304.395 161.851C303.029 159.814 301.529 157.418 298.707 155.223C298.326 154.865 298.237 154.35 298.349 154.014C298.483 153.656 298.797 153.342 299.267 153.275C300.409 153.029 301.394 153.432 302.424 153.992C304.081 154.932 306.029 157.709 306.858 159.903C307.082 160.53 307.059 161.269 306.477 162.142L306.5 162.12ZM305.985 164.314C306.992 164.068 308.269 163.956 309.276 164.001C311.09 164.113 311.717 165.501 311.381 166.934C310.866 169.218 307.261 173.63 308.112 176.966C309.299 177.28 313.419 174.525 312.881 171.995C312.747 171.323 312.478 170.495 313.329 170.114C314.068 169.801 314.919 170.629 315.143 171.211C315.792 172.734 315.86 174.436 314.494 176.339C315.815 181.153 316.711 184.647 315.524 189.483C319.42 187.916 324.055 186.819 328.22 186.304C329.474 186.348 330.235 187.132 330.28 187.826C330.392 189.125 329.474 189.909 328.108 190.133C323.898 190.76 319.062 192.103 314.606 193.38C313.441 193.738 310.597 194.119 310.262 192.282C310.038 191.14 310.821 190.312 311.381 188.364C311.941 186.393 312.277 183.236 311.605 179.608C310.978 180.168 308.784 182.004 306.32 181.109C301.215 178.601 305.47 170.472 307.037 167.651C305.626 168.054 303.32 168.905 301.932 169.487C300.879 169.845 299.446 169.017 299.312 168.345C299.088 167.405 299.58 166.733 300.633 166.195C301.976 165.456 304.171 164.673 305.962 164.27L305.985 164.314Z" stroke="black" stroke-width="0.470238"/>
</g>
<defs>
<clipPath id="clip0_208_6581">
<rect width="497.579" height="436" fill="white" transform="translate(0.576294)"/>
</clipPath>
</defs>
</svg>
