<svg width="688" height="879" viewBox="0 0 688 879" fill="none" xmlns="http://www.w3.org/2000/svg">
<rect x="48.8022" width="587.996" height="878.377" rx="33.0683" fill="white"/>
<rect x="48.8022" y="443.74" width="587.996" height="18.8159" fill="#F5F5F5"/>
<rect x="80.9461" y="55.6639" width="525.276" height="337.118" rx="30.5758" fill="white" stroke="#EBEBEB" stroke-width="1.56799"/>
<rect x="95.842" y="258.718" width="109.759" height="109.759" rx="12.5439" fill="#F4F5F8"/>
<g clip-path="url(#clip0_208_7306)">
<path fill-rule="evenodd" clip-rule="evenodd" d="M150.565 300.896C149.785 300.896 149.154 301.528 149.154 302.308V312.029H139.432C138.653 312.029 138.021 312.661 138.021 313.44C138.021 314.22 138.653 314.852 139.432 314.852H149.154V324.73C149.154 325.509 149.785 326.141 150.565 326.141C151.344 326.141 151.976 325.509 151.976 324.73V314.852H161.854C162.634 314.852 163.265 314.22 163.265 313.44C163.265 312.661 162.634 312.029 161.854 312.029H151.976V302.308C151.976 301.528 151.344 300.896 150.565 300.896Z" fill="#111111"/>
</g>
<rect x="224.417" y="258.718" width="109.759" height="109.759" rx="12.5439" fill="white"/>
<rect x="352.992" y="258.718" width="109.759" height="109.759" rx="12.5439" fill="white"/>
<path d="M190.73 202.829H187.251L182.865 205.622V208.88L186.932 206.332H187.03V220.566H190.73V202.829Z" fill="#111111"/>
<g clip-path="url(#clip1_208_7306)">
<path fill-rule="evenodd" clip-rule="evenodd" d="M235.262 201.095C234.613 201.095 234.086 201.621 234.086 202.271V210.372H225.985C225.336 210.372 224.809 210.898 224.809 211.548C224.809 212.197 225.336 212.724 225.985 212.724H234.086V220.956C234.086 221.605 234.613 222.132 235.262 222.132C235.912 222.132 236.438 221.605 236.438 220.956V212.724H244.67C245.32 212.724 245.846 212.197 245.846 211.548C245.846 210.898 245.32 210.372 244.67 210.372H236.438V202.271C236.438 201.621 235.912 201.095 235.262 201.095Z" fill="#111111"/>
</g>
<g clip-path="url(#clip2_208_7306)">
<path fill-rule="evenodd" clip-rule="evenodd" d="M129.031 211.417C129.031 210.695 129.616 210.11 130.338 210.11H149.023C149.745 210.11 150.33 210.695 150.33 211.417C150.33 212.139 149.745 212.724 149.023 212.724H130.338C129.616 212.724 129.031 212.139 129.031 211.417Z" fill="#D3D3D3"/>
</g>
<rect x="99.762" y="177.967" width="175.615" height="67.4235" rx="33.7118" stroke="#EBEBEB" stroke-width="1.56799"/>
<path fill-rule="evenodd" clip-rule="evenodd" d="M562.191 92.7954C561.655 92.2596 560.787 92.2596 560.251 92.7954C559.715 93.3312 559.715 94.1999 560.251 94.7357L567.983 102.468L560.251 110.2C559.715 110.736 559.715 111.605 560.251 112.14C560.787 112.676 561.655 112.676 562.191 112.14L569.923 104.408L577.656 112.14C578.191 112.676 579.06 112.676 579.596 112.14C580.132 111.605 580.132 110.736 579.596 110.2L571.864 102.468L579.596 94.7357C580.132 94.1999 580.132 93.3312 579.596 92.7954C579.06 92.2596 578.191 92.2596 577.656 92.7954L569.923 100.528L562.191 92.7954Z" fill="black"/>
<path d="M120.023 98.9518H99.615V101.426H108.533V105.273H111.62V101.426H120.023V98.9518ZM102.016 109.83H117.769V107.331H105.127V103.337H102.016V109.83ZM102.163 97.1144H117.402V88.9069H102.163V97.1144ZM105.225 94.6889V91.3324H114.339V94.6889H105.225ZM127.104 91.9204V91.8959H128.255V89.3969H121.738V91.8959H124.188V91.9204C124.188 94.4316 123.355 97.1144 120.856 98.4863L122.522 100.691C124.078 99.8706 125.058 98.5353 125.646 96.9306C126.173 98.5598 127.079 100.018 128.598 100.936C130.142 100.005 131.06 98.5231 131.587 96.8694C132.175 98.4863 133.167 99.8461 134.748 100.691L136.414 98.4863C133.841 97.1389 133.057 94.4316 133.082 91.9204V91.8959H135.36V89.3969H128.99V91.8959H130.117V91.9204C130.105 93.7089 129.811 95.7669 128.623 97.3348C127.398 95.7301 127.092 93.6599 127.104 91.9204ZM124.017 104.636H136.536V110.222H139.648V102.137H124.017V104.636ZM136.536 101.23H139.648V95.8649H141.951V93.2679H139.648V87.9269H136.536V101.23ZM151.432 89.3969H148.296L142.588 110.638H145.699L151.432 89.3969ZM165.029 90.2789H160.571V87.8289H157.41V90.2789H152.927V92.7289H157.41C157.386 95.2769 155.732 97.8003 152.143 98.7803L153.637 101.23C156.259 100.446 158.047 98.8293 159.027 96.7959C160.032 98.5843 161.783 99.9931 164.319 100.667L165.74 98.2168C162.151 97.2858 160.558 95.0074 160.522 92.7289H165.029V90.2789ZM155.058 106.032C155.046 108.666 157.949 110.197 162.702 110.197C167.357 110.197 170.211 108.666 170.223 106.032C170.211 103.325 167.357 101.794 162.702 101.794C157.949 101.794 155.046 103.325 155.058 106.032ZM158.194 106.032C158.17 104.758 159.738 104.195 162.702 104.195C165.593 104.195 167.136 104.758 167.136 106.032C167.136 107.245 165.593 107.845 162.702 107.845C159.738 107.845 158.17 107.245 158.194 106.032ZM166.867 101.377H170.003V95.7424H173.016V93.2189H170.003V87.9269H166.867V101.377ZM194.38 98.9518H173.972V101.426H182.89V105.273H185.977V101.426H194.38V98.9518ZM176.373 109.83H192.126V107.331H179.484V103.337H176.373V109.83ZM176.52 97.1144H191.759V88.9069H176.52V97.1144ZM179.582 94.6889V91.3324H188.696V94.6889H179.582ZM216.063 101.01H195.654V103.46H200.432V110.222H203.543V103.46H208.198V110.222H211.359V103.46H216.063V101.01ZM198.006 91.1364H210.501V92.8024H198.08V99.3928H214.225V96.8939H201.24V95.0809H213.711V88.5884H198.006V91.1364Z" fill="#111111"/>
<path d="M114.499 125.646H112.826V144.704H114.499V134.822H117.586V133.407H114.499V125.646ZM99.8783 139.752L100.822 141.081C107.028 138.016 109.557 133.096 109.568 127.704H100.757V129.119H107.864C107.478 133.632 104.798 137.308 99.8783 139.752ZM136.172 140.931H128.219V137.33H134.414V135.936H122.58V132.828H133.964V127.061H120.865V128.455H132.313V131.456H120.908V137.33H126.568V140.931H118.722V142.346H136.172V140.931ZM143.889 142.968H153.965V141.253H146.569V141.124L150.127 137.458C152.871 134.629 153.675 133.278 153.686 131.542C153.675 129.13 151.682 127.233 148.863 127.233C146.054 127.233 143.932 129.076 143.954 131.82H145.776C145.786 130.084 146.944 128.916 148.798 128.905C150.546 128.916 151.875 129.945 151.885 131.542C151.875 132.978 150.996 134.028 149.163 135.979L143.868 141.553L143.889 142.968ZM161.854 143.182C165.294 143.182 167.277 140.288 167.277 135.207C167.277 130.17 165.262 127.233 161.854 127.233C158.434 127.233 156.419 130.17 156.43 135.207C156.419 140.288 158.413 143.182 161.854 143.182ZM158.295 135.207C158.306 131.188 159.624 128.916 161.854 128.905C164.083 128.916 165.402 131.188 165.391 135.207C165.402 139.227 164.094 141.467 161.854 141.467C159.603 141.467 158.306 139.227 158.295 135.207ZM174.93 143.182C178.371 143.182 180.354 140.288 180.354 135.207C180.354 130.17 178.339 127.233 174.93 127.233C171.511 127.233 169.496 130.17 169.507 135.207C169.496 140.288 171.49 143.182 174.93 143.182ZM171.372 135.207C171.383 131.188 172.701 128.916 174.93 128.905C177.16 128.916 178.478 131.188 178.468 135.207C178.478 139.227 177.171 141.467 174.93 141.467C172.68 141.467 171.383 139.227 171.372 135.207ZM187.707 143.204C190.29 143.214 192.005 141.617 192.295 139.538H190.451C190.13 140.813 189.079 141.553 187.707 141.553C185.596 141.553 184.245 139.827 184.234 137.137C184.245 134.521 185.628 132.806 187.707 132.806C189.261 132.806 190.183 133.782 190.451 134.843H192.295C192.005 132.646 190.14 131.177 187.664 131.177C184.502 131.177 182.391 133.664 182.391 137.201C182.391 140.695 184.406 143.214 187.707 143.204ZM194.567 142.968H196.411V135.701C196.411 134.007 197.633 132.828 199.026 132.828C200.366 132.828 201.309 133.707 201.298 135.015V142.968H203.163V135.4C203.174 133.921 204.096 132.828 205.715 132.828C206.99 132.828 208.062 133.492 208.073 135.207V142.968H209.916V135.186C209.916 132.442 208.426 131.177 206.358 131.177C204.686 131.177 203.453 131.949 202.863 133.149H202.735C202.188 131.906 201.148 131.177 199.626 131.177C198.104 131.177 196.979 131.906 196.496 133.149H196.346V131.327H194.567V142.968ZM233.39 125.646H231.697V144.747H233.39V125.646ZM218.384 133.771C218.395 137.834 220.41 140.406 223.25 140.395C226.08 140.406 228.127 137.834 228.117 133.771C228.127 129.719 226.08 127.136 223.25 127.126C220.41 127.136 218.395 129.719 218.384 133.771ZM220.013 133.771C220.013 130.673 221.342 128.637 223.25 128.626C225.169 128.637 226.487 130.673 226.487 133.771C226.487 136.869 225.169 138.905 223.25 138.895C221.342 138.905 220.013 136.869 220.013 133.771ZM243.016 128.733V126.633H241.365V128.605C241.354 131.552 239.435 134.103 236.584 135.165L237.485 136.515C239.714 135.647 241.418 133.9 242.233 131.638C243.069 133.632 244.731 135.207 246.831 135.979L247.753 134.65C244.988 133.707 243.016 131.327 243.016 128.733ZM239.114 141.188C239.125 143.407 241.515 144.661 245.438 144.661C249.35 144.661 251.719 143.407 251.719 141.188C251.719 139.013 249.35 137.737 245.438 137.737C241.515 137.737 239.125 139.013 239.114 141.188ZM240.807 141.188C240.786 139.892 242.565 139.088 245.438 139.088C248.321 139.088 250.079 139.892 250.09 141.188C250.079 142.539 248.321 143.321 245.438 143.332C242.565 143.321 240.786 142.539 240.807 141.188ZM249.875 137.244H251.548V132.035H254.42V130.62H251.548V125.646H249.875V137.244Z" fill="#949494"/>
<path d="M491.808 203.124H488.329L483.944 205.917V209.176L488.011 206.628H488.109V220.862H491.808V203.124ZM502.809 221.107C507.243 221.107 509.938 217.824 509.938 211.993C509.938 206.199 507.231 202.879 502.809 202.879C498.386 202.879 495.679 206.199 495.679 211.993C495.679 217.8 498.362 221.107 502.809 221.107ZM499.452 211.993C499.452 207.939 500.763 205.905 502.809 205.893C504.854 205.905 506.177 207.939 506.165 211.993C506.177 216.085 504.867 218.069 502.809 218.069C500.751 218.069 499.428 216.085 499.452 211.993ZM515.72 219.049H512.241L511.016 226.032H513.613L515.72 219.049ZM525.103 221.107C529.538 221.107 532.233 217.824 532.233 211.993C532.233 206.199 529.526 202.879 525.103 202.879C520.681 202.879 517.974 206.199 517.974 211.993C517.974 217.8 520.657 221.107 525.103 221.107ZM521.747 211.993C521.747 207.939 523.058 205.905 525.103 205.893C527.149 205.905 528.472 207.939 528.46 211.993C528.472 216.085 527.161 218.069 525.103 218.069C523.045 218.069 521.722 216.085 521.747 211.993ZM541.665 221.107C546.1 221.107 548.795 217.824 548.795 211.993C548.795 206.199 546.087 202.879 541.665 202.879C537.243 202.879 534.536 206.199 534.536 211.993C534.536 217.8 537.219 221.107 541.665 221.107ZM538.309 211.993C538.309 207.939 539.62 205.905 541.665 205.893C543.711 205.905 545.034 207.939 545.022 211.993C545.034 216.085 543.723 218.069 541.665 218.069C539.607 218.069 538.284 216.085 538.309 211.993ZM558.227 221.107C562.662 221.107 565.357 217.824 565.357 211.993C565.357 206.199 562.649 202.879 558.227 202.879C553.805 202.879 551.098 206.199 551.098 211.993C551.098 217.8 553.78 221.107 558.227 221.107ZM554.871 211.993C554.871 207.939 556.181 205.905 558.227 205.893C560.273 205.905 561.596 207.939 561.584 211.993C561.596 216.085 560.285 218.069 558.227 218.069C556.169 218.069 554.846 216.085 554.871 211.993ZM586.059 200.846H582.923V213.782H578.66V215.913H582.923V217.677H586.059V200.846ZM567.096 210.719L567.464 213.194C569.154 213.194 571.053 213.182 573.05 213.108V216.06H569.938V222.724H586.549V220.225H573.05V217.163H576.186V212.924C577.986 212.79 579.812 212.581 581.575 212.287L581.404 210.058C576.688 210.634 571.175 210.695 567.096 210.719ZM568.738 205.599C568.738 207.988 571.028 209.531 574.348 209.519C577.582 209.531 579.897 207.988 579.909 205.599C579.897 203.222 577.582 201.593 574.348 201.605C571.028 201.593 568.738 203.222 568.738 205.599ZM571.702 205.599C571.69 204.496 572.756 203.884 574.348 203.884C575.843 203.884 576.921 204.496 576.945 205.599C576.921 206.677 575.843 207.277 574.348 207.265C572.756 207.277 571.69 206.677 571.702 205.599Z" fill="#111111"/>
<rect x="49.8357" y="462.956" width="586.962" height="415.421" rx="35.1351" fill="white"/>
<path d="M103.783 529.001H80.9063V531.784H90.5531V533.383H83.5523V536.029H97.5264V537.325H83.5798V543.967H101.661V541.321H87.0251V539.805H100.999V533.383H94.0811V531.784H103.783V529.001ZM83.7452 527.678H100.889V519.767H83.7452V527.678ZM87.1905 524.977V522.496H97.3885V524.977H87.1905ZM128.176 530.792H105.299V533.576H114.973V535.726H107.945V543.857H125.447V535.726H118.474V533.576H128.176V530.792ZM107.311 522.551H110.563V526.382H107.476V529.194H125.971V526.382H122.856V522.551H126.136V519.74H107.311V522.551ZM111.418 541.045V538.455H122.002V541.045H111.418ZM114.091 526.382V522.551H119.328V526.382H114.091ZM140.22 521.283H136.913V538.179H146.89V521.283H143.638V526.934H140.22V521.283ZM140.22 535.368V529.69H143.638V535.368H140.22ZM148.985 542.975H152.32V531.481H154.58V544.132H157.943V519.051H154.58V528.615H152.32V519.409H148.985V542.975ZM183.41 529.745H160.644V532.308H170.263V533.879H163.235V536.387H177.209V537.628H163.262V543.967H181.343V541.376H166.708V539.998H180.682V533.879H173.764V532.308H183.41V529.745ZM161.526 526.465L162.491 529.056C167.19 528.822 170.415 527.65 172 525.762C173.585 527.65 176.823 528.822 181.481 529.056L182.501 526.465C177.443 526.244 174.88 525.046 174.163 523.598H181.261V521.008H173.736V519.023H170.263V521.008H162.794V523.598H169.822C169.092 525.046 166.542 526.244 161.526 526.465ZM199.672 520.098C195.855 520.071 193.071 522.262 193.085 525.418C193.071 528.546 195.855 530.765 199.672 530.737C203.503 530.765 206.287 528.546 206.287 525.418C206.287 522.262 203.503 520.071 199.672 520.098ZM191.541 532.281L191.982 535.147C193.788 535.12 195.869 535.106 198.074 535.009V543.388H201.574V534.803C203.669 534.637 205.791 534.375 207.858 533.962L207.638 531.371C202.291 532.184 195.993 532.267 191.541 532.281ZM196.475 525.418C196.461 523.819 197.798 522.896 199.672 522.909C201.602 522.896 202.952 523.819 202.952 525.418C202.952 526.989 201.602 527.898 199.672 527.871C197.798 527.898 196.461 526.989 196.475 525.418ZM209.154 544.132H212.627V519.078H209.154V544.132ZM236.854 519.051H233.326V544.132H236.854V519.051ZM216.017 536.746L217.891 539.447C220.813 538.22 222.866 535.657 223.982 532.611C225.126 535.492 227.166 537.89 230.018 539.061L231.92 536.36C227.744 534.637 225.691 530.544 225.691 526.906V525.941H230.9V523.13H225.664V519.602H222.163V523.13H216.844V525.941H222.191V526.906C222.177 530.723 220.137 534.94 216.017 536.746Z" fill="#333333"/>
<rect x="80.1621" y="578.588" width="525.276" height="225.79" rx="15.6799" fill="#F4F5F8"/>
<path d="M117.304 613.742V612.541H114.878V613.742C114.866 616.694 111.314 619.389 107.014 619.965L107.945 621.876C111.51 621.3 114.658 619.438 116.091 616.853C117.524 619.438 120.673 621.3 124.262 621.876L125.168 619.965C120.856 619.389 117.292 616.657 117.304 613.742ZM106.058 625.943H114.878V633.758H117.157V625.943H126.075V624.032H106.058V625.943ZM146.018 611.806H143.715V620.504H138.79V622.415H143.715V633.758H146.018V611.806ZM127.692 627.854L128.917 629.691C136.365 626.004 138.839 620.516 138.864 614.158H128.672V616.02H136.499C136.095 621.055 133.51 625.012 127.692 627.854ZM163.07 618.862V617.417H167.896V615.555H163.119V612.247H160.767V615.555H155.94V617.417H160.791V618.862C160.779 622.476 158.623 626.225 155.279 627.756L156.577 629.544C159.088 628.381 160.999 625.955 161.967 623.052C162.898 625.735 164.699 628.025 167.088 629.152L168.41 627.388C165.14 625.82 163.07 622.243 163.07 618.862ZM170.321 633.758H172.649V622.611H176.177V620.651H172.649V611.806H170.321V633.758ZM197.688 615.089H194.478V611.831H192.151V625.085H194.478V621.655H197.688V619.72H194.478V617.025H197.688V615.089ZM178.112 615.04H185.83V617.515H178.137V623.885H179.901C184.115 623.909 187.018 623.775 190.411 623.174L190.166 621.288C186.969 621.827 184.274 621.974 180.464 621.974V619.303H188.108V613.154H178.112V615.04ZM179.999 629.691C179.999 632.239 182.804 633.709 187.373 633.709C191.881 633.709 194.674 632.239 194.674 629.691C194.674 627.143 191.881 625.624 187.373 625.624C182.804 625.624 179.999 627.143 179.999 629.691ZM182.277 629.691C182.265 628.27 184.152 627.45 187.373 627.462C190.546 627.45 192.408 628.27 192.396 629.691C192.408 631.125 190.546 631.945 187.373 631.921C184.152 631.945 182.265 631.125 182.277 629.691ZM217.092 611.806H214.764V633.807H217.092V611.806ZM199.672 621.141C199.672 625.882 202.037 628.871 205.356 628.858C208.615 628.871 211.016 625.882 211.016 621.141C211.016 616.449 208.615 613.46 205.356 613.448C202.037 613.46 199.672 616.449 199.672 621.141ZM201.926 621.141C201.914 617.699 203.31 615.543 205.356 615.53C207.365 615.543 208.762 617.699 208.762 621.141C208.762 624.632 207.365 626.776 205.356 626.776C203.31 626.776 201.914 624.632 201.926 621.141ZM234.854 616.388V615.432H239.68V613.546H227.578V615.432H232.502V616.388C232.49 619.389 230.383 622.231 226.965 623.395L228.166 625.232C230.775 624.314 232.735 622.427 233.715 620.038C234.719 622.231 236.618 623.958 239.141 624.791L240.342 622.978C236.949 621.9 234.854 619.23 234.854 616.388ZM230.567 633.293H245.585V631.406H232.919V626.335H230.567V633.293ZM242.596 627.854H244.923V611.831H242.596V627.854ZM266.606 611.806H264.278V623.591H266.606V611.806ZM248.843 617.907C248.856 620.908 251.33 623.003 254.699 622.978C258.055 623.003 260.53 620.908 260.53 617.907C260.53 614.893 258.055 612.799 254.699 612.811C251.33 612.799 248.856 614.893 248.843 617.907ZM251.122 617.907C251.11 616.033 252.616 614.759 254.699 614.771C256.757 614.759 258.251 616.033 258.251 617.907C258.251 619.806 256.757 621.067 254.699 621.067C252.616 621.067 251.11 619.806 251.122 617.907ZM252.249 633.489H266.606V624.644H264.303V627.119H254.527V624.644H252.249V633.489ZM254.527 631.578V628.956H264.303V631.578H254.527ZM293.311 611.806H290.983V633.734H293.311V622.488H296.716V620.553H293.311V611.806ZM276.234 627.878L277.533 629.691C284.76 626.127 287.553 620.455 287.578 614.109H277.337V616.045H285.201C284.723 621.165 281.734 625.134 276.234 627.878ZM315.63 617.735H302.866V612.198H300.563V619.622H315.63V617.735ZM297.892 623.86H317.933V621.949H297.892V623.86ZM300.269 629.642C300.269 632.215 303.123 633.66 307.888 633.66C312.616 633.66 315.446 632.215 315.458 629.642C315.446 627.082 312.616 625.637 307.888 625.649C303.123 625.637 300.269 627.082 300.269 629.642ZM302.621 629.642C302.608 628.221 304.532 627.474 307.888 627.462C311.195 627.474 313.131 628.221 313.131 629.642C313.131 631.051 311.195 631.86 307.888 631.872C304.532 631.86 302.608 631.051 302.621 629.642ZM336.822 611.831H334.495V628.246H336.822V620.822H340.007V618.887H336.822V611.831ZM319.599 616.265H332.682V614.379H327.316V611.806H324.989V614.379H319.599V616.265ZM320.799 621.459C320.787 623.946 322.955 625.563 326.14 625.575C329.289 625.563 331.457 623.946 331.457 621.459C331.457 618.948 329.289 617.307 326.14 617.319C322.955 617.307 320.787 618.948 320.799 621.459ZM322.906 633.293H337.753V631.406H325.234V626.947H322.906V633.293ZM323.053 621.459C323.029 620.014 324.278 619.12 326.14 619.107C328.002 619.12 329.252 620.014 329.276 621.459C329.252 622.893 328.002 623.775 326.14 623.762C324.278 623.775 323.029 622.893 323.053 621.459ZM354.536 613.203C351.081 613.203 348.545 615.334 348.558 618.421C348.545 621.141 350.518 623.125 353.36 623.554V627.119C351.24 627.18 349.231 627.192 347.504 627.192L347.798 629.103C351.718 629.091 357.047 629.067 362.008 628.148L361.837 626.457C359.864 626.739 357.757 626.923 355.687 627.021V623.554C358.541 623.138 360.501 621.153 360.514 618.421C360.501 615.334 358.002 613.203 354.536 613.203ZM350.861 618.421C350.836 616.461 352.404 615.212 354.536 615.212C356.667 615.212 358.235 616.461 358.235 618.421C358.235 620.345 356.667 621.655 354.536 621.631C352.404 621.655 350.836 620.345 350.861 618.421ZM363.209 633.807H365.536V611.806H363.209V633.807ZM389.129 624.718H369.04V626.555H377.884V633.758H380.163V626.555H389.129V624.718ZM371.539 622.219H386.606V612.688H384.278V615.555H373.842V612.688H371.539V622.219ZM373.842 620.357V617.417H384.278V620.357H373.842ZM409.636 611.806H407.406V633.758H409.636V611.806ZM390.991 621.288C390.991 626.053 392.853 629.042 395.72 629.03C398.439 629.042 400.265 626.384 400.473 622.096H402.947V632.68H405.177V612.223H402.947V620.21H400.461C400.191 616.094 398.39 613.558 395.72 613.57C392.853 613.558 390.991 616.535 390.991 621.288ZM393.147 621.288C393.147 617.784 394.14 615.739 395.72 615.751C397.337 615.739 398.341 617.784 398.341 621.288C398.341 624.779 397.337 626.837 395.72 626.825C394.14 626.837 393.147 624.779 393.147 621.288ZM438.57 620.896H418.554V622.758H427.374V624.669H420.955V626.457H433.744V628.123H420.979V633.538H436.659V631.749H423.258V629.814H436.047V624.669H429.701V622.758H438.57V620.896ZM421.126 619.279H435.998V612.517H421.126V619.279ZM423.405 617.441V614.354H433.67V617.441H423.405ZM460.252 622.317H440.236V624.179H449.081V626.531H442.637V633.489H457.802V626.531H451.383V624.179H460.252V622.317ZM442.074 614.379H445.283V618.568H442.172V620.455H458.268V618.568H455.181V614.379H458.366V612.492H442.074V614.379ZM444.94 631.602V628.368H455.548V631.602H444.94ZM447.586 618.568V614.379H452.853V618.568H447.586ZM471.914 612.174C466.965 612.162 464.062 613.497 464.074 615.947C464.062 618.409 466.965 619.744 471.914 619.744C476.863 619.744 479.742 618.409 479.754 615.947C479.742 613.497 476.863 612.162 471.914 612.174ZM461.918 622.954H481.935V621.092H461.918V622.954ZM464.319 626.384H477.108V628.099H464.344V633.538H480.024V631.749H466.622V629.789H479.411V624.644H464.319V626.384ZM466.5 615.947C466.488 614.648 468.423 613.889 471.914 613.889C475.43 613.889 477.366 614.648 477.353 615.947C477.366 617.307 475.43 618.005 471.914 618.005C468.423 618.005 466.488 617.307 466.5 615.947ZM492.666 613.84H490.461V628.344H499.011V613.84H496.855V619.083H492.666V613.84ZM492.666 626.457V620.92H496.855V626.457H492.666ZM501.461 632.68H503.666V622.317H506.386V633.758H508.615V611.806H506.386V620.406H503.666V612.223H501.461V632.68ZM531.4 621.435H511.433V623.174H520.253V625.012H513.809V626.702H526.598V628.344H513.834V633.538H529.513V631.774H516.112V629.961H528.901V625.012H522.555V623.174H531.4V621.435ZM512.413 618.813L513.074 620.577C516.921 620.296 520.032 619.181 521.404 617.258C522.776 619.181 525.887 620.296 529.709 620.577L530.42 618.813C526.169 618.581 523.205 617.294 522.739 615.432H529.415V613.644H522.555V611.708H520.253V613.644H513.417V615.432H520.057C519.579 617.294 516.614 618.581 512.413 618.813ZM543.944 615.432H539.656V612.443H537.353V615.432H533.041V617.319H543.944V615.432ZM533.752 623.689C533.74 626.69 535.749 628.797 538.505 628.785C541.286 628.797 543.27 626.69 543.282 623.689C543.27 620.737 541.286 618.642 538.505 618.642C535.749 618.642 533.74 620.737 533.752 623.689ZM535.81 623.689C535.798 621.864 536.925 620.59 538.505 620.577C540.085 620.59 541.224 621.864 541.224 623.689C541.224 625.551 540.085 626.8 538.505 626.8C536.925 626.8 535.798 625.551 535.81 623.689ZM544.948 632.729H547.153V622.856H549.677V633.758H551.882V611.806H549.677V620.945H547.153V612.296H544.948V632.729ZM574.789 624.179H554.773V626.065H563.593V633.734H565.871V626.065H574.789V624.179ZM555.9 620.675L556.782 622.513C560.334 621.949 563.433 620.173 564.781 617.674C566.116 620.173 569.228 621.949 572.829 622.513L573.687 620.675C569.534 620.112 566.153 617.674 566.116 614.967H572.903V613.105H556.635V614.967H563.47C563.397 617.674 559.991 620.112 555.9 620.675ZM124.36 649.806H122.032V654.486H117.426V656.397H122.032V659.851H117.426V661.811H122.032V671.807H124.36V649.806ZM105.936 665.315L107.406 667.152C109.905 665.854 111.828 663.196 112.808 660.047C113.764 663.11 115.662 665.633 118.161 666.883L119.582 665.021C116.226 663.465 113.972 659.435 113.972 655.392V651.644H111.62V655.392C111.608 659.459 109.341 663.686 105.936 665.315ZM133.621 651.448C130.338 651.46 127.998 654.449 128.01 659.141C127.998 663.882 130.338 666.871 133.621 666.858C136.904 666.871 139.243 663.882 139.256 659.141C139.243 654.449 136.904 651.46 133.621 651.448ZM130.24 659.141C130.228 655.699 131.624 653.543 133.621 653.53C135.654 653.543 137.026 655.699 137.026 659.141C137.026 662.632 135.654 664.776 133.621 664.776C131.624 664.776 130.228 662.632 130.24 659.141ZM142.514 671.758H144.842V663.624H148.247V661.713H144.842V657.156H148.247V655.172H144.842V649.806H142.514V671.758ZM172.796 649.806H170.468V662.595H172.796V657.279H175.981V655.319H172.796V649.806ZM155.573 653.824H168.655V651.962H163.29V649.61H160.963V651.962H155.573V653.824ZM156.773 658.577C156.761 660.917 158.917 662.448 162.114 662.424C165.275 662.448 167.43 660.917 167.43 658.577C167.43 656.238 165.275 654.719 162.114 654.731C158.917 654.719 156.761 656.238 156.773 658.577ZM158.758 671.489H172.796V663.502H170.468V665.633H161.061V663.502H158.758V671.489ZM159.027 658.577C159.003 657.291 160.252 656.458 162.114 656.47C163.976 656.458 165.226 657.291 165.25 658.577C165.226 659.888 163.976 660.697 162.114 660.709C160.252 660.697 159.003 659.888 159.027 658.577ZM161.061 669.627V667.446H170.468V669.627H161.061ZM195.458 649.806H193.131V671.758H195.458V649.806ZM178.578 666.172H180.415C183.882 666.185 187.41 665.915 191.293 665.119L190.975 663.159C187.459 663.869 184.09 664.151 180.881 664.163V651.938H178.578V666.172ZM216.014 649.806H213.686V671.807H216.014V660.219H219.542V658.308H216.014V649.806ZM199.844 666.344H201.608C205.687 666.356 208.602 666.246 212.045 665.633L211.751 663.673C208.615 664.237 205.858 664.396 202.171 664.408V653.8H210.109V651.913H199.844V666.344ZM223.094 669.847C224.037 669.835 224.821 669.063 224.834 668.108C224.821 667.152 224.037 666.368 223.094 666.368C222.139 666.368 221.342 667.152 221.355 668.108C221.342 669.063 222.139 669.835 223.094 669.847ZM251.93 649.806H249.701V671.758H251.93V649.806ZM233.286 659.288C233.286 664.053 235.148 667.042 238.014 667.03C239.889 667.042 241.334 665.78 242.13 663.6H245.315V670.68H247.52V650.223H245.315V654.976H242.118C241.334 652.808 239.889 651.558 238.014 651.57C235.148 651.558 233.286 654.535 233.286 659.288ZM235.418 659.288C235.405 655.784 236.385 653.739 238.014 653.751C239.631 653.739 240.66 655.784 240.66 659.288C240.66 662.779 239.631 664.837 238.014 664.825C236.385 664.837 235.405 662.779 235.418 659.288ZM242.608 656.862H245.315V661.689H242.608C242.731 660.954 242.792 660.145 242.792 659.288C242.792 658.418 242.731 657.61 242.608 656.862ZM260.53 662.326C260.53 657.977 259.366 654.363 257.173 651.276H254.772C256.475 653.567 257.823 658.21 257.835 662.326C257.823 666.442 256.475 671.097 254.772 673.375H257.173C259.366 670.288 260.53 666.675 260.53 662.326ZM288.117 649.831H285.789V653.726H281.024C281.171 652.991 281.257 652.207 281.257 651.399H271.212V653.31H278.733C278.317 656.85 275.279 659.643 270.085 661.125L271.016 662.938C275.769 661.579 279.064 659.092 280.485 655.564H285.789V658.234H280.252V660.145H285.789V662.816H288.117V649.831ZM273.49 667.348C273.49 670.019 276.381 671.66 280.889 671.66C285.336 671.66 288.251 670.019 288.264 667.348C288.251 664.69 285.336 663.073 280.889 663.061C276.381 663.073 273.49 664.69 273.49 667.348ZM275.793 667.348C275.793 665.78 277.753 664.886 280.889 664.898C283.964 664.886 285.924 665.78 285.936 667.348C285.924 668.892 283.964 669.786 280.889 669.798C277.753 669.786 275.793 668.892 275.793 667.348ZM309.676 649.806H307.349V671.807H309.676V649.806ZM292.723 666.54H303.258V651.644H300.955V657.279H295.05V651.644H292.723V666.54ZM295.05 664.629V659.116H300.955V664.629H295.05ZM331.359 649.806H329.056V661.101H331.359V649.806ZM313.253 659.141L314.429 660.978C317.051 660.084 319.011 658.173 320.003 655.772C320.995 658.002 322.919 659.729 325.479 660.562L326.63 658.749C323.262 657.695 321.155 655.025 321.167 652.085V650.394H318.79V652.085C318.778 655.123 316.683 658.002 313.253 659.141ZM316.953 663.992H329.08V665.878H317.026V671.538H332.118V669.676H319.28V667.642H331.383V662.154H316.953V663.992ZM359.289 649.806H356.961V652.746H351.424C350.395 651.668 348.852 651.031 347.063 651.031C343.707 651.031 341.294 653.151 341.306 656.176C341.294 659.214 343.707 661.285 347.063 661.272C348.839 661.285 350.383 660.66 351.412 659.606H356.961V662.105H359.289V649.806ZM343.535 656.176C343.523 654.253 345.005 652.955 347.063 652.967C349.06 652.955 350.542 654.253 350.542 656.176C350.542 658.1 349.06 659.361 347.063 659.361C345.005 659.361 343.523 658.1 343.535 656.176ZM344.27 671.415H359.73V669.529H356.422V664.972H359.46V663.085H344.491V664.972H347.553V669.529H344.27V671.415ZM349.832 669.529V664.972H354.119V669.529H349.832ZM352.527 654.608H356.961V657.695H352.551C352.686 657.218 352.772 656.715 352.772 656.176C352.772 655.625 352.686 655.098 352.527 654.608ZM366.614 667.985H363.87L362.572 674.747H364.654L366.614 667.985ZM382.71 651.938H380.064L375.655 654.829V657.401L379.893 654.633H379.991V669.676H382.71V651.938ZM406.475 660.831H386.459V662.742H406.475V660.831ZM387.512 657.818L388.247 659.606C392.02 659.251 395.083 657.977 396.455 655.931C397.815 657.977 400.889 659.251 404.687 659.606L405.397 657.818C401.036 657.463 398.011 655.87 397.753 653.751H404.466V651.889H397.606V649.782H395.303V651.889H388.468V653.751H395.156C394.875 655.87 391.861 657.463 387.512 657.818ZM388.835 668.059C388.835 670.435 391.653 671.722 396.455 671.709C401.232 671.722 404.013 670.435 404.025 668.059C404.013 665.682 401.232 664.384 396.455 664.384C391.653 664.384 388.835 665.682 388.835 668.059ZM391.187 668.059C391.175 666.809 393.062 666.123 396.455 666.123C399.799 666.123 401.698 666.809 401.698 668.059C401.698 669.308 399.799 669.97 396.455 669.945C393.062 669.97 391.175 669.308 391.187 668.059ZM434.332 661.297H414.242V663.159H423.307V667.201H425.61V663.159H434.332V661.297ZM416.741 671.293H432.102V669.406H419.044V665.29H416.741V671.293ZM416.888 659.361H431.686V650.492H429.358V653.163H419.191V650.492H416.888V659.361ZM419.191 657.499V654.902H429.358V657.499H419.191ZM454.176 649.806H451.849V671.807H454.176V649.806ZM437.174 653.677H445.087V657.94H437.198V666.54H439.06C442.943 666.528 446.251 666.381 450.134 665.731L449.914 663.82C446.239 664.421 443.139 664.592 439.575 664.604V659.802H447.464V651.791H437.174V653.677ZM460.571 651.84H458.366V666.344H466.916V651.84H464.76V657.083H460.571V651.84ZM460.571 664.457V658.92H464.76V664.457H460.571ZM469.366 670.68H471.571V660.317H474.291V671.758H476.52V649.806H474.291V658.406H471.571V650.223H469.366V670.68ZM499.305 659.435H479.338V661.174H488.158V663.012H481.714V664.702H494.503V666.344H481.739V671.538H497.419V669.774H484.017V667.961H496.806V663.012H490.461V661.174H499.305V659.435ZM480.318 656.813L480.979 658.577C484.826 658.296 487.937 657.181 489.309 655.258C490.681 657.181 493.793 658.296 497.615 658.577L498.325 656.813C494.074 656.581 491.11 655.294 490.644 653.432H497.321V651.644H490.461V649.708H488.158V651.644H481.322V653.432H487.962C487.484 655.294 484.519 656.581 480.318 656.813ZM508.664 653.849V653.261H513.393V651.374H501.51V653.261H506.337V653.873C506.324 656.924 504.254 659.753 500.824 660.88L502.025 662.742C504.658 661.824 506.582 659.925 507.537 657.524C508.505 659.606 510.33 661.26 512.829 662.056L513.932 660.243C510.6 659.19 508.652 656.642 508.664 653.849ZM503.789 667.593C503.789 670.203 506.594 671.722 511.163 671.709C515.683 671.722 518.44 670.203 518.44 667.593C518.44 665.021 515.683 663.514 511.163 663.526C506.594 663.514 503.789 665.021 503.789 667.593ZM506.116 667.593C506.104 666.16 507.99 665.352 511.163 665.364C514.311 665.352 516.173 666.16 516.161 667.593C516.173 669.063 514.311 669.884 511.163 669.872C507.99 669.884 506.104 669.063 506.116 667.593ZM515.916 662.987H518.244V657.156H521.428V655.245H518.244V649.806H515.916V662.987Z" fill="#949494"/>
<g style="mix-blend-mode:multiply">
<rect x="48.8022" width="587.996" height="878.377" rx="33.0683" fill="black" fill-opacity="0.5"/>
</g>
<g filter="url(#filter0_dd_208_7306)">
<rect x="14" y="368.918" width="659.667" height="466.056" rx="23.1869" fill="white"/>
<path d="M74.5231 443.112H48.858V446.235H59.6806V448.028H51.8265V450.997H67.5039V452.45H51.8574V459.902H72.1421V456.934H55.7226V455.233H71.4V448.028H63.6386V446.235H74.5231V443.112ZM52.0429 441.628H71.2763V432.753H52.0429V441.628ZM55.9082 438.597V435.814H67.3493V438.597H55.9082ZM101.889 445.122H76.2238V448.245H87.0774V450.657H79.1923V459.779H98.8277V450.657H91.0045V448.245H101.889V445.122ZM78.4811 435.876H82.1299V440.174H78.6667V443.328H99.4153V440.174H95.9211V435.876H99.6008V432.722H78.4811V435.876ZM83.0885 456.625V453.718H94.9625V456.625H83.0885ZM86.0879 440.174V435.876H91.9631V440.174H86.0879ZM115.402 434.454H111.691V453.409H122.885V434.454H119.236V440.793H115.402V434.454ZM115.402 450.255V443.885H119.236V450.255H115.402ZM125.235 458.789H128.977V445.895H131.512V460.088H135.285V431.949H131.512V442.679H128.977V432.351H125.235V458.789ZM163.856 443.947H138.315V446.822H149.107V448.585H141.222V451.399H156.899V452.79H141.253V459.902H161.537V456.996H145.118V455.45H160.795V448.585H153.034V446.822H163.856V443.947ZM139.304 440.267L140.387 443.174C145.659 442.911 149.277 441.597 151.055 439.479C152.833 441.597 156.466 442.911 161.692 443.174L162.836 440.267C157.162 440.02 154.286 438.675 153.482 437.051H161.445V434.145H153.003V431.918H149.107V434.145H140.727V437.051H148.612C147.793 438.675 144.932 440.02 139.304 440.267ZM182.1 433.124C177.818 433.093 174.695 435.551 174.71 439.092C174.695 442.602 177.818 445.091 182.1 445.06C186.399 445.091 189.522 442.602 189.522 439.092C189.522 435.551 186.399 433.093 182.1 433.124ZM172.978 446.792L173.473 450.007C175.499 449.977 177.833 449.961 180.307 449.853V459.253H184.234V449.621C186.584 449.435 188.965 449.142 191.284 448.678L191.037 445.771C185.038 446.683 177.972 446.776 172.978 446.792ZM178.513 439.092C178.498 437.299 179.998 436.263 182.1 436.278C184.265 436.263 185.78 437.299 185.78 439.092C185.78 440.855 184.265 441.875 182.1 441.844C179.998 441.875 178.498 440.855 178.513 439.092ZM192.738 460.088H196.634V431.98H192.738V460.088ZM223.814 431.949H219.856V460.088H223.814V431.949ZM200.437 451.801L202.54 454.831C205.817 453.455 208.121 450.579 209.373 447.163C210.657 450.394 212.945 453.084 216.145 454.398L218.279 451.368C213.594 449.435 211.291 444.843 211.291 440.762V439.68H217.135V436.525H211.26V432.567H207.333V436.525H201.365V439.68H207.364V440.762C207.348 445.044 205.06 449.776 200.437 451.801Z" fill="#333333"/>
<rect x="48.0231" y="498.644" width="589.303" height="253.312" rx="17.5911" fill="#F4F5F8"/>
<path d="M89.6921 537.67V536.323H86.9709V537.67C86.9572 540.982 82.9717 544.006 78.1479 544.652L79.1924 546.796C83.1916 546.15 86.7236 544.061 88.3315 541.161C89.9394 544.061 93.4714 546.15 97.4981 546.796L98.5151 544.652C93.6775 544.006 89.6783 540.941 89.6921 537.67ZM77.0759 551.358H86.9709V560.126H89.5271V551.358H99.5321V549.214H77.0759V551.358ZM121.906 535.499H119.322V545.256H113.797V547.4H119.322V560.126H121.906V535.499ZM101.346 553.502L102.72 555.564C111.076 551.427 113.852 545.27 113.88 538.137H102.446V540.226H111.227C110.774 545.875 107.874 550.314 101.346 553.502ZM141.036 543.415V541.793H146.451V539.704H141.091V535.994H138.452V539.704H133.038V541.793H138.48V543.415C138.466 547.469 136.047 551.674 132.296 553.392L133.752 555.399C136.57 554.093 138.714 551.372 139.799 548.115C140.844 551.125 142.864 553.695 145.544 554.959L147.028 552.98C143.359 551.221 141.036 547.208 141.036 543.415ZM149.172 560.126H151.783V547.62H155.741V545.421H151.783V535.499H149.172V560.126ZM179.874 539.182H176.273V535.526H173.662V550.396H176.273V546.548H179.874V544.377H176.273V541.353H179.874V539.182ZM157.913 539.127H166.571V541.903H157.94V549.049H159.919C164.647 549.077 167.904 548.926 171.711 548.252L171.436 546.136C167.849 546.741 164.825 546.906 160.551 546.906V543.91H169.127V537.011H157.913V539.127ZM160.029 555.564C160.029 558.422 163.176 560.071 168.302 560.071C173.36 560.071 176.493 558.422 176.493 555.564C176.493 552.705 173.36 551.001 168.302 551.001C163.176 551.001 160.029 552.705 160.029 555.564ZM162.585 555.564C162.572 553.969 164.688 553.049 168.302 553.062C171.862 553.049 173.951 553.969 173.937 555.564C173.951 557.172 171.862 558.092 168.302 558.065C164.688 558.092 162.572 557.172 162.585 555.564ZM201.643 535.499H199.032V560.181H201.643V535.499ZM182.1 545.971C182.1 551.29 184.753 554.643 188.477 554.629C192.133 554.643 194.826 551.29 194.826 545.971C194.826 540.707 192.133 537.354 188.477 537.34C184.753 537.354 182.1 540.707 182.1 545.971ZM184.629 545.971C184.615 542.109 186.182 539.69 188.477 539.677C190.731 539.69 192.298 542.109 192.298 545.971C192.298 549.888 190.731 552.293 188.477 552.293C186.182 552.293 184.615 549.888 184.629 545.971ZM221.57 540.639V539.567H226.985V537.45H213.407V539.567H218.932V540.639C218.918 544.006 216.554 547.194 212.72 548.5L214.067 550.561C216.994 549.53 219.193 547.414 220.292 544.734C221.419 547.194 223.549 549.132 226.381 550.066L227.727 548.032C223.921 546.823 221.57 543.827 221.57 540.639ZM216.76 559.604H233.609V557.488H219.399V551.798H216.76V559.604ZM230.256 553.502H232.867V535.526H230.256V553.502ZM257.192 535.499H254.581V548.72H257.192V535.499ZM237.265 542.343C237.279 545.71 240.055 548.06 243.834 548.032C247.6 548.06 250.376 545.71 250.376 542.343C250.376 538.962 247.6 536.612 243.834 536.626C240.055 536.612 237.279 538.962 237.265 542.343ZM239.821 542.343C239.808 540.24 241.498 538.811 243.834 538.825C246.143 538.811 247.82 540.24 247.82 542.343C247.82 544.473 246.143 545.889 243.834 545.889C241.498 545.889 239.808 544.473 239.821 542.343ZM241.086 559.824H257.192V549.902H254.609V552.678H243.642V549.902H241.086V559.824ZM243.642 557.68V554.739H254.609V557.68H243.642ZM287.152 535.499H284.541V560.099H287.152V547.483H290.973V545.311H287.152V535.499ZM267.995 553.53L269.451 555.564C277.56 551.564 280.693 545.201 280.721 538.082H269.231V540.254H278.054C277.518 545.998 274.165 550.451 267.995 553.53ZM312.192 542.15H297.872V535.939H295.288V544.267H312.192V542.15ZM292.292 549.022H314.776V546.878H292.292V549.022ZM294.958 555.509C294.958 558.395 298.161 560.016 303.507 560.016C308.811 560.016 311.986 558.395 312 555.509C311.986 552.636 308.811 551.015 303.507 551.028C298.161 551.015 294.958 552.636 294.958 555.509ZM297.597 555.509C297.583 553.914 299.741 553.076 303.507 553.062C307.217 553.076 309.389 553.914 309.389 555.509C309.389 557.089 307.217 557.996 303.507 558.01C299.741 557.996 297.583 557.089 297.597 555.509ZM335.968 535.526H333.357V553.942H335.968V545.614H339.541V543.442H335.968V535.526ZM316.645 540.501H331.323V538.385H325.303V535.499H322.692V538.385H316.645V540.501ZM317.992 546.328C317.978 549.118 320.411 550.932 323.984 550.946C327.516 550.932 329.948 549.118 329.948 546.328C329.948 543.511 327.516 541.669 323.984 541.683C320.411 541.669 317.978 543.511 317.992 546.328ZM320.356 559.604H337.012V557.488H322.967V552.485H320.356V559.604ZM320.521 546.328C320.493 544.707 321.895 543.703 323.984 543.69C326.073 543.703 327.475 544.707 327.502 546.328C327.475 547.936 326.073 548.926 323.984 548.912C321.895 548.926 320.493 547.936 320.521 546.328ZM355.84 537.066C351.965 537.066 349.12 539.457 349.134 542.92C349.12 545.971 351.332 548.197 354.521 548.678V552.678C352.143 552.746 349.889 552.76 347.952 552.76L348.282 554.904C352.679 554.89 358.658 554.863 364.223 553.832L364.031 551.935C361.818 552.252 359.455 552.458 357.132 552.568V548.678C360.334 548.211 362.533 545.985 362.547 542.92C362.533 539.457 359.73 537.066 355.84 537.066ZM351.717 542.92C351.69 540.721 353.449 539.319 355.84 539.319C358.232 539.319 359.991 540.721 359.991 542.92C359.991 545.078 358.232 546.548 355.84 546.521C353.449 546.548 351.69 545.078 351.717 542.92ZM365.57 560.181H368.181V535.499H365.57V560.181ZM394.651 549.984H372.112V552.045H382.034V560.126H384.591V552.045H394.651V549.984ZM374.916 547.18H391.82V536.488H389.208V539.704H377.499V536.488H374.916V547.18ZM377.499 545.091V541.793H389.208V545.091H377.499ZM417.656 535.499H415.155V560.126H417.656V535.499ZM396.74 546.136C396.74 551.482 398.828 554.835 402.044 554.822C405.095 554.835 407.143 551.853 407.377 547.043H410.153V558.917H412.654V535.966H410.153V544.927H407.363C407.061 540.309 405.04 537.464 402.044 537.478C398.828 537.464 396.74 540.804 396.74 546.136ZM399.158 546.136C399.158 542.205 400.272 539.91 402.044 539.924C403.858 539.91 404.985 542.205 404.985 546.136C404.985 550.053 403.858 552.362 402.044 552.348C400.272 552.362 399.158 550.053 399.158 546.136ZM450.118 545.696H427.661V547.785H437.556V549.929H430.355V551.935H444.703V553.805H430.383V559.879H447.974V557.872H432.939V555.701H447.287V549.929H440.168V547.785H450.118V545.696ZM430.547 543.882H447.232V536.296H430.547V543.882ZM433.104 541.821V538.357H444.62V541.821H433.104ZM474.443 547.29H451.987V549.379H461.909V552.018H454.68V559.824H471.694V552.018H464.493V549.379H474.443V547.29ZM454.048 538.385H457.649V543.085H454.158V545.201H472.216V543.085H468.753V538.385H472.326V536.268H454.048V538.385ZM457.264 557.708V554.079H469.165V557.708H457.264ZM460.232 543.085V538.385H466.142V543.085H460.232ZM487.526 535.911C481.974 535.897 478.717 537.395 478.731 540.144C478.717 542.906 481.974 544.404 487.526 544.404C493.078 544.404 496.308 542.906 496.322 540.144C496.308 537.395 493.078 535.897 487.526 535.911ZM476.312 548.005H498.768V545.916H476.312V548.005ZM479.006 551.853H493.353V553.777H479.033V559.879H496.624V557.872H481.589V555.674H495.937V549.902H479.006V551.853ZM481.452 540.144C481.438 538.687 483.609 537.835 487.526 537.835C491.47 537.835 493.642 538.687 493.628 540.144C493.642 541.669 491.47 542.453 487.526 542.453C483.609 542.453 481.438 541.669 481.452 540.144ZM510.807 537.78H508.333V554.052H517.926V537.78H515.507V543.662H510.807V537.78ZM510.807 551.935V545.724H515.507V551.935H510.807ZM520.674 558.917H523.148V547.29H526.199V560.126H528.7V535.499H526.199V545.146H523.148V535.966H520.674V558.917ZM554.263 546.301H531.861V548.252H541.756V550.314H534.528V552.21H548.875V554.052H534.555V559.879H552.146V557.9H537.111V555.866H551.459V550.314H544.34V548.252H554.263V546.301ZM532.961 543.36L533.703 545.339C538.018 545.023 541.509 543.772 543.048 541.614C544.587 543.772 548.078 545.023 552.366 545.339L553.163 543.36C548.394 543.099 545.068 541.656 544.546 539.567H552.036V537.56H544.34V535.389H541.756V537.56H534.088V539.567H541.536C541 541.656 537.675 543.099 532.961 543.36ZM568.335 539.567H563.525V536.213H560.942V539.567H556.104V541.683H568.335V539.567ZM556.901 548.83C556.887 552.197 559.141 554.56 562.234 554.547C565.353 554.56 567.58 552.197 567.593 548.83C567.58 545.517 565.353 543.167 562.234 543.167C559.141 543.167 556.887 545.517 556.901 548.83ZM559.21 548.83C559.196 546.782 560.461 545.353 562.234 545.339C564.006 545.353 565.284 546.782 565.284 548.83C565.284 550.919 564.006 552.32 562.234 552.32C560.461 552.32 559.196 550.919 559.21 548.83ZM569.462 558.972H571.936V547.895H574.767V560.126H577.241V535.499H574.767V545.751H571.936V536.049H569.462V558.972ZM602.94 549.379H580.484V551.496H590.379V560.099H592.936V551.496H602.94V549.379ZM581.749 545.449L582.738 547.51C586.724 546.878 590.201 544.885 591.712 542.082C593.21 544.885 596.701 546.878 600.742 547.51L601.704 545.449C597.045 544.817 593.252 542.082 593.21 539.045H600.824V536.956H582.573V539.045H590.242C590.159 542.082 586.339 544.817 581.749 545.449ZM97.6081 578.499H94.9969V583.749H89.8295V585.893H94.9969V589.768H89.8295V591.967H94.9969V603.181H97.6081V578.499ZM76.9385 595.898L78.5877 597.959C81.3912 596.502 83.5489 593.52 84.6484 589.988C85.7203 593.424 87.8505 596.255 90.6541 597.657L92.2483 595.568C88.4827 593.822 85.9539 589.301 85.9539 584.766V580.56H83.3153V584.766C83.3015 589.328 80.7591 594.07 76.9385 595.898ZM107.998 580.34C104.315 580.354 101.69 583.707 101.703 588.971C101.69 594.29 104.315 597.643 107.998 597.629C111.681 597.643 114.306 594.29 114.32 588.971C114.306 583.707 111.681 580.354 107.998 580.34ZM104.205 588.971C104.191 585.109 105.758 582.69 107.998 582.677C110.279 582.69 111.818 585.109 111.818 588.971C111.818 592.888 110.279 595.293 107.998 595.293C105.758 595.293 104.191 592.888 104.205 588.971ZM117.975 603.126H120.586V594.001H124.407V591.857H120.586V586.745H124.407V584.518H120.586V578.499H117.975V603.126ZM151.948 578.499H149.337V592.847H151.948V586.882H155.521V584.683H151.948V578.499ZM132.625 583.007H147.303V580.918H141.284V578.279H138.672V580.918H132.625V583.007ZM133.972 588.339C133.958 590.964 136.377 592.682 139.964 592.654C143.51 592.682 145.929 590.964 145.929 588.339C145.929 585.714 143.51 584.01 139.964 584.024C136.377 584.01 133.958 585.714 133.972 588.339ZM136.199 602.824H151.948V593.864H149.337V596.255H138.782V593.864H136.199V602.824ZM136.501 588.339C136.473 586.896 137.875 585.961 139.964 585.975C142.053 585.961 143.455 586.896 143.482 588.339C143.455 589.809 142.053 590.716 139.964 590.73C137.875 590.716 136.473 589.809 136.501 588.339ZM138.782 600.735V598.289H149.337V600.735H138.782ZM177.373 578.499H174.762V603.126H177.373V578.499ZM158.435 596.86H160.496C164.386 596.873 168.344 596.571 172.7 595.678L172.343 593.479C168.399 594.276 164.619 594.592 161.019 594.606V580.89H158.435V596.86ZM200.434 578.499H197.822V603.181H200.434V590.18H204.392V588.036H200.434V578.499ZM182.293 597.052H184.272C188.848 597.066 192.119 596.942 195.981 596.255L195.651 594.056C192.133 594.688 189.041 594.867 184.904 594.881V582.979H193.809V580.863H182.293V597.052ZM208.377 600.982C209.435 600.969 210.315 600.103 210.329 599.031C210.315 597.959 209.435 597.079 208.377 597.079C207.305 597.079 206.412 597.959 206.426 599.031C206.412 600.103 207.305 600.969 208.377 600.982ZM240.728 578.499H238.227V603.126H240.728V578.499ZM219.811 589.136C219.811 594.482 221.9 597.835 225.116 597.822C227.219 597.835 228.841 596.42 229.734 593.973H233.307V601.917H235.781V578.966H233.307V584.298H229.72C228.841 581.866 227.219 580.464 225.116 580.478C221.9 580.464 219.811 583.804 219.811 589.136ZM222.203 589.136C222.189 585.205 223.288 582.91 225.116 582.924C226.93 582.91 228.085 585.205 228.085 589.136C228.085 593.053 226.93 595.362 225.116 595.348C223.288 595.362 222.189 593.053 222.203 589.136ZM230.27 586.415H233.307V591.83H230.27C230.407 591.005 230.476 590.098 230.476 589.136C230.476 588.16 230.407 587.253 230.27 586.415ZM250.376 592.544C250.376 587.665 249.07 583.611 246.61 580.148H243.917C245.827 582.718 247.339 587.927 247.352 592.544C247.339 597.162 245.827 602.384 243.917 604.94H246.61C249.07 601.477 250.376 597.423 250.376 592.544ZM281.325 578.526H278.714V582.897H273.368C273.533 582.072 273.629 581.192 273.629 580.285H262.36V582.429H270.798C270.331 586.401 266.923 589.534 261.096 591.197L262.14 593.231C267.472 591.706 271.169 588.916 272.763 584.958H278.714V587.954H272.502V590.098H278.714V593.094H281.325V578.526ZM264.916 598.179C264.916 601.175 268.159 603.016 273.217 603.016C278.206 603.016 281.476 601.175 281.49 598.179C281.476 595.197 278.206 593.383 273.217 593.369C268.159 593.383 264.916 595.197 264.916 598.179ZM267.5 598.179C267.5 596.42 269.699 595.417 273.217 595.43C276.666 595.417 278.865 596.42 278.879 598.179C278.865 599.91 276.666 600.914 273.217 600.927C269.699 600.914 267.5 599.91 267.5 598.179ZM305.513 578.499H302.902V603.181H305.513V578.499ZM286.493 597.272H298.312V580.56H295.728V586.882H289.104V580.56H286.493V597.272ZM289.104 595.128V588.944H295.728V595.128H289.104ZM329.838 578.499H327.255V591.17H329.838V578.499ZM309.526 588.971L310.845 591.032C313.786 590.029 315.985 587.885 317.099 585.192C318.212 587.693 320.369 589.631 323.242 590.565L324.534 588.531C320.754 587.349 318.39 584.353 318.404 581.055V579.158H315.738V581.055C315.724 584.463 313.374 587.693 309.526 588.971ZM313.676 594.413H327.282V596.53H313.759V602.879H330.69V600.79H316.288V598.509H329.866V592.352H313.676V594.413ZM361.173 578.499H358.561V581.797H352.349C351.195 580.588 349.463 579.873 347.457 579.873C343.691 579.873 340.984 582.251 340.998 585.645C340.984 589.053 343.691 591.376 347.457 591.362C349.45 591.376 351.181 590.675 352.336 589.493H358.561V592.297H361.173V578.499ZM343.499 585.645C343.485 583.488 345.148 582.031 347.457 582.045C349.697 582.031 351.36 583.488 351.36 585.645C351.36 587.803 349.697 589.218 347.457 589.218C345.148 589.218 343.485 587.803 343.499 585.645ZM344.324 602.742H361.667V600.625H357.957V595.513H361.365V593.396H344.571V595.513H348.007V600.625H344.324V602.742ZM350.563 600.625V595.513H355.373V600.625H350.563ZM353.586 583.886H358.561V587.349H353.614C353.765 586.813 353.861 586.25 353.861 585.645C353.861 585.027 353.765 584.436 353.586 583.886ZM369.391 598.893H366.312L364.856 606.48H367.192L369.391 598.893ZM387.449 580.89H384.481L379.533 584.133V587.019L384.288 583.914H384.398V600.79H387.449V580.89ZM414.111 590.868H391.655V593.011H414.111V590.868ZM392.837 587.487L393.661 589.493C397.894 589.095 401.33 587.665 402.869 585.37C404.394 587.665 407.844 589.095 412.104 589.493L412.901 587.487C408.009 587.088 404.614 585.302 404.326 582.924H411.857V580.835H404.161V578.471H401.577V580.835H393.908V582.924H401.412C401.096 585.302 397.715 587.088 392.837 587.487ZM394.321 598.976C394.321 601.642 397.482 603.085 402.869 603.071C408.229 603.085 411.348 601.642 411.362 598.976C411.348 596.31 408.229 594.853 402.869 594.853C397.482 594.853 394.321 596.31 394.321 598.976ZM396.959 598.976C396.946 597.574 399.062 596.805 402.869 596.805C406.621 596.805 408.751 597.574 408.751 598.976C408.751 600.378 406.621 601.12 402.869 601.092C399.062 601.12 396.946 600.378 396.959 598.976ZM445.363 591.39H422.824V593.479H432.994V598.014H435.577V593.479H445.363V591.39ZM425.627 602.604H442.861V600.488H428.211V595.87H425.627V602.604ZM425.792 589.218H442.394V579.268H439.783V582.264H428.376V579.268H425.792V589.218ZM428.376 587.129V584.216H439.783V587.129H428.376ZM467.626 578.499H465.015V603.181H467.626V578.499ZM448.551 582.842H457.429V587.624H448.578V597.272H450.667C455.024 597.258 458.735 597.093 463.091 596.365L462.844 594.221C458.721 594.894 455.244 595.087 451.245 595.1V589.713H460.095V580.725H448.551V582.842ZM474.8 580.78H472.326V597.052H481.919V580.78H479.5V586.662H474.8V580.78ZM474.8 594.935V588.724H479.5V594.935H474.8ZM484.668 601.917H487.141V590.29H490.192V603.126H492.694V578.499H490.192V588.146H487.141V578.966H484.668V601.917ZM518.256 589.301H495.855V591.252H505.75V593.314H498.521V595.21H512.868V597.052H498.548V602.879H516.139V600.9H501.104V598.866H515.452V593.314H508.333V591.252H518.256V589.301ZM496.954 586.36L497.696 588.339C502.011 588.023 505.502 586.772 507.041 584.614C508.581 586.772 512.071 588.023 516.359 588.339L517.156 586.36C512.387 586.099 509.062 584.656 508.539 582.567H516.029V580.56H508.333V578.389H505.75V580.56H498.081V582.567H505.53C504.994 584.656 501.668 586.099 496.954 586.36ZM528.755 583.034V582.374H534.06V580.258H520.729V582.374H526.144V583.061C526.13 586.484 523.808 589.658 519.96 590.923L521.307 593.011C524.261 591.981 526.419 589.851 527.491 587.157C528.577 589.493 530.624 591.349 533.428 592.242L534.665 590.208C530.927 589.026 528.742 586.167 528.755 583.034ZM523.286 598.454C523.286 601.381 526.433 603.085 531.559 603.071C536.63 603.085 539.722 601.381 539.722 598.454C539.722 595.568 536.63 593.877 531.559 593.891C526.433 593.877 523.286 595.568 523.286 598.454ZM525.897 598.454C525.883 596.846 528 595.939 531.559 595.952C535.091 595.939 537.18 596.846 537.166 598.454C537.18 600.103 535.091 601.024 531.559 601.01C528 601.024 525.883 600.103 525.897 598.454ZM536.891 593.286H539.502V586.745H543.076V584.601H539.502V578.499H536.891V593.286Z" fill="#949494"/>
</g>
<defs>
<filter id="filter0_dd_208_7306" x="0.0878661" y="366.599" width="687.491" height="493.881" filterUnits="userSpaceOnUse" color-interpolation-filters="sRGB">
<feFlood flood-opacity="0" result="BackgroundImageFix"/>
<feColorMatrix in="SourceAlpha" type="matrix" values="0 0 0 0 0 0 0 0 0 0 0 0 0 0 0 0 0 0 127 0" result="hardAlpha"/>
<feMorphology radius="2.31869" operator="erode" in="SourceAlpha" result="effect1_dropShadow_208_7306"/>
<feOffset dy="4.63738"/>
<feGaussianBlur stdDeviation="3.47803"/>
<feComposite in2="hardAlpha" operator="out"/>
<feColorMatrix type="matrix" values="0 0 0 0 0 0 0 0 0 0 0 0 0 0 0 0 0 0 0.05 0"/>
<feBlend mode="normal" in2="BackgroundImageFix" result="effect1_dropShadow_208_7306"/>
<feColorMatrix in="SourceAlpha" type="matrix" values="0 0 0 0 0 0 0 0 0 0 0 0 0 0 0 0 0 0 127 0" result="hardAlpha"/>
<feMorphology radius="3.47803" operator="erode" in="SourceAlpha" result="effect2_dropShadow_208_7306"/>
<feOffset dy="11.5934"/>
<feGaussianBlur stdDeviation="8.69508"/>
<feComposite in2="hardAlpha" operator="out"/>
<feColorMatrix type="matrix" values="0 0 0 0 0 0 0 0 0 0 0 0 0 0 0 0 0 0 0.1 0"/>
<feBlend mode="normal" in2="effect1_dropShadow_208_7306" result="effect2_dropShadow_208_7306"/>
<feBlend mode="normal" in="SourceGraphic" in2="effect2_dropShadow_208_7306" result="shape"/>
</filter>
<clipPath id="clip0_208_7306">
<rect width="37.6317" height="37.6317" fill="white" transform="translate(131.906 294.782)"/>
</clipPath>
<clipPath id="clip1_208_7306">
<rect width="31.3598" height="31.3598" fill="white" transform="translate(219.713 195.999)"/>
</clipPath>
<clipPath id="clip2_208_7306">
<rect width="31.3598" height="31.3598" fill="white" transform="translate(124.066 195.999)"/>
</clipPath>
</defs>
</svg>
