<svg width="712" height="882" viewBox="0 0 712 882" fill="none" xmlns="http://www.w3.org/2000/svg">
<rect x="72" width="568.689" height="882" rx="35.4692" fill="white"/>
<rect width="567.781" height="72.676" transform="translate(72.3848 46.3789)" fill="white"/>
<rect x="72.3848" y="46.3789" width="567.781" height="72.676" fill="white"/>
<rect width="48.4507" height="48.4507" transform="translate(102.667 58.4922)" fill="white"/>
<path d="M133.1 96.3434L119.473 83.7765C118.716 83.1709 118.716 81.9596 119.473 81.354L133.1 68.7871" stroke="#111111" stroke-width="3.78521" stroke-miterlimit="10" stroke-linecap="round" stroke-linejoin="round"/>
<path d="M288.714 70.7487H285.36V79.292H280.862V72.6117H277.535V78.4936H272.559V72.6117H269.178V89.2725H280.862V82.0333H285.36V95.0213H288.714V70.7487ZM272.559 86.5578V81.155H277.535V86.5578H272.559ZM312.135 70.7487H308.755V95.0213H312.135V70.7487ZM293.105 75.5127H301.169V79.4251H293.132V89.3524H295.314C299.732 89.3524 303.338 89.206 307.317 88.5007L307.025 85.7594C303.472 86.3449 300.344 86.5312 296.645 86.5578V82.1132H304.629V72.7714H293.105V75.5127ZM335.742 70.7487H332.309V94.9681H335.742V70.7487ZM315.461 88.1015L317.245 90.8162C325.894 86.7308 328.463 80.6227 328.476 73.2771H316.766V75.9385H325.016C324.471 81.3147 321.716 85.1472 315.461 88.1015ZM356.501 85.5731C351.378 85.5731 348.184 87.303 348.198 90.2573C348.184 93.2514 351.378 94.9947 356.501 94.9947C361.545 94.9947 364.659 93.2514 364.672 90.2573C364.659 87.303 361.545 85.5731 356.501 85.5731ZM345.935 83.6568H357.672V72.2657H354.266V75.3264H349.315V72.2657H345.935V83.6568ZM349.315 80.9687V77.9613H354.266V80.9687H349.315ZM351.604 90.2573C351.578 88.8733 353.321 88.2212 356.501 88.2079C359.642 88.2212 361.319 88.8733 361.319 90.2573C361.319 91.6412 359.642 92.3598 356.501 92.3598C353.321 92.3598 351.578 91.6412 351.604 90.2573ZM361.026 85.0408H364.433V79.2122H367.706V76.3644H364.433V70.7487H361.026V85.0408ZM378.059 74.182V71.8665H374.52V74.182C374.52 77.2693 372.736 80.4231 368.691 81.7139L370.394 84.3754C373.242 83.4572 375.212 81.5676 376.303 79.1855C377.381 81.3946 379.297 83.1245 382.052 84.0028L383.755 81.3413C379.763 80.1437 378.033 77.2027 378.059 74.182ZM372.39 88.9532H385.645V94.9681H389.051V86.2384H372.39V88.9532ZM385.645 85.2005H389.051V70.7487H385.645V85.2005ZM407.682 74.9006V72.2391H404.248V74.874C404.235 78.3472 402.492 81.6607 398.446 82.9915L400.283 85.6529C403.091 84.6416 404.98 82.6588 406.018 80.1171C407.043 82.366 408.813 84.1492 411.381 85.094L413.217 82.4325C409.358 81.1417 407.682 78.0278 407.682 74.9006ZM402.891 94.5423H419.525V91.8275H406.324V86.7707H402.891V94.5423ZM411.088 78.6532H415.639V88.6604H419.019V70.7753H415.639V75.9119H411.088V78.6532ZM432.593 72.3722H423.012V84.5883H424.662C428.321 84.6016 430.69 84.5085 433.525 84.0028L433.179 81.2881C430.93 81.674 428.947 81.7805 426.259 81.8071V79.6646H432.353V77.083H426.259V75.0869H432.593V72.3722ZM426.232 89.2725H439.593V94.9681H442.973V86.5578H426.232V89.2725ZM434.483 85.3602H437.65V79.3985H439.752V85.5465H442.973V70.7753H439.752V76.6838H437.65V71.2011H434.483V85.3602Z" fill="#111111"/>
<path d="M592.929 72.9371L587.497 68.3944C586.378 67.4545 584.78 67.4545 583.662 68.3944L578.23 72.9371L571.998 78.1063C571.359 78.5763 571.04 79.5161 571.04 80.2994V92.5177C571.04 95.1806 573.117 97.217 575.833 97.217H595.486C598.202 97.217 600.279 95.1806 600.279 92.5177V80.2994C600.279 79.3595 599.8 78.5763 599.16 77.9497L592.929 72.9371Z" stroke="#111111" stroke-width="3.02817" stroke-miterlimit="10" stroke-linecap="round" stroke-linejoin="round"/>
<path d="M579.667 96.5905V87.8184C579.667 86.8785 580.466 86.252 581.265 86.252H589.893C590.851 86.252 591.491 87.0352 591.491 87.8184V96.5905" stroke="#111111" stroke-width="3.02817" stroke-miterlimit="10" stroke-linecap="round" stroke-linejoin="round"/>
<path d="M130.629 141.247H126.726V152.744H120.196V143.731H116.328V151.715H108.912V143.731H104.937V165.59H120.196V155.973H126.726V173.362H130.629V141.247ZM108.912 162.432V154.802H116.328V162.432H108.912ZM161.857 141.247H157.954V173.362H161.857V141.247ZM136.875 147.244H147.982V152.957H136.91V165.768H139.714C145.48 165.785 150.271 165.572 155.718 164.632L155.363 161.403C150.36 162.237 146.013 162.503 140.956 162.538V156.08H151.992V144.05H136.875V147.244ZM193.334 141.247H189.359V173.326H193.334V141.247ZM166.754 164.49L168.813 167.648C180.044 162.308 183.752 154.199 183.752 144.653H168.387V147.776H179.742C179.033 155.069 175.165 160.498 166.754 164.49ZM221.439 161.048C214.732 161.048 210.58 163.301 210.58 167.152C210.58 171.055 214.732 173.309 221.439 173.326C228.092 173.309 232.173 171.055 232.191 167.152C232.173 163.301 228.092 161.048 221.439 161.048ZM207.67 158.245H222.965V143.269H219.061V147.599H211.574V143.269H207.67V158.245ZM211.574 155.122V150.686H219.061V155.122H211.574ZM214.519 167.152C214.519 165.164 217.038 164.153 221.439 164.135C225.821 164.153 228.288 165.164 228.288 167.152C228.288 169.139 225.821 170.221 221.439 170.203C217.038 170.221 214.519 169.139 214.519 167.152ZM227.933 160.267H231.872V152.212H236.343V148.912H231.872V141.247H227.933V160.267ZM249.934 145.824V142.773H245.853V145.824C245.871 150.171 243.192 154.43 238.011 156.186L239.998 159.274C243.795 157.978 246.492 155.299 247.929 151.928C249.384 155.069 252.028 157.517 255.719 158.741L257.67 155.619C252.578 154.022 249.917 150.047 249.934 145.824ZM242.802 165.058H260.722V173.326H264.697V161.9H242.802V165.058ZM260.722 160.445H264.697V141.247H260.722V160.445ZM283.966 141.743C276.673 141.761 272.397 143.695 272.397 147.244C272.397 150.828 276.673 152.762 283.966 152.78C291.276 152.762 295.516 150.828 295.534 147.244C295.516 143.695 291.276 141.761 283.966 141.743ZM269.381 157.641H298.622V154.483H269.381V157.641ZM272.823 162.716H291.098V164.845H272.858V173.042H295.854V170.026H276.726V167.648H294.966V159.806H272.823V162.716ZM276.549 147.244C276.531 145.594 279.086 144.653 283.966 144.653C288.916 144.653 291.453 145.594 291.453 147.244C291.453 149.018 288.916 149.834 283.966 149.834C279.086 149.834 276.531 149.018 276.549 147.244ZM115.406 194.924V191.234H111.431V194.889C111.413 199.573 108.787 204.009 103.624 205.748L105.718 208.871C109.479 207.469 112.105 204.701 113.472 201.17C114.838 204.328 117.304 206.83 120.764 208.125L122.929 205.038C117.943 203.335 115.388 199.183 115.406 194.924ZM109.444 220.687H131.303V217.494H113.454V210.503H109.444V220.687ZM120.267 199.573H126.655V213.093H130.594V189.282H126.655V196.344H120.267V199.573ZM148.94 191.482H136.343V207.38H138.472C143.458 207.398 146.545 207.274 150.324 206.564L149.898 203.37C146.776 203.956 144.043 204.115 140.14 204.151V200.78H148.621V197.763H140.14V194.641H148.94V191.482ZM140.601 213.413H158.628V221.326H162.567V210.219H140.601V213.413ZM151.779 208.551H155.47V200.46H158.805V208.8H162.567V189.282H158.805V197.302H155.47V189.885H151.779V208.551ZM182.191 194.357H176.336V190.169H172.432V194.357H166.47V197.515H182.191V194.357ZM167.393 206.67C167.358 211.124 170.321 214.229 174.384 214.229C178.465 214.229 181.375 211.124 181.375 206.67C181.375 202.306 178.465 199.201 174.384 199.218C170.321 199.201 167.358 202.306 167.393 206.67ZM170.871 206.67C170.853 204.151 172.308 202.483 174.384 202.483C176.442 202.483 177.897 204.151 177.897 206.67C177.897 209.261 176.442 210.876 174.384 210.858C172.308 210.876 170.853 209.261 170.871 206.67ZM183.539 219.871H187.23V205.641H190.353V221.326H194.114V189.247H190.353V202.448H187.23V189.921H183.539V219.871ZM227.188 207.132H197.947V210.325H210.544V221.291H214.448V210.325H227.188V207.132ZM199.473 201.88L200.963 204.967C206.375 204.186 210.598 201.685 212.567 198.225C214.519 201.685 218.777 204.186 224.242 204.967L225.662 201.88C219.31 201.081 215.122 197.692 214.856 194.179H224.491V191.056H200.644V194.179H210.278C209.994 197.692 205.772 201.081 199.473 201.88ZM239.359 197.657V192.086H235.562V197.834C235.545 203.299 233.486 208.959 228.82 211.78L231.268 214.726C234.285 212.881 236.343 209.616 237.496 205.765C238.561 209.261 240.442 212.242 243.334 213.981L245.499 210.964C241.151 208.232 239.377 202.838 239.359 197.657ZM242.056 203.548H246.634V219.765H250.36V189.814H246.634V200.283H242.056V203.548ZM253.235 221.326H257.032V189.247H253.235V221.326ZM290.069 214.193H283.327V205.996C285.811 204.523 287.319 202.27 287.301 199.467C287.319 194.357 282.28 190.985 275.343 190.985C268.44 190.985 263.437 194.357 263.455 199.467C263.437 202.306 264.981 204.612 267.536 206.085V214.193H260.758V217.423H290.069V214.193ZM267.323 199.467C267.305 196.131 270.552 194.09 275.343 194.108C280.115 194.09 283.433 196.131 283.433 199.467C283.433 202.749 280.115 204.843 275.343 204.825C270.552 204.843 267.305 202.749 267.323 199.467ZM271.439 214.193V207.522C272.646 207.77 273.959 207.912 275.343 207.912C276.762 207.912 278.093 207.77 279.317 207.504V214.193H271.439Z" fill="black"/>
<rect x="103.423" y="268.882" width="505.704" height="264.965" rx="14.3838" fill="white" stroke="#EBEBEB" stroke-width="1.51408"/>
<path d="M154.766 380.892H150.981V397.098H154.766V380.892ZM132.35 393.756L134.302 396.684C137.466 395.634 139.655 393.519 140.882 390.858C142.094 393.298 144.209 395.235 147.225 396.181L149.147 393.253C144.756 391.923 142.745 388.64 142.73 385.476H148.142V382.459H133.356V385.476H138.886C138.856 388.832 136.801 392.322 132.35 393.756ZM136.254 401.297H150.981V407.803H154.766V398.28H136.254V401.297ZM181.085 380.892H177.329V386.925H173.071V390H177.329V395.619H181.085V380.892ZM158.255 393.135L160.178 396.092C163.357 395.057 165.5 392.898 166.698 390.207C167.866 392.617 169.921 394.554 172.893 395.53L174.756 392.632C170.69 391.287 168.753 388.182 168.591 385.18H173.928V382.105H159.32V385.18H164.717C164.525 388.463 162.499 391.716 158.255 393.135ZM163.135 407.507H181.085V396.654H177.329V399.197H166.861V396.654H163.135V407.507ZM166.861 404.491V402.095H177.329V404.491H166.861ZM214.265 380.892H210.539V390.385H205.541V382.962H201.844V389.498H196.314V382.962H192.559V401.474H205.541V393.431H210.539V407.862H214.265V380.892ZM196.314 398.458V392.455H201.844V398.458H196.314ZM231.682 382.134H218.996V385.003H227.986V386.777H219.085V394.347H221.391C227.38 394.347 230.692 394.229 234.492 393.608L234.137 390.799C230.707 391.316 227.794 391.42 222.811 391.449V389.438H231.682V382.134ZM222.19 398.754H236.384V400.291H222.249V407.625H240.998V404.727H226.064V403.012H240.258V395.885H222.19V398.754ZM236.473 394.939H240.258V380.892H236.473V394.939ZM267.228 380.892H263.679V407.803H267.228V380.892ZM243.57 399.552L245.7 402.214C249.529 399.996 252.028 397.334 253.566 394.259H257.972V406.62H261.491V381.484H257.972V391.272H254.734C255.384 389.054 255.665 386.659 255.665 384.086H245.049V387.132H251.924C251.407 392.41 249.012 396.329 243.57 399.552ZM294.7 401.563H289.229V394.894C291.255 393.638 292.468 391.76 292.482 389.438C292.468 385.077 288.165 382.208 282.339 382.193C276.484 382.208 272.226 385.077 272.226 389.438C272.226 391.804 273.482 393.712 275.567 394.968V401.563H270.067V404.668H294.7V401.563ZM275.952 389.438C275.952 386.733 278.48 385.165 282.339 385.18C286.139 385.165 288.742 386.733 288.756 389.438C288.742 392.07 286.139 393.697 282.339 393.697C278.48 393.697 275.952 392.07 275.952 389.438ZM279.293 401.563V396.344C280.24 396.521 281.26 396.624 282.339 396.624C283.419 396.624 284.454 396.521 285.415 396.329V401.563H279.293Z" fill="black"/>
<path d="M141.473 429.414V429.289H147.352V427.965H133.752V429.289H139.652V429.414C139.641 431.877 136.371 433.968 133.172 434.444L133.814 435.727C136.64 435.241 139.445 433.709 140.562 431.494C141.68 433.709 144.485 435.241 147.352 435.727L147.952 434.444C144.744 433.968 141.463 431.877 141.473 429.414ZM132.179 438.646H139.734V445.208H141.328V438.646H148.946V437.3H132.179V438.646ZM160.104 428.42H151.472V436.949H160.104V428.42ZM153.065 435.644V429.766H158.51V435.644H153.065ZM153.811 444.587H166.272V443.241H155.425V438.77H153.811V444.587ZM164.078 440.054H165.693V426.826H164.078V440.054ZM184.447 426.805H182.895V440.612H184.447V426.805ZM168.881 436.7L169.791 437.963C171.551 437.104 172.845 435.479 173.497 433.647C174.128 435.313 175.339 436.731 177.036 437.507L177.947 436.224C175.608 435.23 174.263 433.015 174.263 430.863V428.109H172.689V430.863C172.7 433.036 171.251 435.582 168.881 436.7ZM172.379 444.815H185.006V443.448H173.994V438.915H172.379V444.815ZM176.353 432.829H179.251V440.095H180.825V427.178H179.251V431.484H176.353V432.829ZM202.394 426.805H200.78V433.761H196.888V435.106H200.78V445.249H202.394V426.805ZM187.987 440.799H189.395C192.955 440.799 195.201 440.675 197.882 440.24L197.695 438.894C195.17 439.35 192.996 439.443 189.622 439.453V435.003H195.77V433.678H189.622V429.848H196.578V428.503H187.987V440.799ZM219.265 438.377C215.477 438.377 213.169 439.619 213.159 441.772C213.169 443.945 215.477 445.187 219.265 445.208C223.043 445.187 225.33 443.945 225.33 441.772C225.33 439.619 223.043 438.377 219.265 438.377ZM211.565 436.452H220.135V427.965H218.52V430.78H213.159V427.965H211.565V436.452ZM213.159 435.127V432.063H218.52V435.127H213.159ZM214.794 441.772C214.773 440.457 216.491 439.681 219.265 439.66C222.049 439.681 223.747 440.457 223.757 441.772C223.747 443.097 222.049 443.883 219.265 443.883C216.491 443.883 214.773 443.097 214.794 441.772ZM223.55 437.88H225.165V432.829H227.939V431.442H225.165V426.805H223.55V437.88ZM245.927 436.224H229.077V437.57H236.819V441.337H238.434V437.57H245.927V436.224ZM231.23 444.815H244.044V443.448H232.865V439.515H231.23V444.815ZM231.271 434.113H243.733V427.716H231.271V434.113ZM232.865 432.808V429H242.118V432.808H232.865ZM267.952 426.805H266.317V436.369H267.952V426.805ZM253.048 434.361L253.255 435.707C256.505 435.717 260.832 435.572 264.516 435.023L264.433 433.823C263.543 433.926 262.612 434.019 261.66 434.092V429.372H263.523V428.068H253.566V429.372H255.408V434.34C254.58 434.351 253.783 434.361 253.048 434.361ZM255.905 438.563H266.338V440.426H255.967V445.001H268.656V443.676H257.561V441.648H267.952V437.259H255.905V438.563ZM256.981 434.309V429.372H260.086V434.185C259.041 434.247 257.996 434.278 256.981 434.309ZM287.908 441.482H283.726V436.472C285.248 435.655 286.169 434.351 286.169 432.705C286.169 429.859 283.374 427.985 279.441 427.965C275.508 427.985 272.714 429.859 272.714 432.705C272.714 434.382 273.666 435.707 275.239 436.524V441.482H271.058V442.848H287.908V441.482ZM274.287 432.705C274.276 430.645 276.419 429.289 279.441 429.31C282.432 429.289 284.596 430.645 284.596 432.705C284.596 434.765 282.432 436.141 279.441 436.141C276.419 436.141 274.276 434.765 274.287 432.705ZM276.833 441.482V437.114C277.62 437.321 278.499 437.425 279.441 437.425C280.404 437.425 281.294 437.311 282.091 437.104V441.482H276.833ZM298.361 437.611H296.829V444.96H303.226V437.611H301.715V439.909H298.361V437.611ZM294.987 431.856C294.977 434.382 296.964 436.1 299.769 436.1C302.263 436.1 304.157 434.671 304.478 432.498H308.318V436.555H309.954V426.805H308.318V431.152H304.468C304.116 429.031 302.243 427.633 299.769 427.633C296.964 427.633 294.977 429.341 294.987 431.856ZM296.54 431.856C296.54 430.18 297.875 429 299.769 429C301.622 429 302.957 430.18 302.957 431.856C302.957 433.543 301.622 434.744 299.769 434.754C297.875 434.744 296.54 433.543 296.54 431.856ZM298.361 443.676V441.151H301.715V443.676H298.361ZM303.474 443.862L304.323 445.104C305.948 444.411 307.076 443.107 307.656 441.606C308.225 443.128 309.333 444.432 311.03 445.104L311.879 443.862C309.633 443.034 308.463 440.995 308.484 439.06V437.487H306.869V439.06C306.859 440.923 305.689 442.941 303.474 443.862ZM328.191 426.805H326.555V445.249H328.191V426.805ZM313.7 434.651C313.711 438.574 315.656 441.058 318.399 441.047C321.132 441.058 323.109 438.574 323.098 434.651C323.109 430.738 321.132 428.244 318.399 428.234C315.656 428.244 313.711 430.738 313.7 434.651ZM315.274 434.651C315.274 431.66 316.557 429.693 318.399 429.683C320.252 429.693 321.525 431.66 321.525 434.651C321.525 437.642 320.252 439.609 318.399 439.598C316.557 439.609 315.274 437.642 315.274 434.651ZM334.359 442.144H332.351L331.213 447.775H332.745L334.359 442.144ZM141.411 462.523V461.468H139.734V462.523C139.734 465.163 136.371 467.357 133.048 467.823L133.711 469.148C136.578 468.671 139.403 467.109 140.583 464.832C141.763 467.088 144.599 468.671 147.456 469.148L148.118 467.823C144.796 467.357 141.422 465.121 141.411 462.523ZM132.179 472.542H139.734V479.208H141.328V472.542H148.946V471.176H132.179V472.542ZM165.734 460.805H164.119V468.216H159.731V469.562H164.119V479.208H165.734V460.805ZM150.519 474.405L151.409 475.71C157.557 472.656 159.762 468.03 159.772 462.813H151.327V464.138H158.137C157.806 468.444 155.498 471.994 150.519 474.405ZM184.013 460.826H182.398V474.323H184.013V460.826ZM169.005 470.39L169.895 471.652C172.048 470.793 173.724 468.982 174.521 466.726C175.339 468.847 176.995 470.503 179.127 471.321L179.976 470.017C177.233 469.023 175.318 466.508 175.339 463.703V461.861H173.683V463.703C173.683 466.612 171.789 469.303 169.005 470.39ZM172.131 478.815H184.592V477.448H173.745V473.081H172.131V478.815ZM201.898 462.668H188.919V464.014H200.262V464.511C200.252 466.715 200.252 469.293 199.558 472.812L201.215 472.998C201.877 469.293 201.877 466.767 201.898 464.511V462.668ZM187.138 476.6H203.906V475.254H195.315V468.671H193.721V475.254H187.138V476.6ZM220.673 460.805H219.038V470.369H220.673V460.805ZM205.769 468.361L205.976 469.707C209.226 469.717 213.552 469.572 217.237 469.023L217.154 467.823C216.264 467.926 215.332 468.019 214.38 468.092V463.372H216.243V462.068H206.286V463.372H208.128V468.34C207.3 468.351 206.503 468.361 205.769 468.361ZM208.625 472.563H219.058V474.426H208.687V479.001H221.377V477.676H210.281V475.648H220.673V471.259H208.625V472.563ZM209.702 468.309V463.372H212.807V468.185C211.761 468.247 210.716 468.278 209.702 468.309ZM240.545 469.562H223.778V470.907H240.545V469.562ZM224.73 467.16L225.31 468.464C228.342 468.082 231.147 466.726 232.162 464.687C233.176 466.726 236.001 468.082 239.013 468.464L239.614 467.16C236.353 466.788 233.29 465.183 233.217 463.103H239.055V461.758H225.31V463.103H231.106C231.033 465.204 227.939 466.788 224.73 467.16ZM225.807 475.855C225.796 477.987 228.187 479.167 232.162 479.167C236.105 479.167 238.475 477.987 238.496 475.855C238.475 473.743 236.105 472.522 232.162 472.522C228.187 472.522 225.796 473.743 225.807 475.855ZM227.463 475.855C227.442 474.561 229.212 473.826 232.162 473.805C235.08 473.826 236.85 474.561 236.861 475.855C236.85 477.138 235.08 477.873 232.162 477.862C229.212 477.873 227.442 477.138 227.463 475.855ZM251.082 471.611H249.55V478.96H255.946V471.611H254.435V473.909H251.082V471.611ZM247.708 465.856C247.697 468.382 249.684 470.1 252.489 470.1C254.984 470.1 256.878 468.671 257.199 466.498H261.039V470.555H262.674V460.805H261.039V465.152H257.188C256.836 463.031 254.963 461.633 252.489 461.633C249.684 461.633 247.697 463.341 247.708 465.856ZM249.26 465.856C249.26 464.18 250.595 463 252.489 463C254.342 463 255.677 464.18 255.677 465.856C255.677 467.543 254.342 468.744 252.489 468.754C250.595 468.744 249.26 467.543 249.26 465.856ZM251.082 477.676V475.151H254.435V477.676H251.082ZM256.195 477.862L257.043 479.104C258.668 478.411 259.797 477.107 260.376 475.606C260.945 477.128 262.053 478.432 263.75 479.104L264.599 477.862C262.353 477.034 261.183 474.995 261.204 473.06V471.487H259.59V473.06C259.579 474.923 258.41 476.941 256.195 477.862ZM280.911 460.805H279.276V479.249H280.911V460.805ZM266.421 468.651C266.431 472.574 268.377 475.058 271.12 475.047C273.852 475.058 275.829 472.574 275.819 468.651C275.829 464.738 273.852 462.244 271.12 462.234C268.377 462.244 266.431 464.738 266.421 468.651ZM267.994 468.651C267.994 465.66 269.277 463.693 271.12 463.683C272.972 463.693 274.245 465.66 274.245 468.651C274.245 471.642 272.972 473.609 271.12 473.598C269.277 473.609 267.994 471.642 267.994 468.651ZM298.92 469.437H287.846V463.641H298.734V462.316H286.21V470.762H291.634V475.523H284.057V476.89H300.907V475.523H293.228V470.762H298.92V469.437ZM322.953 460.805H321.339V467.657H316.93V462.254H315.336V467.057H310.078V462.254H308.442V474.592H316.93V469.003H321.339V479.249H322.953V460.805ZM310.078 473.246V468.361H315.336V473.246H310.078ZM335.394 461.716H326.886V462.979H333.8V465.008H326.949V469.789H328.439C332.062 469.789 334.483 469.686 337.444 469.21L337.299 467.947C334.411 468.382 332.062 468.485 328.563 468.485V466.208H335.394V461.716ZM329.246 472.605H339.555V474.426H329.288V479.001H341.873V477.697H330.902V475.648H341.211V471.321H329.246V472.605ZM339.596 470.514H341.211V460.805H339.596V470.514ZM358.889 462.523V461.468H357.212V462.523C357.212 465.163 353.849 467.357 350.526 467.823L351.189 469.148C354.056 468.671 356.881 467.109 358.061 464.832C359.241 467.088 362.077 468.671 364.934 469.148L365.596 467.823C362.274 467.357 358.9 465.121 358.889 462.523ZM349.657 472.542H357.212V479.208H358.806V472.542H366.424V471.176H349.657V472.542ZM379.527 473.163V472.149H377.954V473.163C377.934 474.923 376.536 476.89 374.207 477.759L375.035 478.96C376.795 478.297 378.058 477.014 378.72 475.534C379.269 477.076 380.407 478.421 382.198 479.104C383.895 478.39 385.023 476.972 385.593 475.482C386.234 477.024 387.518 478.308 389.36 478.96L390.167 477.759C387.808 476.941 386.41 475.058 386.421 473.163V472.149H384.827V473.163C384.837 474.581 383.906 476.424 382.146 477.511C380.397 476.517 379.517 474.788 379.527 473.163ZM373.731 466.208C373.721 468.734 375.76 470.472 378.555 470.472C381.349 470.472 383.367 468.734 383.378 466.208C383.367 463.641 381.349 461.892 378.555 461.902C375.76 461.892 373.721 463.641 373.731 466.208ZM375.325 466.208C375.305 464.49 376.66 463.269 378.555 463.289C380.428 463.269 381.784 464.49 381.784 466.208C381.784 467.916 380.428 469.117 378.555 469.127C376.66 469.117 375.305 467.916 375.325 466.208ZM386.876 471.342H388.491V460.826H386.876V471.342ZM396.564 462.234C393.842 462.244 391.937 464.738 391.948 468.651C391.937 472.574 393.842 475.058 396.564 475.047C399.131 475.058 400.973 472.801 401.149 469.189H405.258V479.249H406.873V460.805H405.258V467.843H401.128C400.88 464.397 399.069 462.244 396.564 462.234ZM393.5 468.651C393.511 465.66 394.753 463.693 396.564 463.683C398.365 463.693 399.628 465.66 399.628 468.651C399.628 471.642 398.365 473.609 396.564 473.598C394.753 473.609 393.511 471.642 393.5 468.651ZM426.786 475.482H422.605V470.472C424.126 469.655 425.048 468.351 425.048 466.705C425.048 463.859 422.253 461.985 418.32 461.965C414.387 461.985 411.592 463.859 411.592 466.705C411.592 468.382 412.545 469.707 414.118 470.524V475.482H409.936V476.848H426.786V475.482ZM413.166 466.705C413.155 464.645 415.298 463.289 418.32 463.31C421.311 463.289 423.474 464.645 423.474 466.705C423.474 468.765 421.311 470.141 418.32 470.141C415.298 470.141 413.155 468.765 413.166 466.705ZM415.712 475.482V471.114C416.498 471.321 417.378 471.425 418.32 471.425C419.282 471.425 420.173 471.311 420.97 471.104V475.482H415.712Z" fill="#595959"/>
<rect x="127.65" y="317.331" width="108.824" height="43.9084" rx="21.9542" fill="white"/>
<path d="M152.783 332.664V332.437H156.716V330.594H146.428V332.437H150.464V332.664C150.444 335.117 148.839 337.55 145.827 338.564L147.007 340.344C149.222 339.599 150.816 338.057 151.655 336.121C152.514 337.902 154.056 339.309 156.178 339.992L157.358 338.212C154.377 337.28 152.783 334.972 152.783 332.664ZM148.498 343.429H158.951V348.127H161.27V341.565H148.498V343.429ZM158.951 340.696H161.27V329.414H158.951V340.696ZM179.673 329.414H177.375V333.72H174.146V335.624H177.375V339.62H179.673V329.414ZM163.961 338.129L165.141 339.951C167.366 339.195 168.919 337.622 169.736 335.666C170.554 337.425 172.034 338.843 174.125 339.558L175.284 337.777C172.407 336.815 170.896 334.496 170.875 332.25H174.746V330.367H164.644V332.25H168.536C168.515 334.714 166.921 337.136 163.961 338.129ZM167.335 347.9H179.673V340.406H177.375V342.352H169.633V340.406H167.335V347.9ZM169.633 346.037V344.153H177.375V346.037H169.633ZM198.013 329.414H195.736V336.121H191.927V330.863H189.671V335.521H185.344V330.863H183.026V343.615H191.927V338.005H195.736V348.148H198.013V329.414ZM185.344 341.772V337.322H189.671V341.772H185.344ZM216.229 329.435H213.911V340.53H216.229V329.435ZM201.594 332.354H207.949V334.196H201.636V339.785H203.23C206.852 339.796 209.388 339.692 212.338 339.226L212.048 337.363C209.378 337.808 207.09 337.902 203.892 337.902V335.956H210.226V330.532H201.594V332.354ZM203.809 347.9H216.229V341.4H203.809V347.9ZM206.086 346.037V343.242H213.973V346.037H206.086Z" fill="#1F41FF"/>
<rect x="127.65" y="317.331" width="108.824" height="43.9084" rx="21.9542" stroke="#1F41FF" stroke-width="1.51408"/>
<rect x="103.423" y="552.8" width="505.704" height="264.965" rx="14.3838" fill="white" stroke="#EBEBEB" stroke-width="1.51408"/>
<path d="M155.505 664.81H151.927V675.19H149.325V665.254H145.865V690.419H149.325V678.206H151.927V691.721H155.505V664.81ZM133.001 685.629H134.864C138.413 685.614 141.281 685.511 144.564 684.889L144.297 681.814C141.695 682.272 139.388 682.42 136.786 682.465V670.961H143.026V667.915H133.001V685.629ZM180.937 664.84H177.152V684.475H180.937V664.84ZM158.314 677.822L160.266 680.809C163.416 679.729 165.56 677.511 166.772 674.761C167.97 677.319 170.055 679.33 173.1 680.335L175.023 677.378C170.602 675.959 168.694 672.484 168.724 668.921V666.318H164.791V668.921C164.791 672.573 162.824 676.314 158.314 677.822ZM162.898 691.247H181.647V688.231H166.713V682.583H162.898V691.247ZM214.265 664.81H210.539V674.303H205.541V666.88H201.844V673.416H196.314V666.88H192.559V685.392H205.541V677.349H210.539V691.78H214.265V664.81ZM196.314 682.376V676.373H201.844V682.376H196.314ZM240.406 664.81H236.651V670.518H232.126V673.593H236.651V677.822H232.037V680.927H236.651V691.78H240.406V664.81ZM218.612 670.044H227.01V674.48H218.671V685.747H220.8C224.94 685.762 228.37 685.673 232.392 685.037L232.096 681.962C228.696 682.479 225.753 682.627 222.426 682.657V677.408H230.707V667.058H218.612V670.044ZM268.44 679.655H243.896V682.672H254.246V691.721H257.972V682.672H268.44V679.655ZM245.108 675.131L246.498 678.088C251.185 677.452 254.542 675.441 256.183 672.676C257.809 675.441 261.195 677.452 265.927 678.088L267.287 675.131C261.757 674.465 258.785 671.833 258.401 669.187H266.252V666.23H246.114V669.187H253.965C253.566 671.833 250.549 674.465 245.108 675.131ZM278.702 671.582V667.117H275.035V671.76C275.035 676.314 273.556 681.06 269.564 683.529L271.871 686.309C274.31 684.83 275.922 682.272 276.883 679.226C277.741 681.977 279.205 684.313 281.541 685.718L283.581 682.79C279.9 680.439 278.687 675.944 278.702 671.582ZM280.742 676.964H284.232V690.479H287.751V665.195H284.232V673.889H280.742V676.964ZM289.791 691.721H293.399V664.81H289.791V691.721ZM320.871 685.481H315.401V678.812C317.426 677.556 318.639 675.678 318.654 673.356C318.639 668.995 314.336 666.126 308.51 666.111C302.655 666.126 298.397 668.995 298.397 673.356C298.397 675.722 299.654 677.63 301.738 678.886V685.481H296.238V688.586H320.871V685.481ZM302.123 673.356C302.123 670.651 304.651 669.083 308.51 669.098C312.31 669.083 314.913 670.651 314.928 673.356C314.913 675.988 312.31 677.615 308.51 677.615C304.651 677.615 302.123 675.988 302.123 673.356ZM305.464 685.481V680.261C306.411 680.439 307.431 680.542 308.51 680.542C309.59 680.542 310.625 680.439 311.586 680.247V685.481H305.464Z" fill="black"/>
<path d="M148.946 721.593H141.37V720.113C144.64 719.989 146.524 719.016 146.524 717.329C146.524 715.507 144.33 714.544 140.562 714.534C136.764 714.544 134.58 715.507 134.58 717.329C134.58 719.016 136.453 719.999 139.755 720.113V721.593H132.179V722.918H148.946V721.593ZM133.048 713.727H147.973V712.443H141.37V710.518H139.755V712.443H133.048V713.727ZM134.352 728.735H147.083V727.389H135.988V724.098H134.352V728.735ZM136.236 717.329C136.215 716.294 137.768 715.724 140.562 715.735C143.316 715.724 144.889 716.294 144.889 717.329C144.889 718.364 143.316 718.933 140.562 718.923C137.768 718.933 136.215 718.364 136.236 717.329ZM156.729 716.376V713.975H160.87V712.63H150.851V713.975H155.136V716.376C155.115 719.513 152.838 723.011 150.188 724.305L151.182 725.588C153.241 724.532 155.084 722.152 155.932 719.45C156.76 721.945 158.51 724.118 160.58 725.133L161.511 723.849C158.841 722.576 156.709 719.326 156.729 716.376ZM163.126 729.128H164.74V719.564H167.825V718.177H164.74V710.725H163.126V729.128ZM181.86 721.634H175.919V722.856H180.328V724.574H175.96V728.921H176.954C179.51 728.911 180.814 728.9 182.481 728.569L182.336 727.368C180.856 727.637 179.665 727.679 177.492 727.679V725.733H181.86V721.634ZM174.138 720.165H190.906V718.84H183.288V717.474C186.88 717.329 189.012 716.159 189.022 714.224C189.012 712.123 186.579 710.953 182.522 710.953C178.434 710.953 176.001 712.123 176.001 714.224C176.001 716.149 178.103 717.318 181.694 717.474V718.84H174.138V720.165ZM177.699 714.224C177.678 712.961 179.469 712.216 182.522 712.195C185.544 712.216 187.356 712.961 187.366 714.224C187.356 715.476 185.544 716.211 182.522 716.232C179.469 716.211 177.678 715.476 177.699 714.224ZM183.06 728.921H189.001V721.634H183.06V728.921ZM184.447 727.7V722.856H187.594V727.7H184.447ZM207.673 710.725H206.038V729.128H207.673V710.725ZM192.686 724.346L193.576 725.671C199.745 722.711 202.208 718.022 202.229 712.733H193.535V714.058H200.573C200.211 718.457 197.664 721.986 192.686 724.346ZM225.993 710.725H224.358V729.128H225.993V710.725ZM211.006 724.346L211.896 725.671C218.065 722.711 220.528 718.022 220.549 712.733H211.855V714.058H218.893C218.53 718.457 215.984 721.986 211.006 724.346ZM249.612 710.725H247.997V721.883H249.612V710.725ZM234.687 714.037H245.969V712.713H241.146V710.58H239.51V712.713H234.687V714.037ZM235.826 718.219C235.805 720.237 237.606 721.51 240.338 721.51C243.06 721.51 244.841 720.237 244.851 718.219C244.841 716.221 243.06 714.948 240.338 714.948C237.606 714.948 235.805 716.221 235.826 718.219ZM237.378 718.219C237.357 716.997 238.537 716.19 240.338 716.19C242.118 716.19 243.288 716.997 243.298 718.219C243.288 719.471 242.118 720.247 240.338 720.268C238.537 720.247 237.357 719.471 237.378 718.219ZM237.647 728.879H249.612V722.876H237.647V728.879ZM239.241 727.555V724.181H248.018V727.555H239.241ZM269.526 720.02H252.738V721.345H269.526V720.02ZM254.87 717.991H267.601V716.646H256.484V712.857H267.435V711.533H254.87V717.991ZM254.911 728.714H267.745V727.348H256.526V723.332H254.911V728.714ZM290.619 710.725H289.005V729.128H290.619V719.585H293.6V718.219H290.619V710.725ZM276.502 724.346L277.413 725.63C283.405 722.669 285.848 717.919 285.858 712.713H277.35V714.079H284.213C283.84 718.436 281.252 721.986 276.502 724.346ZM309.25 711.926H296.809V713.271H307.635V713.541C307.635 715.259 307.635 717.184 307.076 719.833H294.697V721.179H302.232V729.169H303.868V721.179H311.465V719.833H308.722C309.25 717.194 309.25 715.279 309.25 713.541V711.926ZM327.259 710.725H325.644V729.128H327.259V719.585H330.24V718.219H327.259V710.725ZM313.141 724.346L314.052 725.63C320.045 722.669 322.488 717.919 322.498 712.713H313.99V714.079H320.852C320.48 718.436 317.892 721.986 313.141 724.346ZM346.593 710.746H344.958V715.838H341.17V717.184H344.958V724.243H346.593V710.746ZM331.42 720.558L332.269 721.883C334.452 721.065 336.15 719.378 336.947 717.246C337.744 719.15 339.348 720.693 341.418 721.448L342.267 720.144C339.576 719.223 337.733 716.915 337.733 714.534V713.582H341.853V712.236H331.937V713.582H336.098V714.534C336.098 717.173 334.132 719.606 331.42 720.558ZM334.773 728.735H347.111V727.368H336.409V723.021H334.773V728.735ZM366.424 720.434H349.657V721.759H366.424V720.434ZM351.52 715.031C351.52 717.318 354.045 718.695 358.04 718.695C361.994 718.695 364.53 717.318 364.54 715.031C364.53 712.723 361.994 711.367 358.04 711.388C354.045 711.367 351.52 712.723 351.52 715.031ZM351.83 728.735H364.561V727.368H353.466V723.373H351.83V728.735ZM353.197 715.031C353.186 713.592 355.07 712.692 358.04 712.692C360.99 712.692 362.874 713.592 362.884 715.031C362.874 716.49 360.99 717.37 358.04 717.37C355.07 717.37 353.186 716.49 353.197 715.031ZM148.325 744.725H146.855V752.177H145.199V745.119H143.75V762.196H145.199V753.523H146.855V763.128H148.325V744.725ZM132.551 758.47H136.919V746.713H135.656V751.204H133.814V746.713H132.551V758.47ZM133.814 757.145V752.509H135.656V757.145H133.814ZM138.016 758.47H142.384V746.713H141.101V751.204H139.279V746.713H138.016V758.47ZM139.279 757.145V752.509H141.101V757.145H139.279ZM165.713 744.725H164.078V763.128H165.713V744.725ZM150.726 758.346L151.616 759.671C157.785 756.711 160.249 752.022 160.269 746.733H151.575V748.058H158.613C158.251 752.457 155.705 755.986 150.726 758.346ZM184.716 746.733H174.366V748.079H176.395V757.166C175.515 757.177 174.687 757.187 173.911 757.187L174.118 758.574C177.378 758.553 181.777 758.491 185.669 757.87L185.586 756.669C184.644 756.783 183.661 756.876 182.667 756.938V748.079H184.716V746.733ZM177.968 757.145V748.079H181.114V757.032C180.059 757.083 178.993 757.125 177.968 757.145ZM186.766 763.128H188.38V753.482H191.465V752.115H188.38V744.725H186.766V763.128ZM207.363 754.682H196.288V751.722H206.762V750.418H196.288V747.685H207.156V746.319H194.632V756.007H207.363V754.682ZM192.458 760.727H209.308V759.381H192.458V760.727ZM226.055 744.725H224.42V750.811H218.686V752.157H224.42V763.169H226.055V744.725ZM211.792 758.698H213.2C216.181 758.698 218.768 758.543 221.708 757.932L221.501 756.587C218.737 757.156 216.243 757.301 213.428 757.332V746.795H211.792V758.698ZM243.34 744.725H241.725V763.128H243.34V753.585H246.321V752.219H243.34V744.725ZM229.222 758.346L230.133 759.63C236.126 756.669 238.568 751.919 238.579 746.713H230.071V748.079H236.933C236.56 752.436 233.973 755.986 229.222 758.346ZM267.601 753.357H256.526V747.561H267.414V746.236H254.891V754.682H260.314V759.443H252.738V760.809H269.588V759.443H261.908V754.682H267.601V753.357ZM276.605 745.926C273.728 745.947 271.689 747.685 271.699 750.252C271.689 752.571 273.355 754.216 275.798 754.506V757.694C274.018 757.746 272.31 757.756 270.83 757.767L271.099 759.133C274.339 759.153 278.686 759.112 282.588 758.45L282.484 757.228C280.88 757.435 279.151 757.56 277.433 757.632V754.506C279.824 754.196 281.501 752.56 281.511 750.252C281.501 747.685 279.431 745.947 276.605 745.926ZM273.293 750.252C273.272 748.524 274.67 747.344 276.605 747.334C278.51 747.344 279.897 748.524 279.917 750.252C279.897 751.981 278.51 753.181 276.605 753.171C274.67 753.181 273.272 751.981 273.293 750.252ZM283.664 763.128H285.279V753.73H288.28V752.322H285.279V744.725H283.664V763.128ZM304.24 753.585H293.145V747.789H304.054V746.443H291.53V754.931H304.24V753.585ZM289.377 760.623H306.227V759.257H289.377V760.623ZM322.891 744.746H321.277V754.848H322.891V744.746ZM308.629 746.982H315.418V749.321H308.67V754.475H310.161C313.555 754.454 316.07 754.361 319.165 753.875L318.979 752.529C315.988 753.016 313.535 753.088 310.243 753.109V750.604H317.033V745.636H308.629V746.982ZM310.926 762.879H322.891V755.779H321.277V757.974H312.562V755.779H310.926V762.879ZM312.562 761.555V759.278H321.277V761.555H312.562ZM341.19 744.725H339.576V763.128H341.19V744.725ZM327.218 758.388H328.708C331.658 758.388 334.566 758.16 337.837 757.477L337.609 756.09C334.525 756.742 331.627 756.959 328.812 756.98V746.547H327.218V758.388ZM358.579 744.725H356.964V763.169H358.579V753.378H361.663V752.012H358.579V744.725ZM345.144 758.553H346.593C350.092 758.553 352.503 758.45 355.391 757.932L355.184 756.524C352.441 757.032 350.092 757.177 346.759 757.187V747.872H353.735V746.526H345.144V758.553Z" fill="#595959"/>
<rect x="127.65" y="601.249" width="108.824" height="43.9084" rx="21.9542" fill="white"/>
<path d="M161.746 613.332H159.531V620.702H157.461V613.684H155.308V631.093H157.461V622.585H159.531V632.045H161.746V613.332ZM146.49 627.388H147.732C149.709 627.388 151.851 627.253 154.377 626.808L154.149 624.8C152.182 625.183 150.423 625.328 148.808 625.359V615.485H146.49V627.388ZM179.673 613.332H177.375V617.41H174.021V619.294H177.375V622.503H173.959V624.386H177.375V632.066H179.673V613.332ZM164.623 616.789H170.709V620.143H164.685V627.823H166.134C169.043 627.823 171.423 627.76 174.29 627.305L174.104 625.421C171.579 625.794 169.436 625.908 166.963 625.918V621.944H172.966V614.947H164.623V616.789ZM197.516 622.109H186.669V616.831H197.371V614.968H184.392V623.952H197.516V622.109ZM182.322 629.665H199.421V627.76H182.322V629.665ZM216.229 613.353H213.911V624.448H216.229V613.353ZM201.594 616.272H207.949V618.114H201.636V623.703H203.23C206.852 623.714 209.388 623.61 212.338 623.144L212.048 621.281C209.378 621.726 207.09 621.819 203.892 621.819V619.874H210.226V614.45H201.594V616.272ZM203.809 631.818H216.229V625.318H203.809V631.818ZM206.086 629.955V627.16H213.973V629.955H206.086Z" fill="#1F41FF"/>
<rect x="127.65" y="601.249" width="108.824" height="43.9084" rx="21.9542" stroke="#1F41FF" stroke-width="1.51408"/>
<g clip-path="url(#clip0_33_746)">
<path d="M582.631 727.677C583.237 727.525 584.599 727.374 585.659 726.314C586.568 725.406 587.325 723.74 587.022 721.62C586.568 716.927 582.934 716.473 582.934 716.473C582.934 716.473 582.934 715.261 582.025 713.899C580.814 712.233 578.997 711.93 578.543 711.93C575.969 711.627 574.152 713.444 573.698 714.05C571.427 716.321 572.335 718.138 570.518 720.863C567.793 725.103 556.589 726.465 556.589 726.465C560.223 727.223 562.342 727.677 566.582 728.131C566.582 727.98 575.061 728.888 582.631 727.677Z" fill="url(#paint0_linear_33_746)"/>
<path fill-rule="evenodd" clip-rule="evenodd" d="M503.142 652.578L477.251 652.275C471.801 652.275 467.41 656.818 467.41 662.268L467.561 685.282C467.561 690.733 472.103 695.124 477.554 695.124L496.631 694.973C502.082 694.973 513.286 690.885 513.286 685.434L513.135 662.42C513.135 656.969 508.593 652.427 503.142 652.578Z" fill="#FC6531"/>
<path d="M503.142 652.578L477.251 652.275C476.948 652.275 476.646 652.275 476.343 652.427L499.205 652.73C504.656 652.73 509.198 657.12 509.198 662.571L509.35 685.585C509.35 690.733 499.205 694.67 493.603 695.124H496.783C502.234 695.124 513.438 691.036 513.438 685.585L513.286 662.571C513.135 656.969 508.593 652.427 503.142 652.578Z" fill="url(#paint1_linear_33_746)"/>
<path fill-rule="evenodd" clip-rule="evenodd" d="M458.477 670.899L467.41 670.748L467.561 684.678H458.477V670.899Z" fill="url(#paint2_linear_33_746)"/>
<path fill-rule="evenodd" clip-rule="evenodd" d="M551.896 652.578L522.068 652.881C516.617 652.881 512.227 657.423 512.227 662.874L512.378 685.888C512.378 691.339 516.92 695.73 522.371 695.73L552.198 695.427C557.649 695.427 562.04 690.884 562.04 685.434L561.889 662.42C561.889 656.969 557.346 652.578 551.896 652.578Z" fill="#FC6531"/>
<path fill-rule="evenodd" clip-rule="evenodd" d="M455.449 695.274V691.035C455.449 687.553 458.174 684.676 461.656 684.676L555.832 684.827C559.315 684.827 562.192 687.553 562.192 691.035V695.274H455.449Z" fill="url(#paint3_linear_33_746)"/>
<path fill-rule="evenodd" clip-rule="evenodd" d="M458.476 670.899C456.811 670.899 455.297 672.413 455.297 674.079L455.448 692.096C455.448 693.762 456.962 695.276 458.628 695.276C460.293 695.276 461.807 693.762 461.807 692.096L461.656 673.927C461.505 672.262 460.142 670.748 458.476 670.899Z" fill="url(#paint4_linear_33_746)"/>
<path fill-rule="evenodd" clip-rule="evenodd" d="M461.656 684.677L549.928 684.828L549.776 671.05L558.709 670.898C560.375 670.898 561.889 672.261 561.889 674.078L562.04 691.187V691.339V694.821V702.24C562.04 705.722 570.822 708.599 555.832 708.599L461.959 708.296C458.477 708.296 455.6 705.571 455.6 702.089L455.449 691.036C455.449 687.553 458.174 684.677 461.656 684.677Z" fill="url(#paint5_linear_33_746)"/>
<path d="M546.596 674.533C546.596 672.716 548.11 671.051 549.927 671.051C551.744 671.051 553.41 672.565 553.41 674.382L553.561 684.678H546.748L546.596 674.533Z" fill="url(#paint6_linear_33_746)"/>
<path d="M565.522 717.986H453.783C452.118 717.986 450.906 716.623 450.906 715.109V711.021C450.906 709.356 452.269 708.145 453.783 708.145H565.371C567.036 708.145 568.248 709.507 568.248 711.021V714.958C568.399 716.623 567.188 717.986 565.522 717.986Z" fill="url(#paint7_linear_33_746)"/>
<path d="M572.184 649.702L561.888 671.656V715.11H568.399V672.413L578.089 651.216C578.543 650.156 578.997 648.945 577.786 648.945H573.547C573.092 648.793 572.487 649.096 572.184 649.702Z" fill="url(#paint8_linear_33_746)"/>
<path d="M572.487 656.667C570.519 655.758 569.611 653.639 570.519 651.67L573.396 645.16C574.153 643.343 576.424 642.435 578.241 643.192H578.392C580.209 643.949 581.118 646.22 580.361 648.037L577.484 654.547C576.575 656.667 574.304 657.424 572.487 656.667Z" fill="#20336F"/>
<path d="M473.921 728.585C478.52 728.585 482.248 724.856 482.248 720.257C482.248 715.658 478.52 711.93 473.921 711.93C469.322 711.93 465.593 715.658 465.593 720.257C465.593 724.856 469.322 728.585 473.921 728.585Z" fill="#20336F"/>
<path d="M473.921 724.344C476.178 724.344 478.009 722.514 478.009 720.256C478.009 717.998 476.178 716.168 473.921 716.168C471.663 716.168 469.833 717.998 469.833 720.256C469.833 722.514 471.663 724.344 473.921 724.344Z" fill="#C8DFFF"/>
<path d="M540.389 728.585C544.988 728.585 548.716 724.856 548.716 720.257C548.716 715.658 544.988 711.93 540.389 711.93C535.79 711.93 532.062 715.658 532.062 720.257C532.062 724.856 535.79 728.585 540.389 728.585Z" fill="#20336F"/>
<path d="M540.388 724.344C542.646 724.344 544.476 722.514 544.476 720.256C544.476 717.998 542.646 716.168 540.388 716.168C538.131 716.168 536.3 717.998 536.3 720.256C536.3 722.514 538.131 724.344 540.388 724.344Z" fill="#C8DFFF"/>
</g>
<g clip-path="url(#clip1_33_746)">
<path d="M477.252 429.07C477.252 429.07 471.498 427.556 462.868 424.831C458.174 423.317 452.421 417.866 457.114 411.658C461.505 405.753 474.829 411.053 474.829 411.053L477.252 429.07Z" fill="#EB9E91"/>
<path fill-rule="evenodd" clip-rule="evenodd" d="M507.684 339.438L484.368 334.895C479.371 333.987 474.677 337.318 473.769 342.314L470.287 363.057C469.378 368.054 472.709 372.748 477.706 373.656L494.966 376.684C499.963 377.593 510.713 375.776 511.621 370.779L515.103 349.885C516.012 345.04 512.681 340.346 507.684 339.438Z" fill="#FC6531"/>
<path d="M507.684 339.437L484.367 334.895C484.065 334.895 483.762 334.895 483.459 334.895L504.051 338.831C509.047 339.74 512.378 344.433 511.47 349.43L507.836 370.173C507.079 374.866 497.237 376.683 492.089 376.078L494.966 376.532C499.962 377.44 510.712 375.623 511.621 370.627L515.103 349.884C516.012 345.039 512.681 340.345 507.684 339.437Z" fill="url(#paint9_linear_33_746)"/>
<path fill-rule="evenodd" clip-rule="evenodd" d="M464.382 348.521L472.558 350.036L470.287 362.451L462.262 361.088L464.382 348.521Z" fill="url(#paint10_linear_33_746)"/>
<path fill-rule="evenodd" clip-rule="evenodd" d="M551.744 347.461L524.793 342.919C519.797 342.01 515.103 345.341 514.195 350.338L510.561 371.081C509.653 376.077 512.983 380.771 517.98 381.679L544.931 386.222C549.927 387.13 554.621 383.799 555.529 378.803L559.163 358.06C559.92 353.215 556.589 348.37 551.744 347.461Z" fill="#FC6531"/>
<path fill-rule="evenodd" clip-rule="evenodd" d="M545.688 400.909L460.899 385.163C457.871 384.708 455.751 381.68 456.205 378.501L458.325 366.236C458.931 363.057 461.959 360.937 464.987 361.543L549.776 377.289C552.955 377.895 555.075 380.923 554.469 383.951L552.35 396.215C551.895 399.395 548.867 401.515 545.688 400.909Z" fill="url(#paint11_linear_33_746)"/>
<path fill-rule="evenodd" clip-rule="evenodd" d="M457.72 370.022L458.325 366.236C458.931 363.057 461.959 360.937 464.987 361.543L549.776 377.289C552.956 377.895 555.075 380.923 554.47 383.951L553.864 387.736L457.72 370.022Z" fill="url(#paint12_linear_33_746)"/>
<path fill-rule="evenodd" clip-rule="evenodd" d="M464.382 348.522C462.868 348.22 461.353 349.28 461.051 350.794L458.174 367.297C457.871 368.811 458.931 370.325 460.445 370.628C461.959 370.931 463.473 369.871 463.776 368.357L466.653 352.005C467.107 350.339 466.047 348.825 464.382 348.522Z" fill="url(#paint13_linear_33_746)"/>
<path fill-rule="evenodd" clip-rule="evenodd" d="M554.924 365.329L546.748 363.967L542.508 388.192L547.808 389.101C547.808 390.463 548.867 391.675 550.23 391.826C551.744 392.129 553.258 391.069 553.561 389.555L557.195 368.66C557.498 366.995 556.438 365.481 554.924 365.329Z" fill="url(#paint14_linear_33_746)"/>
<path fill-rule="evenodd" clip-rule="evenodd" d="M546.748 363.815C545.233 363.513 543.719 364.573 543.417 366.087L540.54 382.439C540.237 383.953 541.297 385.467 542.962 385.77C544.476 386.072 545.991 385.013 546.293 383.499L549.17 367.146C549.473 365.632 548.413 364.118 546.748 363.815Z" fill="url(#paint15_linear_33_746)"/>
<path d="M466.805 421.804C471.801 428.466 484.217 432.554 493.907 432.252V443.456H555.227L555.076 430.132C554.924 417.262 544.477 406.815 531.607 406.815L513.893 406.664C512.379 393.491 512.379 386.526 506.322 386.223C501.477 385.921 499.963 390.009 499.66 399.245C498.903 386.375 495.572 383.195 490.576 383.195C486.942 383.195 485.276 386.223 485.579 391.22C484.822 385.164 480.583 384.104 477.706 384.709C472.861 385.769 472.407 392.885 474.526 409.995C466.199 393.794 459.84 393.491 457.114 395.308C452.572 398.336 457.871 409.995 466.805 421.804Z" fill="#FDCDD0"/>
<path d="M477.403 424.378C477.252 424.378 477.1 424.227 476.949 424.075C476.949 424.075 474.981 416.959 474.072 409.843C474.072 409.54 474.224 409.389 474.526 409.389C474.829 409.389 474.981 409.54 474.981 409.843C475.738 416.959 477.857 423.924 477.857 423.924C477.857 424.075 477.706 424.378 477.403 424.378C477.555 424.378 477.403 424.378 477.403 424.378Z" fill="#EB9E91"/>
<path d="M487.547 423.317C487.396 423.317 487.093 423.166 487.093 423.015C487.093 422.863 484.519 404.694 485.124 391.068C485.124 390.765 485.276 390.613 485.579 390.613C485.882 390.613 486.033 390.765 486.033 391.068C485.427 404.543 488.001 422.56 488.001 422.863C488.001 423.015 487.85 423.317 487.547 423.317C487.698 423.317 487.547 423.317 487.547 423.317Z" fill="#EB9E91"/>
<path d="M500.114 421.047C499.962 421.047 499.66 420.896 499.66 420.593C499.66 420.441 498.751 409.691 499.205 399.093C499.205 398.79 499.357 398.639 499.66 398.639C499.962 398.639 500.114 398.79 500.114 399.093C499.66 409.54 500.568 420.29 500.568 420.441C500.568 420.744 500.265 420.896 500.114 421.047Z" fill="#EB9E91"/>
<path d="M581.572 385.617C582.48 389.554 580.058 393.49 576.273 394.55C572.336 395.459 568.399 393.036 567.34 389.251C566.431 385.314 568.854 381.378 572.639 380.318C576.727 379.258 580.664 381.68 581.572 385.617Z" fill="url(#paint16_linear_33_746)"/>
<path d="M567.188 411.205C568.702 409.691 568.551 407.268 567.037 405.754C565.523 404.24 563.1 404.391 561.586 405.906C560.072 407.42 560.223 409.842 561.738 411.356C563.252 412.87 565.674 412.719 567.188 411.205Z" fill="#83B3FF"/>
<path d="M555.227 443.455H493.906V466.923H555.227V443.455Z" fill="url(#paint17_linear_33_746)"/>
<path d="M502.991 460.261C499.963 460.261 497.691 457.838 497.691 454.961C497.691 451.933 500.114 449.662 502.991 449.662C506.019 449.662 508.29 452.085 508.29 454.961C508.441 457.838 506.019 460.261 502.991 460.261Z" fill="#FFFCE4"/>
<path d="M469.378 377.592L468.772 380.166C468.772 380.318 468.621 380.318 468.621 380.318L466.501 381.226C466.198 381.378 466.198 381.68 466.501 381.832L468.469 382.589C468.621 382.589 468.621 382.74 468.621 382.74L469.378 385.617C469.529 385.92 469.832 385.92 469.983 385.617L470.74 382.74C470.74 382.589 470.892 382.589 470.892 382.589L472.86 381.832C473.163 381.68 473.163 381.378 472.86 381.226L470.589 380.318C470.589 380.318 470.589 380.318 470.589 380.166L469.983 377.592C469.983 377.29 469.529 377.29 469.378 377.592Z" fill="white"/>
<path d="M537.663 354.124L536.906 356.698C536.906 356.849 536.755 356.849 536.755 356.849L534.635 357.757C534.332 357.909 534.332 358.212 534.635 358.363L536.603 359.12C536.755 359.12 536.755 359.271 536.755 359.271L537.512 362.148C537.663 362.451 537.966 362.451 538.117 362.148L538.874 359.271C538.874 359.12 539.026 359.12 539.026 359.12L540.994 358.363C541.297 358.212 541.297 357.909 540.994 357.757L538.723 356.849C538.571 356.849 538.571 356.698 538.571 356.698L537.966 354.124C538.269 353.821 537.814 353.821 537.663 354.124Z" fill="white"/>
<path d="M493.907 432.25H515.861C513.287 434.218 509.35 436.792 504.051 438.609C500.114 439.972 496.632 440.577 493.907 440.729C493.755 435.127 493.755 432.25 493.907 432.25Z" fill="#EB9E91"/>
</g>
<g style="mix-blend-mode:multiply">
<rect x="72" width="568.689" height="882" rx="35.4692" fill="black" fill-opacity="0.5"/>
</g>
<g filter="url(#filter0_dd_33_746)">
<rect x="33.964" y="511.964" width="644.072" height="285.072" rx="18.3165" fill="white" stroke="#EBEBEB" stroke-width="1.92806"/>
<path d="M100.768 626.306H96.2118V639.523H92.8979V626.871H88.492V658.917H92.8979V643.364H96.2118V660.574H100.768V626.306ZM72.1111 652.816H74.4835C79.0024 652.798 82.6551 652.666 86.8351 651.875L86.4962 647.959C83.1823 648.542 80.2451 648.731 76.9312 648.787V634.138H84.8769V630.26H72.1111V652.816ZM133.154 626.343H128.334V651.348H133.154V626.343ZM104.346 642.875L106.831 646.678C110.842 645.304 113.572 642.479 115.116 638.977C116.641 642.235 119.296 644.795 123.174 646.076L125.622 642.31C119.992 640.502 117.564 636.078 117.601 631.54V628.226H112.593V631.54C112.593 636.191 110.089 640.954 104.346 642.875ZM110.183 659.971H134.057V656.13H115.04V648.938H110.183V659.971ZM175.594 626.306H170.849V638.394H164.485V628.942H159.777V637.264H152.735V628.942H147.953V652.515H164.485V642.272H170.849V660.649H175.594V626.306ZM152.735 648.674V641.03H159.777V648.674H152.735ZM208.883 626.306H204.1V633.574H198.339V637.49H204.1V642.875H198.226V646.829H204.1V660.649H208.883V626.306ZM181.129 632.971H191.824V638.62H181.204V652.967H183.916C189.188 652.986 193.556 652.873 198.677 652.063L198.301 648.147C193.97 648.806 190.223 648.994 185.987 649.032V642.348H196.531V629.168H181.129V632.971ZM244.582 645.21H213.326V649.051H226.506V660.574H231.251V649.051H244.582V645.21ZM214.87 639.448L216.64 643.214C222.609 642.404 226.883 639.843 228.973 636.323C231.044 639.843 235.356 642.404 241.381 643.214L243.113 639.448C236.071 638.601 232.287 635.249 231.797 631.879H241.795V628.113H216.151V631.879H226.149C225.64 635.249 221.799 638.601 214.87 639.448ZM257.649 634.929V629.243H252.979V635.155C252.979 640.954 251.097 646.998 246.013 650.143L248.95 653.683C252.057 651.8 254.109 648.542 255.333 644.664C256.425 648.166 258.289 651.141 261.264 652.929L263.862 649.201C259.174 646.208 257.63 640.484 257.649 634.929ZM260.247 641.783H264.691V658.992H269.172V626.795H264.691V637.866H260.247V641.783ZM271.77 660.574H276.365V626.306H271.77V660.574ZM311.348 652.628H304.382V644.136C306.961 642.536 308.505 640.145 308.524 637.189C308.505 631.634 303.026 627.981 295.608 627.963C288.151 627.981 282.729 631.634 282.729 637.189C282.729 640.201 284.329 642.63 286.984 644.231V652.628H279.98V656.582H311.348V652.628ZM287.474 637.189C287.474 633.743 290.693 631.747 295.608 631.766C300.447 631.747 303.76 633.743 303.779 637.189C303.76 640.54 300.447 642.611 295.608 642.611C290.693 642.611 287.474 640.54 287.474 637.189ZM291.729 652.628V645.982C292.934 646.208 294.233 646.339 295.608 646.339C296.982 646.339 298.3 646.208 299.524 645.963V652.628H291.729Z" fill="black"/>
<path d="M92.4159 699.347H82.7681V697.462C86.933 697.304 89.3318 696.065 89.3318 693.917C89.3318 691.597 86.5376 690.371 81.7401 690.358C76.903 690.371 74.122 691.597 74.122 693.917C74.122 696.065 76.5076 697.317 80.712 697.462V699.347H71.0642V701.034H92.4159V699.347ZM72.1713 689.33H91.177V687.696H82.7681V685.244H80.712V687.696H72.1713V689.33ZM73.832 708.441H90.0435V706.728H75.9145V702.536H73.832V708.441ZM76.2308 693.917C76.2044 692.599 78.1814 691.874 81.7401 691.887C85.246 691.874 87.2493 692.599 87.2493 693.917C87.2493 695.235 85.246 695.959 81.7401 695.946C78.1814 695.959 76.2044 695.235 76.2308 693.917ZM102.327 692.704V689.646H107.599V687.933H94.8411V689.646H100.298V692.704C100.271 696.698 97.3716 701.152 93.9975 702.8L95.2628 704.434C97.8857 703.09 100.232 700.058 101.312 696.618C102.367 699.795 104.594 702.563 107.23 703.854L108.417 702.22C105.016 700.599 102.301 696.46 102.327 692.704ZM110.473 708.942H112.529V696.763H116.456V694.997H112.529V685.508H110.473V708.942ZM134.329 699.399H126.763V700.955H132.378V703.143H126.816V708.678H128.081C131.337 708.665 132.997 708.652 135.119 708.23L134.935 706.701C133.05 707.044 131.534 707.097 128.767 707.097V704.619H134.329V699.399ZM124.496 697.528H145.848V695.841H136.147V694.101C140.721 693.917 143.436 692.427 143.449 689.962C143.436 687.287 140.339 685.798 135.172 685.798C129.966 685.798 126.869 687.287 126.869 689.962C126.869 692.414 129.544 693.903 134.118 694.101V695.841H124.496V697.528ZM129.03 689.962C129.004 688.355 131.284 687.406 135.172 687.379C139.021 687.406 141.327 688.355 141.34 689.962C141.327 691.557 139.021 692.493 135.172 692.519C131.284 692.493 129.004 691.557 129.03 689.962ZM135.857 708.678H143.423V699.399H135.857V708.678ZM137.624 707.123V700.955H141.63V707.123H137.624ZM167.2 685.508H165.117V708.942H167.2V685.508ZM148.115 702.853L149.248 704.54C157.104 700.77 160.241 694.8 160.267 688.065H149.196V689.752H158.158C157.697 695.353 154.455 699.848 148.115 702.853ZM190.528 685.508H188.446V708.942H190.528V685.508ZM171.444 702.853L172.577 704.54C180.433 700.77 183.569 694.8 183.596 688.065H172.524V689.752H181.487C181.026 695.353 177.783 699.848 171.444 702.853ZM220.605 685.508H218.549V699.716H220.605V685.508ZM201.6 689.725H215.966V688.038H209.824V685.323H207.742V688.038H201.6V689.725ZM203.05 695.05C203.023 697.62 205.317 699.241 208.796 699.241C212.262 699.241 214.529 697.62 214.543 695.05C214.529 692.506 212.262 690.885 208.796 690.885C205.317 690.885 203.023 692.506 203.05 695.05ZM205.027 695.05C205 693.495 206.503 692.467 208.796 692.467C211.063 692.467 212.552 693.495 212.566 695.05C212.552 696.645 211.063 697.633 208.796 697.66C206.503 697.633 205 696.645 205.027 695.05ZM205.369 708.625H220.605V700.981H205.369V708.625ZM207.399 706.938V702.642H218.576V706.938H207.399ZM245.964 697.343H224.586V699.03H245.964V697.343ZM227.301 694.76H243.512V693.047H229.357V688.223H243.301V686.536H227.301V694.76ZM227.354 708.415H243.697V706.675H229.41V701.561H227.354V708.415ZM272.825 685.508H270.769V708.942H272.825V696.79H276.621V695.05H272.825V685.508ZM254.847 702.853L256.007 704.487C263.638 700.717 266.749 694.668 266.762 688.038H255.928V689.778H264.666C264.192 695.327 260.897 699.848 254.847 702.853ZM296.549 687.037H280.707V688.75H294.493V689.093C294.493 691.281 294.493 693.732 293.781 697.106H278.018V698.82H287.613V708.995H289.695V698.82H299.37V697.106H295.877C296.549 693.745 296.549 691.307 296.549 689.093V687.037ZM319.482 685.508H317.426V708.942H319.482V696.79H323.278V695.05H319.482V685.508ZM301.505 702.853L302.665 704.487C310.296 700.717 313.406 694.668 313.42 688.038H302.585V689.778H311.324C310.849 695.327 307.554 699.848 301.505 702.853ZM344.103 685.534H342.02V692.019H337.196V693.732H342.02V702.721H344.103V685.534ZM324.781 698.029L325.862 699.716C328.643 698.675 330.804 696.526 331.819 693.811C332.834 696.236 334.877 698.2 337.513 699.162L338.593 697.502C335.167 696.328 332.821 693.389 332.821 690.358V689.145H338.066V687.432H325.44V689.145H330.738V690.358C330.738 693.719 328.234 696.816 324.781 698.029ZM329.051 708.441H344.762V706.701H331.134V701.166H329.051V708.441ZM369.356 697.871H348.004V699.558H369.356V697.871ZM350.376 690.991C350.376 693.903 353.592 695.656 358.68 695.656C363.715 695.656 366.944 693.903 366.957 690.991C366.944 688.051 363.715 686.325 358.68 686.351C353.592 686.325 350.376 688.051 350.376 690.991ZM350.772 708.441H366.983V706.701H352.854V701.614H350.772V708.441ZM352.512 690.991C352.498 689.159 354.897 688.012 358.68 688.012C362.436 688.012 364.835 689.159 364.848 690.991C364.835 692.849 362.436 693.969 358.68 693.969C354.897 693.969 352.498 692.849 352.512 690.991ZM91.6251 727.508H89.7536V736.997H87.6447V728.008H85.7995V749.756H87.6447V738.711H89.7536V750.942H91.6251V727.508ZM71.5387 745.011H77.1007V730.038H75.4927V735.758H73.1467V730.038H71.5387V745.011ZM73.1467 743.324V737.419H75.4927V743.324H73.1467ZM78.4978 745.011H84.0598V730.038H82.4254V735.758H80.1057V730.038H78.4978V745.011ZM80.1057 743.324V737.419H82.4254V743.324H80.1057ZM113.768 727.508H111.685V750.942H113.768V727.508ZM94.6829 744.853L95.8164 746.54C103.672 742.77 106.809 736.8 106.835 730.065H95.7637V731.752H104.726C104.265 737.353 101.023 741.848 94.6829 744.853ZM137.966 730.065H124.786V731.778H127.37V743.35C126.249 743.363 125.195 743.376 124.206 743.376L124.47 745.143C128.622 745.116 134.223 745.037 139.179 744.246L139.073 742.717C137.874 742.862 136.622 742.981 135.357 743.06V731.778H137.966V730.065ZM129.373 743.324V731.778H133.38V743.179C132.035 743.245 130.678 743.297 129.373 743.324ZM140.576 750.942H142.632V738.658H146.56V736.918H142.632V727.508H140.576V750.942ZM166.804 740.187H152.702V736.417H166.04V734.757H152.702V731.277H166.541V729.537H150.593V741.874H166.804V740.187ZM147.825 747.884H169.282V746.171H147.825V747.884ZM190.608 727.508H188.525V735.258H181.223V736.971H188.525V750.995H190.608V727.508ZM172.445 745.301H174.238C178.034 745.301 181.329 745.103 185.072 744.325L184.808 742.612C181.289 743.337 178.113 743.521 174.528 743.561V730.144H172.445V745.301ZM212.618 727.508H210.562V750.942H212.618V738.79H216.414V737.05H212.618V727.508ZM194.641 744.853L195.8 746.487C203.432 742.717 206.542 736.668 206.555 730.038H195.721V731.778H204.46C203.985 737.327 200.69 741.848 194.641 744.853ZM243.512 738.5H229.41V731.119H243.275V729.432H227.327V740.187H234.234V746.25H224.586V747.989H246.043V746.25H236.263V740.187H243.512V738.5ZM254.979 729.037C251.315 729.063 248.719 731.277 248.732 734.546C248.719 737.498 250.841 739.594 253.951 739.963V744.022C251.684 744.088 249.509 744.101 247.625 744.115L247.967 745.854C252.093 745.881 257.628 745.828 262.597 744.984L262.465 743.429C260.422 743.693 258.221 743.851 256.033 743.943V739.963C259.078 739.567 261.213 737.485 261.226 734.546C261.213 731.277 258.577 729.063 254.979 729.037ZM250.761 734.546C250.735 732.345 252.514 730.842 254.979 730.829C257.404 730.842 259.17 732.345 259.197 734.546C259.17 736.747 257.404 738.276 254.979 738.263C252.514 738.276 250.735 736.747 250.761 734.546ZM263.968 750.942H266.024V738.974H269.846V737.182H266.024V727.508H263.968V750.942ZM290.17 738.79H276.041V731.409H289.933V729.696H273.985V740.503H290.17V738.79ZM271.243 747.752H292.7V746.012H271.243V747.752ZM313.92 727.534H311.864V740.398H313.92V727.534ZM295.758 730.381H304.404V733.36H295.811V739.923H297.709C302.032 739.897 305.235 739.778 309.176 739.159L308.938 737.445C305.129 738.065 302.006 738.157 297.814 738.183V734.994H306.46V728.667H295.758V730.381ZM298.684 750.625H313.92V741.584H311.864V744.378H300.767V741.584H298.684V750.625ZM300.767 748.938V746.039H311.864V748.938H300.767ZM337.223 727.508H335.167V750.942H337.223V727.508ZM319.43 744.905H321.328C325.084 744.905 328.787 744.615 332.952 743.745L332.662 741.979C328.735 742.81 325.044 743.086 321.459 743.113V729.827H319.43V744.905ZM359.365 727.508H357.309V750.995H359.365V738.526H363.293V736.786H359.365V727.508ZM342.258 745.116H344.103C348.558 745.116 351.629 744.984 355.306 744.325L355.042 742.533C351.549 743.179 348.558 743.363 344.314 743.376V731.514H353.197V729.801H342.258V745.116Z" fill="#595959"/>
<rect x="65.2941" y="545.663" width="185.094" height="55.9137" rx="27.9568" fill="white"/>
<path d="M132.087 561.636H129.267V571.02H126.631V562.084H123.889V584.253H126.631V573.419H129.267V585.465H132.087V561.636ZM112.66 579.534H114.241C116.759 579.534 119.487 579.363 122.703 578.796L122.413 576.239C119.909 576.727 117.668 576.911 115.612 576.951V564.377H112.66V579.534ZM154.915 561.636H151.989V566.829H147.719V569.227H151.989V573.313H147.64V575.712H151.989V585.492H154.915V561.636ZM135.751 566.038H143.501V570.308H135.83V580.088H137.675C141.379 580.088 144.41 580.009 148.061 579.429L147.824 577.03C144.608 577.504 141.88 577.649 138.73 577.663V572.601H146.374V563.692H135.751V566.038ZM177.637 572.812H163.825V566.09H177.453V563.718H160.925V575.158H177.637V572.812ZM158.289 582.434H180.063V580.009H158.289V582.434ZM201.467 561.662H198.515V575.791H201.467V561.662ZM182.83 565.379H190.923V567.725H182.883V574.842H184.913C189.526 574.855 192.755 574.723 196.511 574.13L196.142 571.758C192.742 572.325 189.829 572.443 185.756 572.443V569.965H193.823V563.059H182.83V565.379ZM185.651 585.175H201.467V576.898H185.651V585.175ZM188.551 582.803V579.244H198.594V582.803H188.551Z" fill="#1F41FF"/>
<rect x="65.2941" y="545.663" width="185.094" height="55.9137" rx="27.9568" stroke="#1F41FF" stroke-width="1.92806"/>
<g clip-path="url(#clip2_33_746)">
<path d="M644.676 706.657C645.447 706.465 647.182 706.272 648.532 704.922C649.689 703.765 650.653 701.644 650.267 698.945C649.689 692.968 645.061 692.39 645.061 692.39C645.061 692.39 645.061 690.847 643.905 689.112C642.362 686.991 640.048 686.606 639.47 686.606C636.192 686.22 633.879 688.534 633.3 689.305C630.408 692.197 631.565 694.511 629.251 697.981C625.781 703.38 611.513 705.115 611.513 705.115C616.141 706.079 618.84 706.657 624.238 707.236C624.238 707.043 635.035 708.2 644.676 706.657Z" fill="url(#paint18_linear_33_746)"/>
<path fill-rule="evenodd" clip-rule="evenodd" d="M543.453 611.026L510.483 610.641C503.542 610.641 497.951 616.425 497.951 623.366L498.143 652.672C498.143 659.613 503.928 665.205 510.869 665.205L535.162 665.012C542.103 665.012 556.371 659.806 556.371 652.865L556.178 623.559C556.178 616.618 550.394 610.833 543.453 611.026Z" fill="#FC6531"/>
<path d="M543.453 611.026L510.483 610.641C510.097 610.641 509.712 610.641 509.326 610.833L538.44 611.219C545.381 611.219 551.165 616.81 551.165 623.751L551.358 653.058C551.358 659.613 538.44 664.626 531.306 665.205H535.355C542.296 665.205 556.564 659.999 556.564 653.058L556.371 623.751C556.178 616.618 550.394 610.833 543.453 611.026Z" fill="url(#paint19_linear_33_746)"/>
<path fill-rule="evenodd" clip-rule="evenodd" d="M486.576 634.357L497.951 634.164L498.144 651.902H486.576V634.357Z" fill="url(#paint20_linear_33_746)"/>
<path fill-rule="evenodd" clip-rule="evenodd" d="M605.537 611.027L567.554 611.413C560.613 611.413 555.021 617.197 555.021 624.138L555.214 653.445C555.214 660.386 560.998 665.977 567.939 665.977L605.922 665.591C612.863 665.591 618.455 659.807 618.455 652.866L618.262 623.56C618.262 616.619 612.478 611.027 605.537 611.027Z" fill="#FC6531"/>
<path fill-rule="evenodd" clip-rule="evenodd" d="M482.719 665.397V659.998C482.719 655.564 486.19 651.9 490.624 651.9L610.549 652.093C614.984 652.093 618.647 655.564 618.647 659.998V665.397H482.719Z" fill="url(#paint21_linear_33_746)"/>
<path fill-rule="evenodd" clip-rule="evenodd" d="M486.575 634.355C484.454 634.355 482.526 636.283 482.526 638.404L482.719 661.348C482.719 663.469 484.647 665.397 486.768 665.397C488.889 665.397 490.817 663.469 490.817 661.348L490.624 638.211C490.431 636.09 488.696 634.162 486.575 634.355Z" fill="url(#paint22_linear_33_746)"/>
<path fill-rule="evenodd" clip-rule="evenodd" d="M490.624 651.901L603.03 652.094L602.837 634.548L614.213 634.355C616.334 634.355 618.262 636.091 618.262 638.404L618.454 660.191V660.384V664.819V674.266C618.454 678.701 629.637 682.364 610.549 682.364L491.01 681.978C486.575 681.978 482.912 678.508 482.912 674.073L482.719 659.999C482.719 655.564 486.19 651.901 490.624 651.901Z" fill="url(#paint23_linear_33_746)"/>
<path d="M598.788 638.983C598.788 636.67 600.716 634.549 603.03 634.549C605.343 634.549 607.464 636.477 607.464 638.791L607.657 651.901H598.981L598.788 638.983Z" fill="url(#paint24_linear_33_746)"/>
<path d="M622.889 694.318H480.598C478.478 694.318 476.935 692.582 476.935 690.654V685.448C476.935 683.328 478.67 681.785 480.598 681.785H622.696C624.817 681.785 626.36 683.52 626.36 685.448V690.461C626.552 692.582 625.01 694.318 622.889 694.318Z" fill="url(#paint25_linear_33_746)"/>
<path d="M631.372 607.363L618.261 635.32V690.655H626.552V636.284L638.891 609.291C639.47 607.941 640.048 606.399 638.506 606.399H633.107C632.529 606.206 631.758 606.592 631.372 607.363Z" fill="url(#paint26_linear_33_746)"/>
<path d="M631.758 616.231C629.252 615.074 628.095 612.375 629.252 609.869L632.915 601.578C633.879 599.264 636.771 598.107 639.085 599.071H639.278C641.592 600.035 642.748 602.928 641.784 605.241L638.121 613.532C636.964 616.231 634.072 617.195 631.758 616.231Z" fill="#20336F"/>
<path d="M506.242 707.814C512.099 707.814 516.846 703.066 516.846 697.21C516.846 691.353 512.099 686.605 506.242 686.605C500.385 686.605 495.638 691.353 495.638 697.21C495.638 703.066 500.385 707.814 506.242 707.814Z" fill="#20336F"/>
<path d="M506.242 702.415C509.117 702.415 511.448 700.085 511.448 697.21C511.448 694.335 509.117 692.004 506.242 692.004C503.367 692.004 501.036 694.335 501.036 697.21C501.036 700.085 503.367 702.415 506.242 702.415Z" fill="#C8DFFF"/>
<path d="M590.884 707.814C596.74 707.814 601.488 703.066 601.488 697.21C601.488 691.353 596.74 686.605 590.884 686.605C585.027 686.605 580.279 691.353 580.279 697.21C580.279 703.066 585.027 707.814 590.884 707.814Z" fill="#20336F"/>
<path d="M590.883 702.415C593.758 702.415 596.089 700.085 596.089 697.21C596.089 694.335 593.758 692.004 590.883 692.004C588.008 692.004 585.677 694.335 585.677 697.21C585.677 700.085 588.008 702.415 590.883 702.415Z" fill="#C8DFFF"/>
</g>
</g>
<defs>
<filter id="filter0_dd_33_746" x="0.776187" y="488.03" width="710.448" height="351.448" filterUnits="userSpaceOnUse" color-interpolation-filters="sRGB">
<feFlood flood-opacity="0" result="BackgroundImageFix"/>
<feColorMatrix in="SourceAlpha" type="matrix" values="0 0 0 0 0 0 0 0 0 0 0 0 0 0 0 0 0 0 127 0" result="hardAlpha"/>
<feMorphology radius="1.85079" operator="erode" in="SourceAlpha" result="effect1_dropShadow_33_746"/>
<feOffset dy="3.70158"/>
<feGaussianBlur stdDeviation="2.77619"/>
<feComposite in2="hardAlpha" operator="out"/>
<feColorMatrix type="matrix" values="0 0 0 0 0 0 0 0 0 0 0 0 0 0 0 0 0 0 0.05 0"/>
<feBlend mode="normal" in2="BackgroundImageFix" result="effect1_dropShadow_33_746"/>
<feColorMatrix in="SourceAlpha" type="matrix" values="0 0 0 0 0 0 0 0 0 0 0 0 0 0 0 0 0 0 127 0" result="hardAlpha"/>
<feMorphology radius="2.77619" operator="erode" in="SourceAlpha" result="effect2_dropShadow_33_746"/>
<feOffset dy="9.25396"/>
<feGaussianBlur stdDeviation="17.5"/>
<feComposite in2="hardAlpha" operator="out"/>
<feColorMatrix type="matrix" values="0 0 0 0 0 0 0 0 0 0 0 0 0 0 0 0 0 0 0.2 0"/>
<feBlend mode="normal" in2="effect1_dropShadow_33_746" result="effect2_dropShadow_33_746"/>
<feBlend mode="normal" in="SourceGraphic" in2="effect2_dropShadow_33_746" result="shape"/>
</filter>
<linearGradient id="paint0_linear_33_746" x1="584.875" y1="715.742" x2="558.163" y2="736.262" gradientUnits="userSpaceOnUse">
<stop stop-color="#B3D4FF"/>
<stop offset="0.414" stop-color="#BDD9FF" stop-opacity="0.6688"/>
<stop offset="1" stop-color="#C8DFFF" stop-opacity="0.2"/>
</linearGradient>
<linearGradient id="paint1_linear_33_746" x1="505.976" y1="672.711" x2="517.912" y2="672.175" gradientUnits="userSpaceOnUse">
<stop stop-color="#FC5A1A"/>
<stop offset="0.3779" stop-color="#F3490F"/>
<stop offset="1" stop-color="#E73000"/>
</linearGradient>
<linearGradient id="paint2_linear_33_746" x1="458.541" y1="677.819" x2="467.651" y2="677.663" gradientUnits="userSpaceOnUse">
<stop stop-color="#FC5A1A"/>
<stop offset="0.3779" stop-color="#F3490F"/>
<stop offset="1" stop-color="#E73000"/>
</linearGradient>
<linearGradient id="paint3_linear_33_746" x1="464.052" y1="691.2" x2="583.674" y2="688.253" gradientUnits="userSpaceOnUse">
<stop stop-color="#FC5A1A"/>
<stop offset="0.3779" stop-color="#F3490F"/>
<stop offset="1" stop-color="#E73000"/>
</linearGradient>
<linearGradient id="paint4_linear_33_746" x1="463.847" y1="682.897" x2="583.469" y2="679.951" gradientUnits="userSpaceOnUse">
<stop stop-color="#FC5A1A"/>
<stop offset="0.3779" stop-color="#F3490F"/>
<stop offset="1" stop-color="#E73000"/>
</linearGradient>
<linearGradient id="paint5_linear_33_746" x1="564.809" y1="689.776" x2="455.425" y2="689.776" gradientUnits="userSpaceOnUse">
<stop stop-color="#E73000"/>
<stop offset="0.0244017" stop-color="#E93503"/>
<stop offset="0.1349" stop-color="#F2460D"/>
<stop offset="0.2718" stop-color="#F85115"/>
<stop offset="0.4647" stop-color="#FB5819"/>
<stop offset="1" stop-color="#FC5A1A"/>
</linearGradient>
<linearGradient id="paint6_linear_33_746" x1="643.793" y1="678.652" x2="513.825" y2="677.672" gradientUnits="userSpaceOnUse">
<stop stop-color="#FC5A1A"/>
<stop offset="0.3779" stop-color="#F3490F"/>
<stop offset="1" stop-color="#E73000"/>
</linearGradient>
<linearGradient id="paint7_linear_33_746" x1="450.906" y1="713.023" x2="568.441" y2="713.023" gradientUnits="userSpaceOnUse">
<stop stop-color="#78B2FF"/>
<stop offset="0.0790009" stop-color="#6D9FFF"/>
<stop offset="0.2891" stop-color="#5274FF"/>
<stop offset="0.4919" stop-color="#3D51FF"/>
<stop offset="0.6828" stop-color="#2D38FF"/>
<stop offset="0.8573" stop-color="#2429FF"/>
<stop offset="1" stop-color="#2124FF"/>
</linearGradient>
<linearGradient id="paint8_linear_33_746" x1="570.382" y1="654.97" x2="569.002" y2="708.581" gradientUnits="userSpaceOnUse">
<stop stop-color="#78B2FF"/>
<stop offset="0.0790009" stop-color="#6D9FFF"/>
<stop offset="0.2891" stop-color="#5274FF"/>
<stop offset="0.4919" stop-color="#3D51FF"/>
<stop offset="0.6828" stop-color="#2D38FF"/>
<stop offset="0.8573" stop-color="#2429FF"/>
<stop offset="1" stop-color="#2124FF"/>
</linearGradient>
<linearGradient id="paint9_linear_33_746" x1="506.861" y1="358.083" x2="517.71" y2="359.569" gradientUnits="userSpaceOnUse">
<stop stop-color="#FC5A1A"/>
<stop offset="0.3779" stop-color="#F3490F"/>
<stop offset="1" stop-color="#E73000"/>
</linearGradient>
<linearGradient id="paint10_linear_33_746" x1="463.253" y1="354.865" x2="471.492" y2="356.227" gradientUnits="userSpaceOnUse">
<stop stop-color="#FC5A1A"/>
<stop offset="0.3779" stop-color="#F3490F"/>
<stop offset="1" stop-color="#E73000"/>
</linearGradient>
<linearGradient id="paint11_linear_33_746" x1="457.101" y1="373.296" x2="553.713" y2="389.268" gradientUnits="userSpaceOnUse">
<stop stop-color="#FC5A1A"/>
<stop offset="0.3779" stop-color="#F3490F"/>
<stop offset="1" stop-color="#E73000"/>
</linearGradient>
<linearGradient id="paint12_linear_33_746" x1="466.014" y1="367.84" x2="574.348" y2="384.911" gradientUnits="userSpaceOnUse">
<stop stop-color="#FC5A1A"/>
<stop offset="0.3779" stop-color="#F3490F"/>
<stop offset="1" stop-color="#E73000"/>
</linearGradient>
<linearGradient id="paint13_linear_33_746" x1="467.199" y1="360.32" x2="575.533" y2="377.391" gradientUnits="userSpaceOnUse">
<stop stop-color="#FC5A1A"/>
<stop offset="0.3779" stop-color="#F3490F"/>
<stop offset="1" stop-color="#E73000"/>
</linearGradient>
<linearGradient id="paint14_linear_33_746" x1="544.367" y1="377.173" x2="555.549" y2="379.022" gradientUnits="userSpaceOnUse">
<stop stop-color="#FC5A1A"/>
<stop offset="0.3779" stop-color="#F3490F"/>
<stop offset="1" stop-color="#E73000"/>
</linearGradient>
<linearGradient id="paint15_linear_33_746" x1="466.844" y1="362.574" x2="575.177" y2="379.645" gradientUnits="userSpaceOnUse">
<stop stop-color="#FC5A1A"/>
<stop offset="0.3779" stop-color="#F3490F"/>
<stop offset="1" stop-color="#E73000"/>
</linearGradient>
<linearGradient id="paint16_linear_33_746" x1="575.413" y1="375.728" x2="571.706" y2="421.132" gradientUnits="userSpaceOnUse">
<stop stop-color="#B3D4FF"/>
<stop offset="0.2666" stop-color="#BDD9FF" stop-opacity="0.793"/>
<stop offset="0.644" stop-color="#C8DFFF" stop-opacity="0.5"/>
</linearGradient>
<linearGradient id="paint17_linear_33_746" x1="576.814" y1="453.192" x2="528.363" y2="455.009" gradientUnits="userSpaceOnUse">
<stop stop-color="#78B2FF"/>
<stop offset="0.0790009" stop-color="#6D9FFF"/>
<stop offset="0.2891" stop-color="#5274FF"/>
<stop offset="0.4919" stop-color="#3D51FF"/>
<stop offset="0.6828" stop-color="#2D38FF"/>
<stop offset="0.8573" stop-color="#2429FF"/>
<stop offset="1" stop-color="#2124FF"/>
</linearGradient>
<linearGradient id="paint18_linear_33_746" x1="647.533" y1="691.459" x2="613.518" y2="717.59" gradientUnits="userSpaceOnUse">
<stop stop-color="#B3D4FF"/>
<stop offset="0.414" stop-color="#BDD9FF" stop-opacity="0.6688"/>
<stop offset="1" stop-color="#C8DFFF" stop-opacity="0.2"/>
</linearGradient>
<linearGradient id="paint19_linear_33_746" x1="547.062" y1="636.664" x2="562.261" y2="635.982" gradientUnits="userSpaceOnUse">
<stop stop-color="#FC5A1A"/>
<stop offset="0.3779" stop-color="#F3490F"/>
<stop offset="1" stop-color="#E73000"/>
</linearGradient>
<linearGradient id="paint20_linear_33_746" x1="486.658" y1="643.168" x2="498.259" y2="642.97" gradientUnits="userSpaceOnUse">
<stop stop-color="#FC5A1A"/>
<stop offset="0.3779" stop-color="#F3490F"/>
<stop offset="1" stop-color="#E73000"/>
</linearGradient>
<linearGradient id="paint21_linear_33_746" x1="493.675" y1="660.208" x2="646.003" y2="656.456" gradientUnits="userSpaceOnUse">
<stop stop-color="#FC5A1A"/>
<stop offset="0.3779" stop-color="#F3490F"/>
<stop offset="1" stop-color="#E73000"/>
</linearGradient>
<linearGradient id="paint22_linear_33_746" x1="493.415" y1="649.634" x2="645.742" y2="645.882" gradientUnits="userSpaceOnUse">
<stop stop-color="#FC5A1A"/>
<stop offset="0.3779" stop-color="#F3490F"/>
<stop offset="1" stop-color="#E73000"/>
</linearGradient>
<linearGradient id="paint23_linear_33_746" x1="621.98" y1="658.395" x2="482.688" y2="658.395" gradientUnits="userSpaceOnUse">
<stop stop-color="#E73000"/>
<stop offset="0.0244017" stop-color="#E93503"/>
<stop offset="0.1349" stop-color="#F2460D"/>
<stop offset="0.2718" stop-color="#F85115"/>
<stop offset="0.4647" stop-color="#FB5819"/>
<stop offset="1" stop-color="#FC5A1A"/>
</linearGradient>
<linearGradient id="paint24_linear_33_746" x1="722.56" y1="644.228" x2="557.056" y2="642.981" gradientUnits="userSpaceOnUse">
<stop stop-color="#FC5A1A"/>
<stop offset="0.3779" stop-color="#F3490F"/>
<stop offset="1" stop-color="#E73000"/>
</linearGradient>
<linearGradient id="paint25_linear_33_746" x1="476.935" y1="687.998" x2="626.606" y2="687.998" gradientUnits="userSpaceOnUse">
<stop stop-color="#78B2FF"/>
<stop offset="0.0790009" stop-color="#6D9FFF"/>
<stop offset="0.2891" stop-color="#5274FF"/>
<stop offset="0.4919" stop-color="#3D51FF"/>
<stop offset="0.6828" stop-color="#2D38FF"/>
<stop offset="0.8573" stop-color="#2429FF"/>
<stop offset="1" stop-color="#2124FF"/>
</linearGradient>
<linearGradient id="paint26_linear_33_746" x1="629.077" y1="614.071" x2="627.32" y2="682.34" gradientUnits="userSpaceOnUse">
<stop stop-color="#78B2FF"/>
<stop offset="0.0790009" stop-color="#6D9FFF"/>
<stop offset="0.2891" stop-color="#5274FF"/>
<stop offset="0.4919" stop-color="#3D51FF"/>
<stop offset="0.6828" stop-color="#2D38FF"/>
<stop offset="0.8573" stop-color="#2429FF"/>
<stop offset="1" stop-color="#2124FF"/>
</linearGradient>
<clipPath id="clip0_33_746">
<rect width="136.116" height="85.5457" fill="white" transform="translate(450.906 642.889)"/>
</clipPath>
<clipPath id="clip1_33_746">
<rect width="126.275" height="132.18" fill="white" transform="translate(455.449 334.744)"/>
</clipPath>
<clipPath id="clip2_33_746">
<rect width="173.332" height="108.935" fill="white" transform="translate(476.935 598.686)"/>
</clipPath>
</defs>
</svg>
