<svg width="730" height="620" viewBox="0 0 730 620" fill="none" xmlns="http://www.w3.org/2000/svg">
<rect x="81" width="569" height="620" rx="35.4692" fill="white"/>
<rect x="116.964" y="371.602" width="498.984" height="76.1921" rx="11.2047" fill="white"/>
<path d="M158.888 399.768H156.764V420.683H158.888V399.768ZM141.124 408.802C141.124 413.342 142.898 416.19 145.629 416.178C147.415 416.19 148.792 414.988 149.551 412.91H152.585V419.656H154.686V400.165H152.585V404.693H149.539C148.792 402.627 147.415 401.437 145.629 401.449C142.898 401.437 141.124 404.273 141.124 408.802ZM143.155 408.802C143.143 405.464 144.077 403.514 145.629 403.526C147.17 403.514 148.15 405.464 148.15 408.802C148.15 412.128 147.17 414.089 145.629 414.077C144.077 414.089 143.143 412.128 143.155 408.802ZM150.006 406.491H152.585V411.089H150.006C150.123 410.389 150.181 409.619 150.181 408.802C150.181 407.973 150.123 407.203 150.006 406.491ZM163.93 418.863C164.829 418.851 165.576 418.116 165.588 417.205C165.576 416.295 164.829 415.548 163.93 415.548C163.02 415.548 162.261 416.295 162.273 417.205C162.261 418.116 163.02 418.851 163.93 418.863ZM162.296 407.985C162.284 408.895 163.043 409.63 163.954 409.642C164.852 409.63 165.599 408.895 165.611 407.985C165.599 407.074 164.852 406.327 163.954 406.327C163.043 406.327 162.284 407.074 162.296 407.985ZM192.806 410.716H173.664V412.49H182.301V416.342H184.496V412.49H192.806V410.716ZM176.045 420.24H190.681V418.442H178.24V414.521H176.045V420.24ZM176.185 408.872H190.285V400.422H188.067V402.966H178.38V400.422H176.185V408.872ZM178.38 407.098V404.623H188.067V407.098H178.38ZM211.714 399.768H209.496V420.73H211.714V399.768ZM195.513 403.456H203.053V407.518H195.537V415.711H197.311C201.011 415.7 204.162 415.56 207.862 414.941L207.652 413.12C204.15 413.692 201.198 413.856 197.801 413.867V409.292H205.318V401.659H195.513V403.456ZM225.72 401.612V400.468H223.409V401.612C223.397 404.425 220.012 406.993 215.915 407.541L216.802 409.362C220.199 408.813 223.198 407.039 224.564 404.577C225.93 407.039 228.929 408.813 232.349 409.362L233.213 407.541C229.104 406.993 225.708 404.39 225.72 401.612ZM215.005 413.237H223.409V420.683H225.58V413.237H234.076V411.416H215.005V413.237ZM253.078 399.768H250.884V408.055H246.192V409.875H250.884V420.683H253.078V399.768ZM235.617 415.058L236.784 416.808C243.881 413.295 246.238 408.066 246.262 402.009H236.551V403.783H244.009C243.624 408.58 241.161 412.35 235.617 415.058ZM263.629 403.62V403.059H268.134V401.262H256.813V403.059H261.411V403.643C261.4 406.549 259.427 409.245 256.159 410.319L257.303 412.093C259.812 411.218 261.645 409.409 262.555 407.121C263.477 409.105 265.216 410.681 267.597 411.439L268.648 409.712C265.473 408.708 263.617 406.281 263.629 403.62ZM258.984 416.715C258.984 419.201 261.656 420.648 266.01 420.637C270.317 420.648 272.943 419.201 272.943 416.715C272.943 414.264 270.317 412.828 266.01 412.84C261.656 412.828 258.984 414.264 258.984 416.715ZM261.201 416.715C261.19 415.349 262.987 414.579 266.01 414.591C269.009 414.579 270.784 415.349 270.772 416.715C270.784 418.116 269.009 418.898 266.01 418.886C262.987 418.898 261.19 418.116 261.201 416.715ZM270.538 412.327H272.756V406.771H275.791V404.95H272.756V399.768H270.538V412.327ZM300.254 399.768H298.037V402.569H292.761C291.781 401.542 290.31 400.935 288.606 400.935C285.408 400.935 283.109 402.954 283.12 405.837C283.109 408.732 285.408 410.704 288.606 410.693C290.298 410.704 291.769 410.109 292.75 409.105H298.037V411.486H300.254V399.768ZM285.245 405.837C285.233 404.005 286.645 402.767 288.606 402.779C290.509 402.767 291.921 404.005 291.921 405.837C291.921 407.67 290.509 408.872 288.606 408.872C286.645 408.872 285.233 407.67 285.245 405.837ZM285.945 420.357H300.675V418.559H297.523V414.217H300.418V412.42H286.155V414.217H289.073V418.559H285.945V420.357ZM291.244 418.559V414.217H295.329V418.559H291.244ZM293.812 404.343H298.037V407.284H293.835C293.963 406.829 294.045 406.351 294.045 405.837C294.045 405.312 293.963 404.81 293.812 404.343ZM321.473 399.768H319.349V420.683H321.473V399.768ZM303.709 408.802C303.709 413.342 305.483 416.19 308.214 416.178C310.805 416.19 312.545 413.657 312.743 409.572H315.101V419.656H317.225V400.165H315.101V407.775H312.731C312.475 403.853 310.759 401.437 308.214 401.449C305.483 401.437 303.709 404.273 303.709 408.802ZM305.763 408.802C305.763 405.464 306.709 403.514 308.214 403.526C309.755 403.514 310.712 405.464 310.712 408.802C310.712 412.128 309.755 414.089 308.214 414.077C306.709 414.089 305.763 412.128 305.763 408.802ZM347.268 412.42H340.591V410.646H338.397V412.42H331.721V414.124H347.268V412.42ZM329.947 409.899H349.088V408.125H340.685V406.187H346.941V404.437H334.732V400.071H332.538V406.187H338.467V408.125H329.947V409.899ZM333.145 417.812C333.133 419.668 335.433 420.648 339.471 420.637C343.533 420.648 345.855 419.668 345.867 417.812C345.855 415.956 343.533 414.964 339.471 414.964C335.433 414.964 333.133 415.956 333.145 417.812ZM335.456 417.812C335.444 416.925 336.891 416.517 339.471 416.528C342.062 416.517 343.544 416.925 343.533 417.812C343.544 418.688 342.062 419.096 339.471 419.096C336.891 419.096 335.444 418.688 335.456 417.812ZM356.231 401.332C353.103 401.344 350.874 404.191 350.886 408.662C350.874 413.179 353.103 416.026 356.231 416.015C359.359 416.026 361.589 413.179 361.6 408.662C361.589 404.191 359.359 401.344 356.231 401.332ZM353.01 408.662C352.998 405.382 354.329 403.328 356.231 403.316C358.169 403.328 359.476 405.382 359.476 408.662C359.476 411.988 358.169 414.031 356.231 414.031C354.329 414.031 352.998 411.988 353.01 408.662ZM364.705 420.683H366.922V409.829H370.284V407.961H366.922V399.768H364.705V420.683ZM390.359 411.556H371.288V413.354H379.691V420.66H381.862V413.354H390.359V411.556ZM372.361 408.218L373.202 409.969C376.587 409.432 379.539 407.74 380.823 405.359C382.096 407.74 385.06 409.432 388.492 409.969L389.309 408.218C385.352 407.681 382.131 405.359 382.096 402.779H388.562V401.005H373.062V402.779H379.574C379.504 405.359 376.26 407.681 372.361 408.218ZM398.319 405.487V401.682H396.171V405.58C396.183 409.14 394.619 412.84 391.666 414.614L393.043 416.272C395.074 415.034 396.522 412.77 397.28 410.121C398.004 412.537 399.323 414.626 401.284 415.805L402.521 414.101C399.72 412.385 398.319 408.825 398.319 405.487ZM400.257 408.965H403.501V419.656H405.602V400.165H403.501V407.121H400.257V408.965ZM407.82 420.683H409.944V399.768H407.82V420.683ZM431.746 416.225H427.171V410.716C428.852 409.77 429.856 408.288 429.856 406.444C429.856 403.153 426.623 400.993 422.129 400.982C417.647 400.993 414.414 403.153 414.426 406.444C414.414 408.323 415.465 409.817 417.18 410.763V416.225H412.605V418.069H431.746V416.225ZM416.573 406.444C416.573 404.191 418.849 402.756 422.129 402.756C425.385 402.756 427.696 404.191 427.708 406.444C427.696 408.685 425.385 410.144 422.129 410.156C418.849 410.144 416.573 408.685 416.573 406.444ZM419.375 416.225V411.58C420.215 411.778 421.149 411.883 422.129 411.883C423.133 411.883 424.078 411.778 424.93 411.58V416.225H419.375ZM435.645 418.863C436.544 418.851 437.29 418.116 437.302 417.205C437.29 416.295 436.544 415.548 435.645 415.548C434.734 415.548 433.976 416.295 433.987 417.205C433.976 418.116 434.734 418.851 435.645 418.863Z" fill="#949494"/>
<rect x="116.964" y="371.602" width="498.984" height="76.1921" rx="11.2047" stroke="#D3D3D3" stroke-width="1.49396"/>
<path fill-rule="evenodd" clip-rule="evenodd" d="M133.705 176.166C132.866 175.333 131.453 175.284 130.549 176.057C129.644 176.83 129.591 178.132 130.43 178.965L144.725 193.165C145.148 193.585 145.741 193.824 146.363 193.824C146.984 193.824 147.578 193.585 148 193.165L162.295 178.965C163.134 178.132 163.081 176.83 162.177 176.057C161.272 175.284 159.859 175.333 159.02 176.166L159.428 176.515L159.02 176.166L146.363 188.74L133.705 176.166Z" fill="#B7D0FF"/>
<path d="M130.549 176.057L129.098 174.359H129.098L130.549 176.057ZM133.705 176.166L132.131 177.751V177.751L133.705 176.166ZM130.43 178.965L128.856 180.55H128.856L130.43 178.965ZM144.725 193.165L146.299 191.581L144.725 193.165ZM148 193.165L146.426 191.581L146.426 191.581L148 193.165ZM162.295 178.965L160.721 177.381L160.721 177.381L162.295 178.965ZM162.177 176.057L163.628 174.359L163.628 174.359L162.177 176.057ZM159.02 176.166L157.446 174.582C157.003 175.021 156.765 175.626 156.788 176.25C156.811 176.873 157.095 177.459 157.569 177.864L159.02 176.166ZM157.977 178.213C158.915 179.014 160.325 178.904 161.126 177.966C161.928 177.028 161.817 175.618 160.879 174.817L157.977 178.213ZM159.02 176.166L160.471 174.468C159.587 173.713 158.271 173.762 157.446 174.582L159.02 176.166ZM146.363 188.74L144.789 190.324C145.66 191.19 147.066 191.19 147.937 190.324L146.363 188.74ZM132 177.755C131.997 177.757 132 177.754 132.013 177.749C132.027 177.745 132.049 177.741 132.074 177.742C132.1 177.742 132.119 177.748 132.13 177.752C132.139 177.756 132.137 177.757 132.131 177.751L135.279 174.582C133.607 172.921 130.877 172.838 129.098 174.359L132 177.755ZM132.004 177.381C132.011 177.388 132.03 177.41 132.046 177.45C132.061 177.489 132.069 177.534 132.067 177.58C132.063 177.681 132.015 177.742 132 177.755L129.098 174.359C127.212 175.97 127.081 178.786 128.856 180.55L132.004 177.381ZM146.299 191.581L132.004 177.381L128.856 180.55L143.151 194.75L146.299 191.581ZM146.363 191.59C146.337 191.59 146.316 191.585 146.303 191.58C146.289 191.574 146.29 191.571 146.299 191.581L143.151 194.75C144.012 195.605 145.18 196.057 146.363 196.057V191.59ZM146.426 191.581C146.435 191.571 146.436 191.574 146.423 191.58C146.409 191.585 146.388 191.59 146.363 191.59V196.057C147.546 196.057 148.714 195.605 149.574 194.75L146.426 191.581ZM160.721 177.381L146.426 191.581L149.574 194.75L163.87 180.55L160.721 177.381ZM160.726 177.755C160.711 177.742 160.662 177.681 160.658 177.58C160.656 177.534 160.664 177.489 160.679 177.45C160.695 177.41 160.714 177.388 160.721 177.381L163.87 180.55C165.645 178.786 165.514 175.97 163.628 174.359L160.726 177.755ZM160.594 177.751C160.588 177.757 160.586 177.756 160.596 177.752C160.606 177.748 160.626 177.742 160.651 177.742C160.677 177.741 160.698 177.745 160.713 177.749C160.725 177.754 160.728 177.757 160.726 177.755L163.628 174.359C161.848 172.838 159.118 172.921 157.446 174.582L160.594 177.751ZM160.879 174.817L160.471 174.468L157.569 177.864L157.977 178.213L160.879 174.817ZM157.569 177.864L157.977 178.213L160.879 174.817L160.471 174.468L157.569 177.864ZM147.937 190.324L160.594 177.751L157.446 174.582L144.789 187.155L147.937 190.324ZM132.131 177.751L144.789 190.324L147.937 187.155L135.279 174.582L132.131 177.751Z" fill="#A9C7FF"/>
<path fill-rule="evenodd" clip-rule="evenodd" d="M133.705 195.305C132.866 194.472 131.453 194.423 130.549 195.196C129.644 195.969 129.591 197.271 130.43 198.104L144.725 212.304C145.148 212.724 145.741 212.963 146.363 212.963C146.984 212.963 147.578 212.724 148 212.304L162.295 198.104C163.134 197.271 163.081 195.969 162.177 195.196C161.272 194.423 159.859 194.472 159.02 195.305L159.428 195.654L159.02 195.305L146.363 207.878L133.705 195.305Z" fill="#5A84FF"/>
<path d="M130.549 195.196L129.098 193.498H129.098L130.549 195.196ZM133.705 195.305L132.131 196.89V196.89L133.705 195.305ZM130.43 198.104L128.856 199.689H128.856L130.43 198.104ZM144.725 212.304L146.299 210.719L144.725 212.304ZM148 212.304L146.426 210.719L146.426 210.719L148 212.304ZM162.295 198.104L160.721 196.519L160.721 196.519L162.295 198.104ZM162.177 195.196L163.628 193.498L163.628 193.498L162.177 195.196ZM159.02 195.305L157.446 193.72C157.003 194.16 156.765 194.765 156.788 195.389C156.811 196.012 157.095 196.598 157.569 197.003L159.02 195.305ZM157.977 197.352C158.915 198.153 160.325 198.043 161.126 197.105C161.928 196.167 161.817 194.757 160.879 193.956L157.977 197.352ZM159.02 195.305L160.471 193.607C159.587 192.851 158.271 192.901 157.446 193.72L159.02 195.305ZM146.363 207.878L144.789 209.463C145.66 210.328 147.066 210.328 147.937 209.463L146.363 207.878ZM132 196.894C131.997 196.896 132 196.892 132.013 196.888C132.027 196.883 132.049 196.879 132.074 196.88C132.1 196.881 132.119 196.887 132.13 196.891C132.139 196.895 132.137 196.896 132.131 196.89L135.279 193.72C133.607 192.059 130.877 191.977 129.098 193.498L132 196.894ZM132.004 196.519C132.011 196.526 132.03 196.549 132.046 196.589C132.061 196.628 132.069 196.672 132.067 196.718C132.063 196.82 132.015 196.881 132 196.894L129.098 193.498C127.212 195.109 127.081 197.925 128.856 199.689L132.004 196.519ZM146.299 210.719L132.004 196.519L128.856 199.689L143.151 213.889L146.299 210.719ZM146.363 210.729C146.337 210.729 146.316 210.724 146.303 210.718C146.289 210.713 146.29 210.71 146.299 210.719L143.151 213.889C144.012 214.744 145.18 215.196 146.363 215.196V210.729ZM146.426 210.719C146.435 210.71 146.436 210.713 146.423 210.718C146.409 210.724 146.388 210.729 146.363 210.729V215.196C147.546 215.196 148.714 214.744 149.574 213.889L146.426 210.719ZM160.721 196.519L146.426 210.719L149.574 213.889L163.87 199.689L160.721 196.519ZM160.726 196.894C160.711 196.881 160.662 196.82 160.658 196.718C160.656 196.672 160.664 196.628 160.679 196.589C160.695 196.549 160.714 196.526 160.721 196.519L163.87 199.689C165.645 197.925 165.514 195.109 163.628 193.498L160.726 196.894ZM160.594 196.89C160.588 196.896 160.586 196.895 160.596 196.891C160.606 196.887 160.626 196.881 160.651 196.88C160.677 196.879 160.698 196.883 160.713 196.888C160.725 196.892 160.728 196.896 160.726 196.894L163.628 193.498C161.848 191.977 159.118 192.059 157.446 193.72L160.594 196.89ZM160.879 193.956L160.471 193.607L157.569 197.003L157.977 197.352L160.879 193.956ZM157.569 197.003L157.977 197.352L160.879 193.956L160.471 193.607L157.569 197.003ZM147.937 209.463L160.594 196.89L157.446 193.72L144.789 206.294L147.937 209.463ZM132.131 196.89L144.789 209.463L147.937 206.294L135.279 193.72L132.131 196.89Z" fill="#5A84FF"/>
<path d="M139.239 66.2858H135.504V85.6606H139.239V66.2858ZM116.917 79.0953L118.843 82.0424C121.95 80.9774 124.066 78.789 125.262 76.0753C126.444 78.5993 128.501 80.5835 131.507 81.5756L133.403 78.6577C129.041 77.2571 127.159 73.8285 127.188 70.3125V67.7447H123.307V70.3125C123.307 73.9161 121.367 77.6072 116.917 79.0953ZM121.44 92.3426H139.939V89.3663H125.204V83.7932H121.44V92.3426ZM157.972 69.0286H152.661V66.1399H148.897V69.0286H143.557V71.9465H148.897C148.868 74.9519 146.898 77.9865 142.653 79.2121L144.404 82.1008C147.54 81.1962 149.67 79.2558 150.823 76.8048C152.034 78.964 154.149 80.6418 157.184 81.4005L158.906 78.5409C154.631 77.4467 152.647 74.6747 152.603 71.9465H157.972V69.0286ZM147.001 87.7323C147.001 90.9566 150.502 92.8241 156.134 92.8095C161.794 92.8241 165.281 90.9566 165.296 87.7323C165.281 84.5518 161.794 82.7573 156.134 82.7427C150.502 82.7573 147.001 84.5518 147.001 87.7323ZM150.706 87.7323C150.706 86.3171 152.618 85.6023 156.134 85.6023C159.723 85.6023 161.576 86.3171 161.59 87.7323C161.576 89.1913 159.723 89.9791 156.134 89.9791C152.618 89.9791 150.706 89.1913 150.706 87.7323ZM157.184 76.3525H161.503V82.305H165.208V66.2566H161.503V73.3763H157.184V76.3525ZM199.756 80.9044H175.538V83.8807H185.75V92.8095H189.427V83.8807H199.756V80.9044ZM176.734 76.4401L178.105 79.358C182.73 78.7306 186.042 76.7464 187.662 74.0182C189.266 76.7464 192.607 78.7306 197.276 79.358L198.618 76.4401C193.162 75.7835 190.229 73.1866 189.85 70.5751H197.597V67.6572H177.726V70.5751H185.473C185.079 73.1866 182.103 75.7835 176.734 76.4401ZM225.667 86.6527H215.221V80.6418H211.515V86.6527H201.361V89.629H225.667V86.6527ZM201.945 78.3951L203.52 81.488C208.16 80.6564 211.617 78.1324 213.354 74.8352C215.104 78.147 218.577 80.6418 223.245 81.488L224.821 78.3951C218.752 77.4613 215.323 73.4638 215.338 69.6705V67.7739H211.369V69.6705C211.34 73.42 207.955 77.4613 201.945 78.3951Z" fill="black"/>
<path d="M141.223 265.028H117.005V267.976H127.217V269.668H119.806V272.469H134.6V273.841H119.835V280.873H138.976V278.071H123.482V276.467H138.276V269.668H130.952V267.976H141.223V265.028ZM120.01 263.628H138.159V255.254H120.01V263.628ZM123.657 260.768V258.142H134.454V260.768H123.657ZM167.047 266.925H142.828V269.872H153.07V272.148H145.629V280.756H164.158V272.148H156.776V269.872H167.047V266.925ZM144.958 258.201H148.401V262.256H145.133V265.233H164.712V262.256H161.415V258.201H164.887V255.224H144.958V258.201ZM149.306 277.78V275.037H160.51V277.78H149.306ZM152.136 262.256V258.201H157.68V262.256H152.136ZM180.761 254.874C174.633 254.874 171.073 256.479 171.073 259.397C171.073 262.359 174.633 263.949 180.761 263.949C186.874 263.949 190.404 262.359 190.419 259.397C190.404 256.479 186.874 254.874 180.761 254.874ZM168.651 268.151H192.87V265.204H168.651V268.151ZM171.453 272.411H186.246V273.87H171.482V280.873H190.623V278.071H175.129V276.467H189.923V269.697H171.453V272.411ZM174.983 259.397C174.969 258.215 176.865 257.588 180.761 257.588C184.685 257.588 186.567 258.215 186.567 259.397C186.567 260.695 184.685 261.206 180.761 261.206C176.865 261.206 174.969 260.695 174.983 259.397ZM208.685 256.362C204.658 256.362 201.77 260.024 201.799 265.816C201.77 271.652 204.658 275.299 208.685 275.299C212.391 275.299 215.134 272.177 215.527 267.071H220.094V281.106H223.77V254.495H220.094V264.095H215.484C214.958 259.309 212.274 256.362 208.685 256.362ZM205.359 265.816C205.344 261.877 206.701 259.718 208.685 259.718C210.684 259.718 212.011 261.877 212.011 265.816C212.011 269.77 210.684 271.929 208.685 271.915C206.701 271.929 205.344 269.77 205.359 265.816ZM250.207 269.96H242.27V267.888H238.535V269.96H230.569V272.79H250.207V269.96ZM227.622 266.983H228.906C231.197 266.983 232.86 266.954 235.092 266.517L234.859 263.599C233.575 263.876 232.437 264.007 231.24 264.066V258.463H234.596V255.575H227.622V266.983ZM232.524 277.313C232.51 279.764 235.442 281.077 240.344 281.077C245.232 281.077 248.164 279.764 248.164 277.313C248.164 274.935 245.232 273.593 240.344 273.578C235.442 273.593 232.51 274.935 232.524 277.313ZM235.821 266.983H237.251C240.753 266.983 242.343 266.94 244.196 266.517L243.933 263.599C242.562 263.92 241.38 264.036 239.498 264.08V258.463H243.262V255.575H235.821V266.983ZM236.493 277.313C236.493 276.51 237.849 276.16 240.344 276.146C242.795 276.16 244.123 276.51 244.137 277.313C244.123 278.174 242.795 278.538 240.344 278.538C237.849 278.538 236.493 278.174 236.493 277.313ZM242.533 262.461H246.151V268.647H249.798V254.495H246.151V259.63H242.533V262.461ZM276.03 254.495H272.529V281.048H276.03V254.495ZM252.687 272.907L254.788 275.533C258.566 273.344 261.032 270.718 262.549 267.684H266.897V279.881H270.369V255.078H266.897V264.737H263.702C264.344 262.548 264.621 260.185 264.621 257.646H254.146V260.652H260.93C260.419 265.86 258.056 269.726 252.687 272.907ZM308.156 254.495H304.421V264.708H299.636V267.684H304.421V281.106H308.156V254.495ZM285.601 273.228L287.556 276.087C290.59 274.774 292.691 272.075 293.829 268.866C294.996 271.886 297.112 274.424 300.132 275.679L302.116 272.819C297.783 270.937 295.653 266.648 295.667 262.811V261.79H301.066V258.813H295.697V255.078H291.962V258.813H286.447V261.79H291.962V262.811C291.947 266.794 289.875 271.317 285.601 273.228ZM333.804 254.495H330.099V281.106H333.804V254.495ZM312.941 259.718H321.783V264.007H312.971V274.891H315.363C320.207 274.891 324.161 274.73 328.523 273.957L328.202 270.952C324.307 271.594 320.878 271.798 316.822 271.827V266.954H325.576V256.712H312.941V259.718ZM358.431 254.437H354.697V268.822H358.431V263.19H362.02V260.214H358.431V254.437ZM337.364 259.309H353.121V256.479H347.11V254.32H343.404V256.479H337.364V259.309ZM338.648 264.299C338.648 267.013 341.289 268.632 345.243 268.647C349.226 268.632 351.779 267.013 351.779 264.299C351.779 261.644 349.226 259.966 345.243 259.951C341.289 259.966 338.648 261.644 338.648 264.299ZM340.807 272.586H354.726V274.074H340.866V280.873H359.19V278.13H344.513V276.613H358.431V269.901H340.807V272.586ZM342.295 264.299C342.281 263.176 343.404 262.563 345.243 262.577C347.095 262.563 348.248 263.176 348.248 264.299C348.248 265.437 347.095 265.977 345.243 265.991C343.404 265.977 342.281 265.437 342.295 264.299ZM384.459 254.495H380.724V281.048H384.459V267.976H387.99V264.912H384.459V254.495ZM362.662 273.344L365.58 275.416C370.336 270.193 371.095 264.503 371.124 257.209H363.83V260.243H367.564C367.331 265.539 366.281 269.42 362.662 273.344ZM370.161 275.066L373.108 277.138C377.806 271.36 378.463 264.78 378.477 257.209H372V260.243H374.961C374.757 266.079 373.765 270.631 370.161 275.066ZM413.317 274.891H407.919V268.311C409.918 267.071 411.114 265.218 411.129 262.928C411.114 258.624 406.869 255.793 401.12 255.779C395.343 255.793 391.141 258.624 391.141 262.928C391.141 265.262 392.381 267.144 394.438 268.384V274.891H389.011V277.955H413.317V274.891ZM394.818 262.928C394.818 260.258 397.312 258.711 401.12 258.726C404.87 258.711 407.438 260.258 407.452 262.928C407.438 265.525 404.87 267.129 401.12 267.129C397.312 267.129 394.818 265.525 394.818 262.928ZM398.115 274.891V269.741C399.049 269.916 400.055 270.018 401.12 270.018C402.185 270.018 403.207 269.916 404.155 269.726V274.891H398.115ZM419.474 271.71V272.031H423.326V271.71C423.34 269.668 424.07 268.72 425.718 267.742C427.629 266.59 428.87 265.072 428.87 262.665C428.87 259.061 425.995 256.946 421.925 256.946C418.19 256.946 415.141 258.915 415.068 263.015H419.211C419.27 261.308 420.539 260.404 421.896 260.389C423.311 260.404 424.449 261.352 424.434 262.811C424.449 264.153 423.471 265.058 422.217 265.875C420.466 266.969 419.488 268.078 419.474 271.71ZM419.036 276.175C419.007 277.532 420.116 278.626 421.487 278.626C422.786 278.626 423.909 277.532 423.909 276.175C423.909 274.833 422.786 273.738 421.487 273.753C420.116 273.738 419.007 274.833 419.036 276.175Z" fill="#1F41FF"/>
<circle cx="440.675" cy="249.845" r="4.48189" fill="#1F41FF"/>
<path d="M125.566 123.608V119.59H123.045V123.608C123.032 127.967 120.602 132.497 116.952 134.243L118.528 136.266C121.246 134.861 123.294 131.998 124.331 128.61C125.369 131.827 127.391 134.48 130.056 135.819L131.58 133.823C127.982 132.208 125.566 127.915 125.566 123.608ZM128.98 127.468H134.232V141.203H136.7V117.62H134.232V125.446H128.98V127.468ZM151.039 117.883C145.734 117.87 142.622 119.327 142.635 121.927C142.622 124.566 145.734 125.998 151.039 125.998C156.344 125.998 159.429 124.566 159.443 121.927C159.429 119.327 156.344 117.87 151.039 117.883ZM140.324 129.359H149.778V131.381H142.898V133.246H156.606V135.084H142.924V140.914H159.731V138.997H145.367V136.896H159.075V131.381H152.273V129.359H161.78V127.389H140.324V129.359ZM145.235 121.927C145.222 120.548 147.297 119.761 151.039 119.747C154.807 119.761 156.882 120.548 156.869 121.927C156.882 123.385 154.807 124.12 151.039 124.133C147.297 124.12 145.222 123.385 145.235 121.927ZM172.205 123.608V119.59H169.684V123.608C169.684 128.098 167.085 132.602 163.382 134.243L164.905 136.344C167.728 134.966 169.894 132.129 170.984 128.676C172.087 131.893 174.228 134.532 176.932 135.819L178.429 133.85C174.779 132.235 172.179 127.901 172.205 123.608ZM180.556 141.203H183.051V117.62H180.556V141.203ZM214.827 128.519H193.372V130.541H202.852V132.799C198.48 133.022 195.919 134.48 195.919 136.948C195.919 139.614 198.965 141.111 204.086 141.098C209.142 141.111 212.188 139.614 212.201 136.948C212.188 134.48 209.627 133.035 205.321 132.799V130.541H214.827V128.519ZM194.501 125.315L195.368 127.284C199.451 126.812 202.8 125.092 204.099 122.597C205.373 125.092 208.748 126.812 212.831 127.284L213.724 125.315C209.417 124.881 206.108 122.977 205.767 120.693H212.91V118.697H195.341V120.693H202.406C202.064 122.964 198.729 124.881 194.501 125.315ZM198.44 136.948C198.427 135.491 200.489 134.703 204.086 134.69C207.632 134.703 209.706 135.491 209.706 136.948C209.706 138.38 207.632 139.207 204.086 139.181C200.489 139.207 198.427 138.38 198.44 136.948ZM235.337 119.091H219.239V121.139H232.869V121.165C232.855 123.358 232.855 125.814 232.159 129.175H216.613V131.223H226.014V141.176H228.535V131.223H238.068V129.175H234.681C235.337 125.827 235.337 123.398 235.337 121.165V119.091ZM254.665 122.636V122.347H259.786V120.351H254.691V117.515H252.197V120.351H247.076V122.347H252.197V122.636C252.197 125.669 249.991 128.479 246.419 129.622L247.601 131.539C250.411 130.659 252.459 128.729 253.483 126.3C254.56 128.479 256.609 130.16 259.34 130.935L260.521 128.991C256.937 127.993 254.665 125.407 254.665 122.636ZM250.201 136.738C250.188 139.509 253.221 141.111 258.158 141.098C263.082 141.111 266.102 139.509 266.115 136.738C266.102 133.981 263.082 132.418 258.158 132.405C253.221 132.418 250.188 133.981 250.201 136.738ZM252.669 136.738C252.656 135.215 254.705 134.349 258.158 134.349C261.611 134.349 263.633 135.215 263.646 136.738C263.633 138.261 261.611 139.167 258.158 139.181C254.705 139.167 252.656 138.261 252.669 136.738ZM259.051 126.26H263.541V131.88H266.036V117.62H263.541V124.212H259.051V126.26ZM289.881 117.62H287.518V141.15H289.881V117.62ZM269.529 134.349L271 136.134C275.438 133.495 277.946 130.055 279.088 126.103H282.712V129.937H278.694V131.985H282.712V139.995H285.076V118.224H282.712V124.054H279.548C279.731 122.912 279.823 121.743 279.823 120.535H270.684V122.584H277.355C276.921 127.429 274.532 131.381 269.529 134.349ZM301.147 123.214V122.662H306.268V120.64H301.174V117.778H298.679V120.64H293.558V122.662H298.679V123.214C298.679 126.378 296.499 129.28 292.901 130.436L294.109 132.379C296.893 131.46 298.928 129.53 299.952 127.074C301.029 129.372 303.064 131.158 305.769 132.011L306.977 130.042C303.366 128.912 301.147 126.181 301.147 123.214ZM297.234 140.651H313.149V138.629H299.729V133.613H297.234V140.651ZM305.454 126.785H310.024V135.163H312.518V117.646H310.024V124.763H305.454V126.785ZM337.676 136.239H328.091V132.116H335.602V130.068H321.237V126.628H335.05V119.275H318.716V121.323H332.582V124.632H318.768V132.116H325.623V136.239H316.142V138.34H337.676V136.239ZM353.985 119.905H351.148L346.421 123.004V125.761L350.965 122.794H351.07V138.918H353.985V119.905ZM365.434 139.181C369.833 139.181 372.407 135.635 372.42 129.411C372.407 123.227 369.794 119.642 365.434 119.642C361.062 119.642 358.449 123.227 358.449 129.411C358.449 135.635 361.036 139.181 365.434 139.181ZM361.338 129.411C361.338 124.684 362.874 122.098 365.434 122.085C367.982 122.098 369.531 124.684 369.531 129.411C369.531 134.152 367.995 136.686 365.434 136.686C362.861 136.686 361.325 134.152 361.338 129.411ZM382.031 139.181C386.43 139.181 389.004 135.635 389.017 129.411C389.004 123.227 386.391 119.642 382.031 119.642C377.659 119.642 375.046 123.227 375.046 129.411C375.046 135.635 377.633 139.181 382.031 139.181ZM377.935 129.411C377.935 124.684 379.471 122.098 382.031 122.085C384.579 122.098 386.128 124.684 386.128 129.411C386.128 134.152 384.592 136.686 382.031 136.686C379.458 136.686 377.922 134.152 377.935 129.411ZM394.716 137.106H391.774L390.382 144.354H392.615L394.716 137.106ZM412.573 123.608V119.59H410.052V123.608C410.052 128.098 407.452 132.602 403.749 134.243L405.272 136.344C408.096 134.966 410.262 132.129 411.352 128.676C412.455 131.893 414.595 134.532 417.3 135.819L418.797 133.85C415.147 132.235 412.547 127.901 412.573 123.608ZM420.924 141.203H423.419V117.62H420.924V141.203ZM445.82 120.01H429.485V122.058H443.351V122.531C443.351 125.499 443.351 128.952 442.406 133.666L444.953 133.902C445.82 128.873 445.82 125.577 445.82 122.531V120.01ZM427.174 137.815H448.63V135.74H427.174V137.815ZM469.954 117.62H467.459V141.15H469.954V117.62ZM451.86 135.163H453.829C457.545 135.176 461.327 134.887 465.489 134.033L465.148 131.933C461.379 132.694 457.768 132.996 454.328 133.009V119.905H451.86V135.163ZM493.273 117.62H490.805V124.947H486.209V126.995H490.805V129.858H486.209V131.88H490.805V141.203H493.273V117.62ZM473.656 134.716L475.022 136.633C477.727 135.386 479.788 132.76 480.812 129.648C481.863 132.602 483.938 135.084 486.603 136.266L488.021 134.349C484.41 132.76 482.007 128.899 482.007 125.183V123.634H487.155V121.638H482.06V118.093H479.565V121.638H474.313V123.634H479.539V125.183C479.552 129.057 477.215 133.075 473.656 134.716ZM508.977 119.695H497.895V135.583H499.786C504.132 135.57 507.257 135.452 510.895 134.848L510.658 132.825C507.257 133.39 504.342 133.534 500.416 133.561V128.282H508.505V126.286H500.416V121.743H508.977V119.695ZM512.733 141.15H515.228V128.991H519.009V126.89H515.228V117.62H512.733V141.15ZM539.808 117.646H537.287V133.639H532.087V135.53H537.287V141.15H539.808V117.646ZM520.033 129.884L520.375 131.959C522.187 131.959 524.235 131.933 526.389 131.854V140.415H528.883V131.736C531.142 131.591 533.466 131.355 535.711 130.961L535.58 129.123C530.42 129.845 524.498 129.858 520.033 129.884ZM521.767 123.424C521.78 126.26 524.248 128.085 527.78 128.098C531.26 128.085 533.742 126.26 533.742 123.424C533.742 120.64 531.26 118.723 527.78 118.723C524.248 118.723 521.78 120.64 521.767 123.424ZM524.13 123.424C524.117 121.769 525.614 120.653 527.78 120.64C529.881 120.653 531.365 121.769 531.378 123.424C531.365 125.105 529.868 126.194 527.78 126.181C525.614 126.194 524.117 125.105 524.13 123.424ZM557.298 119.642C553.162 119.616 550.47 122.452 550.47 126.076C550.47 129.713 553.201 132.326 556.615 132.326C558.663 132.326 560.449 131.355 561.473 129.753H561.71C561.683 134.099 559.963 136.646 557.035 136.66C555.118 136.646 553.884 135.53 553.49 133.928H550.628C551.087 137.014 553.529 139.181 557.035 139.181C561.592 139.181 564.467 135.399 564.467 128.729C564.454 121.769 560.791 119.669 557.298 119.642ZM553.28 126.024C553.267 123.844 555 122.058 557.298 122.058C559.622 122.058 561.316 123.936 561.316 125.998C561.316 128.098 559.543 129.976 557.245 129.963C554.934 129.976 553.293 128.23 553.28 126.024ZM588.155 129.438H566.699V131.486H588.155V129.438ZM567.829 126.208L568.616 128.125C572.661 127.744 575.943 126.378 577.414 124.186C578.871 126.378 582.167 127.744 586.238 128.125L586.999 126.208C582.325 125.827 579.081 124.12 578.806 121.848H586.001V119.852H578.648V117.594H576.18V119.852H568.853V121.848H576.022C575.72 124.12 572.49 125.827 567.829 126.208ZM569.247 137.185C569.247 139.732 572.267 141.111 577.414 141.098C582.535 141.111 585.515 139.732 585.529 137.185C585.515 134.637 582.535 133.246 577.414 133.246C572.267 133.246 569.247 134.637 569.247 137.185ZM571.768 137.185C571.755 135.845 573.777 135.11 577.414 135.11C580.999 135.11 583.034 135.845 583.034 137.185C583.034 138.524 580.999 139.233 577.414 139.207C573.777 139.233 571.755 138.524 571.768 137.185Z" fill="black"/>
<circle cx="137.133" cy="332.149" r="14.9396" fill="#1F41FF"/>
<circle cx="137.133" cy="332.15" r="7.46982" fill="white"/>
<path d="M184.508 320.877H182.013V327.967H177.129V330.042H182.013V338.209H184.508V320.877ZM165.232 333.587L166.283 335.583C173.045 333.403 177.26 328.782 177.286 322.636H166.44V324.711H174.542C174.03 328.703 170.472 331.893 165.232 333.587ZM169.355 343.882H185.112V341.86H171.876V336.424H169.355V343.882ZM209.587 330.594H188.132V332.589H197.586V334.638H190.706V336.555H204.414V338.341H190.732V344.144H207.539V342.227H193.174V340.153H206.882V334.638H200.081V332.589H209.587V330.594ZM190.889 328.86H206.83V321.612H190.889V328.86ZM193.332 326.891V323.582H204.335V326.891H193.332ZM236.426 320.877H233.931V334.113H236.426V328.466H239.84V326.444H236.426V320.877ZM218.306 327.731C218.28 331.001 220.958 333.259 224.556 333.272C228.167 333.259 230.806 331.001 230.833 327.731C230.806 324.435 228.167 322.164 224.556 322.164C220.958 322.164 218.28 324.435 218.306 327.731ZM220.748 327.731C220.722 325.63 222.35 324.238 224.556 324.265C226.762 324.238 228.377 325.63 228.39 327.731C228.377 329.806 226.762 331.184 224.556 331.198C222.35 331.184 220.722 329.806 220.748 327.731ZM221.011 344.013H237.293V341.991H233.853V337.29H236.978V335.294H221.195V337.29H224.399V341.991H221.011V344.013ZM226.815 341.991V337.29H231.41V341.991H226.815ZM261.427 320.851H259.037V344.381H261.427V320.851ZM241.442 331.014C241.442 336.122 243.438 339.325 246.51 339.312C249.425 339.325 251.382 336.476 251.605 331.88H254.257V343.225H256.647V321.297H254.257V329.858H251.592C251.303 325.446 249.373 322.728 246.51 322.742C243.438 322.728 241.442 325.919 241.442 331.014ZM243.753 331.014C243.753 327.258 244.817 325.066 246.51 325.079C248.244 325.066 249.32 327.258 249.32 331.014C249.32 334.756 248.244 336.962 246.51 336.949C244.817 336.962 243.753 334.756 243.753 331.014ZM291.128 320.851H288.738V330.278H285.718V321.323H283.381V343.173H285.718V332.327H288.738V344.381H291.128V320.851ZM272.089 338.393H273.612C276.146 338.406 278.838 338.236 282.068 337.658L281.805 335.478C279.127 336.003 276.75 336.174 274.584 336.2V323.634H272.089V338.393ZM313.818 320.851H311.349V326.103H306.885V328.151H311.349V332.511H306.753V334.585H311.349V344.433H313.818V320.851ZM295.041 324.947H303.024V329.543H295.093V338.997H296.879C300.595 338.997 303.602 338.892 307.279 338.314L307.069 336.266C303.72 336.752 300.91 336.909 297.588 336.922V331.513H305.467V322.925H295.041V324.947ZM338.923 334.113H317.468V336.135H326.922V344.354H329.364V336.135H338.923V334.113ZM318.676 330.357L319.621 332.327C323.429 331.723 326.751 329.819 328.196 327.14C329.627 329.819 332.962 331.723 336.822 332.327L337.741 330.357C333.29 329.753 329.666 327.14 329.627 324.238H336.901V322.243H319.464V324.238H326.791C326.712 327.14 323.062 329.753 318.676 330.357ZM347.878 327.285V323.004H345.462V327.39C345.475 331.395 343.716 335.557 340.394 337.553L341.943 339.417C344.228 338.025 345.856 335.478 346.71 332.497C347.524 335.216 349.007 337.566 351.213 338.892L352.605 336.975C349.454 335.045 347.878 331.04 347.878 327.285ZM350.058 331.198H353.708V343.225H356.072V321.297H353.708V329.123H350.058V331.198ZM358.566 344.381H360.956V320.851H358.566V344.381ZM385.484 339.365H380.337V333.167C382.228 332.104 383.357 330.436 383.357 328.361C383.357 324.659 379.72 322.229 374.665 322.216C369.622 322.229 365.985 324.659 365.998 328.361C365.985 330.475 367.167 332.156 369.097 333.22V339.365H363.95V341.439H385.484V339.365ZM368.414 328.361C368.414 325.827 370.975 324.212 374.665 324.212C378.328 324.212 380.928 325.827 380.941 328.361C380.928 330.882 378.328 332.524 374.665 332.537C370.975 332.524 368.414 330.882 368.414 328.361ZM371.566 339.365V334.139C372.511 334.362 373.562 334.48 374.665 334.48C375.794 334.48 376.857 334.362 377.816 334.139V339.365H371.566Z" fill="black"/>
<circle cx="137.133" cy="499.473" r="14.9396" fill="#D3D3D3"/>
<circle cx="137.133" cy="499.474" r="7.46982" fill="white"/>
<path d="M178.363 490.591H165.18V492.639H167.596V503.905C166.545 503.918 165.534 503.932 164.602 503.932L164.891 506.006C169.014 505.993 174.568 505.914 179.492 505.087L179.361 503.275C178.258 503.406 177.116 503.511 175.947 503.603V492.639H178.363V490.591ZM170.012 503.866V492.639H173.531V503.748C172.349 503.8 171.167 503.84 170.012 503.866ZM180.726 511.705H183.221V499.493H187.003V497.445H183.221V488.175H180.726V511.705ZM207.224 500.701H193.358V497.288H206.489V495.318H193.358V492.14H206.988V490.118H190.837V502.697H207.224V500.701ZM188.132 508.737H209.666V506.689H188.132V508.737ZM231.016 488.175H228.522V495.764H221.51V497.813H228.522V511.757H231.016V488.175ZM212.634 506.085H214.524C218.214 506.098 221.628 505.888 225.423 505.113L225.108 503.065C221.681 503.748 218.516 503.958 215.155 504.01V490.775H212.634V506.085ZM254.1 488.175H251.631V501.463H254.1V488.175ZM236.059 499.887H238.002C242.125 499.874 245.67 499.598 249.557 498.811L249.215 496.736C245.67 497.498 242.348 497.76 238.553 497.786V489.54H236.059V499.887ZM238.685 511.39H254.1V502.54H238.685V511.39ZM241.127 509.394V504.509H251.658V509.394H241.127ZM277.341 488.175H274.846V511.757H277.341V488.175ZM258.669 498.18C258.669 503.262 261.204 506.466 264.762 506.453C268.255 506.466 270.828 503.262 270.828 498.18C270.828 493.151 268.255 489.948 264.762 489.934C261.204 489.948 258.669 493.151 258.669 498.18ZM261.085 498.18C261.072 494.491 262.569 492.18 264.762 492.167C266.915 492.18 268.412 494.491 268.412 498.18C268.412 501.923 266.915 504.22 264.762 504.22C262.569 504.22 261.072 501.923 261.085 498.18ZM305.992 488.175H303.497V511.679H305.992V499.625H309.642V497.55H305.992V488.175ZM287.688 505.402L289.08 507.346C296.827 503.525 299.82 497.445 299.847 490.643H288.87V492.718H297.299C296.787 498.207 293.583 502.461 287.688 505.402ZM330.546 488.175H328.051V494.74H323.534V496.815H328.051V499.73H323.534V501.804H328.051V511.705H330.546V488.175ZM310.693 505.323L312.347 507.214C314.973 505.77 317.087 502.802 318.111 499.336C319.175 502.5 321.276 505.297 323.849 506.636L325.346 504.719C321.827 502.96 319.306 498.482 319.306 494.793V492.587H324.48V490.538H311.585V492.587H316.785V494.793C316.772 499.034 314.251 503.564 310.693 505.323ZM352.474 488.175H349.979V511.679H352.474V499.625H356.124V497.55H352.474V488.175ZM334.17 505.402L335.562 507.346C343.309 503.525 346.303 497.445 346.329 490.643H335.352V492.718H343.782C343.269 498.207 340.066 502.461 334.17 505.402ZM364.554 494.609V490.328H362.138V494.714C362.151 498.719 360.392 502.881 357.07 504.877L358.619 506.742C360.904 505.35 362.532 502.802 363.385 499.822C364.199 502.54 365.683 504.89 367.889 506.216L369.281 504.299C366.13 502.369 364.554 498.364 364.554 494.609ZM366.734 498.522H370.384V510.549H372.747V488.621H370.384V496.447H366.734V498.522ZM375.242 511.705H377.632V488.175H375.242V511.705ZM402.16 506.689H397.013V500.491C398.903 499.428 400.033 497.76 400.033 495.686C400.033 491.983 396.396 489.554 391.34 489.54C386.298 489.554 382.661 491.983 382.674 495.686C382.661 497.8 383.843 499.48 385.773 500.544V506.689H380.626V508.764H402.16V506.689ZM385.09 495.686C385.09 493.151 387.651 491.536 391.34 491.536C395.004 491.536 397.604 493.151 397.617 495.686C397.604 498.207 395.004 499.848 391.34 499.861C387.651 499.848 385.09 498.207 385.09 495.686ZM388.241 506.689V501.463C389.187 501.686 390.237 501.804 391.34 501.804C392.47 501.804 393.533 501.686 394.492 501.463V506.689H388.241Z" fill="black"/>
<mask id="path-18-inside-1_226_933" fill="white">
<path d="M392.6 332.013C392.6 320.462 401.964 311.098 413.515 311.098H480.743C492.295 311.098 501.659 320.462 501.659 332.013C501.659 343.564 492.295 352.929 480.743 352.929H413.515C401.964 352.929 392.6 343.564 392.6 332.013Z"/>
</mask>
<path d="M392.6 332.013C392.6 320.462 401.964 311.098 413.515 311.098H480.743C492.295 311.098 501.659 320.462 501.659 332.013C501.659 343.564 492.295 352.929 480.743 352.929H413.515C401.964 352.929 392.6 343.564 392.6 332.013Z" fill="white"/>
<path d="M413.515 312.592H480.743V309.604H413.515V312.592ZM480.743 351.435H413.515V354.423H480.743V351.435ZM413.515 351.435C402.789 351.435 394.094 342.739 394.094 332.013H391.106C391.106 344.39 401.139 354.423 413.515 354.423V351.435ZM500.165 332.013C500.165 342.739 491.47 351.435 480.743 351.435V354.423C493.12 354.423 503.153 344.39 503.153 332.013H500.165ZM480.743 312.592C491.47 312.592 500.165 321.287 500.165 332.013H503.153C503.153 319.637 493.12 309.604 480.743 309.604V312.592ZM413.515 309.604C401.139 309.604 391.106 319.637 391.106 332.013H394.094C394.094 321.287 402.789 312.592 413.515 312.592V309.604Z" fill="#5980F9" mask="url(#path-18-inside-1_226_933)"/>
<g clip-path="url(#clip0_226_933)">
<path d="M419.562 341.759C424.905 341.759 429.237 337.427 429.237 332.083C429.237 326.74 424.905 322.408 419.562 322.408C414.218 322.408 409.887 326.74 409.887 332.083C409.887 337.427 414.218 341.759 419.562 341.759Z" fill="#5980F9"/>
<path d="M415.01 328.953L417.286 335.498L419.563 329.38" stroke="white" stroke-width="1.49396" stroke-miterlimit="10" stroke-linecap="round" stroke-linejoin="round"/>
<path d="M419.562 329.38L421.839 335.498L424.116 328.953" stroke="white" stroke-width="1.49396" stroke-miterlimit="10" stroke-linecap="round" stroke-linejoin="round"/>
<path d="M413.871 330.945H425.111" stroke="white" stroke-width="1.49396" stroke-miterlimit="10" stroke-linecap="round" stroke-linejoin="round"/>
</g>
<path d="M435.708 333.839H437.704C437.678 332.806 438.115 332.395 438.702 332.386C439.122 332.395 439.341 332.587 439.857 333.034C440.733 333.804 441.381 334.128 442.203 334.119C443.823 334.128 444.952 332.85 444.865 330.513H442.869C442.904 331.511 442.466 331.957 441.871 331.966C441.442 331.957 441.179 331.73 440.698 331.318C439.787 330.513 439.157 330.233 438.369 330.233C436.706 330.233 435.629 331.502 435.708 333.839ZM451.062 336.273H457.225V338.514H459.728V336.273H461.339V334.154H459.728V325.838H456.419L451.062 334.189V336.273ZM453.723 334.154V334.049L457.137 328.727H457.26V334.154H453.723ZM467.974 338.689C471.143 338.689 473.069 336.343 473.069 332.176C473.069 328.036 471.134 325.663 467.974 325.663C464.814 325.663 462.88 328.036 462.88 332.176C462.88 336.325 464.797 338.689 467.974 338.689ZM465.576 332.176C465.576 329.279 466.512 327.825 467.974 327.817C469.436 327.825 470.382 329.279 470.373 332.176C470.382 335.1 469.445 336.518 467.974 336.518C466.504 336.518 465.558 335.1 465.576 332.176ZM481.788 335.467V336.133C481.796 337.647 482.768 338.943 484.571 338.951C486.357 338.943 487.346 337.647 487.355 336.133V335.467C487.346 333.944 486.383 332.657 484.571 332.666C482.794 332.657 481.796 333.953 481.788 335.467ZM475.292 328.885C475.292 330.39 476.264 331.677 478.076 331.668C479.862 331.677 480.851 330.408 480.842 328.885V328.219C480.851 326.687 479.888 325.401 478.076 325.401C476.308 325.401 475.292 326.687 475.292 328.219V328.885ZM476.098 338.514H477.708L486.427 325.838H484.816L476.098 338.514ZM477.078 328.885V328.219C477.087 327.615 477.323 326.968 478.076 326.976C478.855 326.968 479.057 327.607 479.057 328.219V328.885C479.057 329.489 478.829 330.11 478.076 330.11C477.332 330.11 477.087 329.489 477.078 328.885ZM483.573 336.133V335.467C483.573 334.863 483.827 334.224 484.571 334.224C485.35 334.224 485.561 334.863 485.552 335.467V336.133C485.561 336.745 485.324 337.367 484.571 337.358C483.81 337.367 483.573 336.728 483.573 336.133Z" fill="#5980F9"/>
<rect x="81" width="569" height="620" rx="35.4692" fill="black" fill-opacity="0.5"/>
<g filter="url(#filter0_dd_226_933)">
<rect x="30" y="239" width="670" height="327" rx="24.9608" fill="white"/>
<rect x="68.6759" y="400.587" width="526.541" height="80.4" rx="11.8235" fill="white"/>
<path d="M112.916 429.81H110.674V451.881H112.916V429.81ZM94.1705 439.343C94.1705 444.134 96.0426 447.139 98.9246 447.127C100.809 447.139 102.262 445.871 103.063 443.678H106.265V450.797H108.482V430.229H106.265V435.008H103.05C102.262 432.828 100.809 431.571 98.9246 431.584C96.0426 431.571 94.1705 434.564 94.1705 439.343ZM96.3135 439.343C96.3012 435.821 97.2865 433.764 98.9246 433.776C100.55 433.764 101.585 435.821 101.585 439.343C101.585 442.853 100.55 444.922 98.9246 444.91C97.2865 444.922 96.3012 442.853 96.3135 439.343ZM103.543 436.904H106.265V441.757H103.543C103.666 441.018 103.728 440.205 103.728 439.343C103.728 438.469 103.666 437.656 103.543 436.904ZM118.236 449.96C119.185 449.947 119.973 449.171 119.985 448.211C119.973 447.25 119.185 446.462 118.236 446.462C117.276 446.462 116.475 447.25 116.487 448.211C116.475 449.171 117.276 449.947 118.236 449.96ZM116.512 438.481C116.5 439.442 117.3 440.217 118.261 440.23C119.209 440.217 119.998 439.442 120.01 438.481C119.998 437.52 119.209 436.732 118.261 436.732C117.3 436.732 116.5 437.52 116.512 438.481ZM148.707 441.363H128.508V443.235H137.622V447.299H139.937V443.235H148.707V441.363ZM131.021 451.413H146.465V449.516H133.336V445.378H131.021V451.413ZM131.168 439.417H146.046V430.5H143.706V433.185H133.484V430.5H131.168V439.417ZM133.484 437.545V434.934H143.706V437.545H133.484ZM168.659 429.81H166.319V451.93H168.659V429.81ZM151.564 433.702H159.52V437.988H151.589V446.634H153.461C157.365 446.622 160.69 446.474 164.594 445.821L164.373 443.9C160.678 444.503 157.562 444.676 153.978 444.688V439.86H161.909V431.805H151.564V433.702ZM183.438 431.756V430.549H181V431.756C180.987 434.724 177.416 437.434 173.093 438.013L174.029 439.934C177.613 439.355 180.778 437.483 182.219 434.885C183.66 437.483 186.825 439.355 190.434 439.934L191.345 438.013C187.01 437.434 183.426 434.687 183.438 431.756ZM172.132 444.023H181V451.881H183.29V444.023H192.257V442.102H172.132V444.023ZM212.307 429.81H209.992V438.555H205.041V440.476H209.992V451.881H212.307V429.81ZM193.882 445.944L195.114 447.792C202.602 444.085 205.09 438.567 205.115 432.175H194.868V434.047H202.738C202.331 439.109 199.732 443.087 193.882 445.944ZM223.441 433.875V433.283H228.195V431.387H216.248V433.283H221.101V433.899C221.089 436.966 219.007 439.811 215.559 440.944L216.766 442.816C219.414 441.892 221.347 439.983 222.308 437.569C223.281 439.663 225.116 441.326 227.629 442.126L228.737 440.304C225.387 439.244 223.429 436.683 223.441 433.875ZM218.539 447.693C218.539 450.317 221.36 451.844 225.954 451.832C230.498 451.844 233.269 450.317 233.269 447.693C233.269 445.107 230.498 443.592 225.954 443.604C221.36 443.592 218.539 445.107 218.539 447.693ZM220.879 447.693C220.867 446.252 222.764 445.439 225.954 445.452C229.119 445.439 230.991 446.252 230.979 447.693C230.991 449.171 229.119 449.996 225.954 449.984C222.764 449.996 220.867 449.171 220.879 447.693ZM230.732 443.062H233.072V437.2H236.275V435.279H233.072V429.81H230.732V443.062ZM262.089 429.81H259.749V432.766H254.182C253.148 431.682 251.596 431.042 249.798 431.042C246.423 431.042 243.997 433.173 244.009 436.215C243.997 439.269 246.423 441.351 249.798 441.338C251.584 441.351 253.135 440.722 254.17 439.663H259.749V442.176H262.089V429.81ZM246.251 436.215C246.238 434.281 247.729 432.976 249.798 432.988C251.805 432.976 253.296 434.281 253.296 436.215C253.296 438.148 251.805 439.417 249.798 439.417C247.729 439.417 246.238 438.148 246.251 436.215ZM246.99 451.536H262.533V449.639H259.207V445.058H262.262V443.161H247.211V445.058H250.29V449.639H246.99V451.536ZM252.581 449.639V445.058H256.892V449.639H252.581ZM255.291 434.638H259.749V437.742H255.315C255.451 437.262 255.537 436.757 255.537 436.215C255.537 435.66 255.451 435.131 255.291 434.638ZM284.48 429.81H282.239V451.881H284.48V429.81ZM265.735 439.343C265.735 444.134 267.607 447.139 270.489 447.127C273.223 447.139 275.058 444.467 275.268 440.156H277.755V450.797H279.997V430.229H277.755V438.259H275.255C274.984 434.121 273.174 431.571 270.489 431.584C267.607 431.571 265.735 434.564 265.735 439.343ZM267.903 439.343C267.903 435.821 268.9 433.764 270.489 433.776C272.115 433.764 273.125 435.821 273.125 439.343C273.125 442.853 272.115 444.922 270.489 444.91C268.9 444.922 267.903 442.853 267.903 439.343ZM311.699 443.161H304.654V441.289H302.339V443.161H295.294V444.959H311.699V443.161ZM293.422 440.501H313.62V438.629H304.753V436.584H311.354V434.737H298.471V430.13H296.156V436.584H302.412V438.629H293.422V440.501ZM296.796 448.851C296.784 450.809 299.21 451.844 303.472 451.832C307.758 451.844 310.209 450.809 310.221 448.851C310.209 446.893 307.758 445.846 303.472 445.846C299.21 445.846 296.784 446.893 296.796 448.851ZM299.235 448.851C299.223 447.915 300.75 447.484 303.472 447.496C306.206 447.484 307.77 447.915 307.758 448.851C307.77 449.775 306.206 450.206 303.472 450.206C300.75 450.206 299.223 449.775 299.235 448.851ZM321.158 431.461C317.857 431.473 315.505 434.478 315.517 439.195C315.505 443.962 317.857 446.967 321.158 446.954C324.458 446.967 326.811 443.962 326.823 439.195C326.811 434.478 324.458 431.473 321.158 431.461ZM317.758 439.195C317.746 435.734 319.15 433.567 321.158 433.554C323.202 433.567 324.582 435.734 324.582 439.195C324.582 442.705 323.202 444.861 321.158 444.861C319.15 444.861 317.746 442.705 317.758 439.195ZM330.099 451.881H332.439V440.427H335.986V438.456H332.439V429.81H330.099V451.881ZM357.17 442.25H337.046V444.146H345.913V451.856H348.204V444.146H357.17V442.25ZM338.179 438.727L339.065 440.575C342.637 440.008 345.753 438.222 347.108 435.71C348.45 438.222 351.579 440.008 355.2 440.575L356.062 438.727C351.887 438.161 348.487 435.71 348.45 432.988H355.273V431.116H338.918V432.988H345.79C345.716 435.71 342.292 438.161 338.179 438.727ZM365.57 435.845V431.83H363.304V435.944C363.316 439.7 361.666 443.604 358.55 445.476L360.003 447.225C362.146 445.92 363.673 443.53 364.474 440.735C365.237 443.284 366.629 445.489 368.698 446.733L370.004 444.935C367.048 443.124 365.57 439.368 365.57 435.845ZM367.614 439.515H371.038V450.797H373.255V430.229H371.038V437.569H367.614V439.515ZM375.595 451.881H377.837V429.81H375.595V451.881ZM400.843 447.176H396.015V441.363C397.789 440.365 398.848 438.801 398.848 436.855C398.848 433.382 395.437 431.103 390.695 431.091C385.965 431.103 382.554 433.382 382.566 436.855C382.554 438.838 383.662 440.414 385.473 441.412V447.176H380.645V449.122H400.843V447.176ZM384.832 436.855C384.832 434.478 387.234 432.963 390.695 432.963C394.131 432.963 396.57 434.478 396.582 436.855C396.57 439.22 394.131 440.759 390.695 440.772C387.234 440.759 384.832 439.22 384.832 436.855ZM387.788 447.176V442.274C388.675 442.484 389.66 442.594 390.695 442.594C391.754 442.594 392.752 442.484 393.651 442.274V447.176H387.788ZM404.957 449.96C405.905 449.947 406.694 449.171 406.706 448.211C406.694 447.25 405.905 446.462 404.957 446.462C403.996 446.462 403.196 447.25 403.208 448.211C403.196 449.171 403.996 449.947 404.957 449.96Z" fill="#949494"/>
<rect x="68.6759" y="400.587" width="526.541" height="80.4" rx="11.8235" stroke="#D3D3D3" stroke-width="1.57647"/>
<path d="M94.2751 288.306H68.719V291.416H79.4957V293.201H71.6749V296.157H87.2857V297.604H71.7057V305.025H91.9042V302.069H75.5545V300.376H91.1653V293.201H83.4369V291.416H94.2751V288.306ZM71.8905 286.828H91.0421V277.991H71.8905V286.828ZM75.7393 283.81V281.039H87.1317V283.81H75.7393ZM121.525 290.307H95.9686V293.417H106.776V295.819H98.9245V304.902H118.476V295.819H110.686V293.417H121.525V290.307ZM98.2163 281.101H101.85V285.381H98.401V288.521H119.061V285.381H115.582V281.101H119.246V277.96H98.2163V281.101ZM102.804 301.761V298.867H114.628V301.761H102.804ZM105.791 285.381V281.101H111.641V285.381H105.791ZM135.996 277.591C129.53 277.591 125.774 279.284 125.774 282.363C125.774 285.488 129.53 287.166 135.996 287.166C142.447 287.166 146.172 285.488 146.188 282.363C146.172 279.284 142.447 277.591 135.996 277.591ZM123.218 291.6H148.774V288.49H123.218V291.6ZM126.174 296.096H141.785V297.635H126.205V305.025H146.403V302.069H130.054V300.376H145.664V293.232H126.174V296.096ZM129.9 282.363C129.884 281.116 131.886 280.454 135.996 280.454C140.137 280.454 142.123 281.116 142.123 282.363C142.123 283.733 140.137 284.272 135.996 284.272C131.886 284.272 129.884 283.733 129.9 282.363ZM165.463 279.161C161.214 279.161 158.165 283.025 158.196 289.137C158.165 295.295 161.214 299.144 165.463 299.144C169.373 299.144 172.267 295.849 172.683 290.461H177.502V305.271H181.381V277.19H177.502V287.32H172.637C172.083 282.271 169.25 279.161 165.463 279.161ZM161.952 289.137C161.937 284.98 163.369 282.702 165.463 282.702C167.572 282.702 168.973 284.98 168.973 289.137C168.973 293.309 167.572 295.588 165.463 295.572C163.369 295.588 161.937 293.309 161.952 289.137ZM209.277 293.509H200.902V291.323H196.961V293.509H188.555V296.496H209.277V293.509ZM185.446 290.369H186.8C189.217 290.369 190.972 290.338 193.328 289.876L193.082 286.797C191.727 287.089 190.526 287.228 189.264 287.29V281.378H192.805V278.33H185.446V290.369ZM190.618 301.268C190.603 303.855 193.697 305.24 198.87 305.24C204.028 305.24 207.122 303.855 207.122 301.268C207.122 298.759 204.028 297.343 198.87 297.327C193.697 297.343 190.603 298.759 190.618 301.268ZM194.098 290.369H195.606C199.301 290.369 200.979 290.322 202.935 289.876L202.657 286.797C201.21 287.136 199.963 287.259 197.977 287.305V281.378H201.949V278.33H194.098V290.369ZM194.806 301.268C194.806 300.422 196.238 300.052 198.87 300.037C201.457 300.052 202.858 300.422 202.873 301.268C202.858 302.177 201.457 302.562 198.87 302.562C196.238 302.562 194.806 302.177 194.806 301.268ZM201.18 285.596H204.998V292.124H208.846V277.19H204.998V282.609H201.18V285.596ZM236.527 277.19H232.832V305.21H236.527V277.19ZM211.895 296.619L214.112 299.39C218.099 297.081 220.701 294.31 222.302 291.108H226.89V303.978H230.554V277.806H226.89V287.998H223.518C224.195 285.689 224.488 283.195 224.488 280.516H213.434V283.687H220.593C220.054 289.183 217.56 293.263 211.895 296.619ZM270.427 277.19H266.486V287.967H261.436V291.108H266.486V305.271H270.427V277.19ZM246.626 296.958L248.689 299.975C251.891 298.59 254.108 295.742 255.309 292.355C256.541 295.541 258.773 298.22 261.96 299.544L264.054 296.527C259.481 294.541 257.234 290.015 257.249 285.966V284.888H262.945V281.747H257.28V277.806H253.339V281.747H247.519V284.888H253.339V285.966C253.323 290.169 251.137 294.941 246.626 296.958ZM297.492 277.19H293.582V305.271H297.492V277.19ZM275.477 282.702H284.806V287.228H275.508V298.713H278.032C283.144 298.713 287.316 298.544 291.919 297.728L291.58 294.556C287.47 295.234 283.852 295.449 279.572 295.48V290.338H288.809V279.53H275.477V282.702ZM323.479 277.129H319.538V292.308H323.479V286.366H327.266V283.225H323.479V277.129ZM301.248 282.271H317.875V279.284H311.532V277.006H307.622V279.284H301.248V282.271ZM302.603 287.536C302.603 290.399 305.39 292.108 309.562 292.124C313.765 292.108 316.459 290.399 316.459 287.536C316.459 284.734 313.765 282.964 309.562 282.948C305.39 282.964 302.603 284.734 302.603 287.536ZM304.882 296.28H319.569V297.851H304.943V305.025H324.28V302.131H308.792V300.53H323.479V293.448H304.882V296.28ZM306.452 287.536C306.437 286.351 307.622 285.704 309.562 285.719C311.517 285.704 312.733 286.351 312.733 287.536C312.733 288.737 311.517 289.306 309.562 289.322C307.622 289.306 306.437 288.737 306.452 287.536ZM350.944 277.19H347.003V305.21H350.944V291.416H354.67V288.183H350.944V277.19ZM327.944 297.081L331.023 299.267C336.042 293.756 336.842 287.751 336.873 280.054H329.175V283.256H333.117C332.87 288.845 331.762 292.94 327.944 297.081ZM335.857 298.898L338.967 301.084C343.924 294.987 344.617 288.044 344.632 280.054H337.797V283.256H340.922C340.706 289.414 339.66 294.217 335.857 298.898ZM381.396 298.713H375.7V291.77C377.809 290.461 379.071 288.506 379.087 286.089C379.071 281.547 374.591 278.561 368.526 278.545C362.429 278.561 357.995 281.547 357.995 286.089C357.995 288.552 359.304 290.538 361.475 291.847V298.713H355.748V301.946H381.396V298.713ZM361.875 286.089C361.875 283.271 364.507 281.64 368.526 281.655C372.482 281.64 375.192 283.271 375.207 286.089C375.192 288.829 372.482 290.523 368.526 290.523C364.507 290.523 361.875 288.829 361.875 286.089ZM365.354 298.713V293.278C366.339 293.463 367.402 293.571 368.526 293.571C369.649 293.571 370.727 293.463 371.728 293.263V298.713H365.354ZM387.893 295.357V295.695H391.957V295.357C391.972 293.201 392.742 292.201 394.482 291.169C396.499 289.953 397.807 288.352 397.807 285.812C397.807 282.009 394.774 279.777 390.479 279.777C386.538 279.777 383.32 281.855 383.243 286.181H387.616C387.677 284.38 389.017 283.425 390.448 283.41C391.942 283.425 393.143 284.426 393.127 285.966C393.143 287.382 392.111 288.337 390.787 289.199C388.94 290.353 387.908 291.523 387.893 295.357ZM387.431 300.068C387.4 301.499 388.57 302.654 390.017 302.654C391.387 302.654 392.573 301.499 392.573 300.068C392.573 298.651 391.387 297.497 390.017 297.512C388.57 297.497 387.4 298.651 387.431 300.068Z" fill="#1F41FF"/>
<circle cx="410.923" cy="272.106" r="4.72941" fill="#1F41FF"/>
<circle cx="89.9581" cy="359.284" r="15.7647" fill="#1F41FF"/>
<circle cx="89.958" cy="359.285" r="7.88235" fill="white"/>
<path d="M139.949 346.337H137.317V353.819H132.162V356.008H137.317V364.626H139.949V346.337ZM119.609 359.749L120.718 361.855C127.853 359.555 132.301 354.678 132.329 348.194H120.884V350.383H129.433C128.893 354.595 125.138 357.962 119.609 359.749ZM123.96 370.612H140.587V368.478H126.62V362.742H123.96V370.612ZM166.414 356.59H143.774V358.696H153.75V360.858H146.489V362.881H160.955V364.765H146.517V370.889H164.252V368.866H149.094V366.677H163.559V360.858H156.382V358.696H166.414V356.59ZM146.683 354.761H163.504V347.113H146.683V354.761ZM149.26 352.683V349.191H160.871V352.683H149.26ZM194.735 346.337H192.102V360.304H194.735V354.346H198.337V352.212H194.735V346.337ZM175.614 353.57C175.586 357.02 178.413 359.403 182.209 359.417C186.02 359.403 188.805 357.02 188.832 353.57C188.805 350.092 186.02 347.695 182.209 347.695C178.413 347.695 175.586 350.092 175.614 353.57ZM178.191 353.57C178.163 351.353 179.881 349.884 182.209 349.912C184.537 349.884 186.241 351.353 186.255 353.57C186.241 355.759 184.537 357.214 182.209 357.228C179.881 357.214 178.163 355.759 178.191 353.57ZM178.468 370.751H195.649V368.617H192.019V363.657H195.317V361.551H178.662V363.657H182.043V368.617H178.468V370.751ZM184.592 368.617V363.657H189.442V368.617H184.592ZM221.116 346.309H218.594V371.139H221.116V346.309ZM200.028 357.034C200.028 362.423 202.134 365.804 205.376 365.79C208.452 365.804 210.516 362.798 210.752 357.948H213.551V369.919H216.073V346.78H213.551V355.814H210.738C210.433 351.159 208.397 348.291 205.376 348.304C202.134 348.291 200.028 351.658 200.028 357.034ZM202.466 357.034C202.466 353.071 203.589 350.757 205.376 350.771C207.205 350.757 208.341 353.071 208.341 357.034C208.341 360.982 207.205 363.31 205.376 363.296C203.589 363.31 202.466 360.982 202.466 357.034ZM252.458 346.309H249.936V356.258H246.749V346.808H244.283V369.864H246.749V358.419H249.936V371.139H252.458V346.309ZM232.367 364.82H233.974C236.648 364.834 239.489 364.654 242.897 364.045L242.62 361.745C239.794 362.299 237.286 362.479 234.999 362.507V349.247H232.367V364.82ZM276.4 346.309H273.795V351.852H269.084V354.013H273.795V358.613H268.946V360.802H273.795V371.194H276.4V346.309ZM256.587 350.632H265.011V355.482H256.642V365.458H258.526C262.448 365.458 265.621 365.347 269.5 364.737L269.278 362.576C265.745 363.089 262.78 363.255 259.275 363.269V357.56H267.588V348.498H256.587V350.632ZM302.892 360.304H280.252V362.437H290.228V371.111H292.805V362.437H302.892V360.304ZM281.527 356.341L282.525 358.419C286.543 357.782 290.048 355.773 291.572 352.946C293.083 355.773 296.602 357.782 300.675 358.419L301.645 356.341C296.948 355.703 293.124 352.946 293.083 349.884H300.759V347.778H282.358V349.884H290.09C290.007 352.946 286.155 355.703 281.527 356.341ZM312.342 353.099V348.582H309.793V353.209C309.806 357.435 307.95 361.828 304.444 363.934L306.079 365.901C308.49 364.433 310.208 361.745 311.109 358.599C311.968 361.467 313.534 363.948 315.861 365.347L317.33 363.324C314.005 361.287 312.342 357.061 312.342 353.099ZM314.642 357.228H318.494V369.919H320.988V346.78H318.494V355.038H314.642V357.228ZM323.621 371.139H326.142V346.309H323.621V371.139ZM352.025 365.846H346.593V359.306C348.588 358.184 349.78 356.424 349.78 354.235C349.78 350.327 345.942 347.764 340.608 347.75C335.287 347.764 331.449 350.327 331.463 354.235C331.449 356.465 332.696 358.239 334.733 359.361V365.846H329.301V368.035H352.025V365.846ZM334.012 354.235C334.012 351.561 336.714 349.856 340.608 349.856C344.473 349.856 347.217 351.561 347.231 354.235C347.217 356.895 344.473 358.627 340.608 358.641C336.714 358.627 334.012 356.895 334.012 354.235ZM337.338 365.846V360.331C338.335 360.567 339.444 360.691 340.608 360.691C341.799 360.691 342.921 360.567 343.933 360.331V365.846H337.338Z" fill="black"/>
<mask id="path-34-inside-2_226_933" fill="white">
<path d="M359.535 358.811C359.535 346.622 369.416 336.74 381.606 336.74H452.547C464.736 336.74 474.618 346.622 474.618 358.811V358.811C474.618 371 464.736 380.881 452.547 380.881H381.606C369.417 380.881 359.535 371 359.535 358.811V358.811Z"/>
</mask>
<path d="M359.535 358.811C359.535 346.622 369.416 336.74 381.606 336.74H452.547C464.736 336.74 474.618 346.622 474.618 358.811V358.811C474.618 371 464.736 380.881 452.547 380.881H381.606C369.417 380.881 359.535 371 359.535 358.811V358.811Z" fill="white"/>
<path d="M381.606 338.317H452.547V335.164H381.606V338.317ZM452.547 379.305H381.606V382.458H452.547V379.305ZM381.606 379.305C370.287 379.305 361.112 370.129 361.112 358.811H357.959C357.959 371.871 368.546 382.458 381.606 382.458V379.305ZM473.041 358.811C473.041 370.129 463.866 379.305 452.547 379.305V382.458C465.607 382.458 476.194 371.871 476.194 358.811H473.041ZM452.547 338.317C463.865 338.317 473.041 347.492 473.041 358.811H476.194C476.194 345.751 465.607 335.164 452.547 335.164V338.317ZM381.606 335.164C368.546 335.164 357.959 345.751 357.959 358.811H361.112C361.112 347.492 370.287 338.317 381.606 338.317V335.164Z" fill="#5980F9" mask="url(#path-34-inside-2_226_933)"/>
<g clip-path="url(#clip1_226_933)">
<path d="M387.987 369.099C393.625 369.099 398.196 364.528 398.196 358.889C398.196 353.251 393.625 348.68 387.987 348.68C382.348 348.68 377.777 353.251 377.777 358.889C377.777 364.528 382.348 369.099 387.987 369.099Z" fill="#5980F9"/>
<path d="M383.182 355.586L385.584 362.492L387.986 356.036" stroke="white" stroke-width="1.57647" stroke-miterlimit="10" stroke-linecap="round" stroke-linejoin="round"/>
<path d="M387.986 356.036L390.389 362.492L392.791 355.586" stroke="white" stroke-width="1.57647" stroke-miterlimit="10" stroke-linecap="round" stroke-linejoin="round"/>
<path d="M381.981 357.688H393.842" stroke="white" stroke-width="1.57647" stroke-miterlimit="10" stroke-linecap="round" stroke-linejoin="round"/>
</g>
<path d="M405.025 360.38H407.131C407.103 359.29 407.565 358.856 408.184 358.847C408.627 358.856 408.858 359.059 409.403 359.53C410.327 360.343 411.011 360.685 411.879 360.675C413.588 360.685 414.779 359.336 414.687 356.87H412.581C412.618 357.923 412.156 358.394 411.528 358.403C411.075 358.394 410.798 358.154 410.29 357.72C409.329 356.87 408.664 356.574 407.833 356.574C406.078 356.574 404.942 357.914 405.025 360.38ZM421.227 362.948H427.73V365.312H430.372V362.948H432.071V360.712H430.372V351.937H426.88L421.227 360.749V362.948ZM424.035 360.712V360.602L427.637 354.985H427.767V360.712H424.035ZM439.073 365.497C442.417 365.497 444.449 363.022 444.449 358.625C444.449 354.256 442.408 351.752 439.073 351.752C435.738 351.752 433.697 354.256 433.697 358.625C433.697 363.003 435.72 365.497 439.073 365.497ZM436.542 358.625C436.542 355.567 437.53 354.034 439.073 354.025C440.616 354.034 441.613 355.567 441.604 358.625C441.613 361.71 440.625 363.206 439.073 363.206C437.521 363.206 436.524 361.71 436.542 358.625ZM453.649 362.098V362.8C453.658 364.398 454.684 365.765 456.587 365.774C458.471 365.765 459.515 364.398 459.524 362.8V362.098C459.515 360.491 458.499 359.133 456.587 359.142C454.711 359.133 453.658 360.5 453.649 362.098ZM446.795 355.152C446.795 356.74 447.821 358.098 449.733 358.089C451.617 358.098 452.661 356.759 452.652 355.152V354.45C452.661 352.833 451.645 351.475 449.733 351.475C447.867 351.475 446.795 352.833 446.795 354.45V355.152ZM447.645 365.312H449.345L458.545 351.937H456.845L447.645 365.312ZM448.68 355.152V354.45C448.689 353.812 448.938 353.129 449.733 353.138C450.555 353.129 450.767 353.803 450.767 354.45V355.152C450.767 355.789 450.527 356.445 449.733 356.445C448.947 356.445 448.689 355.789 448.68 355.152ZM455.534 362.8V362.098C455.534 361.461 455.801 360.786 456.587 360.786C457.409 360.786 457.63 361.461 457.621 362.098V362.8C457.63 363.447 457.381 364.102 456.587 364.093C455.783 364.102 455.534 363.428 455.534 362.8Z" fill="#5980F9"/>
</g>
<rect x="153" y="475.361" width="429.786" height="61.6386" rx="15.941" fill="#F78752"/>
<path d="M196.933 493.9H193.557V507.823H188.969V510.117H193.557V512.015H196.933V493.9ZM176.523 504.526L176.918 507.19C178.738 507.19 180.782 507.177 182.931 507.097V510.275H179.582V517.447H197.46V514.758H182.931V511.462H186.306V506.9C188.244 506.755 190.209 506.53 192.107 506.214L191.923 503.814C186.846 504.434 180.913 504.5 176.523 504.526ZM178.29 499.015C178.29 501.586 180.755 503.247 184.328 503.234C187.809 503.247 190.301 501.586 190.314 499.015C190.301 496.457 187.809 494.704 184.328 494.717C180.755 494.704 178.29 496.457 178.29 499.015ZM181.48 499.015C181.467 497.829 182.614 497.169 184.328 497.169C185.937 497.169 187.097 497.829 187.123 499.015C187.097 500.175 185.937 500.822 184.328 500.808C182.614 500.822 181.467 500.175 181.48 499.015ZM219.136 493.873H215.761V508.007H219.136V502.338H222.195V499.543H219.136V493.873ZM199.675 505.423L200.018 507.743C204.211 507.743 209.775 507.704 214.89 506.847L214.653 504.764C212.794 505.001 210.829 505.159 208.852 505.265V504.315C211.436 503.986 213.031 502.905 213.045 501.204C213.031 499.253 210.724 498.105 207.164 498.119C203.578 498.105 201.271 499.253 201.284 501.204C201.271 502.918 202.879 503.999 205.503 504.329V505.383C203.42 505.423 201.429 505.423 199.675 505.423ZM200.308 497.618H214.047V495.376H208.852V493.662H205.503V495.376H200.308V497.618ZM202.866 511.092H215.761V512.2H202.892V517.711H219.927V515.47H206.268V514.23H219.136V508.851H202.866V511.092ZM204.501 501.204C204.488 500.505 205.45 500.202 207.164 500.202C208.852 500.202 209.814 500.505 209.827 501.204C209.814 501.929 208.852 502.298 207.164 502.311C205.45 502.298 204.488 501.929 204.501 501.204ZM242.315 493.9H238.939V511.804H242.315V503.999H245.558V501.257H242.315V493.9ZM223.276 499.068H237.515V496.405H232.083V493.847H228.734V496.405H223.276V499.068ZM224.436 504.553C224.436 507.322 226.902 509.141 230.396 509.141C233.876 509.141 236.302 507.322 236.302 504.553C236.302 501.771 233.876 499.912 230.396 499.912C226.902 499.912 224.436 501.771 224.436 504.553ZM226.757 517.447H243.185V514.758H230.106V510.433H226.757V517.447ZM227.732 504.553C227.719 503.221 228.787 502.483 230.396 502.47C232.017 502.483 233.112 503.221 233.112 504.553C233.112 505.871 232.017 506.583 230.396 506.583C228.787 506.583 227.719 505.871 227.732 504.553ZM266.469 495.271H253.39V497.96H258.294C258.255 500.953 256.435 504.039 252.467 505.317L254.26 507.902C257.042 506.992 258.967 505.12 260.035 502.786C261.076 504.922 262.909 506.636 265.572 507.506L267.286 504.896C263.397 503.656 261.709 500.769 261.696 497.96H266.469V495.271ZM255.71 512.042H268.499V517.869H271.875V509.378H255.71V512.042ZM268.499 508.35H271.875V502.496H275.118V499.701H271.875V493.873H268.499V508.35ZM282.871 494.902C279.179 494.875 276.463 497.288 276.489 500.571C276.463 503.92 279.179 506.32 282.871 506.32C285.956 506.32 288.422 504.526 289.041 501.889H293.049V506.768H296.398V493.873H293.049V499.2H289.028C288.369 496.629 285.93 494.875 282.871 494.902ZM279.68 500.571C279.667 498.778 280.985 497.684 282.871 497.697C284.69 497.684 285.996 498.778 286.009 500.571C285.996 502.364 284.69 503.498 282.871 503.498C280.985 503.498 279.667 502.364 279.68 500.571ZM280.392 517.606H296.398V507.823H293.049V510.143H283.715V507.823H280.392V517.606ZM283.715 514.89V512.727H293.049V514.89H283.715ZM310.453 494.216C304.916 494.216 301.699 495.666 301.699 498.303C301.699 500.98 304.916 502.417 310.453 502.417C315.978 502.417 319.168 500.98 319.181 498.303C319.168 495.666 315.978 494.216 310.453 494.216ZM299.51 506.214H321.396V503.551H299.51V506.214ZM302.041 510.064H315.411V511.382H302.068V517.711H319.366V515.18H305.364V513.729H318.733V507.612H302.041V510.064ZM305.232 498.303C305.219 497.235 306.933 496.668 310.453 496.668C314 496.668 315.701 497.235 315.701 498.303C315.701 499.477 314 499.938 310.453 499.938C306.933 499.938 305.219 499.477 305.232 498.303ZM336.902 494.875C333.25 494.849 330.586 496.945 330.599 499.965C330.586 502.957 333.25 505.08 336.902 505.054C340.567 505.08 343.23 502.957 343.23 499.965C343.23 496.945 340.567 494.849 336.902 494.875ZM329.123 506.53L329.545 509.273C331.272 509.247 333.263 509.233 335.372 509.141V517.157H338.721V508.943C340.725 508.785 342.756 508.535 344.733 508.139L344.522 505.66C339.407 506.438 333.381 506.517 329.123 506.53ZM333.843 499.965C333.83 498.435 335.109 497.552 336.902 497.565C338.748 497.552 340.04 498.435 340.04 499.965C340.04 501.468 338.748 502.338 336.902 502.311C335.109 502.338 333.83 501.468 333.843 499.965ZM345.973 517.869H349.295V493.9H345.973V517.869ZM363.983 497.539H359.869V494.532H356.547V497.539H352.381V500.202H363.983V497.539ZM352.934 506.979C352.934 510.328 355.176 512.701 358.235 512.701C361.307 512.701 363.495 510.328 363.508 506.979C363.495 503.643 361.307 501.296 358.235 501.283C355.176 501.296 352.934 503.643 352.934 506.979ZM355.888 506.979C355.888 505.172 356.837 504.078 358.235 504.078C359.579 504.078 360.542 505.172 360.555 506.979C360.542 508.811 359.579 509.853 358.235 509.853C356.837 509.853 355.888 508.811 355.888 506.979ZM364.88 516.841H368.018V506.32H369.969V517.869H373.16V493.873H369.969V503.63H368.018V494.348H364.88V516.841ZM401.691 494.849H393.095V497.512H398.408C398.369 498.936 398.237 500.676 397.657 502.944L400.953 503.313C401.691 500.32 401.691 498 401.691 496.326V494.849ZM382.02 507.48H403.801V504.79H394.994V500.571H391.671V504.79H382.02V507.48ZM383.76 497.512H387.913C387.821 498.831 387.571 500.584 386.766 502.892L390.01 503.34C391.249 499.991 391.249 497.433 391.249 495.877V494.849H383.76V497.512ZM384.34 512.094H397.736V517.737H401.138V509.405H384.34V512.094ZM425.16 495.271H412.081V497.96H416.986C416.946 500.953 415.127 504.039 411.158 505.317L412.951 507.902C415.733 506.992 417.658 505.12 418.726 502.786C419.768 504.922 421.6 506.636 424.264 507.506L425.978 504.896C422.088 503.656 420.4 500.769 420.387 497.96H425.16V495.271ZM414.401 512.042H427.191V517.869H430.566V509.378H414.401V512.042ZM427.191 508.35H430.566V502.496H433.809V499.701H430.566V493.873H427.191V508.35ZM443.935 497.143V495.113H440.534V497.301C440.52 500.65 438.754 503.867 434.653 505.186L436.42 507.875C439.307 506.9 441.246 504.935 442.3 502.43C443.316 504.592 445.069 506.24 447.653 507.137L449.42 504.5C445.57 503.313 443.922 500.347 443.935 497.143ZM438.635 513.228C438.635 516.195 441.773 517.883 446.889 517.869C452.017 517.883 455.155 516.195 455.169 513.228C455.155 510.275 452.017 508.548 446.889 508.561C441.773 508.548 438.635 510.275 438.635 513.228ZM441.984 513.228C441.984 511.857 443.711 511.172 446.889 511.172C450.079 511.172 451.806 511.857 451.82 513.228C451.806 514.56 450.079 515.259 446.889 515.259C443.711 515.259 441.984 514.56 441.984 513.228ZM447.231 501.019H451.741V507.928H455.089V493.873H451.741V498.277H447.231V501.019ZM469.777 497.539H465.664V494.532H462.341V497.539H458.175V500.202H469.777V497.539ZM458.728 506.979C458.728 510.328 460.97 512.701 464.029 512.701C467.101 512.701 469.289 510.328 469.303 506.979C469.289 503.643 467.101 501.296 464.029 501.283C460.97 501.296 458.728 503.643 458.728 506.979ZM461.682 506.979C461.682 505.172 462.631 504.078 464.029 504.078C465.374 504.078 466.336 505.172 466.349 506.979C466.336 508.811 465.374 509.853 464.029 509.853C462.631 509.853 461.682 508.811 461.682 506.979ZM470.674 516.841H473.812V506.32H475.763V517.869H478.954V493.873H475.763V503.63H473.812V494.348H470.674V516.841ZM503.425 507.111H481.538V509.8H490.767V517.869H494.09V509.8H503.425V507.111ZM482.619 503.076L483.859 505.713C488.038 505.146 491.031 503.353 492.494 500.887C493.945 503.353 496.964 505.146 501.183 505.713L502.396 503.076C497.465 502.483 494.815 500.136 494.472 497.776H501.473V495.139H483.516V497.776H490.517C490.161 500.136 487.471 502.483 482.619 503.076ZM512.575 499.912V495.93H509.305V500.07C509.305 504.131 507.987 508.363 504.427 510.565L506.483 513.044C508.659 511.725 510.096 509.444 510.953 506.728C511.718 509.181 513.023 511.264 515.106 512.516L516.926 509.906C513.643 507.809 512.562 503.801 512.575 499.912ZM514.394 504.711H517.506V516.762H520.644V494.216H517.506V501.969H514.394V504.711ZM522.463 517.869H525.68V493.873H522.463V517.869ZM550.178 512.305H545.299V506.359C547.106 505.238 548.187 503.564 548.2 501.494C548.187 497.604 544.35 495.047 539.155 495.033C533.934 495.047 530.137 497.604 530.137 501.494C530.137 503.603 531.258 505.304 533.117 506.425V512.305H528.212V515.074H550.178V512.305ZM533.459 501.494C533.459 499.081 535.714 497.684 539.155 497.697C542.544 497.684 544.864 499.081 544.877 501.494C544.864 503.841 542.544 505.291 539.155 505.291C535.714 505.291 533.459 503.841 533.459 501.494ZM536.439 512.305V507.651C537.283 507.809 538.193 507.902 539.155 507.902C540.118 507.902 541.041 507.809 541.898 507.638V512.305H536.439ZM557.007 496.352H552.946L553.289 509.721H556.664L557.007 496.352ZM552.788 513.466C552.762 514.692 553.764 515.681 555.003 515.681C556.177 515.681 557.192 514.692 557.192 513.466C557.192 512.253 556.177 511.264 555.003 511.277C553.764 511.264 552.762 512.253 552.788 513.466Z" fill="white"/>
<path d="M182.048 462.904C183.058 460.883 185.942 460.883 186.952 462.904L196.016 481.033C196.928 482.856 195.602 485 193.565 485H175.435C173.398 485 172.072 482.856 172.984 481.033L182.048 462.904Z" fill="#F78752"/>
<defs>
<filter id="filter0_dd_226_933" x="0.757807" y="218.896" width="728.484" height="385.484" filterUnits="userSpaceOnUse" color-interpolation-filters="sRGB">
<feFlood flood-opacity="0" result="BackgroundImageFix"/>
<feColorMatrix in="SourceAlpha" type="matrix" values="0 0 0 0 0 0 0 0 0 0 0 0 0 0 0 0 0 0 127 0" result="hardAlpha"/>
<feMorphology radius="1.82764" operator="erode" in="SourceAlpha" result="effect1_dropShadow_226_933"/>
<feOffset dy="3.65527"/>
<feGaussianBlur stdDeviation="2.74146"/>
<feComposite in2="hardAlpha" operator="out"/>
<feColorMatrix type="matrix" values="0 0 0 0 0 0 0 0 0 0 0 0 0 0 0 0 0 0 0.05 0"/>
<feBlend mode="normal" in2="BackgroundImageFix" result="effect1_dropShadow_226_933"/>
<feColorMatrix in="SourceAlpha" type="matrix" values="0 0 0 0 0 0 0 0 0 0 0 0 0 0 0 0 0 0 127 0" result="hardAlpha"/>
<feMorphology radius="2.74146" operator="erode" in="SourceAlpha" result="effect2_dropShadow_226_933"/>
<feOffset dy="9.13819"/>
<feGaussianBlur stdDeviation="15.9918"/>
<feComposite in2="hardAlpha" operator="out"/>
<feColorMatrix type="matrix" values="0 0 0 0 0 0 0 0 0 0 0 0 0 0 0 0 0 0 0.2 0"/>
<feBlend mode="normal" in2="effect1_dropShadow_226_933" result="effect2_dropShadow_226_933"/>
<feBlend mode="normal" in="SourceGraphic" in2="effect2_dropShadow_226_933" result="shape"/>
</filter>
<clipPath id="clip0_226_933">
<rect width="29.8793" height="29.8793" fill="white" transform="translate(404.551 317.074)"/>
</clipPath>
<clipPath id="clip1_226_933">
<rect width="31.5294" height="31.5294" fill="white" transform="translate(372.147 343.047)"/>
</clipPath>
</defs>
</svg>
