<svg width="569" height="1071" viewBox="0 0 569 1071" fill="none" xmlns="http://www.w3.org/2000/svg">
<mask id="mask0_208_5345" style="mask-type:alpha" maskUnits="userSpaceOnUse" x="0" y="0" width="569" height="1071">
<rect width="569" height="1071" rx="40" fill="#D9D9D9"/>
</mask>
<g mask="url(#mask0_208_5345)">
<path d="M0 -62H569V1170.07H0V-62Z" fill="#304FFB"/>
<path d="M61.9558 99.0671V92.9266H56.8111V99.4405C56.7904 105.83 54.6329 112.572 48.9696 115.953L52.2888 119.812C55.6909 117.779 57.9728 114.294 59.3212 110.124C60.5659 113.858 62.6611 116.908 65.9388 118.692L69.0505 114.501C63.7191 111.68 61.9351 105.539 61.9558 99.0671ZM69.092 125.703H74.0708V108.651H77.3485V127.446H82.4102V89.6904H77.3485V104.419H74.0708V90.2298H69.092V125.703ZM120.913 108.444H106.267V106.162H117.427V102.137H95.9358V100.021H116.722V90.2298H90.5836V94.2958H111.411V96.2458H90.6666V106.162H100.998V108.444H86.3517V112.634H120.913V108.444ZM90.7081 127.031H116.847V114.003H111.619V116.493H95.9773V114.003H90.7081V127.031ZM95.9773 122.965V120.434H111.619V122.965H95.9773ZM155.847 89.6904H150.868V127.446H155.847V89.6904ZM122.655 115.87L125.642 119.604C131.015 116.493 134.521 112.759 136.679 108.444H142.861V125.786H147.798V90.5202H142.861V104.253H138.317C139.23 101.142 139.624 97.7809 139.624 94.1713H124.73V98.4447H134.376C133.65 105.851 130.289 111.348 122.655 115.87ZM81.5389 143.69H76.3112V157.009H69.2995V146.595H64.1133V155.764H56.3547V146.595H51.0856V172.567H69.2995V161.282H76.3112V181.529H81.5389V143.69ZM56.3547 168.335V159.913H64.1133V168.335H56.3547ZM118.05 143.69H112.781V181.529H118.05V143.69ZM88.3847 151.117H100.956V157.216H88.4262V172.692H91.8283C98.7156 172.692 104.337 172.463 110.54 171.364L110.084 167.091C104.545 168.003 99.6699 168.294 93.9028 168.335V161.406H106.35V146.844H88.3847V151.117ZM153.772 153.98H132.654V145.018H127.385V158.129H153.772V153.98ZM123.07 166.344H157.631V162.195H123.07V166.344ZM127.053 180.616H154.021V176.384H132.364V169.414H127.053V180.616ZM186.632 167.215C178.438 167.215 173.169 169.829 173.189 174.351C173.169 178.811 178.438 181.467 186.632 181.446C194.888 181.467 200.075 178.811 200.116 174.351C200.075 169.829 194.888 167.215 186.632 167.215ZM169.704 164.809H203.975V160.535H187.794V153.938H182.566V160.535H169.704V164.809ZM173.563 149.54H194.64C194.598 152.113 194.494 154.664 193.644 158.087L198.83 158.585C199.929 154.706 199.929 151.47 199.909 148.462V145.391H173.563V149.54ZM178.459 174.351C178.438 172.256 181.425 171.136 186.632 171.157C191.839 171.136 194.847 172.256 194.847 174.351C194.847 176.384 191.839 177.421 186.632 177.421C181.425 177.421 178.438 176.384 178.459 174.351ZM220.819 149.043V145.433H215.301V149.043C215.301 153.855 212.522 158.772 206.215 160.784L208.87 164.933C213.31 163.502 216.38 160.556 218.081 156.843C219.761 160.286 222.749 162.983 227.043 164.352L229.698 160.203C223.475 158.336 220.778 153.752 220.819 149.043ZM211.982 172.069H232.644V181.446H237.955V167.837H211.982V172.069ZM232.644 166.219H237.955V143.69H232.644V166.219ZM83.7379 198.69H79.1325V213.295H77.0995V199.23H72.5772V234.703H77.0995V217.61H79.1325V236.446H83.7379V198.69ZM49.7994 227.152H59.5494V202.507H55.6494V210.764H53.6579V202.507H49.7994V227.152ZM53.6579 222.962V214.913H55.6494V222.962H53.6579ZM61.0845 227.152H70.7931V202.507H66.9346V210.764H64.9431V202.507H61.0845V227.152ZM64.9431 222.962V214.913H66.9346V222.962H64.9431ZM118.133 198.69H112.781V236.446H118.133V198.69ZM86.5177 225.742L89.2975 229.974C102.782 223.605 106.785 214.083 106.806 202.632H88.5506V206.781H101.412C100.562 215.162 96.2677 221.136 86.5177 225.742Z" fill="white"/>
<path d="M65.0675 266.913H63.5117V274.339H60.7941V267.327H59.3005V284.4H60.7941V275.688H63.5117V285.355H65.0675V266.913ZM49.9861 280.791H51.1685C54.0002 280.78 55.8776 280.708 58.0973 280.251L57.9521 278.882C55.8983 279.297 54.1454 279.391 51.6042 279.401V270.522H56.8941V269.174H49.9861V280.791ZM78.116 268.987H73.7804V266.767H72.1623V268.987H67.6814V270.315H78.116V268.987ZM68.7809 274.671C68.7601 276.735 70.4612 278.084 72.9506 278.094C75.4192 278.084 77.1514 276.735 77.1618 274.671C77.1514 272.617 75.4192 271.259 72.9506 271.269C70.4612 271.259 68.7601 272.617 68.7809 274.671ZM70.2952 274.671C70.2849 273.375 71.3428 272.514 72.9506 272.493C74.5375 272.514 75.6266 273.375 75.6474 274.671C75.6266 275.968 74.5375 276.839 72.9506 276.829C71.3428 276.839 70.2849 275.968 70.2952 274.671ZM70.6686 282.181C70.6686 284.162 73.0024 285.313 76.8713 285.313C80.7195 285.313 83.0533 284.162 83.0533 282.181C83.0533 280.168 80.7195 279.027 76.8713 279.027C73.0024 279.027 70.6686 280.168 70.6686 282.181ZM72.349 282.181C72.3593 280.977 74.0708 280.303 76.8713 280.293C79.6304 280.303 81.3315 280.977 81.3315 282.181C81.3315 283.353 79.6304 284.058 76.8713 284.048C74.0708 284.058 72.3593 283.353 72.349 282.181ZM78.0953 276.289H81.3107V278.841H82.9496V266.913H81.3107V271.352H78.116V272.7H81.3107V274.941H78.0953V276.289ZM101.89 266.913H100.313V285.355H101.89V266.913ZM85.8123 279.442L86.0198 280.853C88.4573 280.832 92.3158 280.76 95.2097 280.272L95.0853 279.048C94.4837 279.121 93.8198 279.183 93.1352 279.225V270.626H94.6911V269.257H86.2065V270.626H87.7623V279.432C87.0467 279.442 86.3932 279.442 85.8123 279.442ZM89.256 279.401V270.626H91.6416V279.318C90.8429 279.359 90.0339 279.391 89.256 279.401ZM94.2555 277.43H96.7656V284.38H98.3007V267.369H96.7656V272.182H94.2555V273.53H96.7656V276.082H94.2555V277.43ZM119.626 266.913H117.988V285.355H119.626V266.913ZM104.607 280.563L105.499 281.89C111.681 278.924 114.15 274.225 114.17 268.925H105.458V270.252H112.511C112.148 274.661 109.596 278.198 104.607 280.563ZM139.541 274.713H122.738V276.04H130.31V277.866H124.771V279.131H135.787V280.77H124.813V285.147H137.944V283.861H126.431V281.994H137.384V277.866H131.928V276.04H139.541V274.713ZM124.916 273.157H137.363V267.535H124.916V273.157ZM126.534 271.85V268.842H135.745V271.85H126.534ZM149.499 267.244C145.381 267.244 142.964 268.375 142.964 270.418C142.964 272.514 145.381 273.644 149.499 273.655C153.596 273.644 156.002 272.514 156.013 270.418C156.002 268.375 153.596 267.244 149.499 267.244ZM141.097 276.227H157.9V274.899H141.097V276.227ZM143.13 279.069H154.146V280.749H143.172V285.147H156.303V283.861H144.79V281.952H155.743V277.824H143.13V279.069ZM144.665 270.418C144.645 269.205 146.439 268.479 149.499 268.468C152.559 268.479 154.343 269.205 154.353 270.418C154.343 271.705 152.559 272.41 149.499 272.41C146.439 272.41 144.645 271.705 144.665 270.418ZM180.077 266.913H178.459V273.779H174.04V268.365H172.443V273.177H167.173V268.365H165.535V280.729H174.04V275.127H178.459V285.396H180.077V266.913ZM167.173 279.38V274.484H172.443V279.38H167.173ZM198.374 266.913H196.755V285.396H198.374V266.913ZM184.184 269.983H191.134V273.862H184.226V280.915H185.761C188.945 280.915 191.746 280.78 195.137 280.251L194.971 278.882C191.673 279.411 188.945 279.556 185.885 279.546V275.19H192.772V268.634H184.184V269.983ZM216.422 272.514H205.406V267.597H203.788V273.821H216.422V272.514ZM201.485 277.658H218.372V276.331H201.485V277.658ZM203.684 284.898H216.525V283.55H205.302V279.546H203.684V284.898ZM63.5739 300.913H61.9558V319.355H63.5739V309.791H66.5612V308.422H63.5739V300.913ZM49.426 314.563L50.3387 315.849C56.3444 312.882 58.7922 308.121 58.8026 302.904H50.2765V304.273H57.1534C56.78 308.64 54.1869 312.198 49.426 314.563ZM73.9048 304.418V303.63H78.0538V302.282H68.0963V303.63H72.3075V304.418C72.2867 307.084 70.3575 309.459 67.5984 310.393L68.4282 311.7C70.6375 310.901 72.3386 309.252 73.1269 307.136C73.9256 308.993 75.5333 310.455 77.6596 311.16L78.4272 309.874C75.72 308.993 73.9152 306.835 73.9048 304.418ZM70.0463 315.911C70.0567 318.068 72.3697 319.313 76.166 319.313C79.9519 319.313 82.2442 318.068 82.2442 315.911C82.2442 313.785 79.9519 312.55 76.166 312.55C72.3697 312.55 70.0567 313.785 70.0463 315.911ZM71.6851 315.911C71.6644 314.625 73.3862 313.857 76.166 313.857C78.9562 313.857 80.6573 314.625 80.6676 315.911C80.6573 317.239 78.9562 318.017 76.166 318.006C73.3862 318.017 71.6644 317.239 71.6851 315.911ZM80.4602 312.052H82.0783V306.991H84.8581V305.622H82.0783V300.913H80.4602V312.052ZM106.121 300.913H104.503V319.355H106.121V309.522H108.632V308.132H106.121V300.913ZM91.7246 314.895H96.8486V302.634H95.4587V307.406H93.1353V302.634H91.7246V314.895ZM93.1353 313.525V308.713H95.4587V313.525H93.1353ZM97.8443 314.895H102.885V302.634H101.495V307.406H99.2342V302.634H97.8443V314.895ZM99.2342 313.525V308.713H101.495V313.525H99.2342ZM126.597 315.662H109.71V317.031H126.597V315.662ZM111.785 303.672H122.863V306.576H111.826V312.239H124.896V310.932H113.444V307.904H124.46V302.323H111.785V303.672ZM142.861 302.78H129.854V304.128H141.222V304.626C141.211 306.835 141.211 309.418 140.516 312.945L142.176 313.131C142.84 309.418 142.84 306.887 142.861 304.626V302.78ZM128.069 316.741H144.873V315.392H136.264V308.796H134.666V315.392H128.069V316.741ZM166.178 300.913H164.539V314.417H166.178V307.904H168.957V306.534H166.178V300.913ZM151.781 310.974L152.486 312.281C157.807 310.621 161.199 307.094 161.199 302.344H152.548V303.713H159.425C159.083 306.97 156.21 309.594 151.781 310.974ZM154.623 318.96H167.028V317.591H156.241V313.048H154.623V318.96ZM185.408 300.913H183.769V304.439H180.616V305.788H183.769V307.924H180.616V309.293H183.769V314.646H185.408V300.913ZM170.161 310.455L170.368 311.845C173.366 311.835 177.577 311.772 181.155 311.223L181.072 309.999C180.274 310.092 179.434 310.165 178.583 310.217V303.755H180.471V302.427H170.679V303.755H172.546V310.434C171.696 310.445 170.897 310.455 170.161 310.455ZM173.521 318.96H185.906V317.591H175.16V313.505H173.521V318.96ZM174.123 310.403V303.755H177.006V310.31C176.042 310.351 175.067 310.383 174.123 310.403ZM202.896 300.933H201.278V314.749H202.896V308.381H205.676V307.011H202.896V300.933ZM188.52 304.522H199.515V303.194H194.826V300.933H193.208V303.194H188.52V304.522ZM189.578 308.982C189.567 311.057 191.351 312.395 194.017 312.384C196.652 312.395 198.436 311.057 198.457 308.982C198.436 306.887 196.652 305.539 194.017 305.539C191.351 305.539 189.567 306.887 189.578 308.982ZM191.134 308.982C191.123 307.665 192.275 306.814 194.017 306.825C195.739 306.814 196.901 307.665 196.921 308.982C196.901 310.279 195.739 311.119 194.017 311.098C192.275 311.119 191.123 310.279 191.134 308.982ZM191.362 318.96H203.746V317.591H192.959V313.65H191.362V318.96ZM220.674 312.509C216.878 312.509 214.565 313.754 214.555 315.911C214.565 318.089 216.878 319.334 220.674 319.355C224.46 319.334 226.752 318.089 226.752 315.911C226.752 313.754 224.46 312.509 220.674 312.509ZM212.957 310.58H221.546V302.074H219.927V304.896H214.555V302.074H212.957V310.58ZM214.555 309.252V306.182H219.927V309.252H214.555ZM216.193 315.911C216.173 314.594 217.894 313.816 220.674 313.795C223.464 313.816 225.165 314.594 225.176 315.911C225.165 317.239 223.464 318.027 220.674 318.027C217.894 318.027 216.173 317.239 216.193 315.911ZM224.968 312.011H226.587V306.949H229.366V305.559H226.587V300.913H224.968V312.011ZM233.08 301.867H231.462V310.31H239.822V306.825H244.178V310.994H245.817V300.913H244.178V305.456H239.822V301.867H238.224V304.73H233.08V301.867ZM233.08 308.982V306.016H238.224V308.982H233.08ZM233.93 319.106H245.796V311.887H244.178V314.148H235.569V311.887H233.93V319.106ZM235.569 317.757V315.455H244.178V317.757H235.569Z" fill="white"/>
<ellipse cx="357.225" cy="662.861" rx="115.162" ry="19.7934" fill="#182B99"/>
<g clip-path="url(#clip0_208_5345)">
<path d="M286.28 556.384C306.887 554.649 363.579 571.542 363.579 571.542C363.579 571.542 341.359 631.834 338.958 637.068C336.558 642.303 333.462 645.835 325.093 643.767L271.114 630.425L286.282 556.377L286.28 556.384Z" fill="#D1613C"/>
<path d="M276.059 631.658C289.445 605.558 309.385 561.373 289.509 556.46C271.981 552.128 267.808 599.934 267.299 629.492L276.059 631.658Z" fill="#DA7348"/>
<path d="M327.296 599.713C329.142 563.793 329.706 540.63 332.321 524.256C335.703 503.164 360.065 483.042 410.823 495.588C461.581 508.133 465.359 538.06 459.815 556.013C454.271 573.966 417.559 658.114 417.559 658.114L327.365 621.894L327.298 599.705L327.296 599.713Z" fill="#D1613C"/>
<path d="M316.026 599.962C318.163 564.115 325.976 539.023 328.66 522.667C332.109 501.599 352.363 481.137 400.904 493.135C449.445 505.133 452.764 534.946 447.258 552.908C441.759 570.872 405.708 655.183 405.708 655.183L319.594 619.972L316.026 599.962Z" fill="#DA7348"/>
<path d="M294.096 600.968L280.762 632.819L365.693 653.811L371.356 620.064L294.096 600.968Z" fill="#DA7348"/>
<path d="M293.574 600.836C295.598 592.643 308.303 589.125 320.287 590.793C332.271 592.461 368.171 598.371 379.482 608.753C390.786 619.133 399.217 626.947 374.118 620.744L293.574 600.836Z" fill="#DF8058"/>
<path d="M383.815 580.489C399.988 577.657 443.324 591.25 443.324 591.25C443.324 591.25 422.708 651.938 420.553 657.233C418.397 662.528 415.785 666.18 409.365 664.593L367.957 654.359L383.809 580.479L383.815 580.489Z" fill="#D1613C"/>
<path d="M371.968 655.359C385.354 629.26 405.294 585.075 385.419 580.162C367.891 575.83 363.718 623.635 363.208 653.194L371.968 655.359Z" fill="#DA7348"/>
</g>
<rect y="-62" width="569" height="903" fill="black" fill-opacity="0.5"/>
<g filter="url(#filter0_d_208_5345)">
<path d="M0 834.744C0 809.604 20.38 789.224 45.52 789.224H523.48C548.62 789.224 569 809.604 569 834.744V1170.07H0V834.744Z" fill="white"/>
</g>
<g filter="url(#filter1_d_208_5345)">
<mask id="path-16-inside-1_208_5345" fill="white">
<path fill-rule="evenodd" clip-rule="evenodd" d="M290.706 826.487C289.593 827.388 288.001 827.388 286.888 826.487L279.525 820.529H228.08C214.407 820.529 203.323 809.444 203.323 795.771C203.323 782.097 214.407 771.013 228.081 771.013H350.023C363.697 771.013 374.781 782.097 374.781 795.771C374.781 809.444 363.697 820.529 350.023 820.529H298.07L290.706 826.487Z"/>
</mask>
<path fill-rule="evenodd" clip-rule="evenodd" d="M290.706 826.487C289.593 827.388 288.001 827.388 286.888 826.487L279.525 820.529H228.08C214.407 820.529 203.323 809.444 203.323 795.771C203.323 782.097 214.407 771.013 228.081 771.013H350.023C363.697 771.013 374.781 782.097 374.781 795.771C374.781 809.444 363.697 820.529 350.023 820.529H298.07L290.706 826.487Z" fill="white"/>
<path d="M286.888 826.487L285.934 827.667V827.667L286.888 826.487ZM290.706 826.487L291.661 827.667V827.667L290.706 826.487ZM279.525 820.529V819.011H280.062L280.479 819.349L279.525 820.529ZM298.07 820.529L297.115 819.349L297.533 819.011H298.07V820.529ZM287.843 825.308C288.399 825.758 289.195 825.758 289.752 825.308L291.661 827.667C289.991 829.018 287.603 829.018 285.934 827.667L287.843 825.308ZM280.479 819.349L287.843 825.308L285.934 827.667L278.57 821.708L280.479 819.349ZM228.08 819.011H279.525V822.046H228.08V819.011ZM204.84 795.771C204.84 808.606 215.245 819.011 228.08 819.011V822.046C213.569 822.046 201.805 810.282 201.805 795.771H204.84ZM228.081 772.53C215.245 772.53 204.84 782.935 204.84 795.771H201.805C201.805 781.259 213.569 769.496 228.081 769.496V772.53ZM350.023 772.53H228.081V769.496H350.023V772.53ZM373.264 795.771C373.264 782.935 362.859 772.53 350.023 772.53V769.496C364.535 769.496 376.299 781.259 376.299 795.771H373.264ZM350.023 819.011C362.859 819.011 373.264 808.606 373.264 795.771H376.299C376.299 810.282 364.535 822.046 350.023 822.046V819.011ZM298.07 819.011H350.023V822.046H298.07V819.011ZM289.752 825.308L297.115 819.349L299.024 821.708L291.661 827.667L289.752 825.308Z" fill="#8FB5FF" mask="url(#path-16-inside-1_208_5345)"/>
<path d="M227.401 788.643H224.876L221.694 790.67V793.035L224.645 791.186H224.716V801.517H227.401V788.643ZM235.385 801.694C238.604 801.694 240.56 799.312 240.56 795.08C240.56 790.875 238.595 788.465 235.385 788.465C232.176 788.465 230.211 790.875 230.211 795.08C230.211 799.294 232.158 801.694 235.385 801.694ZM232.949 795.08C232.949 792.137 233.9 790.661 235.385 790.652C236.87 790.661 237.83 792.137 237.821 795.08C237.83 798.049 236.879 799.49 235.385 799.49C233.892 799.49 232.931 798.049 232.949 795.08ZM256.687 799.454H250.393V796.289H248.134V799.454H241.875V801.303H256.687V799.454ZM242.373 795.08L243.209 796.84C246.098 796.467 248.179 795.266 249.255 793.595C250.348 795.266 252.437 796.467 255.336 796.84L256.154 795.08C252.473 794.635 250.633 792.804 250.446 791.008H255.389V789.194H250.393V787.167H248.134V789.194H243.156V791.008H248.099C247.894 792.804 246.063 794.635 242.373 795.08ZM265.862 788.305H258.092V796.076H265.862V788.305ZM259.959 802.868H271.037V801.054H262.217V797.623H259.959V802.868ZM260.332 794.297V790.119H263.622V794.297H260.332ZM268.174 798.778H270.45V793.497H272.637V791.63H270.45V786.972H268.174V798.778ZM287.378 786.972H285.208V803.152H287.378V786.972ZM273.49 793.977C273.49 797.614 274.868 799.863 277.011 799.863C279.003 799.863 280.363 797.934 280.558 794.76H281.865V802.406H283.999V787.203H281.865V792.964H280.541C280.292 789.941 278.958 788.118 277.011 788.127C274.868 788.118 273.49 790.359 273.49 793.977ZM275.589 793.977C275.571 791.497 276.104 790.261 277.011 790.261C277.945 790.261 278.496 791.497 278.487 793.977C278.496 796.467 277.945 797.694 277.011 797.676C276.104 797.694 275.571 796.467 275.589 793.977ZM306.706 786.972H304.465V803.152H306.706V794.831H308.342V792.946H306.706V786.972ZM293.405 799.418H298.153V788.43H296.304V792.181H295.272V788.43H293.405V799.418ZM295.272 797.551V793.977H296.304V797.551H295.272ZM298.811 799.418H303.541V788.43H301.691V792.181H300.642V788.43H298.811V799.418ZM300.642 797.551V793.977H301.691V797.551H300.642ZM323.811 795.72H309V797.534H323.811V795.72ZM310.813 789.088H319.739V790.19H310.849V794.671H322.318V792.964H313.107V791.808H322.015V787.345H310.813V789.088ZM310.867 802.868H322.371V801.054H313.143V798.423H310.867V802.868ZM337.521 786.972H335.245V803.117H337.521V795.044H339.814V793.177H337.521V786.972ZM324.576 798.583L325.856 800.325C331.297 797.649 333.182 793.462 333.2 788.625H325.501V790.474H330.897C330.47 794.084 328.408 796.662 324.576 798.583ZM354.039 786.972H351.763V795.667H354.039V786.972ZM340.739 791.488C340.739 793.693 342.642 795.275 345.167 795.275C347.683 795.275 349.585 793.693 349.594 791.488C349.585 789.212 347.683 787.629 345.167 787.647C342.642 787.629 340.739 789.212 340.739 791.488ZM342.962 791.488C342.944 790.27 343.869 789.523 345.167 789.532C346.429 789.523 347.345 790.27 347.354 791.488C347.345 792.688 346.429 793.408 345.167 793.408C343.869 793.408 342.944 792.688 342.962 791.488ZM343.211 802.975H354.039V796.378H351.781V797.889H345.451V796.378H343.211V802.975ZM345.451 801.143V799.65H351.781V801.143H345.451Z" fill="#1F41FF"/>
</g>
<circle cx="229.117" cy="898.478" r="40.968" fill="#FFE713"/>
<path d="M229.117 883.456C220.067 883.456 212.73 889.252 212.73 896.385C212.73 901.022 215.837 905.088 220.505 907.366C220.161 908.636 219.261 911.98 219.082 912.716C218.862 913.607 219.409 913.607 219.771 913.353L226.074 909.042C227.081 909.191 228.099 909.266 229.117 909.265C238.168 909.265 245.505 903.491 245.505 896.363C245.505 889.234 238.159 883.456 229.117 883.456Z" fill="#0B0B0A"/>
<circle cx="338.365" cy="898.478" r="40.968" fill="#1EC800"/>
<path d="M342.239 884.822V898.079L333.162 884.822H323.344V911.097H333.129V897.839L342.207 911.097H352.021V884.822H342.239Z" fill="white"/>
<path d="M179.825 984.617H178.186V1003.1H179.825V984.617ZM165.303 992.479C165.314 996.411 167.264 998.9 170.012 998.89C172.751 998.9 174.732 996.411 174.721 992.479C174.732 988.559 172.751 986.059 170.012 986.049C167.264 986.059 165.314 988.559 165.303 992.479ZM166.88 992.479C166.88 989.482 168.166 987.511 170.012 987.501C171.869 987.511 173.145 989.482 173.145 992.479C173.145 995.477 171.869 997.448 170.012 997.437C168.166 997.448 166.88 995.477 166.88 992.479ZM190.716 986.775H183.662V998.101H190.716V992.936H193.516V1002.13H195.072V985.011H193.516V991.587H190.716V986.775ZM185.198 996.794V988.081H189.181V996.794H185.198ZM197.209 1003.06H198.785V984.617H197.209V1003.06ZM206.565 985.302C203.775 985.312 201.762 986.992 201.773 989.388C201.762 991.795 203.775 993.454 206.565 993.454C209.324 993.454 211.326 991.795 211.336 989.388C211.326 986.992 209.324 985.312 206.565 985.302ZM203.37 989.388C203.349 987.791 204.708 986.66 206.565 986.671C208.39 986.66 209.759 987.791 209.759 989.388C209.759 991.007 208.39 992.127 206.565 992.127C204.708 992.127 203.349 991.007 203.37 989.388ZM204.573 996.296H214.946V998.205H204.615V1002.81H217.228V1001.5H206.212V999.429H216.564V994.99H204.573V996.296ZM214.946 994.097H216.564V984.617H214.946V994.097ZM241.914 999.408H234.218V995.923H240.213V994.575H228.762V991.567H239.777V985.986H227.102V987.335H238.18V990.239H227.144V995.923H232.62V999.408H225.028V1000.78H241.914V999.408ZM257.929 986.588H245.212V987.936H256.331V988.434C256.331 990.695 256.331 993.454 255.585 997.23L257.244 997.396C257.929 993.382 257.929 990.758 257.929 988.434V986.588ZM243.387 1000.34H260.19V998.993H243.387V1000.34ZM276.973 984.638H275.354V998.122H276.973V984.638ZM262.182 990.446C262.171 993.133 264.256 995 267.015 994.99C269.774 995 271.838 993.133 271.849 990.446C271.838 987.791 269.774 985.934 267.015 985.924C264.256 985.934 262.171 987.791 262.182 990.446ZM263.779 990.446C263.758 988.642 265.148 987.355 267.015 987.355C268.851 987.355 270.251 988.642 270.251 990.446C270.251 992.282 268.851 993.558 267.015 993.558C265.148 993.558 263.758 992.282 263.779 990.446ZM265.065 1002.67H277.553V1001.3H266.683V996.753H265.065V1002.67Z" fill="#737982"/>
<rect x="304.149" y="983.758" width="1.51733" height="21.2427" fill="#D3D3D3"/>
<path d="M345.814 984.617H344.196V1003.06H345.814V984.617ZM330.795 998.143L331.043 999.533C334.466 999.533 338.978 999.47 343.096 998.807L342.972 997.562C341.271 997.79 339.466 997.915 337.682 997.998V996.047C339.87 995.799 341.302 994.533 341.291 992.708C341.302 990.623 339.497 989.274 336.831 989.285C334.166 989.274 332.392 990.623 332.413 992.708C332.392 994.554 333.823 995.819 336.043 996.047V998.06C334.176 998.122 332.371 998.132 330.795 998.143ZM331.189 988.227H342.495V986.899H337.682V984.638H336.043V986.899H331.189V988.227ZM333.927 992.708C333.917 991.421 335.12 990.55 336.831 990.55C338.553 990.55 339.746 991.421 339.736 992.708C339.746 993.983 338.553 994.824 336.831 994.803C335.12 994.824 333.917 993.983 333.927 992.708ZM364.256 984.638H362.617V995.55H358.8V996.732H362.617V998.641H364.256V984.638ZM348.946 993.185L349.174 994.512C350.72 994.512 352.494 994.512 354.361 994.44V997.998H355.999V994.357C357.69 994.253 359.422 994.087 361.061 993.828L360.957 992.645C357.006 993.133 352.379 993.164 348.946 993.185ZM350.44 988.6C350.429 990.571 352.276 991.795 355.004 991.795C357.711 991.795 359.557 990.571 359.568 988.6C359.557 986.66 357.711 985.385 355.004 985.385C352.276 985.385 350.429 986.66 350.44 988.6ZM351.602 1002.67H364.712V1001.3H353.24V997.271H351.602V1002.67ZM351.996 988.6C351.975 987.418 353.199 986.609 355.004 986.629C356.757 986.609 358.001 987.418 358.012 988.6C358.001 989.803 356.757 990.581 355.004 990.592C353.199 990.581 351.975 989.803 351.996 988.6ZM381.681 984.617H380.063V1003.06H381.681V993.496H384.669V992.127H381.681V984.617ZM367.534 998.267L368.446 999.553C374.452 996.587 376.9 991.826 376.91 986.609H368.384V987.978H375.261C374.888 992.345 372.294 995.902 367.534 998.267ZM400.995 984.617H399.377V994.512H400.995V984.617ZM386.204 989.762C386.193 992.272 388.237 994.004 391.037 993.994C393.838 994.004 395.861 992.272 395.871 989.762C395.861 987.241 393.838 985.509 391.037 985.53C388.237 985.509 386.193 987.241 386.204 989.762ZM387.801 989.762C387.78 988.071 389.139 986.889 391.037 986.899C392.915 986.889 394.274 988.071 394.274 989.762C394.274 991.442 392.915 992.635 391.037 992.645C389.139 992.635 387.78 991.442 387.801 989.762ZM389.046 1002.81H400.995V995.446H399.377V997.686H390.664V995.446H389.046V1002.81ZM390.664 1001.48V998.993H399.377V1001.48H390.664Z" fill="#737982"/>
</g>
<defs>
<filter id="filter0_d_208_5345" x="-13.656" y="772.533" width="596.312" height="408.163" filterUnits="userSpaceOnUse" color-interpolation-filters="sRGB">
<feFlood flood-opacity="0" result="BackgroundImageFix"/>
<feColorMatrix in="SourceAlpha" type="matrix" values="0 0 0 0 0 0 0 0 0 0 0 0 0 0 0 0 0 0 127 0" result="hardAlpha"/>
<feMorphology radius="4.552" operator="erode" in="SourceAlpha" result="effect1_dropShadow_208_5345"/>
<feOffset dy="-3.03467"/>
<feGaussianBlur stdDeviation="9.104"/>
<feComposite in2="hardAlpha" operator="out"/>
<feColorMatrix type="matrix" values="0 0 0 0 0.2 0 0 0 0 0.2 0 0 0 0 0.2 0 0 0 0.1 0"/>
<feBlend mode="normal" in2="BackgroundImageFix" result="effect1_dropShadow_208_5345"/>
<feBlend mode="normal" in="SourceGraphic" in2="effect1_dropShadow_208_5345" result="shape"/>
</filter>
<filter id="filter1_d_208_5345" x="172.976" y="749.77" width="232.152" height="116.844" filterUnits="userSpaceOnUse" color-interpolation-filters="sRGB">
<feFlood flood-opacity="0" result="BackgroundImageFix"/>
<feColorMatrix in="SourceAlpha" type="matrix" values="0 0 0 0 0 0 0 0 0 0 0 0 0 0 0 0 0 0 127 0" result="hardAlpha"/>
<feOffset dy="9.104"/>
<feGaussianBlur stdDeviation="15.1733"/>
<feComposite in2="hardAlpha" operator="out"/>
<feColorMatrix type="matrix" values="0 0 0 0 0.584314 0 0 0 0 0.615686 0 0 0 0 0.647059 0 0 0 0.2 0"/>
<feBlend mode="normal" in2="BackgroundImageFix" result="effect1_dropShadow_208_5345"/>
<feBlend mode="normal" in="SourceGraphic" in2="effect1_dropShadow_208_5345" result="shape"/>
</filter>
<clipPath id="clip0_208_5345">
<rect width="176.611" height="164.427" fill="white" transform="translate(299.695 468.118) rotate(13.8835)"/>
</clipPath>
</defs>
</svg>
