<svg width="548" height="621" viewBox="0 0 548 621" fill="none" xmlns="http://www.w3.org/2000/svg">
<path d="M381.7 0H158.68C143.78 0 131.7 12.08 131.7 26.98V260.03C131.7 274.93 143.78 287.01 158.68 287.01H247.33C247.43 287.22 247.55 287.44 247.68 287.64L266 315.81C268.2 319.2 273.16 319.2 275.37 315.81L293.69 287.64C293.82 287.43 293.94 287.22 294.04 287.01H381.69C396.59 287.01 408.67 274.93 408.67 260.03V26.98C408.67 12.08 396.59 0 381.69 0H381.7Z" fill="white"/>
<path d="M332.821 92.7767L219.012 52.6981C212.562 50.427 205.493 53.814 203.222 60.263L182.492 119.13C180.221 125.579 183.608 132.648 190.057 134.919L303.866 174.997C310.315 177.268 317.385 173.882 319.656 167.432L340.386 108.566C342.657 102.117 339.27 95.0477 332.821 92.7767Z" fill="#0B865F"/>
<path d="M324.78 98.3002L221.818 62.0415C216.671 60.2291 211.029 62.932 209.217 68.0788L192.057 116.806C190.245 121.952 192.948 127.594 198.095 129.406L301.057 165.665C306.204 167.478 311.845 164.775 313.658 159.628L330.817 110.901C332.63 105.754 329.927 100.113 324.78 98.3002Z" fill="#C7E5DA"/>
<path d="M303.503 113.008L184.402 93.675C177.653 92.5795 171.294 97.1625 170.198 103.911L160.198 165.515C159.103 172.264 163.686 178.623 170.435 179.719L289.536 199.052C296.285 200.147 302.644 195.564 303.74 188.815L313.739 127.211C314.835 120.463 310.252 114.103 303.503 113.008Z" fill="#F06364"/>
<path d="M296.565 119.864L188.815 102.374C183.429 101.5 178.354 105.157 177.479 110.543L169.202 161.536C168.328 166.922 171.985 171.997 177.372 172.871L285.121 190.362C290.507 191.236 295.582 187.578 296.457 182.192L304.734 131.2C305.608 125.814 301.951 120.739 296.565 119.864Z" fill="#FFD892"/>
<path d="M332.271 245.39C327.501 245.97 322.591 245.96 317.601 245.29C286.281 241.05 264.321 212.22 268.561 180.9C272.801 149.58 301.631 127.62 332.951 131.86C364.271 136.1 386.231 164.93 381.991 196.25C381.331 201.12 380.081 205.76 378.311 210.12L332.261 245.39H332.271Z" fill="#8ED69F"/>
<path d="M325.401 233.049C350.187 233.049 370.281 212.956 370.281 188.169C370.281 163.383 350.187 143.289 325.401 143.289C300.614 143.289 280.521 163.383 280.521 188.169C280.521 212.956 300.614 233.049 325.401 233.049Z" fill="#BCE1FF"/>
<path d="M378.16 210.26C378.16 210.26 341.96 203.85 332.7 243.11C332.7 243.11 332.24 244.93 332.15 245.39C332.19 245.39 332.22 245.39 332.26 245.38C334.77 243.47 377.78 211.06 378.17 210.27L378.16 210.26Z" fill="#6DB27C"/>
<path d="M533.55 589H14.45C6.46948 589 0 596.163 0 605C0 613.837 6.46948 621 14.45 621H533.55C541.531 621 548 613.837 548 605C548 596.163 541.531 589 533.55 589Z" fill="#1E38CA"/>
<path d="M19 359H532V590.925C532 598.691 525.597 605 517.715 605H33.295C25.4133 605 19.01 598.691 19.01 590.925V359H19Z" fill="white"/>
<path d="M395.32 367.461H532.19V591.501C532.19 598.921 526.16 604.951 518.74 604.951H395.32V367.461Z" fill="#DBE4FF"/>
<path d="M22.6199 355H395.32V383.45H22.6199C14.7699 383.45 8.3999 377.08 8.3999 369.23C8.3999 361.38 14.7699 355.01 22.6199 355.01V355Z" fill="#5980F9"/>
<path d="M395.32 355H527.63C535.48 355 541.85 361.37 541.85 369.22C541.85 377.07 535.48 383.44 527.63 383.44H395.32V354.99V355Z" fill="#385ED2"/>
<path d="M112.28 507H203.06C215.31 507 225.26 516.95 225.26 529.2V604.94H90.0703V529.2C90.0703 516.95 100.02 507 112.27 507H112.28Z" fill="url(#paint0_linear_33_1453)"/>
<path d="M253.72 440H20.5301C13.8301 440 8.39014 445.43 8.39014 452.14C8.39014 458.84 13.8201 464.28 20.5301 464.28H253.71C275.38 464.28 293.02 481.52 293.02 502.72V605.01H317.85V502.72C317.85 468.14 289.08 440.01 253.72 440.01V440Z" fill="#5980F9"/>
<path d="M499.42 424.82H476.74V467.51H499.42V424.82Z" fill="#7BACF5"/>
<path d="M460.22 424.82H437.54V467.51H460.22V424.82Z" fill="#7BACF5"/>
<path d="M499.42 485.18H476.74V527.87H499.42V485.18Z" fill="#7BACF5"/>
<path d="M460.22 485.18H437.54V527.87H460.22V485.18Z" fill="#7BACF5"/>
<defs>
<linearGradient id="paint0_linear_33_1453" x1="90" y1="564" x2="225" y2="564.5" gradientUnits="userSpaceOnUse">
<stop stop-color="#DBE4FF"/>
<stop offset="1" stop-color="#C5D3FF"/>
</linearGradient>
</defs>
</svg>
