<svg width="658" height="471" viewBox="0 0 658 471" fill="none" xmlns="http://www.w3.org/2000/svg">
<path d="M128.283 84.1895H10.918V356.781H128.283V84.1895Z" fill="#B3C9FB"/>
<path d="M308.75 84.1895H127.324V356.781H308.75V84.1895Z" fill="#587AD7"/>
<path d="M248.469 0.26625L68.002 0L137.441 87.5976L292.774 87.8639L319.08 87.9171L248.469 0.26625Z" fill="#3F4F97"/>
<path d="M124.394 87.5976H137.44L69.2794 1.43777L68.0013 0L0 87.3314L12.7802 87.3846L68.0013 18.052L124.394 87.5976Z" fill="#576EBE"/>
<path d="M124.395 87.5987L68.0024 16.4023L12.7812 87.3857L68.6414 87.4922L124.395 87.5987Z" fill="#B3C9FB"/>
<path d="M81.0478 142.339C84.2429 142.339 86.7989 139.73 86.7989 136.588V103.147C86.7989 92.816 78.0658 84.4023 67.3623 84.4023C56.6589 84.4023 47.9258 92.816 47.9258 103.147V136.588C47.9258 139.783 50.5351 142.339 53.6769 142.339H81.0478Z" fill="#587AD7"/>
<path d="M270.09 127.43H258.587C255.617 127.43 253.209 129.838 253.209 132.808V159.753C253.209 162.723 255.617 165.131 258.587 165.131H270.09C273.06 165.131 275.468 162.723 275.468 159.753V132.808C275.468 129.838 273.06 127.43 270.09 127.43Z" fill="white"/>
<path d="M227.755 127.43H216.306C213.336 127.43 210.928 129.838 210.928 132.808V159.753C210.928 162.723 213.336 165.131 216.306 165.131H227.755C230.725 165.131 233.133 162.723 233.133 159.753V132.808C233.133 129.838 230.725 127.43 227.755 127.43Z" fill="white"/>
<path d="M185.58 127.43H174.078C171.107 127.43 168.699 129.838 168.699 132.808V159.753C168.699 162.723 171.107 165.131 174.078 165.131H185.58C188.55 165.131 190.958 162.723 190.958 159.753V132.808C190.958 129.838 188.55 127.43 185.58 127.43Z" fill="white"/>
<path d="M270.09 184.086H258.587C255.617 184.086 253.209 186.494 253.209 189.464V216.409C253.209 219.38 255.617 221.788 258.587 221.788H270.09C273.06 221.788 275.468 219.38 275.468 216.409V189.464C275.468 186.494 273.06 184.086 270.09 184.086Z" fill="white"/>
<path d="M227.755 184.086H216.306C213.336 184.086 210.928 186.494 210.928 189.464V216.409C210.928 219.38 213.336 221.788 216.306 221.788H227.755C230.725 221.788 233.133 219.38 233.133 216.409V189.464C233.133 186.494 230.725 184.086 227.755 184.086Z" fill="white"/>
<path d="M185.58 184.086H174.078C171.107 184.086 168.699 186.494 168.699 189.464V216.409C168.699 219.38 171.107 221.788 174.078 221.788H185.58C188.55 221.788 190.958 219.38 190.958 216.409V189.464C190.958 186.494 188.55 184.086 185.58 184.086Z" fill="white"/>
<path d="M510.03 108.631H370.566V356.78H510.03V108.631Z" fill="#F7D1C4"/>
<path d="M377.329 356.783H247.504V114.225L307.092 51.7617L377.329 110.497V356.783Z" fill="white"/>
<path d="M522.065 118.642H377.276L307.891 39.9375H452.68L522.065 118.642Z" fill="#D9633B"/>
<path d="M317.689 115.768H298.306C294.571 115.768 291.543 118.795 291.543 122.53V153.096C291.543 156.831 294.571 159.859 298.306 159.859H317.689C321.424 159.859 324.452 156.831 324.452 153.096V122.53C324.452 118.795 321.424 115.768 317.689 115.768Z" fill="#ED977A"/>
<path d="M364.177 118.749L379.619 118.802L307.944 39.9375L237.812 118.429L252.936 118.482L307.944 58.1493L364.177 118.749Z" fill="#DE7F58"/>
<g clip-path="url(#clip0_33_904)">
<path d="M563.435 195.471C574.948 195.471 584.281 204.803 584.281 216.317C584.281 227.83 574.948 237.16 563.435 237.16C551.921 237.16 542.592 227.827 542.592 216.317C542.592 204.806 551.924 195.471 563.435 195.471Z" fill="white"/>
<path d="M563.434 184.072C581.308 184.072 595.8 198.564 595.8 216.437C595.8 234.311 563.434 286.976 563.434 286.976C563.434 286.976 531.072 234.311 531.072 216.437C531.072 198.564 545.561 184.072 563.434 184.072ZM584.28 216.316C584.28 204.803 574.948 195.47 563.434 195.47C551.921 195.47 542.591 204.803 542.591 216.316C542.591 227.829 551.924 237.159 563.434 237.159C574.945 237.159 584.28 227.827 584.28 216.316Z" fill="#F4855B"/>
</g>
<path d="M444.319 296.416C445.395 294.685 446.882 294 448.428 294.499C455.138 296.641 468.843 300.622 471.113 301.376C475.378 302.794 481.677 305.298 481.853 311.794C482.029 318.289 479.858 325.342 475.759 324.217C471.67 323.092 471.563 319.121 472.267 316.832C473.177 313.868 466.29 312.547 464.656 312.811C464.314 313.114 463.893 313.809 463.473 314.601C462.514 316.411 463.453 318.641 465.419 319.248C468.295 320.128 472.609 321.869 471.964 325.146C471.426 327.876 468.481 329.431 462.817 327.142C450.717 322.251 447.254 320.324 446.07 316.528C445.542 314.836 444.456 313.369 442.901 312.508L442.637 312.361L438.929 310.336C437.325 309.456 436.621 307.529 437.286 305.827L444.339 296.416H444.319Z" fill="url(#paint0_linear_33_904)"/>
<path d="M401.063 234.007C386.476 234.007 374.651 221.744 374.651 206.617C374.651 191.49 386.476 179.227 401.063 179.227C415.65 179.227 427.475 191.49 427.475 206.617C427.475 221.744 415.65 234.007 401.063 234.007Z" fill="url(#paint1_linear_33_904)"/>
<path d="M412.713 213.269C412.273 214.687 412.87 216.125 414.044 216.478C415.217 216.83 416.528 215.959 416.968 214.541C417.409 213.122 416.812 211.684 415.638 211.332C414.464 210.98 413.153 211.851 412.713 213.269Z" fill="#323232"/>
<path d="M412.713 213.269C412.273 214.687 412.87 216.125 414.044 216.478C415.217 216.83 416.528 215.959 416.968 214.541C417.409 213.122 416.812 211.684 415.638 211.332C414.464 210.98 413.153 211.851 412.713 213.269Z" fill="#323232"/>
<path d="M427.455 211.028C427.455 211.028 437.677 194.398 418.553 186.876C399.419 179.344 390.527 188.901 388.639 197.04L386.555 202.762L392.082 210.969L394.567 201.549C398.245 204.171 403.645 203.467 406.09 199.7C407.753 197.147 409.426 194.066 410.453 190.848C410.453 190.848 410.952 191.161 411.695 191.708C416.009 194.897 417.584 200.542 415.55 205.452L427.435 211.028H427.455Z" fill="#323232"/>
<path d="M423.62 193.557C423.62 193.557 427.356 191.043 419.188 185.781C411.02 180.518 390.155 175.47 380.911 181.887C365.875 192.325 376.411 216.937 376.411 216.937L388.541 209.268L393.246 190.769L423.62 193.557Z" fill="#323232"/>
<path d="M384.834 202.714C387.739 201.638 390.899 202.538 392.855 204.748C393.442 205.404 393.921 206.177 394.254 207.028C395.711 210.794 393.863 214.971 390.106 216.36C386.369 217.749 382.153 215.822 380.696 212.056C380.578 211.762 380.481 211.459 380.422 211.165C379.542 207.644 381.381 203.995 384.824 202.714H384.834Z" fill="url(#paint2_linear_33_904)"/>
<g style="mix-blend-mode:multiply" opacity="0.5">
<path d="M388.963 210.998C389.119 211.008 389.285 210.969 389.432 210.871C389.745 210.646 389.814 210.215 389.579 209.912C387.926 207.692 384.59 208.249 384.453 208.279C384.071 208.347 383.817 208.699 383.886 209.071C383.954 209.443 384.316 209.687 384.698 209.628C384.727 209.628 387.319 209.198 388.454 210.724C388.581 210.89 388.767 210.988 388.963 211.008V210.998Z" fill="url(#paint3_linear_33_904)"/>
</g>
<path d="M508.028 456.367L502.682 457.797L465.863 320.1L471.21 318.671L508.028 456.367Z" fill="#505050"/>
<path d="M495.57 349.2L499.811 347.869L597.039 317.361L601.27 316.033L605.502 314.705L637.471 416.588L629.008 419.244L626.414 410.978L529.187 441.486L531.78 449.752L523.307 452.411L491.338 350.528L495.57 349.2Z" fill="#F48E69"/>
<path d="M600.455 325.141L624.776 402.651L525.763 433.719L501.442 356.209L600.455 325.141ZM526.988 431.373L622.431 401.425L611.112 365.353L576.894 376.09C576.952 377.654 575.971 379.121 574.413 379.61L553.452 386.187C551.893 386.676 550.25 386.033 549.404 384.716L515.67 395.301L526.988 431.373ZM610.549 363.558L599.23 327.486L565.012 338.223C565.07 339.787 564.089 341.254 562.53 341.743L541.57 348.32C540.011 348.809 538.368 348.165 537.522 346.849L503.788 357.434L515.106 393.506L610.549 363.558Z" fill="#BA5236"/>
<path d="M626.414 410.978L634.877 408.322L637.471 416.588L629.007 419.244L626.414 410.978Z" fill="#7C4535"/>
<path d="M520.724 444.142L529.188 441.486L531.781 449.752L523.318 452.408L520.724 444.142Z" fill="#7C4535"/>
<path d="M517.08 461.583L514.672 454.76L653.697 411.007L656.106 417.843L517.08 461.583Z" fill="#505050"/>
<path d="M467.294 323.221C463.941 322.549 461.768 319.287 462.439 315.933C463.111 312.58 466.374 310.407 469.727 311.078C473.081 311.75 475.254 315.013 474.582 318.366C473.91 321.72 470.648 323.893 467.294 323.221Z" fill="#323232"/>
<path d="M510.091 470.296C504.965 471.666 499.673 468.614 498.303 463.488C496.934 458.362 499.986 453.07 505.112 451.7C510.237 450.331 515.53 453.383 516.899 458.509C518.269 463.635 515.217 468.927 510.091 470.296Z" fill="#323232"/>
<path d="M507.605 465.649C505.039 465.649 502.959 463.568 502.959 461.002C502.959 458.436 505.039 456.355 507.605 456.355C510.172 456.355 512.252 458.436 512.252 461.002C512.252 463.568 510.172 465.649 507.605 465.649Z" fill="#505050"/>
<path d="M429.793 198.792C429.793 183.316 417.008 172.918 401.249 172.918C385.48 172.918 372.704 183.316 372.704 198.792H429.803H429.793Z" fill="#97B6DD"/>
<path d="M408.175 198.791L435.878 199.965C438.001 200.053 439.057 197.49 437.483 196.091C434.47 193.421 430.635 190.496 428.62 190.799C424.971 191.347 412.841 196.903 408.175 198.791Z" fill="#78A0D3"/>
<path d="M397.67 172.917C397.67 173.974 399.274 174.835 401.24 174.835C403.206 174.835 404.811 173.974 404.811 172.917C404.811 171.861 403.206 171 401.24 171C399.274 171 397.67 171.861 397.67 172.917Z" fill="#78A0D3"/>
<path d="M301.431 414.361L341.724 461.315C342.389 462.088 343.563 462.147 344.316 461.452C359.028 447.816 349.765 435.588 345.91 431.587C345.177 430.824 345.275 429.582 346.116 428.936L395.594 390.971C395.976 390.678 396.22 390.248 396.279 389.778L403.831 330.302C403.938 329.481 403.459 328.688 402.676 328.405L353.589 310.229C352.425 309.799 351.183 310.66 351.183 311.902V369.147C351.183 369.676 350.948 370.175 350.547 370.517L301.636 411.837C300.873 412.482 300.785 413.617 301.431 414.37V414.361Z" fill="#183563"/>
<path d="M423.259 334.303L452.977 436.449C453.486 438.209 455.129 439.383 456.968 439.354C462.896 439.256 475.476 441.007 477.315 457.402C477.589 459.809 475.711 461.921 473.285 461.921H415.071C413.281 461.921 411.696 460.748 411.188 459.026L371.746 326.869C370.866 323.905 373.487 321.088 376.51 321.753L420.256 331.476C421.704 331.799 422.858 332.875 423.269 334.303H423.259Z" fill="#213D81"/>
<path d="M378.828 235.553C391.398 232.823 403.939 240.189 406.844 252.006L413.027 265.32C415.091 269.761 417.947 273.811 421.547 277.127C433.745 288.357 447.382 293.58 455.511 294.07C458.015 294.226 459.59 296.623 458.621 298.755L449.543 318.76C448.595 320.843 446.491 322.291 444.056 322.477C392.826 326.458 377.009 294.011 373.194 283.583C372.744 282.341 372.391 281.079 372.147 279.778L368.498 260.165C365.593 248.348 368.792 241.187 378.828 235.533V235.553Z" fill="#97B6DD"/>
<path d="M401.063 234.007C401.063 234.007 415.912 235.993 427.474 331.164C427.739 333.316 425.753 335.174 423.258 335.116L350.802 333.218C348.738 333.159 347.036 331.8 346.83 330.019C345.324 317.126 342.164 266.68 378.26 227.561C379.356 226.367 381.195 225.888 382.858 226.397L401.063 234.027V234.007Z" fill="#97B6DD"/>
<defs>
<linearGradient id="paint0_linear_33_904" x1="433.158" y1="298.803" x2="470.878" y2="316.049" gradientUnits="userSpaceOnUse">
<stop stop-color="#FDC1C5"/>
<stop offset="1" stop-color="#FDD2D5"/>
</linearGradient>
<linearGradient id="paint1_linear_33_904" x1="427.475" y1="206.617" x2="374.651" y2="206.617" gradientUnits="userSpaceOnUse">
<stop stop-color="#FDC1C5"/>
<stop offset="1" stop-color="#FDD2D5"/>
</linearGradient>
<linearGradient id="paint2_linear_33_904" x1="382.291" y1="204.349" x2="392.673" y2="214.731" gradientUnits="userSpaceOnUse">
<stop stop-color="#FDC1C5"/>
<stop offset="1" stop-color="#FDD2D5"/>
</linearGradient>
<linearGradient id="paint3_linear_33_904" x1="389.716" y1="209.599" x2="383.876" y2="209.599" gradientUnits="userSpaceOnUse">
<stop stop-color="#FDC1C5"/>
<stop offset="1" stop-color="#FDD2D5"/>
</linearGradient>
<clipPath id="clip0_33_904">
<rect width="64.8717" height="103.048" fill="white" transform="translate(531 184)"/>
</clipPath>
</defs>
</svg>
