<svg width="941" height="620" viewBox="0 0 941 620" fill="none" xmlns="http://www.w3.org/2000/svg">
<rect x="114" width="569" height="620" rx="35.4692" fill="white"/>
<rect x="149.964" y="371.602" width="498.984" height="76.1921" rx="11.2047" fill="white"/>
<path d="M191.888 399.768H189.764V420.683H191.888V399.768ZM174.124 408.802C174.124 413.342 175.898 416.19 178.629 416.178C180.415 416.19 181.792 414.988 182.551 412.91H185.585V419.656H187.686V400.165H185.585V404.693H182.539C181.792 402.627 180.415 401.437 178.629 401.449C175.898 401.437 174.124 404.273 174.124 408.802ZM176.155 408.802C176.143 405.464 177.077 403.514 178.629 403.526C180.17 403.514 181.15 405.464 181.15 408.802C181.15 412.128 180.17 414.089 178.629 414.077C177.077 414.089 176.143 412.128 176.155 408.802ZM183.006 406.491H185.585V411.089H183.006C183.123 410.389 183.181 409.619 183.181 408.802C183.181 407.973 183.123 407.203 183.006 406.491ZM196.93 418.863C197.829 418.851 198.576 418.116 198.588 417.205C198.576 416.295 197.829 415.548 196.93 415.548C196.02 415.548 195.261 416.295 195.273 417.205C195.261 418.116 196.02 418.851 196.93 418.863ZM195.296 407.985C195.284 408.895 196.043 409.63 196.954 409.642C197.852 409.63 198.599 408.895 198.611 407.985C198.599 407.074 197.852 406.327 196.954 406.327C196.043 406.327 195.284 407.074 195.296 407.985ZM225.806 410.716H206.664V412.49H215.301V416.342H217.496V412.49H225.806V410.716ZM209.045 420.24H223.681V418.442H211.24V414.521H209.045V420.24ZM209.185 408.872H223.285V400.422H221.067V402.966H211.38V400.422H209.185V408.872ZM211.38 407.098V404.623H221.067V407.098H211.38ZM244.714 399.768H242.496V420.73H244.714V399.768ZM228.513 403.456H236.053V407.518H228.537V415.711H230.311C234.011 415.7 237.162 415.56 240.862 414.941L240.652 413.12C237.15 413.692 234.198 413.856 230.801 413.867V409.292H238.318V401.659H228.513V403.456ZM258.72 401.612V400.468H256.409V401.612C256.397 404.425 253.012 406.993 248.915 407.541L249.802 409.362C253.199 408.813 256.198 407.039 257.564 404.577C258.93 407.039 261.929 408.813 265.349 409.362L266.213 407.541C262.104 406.993 258.708 404.39 258.72 401.612ZM248.005 413.237H256.409V420.683H258.58V413.237H267.076V411.416H248.005V413.237ZM286.078 399.768H283.884V408.055H279.192V409.875H283.884V420.683H286.078V399.768ZM268.617 415.058L269.784 416.808C276.881 413.295 279.238 408.066 279.262 402.009H269.551V403.783H277.009C276.624 408.58 274.161 412.35 268.617 415.058ZM296.629 403.62V403.059H301.134V401.262H289.813V403.059H294.411V403.643C294.4 406.549 292.427 409.245 289.159 410.319L290.303 412.093C292.812 411.218 294.645 409.409 295.555 407.121C296.477 409.105 298.216 410.681 300.597 411.439L301.648 409.712C298.473 408.708 296.617 406.281 296.629 403.62ZM291.984 416.715C291.984 419.201 294.656 420.648 299.01 420.637C303.317 420.648 305.943 419.201 305.943 416.715C305.943 414.264 303.317 412.828 299.01 412.84C294.656 412.828 291.984 414.264 291.984 416.715ZM294.201 416.715C294.19 415.349 295.987 414.579 299.01 414.591C302.009 414.579 303.784 415.349 303.772 416.715C303.784 418.116 302.009 418.898 299.01 418.886C295.987 418.898 294.19 418.116 294.201 416.715ZM303.538 412.327H305.756V406.771H308.791V404.95H305.756V399.768H303.538V412.327ZM333.254 399.768H331.037V402.569H325.761C324.781 401.542 323.31 400.935 321.606 400.935C318.408 400.935 316.109 402.954 316.12 405.837C316.109 408.732 318.408 410.704 321.606 410.693C323.298 410.704 324.769 410.109 325.75 409.105H331.037V411.486H333.254V399.768ZM318.245 405.837C318.233 404.005 319.645 402.767 321.606 402.779C323.509 402.767 324.921 404.005 324.921 405.837C324.921 407.67 323.509 408.872 321.606 408.872C319.645 408.872 318.233 407.67 318.245 405.837ZM318.945 420.357H333.675V418.559H330.523V414.217H333.418V412.42H319.155V414.217H322.073V418.559H318.945V420.357ZM324.244 418.559V414.217H328.329V418.559H324.244ZM326.812 404.343H331.037V407.284H326.835C326.963 406.829 327.045 406.351 327.045 405.837C327.045 405.312 326.963 404.81 326.812 404.343ZM354.473 399.768H352.349V420.683H354.473V399.768ZM336.709 408.802C336.709 413.342 338.483 416.19 341.214 416.178C343.805 416.19 345.545 413.657 345.743 409.572H348.101V419.656H350.225V400.165H348.101V407.775H345.731C345.475 403.853 343.759 401.437 341.214 401.449C338.483 401.437 336.709 404.273 336.709 408.802ZM338.763 408.802C338.763 405.464 339.709 403.514 341.214 403.526C342.755 403.514 343.712 405.464 343.712 408.802C343.712 412.128 342.755 414.089 341.214 414.077C339.709 414.089 338.763 412.128 338.763 408.802ZM380.268 412.42H373.591V410.646H371.397V412.42H364.721V414.124H380.268V412.42ZM362.947 409.899H382.088V408.125H373.685V406.187H379.941V404.437H367.732V400.071H365.538V406.187H371.467V408.125H362.947V409.899ZM366.145 417.812C366.133 419.668 368.433 420.648 372.471 420.637C376.533 420.648 378.855 419.668 378.867 417.812C378.855 415.956 376.533 414.964 372.471 414.964C368.433 414.964 366.133 415.956 366.145 417.812ZM368.456 417.812C368.444 416.925 369.891 416.517 372.471 416.528C375.062 416.517 376.544 416.925 376.533 417.812C376.544 418.688 375.062 419.096 372.471 419.096C369.891 419.096 368.444 418.688 368.456 417.812ZM389.231 401.332C386.103 401.344 383.874 404.191 383.886 408.662C383.874 413.179 386.103 416.026 389.231 416.015C392.359 416.026 394.589 413.179 394.6 408.662C394.589 404.191 392.359 401.344 389.231 401.332ZM386.01 408.662C385.998 405.382 387.329 403.328 389.231 403.316C391.169 403.328 392.476 405.382 392.476 408.662C392.476 411.988 391.169 414.031 389.231 414.031C387.329 414.031 385.998 411.988 386.01 408.662ZM397.705 420.683H399.922V409.829H403.284V407.961H399.922V399.768H397.705V420.683ZM423.359 411.556H404.288V413.354H412.691V420.66H414.862V413.354H423.359V411.556ZM405.361 408.218L406.202 409.969C409.587 409.432 412.539 407.74 413.823 405.359C415.096 407.74 418.06 409.432 421.492 409.969L422.309 408.218C418.352 407.681 415.131 405.359 415.096 402.779H421.562V401.005H406.062V402.779H412.574C412.504 405.359 409.26 407.681 405.361 408.218ZM431.319 405.487V401.682H429.171V405.58C429.183 409.14 427.619 412.84 424.666 414.614L426.043 416.272C428.074 415.034 429.522 412.77 430.28 410.121C431.004 412.537 432.323 414.626 434.284 415.805L435.521 414.101C432.72 412.385 431.319 408.825 431.319 405.487ZM433.257 408.965H436.501V419.656H438.602V400.165H436.501V407.121H433.257V408.965ZM440.82 420.683H442.944V399.768H440.82V420.683ZM464.746 416.225H460.171V410.716C461.852 409.77 462.856 408.288 462.856 406.444C462.856 403.153 459.623 400.993 455.129 400.982C450.647 400.993 447.414 403.153 447.426 406.444C447.414 408.323 448.465 409.817 450.18 410.763V416.225H445.605V418.069H464.746V416.225ZM449.573 406.444C449.573 404.191 451.849 402.756 455.129 402.756C458.385 402.756 460.696 404.191 460.708 406.444C460.696 408.685 458.385 410.144 455.129 410.156C451.849 410.144 449.573 408.685 449.573 406.444ZM452.375 416.225V411.58C453.215 411.778 454.149 411.883 455.129 411.883C456.133 411.883 457.078 411.778 457.93 411.58V416.225H452.375ZM468.645 418.863C469.544 418.851 470.29 418.116 470.302 417.205C470.29 416.295 469.544 415.548 468.645 415.548C467.734 415.548 466.976 416.295 466.987 417.205C466.976 418.116 467.734 418.851 468.645 418.863Z" fill="#949494"/>
<rect x="149.964" y="371.602" width="498.984" height="76.1921" rx="11.2047" stroke="#D3D3D3" stroke-width="1.49396"/>
<path fill-rule="evenodd" clip-rule="evenodd" d="M166.705 176.166C165.866 175.333 164.453 175.284 163.549 176.057C162.644 176.83 162.591 178.132 163.43 178.965L177.725 193.165C178.148 193.585 178.741 193.824 179.363 193.824C179.984 193.824 180.578 193.585 181 193.165L195.295 178.965C196.134 178.132 196.081 176.83 195.177 176.057C194.272 175.284 192.859 175.333 192.02 176.166L192.428 176.515L192.02 176.166L179.363 188.74L166.705 176.166Z" fill="#B7D0FF"/>
<path d="M163.549 176.057L162.098 174.359L162.098 174.359L163.549 176.057ZM166.705 176.166L165.131 177.751V177.751L166.705 176.166ZM163.43 178.965L161.856 180.55H161.856L163.43 178.965ZM177.725 193.165L179.299 191.581L177.725 193.165ZM181 193.165L179.426 191.581L179.426 191.581L181 193.165ZM195.295 178.965L193.721 177.381L193.721 177.381L195.295 178.965ZM195.177 176.057L196.628 174.359L196.628 174.359L195.177 176.057ZM192.02 176.166L190.446 174.582C190.003 175.021 189.765 175.626 189.788 176.25C189.811 176.873 190.095 177.459 190.569 177.864L192.02 176.166ZM190.977 178.213C191.915 179.014 193.325 178.904 194.126 177.966C194.928 177.028 194.817 175.618 193.879 174.817L190.977 178.213ZM192.02 176.166L193.471 174.468C192.587 173.713 191.271 173.762 190.446 174.582L192.02 176.166ZM179.363 188.74L177.789 190.324C178.66 191.19 180.066 191.19 180.937 190.324L179.363 188.74ZM165 177.755C164.997 177.757 165 177.754 165.013 177.749C165.027 177.745 165.049 177.741 165.074 177.742C165.1 177.742 165.119 177.748 165.13 177.752C165.139 177.756 165.137 177.757 165.131 177.751L168.279 174.582C166.607 172.921 163.877 172.838 162.098 174.359L165 177.755ZM165.004 177.381C165.011 177.388 165.03 177.41 165.046 177.45C165.061 177.489 165.069 177.534 165.067 177.58C165.063 177.681 165.015 177.742 165 177.755L162.098 174.359C160.212 175.97 160.081 178.786 161.856 180.55L165.004 177.381ZM179.299 191.581L165.004 177.381L161.856 180.55L176.151 194.75L179.299 191.581ZM179.363 191.59C179.337 191.59 179.316 191.585 179.303 191.58C179.289 191.574 179.29 191.571 179.299 191.581L176.151 194.75C177.012 195.605 178.18 196.057 179.363 196.057V191.59ZM179.426 191.581C179.435 191.571 179.436 191.574 179.423 191.58C179.409 191.585 179.388 191.59 179.363 191.59V196.057C180.546 196.057 181.714 195.605 182.574 194.75L179.426 191.581ZM193.721 177.381L179.426 191.581L182.574 194.75L196.87 180.55L193.721 177.381ZM193.726 177.755C193.711 177.742 193.662 177.681 193.658 177.58C193.656 177.534 193.664 177.489 193.679 177.45C193.695 177.41 193.714 177.388 193.721 177.381L196.87 180.55C198.645 178.786 198.514 175.97 196.628 174.359L193.726 177.755ZM193.594 177.751C193.588 177.757 193.586 177.756 193.596 177.752C193.606 177.748 193.626 177.742 193.651 177.742C193.677 177.741 193.698 177.745 193.713 177.749C193.725 177.754 193.728 177.757 193.726 177.755L196.628 174.359C194.848 172.838 192.118 172.921 190.446 174.582L193.594 177.751ZM193.879 174.817L193.471 174.468L190.569 177.864L190.977 178.213L193.879 174.817ZM190.569 177.864L190.977 178.213L193.879 174.817L193.471 174.468L190.569 177.864ZM180.937 190.324L193.594 177.751L190.446 174.582L177.789 187.155L180.937 190.324ZM165.131 177.751L177.789 190.324L180.937 187.155L168.279 174.582L165.131 177.751Z" fill="#A9C7FF"/>
<path fill-rule="evenodd" clip-rule="evenodd" d="M166.705 195.305C165.866 194.472 164.453 194.423 163.549 195.196C162.644 195.969 162.591 197.271 163.43 198.104L177.725 212.304C178.148 212.724 178.741 212.963 179.363 212.963C179.984 212.963 180.578 212.724 181 212.304L195.295 198.104C196.134 197.271 196.081 195.969 195.177 195.196C194.272 194.423 192.859 194.472 192.02 195.305L192.428 195.654L192.02 195.305L179.363 207.878L166.705 195.305Z" fill="#5A84FF"/>
<path d="M163.549 195.196L162.098 193.498L162.098 193.498L163.549 195.196ZM166.705 195.305L165.131 196.89V196.89L166.705 195.305ZM163.43 198.104L161.856 199.689H161.856L163.43 198.104ZM177.725 212.304L179.299 210.719L177.725 212.304ZM181 212.304L179.426 210.719L179.426 210.719L181 212.304ZM195.295 198.104L193.721 196.519L193.721 196.519L195.295 198.104ZM195.177 195.196L196.628 193.498L196.628 193.498L195.177 195.196ZM192.02 195.305L190.446 193.72C190.003 194.16 189.765 194.765 189.788 195.389C189.811 196.012 190.095 196.598 190.569 197.003L192.02 195.305ZM190.977 197.352C191.915 198.153 193.325 198.043 194.126 197.105C194.928 196.167 194.817 194.757 193.879 193.956L190.977 197.352ZM192.02 195.305L193.471 193.607C192.587 192.851 191.271 192.901 190.446 193.72L192.02 195.305ZM179.363 207.878L177.789 209.463C178.66 210.328 180.066 210.328 180.937 209.463L179.363 207.878ZM165 196.894C164.997 196.896 165 196.892 165.013 196.888C165.027 196.883 165.049 196.879 165.074 196.88C165.1 196.881 165.119 196.887 165.13 196.891C165.139 196.895 165.137 196.896 165.131 196.89L168.279 193.72C166.607 192.059 163.877 191.977 162.098 193.498L165 196.894ZM165.004 196.519C165.011 196.526 165.03 196.549 165.046 196.589C165.061 196.628 165.069 196.672 165.067 196.718C165.063 196.82 165.015 196.881 165 196.894L162.098 193.498C160.212 195.109 160.081 197.925 161.856 199.689L165.004 196.519ZM179.299 210.719L165.004 196.519L161.856 199.689L176.151 213.889L179.299 210.719ZM179.363 210.729C179.337 210.729 179.316 210.724 179.303 210.718C179.289 210.713 179.29 210.71 179.299 210.719L176.151 213.889C177.012 214.744 178.18 215.196 179.363 215.196V210.729ZM179.426 210.719C179.435 210.71 179.436 210.713 179.423 210.718C179.409 210.724 179.388 210.729 179.363 210.729V215.196C180.546 215.196 181.714 214.744 182.574 213.889L179.426 210.719ZM193.721 196.519L179.426 210.719L182.574 213.889L196.87 199.689L193.721 196.519ZM193.726 196.894C193.711 196.881 193.662 196.82 193.658 196.718C193.656 196.672 193.664 196.628 193.679 196.589C193.695 196.549 193.714 196.526 193.721 196.519L196.87 199.689C198.645 197.925 198.514 195.109 196.628 193.498L193.726 196.894ZM193.594 196.89C193.588 196.896 193.586 196.895 193.596 196.891C193.606 196.887 193.626 196.881 193.651 196.88C193.677 196.879 193.698 196.883 193.713 196.888C193.725 196.892 193.728 196.896 193.726 196.894L196.628 193.498C194.848 191.977 192.118 192.059 190.446 193.72L193.594 196.89ZM193.879 193.956L193.471 193.607L190.569 197.003L190.977 197.352L193.879 193.956ZM190.569 197.003L190.977 197.352L193.879 193.956L193.471 193.607L190.569 197.003ZM180.937 209.463L193.594 196.89L190.446 193.72L177.789 206.294L180.937 209.463ZM165.131 196.89L177.789 209.463L180.937 206.294L168.279 193.72L165.131 196.89Z" fill="#5A84FF"/>
<path d="M172.239 66.2858H168.504V85.6606H172.239V66.2858ZM149.917 79.0953L151.843 82.0424C154.95 80.9774 157.066 78.789 158.262 76.0753C159.444 78.5993 161.501 80.5835 164.507 81.5756L166.403 78.6577C162.041 77.2571 160.159 73.8285 160.188 70.3125V67.7447H156.307V70.3125C156.307 73.9161 154.367 77.6072 149.917 79.0953ZM154.44 92.3426H172.939V89.3663H158.204V83.7932H154.44V92.3426ZM190.972 69.0286H185.661V66.1399H181.897V69.0286H176.557V71.9465H181.897C181.868 74.9519 179.898 77.9865 175.653 79.2121L177.404 82.1008C180.54 81.1962 182.67 79.2558 183.823 76.8048C185.034 78.964 187.149 80.6418 190.184 81.4005L191.906 78.5409C187.631 77.4467 185.647 74.6747 185.603 71.9465H190.972V69.0286ZM180.001 87.7323C180.001 90.9566 183.502 92.8241 189.134 92.8095C194.794 92.8241 198.281 90.9566 198.296 87.7323C198.281 84.5518 194.794 82.7573 189.134 82.7427C183.502 82.7573 180.001 84.5518 180.001 87.7323ZM183.706 87.7323C183.706 86.3171 185.618 85.6023 189.134 85.6023C192.723 85.6023 194.576 86.3171 194.59 87.7323C194.576 89.1913 192.723 89.9791 189.134 89.9791C185.618 89.9791 183.706 89.1913 183.706 87.7323ZM190.184 76.3525H194.503V82.305H198.208V66.2566H194.503V73.3763H190.184V76.3525ZM232.756 80.9044H208.538V83.8807H218.75V92.8095H222.427V83.8807H232.756V80.9044ZM209.734 76.4401L211.105 79.358C215.73 78.7306 219.042 76.7464 220.662 74.0182C222.266 76.7464 225.607 78.7306 230.276 79.358L231.618 76.4401C226.162 75.7835 223.229 73.1866 222.85 70.5751H230.597V67.6572H210.726V70.5751H218.473C218.079 73.1866 215.103 75.7835 209.734 76.4401ZM258.667 86.6527H248.221V80.6418H244.515V86.6527H234.361V89.629H258.667V86.6527ZM234.945 78.3951L236.52 81.488C241.16 80.6564 244.617 78.1324 246.354 74.8352C248.104 78.147 251.577 80.6418 256.245 81.488L257.821 78.3951C251.752 77.4613 248.323 73.4638 248.338 69.6705V67.7739H244.369V69.6705C244.34 73.42 240.955 77.4613 234.945 78.3951Z" fill="black"/>
<path d="M174.223 265.028H150.005V267.976H160.217V269.668H152.806V272.469H167.6V273.841H152.835V280.873H171.976V278.071H156.482V276.467H171.276V269.668H163.952V267.976H174.223V265.028ZM153.01 263.628H171.159V255.254H153.01V263.628ZM156.657 260.768V258.142H167.454V260.768H156.657ZM200.047 266.925H175.828V269.872H186.07V272.148H178.629V280.756H197.158V272.148H189.776V269.872H200.047V266.925ZM177.958 258.201H181.401V262.256H178.133V265.233H197.712V262.256H194.415V258.201H197.887V255.224H177.958V258.201ZM182.306 277.78V275.037H193.51V277.78H182.306ZM185.136 262.256V258.201H190.68V262.256H185.136ZM213.761 254.874C207.633 254.874 204.073 256.479 204.073 259.397C204.073 262.359 207.633 263.949 213.761 263.949C219.874 263.949 223.404 262.359 223.419 259.397C223.404 256.479 219.874 254.874 213.761 254.874ZM201.651 268.151H225.87V265.204H201.651V268.151ZM204.453 272.411H219.246V273.87H204.482V280.873H223.623V278.071H208.129V276.467H222.923V269.697H204.453V272.411ZM207.983 259.397C207.969 258.215 209.865 257.588 213.761 257.588C217.685 257.588 219.567 258.215 219.567 259.397C219.567 260.695 217.685 261.206 213.761 261.206C209.865 261.206 207.969 260.695 207.983 259.397ZM241.685 256.362C237.658 256.362 234.77 260.024 234.799 265.816C234.77 271.652 237.658 275.299 241.685 275.299C245.391 275.299 248.134 272.177 248.527 267.071H253.094V281.106H256.77V254.495H253.094V264.095H248.484C247.958 259.309 245.274 256.362 241.685 256.362ZM238.359 265.816C238.344 261.877 239.701 259.718 241.685 259.718C243.684 259.718 245.011 261.877 245.011 265.816C245.011 269.77 243.684 271.929 241.685 271.915C239.701 271.929 238.344 269.77 238.359 265.816ZM283.207 269.96H275.27V267.888H271.535V269.96H263.569V272.79H283.207V269.96ZM260.622 266.983H261.906C264.197 266.983 265.86 266.954 268.092 266.517L267.859 263.599C266.575 263.876 265.437 264.007 264.24 264.066V258.463H267.596V255.575H260.622V266.983ZM265.524 277.313C265.51 279.764 268.442 281.077 273.344 281.077C278.232 281.077 281.164 279.764 281.164 277.313C281.164 274.935 278.232 273.593 273.344 273.578C268.442 273.593 265.51 274.935 265.524 277.313ZM268.821 266.983H270.251C273.753 266.983 275.343 266.94 277.196 266.517L276.933 263.599C275.562 263.92 274.38 264.036 272.498 264.08V258.463H276.262V255.575H268.821V266.983ZM269.493 277.313C269.493 276.51 270.849 276.16 273.344 276.146C275.795 276.16 277.123 276.51 277.137 277.313C277.123 278.174 275.795 278.538 273.344 278.538C270.849 278.538 269.493 278.174 269.493 277.313ZM275.533 262.461H279.151V268.647H282.798V254.495H279.151V259.63H275.533V262.461ZM309.03 254.495H305.529V281.048H309.03V254.495ZM285.687 272.907L287.788 275.533C291.566 273.344 294.032 270.718 295.549 267.684H299.897V279.881H303.369V255.078H299.897V264.737H296.702C297.344 262.548 297.621 260.185 297.621 257.646H287.146V260.652H293.93C293.419 265.86 291.056 269.726 285.687 272.907ZM341.156 254.495H337.421V264.708H332.636V267.684H337.421V281.106H341.156V254.495ZM318.601 273.228L320.556 276.087C323.59 274.774 325.691 272.075 326.829 268.866C327.996 271.886 330.112 274.424 333.132 275.679L335.116 272.819C330.783 270.937 328.653 266.648 328.667 262.811V261.79H334.066V258.813H328.697V255.078H324.962V258.813H319.447V261.79H324.962V262.811C324.947 266.794 322.875 271.317 318.601 273.228ZM366.804 254.495H363.099V281.106H366.804V254.495ZM345.941 259.718H354.783V264.007H345.971V274.891H348.363C353.207 274.891 357.161 274.73 361.523 273.957L361.202 270.952C357.307 271.594 353.878 271.798 349.822 271.827V266.954H358.576V256.712H345.941V259.718ZM391.431 254.437H387.697V268.822H391.431V263.19H395.02V260.214H391.431V254.437ZM370.364 259.309H386.121V256.479H380.11V254.32H376.404V256.479H370.364V259.309ZM371.648 264.299C371.648 267.013 374.289 268.632 378.243 268.647C382.226 268.632 384.779 267.013 384.779 264.299C384.779 261.644 382.226 259.966 378.243 259.951C374.289 259.966 371.648 261.644 371.648 264.299ZM373.807 272.586H387.726V274.074H373.866V280.873H392.19V278.13H377.513V276.613H391.431V269.901H373.807V272.586ZM375.295 264.299C375.281 263.176 376.404 262.563 378.243 262.577C380.095 262.563 381.248 263.176 381.248 264.299C381.248 265.437 380.095 265.977 378.243 265.991C376.404 265.977 375.281 265.437 375.295 264.299ZM417.459 254.495H413.724V281.048H417.459V267.976H420.99V264.912H417.459V254.495ZM395.662 273.344L398.58 275.416C403.336 270.193 404.095 264.503 404.124 257.209H396.83V260.243H400.564C400.331 265.539 399.281 269.42 395.662 273.344ZM403.161 275.066L406.108 277.138C410.806 271.36 411.463 264.78 411.477 257.209H405V260.243H407.961C407.757 266.079 406.765 270.631 403.161 275.066ZM446.317 274.891H440.919V268.311C442.918 267.071 444.114 265.218 444.129 262.928C444.114 258.624 439.869 255.793 434.12 255.779C428.343 255.793 424.141 258.624 424.141 262.928C424.141 265.262 425.381 267.144 427.438 268.384V274.891H422.011V277.955H446.317V274.891ZM427.818 262.928C427.818 260.258 430.312 258.711 434.12 258.726C437.87 258.711 440.438 260.258 440.452 262.928C440.438 265.525 437.87 267.129 434.12 267.129C430.312 267.129 427.818 265.525 427.818 262.928ZM431.115 274.891V269.741C432.049 269.916 433.055 270.018 434.12 270.018C435.185 270.018 436.207 269.916 437.155 269.726V274.891H431.115ZM452.474 271.71V272.031H456.326V271.71C456.34 269.668 457.07 268.72 458.718 267.742C460.629 266.59 461.87 265.072 461.87 262.665C461.87 259.061 458.995 256.946 454.925 256.946C451.19 256.946 448.141 258.915 448.068 263.015H452.211C452.27 261.308 453.539 260.404 454.896 260.389C456.311 260.404 457.449 261.352 457.434 262.811C457.449 264.153 456.471 265.058 455.217 265.875C453.466 266.969 452.488 268.078 452.474 271.71ZM452.036 276.175C452.007 277.532 453.116 278.626 454.487 278.626C455.786 278.626 456.909 277.532 456.909 276.175C456.909 274.833 455.786 273.738 454.487 273.753C453.116 273.738 452.007 274.833 452.036 276.175Z" fill="#1F41FF"/>
<circle cx="473.675" cy="249.845" r="4.48189" fill="#1F41FF"/>
<path d="M158.566 123.608V119.59H156.045V123.608C156.032 127.967 153.602 132.497 149.952 134.243L151.528 136.266C154.246 134.861 156.294 131.998 157.331 128.61C158.369 131.827 160.391 134.48 163.056 135.819L164.58 133.823C160.982 132.208 158.566 127.915 158.566 123.608ZM161.98 127.468H167.232V141.203H169.7V117.62H167.232V125.446H161.98V127.468ZM184.039 117.883C178.734 117.87 175.622 119.327 175.635 121.927C175.622 124.566 178.734 125.998 184.039 125.998C189.344 125.998 192.429 124.566 192.443 121.927C192.429 119.327 189.344 117.87 184.039 117.883ZM173.324 129.359H182.778V131.381H175.898V133.246H189.606V135.084H175.924V140.914H192.731V138.997H178.367V136.896H192.075V131.381H185.273V129.359H194.78V127.389H173.324V129.359ZM178.235 121.927C178.222 120.548 180.297 119.761 184.039 119.747C187.807 119.761 189.882 120.548 189.869 121.927C189.882 123.385 187.807 124.12 184.039 124.133C180.297 124.12 178.222 123.385 178.235 121.927ZM205.205 123.608V119.59H202.684V123.608C202.684 128.098 200.085 132.602 196.382 134.243L197.905 136.344C200.728 134.966 202.894 132.129 203.984 128.676C205.087 131.893 207.228 134.532 209.932 135.819L211.429 133.85C207.779 132.235 205.179 127.901 205.205 123.608ZM213.556 141.203H216.051V117.62H213.556V141.203ZM247.827 128.519H226.372V130.541H235.852V132.799C231.48 133.022 228.919 134.48 228.919 136.948C228.919 139.614 231.965 141.111 237.086 141.098C242.142 141.111 245.188 139.614 245.201 136.948C245.188 134.48 242.627 133.035 238.321 132.799V130.541H247.827V128.519ZM227.501 125.315L228.368 127.284C232.451 126.812 235.8 125.092 237.099 122.597C238.373 125.092 241.748 126.812 245.831 127.284L246.724 125.315C242.417 124.881 239.108 122.977 238.767 120.693H245.91V118.697H228.341V120.693H235.406C235.064 122.964 231.729 124.881 227.501 125.315ZM231.44 136.948C231.427 135.491 233.489 134.703 237.086 134.69C240.632 134.703 242.706 135.491 242.706 136.948C242.706 138.38 240.632 139.207 237.086 139.181C233.489 139.207 231.427 138.38 231.44 136.948ZM268.337 119.091H252.239V121.139H265.869V121.165C265.855 123.358 265.855 125.814 265.159 129.175H249.613V131.223H259.014V141.176H261.535V131.223H271.068V129.175H267.681C268.337 125.827 268.337 123.398 268.337 121.165V119.091ZM287.665 122.636V122.347H292.786V120.351H287.691V117.515H285.197V120.351H280.076V122.347H285.197V122.636C285.197 125.669 282.991 128.479 279.419 129.622L280.601 131.539C283.411 130.659 285.459 128.729 286.483 126.3C287.56 128.479 289.609 130.16 292.34 130.935L293.521 128.991C289.937 127.993 287.665 125.407 287.665 122.636ZM283.201 136.738C283.188 139.509 286.221 141.111 291.158 141.098C296.082 141.111 299.102 139.509 299.115 136.738C299.102 133.981 296.082 132.418 291.158 132.405C286.221 132.418 283.188 133.981 283.201 136.738ZM285.669 136.738C285.656 135.215 287.705 134.349 291.158 134.349C294.611 134.349 296.633 135.215 296.646 136.738C296.633 138.261 294.611 139.167 291.158 139.181C287.705 139.167 285.656 138.261 285.669 136.738ZM292.051 126.26H296.541V131.88H299.036V117.62H296.541V124.212H292.051V126.26ZM322.881 117.62H320.518V141.15H322.881V117.62ZM302.529 134.349L304 136.134C308.438 133.495 310.946 130.055 312.088 126.103H315.712V129.937H311.694V131.985H315.712V139.995H318.076V118.224H315.712V124.054H312.548C312.731 122.912 312.823 121.743 312.823 120.535H303.684V122.584H310.355C309.921 127.429 307.532 131.381 302.529 134.349ZM334.147 123.214V122.662H339.268V120.64H334.174V117.778H331.679V120.64H326.558V122.662H331.679V123.214C331.679 126.378 329.499 129.28 325.901 130.436L327.109 132.379C329.893 131.46 331.928 129.53 332.952 127.074C334.029 129.372 336.064 131.158 338.769 132.011L339.977 130.042C336.366 128.912 334.147 126.181 334.147 123.214ZM330.234 140.651H346.149V138.629H332.729V133.613H330.234V140.651ZM338.454 126.785H343.024V135.163H345.518V117.646H343.024V124.763H338.454V126.785ZM370.676 136.239H361.091V132.116H368.602V130.068H354.237V126.628H368.05V119.275H351.716V121.323H365.582V124.632H351.768V132.116H358.623V136.239H349.142V138.34H370.676V136.239ZM386.985 119.905H384.148L379.421 123.004V125.761L383.965 122.794H384.07V138.918H386.985V119.905ZM398.434 139.181C402.833 139.181 405.407 135.635 405.42 129.411C405.407 123.227 402.794 119.642 398.434 119.642C394.062 119.642 391.449 123.227 391.449 129.411C391.449 135.635 394.036 139.181 398.434 139.181ZM394.338 129.411C394.338 124.684 395.874 122.098 398.434 122.085C400.982 122.098 402.531 124.684 402.531 129.411C402.531 134.152 400.995 136.686 398.434 136.686C395.861 136.686 394.325 134.152 394.338 129.411ZM415.031 139.181C419.43 139.181 422.004 135.635 422.017 129.411C422.004 123.227 419.391 119.642 415.031 119.642C410.659 119.642 408.046 123.227 408.046 129.411C408.046 135.635 410.633 139.181 415.031 139.181ZM410.935 129.411C410.935 124.684 412.471 122.098 415.031 122.085C417.579 122.098 419.128 124.684 419.128 129.411C419.128 134.152 417.592 136.686 415.031 136.686C412.458 136.686 410.922 134.152 410.935 129.411ZM427.716 137.106H424.774L423.382 144.354H425.615L427.716 137.106ZM445.573 123.608V119.59H443.052V123.608C443.052 128.098 440.452 132.602 436.749 134.243L438.272 136.344C441.096 134.966 443.262 132.129 444.352 128.676C445.455 131.893 447.595 134.532 450.3 135.819L451.797 133.85C448.147 132.235 445.547 127.901 445.573 123.608ZM453.924 141.203H456.419V117.62H453.924V141.203ZM478.82 120.01H462.485V122.058H476.351V122.531C476.351 125.499 476.351 128.952 475.406 133.666L477.953 133.902C478.82 128.873 478.82 125.577 478.82 122.531V120.01ZM460.174 137.815H481.63V135.74H460.174V137.815ZM502.954 117.62H500.459V141.15H502.954V117.62ZM484.86 135.163H486.829C490.545 135.176 494.327 134.887 498.489 134.033L498.148 131.933C494.379 132.694 490.768 132.996 487.328 133.009V119.905H484.86V135.163ZM526.273 117.62H523.805V124.947H519.209V126.995H523.805V129.858H519.209V131.88H523.805V141.203H526.273V117.62ZM506.656 134.716L508.022 136.633C510.727 135.386 512.788 132.76 513.812 129.648C514.863 132.602 516.938 135.084 519.603 136.266L521.021 134.349C517.41 132.76 515.007 128.899 515.007 125.183V123.634H520.155V121.638H515.06V118.093H512.565V121.638H507.313V123.634H512.539V125.183C512.552 129.057 510.215 133.075 506.656 134.716ZM541.977 119.695H530.895V135.583H532.786C537.132 135.57 540.257 135.452 543.895 134.848L543.658 132.825C540.257 133.39 537.342 133.534 533.416 133.561V128.282H541.505V126.286H533.416V121.743H541.977V119.695ZM545.733 141.15H548.228V128.991H552.009V126.89H548.228V117.62H545.733V141.15ZM572.808 117.646H570.287V133.639H565.087V135.53H570.287V141.15H572.808V117.646ZM553.033 129.884L553.375 131.959C555.187 131.959 557.235 131.933 559.389 131.854V140.415H561.883V131.736C564.142 131.591 566.466 131.355 568.711 130.961L568.58 129.123C563.42 129.845 557.498 129.858 553.033 129.884ZM554.767 123.424C554.78 126.26 557.248 128.085 560.78 128.098C564.26 128.085 566.742 126.26 566.742 123.424C566.742 120.64 564.26 118.723 560.78 118.723C557.248 118.723 554.78 120.64 554.767 123.424ZM557.13 123.424C557.117 121.769 558.614 120.653 560.78 120.64C562.881 120.653 564.365 121.769 564.378 123.424C564.365 125.105 562.868 126.194 560.78 126.181C558.614 126.194 557.117 125.105 557.13 123.424ZM590.298 119.642C586.162 119.616 583.47 122.452 583.47 126.076C583.47 129.713 586.201 132.326 589.615 132.326C591.663 132.326 593.449 131.355 594.473 129.753H594.71C594.683 134.099 592.963 136.646 590.035 136.66C588.118 136.646 586.884 135.53 586.49 133.928H583.628C584.087 137.014 586.529 139.181 590.035 139.181C594.592 139.181 597.467 135.399 597.467 128.729C597.454 121.769 593.791 119.669 590.298 119.642ZM586.28 126.024C586.267 123.844 588 122.058 590.298 122.058C592.622 122.058 594.316 123.936 594.316 125.998C594.316 128.098 592.543 129.976 590.245 129.963C587.934 129.976 586.293 128.23 586.28 126.024ZM621.155 129.438H599.699V131.486H621.155V129.438ZM600.829 126.208L601.616 128.125C605.661 127.744 608.943 126.378 610.414 124.186C611.871 126.378 615.167 127.744 619.238 128.125L619.999 126.208C615.325 125.827 612.081 124.12 611.806 121.848H619.001V119.852H611.648V117.594H609.18V119.852H601.853V121.848H609.022C608.72 124.12 605.49 125.827 600.829 126.208ZM602.247 137.185C602.247 139.732 605.267 141.111 610.414 141.098C615.535 141.111 618.515 139.732 618.529 137.185C618.515 134.637 615.535 133.246 610.414 133.246C605.267 133.246 602.247 134.637 602.247 137.185ZM604.768 137.185C604.755 135.845 606.777 135.11 610.414 135.11C613.999 135.11 616.034 135.845 616.034 137.185C616.034 138.524 613.999 139.233 610.414 139.207C606.777 139.233 604.755 138.524 604.768 137.185Z" fill="black"/>
<circle cx="170.133" cy="332.149" r="14.9396" fill="#1F41FF"/>
<circle cx="170.133" cy="332.15" r="7.46982" fill="white"/>
<path d="M217.508 320.877H215.013V327.967H210.129V330.042H215.013V338.209H217.508V320.877ZM198.232 333.587L199.283 335.583C206.045 333.403 210.26 328.782 210.286 322.636H199.44V324.711H207.542C207.03 328.703 203.472 331.893 198.232 333.587ZM202.355 343.882H218.112V341.86H204.876V336.424H202.355V343.882ZM242.587 330.594H221.132V332.589H230.586V334.638H223.706V336.555H237.414V338.341H223.732V344.144H240.539V342.227H226.174V340.153H239.882V334.638H233.081V332.589H242.587V330.594ZM223.889 328.86H239.83V321.612H223.889V328.86ZM226.332 326.891V323.582H237.335V326.891H226.332ZM269.426 320.877H266.931V334.113H269.426V328.466H272.84V326.444H269.426V320.877ZM251.306 327.731C251.28 331.001 253.958 333.259 257.556 333.272C261.167 333.259 263.806 331.001 263.833 327.731C263.806 324.435 261.167 322.164 257.556 322.164C253.958 322.164 251.28 324.435 251.306 327.731ZM253.748 327.731C253.722 325.63 255.35 324.238 257.556 324.265C259.762 324.238 261.377 325.63 261.39 327.731C261.377 329.806 259.762 331.184 257.556 331.198C255.35 331.184 253.722 329.806 253.748 327.731ZM254.011 344.013H270.293V341.991H266.853V337.29H269.978V335.294H254.195V337.29H257.399V341.991H254.011V344.013ZM259.815 341.991V337.29H264.41V341.991H259.815ZM294.427 320.851H292.037V344.381H294.427V320.851ZM274.442 331.014C274.442 336.122 276.438 339.325 279.51 339.312C282.425 339.325 284.382 336.476 284.605 331.88H287.257V343.225H289.647V321.297H287.257V329.858H284.592C284.303 325.446 282.373 322.728 279.51 322.742C276.438 322.728 274.442 325.919 274.442 331.014ZM276.753 331.014C276.753 327.258 277.817 325.066 279.51 325.079C281.244 325.066 282.32 327.258 282.32 331.014C282.32 334.756 281.244 336.962 279.51 336.949C277.817 336.962 276.753 334.756 276.753 331.014ZM324.128 320.851H321.738V330.278H318.718V321.323H316.381V343.173H318.718V332.327H321.738V344.381H324.128V320.851ZM305.089 338.393H306.612C309.146 338.406 311.838 338.236 315.068 337.658L314.805 335.478C312.127 336.003 309.75 336.174 307.584 336.2V323.634H305.089V338.393ZM346.818 320.851H344.349V326.103H339.885V328.151H344.349V332.511H339.753V334.585H344.349V344.433H346.818V320.851ZM328.041 324.947H336.024V329.543H328.093V338.997H329.879C333.595 338.997 336.602 338.892 340.279 338.314L340.069 336.266C336.72 336.752 333.91 336.909 330.588 336.922V331.513H338.467V322.925H328.041V324.947ZM371.923 334.113H350.468V336.135H359.922V344.354H362.364V336.135H371.923V334.113ZM351.676 330.357L352.621 332.327C356.429 331.723 359.751 329.819 361.196 327.14C362.627 329.819 365.962 331.723 369.822 332.327L370.741 330.357C366.29 329.753 362.666 327.14 362.627 324.238H369.901V322.243H352.464V324.238H359.791C359.712 327.14 356.062 329.753 351.676 330.357ZM380.878 327.285V323.004H378.462V327.39C378.475 331.395 376.716 335.557 373.394 337.553L374.943 339.417C377.228 338.025 378.856 335.478 379.71 332.497C380.524 335.216 382.007 337.566 384.213 338.892L385.605 336.975C382.454 335.045 380.878 331.04 380.878 327.285ZM383.058 331.198H386.708V343.225H389.072V321.297H386.708V329.123H383.058V331.198ZM391.566 344.381H393.956V320.851H391.566V344.381ZM418.484 339.365H413.337V333.167C415.228 332.104 416.357 330.436 416.357 328.361C416.357 324.659 412.72 322.229 407.665 322.216C402.622 322.229 398.985 324.659 398.998 328.361C398.985 330.475 400.167 332.156 402.097 333.22V339.365H396.95V341.439H418.484V339.365ZM401.414 328.361C401.414 325.827 403.975 324.212 407.665 324.212C411.328 324.212 413.928 325.827 413.941 328.361C413.928 330.882 411.328 332.524 407.665 332.537C403.975 332.524 401.414 330.882 401.414 328.361ZM404.566 339.365V334.139C405.511 334.362 406.562 334.48 407.665 334.48C408.794 334.48 409.857 334.362 410.816 334.139V339.365H404.566Z" fill="black"/>
<circle cx="170.133" cy="499.473" r="14.9396" fill="#D3D3D3"/>
<circle cx="170.133" cy="499.474" r="7.46982" fill="white"/>
<path d="M211.363 490.591H198.18V492.639H200.596V503.905C199.545 503.918 198.534 503.932 197.602 503.932L197.891 506.006C202.014 505.993 207.568 505.914 212.492 505.087L212.361 503.275C211.258 503.406 210.116 503.511 208.947 503.603V492.639H211.363V490.591ZM203.012 503.866V492.639H206.531V503.748C205.349 503.8 204.167 503.84 203.012 503.866ZM213.726 511.705H216.221V499.493H220.003V497.445H216.221V488.175H213.726V511.705ZM240.224 500.701H226.358V497.288H239.489V495.318H226.358V492.14H239.988V490.118H223.837V502.697H240.224V500.701ZM221.132 508.737H242.666V506.689H221.132V508.737ZM264.016 488.175H261.522V495.764H254.51V497.813H261.522V511.757H264.016V488.175ZM245.634 506.085H247.524C251.214 506.098 254.628 505.888 258.423 505.113L258.108 503.065C254.681 503.748 251.516 503.958 248.155 504.01V490.775H245.634V506.085ZM287.1 488.175H284.631V501.463H287.1V488.175ZM269.059 499.887H271.002C275.125 499.874 278.67 499.598 282.557 498.811L282.215 496.736C278.67 497.498 275.348 497.76 271.553 497.786V489.54H269.059V499.887ZM271.685 511.39H287.1V502.54H271.685V511.39ZM274.127 509.394V504.509H284.658V509.394H274.127ZM310.341 488.175H307.846V511.757H310.341V488.175ZM291.669 498.18C291.669 503.262 294.204 506.466 297.762 506.453C301.255 506.466 303.828 503.262 303.828 498.18C303.828 493.151 301.255 489.948 297.762 489.934C294.204 489.948 291.669 493.151 291.669 498.18ZM294.085 498.18C294.072 494.491 295.569 492.18 297.762 492.167C299.915 492.18 301.412 494.491 301.412 498.18C301.412 501.923 299.915 504.22 297.762 504.22C295.569 504.22 294.072 501.923 294.085 498.18ZM338.992 488.175H336.497V511.679H338.992V499.625H342.642V497.55H338.992V488.175ZM320.688 505.402L322.08 507.346C329.827 503.525 332.82 497.445 332.847 490.643H321.87V492.718H330.299C329.787 498.207 326.583 502.461 320.688 505.402ZM363.546 488.175H361.051V494.74H356.534V496.815H361.051V499.73H356.534V501.804H361.051V511.705H363.546V488.175ZM343.693 505.323L345.347 507.214C347.973 505.77 350.087 502.802 351.111 499.336C352.175 502.5 354.276 505.297 356.849 506.636L358.346 504.719C354.827 502.96 352.306 498.482 352.306 494.793V492.587H357.48V490.538H344.585V492.587H349.785V494.793C349.772 499.034 347.251 503.564 343.693 505.323ZM385.474 488.175H382.979V511.679H385.474V499.625H389.124V497.55H385.474V488.175ZM367.17 505.402L368.562 507.346C376.309 503.525 379.303 497.445 379.329 490.643H368.352V492.718H376.782C376.269 498.207 373.066 502.461 367.17 505.402ZM397.554 494.609V490.328H395.138V494.714C395.151 498.719 393.392 502.881 390.07 504.877L391.619 506.742C393.904 505.35 395.532 502.802 396.385 499.822C397.199 502.54 398.683 504.89 400.889 506.216L402.281 504.299C399.13 502.369 397.554 498.364 397.554 494.609ZM399.734 498.522H403.384V510.549H405.747V488.621H403.384V496.447H399.734V498.522ZM408.242 511.705H410.632V488.175H408.242V511.705ZM435.16 506.689H430.013V500.491C431.903 499.428 433.033 497.76 433.033 495.686C433.033 491.983 429.396 489.554 424.34 489.54C419.298 489.554 415.661 491.983 415.674 495.686C415.661 497.8 416.843 499.48 418.773 500.544V506.689H413.626V508.764H435.16V506.689ZM418.09 495.686C418.09 493.151 420.651 491.536 424.34 491.536C428.004 491.536 430.604 493.151 430.617 495.686C430.604 498.207 428.004 499.848 424.34 499.861C420.651 499.848 418.09 498.207 418.09 495.686ZM421.241 506.689V501.463C422.187 501.686 423.237 501.804 424.34 501.804C425.47 501.804 426.533 501.686 427.492 501.463V506.689H421.241Z" fill="black"/>
<mask id="path-18-inside-1_33_772" fill="white">
<path d="M425.6 332.013C425.6 320.462 434.964 311.098 446.515 311.098H513.743C525.295 311.098 534.659 320.462 534.659 332.013C534.659 343.564 525.295 352.929 513.743 352.929H446.515C434.964 352.929 425.6 343.564 425.6 332.013Z"/>
</mask>
<path d="M425.6 332.013C425.6 320.462 434.964 311.098 446.515 311.098H513.743C525.295 311.098 534.659 320.462 534.659 332.013C534.659 343.564 525.295 352.929 513.743 352.929H446.515C434.964 352.929 425.6 343.564 425.6 332.013Z" fill="white"/>
<path d="M446.515 312.592H513.743V309.604H446.515V312.592ZM513.743 351.435H446.515V354.423H513.743V351.435ZM446.515 351.435C435.789 351.435 427.094 342.739 427.094 332.013H424.106C424.106 344.39 434.139 354.423 446.515 354.423V351.435ZM533.165 332.013C533.165 342.739 524.47 351.435 513.743 351.435V354.423C526.12 354.423 536.153 344.39 536.153 332.013H533.165ZM513.743 312.592C524.47 312.592 533.165 321.287 533.165 332.013H536.153C536.153 319.637 526.12 309.604 513.743 309.604V312.592ZM446.515 309.604C434.139 309.604 424.106 319.637 424.106 332.013H427.094C427.094 321.287 435.789 312.592 446.515 312.592V309.604Z" fill="#5980F9" mask="url(#path-18-inside-1_33_772)"/>
<g clip-path="url(#clip0_33_772)">
<path d="M452.562 341.759C457.905 341.759 462.237 337.427 462.237 332.083C462.237 326.74 457.905 322.408 452.562 322.408C447.218 322.408 442.887 326.74 442.887 332.083C442.887 337.427 447.218 341.759 452.562 341.759Z" fill="#5980F9"/>
<path d="M448.01 328.953L450.286 335.498L452.563 329.38" stroke="white" stroke-width="1.49396" stroke-miterlimit="10" stroke-linecap="round" stroke-linejoin="round"/>
<path d="M452.562 329.38L454.839 335.498L457.116 328.953" stroke="white" stroke-width="1.49396" stroke-miterlimit="10" stroke-linecap="round" stroke-linejoin="round"/>
<path d="M446.871 330.945H458.111" stroke="white" stroke-width="1.49396" stroke-miterlimit="10" stroke-linecap="round" stroke-linejoin="round"/>
</g>
<path d="M468.708 333.839H470.704C470.678 332.806 471.115 332.395 471.702 332.386C472.122 332.395 472.341 332.587 472.857 333.034C473.733 333.804 474.381 334.128 475.203 334.119C476.823 334.128 477.952 332.85 477.865 330.513H475.869C475.904 331.511 475.466 331.957 474.871 331.966C474.442 331.957 474.179 331.73 473.698 331.318C472.787 330.513 472.157 330.233 471.369 330.233C469.706 330.233 468.629 331.502 468.708 333.839ZM484.062 336.273H490.225V338.514H492.728V336.273H494.339V334.154H492.728V325.838H489.419L484.062 334.189V336.273ZM486.723 334.154V334.049L490.137 328.727H490.26V334.154H486.723ZM500.974 338.689C504.143 338.689 506.069 336.343 506.069 332.176C506.069 328.036 504.134 325.663 500.974 325.663C497.814 325.663 495.88 328.036 495.88 332.176C495.88 336.325 497.797 338.689 500.974 338.689ZM498.576 332.176C498.576 329.279 499.512 327.825 500.974 327.817C502.436 327.825 503.382 329.279 503.373 332.176C503.382 335.1 502.445 336.518 500.974 336.518C499.504 336.518 498.558 335.1 498.576 332.176ZM514.788 335.467V336.133C514.796 337.647 515.768 338.943 517.571 338.951C519.357 338.943 520.346 337.647 520.355 336.133V335.467C520.346 333.944 519.383 332.657 517.571 332.666C515.794 332.657 514.796 333.953 514.788 335.467ZM508.292 328.885C508.292 330.39 509.264 331.677 511.076 331.668C512.862 331.677 513.851 330.408 513.842 328.885V328.219C513.851 326.687 512.888 325.401 511.076 325.401C509.308 325.401 508.292 326.687 508.292 328.219V328.885ZM509.098 338.514H510.708L519.427 325.838H517.816L509.098 338.514ZM510.078 328.885V328.219C510.087 327.615 510.323 326.968 511.076 326.976C511.855 326.968 512.057 327.607 512.057 328.219V328.885C512.057 329.489 511.829 330.11 511.076 330.11C510.332 330.11 510.087 329.489 510.078 328.885ZM516.573 336.133V335.467C516.573 334.863 516.827 334.224 517.571 334.224C518.35 334.224 518.561 334.863 518.552 335.467V336.133C518.561 336.745 518.324 337.367 517.571 337.358C516.81 337.367 516.573 336.728 516.573 336.133Z" fill="#5980F9"/>
<rect x="114" width="569" height="620" rx="35.4692" fill="black" fill-opacity="0.5"/>
<g filter="url(#filter0_dd_33_772)">
<rect x="32" y="239" width="733.187" height="295" rx="27.3148" fill="white"/>
<rect x="74.3235" y="415.827" width="576.199" height="87.9825" rx="12.9386" fill="white"/>
<path d="M122.736 447.958H120.283V472.11H122.736V447.958ZM102.223 458.389C102.223 463.632 104.271 466.921 107.425 466.907C109.487 466.921 111.077 465.532 111.953 463.133H115.458V470.924H117.884V448.416H115.458V453.645H111.94C111.077 451.26 109.487 449.885 107.425 449.898C104.271 449.885 102.223 453.16 102.223 458.389ZM104.568 458.389C104.554 454.535 105.632 452.284 107.425 452.297C109.204 452.284 110.336 454.535 110.336 458.389C110.336 462.23 109.204 464.495 107.425 464.481C105.632 464.495 104.554 462.23 104.568 458.389ZM112.479 455.721H115.458V461.031H112.479C112.614 460.222 112.681 459.333 112.681 458.389C112.681 457.432 112.614 456.543 112.479 455.721ZM128.558 470.007C129.596 469.994 130.458 469.144 130.472 468.093C130.458 467.042 129.596 466.179 128.558 466.179C127.507 466.179 126.631 467.042 126.644 468.093C126.631 469.144 127.507 469.994 128.558 470.007ZM126.671 457.446C126.658 458.497 127.534 459.346 128.585 459.36C129.623 459.346 130.485 458.497 130.499 457.446C130.485 456.395 129.623 455.532 128.585 455.532C127.534 455.532 126.658 456.395 126.671 457.446ZM161.902 460.6H139.798V462.648H149.772V467.096H152.306V462.648H161.902V460.6ZM142.548 471.597H159.449V469.522H145.082V464.993H142.548V471.597ZM142.71 458.47H158.991V448.712H156.43V451.65H145.243V448.712H142.71V458.47ZM145.243 456.422V453.564H156.43V456.422H145.243ZM183.736 447.958H181.175V472.163H183.736V447.958ZM165.029 452.216H173.735V456.907H165.056V466.368H167.104C171.377 466.355 175.016 466.193 179.288 465.479L179.045 463.376C175.002 464.036 171.592 464.225 167.67 464.239V458.955H176.35V450.141H165.029V452.216ZM199.909 450.087V448.766H197.24V450.087C197.227 453.335 193.318 456.3 188.588 456.934L189.612 459.036C193.534 458.403 196.998 456.354 198.575 453.51C200.152 456.354 203.615 458.403 207.564 459.036L208.562 456.934C203.818 456.3 199.895 453.295 199.909 450.087ZM187.536 463.511H197.24V472.11H199.747V463.511H209.559V461.408H187.536V463.511ZM231.501 447.958H228.967V457.527H223.549V459.629H228.967V472.11H231.501V447.958ZM211.338 465.613L212.686 467.635C220.88 463.578 223.603 457.54 223.63 450.545H212.416V452.594H221.029C220.584 458.133 217.74 462.486 211.338 465.613ZM243.685 452.405V451.758H248.887V449.683H235.814V451.758H241.124V452.432C241.11 455.788 238.833 458.901 235.059 460.141L236.38 462.19C239.277 461.179 241.393 459.09 242.445 456.448C243.509 458.74 245.518 460.559 248.267 461.435L249.48 459.441C245.814 458.281 243.671 455.478 243.685 452.405ZM238.32 467.527C238.32 470.398 241.407 472.069 246.434 472.056C251.407 472.069 254.44 470.398 254.44 467.527C254.44 464.697 251.407 463.039 246.434 463.053C241.407 463.039 238.32 464.697 238.32 467.527ZM240.881 467.527C240.868 465.95 242.943 465.061 246.434 465.074C249.898 465.061 251.946 465.95 251.933 467.527C251.946 469.144 249.898 470.047 246.434 470.034C242.943 470.047 240.868 469.144 240.881 467.527ZM251.663 462.46H254.224V456.044H257.728V453.942H254.224V447.958H251.663V462.46ZM285.978 447.958H283.417V451.192H277.325C276.193 450.006 274.495 449.305 272.527 449.305C268.834 449.305 266.179 451.637 266.192 454.966C266.179 458.308 268.834 460.586 272.527 460.573C274.481 460.586 276.179 459.899 277.311 458.74H283.417V461.489H285.978V447.958ZM268.645 454.966C268.632 452.85 270.263 451.421 272.527 451.435C274.724 451.421 276.355 452.85 276.355 454.966C276.355 457.082 274.724 458.47 272.527 458.47C270.263 458.47 268.632 457.082 268.645 454.966ZM269.454 471.732H286.463V469.657H282.824V464.643H286.166V462.567H269.697V464.643H273.066V469.657H269.454V471.732ZM275.573 469.657V464.643H280.29V469.657H275.573ZM278.538 453.241H283.417V456.637H278.565C278.713 456.112 278.807 455.559 278.807 454.966C278.807 454.359 278.713 453.78 278.538 453.241ZM310.48 447.958H308.027V472.11H310.48V447.958ZM289.967 458.389C289.967 463.632 292.016 466.921 295.169 466.907C298.161 466.921 300.17 463.996 300.399 459.279H303.121V470.924H305.574V448.416H303.121V457.203H300.385C300.089 452.675 298.108 449.885 295.169 449.898C292.016 449.885 289.967 453.16 289.967 458.389ZM292.339 458.389C292.339 454.535 293.431 452.284 295.169 452.297C296.948 452.284 298.054 454.535 298.054 458.389C298.054 462.23 296.948 464.495 295.169 464.481C293.431 464.495 292.339 462.23 292.339 458.389ZM340.266 462.567H332.557V460.519H330.023V462.567H322.313V464.535H340.266V462.567ZM320.265 459.656H342.368V457.608H332.664V455.37H339.888V453.349H325.791V448.308H323.257V455.37H330.104V457.608H320.265V459.656ZM323.958 468.794C323.944 470.937 326.599 472.069 331.263 472.056C335.953 472.069 338.635 470.937 338.648 468.794C338.635 466.651 335.953 465.505 331.263 465.505C326.599 465.505 323.944 466.651 323.958 468.794ZM326.626 468.794C326.613 467.77 328.284 467.298 331.263 467.312C334.255 467.298 335.966 467.77 335.953 468.794C335.966 469.805 334.255 470.277 331.263 470.277C328.284 470.277 326.613 469.805 326.626 468.794ZM350.617 449.764C347.005 449.777 344.43 453.066 344.444 458.228C344.43 463.443 347.005 466.732 350.617 466.718C354.229 466.732 356.803 463.443 356.816 458.228C356.803 453.066 354.229 449.777 350.617 449.764ZM346.897 458.228C346.883 454.44 348.42 452.068 350.617 452.055C352.854 452.068 354.363 454.44 354.363 458.228C354.363 462.069 352.854 464.427 350.617 464.427C348.42 464.427 346.883 462.069 346.897 458.228ZM360.401 472.11H362.962V459.575H366.844V457.419H362.962V447.958H360.401V472.11ZM390.026 461.57H368.003V463.646H377.707V472.083H380.214V463.646H390.026V461.57ZM369.243 457.715L370.213 459.737C374.122 459.117 377.532 457.163 379.014 454.413C380.483 457.163 383.907 459.117 387.869 459.737L388.813 457.715C384.244 457.095 380.524 454.413 380.483 451.435H387.95V449.386H370.052V451.435H377.572C377.491 454.413 373.744 457.095 369.243 457.715ZM399.217 454.562V450.168H396.737V454.669C396.751 458.78 394.945 463.053 391.535 465.101L393.125 467.015C395.47 465.586 397.142 462.972 398.018 459.912C398.853 462.702 400.376 465.115 402.641 466.476L404.069 464.508C400.835 462.527 399.217 458.416 399.217 454.562ZM401.455 458.578H405.201V470.924H407.627V448.416H405.201V456.448H401.455V458.578ZM410.188 472.11H412.641V447.958H410.188V472.11ZM437.817 466.961H432.534V460.6C434.475 459.508 435.634 457.796 435.634 455.667C435.634 451.866 431.901 449.373 426.712 449.359C421.536 449.373 417.803 451.866 417.817 455.667C417.803 457.837 419.016 459.562 420.997 460.654V466.961H415.714V469.091H437.817V466.961ZM420.296 455.667C420.296 453.066 422.925 451.408 426.712 451.408C430.472 451.408 433.141 453.066 433.154 455.667C433.141 458.254 430.472 459.939 426.712 459.953C422.925 459.939 420.296 458.254 420.296 455.667ZM423.531 466.961V461.597C424.501 461.826 425.58 461.947 426.712 461.947C427.871 461.947 428.963 461.826 429.946 461.597V466.961H423.531ZM442.319 470.007C443.357 469.994 444.219 469.144 444.233 468.093C444.219 467.042 443.357 466.179 442.319 466.179C441.268 466.179 440.392 467.042 440.405 468.093C440.392 469.144 441.268 469.994 442.319 470.007Z" fill="#949494"/>
<rect x="74.3235" y="415.827" width="576.199" height="87.9825" rx="12.9386" stroke="#D3D3D3" stroke-width="1.72515"/>
<path d="M102.337 292.654H74.3707V296.058H86.1637V298.012H77.6053V301.246H94.6883V302.83H77.639V310.95H99.7425V307.716H81.8508V305.863H98.9338V298.012H90.4765V296.058H102.337V292.654ZM77.8412 291.037H98.799V281.367H77.8412V291.037ZM82.053 287.735V284.703H94.5199V287.735H82.053ZM132.156 294.845H104.19V298.248H116.017V300.876H107.425V310.816H128.821V300.876H120.296V298.248H132.156V294.845ZM106.65 284.77H110.626V289.454H106.852V292.89H129.461V289.454H125.653V284.77H129.663V281.333H106.65V284.77ZM111.67 307.379V304.212H124.609V307.379H111.67ZM114.939 289.454V284.77H121.34V289.454H114.939ZM147.993 280.929C140.917 280.929 136.806 282.782 136.806 286.151C136.806 289.571 140.917 291.408 147.993 291.408C155.052 291.408 159.129 289.571 159.145 286.151C159.129 282.782 155.052 280.929 147.993 280.929ZM134.01 296.26H161.976V292.857H134.01V296.26ZM137.244 301.179H154.327V302.864H137.278V310.95H159.381V307.716H141.49V305.863H158.573V298.046H137.244V301.179ZM141.321 286.151C141.304 284.787 143.494 284.062 147.993 284.062C152.525 284.062 154.698 284.787 154.698 286.151C154.698 287.651 152.525 288.241 147.993 288.241C143.494 288.241 141.304 287.651 141.321 286.151ZM180.238 282.647C175.588 282.647 172.253 286.876 172.286 293.564C172.253 300.303 175.588 304.515 180.238 304.515C184.517 304.515 187.684 300.91 188.139 295.013H193.413V311.22H197.658V280.491H193.413V291.576H188.089C187.482 286.05 184.382 282.647 180.238 282.647ZM176.397 293.564C176.38 289.015 177.947 286.522 180.238 286.522C182.546 286.522 184.079 289.015 184.079 293.564C184.079 298.13 182.546 300.623 180.238 300.606C177.947 300.623 176.38 298.13 176.397 293.564ZM228.185 298.349H219.02V295.956H214.707V298.349H205.509V301.617H228.185V298.349ZM202.106 294.912H203.588C206.233 294.912 208.154 294.878 210.731 294.373L210.462 291.003C208.979 291.324 207.665 291.475 206.284 291.543V285.073H210.159V281.738H202.106V294.912ZM207.766 306.84C207.749 309.67 211.136 311.186 216.796 311.186C222.44 311.186 225.826 309.67 225.826 306.84C225.826 304.094 222.44 302.544 216.796 302.527C211.136 302.544 207.749 304.094 207.766 306.84ZM211.574 294.912H213.225C217.268 294.912 219.104 294.861 221.244 294.373L220.941 291.003C219.357 291.374 217.992 291.509 215.819 291.559V285.073H220.166V281.738H211.574V294.912ZM212.349 306.84C212.349 305.913 213.915 305.509 216.796 305.492C219.627 305.509 221.16 305.913 221.177 306.84C221.16 307.834 219.627 308.255 216.796 308.255C213.915 308.255 212.349 307.834 212.349 306.84ZM219.323 289.689H223.501V296.833H227.713V280.491H223.501V286.421H219.323V289.689ZM258.004 280.491H253.961V311.153H258.004V280.491ZM231.049 301.752L233.475 304.784C237.838 302.257 240.686 299.225 242.438 295.721H247.458V309.805H251.468V281.165H247.458V292.318H243.769C244.51 289.79 244.83 287.061 244.83 284.13H232.734V287.6H240.568C239.978 293.615 237.249 298.079 231.049 301.752ZM295.102 280.491H290.789V292.284H285.263V295.721H290.789V311.22H295.102V280.491ZM269.056 302.123L271.314 305.425C274.818 303.908 277.244 300.792 278.558 297.085C279.906 300.573 282.349 303.504 285.836 304.953L288.127 301.651C283.123 299.478 280.664 294.524 280.681 290.094V288.914H286.914V285.478H280.714V281.165H276.401V285.478H270.033V288.914H276.401V290.094C276.385 294.693 273.992 299.916 269.056 302.123ZM324.719 280.491H320.44V311.22H324.719V280.491ZM300.628 286.522H310.837V291.475H300.661V304.043H303.424C309.018 304.043 313.583 303.858 318.62 302.965L318.25 299.494C313.752 300.236 309.793 300.472 305.109 300.505V294.878H315.217V283.052H300.628V286.522ZM353.157 280.423H348.844V297.035H353.157V290.532H357.301V287.095H353.157V280.423ZM328.83 286.05H347.025V282.782H340.084V280.289H335.804V282.782H328.83V286.05ZM330.312 291.812C330.312 294.946 333.362 296.816 337.927 296.833C342.526 296.816 345.475 294.946 345.475 291.812C345.475 288.746 342.526 286.809 337.927 286.792C333.362 286.809 330.312 288.746 330.312 291.812ZM332.806 301.381H348.878V303.1H332.873V310.95H354.033V307.783H337.085V306.031H353.157V298.281H332.806V301.381ZM334.524 291.812C334.507 290.515 335.804 289.807 337.927 289.824C340.067 289.807 341.398 290.515 341.398 291.812C341.398 293.126 340.067 293.75 337.927 293.766C335.804 293.75 334.507 293.126 334.524 291.812ZM383.212 280.491H378.899V311.153H383.212V296.058H387.289V292.52H383.212V280.491ZM358.043 302.257L361.412 304.65C366.904 298.618 367.78 292.048 367.814 283.624H359.39V287.129H363.703C363.434 293.244 362.221 297.725 358.043 302.257ZM366.702 304.245L370.105 306.638C375.53 299.966 376.288 292.368 376.305 283.624H368.825V287.129H372.245C372.009 293.867 370.863 299.124 366.702 304.245ZM416.536 304.043H410.302V296.445C412.611 295.013 413.992 292.873 414.009 290.228C413.992 285.259 409.09 281.99 402.452 281.973C395.78 281.99 390.928 285.259 390.928 290.228C390.928 292.924 392.36 295.097 394.736 296.529V304.043H388.469V307.581H416.536V304.043ZM395.174 290.228C395.174 287.145 398.055 285.36 402.452 285.376C406.781 285.36 409.747 287.145 409.763 290.228C409.747 293.227 406.781 295.08 402.452 295.08C398.055 295.08 395.174 293.227 395.174 290.228ZM398.981 304.043V298.096C400.059 298.298 401.222 298.416 402.452 298.416C403.682 298.416 404.861 298.298 405.956 298.079V304.043H398.981ZM423.645 300.37V300.741H428.093V300.37C428.11 298.012 428.952 296.917 430.856 295.788C433.063 294.457 434.495 292.705 434.495 289.925C434.495 285.764 431.176 283.321 426.476 283.321C422.163 283.321 418.642 285.596 418.558 290.33H423.342C423.41 288.358 424.875 287.314 426.442 287.297C428.076 287.314 429.39 288.409 429.373 290.094C429.39 291.644 428.262 292.688 426.813 293.632C424.791 294.895 423.662 296.176 423.645 300.37ZM423.14 305.526C423.106 307.092 424.387 308.356 425.97 308.356C427.47 308.356 428.767 307.092 428.767 305.526C428.767 303.976 427.47 302.712 425.97 302.729C424.387 302.712 423.106 303.976 423.14 305.526Z" fill="#1F41FF"/>
<circle cx="448.537" cy="275.228" r="5.17544" fill="#1F41FF"/>
<circle cx="97.6128" cy="370.626" r="17.2515" fill="#1F41FF"/>
<circle cx="97.6125" cy="370.626" r="8.62573" fill="white"/>
<path d="M152.319 357.564H149.438V365.752H143.798V368.147H149.438V377.578H152.319V357.564ZM130.06 372.241L131.273 374.546C139.082 372.029 143.949 366.692 143.98 359.596H131.455V361.991H140.811C140.219 366.601 136.11 370.285 130.06 372.241ZM134.821 384.128H153.016V381.793H137.733V375.516H134.821V384.128ZM181.279 368.784H156.504V371.089H167.421V373.454H159.476V375.668H175.305V377.73H159.506V384.432H178.914V382.218H162.326V379.822H178.156V373.454H170.302V371.089H181.279V368.784ZM159.688 366.783H178.095V358.413H159.688V366.783ZM162.508 364.508V360.687H175.214V364.508H162.508ZM212.271 357.564H209.39V372.848H212.271V366.328H216.213V363.993H212.271V357.564ZM191.347 365.479C191.317 369.254 194.41 371.862 198.564 371.877C202.734 371.862 205.782 369.254 205.812 365.479C205.782 361.673 202.734 359.05 198.564 359.05C194.41 359.05 191.317 361.673 191.347 365.479ZM194.167 365.479C194.137 363.053 196.017 361.445 198.564 361.476C201.112 361.445 202.977 363.053 202.992 365.479C202.977 367.874 201.112 369.466 198.564 369.481C196.017 369.466 194.137 367.874 194.167 365.479ZM194.47 384.28H213.272V381.945H209.299V376.517H212.908V374.212H194.683V376.517H198.382V381.945H194.47V384.28ZM201.172 381.945V376.517H206.479V381.945H201.172ZM241.14 357.534H238.381V384.705H241.14V357.534ZM218.063 369.269C218.063 375.167 220.368 378.867 223.916 378.852C227.282 378.867 229.541 375.577 229.799 370.27H232.862V383.37H235.621V358.049H232.862V367.935H229.784C229.45 362.84 227.221 359.702 223.916 359.717C220.368 359.702 218.063 363.386 218.063 369.269ZM220.732 369.269C220.732 364.933 221.96 362.401 223.916 362.416C225.917 362.401 227.161 364.933 227.161 369.269C227.161 373.591 225.917 376.138 223.916 376.123C221.96 376.138 220.732 373.591 220.732 369.269ZM275.438 357.534H272.678V368.42H269.191V358.079H266.492V383.31H269.191V370.785H272.678V384.705H275.438V357.534ZM253.452 377.791H255.211C258.137 377.806 261.246 377.609 264.976 376.941L264.672 374.424C261.579 375.031 258.835 375.228 256.333 375.258V360.748H253.452V377.791ZM301.638 357.534H298.788V363.598H293.633V365.964H298.788V370.998H293.481V373.393H298.788V384.765H301.638V357.534ZM279.956 362.264H289.175V367.571H280.017V378.488H282.079C286.37 378.488 289.842 378.367 294.087 377.7L293.845 375.334C289.978 375.895 286.734 376.077 282.898 376.092V369.845H291.995V359.929H279.956V362.264ZM330.629 372.848H305.854V375.183H316.77V384.674H319.591V375.183H330.629V372.848ZM307.248 368.511L308.34 370.785C312.737 370.088 316.573 367.889 318.241 364.796C319.894 367.889 323.745 370.088 328.203 370.785L329.264 368.511C324.124 367.814 319.939 364.796 319.894 361.445H328.294V359.141H308.158V361.445H316.619C316.528 364.796 312.313 367.814 307.248 368.511ZM340.97 364.963V360.02H338.18V365.084C338.195 369.709 336.163 374.515 332.327 376.82L334.116 378.973C336.755 377.366 338.635 374.424 339.62 370.983C340.56 374.121 342.274 376.835 344.821 378.367L346.428 376.153C342.789 373.924 340.97 369.3 340.97 364.963ZM343.487 369.481H347.702V383.37H350.431V358.049H347.702V367.086H343.487V369.481ZM353.312 384.705H356.071V357.534H353.312V384.705ZM384.395 378.913H378.451V371.756C380.635 370.528 381.939 368.602 381.939 366.206C381.939 361.931 377.739 359.126 371.901 359.11C366.079 359.126 361.879 361.931 361.894 366.206C361.879 368.648 363.243 370.588 365.472 371.817V378.913H359.528V381.308H384.395V378.913ZM364.684 366.206C364.684 363.28 367.64 361.415 371.901 361.415C376.131 361.415 379.133 363.28 379.149 366.206C379.133 369.118 376.131 371.013 371.901 371.028C367.64 371.013 364.684 369.118 364.684 366.206ZM368.323 378.913V372.878C369.414 373.136 370.627 373.272 371.901 373.272C373.205 373.272 374.433 373.136 375.54 372.878V378.913H368.323Z" fill="black"/>
<mask id="path-34-inside-2_33_772" fill="white">
<path d="M392.613 370.111C392.613 356.772 403.427 345.959 416.765 345.959H494.397C507.736 345.959 518.549 356.772 518.549 370.111C518.549 383.45 507.736 394.263 494.397 394.263H416.765C403.427 394.263 392.613 383.45 392.613 370.111Z"/>
</mask>
<path d="M392.613 370.111C392.613 356.772 403.427 345.959 416.765 345.959H494.397C507.736 345.959 518.549 356.772 518.549 370.111C518.549 383.45 507.736 394.263 494.397 394.263H416.765C403.427 394.263 392.613 383.45 392.613 370.111Z" fill="white"/>
<path d="M416.765 347.684H494.397V344.234H416.765V347.684ZM494.397 392.538H416.765V395.988H494.397V392.538ZM416.765 392.538C404.379 392.538 394.338 382.497 394.338 370.111H390.888C390.888 384.403 402.474 395.988 416.765 395.988V392.538ZM516.824 370.111C516.824 382.497 506.783 392.538 494.397 392.538V395.988C508.688 395.988 520.274 384.403 520.274 370.111H516.824ZM494.397 347.684C506.783 347.684 516.824 357.725 516.824 370.111H520.274C520.274 355.819 508.688 344.234 494.397 344.234V347.684ZM416.765 344.234C402.474 344.234 390.888 355.819 390.888 370.111H394.338C394.338 357.725 404.379 347.684 416.765 347.684V344.234Z" fill="#5980F9" mask="url(#path-34-inside-2_33_772)"/>
<g clip-path="url(#clip1_33_772)">
<path d="M423.749 381.364C429.919 381.364 434.921 376.362 434.921 370.192C434.921 364.022 429.919 359.02 423.749 359.02C417.578 359.02 412.576 364.022 412.576 370.192C412.576 376.362 417.578 381.364 423.749 381.364Z" fill="#5980F9"/>
<path d="M418.49 366.578L421.119 374.136L423.748 367.071" stroke="white" stroke-width="1.72515" stroke-miterlimit="10" stroke-linecap="round" stroke-linejoin="round"/>
<path d="M423.748 367.071L426.377 374.136L429.006 366.578" stroke="white" stroke-width="1.72515" stroke-miterlimit="10" stroke-linecap="round" stroke-linejoin="round"/>
<path d="M417.176 368.879H430.155" stroke="white" stroke-width="1.72515" stroke-miterlimit="10" stroke-linecap="round" stroke-linejoin="round"/>
</g>
<path d="M442.393 371.714H444.697C444.667 370.521 445.173 370.046 445.85 370.036C446.335 370.046 446.588 370.268 447.184 370.784C448.195 371.673 448.943 372.047 449.893 372.037C451.763 372.047 453.067 370.571 452.966 367.872H450.661C450.702 369.025 450.196 369.54 449.509 369.55C449.014 369.54 448.71 369.277 448.155 368.802C447.103 367.872 446.375 367.549 445.466 367.549C443.545 367.549 442.302 369.015 442.393 371.714ZM460.123 374.524H467.239V377.111H470.13V374.524H471.99V372.077H470.13V362.475H466.309L460.123 372.118V374.524ZM463.196 372.077V371.956L467.138 365.81H467.279V372.077H463.196ZM479.652 377.313C483.311 377.313 485.535 374.604 485.535 369.793C485.535 365.012 483.301 362.272 479.652 362.272C476.003 362.272 473.769 365.012 473.769 369.793C473.769 374.584 475.983 377.313 479.652 377.313ZM476.882 369.793C476.882 366.447 477.964 364.769 479.652 364.759C481.34 364.769 482.432 366.447 482.422 369.793C482.432 373.169 481.35 374.807 479.652 374.807C477.954 374.807 476.862 373.169 476.882 369.793ZM495.603 373.594V374.362C495.613 376.111 496.735 377.607 498.817 377.617C500.879 377.607 502.022 376.111 502.032 374.362V373.594C502.022 371.835 500.91 370.349 498.817 370.359C496.765 370.349 495.613 371.845 495.603 373.594ZM488.102 365.992C488.102 367.731 489.224 369.217 491.317 369.207C493.379 369.217 494.521 367.751 494.511 365.992V365.224C494.521 363.455 493.409 361.969 491.317 361.969C489.275 361.969 488.102 363.455 488.102 365.224V365.992ZM489.032 377.111H490.892L500.96 362.475H499.1L489.032 377.111ZM490.165 365.992V365.224C490.175 364.527 490.448 363.779 491.317 363.789C492.217 363.779 492.449 364.516 492.449 365.224V365.992C492.449 366.69 492.186 367.407 491.317 367.407C490.458 367.407 490.175 366.69 490.165 365.992ZM497.665 374.362V373.594C497.665 372.896 497.958 372.158 498.817 372.158C499.717 372.158 499.959 372.896 499.949 373.594V374.362C499.959 375.069 499.687 375.787 498.817 375.777C497.938 375.787 497.665 375.049 497.665 374.362Z" fill="#5980F9"/>
<rect x="500.469" y="424.951" width="407.904" height="70.4755" rx="17.085" fill="#F78752"/>
<path d="M486.332 463.332C483.656 461.659 483.656 457.761 486.332 456.088L500.47 447.252L500.47 472.168L486.332 463.332Z" fill="#F78752"/>
<path d="M541.94 449.522H538.737V462.736H534.382V464.913H538.737V466.715H541.94V449.522ZM522.569 459.608L522.945 462.135C524.672 462.135 526.611 462.123 528.651 462.048V465.063H525.473V471.871H542.441V469.318H528.651V466.19H531.854V461.86C533.694 461.722 535.558 461.51 537.36 461.209L537.185 458.932C532.367 459.52 526.736 459.583 522.569 459.608ZM524.246 454.377C524.246 456.817 526.586 458.394 529.977 458.381C533.281 458.394 535.646 456.817 535.658 454.377C535.646 451.949 533.281 450.285 529.977 450.298C526.586 450.285 524.246 451.949 524.246 454.377ZM527.275 454.377C527.262 453.251 528.351 452.625 529.977 452.625C531.504 452.625 532.605 453.251 532.63 454.377C532.605 455.478 531.504 456.091 529.977 456.079C528.351 456.091 527.262 455.478 527.275 454.377ZM563.013 449.497H559.809V462.911H563.013V457.53H565.916V454.878H563.013V449.497ZM544.543 460.459L544.868 462.661C548.848 462.661 554.128 462.623 558.983 461.81L558.758 459.833C556.994 460.058 555.129 460.208 553.252 460.308V459.407C555.705 459.095 557.219 458.068 557.232 456.454C557.219 454.602 555.029 453.514 551.651 453.526C548.247 453.514 546.057 454.602 546.07 456.454C546.057 458.081 547.584 459.107 550.074 459.42V460.421C548.097 460.459 546.207 460.459 544.543 460.459ZM545.144 453.051H558.183V450.923H553.252V449.297H550.074V450.923H545.144V453.051ZM547.571 465.839H559.809V466.89H547.596V472.121H563.764V469.994H550.8V468.818H563.013V463.712H547.571V465.839ZM549.123 456.454C549.11 455.791 550.024 455.503 551.651 455.503C553.252 455.503 554.166 455.791 554.178 456.454C554.166 457.143 553.252 457.493 551.651 457.505C550.024 457.493 549.11 457.143 549.123 456.454ZM585.011 449.522H581.808V466.515H585.011V459.107H588.09V456.504H585.011V449.522ZM566.942 454.427H580.456V451.899H575.301V449.472H572.123V451.899H566.942V454.427ZM568.043 459.633C568.043 462.26 570.383 463.987 573.699 463.987C577.003 463.987 579.305 462.26 579.305 459.633C579.305 456.992 577.003 455.228 573.699 455.228C570.383 455.228 568.043 456.992 568.043 459.633ZM570.246 471.871H585.837V469.318H573.424V465.214H570.246V471.871ZM571.172 459.633C571.159 458.369 572.173 457.668 573.699 457.656C575.238 457.668 576.277 458.369 576.277 459.633C576.277 460.884 575.238 461.56 573.699 461.56C572.173 461.56 571.159 460.884 571.172 459.633ZM607.936 450.823H595.523V453.376H600.178C600.14 456.217 598.413 459.145 594.647 460.358L596.349 462.811C598.989 461.948 600.816 460.171 601.829 457.956C602.818 459.983 604.557 461.61 607.085 462.436L608.712 459.958C605.02 458.782 603.419 456.041 603.406 453.376H607.936V450.823ZM597.725 466.74H609.863V472.271H613.066V464.213H597.725V466.74ZM609.863 463.237H613.066V457.681H616.145V455.028H613.066V449.497H609.863V463.237ZM623.503 450.473C619.999 450.448 617.421 452.738 617.446 455.854C617.421 459.032 619.999 461.309 623.503 461.309C626.431 461.309 628.771 459.608 629.359 457.105H633.163V461.735H636.341V449.497H633.163V454.552H629.346C628.721 452.112 626.406 450.448 623.503 450.473ZM620.474 455.854C620.462 454.152 621.713 453.113 623.503 453.126C625.229 453.113 626.468 454.152 626.481 455.854C626.468 457.555 625.229 458.632 623.503 458.632C621.713 458.632 620.462 457.555 620.474 455.854ZM621.15 472.021H636.341V462.736H633.163V464.938H624.303V462.736H621.15V472.021ZM624.303 469.443V467.391H633.163V469.443H624.303ZM649.681 449.822C644.425 449.822 641.372 451.199 641.372 453.701C641.372 456.242 644.425 457.606 649.681 457.606C654.924 457.606 657.952 456.242 657.965 453.701C657.952 451.199 654.924 449.822 649.681 449.822ZM639.295 461.209H660.067V458.682H639.295V461.209ZM641.697 464.863H654.386V466.115H641.722V472.121H658.14V469.718H644.85V468.342H657.539V462.536H641.697V464.863ZM644.725 453.701C644.713 452.688 646.34 452.15 649.681 452.15C653.047 452.15 654.661 452.688 654.661 453.701C654.661 454.815 653.047 455.253 649.681 455.253C646.34 455.253 644.713 454.815 644.725 453.701ZM674.783 450.448C671.316 450.423 668.789 452.412 668.801 455.278C668.789 458.119 671.316 460.133 674.783 460.108C678.261 460.133 680.789 458.119 680.789 455.278C680.789 452.412 678.261 450.423 674.783 450.448ZM667.4 461.51L667.8 464.112C669.439 464.087 671.329 464.075 673.331 463.987V471.595H676.509V463.8C678.411 463.649 680.339 463.412 682.216 463.036L682.015 460.684C677.16 461.422 671.441 461.497 667.4 461.51ZM671.879 455.278C671.867 453.826 673.081 452.988 674.783 453.001C676.534 452.988 677.761 453.826 677.761 455.278C677.761 456.705 676.534 457.53 674.783 457.505C673.081 457.53 671.867 456.705 671.879 455.278ZM683.392 472.271H686.545V449.522H683.392V472.271ZM700.485 452.976H696.581V450.122H693.428V452.976H689.473V455.503H700.485V452.976ZM689.999 461.935C689.999 465.114 692.126 467.366 695.029 467.366C697.945 467.366 700.022 465.114 700.035 461.935C700.022 458.769 697.945 456.542 695.029 456.529C692.126 456.542 689.999 458.769 689.999 461.935ZM692.802 461.935C692.802 460.221 693.703 459.182 695.029 459.182C696.306 459.182 697.219 460.221 697.232 461.935C697.219 463.675 696.306 464.663 695.029 464.663C693.703 464.663 692.802 463.675 692.802 461.935ZM701.336 471.295H704.314V461.309H706.166V472.271H709.194V449.497H706.166V458.757H704.314V449.947H701.336V471.295ZM736.273 450.423H728.115V452.951H733.158C733.12 454.302 732.995 455.954 732.444 458.106L735.573 458.456C736.273 455.616 736.273 453.414 736.273 451.824V450.423ZM717.603 462.411H738.276V459.858H729.917V455.854H726.763V459.858H717.603V462.411ZM719.255 452.951H723.197C723.109 454.202 722.872 455.866 722.108 458.056L725.187 458.481C726.363 455.303 726.363 452.875 726.363 451.399V450.423H719.255V452.951ZM719.806 466.79H732.519V472.146H735.748V464.238H719.806V466.79ZM758.547 450.823H746.134V453.376H750.789C750.751 456.217 749.025 459.145 745.258 460.358L746.96 462.811C749.6 461.948 751.427 460.171 752.441 457.956C753.429 459.983 755.169 461.61 757.696 462.436L759.323 459.958C755.632 458.782 754.03 456.041 754.017 453.376H758.547V450.823ZM748.336 466.74H760.474V472.271H763.678V464.213H748.336V466.74ZM760.474 463.237H763.678V457.681H766.756V455.028H763.678V449.497H760.474V463.237ZM776.366 452.6V450.673H773.138V452.75C773.125 455.929 771.449 458.982 767.557 460.233L769.234 462.786C771.974 461.86 773.814 459.996 774.815 457.618C775.778 459.67 777.443 461.234 779.895 462.085L781.572 459.583C777.918 458.456 776.354 455.641 776.366 452.6ZM771.336 467.866C771.336 470.682 774.314 472.284 779.169 472.271C784.037 472.284 787.015 470.682 787.028 467.866C787.015 465.063 784.037 463.424 779.169 463.437C774.314 463.424 771.336 465.063 771.336 467.866ZM774.514 467.866C774.514 466.565 776.154 465.914 779.169 465.914C782.198 465.914 783.837 466.565 783.849 467.866C783.837 469.13 782.198 469.794 779.169 469.794C776.154 469.794 774.514 469.13 774.514 467.866ZM779.495 456.279H783.774V462.836H786.953V449.497H783.774V453.676H779.495V456.279ZM800.893 452.976H796.988V450.122H793.835V452.976H789.881V455.503H800.893V452.976ZM790.406 461.935C790.406 465.114 792.534 467.366 795.437 467.366C798.352 467.366 800.43 465.114 800.442 461.935C800.43 458.769 798.352 456.542 795.437 456.529C792.534 456.542 790.406 458.769 790.406 461.935ZM793.209 461.935C793.209 460.221 794.11 459.182 795.437 459.182C796.713 459.182 797.627 460.221 797.639 461.935C797.627 463.675 796.713 464.663 795.437 464.663C794.11 464.663 793.209 463.675 793.209 461.935ZM801.744 471.295H804.722V461.309H806.574V472.271H809.602V449.497H806.574V458.757H804.722V449.947H801.744V471.295ZM832.827 462.06H812.055V464.613H820.814V472.271H823.967V464.613H832.827V462.06ZM813.081 458.231L814.257 460.734C818.224 460.196 821.064 458.494 822.453 456.154C823.83 458.494 826.695 460.196 830.7 460.734L831.851 458.231C827.171 457.668 824.656 455.441 824.33 453.201H830.975V450.698H813.932V453.201H820.576C820.238 455.441 817.686 457.668 813.081 458.231ZM841.511 455.228V451.449H838.408V455.378C838.408 459.232 837.157 463.249 833.778 465.339L835.73 467.691C837.795 466.44 839.159 464.275 839.972 461.697C840.698 464.025 841.937 466.002 843.914 467.191L845.641 464.713C842.525 462.723 841.499 458.919 841.511 455.228ZM843.238 459.783H846.191V471.22H849.169V449.822H846.191V457.18H843.238V459.783ZM850.896 472.271H853.95V449.497H850.896V472.271ZM877.199 466.991H872.569V461.347C874.284 460.283 875.31 458.694 875.322 456.73C875.31 453.038 871.669 450.611 866.738 450.598C861.783 450.611 858.179 453.038 858.179 456.73C858.179 458.732 859.243 460.346 861.007 461.41V466.991H856.352V469.618H877.199V466.991ZM861.332 456.73C861.332 454.44 863.472 453.113 866.738 453.126C869.954 453.113 872.157 454.44 872.169 456.73C872.157 458.957 869.954 460.333 866.738 460.333C863.472 460.333 861.332 458.957 861.332 456.73ZM864.16 466.991V462.573C864.961 462.723 865.825 462.811 866.738 462.811C867.652 462.811 868.528 462.723 869.341 462.561V466.991H864.16ZM883.681 451.849H879.827L880.153 464.538H883.356L883.681 451.849ZM879.677 468.092C879.652 469.255 880.603 470.194 881.779 470.194C882.893 470.194 883.857 469.255 883.857 468.092C883.857 466.941 882.893 466.002 881.779 466.015C880.603 466.002 879.652 466.941 879.677 468.092Z" fill="white"/>
</g>
<defs>
<filter id="filter0_dd_33_772" x="0" y="217" width="940.373" height="359" filterUnits="userSpaceOnUse" color-interpolation-filters="sRGB">
<feFlood flood-opacity="0" result="BackgroundImageFix"/>
<feColorMatrix in="SourceAlpha" type="matrix" values="0 0 0 0 0 0 0 0 0 0 0 0 0 0 0 0 0 0 127 0" result="hardAlpha"/>
<feMorphology radius="2" operator="erode" in="SourceAlpha" result="effect1_dropShadow_33_772"/>
<feOffset dy="4"/>
<feGaussianBlur stdDeviation="3"/>
<feComposite in2="hardAlpha" operator="out"/>
<feColorMatrix type="matrix" values="0 0 0 0 0 0 0 0 0 0 0 0 0 0 0 0 0 0 0.05 0"/>
<feBlend mode="normal" in2="BackgroundImageFix" result="effect1_dropShadow_33_772"/>
<feColorMatrix in="SourceAlpha" type="matrix" values="0 0 0 0 0 0 0 0 0 0 0 0 0 0 0 0 0 0 127 0" result="hardAlpha"/>
<feMorphology radius="3" operator="erode" in="SourceAlpha" result="effect2_dropShadow_33_772"/>
<feOffset dy="10"/>
<feGaussianBlur stdDeviation="17.5"/>
<feComposite in2="hardAlpha" operator="out"/>
<feColorMatrix type="matrix" values="0 0 0 0 0 0 0 0 0 0 0 0 0 0 0 0 0 0 0.2 0"/>
<feBlend mode="normal" in2="effect1_dropShadow_33_772" result="effect2_dropShadow_33_772"/>
<feBlend mode="normal" in="SourceGraphic" in2="effect2_dropShadow_33_772" result="shape"/>
</filter>
<clipPath id="clip0_33_772">
<rect width="29.8793" height="29.8793" fill="white" transform="translate(437.551 317.074)"/>
</clipPath>
<clipPath id="clip1_33_772">
<rect width="34.5029" height="34.5029" fill="white" transform="translate(406.414 352.859)"/>
</clipPath>
</defs>
</svg>
