<svg width="510" height="497" viewBox="0 0 510 497" fill="none" xmlns="http://www.w3.org/2000/svg">
<g style="mix-blend-mode:multiply">
<ellipse cx="235.452" cy="436.506" rx="235.452" ry="60.494" fill="#575757" fill-opacity="0.5"/>
</g>
<g clip-path="url(#clip0_33_846)">
<path d="M240.837 366.555L236.61 428.621C236.533 429.467 235.803 430.12 234.957 430.082L221.161 429.159C220.392 429.121 219.777 428.506 219.7 427.738L213.359 361.752C213.244 360.714 214.205 359.868 215.204 360.061L239.569 364.941C240.338 365.095 240.876 365.787 240.837 366.594V366.555Z" fill="#683B29"/>
<path d="M326.653 325.357L310.32 468.589C310.243 469.358 309.628 469.934 308.86 469.973L294.563 470.895C293.68 470.934 292.949 470.28 292.911 469.396L287.492 320.669C287.492 319.708 288.299 318.939 289.26 319.054L325.347 323.628C326.192 323.743 326.807 324.512 326.692 325.357H326.653Z" fill="#683B29"/>
<path d="M433.145 441.918L416.274 441.457C415.582 441.457 415.005 440.995 414.813 440.342L411.854 430.158L409.433 421.895L401.862 395.877L396.674 378.045L394.944 372.089L386.221 342.074C385.952 341.19 386.528 340.268 387.45 340.114L410.893 336.194C411.7 336.04 412.507 336.578 412.661 337.424L416.773 356.563L421.116 376.777L423.537 388.037L431.454 424.97L434.682 440.073C434.913 441.072 434.106 441.995 433.106 441.956L433.145 441.918Z" fill="#683B29"/>
<path d="M69.5504 288.346C70.3959 288.462 71.0108 289.23 70.8955 290.076L60.0196 385.5L59.6353 388.843L59.4815 390.189L55.9843 421.01L55.4847 425.238L54.5624 433.27C54.4855 434.038 53.8706 434.615 53.102 434.653L50.7193 434.807L38.8057 435.575C37.9218 435.614 37.1916 434.961 37.1531 434.077L36.6151 419.434L35.3469 384.309L35.0394 375.777L31.7344 285.387C31.7344 284.427 32.5414 283.658 33.5022 283.773L61.749 287.347L69.5889 288.346H69.5504Z" fill="#683B29"/>
<path d="M226.464 354.835C226.81 356.487 226.08 358.14 224.658 358.986C223.659 359.562 222.39 360.292 220.892 361.176C218.893 362.291 216.472 363.636 213.705 365.134C206.903 368.824 197.948 373.436 187.995 377.894C183.537 379.892 178.887 381.89 174.121 383.735C159.133 389.615 143.223 394.304 129.695 394.803C128.888 394.803 128.042 394.842 127.235 394.842C102.601 394.842 77.6594 391.729 59.6353 388.808C58.1365 388.577 56.6761 388.308 55.2542 388.078C45.8002 386.464 38.7289 385.003 35.347 384.273H35.2701C33.925 383.966 32.8489 383.005 32.4262 381.698C31.696 379.508 30.4662 375.626 28.9674 370.515C17.7456 332.66 -9.27138 225.246 36.9611 199.92C74.4697 179.359 120.126 200.804 145.567 203.417C156.097 204.493 165.474 203.34 172.968 201.495C179.079 200.035 183.959 198.113 187.188 196.653C187.188 196.653 187.226 196.653 187.265 196.615C189.532 195.577 192.145 196.884 192.683 199.305L208.594 272.554L226.464 354.758V354.835Z" fill="#D76643"/>
<path d="M333.801 18.7183C305.209 20.1786 252.405 16.2203 221.391 13.607C192.798 11.2242 168.894 11.8007 170.355 39.8553C172.315 77.4023 184.843 152.496 187.303 199.382C188.801 227.783 187.956 388.924 187.956 388.924L424.345 376.549C424.345 376.549 513.812 29.8248 491.906 12.5693C468.079 -6.14655 373.308 16.7199 333.801 18.7183Z" fill="#DE7F58"/>
<mask id="mask0_33_846" style="mask-type:luminance" maskUnits="userSpaceOnUse" x="170" y="5" width="326" height="384">
<path d="M333.801 18.7183C305.209 20.1786 252.405 16.2203 221.391 13.607C192.798 11.2242 168.894 11.8007 170.355 39.8553C172.315 77.4023 184.843 152.496 187.303 199.382C188.801 227.783 187.956 388.924 187.956 388.924L424.345 376.549C424.345 376.549 513.812 29.8248 491.906 12.5693C468.079 -6.14655 373.308 16.7199 333.801 18.7183Z" fill="white"/>
</mask>
<g mask="url(#mask0_33_846)">
<path d="M492.521 0.077976C492.521 0.077976 482.875 -2.53533 474.382 24.1358C461.008 66.1024 405.744 386.002 405.744 386.002L438.987 388.961L509.008 14.4127L492.521 0.077976Z" fill="#D0613C"/>
</g>
<path d="M327.499 381.656C326.577 385.768 325.693 389.573 324.924 392.878C323.464 398.912 322.272 403.408 321.657 405.676C321.388 406.752 321.235 407.29 321.235 407.29C321.235 407.29 320.312 407.482 317.276 407.828C313.356 408.251 305.862 408.942 292.142 409.826C291.681 409.826 291.22 409.865 290.759 409.903C288.799 410.018 286.531 410.057 284.033 410.095C272.85 410.249 256.632 409.788 237.955 408.865C231.498 408.558 224.734 408.174 217.778 407.751C202.176 406.79 185.573 405.599 169.163 404.254C120.625 400.257 73.893 394.877 59.4429 390.226C57.2524 389.535 55.792 388.843 55.2155 388.151C55.2155 388.151 54.9849 387.844 54.9465 387.69C54.7159 386.883 54.4085 385.576 54.0242 383.885C50.1042 365.9 40.1506 302.758 58.4053 289.576C59.4045 288.846 60.4806 288.115 61.6719 287.385C82.3093 274.357 131.732 257.371 188.11 267.824C193.682 268.861 199.332 270.168 205.058 271.744C206.249 272.09 207.402 272.397 208.555 272.666C222.89 276.125 235.38 275.702 247.486 274.242C252.981 273.588 258.438 272.705 263.934 271.897C269.238 271.09 274.579 270.36 280.152 269.899C292.45 268.9 305.747 269.284 321.388 273.665C326.999 275.241 330.766 279.814 333.187 286.386C334.724 290.613 335.685 295.648 336.223 301.259C338.413 325.009 332.495 358.675 327.46 381.656H327.499Z" fill="#E18864"/>
<mask id="mask1_33_846" style="mask-type:luminance" maskUnits="userSpaceOnUse" x="47" y="264" width="290" height="147">
<path d="M54.9843 387.652C52.2557 378.083 38.4974 303.988 58.4431 289.538C78.4272 275.126 138.533 252.99 205.096 271.706C248.177 283.812 273.964 260.292 321.465 273.628C356.014 283.312 321.234 407.291 321.234 407.291C321.234 407.291 316.469 408.29 292.142 409.827C249.906 412.517 57.7129 397.26 54.9843 387.652Z" fill="white"/>
</mask>
<g mask="url(#mask1_33_846)">
<path d="M268.314 304.872C268.314 304.872 157.748 316.362 133.882 314.018C103.137 310.982 61.9395 294.918 61.9395 294.918C61.9395 294.918 98.4873 319.014 137.072 320.705C156.095 321.551 268.314 304.872 268.314 304.872Z" fill="#ED9677"/>
</g>
<path d="M464.774 203.76C464.774 204.106 464.274 207.796 463.506 213.868C461.623 228.395 457.933 256.603 453.437 285.849C446.904 328.738 438.756 373.933 432.53 381.734C430.84 383.848 427.727 385.962 423.576 387.96C417.927 390.689 410.394 393.34 401.901 395.8C384.607 400.796 363.432 405.1 346.56 408.175C333.11 410.634 322.387 412.287 318.506 412.94C317.929 413.055 317.314 413.132 316.661 413.171C308.475 414.132 297.676 412.94 290.836 411.903C286.877 411.326 284.264 410.788 284.264 410.788C284.264 410.788 284.187 410.519 284.072 410.019C283.803 408.905 283.188 406.522 282.419 403.102C281.92 400.95 281.381 398.413 280.767 395.493C280.075 392.149 279.345 388.306 278.614 384.117C275.04 363.672 271.543 334.195 273.772 305.41C274.233 299.569 274.925 293.804 275.886 288.116C276.962 281.814 278.384 275.665 280.229 269.785C287.646 245.996 301.788 226.204 326.845 217.596C363.931 204.875 384.492 217.211 405.59 227.28C410.164 229.471 414.775 231.546 419.618 233.275C421.193 233.813 422.769 234.351 424.383 234.813C453.322 243.114 464.428 204.875 464.774 203.684V203.76Z" fill="#D76643"/>
</g>
<path d="M263.948 90.2964C264.134 89.8479 264.553 89.6012 264.971 89.3545L279.941 82.2218C281.212 81.6984 282.774 82.2438 283.298 83.5144C284.023 84.5532 283.477 86.1154 282.222 86.8555L267.252 93.9882C265.981 94.5116 264.419 93.9662 263.896 92.6956C263.417 92.0753 263.559 90.9766 263.948 90.2964Z" fill="white"/>
<path d="M249.035 79.6199L256.851 66.6658C257.643 65.5221 259.131 64.9837 260.274 65.7759C261.418 66.568 261.956 68.0553 261.164 69.199L253.348 82.1531C252.556 83.2968 251.068 83.8352 249.925 83.0431C248.564 82.2659 248.243 80.7636 249.035 79.6199Z" fill="white"/>
<path d="M223.501 63.4083C223.688 62.9598 224.106 62.7131 224.525 62.4664C225.795 61.943 227.357 62.4884 227.881 63.759L235.058 79.3793C235.582 80.6499 235.036 82.2121 233.766 82.7355C232.495 83.2589 230.933 82.7135 230.41 81.4429L223.232 65.8226C223.172 64.9555 223.112 64.0885 223.501 63.4083Z" fill="white"/>
<path d="M182.594 145.446C182.594 145.446 122.654 242.312 110.916 246.348C87.3606 254.797 75.3851 246.913 75.3851 246.913L53.5564 231.396C57.7475 217.251 46.7334 195.525 63.0876 173.478C78.3228 152.975 107.458 128.499 120.837 120.46C176.86 91.4083 182.594 145.446 182.594 145.446Z" fill="url(#paint0_linear_33_846)"/>
<path d="M162.07 192.719C162.07 192.719 175.349 218.685 156.395 223.166C137.441 227.647 126.4 220.95 126.4 220.95L126.815 189.188L162.07 192.719Z" fill="#F0A89D"/>
<path d="M150.397 210.419C150.397 210.419 160.165 238.013 140.976 239.873C121.788 241.732 111.407 233.79 111.407 233.79L115.918 202.305L150.397 210.419Z" fill="#F0A89D"/>
<path d="M134.51 221.882C134.51 221.882 144.278 249.476 125.09 251.336C105.901 253.195 95.5203 245.253 95.5203 245.253L100.031 213.768L134.51 221.882Z" fill="#F0A89D"/>
<path d="M110.393 159.39C110.393 159.39 129.765 132.446 137.313 113.672C137.313 113.672 143.228 110.972 147.759 112.924C152.291 114.875 130.033 160.99 130.033 160.99C130.033 160.99 129.291 169.141 110.393 159.39Z" fill="#F4BFBA"/>
<path d="M103.818 185.689L265.006 246.431C275.261 229.816 285.93 210.32 296.026 187.934C305.071 167.698 312.092 148.615 317.534 131.373C318.556 128.425 316.847 125.293 313.899 124.271L166.615 68.8548C163.666 67.833 160.425 69.1229 159.254 71.8416C153.485 87.8274 146.758 104.599 139.153 121.777C128.965 145.529 116.638 167.244 103.818 185.689Z" fill="white"/>
<path d="M224.089 139.717C223.219 139.433 223.126 138.009 223.426 136.688C224.078 133.621 225.207 130.261 226.459 127.065C224.539 127.072 222.69 127.392 220.064 128.021C219.593 129.682 219.258 131.351 219.023 132.924C218.84 133.973 218.272 134.505 217.42 134.324C216.568 134.143 216.233 132.648 216.333 131.522C216.618 128.041 218.493 122.287 219.712 119.994C220.298 118.911 220.759 118.416 221.623 118.54C222.702 118.769 223.224 119.849 222.668 120.977C222.12 122.068 221.654 123.235 221.219 124.448C223.201 124.058 225.362 123.943 227.6 124.3C227.948 123.503 228.295 122.707 228.687 121.979C229.111 121.1 230.132 119.457 231.128 119.985C232.377 120.626 231.832 122.726 231.304 123.722C229.401 127.65 227.316 133.834 225.903 138.44C225.579 139.499 224.958 140 224.051 139.709L224.089 139.717ZM205.185 111.547C205.301 110.721 205.163 109.881 204.263 109.551C203.394 109.268 202.311 109.987 202.025 111.054C200.307 117 199.594 118.589 199.252 119.546C197.342 119.041 195.357 119.628 194.35 121.67C192.891 124.07 192.449 129.317 195.802 130.484C196.886 130.873 197.949 130.248 198.913 128.593C200.097 126.748 201.461 123.397 202.636 120.007C203.815 116.598 204.823 113.251 205.204 111.551L205.185 111.547ZM216.78 117.867C216.857 117.132 216.699 116.386 215.8 116.057C214.93 115.773 213.921 116.429 213.656 117.303C213.104 119.342 212.25 122.247 211.522 124.09C208.767 124.019 206.854 125.947 206.2 128.004C205.486 130.247 205.506 133.416 208.194 134.264C209.158 134.568 210.272 134.072 211.2 132.687C213.045 130.052 216.039 121.172 216.776 117.886L216.78 117.867ZM208.519 118.388C208.975 117.08 208.549 115.921 207.484 115.438C206.623 115.117 206.131 116.219 205.766 116.913C204.433 119.558 202.229 125.559 201.876 128.431C201.71 129.583 201.833 130.776 202.97 131.196C203.349 131.276 204.443 131.153 204.662 129.656C205.041 126.848 207.559 120.954 208.519 118.388ZM195.5 113.368C195.865 112.021 195.378 110.869 194.285 110.518C193.416 110.235 192.958 111.364 192.688 112.078C191.532 115.097 190.519 118.937 190.063 121.827C189.898 122.979 190.176 124.186 191.337 124.492C191.716 124.572 192.595 124.343 192.909 122.867C193.455 120.016 194.699 115.928 195.5 113.368ZM198.271 122.304C197.965 122.813 196.632 127.318 195.906 127.104C195.313 126.919 195.187 125.369 195.895 123.62C196.216 122.758 197.178 121.954 198.271 122.304ZM210.497 126.959C210.312 127.552 209.462 129.409 209.025 130.167C208.796 130.593 208.577 130.784 208.448 130.737C208.135 130.631 208.025 130.311 208.137 129.781C208.258 129.213 208.691 128.197 209.08 127.765C209.391 127.416 210.127 126.84 210.497 126.959Z" fill="black"/>
<path d="M245.104 133.161C243.588 135.549 241.387 139.394 240.917 142.163C240.546 143.351 239.508 143.585 239.048 143.329C238.29 142.891 238.064 141.814 238.085 140.968C238.122 139.117 240.404 134.24 242.047 131.443C240.583 130.974 237.519 131.431 235.458 131.726C234.664 131.834 233.577 130.99 233.366 130.213C233.155 129.436 234.261 128.979 235.046 128.73C237.122 128.083 241.102 127.88 243.151 128.572C245.506 129.409 246.212 131.299 245.123 133.165L245.104 133.161ZM252.561 143.509C252.249 144.511 251.799 144.672 251.058 144.436C250.593 144.297 249.621 143.379 249.796 142.367C251.22 136.221 252.714 132.166 254.296 128.071C254.494 127.42 255.318 127.081 256.002 127.305C256.966 127.609 257.207 129.085 256.893 129.908C254.993 134.945 253.935 138.34 252.565 143.49L252.561 143.509Z" fill="black"/>
<path d="M173.308 148.735C173.025 149.605 171.583 149.595 170.534 149.412C167.317 148.907 162.023 148.594 159.603 150.394C158.899 153.707 156.851 157.387 153.671 156.434C151.697 155.857 151.242 153.901 151.516 152.238C152.082 149.292 154.051 146.446 155.623 144.821C156.4 143.957 157.325 143.699 158.145 144.308C159.289 145.164 158.42 146.464 157.767 147.116C156.072 148.853 154.744 151.103 154.396 153.206C154.324 153.546 154.416 153.764 154.627 153.888C154.895 154.024 155.165 153.962 155.43 153.742C156.644 152.773 157.408 151.135 157.759 149.389C157.901 148.628 157.854 148.104 158.322 147.946C158.33 147.909 158.399 147.864 158.464 147.838C159.446 146.939 160.635 146.558 161.913 146.315C165.435 145.659 169.056 146.309 170.799 146.857C171.763 147.161 173.548 148.074 173.323 148.758L173.308 148.735ZM174.549 163.48C173.559 163.111 173.678 160.782 173.872 159.399C174.141 157.577 174.549 155.844 175.038 154.286C171.859 155.747 166.389 157.751 163.681 157.552C162.938 157.512 161.648 157.159 161.38 156.37C161.113 155.483 161.605 155.033 162.849 154.763C164.961 154.322 172.829 152.669 176.69 150.324C177.384 149.384 177.962 148.062 178.926 148.366C179.743 148.618 180.142 149.811 179.709 150.827C178.218 154.585 177.031 158.686 176.045 162.116C175.558 163.477 175.183 163.753 174.545 163.499L174.549 163.48ZM180.536 165.563C179.67 164.983 180.211 162.902 180.522 161.623C181.342 158.414 182.701 154.252 184.013 151.8C184.386 151.068 185.202 149.461 186.267 149.944C187.063 150.292 187.302 151.589 186.797 152.57C185.537 155.151 183.801 160.341 182.598 164.794C182.206 166.174 181.274 166.095 180.536 165.563Z" fill="black"/>
<path d="M196.254 158.436C195.416 159.029 194.122 159.625 193.022 160.895C192.304 161.573 191.044 163.501 192.797 164.19C193.676 164.614 195.173 164.18 195.611 163.423C196.182 162.594 196.411 161.516 196.078 160.198C195.898 159.646 196.009 159.313 196.196 159.175C196.449 159.011 197.072 159.242 197.504 159.631C199.188 161.017 198.788 164.671 196.958 166.3C195.09 167.922 192.262 167.637 190.663 166.783C189.473 166.056 188.088 164.1 188.851 161.532C189.652 158.972 191.876 156.695 194.538 155.618C195.503 155.269 196.223 155.046 197.017 155.591C198.194 156.474 197.027 157.967 196.277 158.421L196.254 158.436ZM213.21 153.214C210.808 159.212 209.806 162.718 208.646 168.644C208.44 169.431 207.931 170.431 207.316 170.439C206.328 170.526 205.773 169.597 205.766 168.329C206.128 163.362 208.443 155.723 210.786 150.186C211.036 149.567 211.522 148.958 212.439 149.39C213.409 149.853 213.839 151.646 213.191 153.209L213.21 153.214ZM221.541 157.95C222.734 158.481 223.517 159.636 223.353 160.037C223.111 160.618 222.253 160.654 221.548 160.524C219.244 160.291 217.021 159.859 213.891 160.065C212.55 160.136 211.927 159.905 211.822 159.467C211.449 158.24 212.467 157.547 213.623 157.416C216.283 157.091 219.761 157.295 221.56 157.954L221.541 157.95ZM222.227 167.572C222.121 167.886 221.798 168.292 220.774 168.174C217.447 167.724 215.138 167.511 212.523 167.529C211.174 167.361 210.058 166.748 210.108 165.77C210.155 164.988 211.085 164.612 212.334 164.601C214.98 164.529 217.382 164.585 220.145 165.547C220.829 165.772 222.52 166.942 222.227 167.572ZM210.63 175.792C210.729 177.376 209.657 180.373 207.808 183.303C207.37 184.061 206.402 184.429 205.763 184.175C204.838 183.78 205.042 181.984 205.361 181.32C206.321 179.407 207.139 177.602 207.676 175.916C206.035 175.35 203.546 175.613 201.79 175.873C200.249 176.139 199.668 175.244 199.609 174.776C199.419 173.806 200.155 173.231 200.818 172.996C203.074 172.248 206.255 171.895 208.48 172.783C210.089 173.402 210.562 174.808 210.615 175.769L210.63 175.792Z" fill="black"/>
<path d="M238.683 165.726C238.376 166.987 237.985 168.269 237.506 169.591C241.723 168.647 245.695 167.552 248.142 167.3C249.142 167.156 250.299 168.134 249.513 169.787C248.493 171.885 246.594 176.823 245.872 179.103C245.344 180.752 244.375 180.843 243.763 180.653C243.112 180.456 242.962 179.395 243.136 178.482C243.524 176.745 244.987 172.466 245.873 170.438C242.986 170.992 239.054 171.621 236.417 172.486C235.238 175.242 233.979 178.002 232.357 179.774C231.619 180.547 230.751 180.719 230.063 180.513C228.135 179.906 227.876 177.398 228.347 175.737C229.105 173.01 231.315 170.987 234.204 170.235C234.917 168.745 235.413 166.595 236.003 164.564C236.306 163.599 236.868 163.283 237.893 163.857C238.523 164.248 238.844 164.969 238.669 165.704L238.683 165.726ZM225.887 176.797C225.865 177.643 225.703 178.499 224.688 178.343C223.798 178.154 223.414 176.984 223.276 176.144C222.814 173.474 223.191 170.488 225.557 164.284C225.808 163.664 226.589 163.059 227.478 163.624C228.28 164.13 228.511 165.465 227.857 166.869C226.528 170.425 225.92 173.659 225.883 176.816L225.887 176.797ZM230.44 177.527C230.957 177.142 232.468 174.594 233.078 173.023C231.311 173.518 230.326 174.713 229.904 176.048C229.651 176.865 229.988 177.886 230.44 177.527ZM240.348 180.897C239.47 182.887 238.265 185.579 237.585 187.571C241.588 188.283 245.37 187.8 249.106 187.723C249.561 187.721 249.79 187.947 249.715 188.208C249.417 189.332 248.423 189.912 247.339 190.176C243.59 191.062 239.841 191.294 235.937 190.861C235.099 190.802 233.312 190.086 234.022 188.14C235.034 185.427 236.252 182.856 237.706 180.297C238.136 179.577 238.92 179.328 239.506 179.551C240.088 179.794 240.679 180.176 240.352 180.878L240.348 180.897Z" fill="black"/>
<path d="M259.913 170.55C259.034 170.779 258.579 170.128 258.559 169.57C258.354 167.647 258.19 165.436 257.056 162.861C256.92 162.476 257.038 162.106 257.265 161.877C257.484 161.686 257.8 161.595 258.17 161.713C259.04 161.997 259.602 162.611 260.109 163.391C260.91 164.649 261.231 167.328 261 169.159C260.926 169.697 260.62 170.206 259.909 170.569L259.913 170.55ZM258.74 171.884C259.527 172.09 260.471 172.489 261.138 172.888C262.367 173.623 262.292 174.814 261.507 175.716C260.321 177.106 256.133 178.848 255.514 181.486C256.2 182.165 260.103 181.768 260.68 179.793C260.846 179.294 260.949 178.624 261.696 178.644C262.337 178.701 262.603 179.589 262.56 180.074C262.438 181.393 261.869 182.578 260.209 183.412C259.351 187.266 258.684 190.032 256.042 192.973C259.351 193.319 262.991 194.251 266.073 195.479C266.922 195.956 267.181 196.783 266.951 197.308C266.557 198.233 265.639 198.453 264.581 198.13C261.421 196.984 257.568 196.126 253.967 195.381C253.021 195.18 250.908 194.415 251.35 192.985C251.634 192.116 252.469 191.818 253.583 190.67C254.701 189.503 256.119 187.391 256.998 184.65C256.355 184.79 254.141 185.249 252.766 183.711C250.137 180.067 256.103 176.012 258.26 174.611C257.124 174.369 255.203 174.1 254.02 173.987C253.156 173.863 252.445 172.743 252.61 172.244C252.79 171.49 253.381 171.22 254.349 171.228C255.56 171.208 257.382 171.477 258.782 171.873L258.74 171.884Z" fill="black"/>
<path d="M224.089 139.717C223.219 139.433 223.126 138.009 223.426 136.688C224.078 133.621 225.207 130.261 226.459 127.065C224.539 127.072 222.69 127.392 220.064 128.021C219.593 129.682 219.258 131.351 219.023 132.924C218.84 133.973 218.272 134.505 217.42 134.324C216.568 134.143 216.233 132.648 216.333 131.522C216.618 128.041 218.493 122.287 219.712 119.994C220.298 118.911 220.759 118.416 221.623 118.54C222.702 118.769 223.224 119.849 222.668 120.977C222.12 122.068 221.654 123.235 221.219 124.448C223.201 124.058 225.362 123.943 227.6 124.3C227.948 123.503 228.295 122.707 228.687 121.979C229.111 121.1 230.132 119.457 231.128 119.985C232.377 120.626 231.832 122.726 231.304 123.722C229.401 127.65 227.316 133.834 225.903 138.44C225.579 139.499 224.958 140 224.051 139.709L224.089 139.717ZM205.185 111.547C205.301 110.721 205.163 109.881 204.263 109.551C203.394 109.268 202.311 109.987 202.025 111.054C200.307 117 199.594 118.589 199.252 119.546C197.342 119.041 195.357 119.628 194.35 121.67C192.891 124.07 192.449 129.317 195.802 130.484C196.886 130.873 197.949 130.248 198.913 128.593C200.097 126.748 201.461 123.397 202.636 120.007C203.815 116.598 204.823 113.251 205.204 111.551L205.185 111.547ZM216.78 117.867C216.857 117.132 216.699 116.386 215.8 116.057C214.93 115.773 213.921 116.429 213.656 117.303C213.104 119.342 212.25 122.247 211.522 124.09C208.767 124.019 206.854 125.947 206.2 128.004C205.486 130.247 205.506 133.416 208.194 134.264C209.158 134.568 210.272 134.072 211.2 132.687C213.045 130.052 216.039 121.172 216.776 117.886L216.78 117.867ZM208.519 118.388C208.975 117.08 208.549 115.921 207.484 115.438C206.623 115.117 206.131 116.219 205.766 116.913C204.433 119.558 202.229 125.559 201.876 128.431C201.71 129.583 201.833 130.776 202.97 131.196C203.349 131.276 204.443 131.153 204.662 129.656C205.041 126.848 207.559 120.954 208.519 118.388ZM195.5 113.368C195.865 112.021 195.378 110.869 194.285 110.518C193.416 110.235 192.958 111.364 192.688 112.078C191.532 115.097 190.519 118.937 190.063 121.827C189.898 122.979 190.176 124.186 191.337 124.492C191.716 124.572 192.595 124.343 192.909 122.867C193.455 120.016 194.699 115.928 195.5 113.368ZM198.271 122.304C197.965 122.813 196.632 127.318 195.906 127.104C195.313 126.919 195.187 125.369 195.895 123.62C196.216 122.758 197.178 121.954 198.271 122.304ZM210.497 126.959C210.312 127.552 209.462 129.409 209.025 130.167C208.796 130.593 208.577 130.784 208.448 130.737C208.135 130.631 208.025 130.311 208.137 129.781C208.258 129.213 208.691 128.197 209.08 127.765C209.391 127.416 210.127 126.84 210.497 126.959Z" stroke="black" stroke-width="0.580535"/>
<path d="M245.104 133.161C243.588 135.549 241.387 139.394 240.917 142.163C240.546 143.351 239.508 143.585 239.048 143.329C238.29 142.891 238.064 141.814 238.085 140.968C238.122 139.117 240.404 134.24 242.047 131.443C240.583 130.974 237.519 131.431 235.458 131.726C234.664 131.834 233.577 130.99 233.366 130.213C233.155 129.436 234.261 128.979 235.046 128.73C237.122 128.083 241.102 127.88 243.151 128.572C245.506 129.409 246.212 131.299 245.123 133.165L245.104 133.161ZM252.561 143.509C252.249 144.511 251.799 144.672 251.058 144.436C250.593 144.297 249.621 143.379 249.796 142.367C251.22 136.221 252.714 132.166 254.296 128.071C254.494 127.42 255.318 127.081 256.002 127.305C256.966 127.609 257.207 129.085 256.893 129.908C254.993 134.945 253.935 138.34 252.565 143.49L252.561 143.509Z" stroke="black" stroke-width="0.580535"/>
<path d="M173.308 148.735C173.025 149.605 171.583 149.595 170.534 149.412C167.317 148.907 162.023 148.594 159.603 150.394C158.899 153.707 156.851 157.387 153.671 156.434C151.697 155.857 151.242 153.901 151.516 152.238C152.082 149.292 154.051 146.446 155.623 144.821C156.4 143.957 157.325 143.699 158.145 144.308C159.289 145.164 158.42 146.464 157.767 147.116C156.072 148.853 154.744 151.103 154.396 153.206C154.324 153.546 154.416 153.764 154.627 153.888C154.895 154.024 155.165 153.962 155.43 153.742C156.644 152.773 157.408 151.135 157.759 149.389C157.901 148.628 157.854 148.104 158.322 147.946C158.33 147.909 158.399 147.864 158.464 147.838C159.446 146.939 160.635 146.558 161.913 146.315C165.435 145.659 169.056 146.309 170.799 146.857C171.763 147.161 173.548 148.074 173.323 148.758L173.308 148.735ZM174.549 163.48C173.559 163.111 173.678 160.782 173.872 159.399C174.141 157.577 174.549 155.844 175.038 154.286C171.859 155.747 166.389 157.751 163.681 157.552C162.938 157.512 161.648 157.159 161.38 156.37C161.113 155.483 161.605 155.033 162.849 154.763C164.961 154.322 172.829 152.669 176.69 150.324C177.384 149.384 177.962 148.062 178.926 148.366C179.743 148.618 180.142 149.811 179.709 150.827C178.218 154.585 177.031 158.686 176.045 162.116C175.558 163.477 175.183 163.753 174.545 163.499L174.549 163.48ZM180.536 165.563C179.67 164.983 180.211 162.902 180.522 161.623C181.342 158.414 182.701 154.252 184.013 151.8C184.386 151.068 185.202 149.461 186.267 149.944C187.063 150.292 187.302 151.589 186.797 152.57C185.537 155.151 183.801 160.341 182.598 164.794C182.206 166.174 181.274 166.095 180.536 165.563Z" stroke="black" stroke-width="0.580535"/>
<path d="M196.254 158.436C195.416 159.029 194.122 159.625 193.022 160.895C192.304 161.573 191.044 163.501 192.797 164.19C193.676 164.614 195.173 164.18 195.611 163.423C196.182 162.594 196.411 161.516 196.078 160.198C195.898 159.646 196.009 159.313 196.196 159.175C196.449 159.011 197.072 159.242 197.504 159.631C199.188 161.017 198.788 164.671 196.958 166.3C195.09 167.922 192.262 167.637 190.663 166.783C189.473 166.056 188.088 164.1 188.851 161.532C189.652 158.972 191.876 156.695 194.538 155.618C195.503 155.269 196.223 155.046 197.017 155.591C198.194 156.474 197.027 157.967 196.277 158.421L196.254 158.436ZM213.21 153.214C210.808 159.212 209.806 162.718 208.646 168.644C208.44 169.431 207.931 170.431 207.316 170.439C206.328 170.526 205.773 169.597 205.766 168.329C206.128 163.362 208.443 155.723 210.786 150.186C211.036 149.567 211.522 148.958 212.439 149.39C213.409 149.853 213.839 151.646 213.191 153.209L213.21 153.214ZM221.541 157.95C222.734 158.481 223.517 159.636 223.353 160.037C223.111 160.618 222.253 160.654 221.548 160.524C219.244 160.291 217.021 159.859 213.891 160.065C212.55 160.136 211.927 159.905 211.822 159.467C211.449 158.24 212.467 157.547 213.623 157.416C216.283 157.091 219.761 157.295 221.56 157.954L221.541 157.95ZM222.227 167.572C222.121 167.886 221.798 168.292 220.774 168.174C217.447 167.724 215.138 167.511 212.523 167.529C211.174 167.361 210.058 166.748 210.108 165.77C210.155 164.988 211.085 164.612 212.334 164.601C214.98 164.529 217.382 164.585 220.145 165.547C220.829 165.772 222.52 166.942 222.227 167.572ZM210.63 175.792C210.729 177.376 209.657 180.373 207.808 183.303C207.37 184.061 206.402 184.429 205.763 184.175C204.838 183.78 205.042 181.984 205.361 181.32C206.321 179.407 207.139 177.602 207.676 175.916C206.035 175.35 203.546 175.613 201.79 175.873C200.249 176.139 199.668 175.244 199.609 174.777C199.419 173.806 200.155 173.231 200.818 172.996C203.074 172.248 206.255 171.895 208.48 172.783C210.089 173.402 210.562 174.808 210.615 175.769L210.63 175.792Z" stroke="black" stroke-width="0.580535"/>
<path d="M238.683 165.726C238.376 166.987 237.985 168.269 237.506 169.591C241.723 168.647 245.695 167.552 248.142 167.3C249.142 167.156 250.299 168.134 249.513 169.787C248.493 171.885 246.594 176.823 245.872 179.103C245.344 180.752 244.375 180.843 243.763 180.653C243.112 180.456 242.962 179.395 243.136 178.482C243.524 176.745 244.987 172.466 245.873 170.438C242.986 170.992 239.054 171.621 236.417 172.486C235.238 175.242 233.979 178.002 232.357 179.774C231.619 180.547 230.751 180.719 230.063 180.513C228.135 179.906 227.876 177.398 228.347 175.737C229.105 173.01 231.315 170.987 234.204 170.235C234.917 168.745 235.413 166.595 236.003 164.564C236.306 163.599 236.868 163.283 237.893 163.857C238.523 164.248 238.844 164.969 238.669 165.704L238.683 165.726ZM225.887 176.797C225.865 177.643 225.703 178.499 224.688 178.343C223.798 178.154 223.414 176.984 223.276 176.144C222.814 173.474 223.191 170.488 225.557 164.284C225.808 163.664 226.589 163.059 227.478 163.624C228.28 164.13 228.511 165.465 227.857 166.869C226.528 170.425 225.92 173.659 225.883 176.816L225.887 176.797ZM230.44 177.527C230.957 177.142 232.468 174.594 233.078 173.023C231.311 173.518 230.326 174.713 229.904 176.048C229.651 176.865 229.988 177.886 230.44 177.527ZM240.348 180.897C239.47 182.887 238.265 185.579 237.585 187.571C241.588 188.283 245.37 187.8 249.106 187.723C249.561 187.721 249.79 187.947 249.715 188.208C249.417 189.332 248.423 189.912 247.339 190.176C243.59 191.062 239.841 191.294 235.937 190.861C235.099 190.802 233.312 190.086 234.022 188.14C235.034 185.427 236.252 182.856 237.706 180.297C238.136 179.577 238.92 179.328 239.506 179.551C240.088 179.794 240.679 180.176 240.352 180.878L240.348 180.897Z" stroke="black" stroke-width="0.580535"/>
<path d="M259.913 170.55C259.034 170.779 258.579 170.128 258.559 169.57C258.354 167.647 258.19 165.436 257.056 162.861C256.92 162.476 257.038 162.106 257.265 161.877C257.484 161.686 257.8 161.595 258.17 161.713C259.04 161.997 259.602 162.611 260.109 163.391C260.91 164.649 261.231 167.328 261 169.159C260.926 169.697 260.62 170.206 259.909 170.569L259.913 170.55ZM258.74 171.884C259.527 172.09 260.471 172.489 261.138 172.888C262.367 173.623 262.292 174.814 261.507 175.716C260.321 177.106 256.133 178.848 255.514 181.486C256.2 182.165 260.103 181.768 260.68 179.793C260.846 179.294 260.949 178.624 261.696 178.644C262.337 178.701 262.603 179.589 262.56 180.074C262.438 181.393 261.869 182.578 260.209 183.412C259.351 187.266 258.684 190.032 256.042 192.973C259.351 193.319 262.991 194.251 266.073 195.479C266.922 195.956 267.181 196.783 266.951 197.308C266.557 198.233 265.639 198.453 264.581 198.13C261.421 196.984 257.568 196.126 253.967 195.381C253.021 195.18 250.908 194.415 251.35 192.985C251.634 192.116 252.469 191.818 253.583 190.67C254.701 189.503 256.119 187.391 256.998 184.65C256.355 184.79 254.141 185.249 252.766 183.711C250.137 180.067 256.103 176.012 258.26 174.611C257.124 174.369 255.203 174.1 254.02 173.987C253.156 173.863 252.445 172.743 252.61 172.244C252.79 171.49 253.381 171.22 254.349 171.228C255.56 171.208 257.382 171.477 258.782 171.873L258.74 171.884Z" stroke="black" stroke-width="0.580535"/>
<path d="M142.037 169.672C193.757 167.402 191.026 189.572 191.026 189.572C191.509 209.655 152.966 211.36 132.263 212.898C124.777 236.037 115.894 248.987 105.16 254.819C88.6195 263.769 69.657 256.181 69.657 256.181C44.0292 247.375 37.1745 223.762 46.7712 201.863C53.3259 186.835 55.5236 183.939 63.0466 173.667C78.2818 153.163 94.7599 139.848 106.585 131.676C106.71 133.879 110.077 157.147 127.353 166.157C132.481 169.027 137.901 169.584 142.037 169.672Z" fill="url(#paint1_linear_33_846)"/>
<path d="M149.855 224.153C149.855 224.153 141.652 224.587 133.255 222.21" stroke="#E58F83" stroke-width="1.45134" stroke-linecap="round" stroke-linejoin="round"/>
<path d="M134.598 240.101C134.598 240.101 130.95 240.513 123.499 238.337" stroke="#E58F83" stroke-width="1.45134" stroke-linecap="round" stroke-linejoin="round"/>
<defs>
<linearGradient id="paint0_linear_33_846" x1="27.9359" y1="136.675" x2="170.287" y2="205.445" gradientUnits="userSpaceOnUse">
<stop stop-color="#FFC3C7"/>
<stop offset="1" stop-color="#FFD4D7"/>
</linearGradient>
<linearGradient id="paint1_linear_33_846" x1="2.07099" y1="152.547" x2="188.913" y2="242.833" gradientUnits="userSpaceOnUse">
<stop stop-color="#FFC3C7"/>
<stop offset="1" stop-color="#FFD4D7"/>
</linearGradient>
<clipPath id="clip0_33_846">
<rect width="498.181" height="470.856" fill="white" transform="translate(10.8281)"/>
</clipPath>
</defs>
</svg>
