<svg width="1200" height="427" viewBox="0 0 1200 427" fill="none" xmlns="http://www.w3.org/2000/svg">
<g clip-path="url(#clip0_129_692)">
<rect width="1200" height="427" fill="#F78752"/>
<path d="M155.406 150.266H148.68V169.516H144.031V151.086H137.469V197.625H144.031V175.148H148.68V200.031H155.406V150.266ZM114.5 187.891H117.891C123.031 187.918 128.719 187.562 135.391 186.414L134.68 180.398C129.895 181.328 125.492 181.684 121.5 181.793V155.789H114.5V187.891ZM200.02 150.266H193.075V160.82H184.708V166.508H193.075V174.328H184.544V180.07H193.075V200.141H200.02V150.266ZM159.716 159.945H175.247V168.148H159.825V188.984H163.763C171.419 189.012 177.763 188.848 185.2 187.672L184.653 181.984C178.364 182.941 172.923 183.215 166.77 183.27V173.562H182.083V154.422H159.716V159.945ZM244.252 173.289H215.923V160.055H243.869V154.422H209.033V178.867H244.252V173.289ZM203.673 193.961H249.228V188.219H203.673V193.961ZM290.944 150.32H283.944V179.797H290.944V150.32ZM251.842 158.633H267.975V162.789H251.897V178.102H256.272C266.143 178.102 272.87 177.855 280.498 176.625L279.623 171.047C272.924 172.168 267.045 172.387 258.733 172.414V168.094H274.92V153.164H251.842V158.633ZM257.584 199.484H290.944V181.984H257.584V199.484ZM264.475 193.906V187.508H284.108V193.906H264.475ZM305.37 190.953H297.605L294.87 206.539H300.667L305.37 190.953ZM131.781 241.828V238.766H142.172V233.078H114.062V238.766H124.617V241.828C124.617 250.25 120.352 259.465 112.094 263.156L116.086 268.68C121.965 265.973 126.094 260.504 128.336 253.969C130.578 259.984 134.625 264.934 140.477 267.422L144.25 261.953C135.91 258.48 131.754 249.867 131.781 241.828ZM147.094 278.031H154.148V228.266H147.094V278.031ZM198.216 230.508H163.653V236.086H191.27C191.216 239.586 191.079 243.441 190.013 248.391H158.075V254.023H203.63V248.391H197.04C198.243 242.676 198.243 238.383 198.216 234.5V230.508ZM163.489 277.484H198.052V259.273H163.489V277.484ZM170.325 271.906V264.742H191.106V271.906H170.325ZM255.452 228.32H248.452V264.633H255.452V228.32ZM213.616 252.328L217.225 257.852C223.049 255.855 227.014 251.754 229.256 246.668C231.471 251.398 235.327 255.117 240.959 256.977L244.514 251.508C236.338 248.883 232.811 242.457 232.866 235.867V231.055H225.592V235.867C225.592 242.621 221.955 249.539 213.616 252.328ZM222.092 277.156H256.764V271.578H229.147V261.133H222.092V277.156ZM287.761 233.461H277.808V228.047H270.753V233.461H260.745V238.93H270.753C270.698 244.562 267.007 250.25 259.05 252.547L262.331 257.961C268.21 256.266 272.202 252.629 274.363 248.035C276.632 252.082 280.597 255.227 286.284 256.648L289.511 251.289C281.499 249.238 277.78 244.043 277.698 238.93H287.761V233.461ZM267.198 268.516C267.198 274.559 273.761 278.059 284.316 278.031C294.925 278.059 301.46 274.559 301.488 268.516C301.46 262.555 294.925 259.191 284.316 259.164C273.761 259.191 267.198 262.555 267.198 268.516ZM274.144 268.516C274.144 265.863 277.726 264.523 284.316 264.523C291.042 264.523 294.515 265.863 294.542 268.516C294.515 271.25 291.042 272.727 284.316 272.727C277.726 272.727 274.144 271.25 274.144 268.516ZM286.284 247.188H294.378V258.344H301.323V228.266H294.378V241.609H286.284V247.188ZM328.984 235.867H320.453V229.633H313.562V235.867H304.922V241.391H328.984V235.867ZM306.07 255.445C306.07 262.391 310.719 267.312 317.062 267.312C323.434 267.312 327.973 262.391 328 255.445C327.973 248.527 323.434 243.66 317.062 243.633C310.719 243.66 306.07 248.527 306.07 255.445ZM312.195 255.445C312.195 251.699 314.164 249.43 317.062 249.43C319.852 249.43 321.848 251.699 321.875 255.445C321.848 259.246 319.852 261.406 317.062 261.406C314.164 261.406 312.195 259.246 312.195 255.445ZM330.844 275.898H337.352V254.078H341.398V278.031H348.016V228.266H341.398V248.5H337.352V229.25H330.844V275.898ZM396.13 266.547H376.716V257.359H391.044V231.438H384.098V239.148H362.387V231.438H355.387V257.359H369.77V266.547H350.575V272.234H396.13V266.547ZM362.387 251.781V244.727H384.098V251.781H362.387ZM412.142 240.789V232.531H405.361V241.117C405.361 249.539 402.627 258.316 395.244 262.883L399.509 268.023C404.021 265.289 407.002 260.559 408.779 254.926C410.365 260.012 413.072 264.332 417.392 266.93L421.166 261.516C414.357 257.168 412.115 248.855 412.142 240.789ZM415.916 250.742H422.369V275.734H428.877V228.977H422.369V245.055H415.916V250.742ZM432.65 278.031H439.322V228.266H432.65V278.031ZM487.327 266.492H477.209V254.16C480.955 251.836 483.198 248.363 483.225 244.07C483.198 236.004 475.241 230.699 464.467 230.672C453.639 230.699 445.764 236.004 445.764 244.07C445.764 248.445 448.088 251.973 451.944 254.297V266.492H441.772V272.234H487.327V266.492ZM452.655 244.07C452.655 239.066 457.33 236.168 464.467 236.195C471.495 236.168 476.307 239.066 476.334 244.07C476.307 248.938 471.495 251.945 464.467 251.945C457.33 251.945 452.655 248.938 452.655 244.07ZM458.834 266.492V256.84C460.584 257.168 462.471 257.359 464.467 257.359C466.463 257.359 468.377 257.168 470.155 256.812V266.492H458.834ZM498.691 233.406H490.269L490.98 261.133H497.98L498.691 233.406ZM489.941 268.898C489.886 271.441 491.964 273.492 494.534 273.492C496.968 273.492 499.073 271.441 499.073 268.898C499.073 266.383 496.968 264.332 494.534 264.359C491.964 264.332 489.886 266.383 489.941 268.898Z" fill="white"/>
<path d="M1141.19 274.164C1140.44 273.382 1139.53 272.668 1138.38 272.036L926.926 154.641C919.332 150.42 905.737 151.334 896.597 156.685L596.694 331.798C595.664 332.396 594.75 333.027 593.919 333.692L592.54 334.722C590.33 336.368 589.017 330.468 589 333.16V342.234V342.882C589.316 345.259 590.911 347.469 593.886 349.114L805.343 466.509C812.938 470.731 826.532 469.817 835.673 464.465L1135.59 289.337C1140.34 286.561 1142.95 283.138 1143.3 279.897V270.807" fill="#B94915"/>
<path d="M1141.19 274.164C1140.44 273.382 1139.53 272.668 1138.38 272.036L926.926 154.641C919.332 150.42 905.737 151.334 896.597 156.685L596.694 331.798C595.664 332.396 594.75 333.027 593.919 333.692L592.54 334.722C590.33 336.368 589.017 330.468 589 333.16V342.234V342.882C589.316 345.259 590.911 347.469 593.886 349.114L805.343 466.509C812.938 470.731 826.532 469.817 835.673 464.465L1135.59 289.337C1140.34 286.561 1142.95 283.138 1143.3 279.897V270.807" stroke="#B94915" stroke-width="1.66188" stroke-miterlimit="10"/>
<path d="M1141.19 263.791C1140.44 263.009 1139.53 262.295 1138.38 261.663L926.926 144.268C919.332 140.047 905.737 140.961 896.597 146.312L596.694 321.424C595.664 322.023 594.75 322.654 593.919 323.319L592.54 324.349C590.33 325.995 589.017 328.554 589 331.23V332.493C589.299 334.869 590.895 337.079 593.886 338.725L805.343 456.12C812.938 460.341 826.532 459.427 835.673 454.076L1135.59 278.947C1140.34 276.172 1142.95 272.748 1143.3 269.507L1143.27 269.275C1142.99 267.314 1142.27 265.436 1141.21 263.757L1141.19 263.791Z" fill="#FFDDCC" stroke="#B94915" stroke-width="1.66188" stroke-miterlimit="10"/>
<path d="M819.104 435.263L615.807 322.388L916.374 151.215L1119.67 264.073L819.104 435.263Z" fill="#FFF9F0" stroke="#B94915" stroke-width="1.66188" stroke-miterlimit="10"/>
<path d="M1069.78 221.463L1062.83 217.608C1071.26 212.805 1071.46 205.227 1063.27 200.673L1025.63 179.767C1017.43 175.213 1003.95 175.412 995.529 180.215L990.859 177.623C982.334 172.886 968.307 173.102 959.533 178.105C950.758 183.107 950.558 191.001 959.084 195.737L1038.02 239.561C1046.55 244.297 1060.57 244.081 1069.35 239.079C1078.12 234.077 1078.32 226.183 1069.8 221.446L1069.78 221.463Z" fill="#B94915" stroke="#B94915" stroke-width="1.66188" stroke-miterlimit="10"/>
<path d="M1069.95 214.815L1063 210.959C1071.43 206.156 1071.63 198.578 1063.43 194.025L1025.79 173.118C1017.6 168.565 1004.12 168.764 995.695 173.567L991.025 170.974C982.5 166.238 968.473 166.454 959.699 171.456C950.924 176.458 950.724 184.352 959.25 189.089L1038.19 232.912C1046.71 237.649 1060.74 237.433 1069.52 232.431C1078.29 227.428 1078.49 219.534 1069.96 214.798L1069.95 214.815Z" fill="#FFAC82" stroke="#B94915" stroke-width="1.66188" stroke-miterlimit="10"/>
<path fill-rule="evenodd" clip-rule="evenodd" d="M776.014 271.306L808.709 287.652C819.497 293.044 828.257 286.478 828.257 272.992V158.295C828.257 144.809 819.497 129.483 808.709 124.087L712.513 75.9908C701.725 70.5987 692.969 77.1685 692.969 90.6509V205.348C692.969 218.834 701.729 234.16 712.517 239.556L738.394 252.495C738.745 252.668 739.017 252.967 739.163 253.33L756.347 296.294C756.824 297.487 758.447 297.656 759.16 296.585L776.014 271.302V271.306Z" fill="#FFC1A1"/>
<path fill-rule="evenodd" clip-rule="evenodd" d="M705.178 73.2188C701.306 73.2542 697.623 75.1803 695.319 78.5243C692.905 82.0179 692.093 86.3781 692.078 90.5729C692.027 128.885 691.932 167.201 692.078 205.514C692.141 215.759 696.54 225.928 703.327 233.448C705.836 236.228 708.766 238.674 712.114 240.352L738.086 253.338C738.181 253.386 738.256 253.468 738.295 253.567L756.646 299.445L756.862 299.76L757.193 299.957L757.575 299.997L757.938 299.871L758.213 299.607L776.103 272.772C776.225 272.591 776.462 272.528 776.659 272.626C787.25 277.924 797.822 283.269 808.44 288.515C812.348 290.43 816.972 291.15 820.855 289.413C825.992 287.117 828.599 280.874 829.044 275.439C829.107 274.651 829.139 273.863 829.143 273.075C829.19 234.763 829.288 196.447 829.143 158.134C829.08 147.811 824.613 137.547 817.728 130.02C815.286 127.353 812.462 125.006 809.236 123.363C777.163 107.131 745.003 91.0613 712.78 75.133C710.456 73.9947 707.927 73.2384 705.355 73.2188H705.178ZM775.497 270.586L775.272 270.815L758.127 296.531C757.934 296.822 757.493 296.775 757.363 296.452L739.756 252.44L739.587 252.168L739.331 251.975C730.485 247.552 721.614 243.168 712.788 238.702C706.639 235.567 702.019 229.93 698.754 223.754C695.764 218.098 693.878 211.8 693.854 205.431C693.803 167.123 693.704 128.81 693.854 90.502C693.886 85.2753 695.189 79.7098 699.573 76.7085C701.743 75.2236 704.52 74.743 707.143 75.1448C708.829 75.4008 710.456 75.9798 711.992 76.7321C744.211 92.6565 776.363 108.723 808.429 124.95C814.569 128.082 819.197 133.722 822.462 139.898C825.452 145.554 827.339 151.852 827.362 158.221C827.41 196.53 827.508 234.842 827.362 273.15C827.331 278.389 826.051 283.958 821.604 286.971C819.43 288.444 816.645 288.913 814.018 288.5C812.304 288.232 810.65 287.633 809.102 286.861L776.407 270.515C776.131 270.436 776.099 270.429 775.863 270.444C775.812 270.448 775.757 270.464 775.709 270.484C775.638 270.519 775.564 270.551 775.493 270.586H775.497Z" fill="#B94A15"/>
<path fill-rule="evenodd" clip-rule="evenodd" d="M821.757 287.928L821.781 287.967L845.334 276.19C849.813 273.949 852.684 268.498 852.684 260.778V146.081C852.684 132.595 843.924 117.269 833.136 111.873L736.948 63.7767C732.335 61.4725 728.093 61.3504 724.749 63.0244L699.99 75.4039C703.382 73.5645 707.75 73.6157 712.512 75.9947L808.708 124.091C819.496 129.483 828.256 144.813 828.256 158.299V272.996C828.256 280.211 825.747 285.45 821.761 287.931L821.757 287.928Z" fill="white"/>
<path fill-rule="evenodd" clip-rule="evenodd" d="M729.653 61C727.884 61.0118 726.112 61.3821 724.52 62.1423C724.438 62.1816 724.323 62.2171 724.351 62.225C715.623 64.8285 708.045 70.3506 699.907 74.4469C699.694 74.552 699.495 74.6793 699.308 74.829L699.135 75.1441L699.104 75.5025L699.218 75.8491L699.442 76.1052C699.742 76.2588 700.072 76.2982 700.411 76.1839C700.876 76.0264 701.624 75.601 702.329 75.3962C705.508 74.4745 709.065 75.2898 712.003 76.7314C744.214 92.6598 776.362 108.718 808.428 124.942C814.568 128.073 819.196 133.713 822.462 139.889C825.451 145.545 827.338 151.844 827.361 158.213C827.409 196.525 827.519 234.837 827.361 273.15C827.326 278.372 826.026 283.879 821.709 286.888C821.571 286.986 821.43 287.077 821.284 287.168L821.036 287.4C820.91 287.664 820.831 287.739 820.874 288.046C820.969 288.739 821.5 288.948 822.174 288.759C830.028 284.832 838.063 281.252 845.732 276.978C847.406 276.045 848.997 274.772 850.202 273.087C852.723 269.557 853.55 265.095 853.57 260.865C853.625 222.548 853.716 184.228 853.57 145.912C853.507 135.643 849.103 125.458 842.266 117.919C839.796 115.197 836.933 112.807 833.663 111.14C801.598 94.9206 769.438 78.8741 737.231 62.9261C734.871 61.7641 732.299 60.9961 729.653 61ZM729.747 62.7764C732.106 62.7922 734.407 63.509 736.498 64.541C768.642 80.556 800.818 96.5119 832.868 112.724C839.004 115.851 843.636 121.495 846.902 127.671C849.875 133.296 851.758 139.539 851.801 145.92C851.947 184.232 851.856 222.544 851.801 260.857C851.778 266.339 850.513 272.181 845.464 275.107C845.259 275.225 844.94 275.391 844.94 275.391L826.121 284.8C828.358 281.358 829.13 277.163 829.146 273.075C829.193 234.758 829.291 196.442 829.146 158.126C829.083 147.802 824.616 137.538 817.731 130.011C815.289 127.344 812.465 124.997 809.239 123.355C777.166 107.135 745.01 91.0724 712.795 75.1402C710.758 74.1397 708.564 73.4347 706.304 73.2574H706.272C712.586 70.0986 718.884 66.9003 725.217 63.7808C726.62 63.0994 728.183 62.7725 729.747 62.7764Z" fill="#B94A15"/>
<path fill-rule="evenodd" clip-rule="evenodd" d="M788.23 277.414L776.012 271.305L757.473 299.112L781.905 286.898L788.23 277.414Z" fill="#B94A15"/>
<path fill-rule="evenodd" clip-rule="evenodd" d="M775.929 270.42C775.516 270.483 775.504 270.503 775.271 270.81L756.732 298.617C756.33 299.299 757.031 300.268 757.87 299.905L782.302 287.687C782.416 287.624 782.471 287.616 782.645 287.384L788.966 277.9C789.226 277.458 789.093 276.879 788.624 276.612L776.406 270.503C776.217 270.42 776.162 270.404 775.925 270.412L775.929 270.42ZM786.93 277.758L781.361 286.112C781.317 286.175 781.262 286.226 781.195 286.258L761.529 296.089C761.131 296.286 760.73 295.829 760.974 295.459L776.102 272.767C776.225 272.586 776.461 272.523 776.658 272.622C780.081 274.335 783.507 276.044 786.93 277.758Z" fill="#B94A15"/>
<path d="M747.973 234.584C749.836 237.956 752.05 240.264 754.614 241.513C757.178 242.757 759.392 242.6 761.255 241.04C763.118 239.48 764.051 237.003 764.051 233.612C764.051 230.22 763.118 226.841 761.255 223.465C759.392 220.09 757.178 217.786 754.614 216.537C752.05 215.292 749.836 215.45 747.973 217.01C746.11 218.569 745.177 221.047 745.177 224.438C745.177 227.829 746.11 231.209 747.973 234.584ZM770.184 157.144C770.869 152.339 769.542 146.431 766.552 140.96C763.563 135.489 759.202 131.003 754.618 128.671C750.033 126.339 745.673 126.395 742.683 128.821C739.694 131.251 738.366 135.808 739.052 141.311C741.187 158.46 744.046 181.435 745.618 194.074C746.283 199.427 750.076 205.063 754.539 207.332C754.59 207.36 754.645 207.387 754.697 207.411C759.159 209.68 762.952 207.903 763.618 203.228C765.189 192.188 768.053 172.12 770.184 157.144Z" fill="white"/>
<path fill-rule="evenodd" clip-rule="evenodd" d="M751.333 214.906C748.71 214.95 746.358 216.88 745.299 219.318C743.845 222.654 744.164 226.541 745.192 230.059C746.725 235.286 749.848 240.374 754.775 242.466C756.816 243.332 759.242 243.352 761.066 242.174C763.795 240.414 764.867 236.707 764.855 233.529C764.835 228.834 763.074 224.202 760.246 220.393C758.135 217.549 755.083 215.099 751.762 214.914C751.62 214.906 751.479 214.902 751.337 214.906H751.333ZM751.439 216.517C753.716 216.549 755.819 217.951 757.462 219.613C758.694 220.862 759.695 222.323 760.546 223.859C762.602 227.577 763.811 231.855 763.035 236.113C762.637 238.291 761.4 240.54 759.234 241.3C757.781 241.812 756.115 241.383 754.744 240.678C752.105 239.315 750.159 236.877 748.678 234.194C746.634 230.496 745.445 226.167 746.181 222.004C746.642 219.4 748.308 216.565 751.357 216.517C751.385 216.517 751.416 216.517 751.447 216.517H751.439ZM748.135 126.154C744.885 126.174 741.77 127.777 739.985 130.727C738.087 133.862 737.807 137.73 738.225 141.275C740.352 158.937 742.585 176.59 744.818 194.24C745.437 198.935 747.989 203.393 751.644 206.387C754.133 208.423 757.343 209.983 760.467 208.841C762.649 208.041 764.039 205.768 764.398 203.405C766.651 187.993 768.872 172.577 770.991 157.144C771.779 151.256 769.885 145.175 766.923 139.995C764.083 135.024 760.112 130.601 755.031 127.99L754.866 127.915L754.921 127.935C752.841 126.883 750.565 126.182 748.241 126.166C748.206 126.166 748.174 126.166 748.139 126.166L748.135 126.154ZM748.229 127.765C750.309 127.781 752.377 128.443 754.244 129.388L754.354 129.435L754.295 129.416C754.362 129.451 754.433 129.486 754.5 129.522C762.921 133.985 768.565 143.524 769.443 152.505C769.589 153.99 769.589 155.494 769.384 156.975C767.214 172.376 765.048 187.772 762.803 203.161C762.499 205.162 761.357 207.116 759.234 207.509C757.489 207.828 755.693 207.112 754.263 206.265C751.392 204.563 749.214 201.79 747.804 198.722C747.118 197.233 746.626 195.65 746.413 194.027C744.18 176.381 741.951 158.736 739.824 141.078C739.284 136.509 739.985 131.35 743.936 128.9C745.212 128.108 746.701 127.749 748.229 127.757V127.765Z" fill="#B94A15"/>
<path d="M760.096 241.805L766.174 238.768C766.572 238.567 766.958 238.315 767.328 238.004C769.191 236.445 770.124 233.967 770.124 230.576C770.124 227.184 769.191 223.805 767.328 220.43C765.465 217.058 763.251 214.75 760.687 213.501C758.671 212.52 756.871 212.41 755.287 213.166C755.232 213.194 755.177 213.222 755.126 213.249L749.214 216.203C750.797 215.447 752.597 215.557 754.614 216.538C757.178 217.783 759.391 220.095 761.254 223.466C763.117 226.838 764.051 230.221 764.051 233.613C764.051 237.004 763.117 239.477 761.254 241.041C760.884 241.352 760.498 241.608 760.1 241.805H760.096ZM760.908 207.751L766.524 204.942C766.682 204.875 766.836 204.797 766.985 204.71C768.395 203.902 769.38 202.358 769.687 200.188C771.259 189.148 774.122 169.08 776.253 154.105C776.939 149.299 775.611 143.391 772.622 137.92C769.632 132.449 765.272 127.963 760.687 125.631C756.811 123.658 753.097 123.394 750.234 124.824L744.156 127.861C747.02 126.431 750.734 126.695 754.61 128.668C759.194 131 763.555 135.49 766.544 140.957C769.534 146.428 770.861 152.336 770.176 157.142C768.041 172.117 765.181 192.185 763.61 203.225C763.299 205.395 762.318 206.943 760.908 207.747V207.751Z" fill="#B94A15"/>
<path fill-rule="evenodd" clip-rule="evenodd" d="M757.444 211.865C756.582 211.873 755.723 212.066 754.943 212.437C754.943 212.437 754.833 212.488 754.758 212.527L748.85 215.481C748.692 215.599 748.499 215.702 748.405 216.202L748.468 216.517L748.649 216.781L748.921 216.954L749.24 217.005C749.941 216.832 750.579 216.517 751.375 216.509C753.919 216.493 756.133 218.167 757.756 219.912C761.694 224.142 763.888 230.33 763.093 235.722C762.777 237.857 761.809 240.028 759.729 241.079L759.489 241.264C759.327 241.536 759.233 241.843 759.351 242.119C759.398 242.229 759.52 242.367 759.52 242.367L759.8 242.548L760.127 242.6L760.45 242.517C762.478 241.505 764.542 240.567 766.531 239.476C769.981 237.582 770.994 233.619 770.919 230.153C770.82 225.643 769.119 221.224 766.464 217.553C764.266 214.516 761.033 211.905 757.535 211.861C757.503 211.861 757.472 211.861 757.44 211.861L757.444 211.865ZM757.523 213.476C759.78 213.508 761.86 214.882 763.49 216.521C764.743 217.777 765.759 219.258 766.622 220.818C768.658 224.501 769.848 228.759 769.131 232.946C768.78 234.99 767.776 237.054 765.81 238.046L763.77 239.066C765.464 235.569 765.074 231.394 763.955 227.743C762.238 222.126 758.551 216.556 753.163 215.138H753.147C754.486 214.465 755.731 213.516 757.381 213.476C757.429 213.476 757.476 213.476 757.523 213.476ZM754.219 123.113C752.773 123.121 751.328 123.409 750.024 124.031C749.953 124.066 749.874 124.102 749.874 124.102L743.797 127.143L743.548 127.336L743.395 127.607L743.355 127.919L743.438 128.222C743.438 128.222 743.797 128.695 744.214 128.667C744.423 128.651 744.604 128.541 744.793 128.454C747.814 127.107 751.517 128.009 754.246 129.388L754.356 129.431L754.297 129.411C754.364 129.447 754.435 129.482 754.502 129.518C762.923 133.98 768.567 143.52 769.446 152.5C769.592 153.985 769.592 155.49 769.387 156.971C767.216 172.367 765.046 187.768 762.805 203.153C762.577 204.669 761.919 206.225 760.505 207.044L760.245 207.281L760.111 207.608L760.131 207.958L760.296 208.269L760.58 208.478L760.926 208.545L761.269 208.458L766.866 205.662C766.905 205.646 766.945 205.626 766.984 205.611C767.161 205.528 767.39 205.402 767.39 205.402C769.135 204.397 770.167 202.424 770.482 200.352C772.715 184.94 774.956 169.528 777.075 154.096C777.867 148.187 775.972 142.106 772.971 136.879C770.139 131.948 766.173 127.556 761.17 124.965C761.17 124.965 761.159 124.949 760.95 124.862L761.005 124.882C758.898 123.814 756.57 123.109 754.226 123.113H754.219ZM754.297 124.724C756.393 124.74 758.441 125.398 760.324 126.347L760.434 126.39L760.375 126.371C760.442 126.406 760.513 126.442 760.58 126.477C765.176 128.911 768.887 133.031 771.533 137.62C774.397 142.583 776.209 148.4 775.476 153.879C773.361 169.303 771.12 184.708 768.887 200.116C768.634 201.79 767.858 203.476 766.185 204.208L763.884 205.359C763.9 205.315 763.92 205.272 763.935 205.229C764.156 204.638 764.31 204.019 764.404 203.389C766.649 187.977 768.879 172.56 770.998 157.132C771.785 151.244 769.891 145.162 766.929 139.983C764.089 135.012 760.119 130.589 755.038 127.978L754.872 127.903L754.928 127.923C753.163 127.032 751.257 126.394 749.295 126.205H749.283C750.292 125.701 751.284 125.161 752.375 124.921C753.009 124.783 753.667 124.72 754.309 124.724H754.297Z" fill="#B94A15"/>
<g clip-path="url(#clip1_129_692)">
<rect width="1200" height="427" fill="#304FFB"/>
<path d="M138.406 109.266H131.68V128.516H127.031V110.086H120.469V156.625H127.031V134.148H131.68V159.031H138.406V109.266ZM97.5 146.891H100.891C106.031 146.918 111.719 146.562 118.391 145.414L117.68 139.398C112.895 140.328 108.492 140.684 104.5 140.793V114.789H97.5V146.891ZM183.02 109.266H176.075V119.82H167.708V125.508H176.075V133.328H167.544V139.07H176.075V159.141H183.02V109.266ZM142.716 118.945H158.247V127.148H142.825V147.984H146.763C154.419 148.012 160.763 147.848 168.2 146.672L167.653 140.984C161.364 141.941 155.923 142.215 149.77 142.27V132.562H165.083V113.422H142.716V118.945ZM227.252 132.289H198.923V119.055H226.869V113.422H192.033V137.867H227.252V132.289ZM186.673 152.961H232.228V147.219H186.673V152.961ZM273.944 109.32H266.944V138.797H273.944V109.32ZM234.842 117.633H250.975V121.789H234.897V137.102H239.272C249.143 137.102 255.87 136.855 263.498 135.625L262.623 130.047C255.924 131.168 250.045 131.387 241.733 131.414V127.094H257.92V112.164H234.842V117.633ZM240.584 158.484H273.944V140.984H240.584V158.484ZM247.475 152.906V146.508H267.108V152.906H247.475ZM319.542 109.266H312.488V159.141H319.542V109.266ZM279.347 130.484C279.32 141.422 284.87 148.258 292.527 148.258C300.019 148.258 305.597 141.422 305.597 130.484C305.597 119.629 300.019 112.766 292.527 112.766C284.87 112.766 279.32 119.629 279.347 130.484ZM286.073 130.484C286.046 123.102 288.644 119.055 292.527 119.055C296.3 119.055 298.843 123.102 298.87 130.484C298.843 137.895 296.3 141.941 292.527 141.914C288.644 141.941 286.046 137.895 286.073 130.484ZM120.523 191.641H97.8281V225.109H101.875C111.062 225.164 117.078 224.891 123.914 223.578L123.203 217.945C117.352 219.012 112.129 219.34 104.883 219.422V197.328H120.523V191.641ZM118.062 210.18H130.586V237.141H137.531V187.266H130.586V204.492H118.062V210.18ZM191.322 189.016H156.759V194.539H184.377C184.322 197.902 184.213 201.566 183.255 206.297H151.181V211.875H170.377V218.027C161.49 218.711 156.185 222.047 156.213 227.406C156.185 233.586 162.912 237.059 173.877 237.031C184.759 237.059 191.459 233.586 191.486 227.406C191.459 222.047 186.154 218.684 177.322 218.027V211.875H196.736V206.297H190.283C191.349 200.992 191.349 196.672 191.322 192.953V189.016ZM163.213 227.406C163.213 224.699 166.904 223.441 173.877 223.414C180.74 223.441 184.431 224.699 184.431 227.406C184.431 230.195 180.74 231.508 173.877 231.508C166.904 231.508 163.213 230.195 163.213 227.406ZM236.92 189.508H202.358V195.086H229.975C229.92 198.586 229.784 202.441 228.717 207.391H196.78V213.023H242.334V207.391H235.745C236.948 201.676 236.948 197.383 236.92 193.5V189.508ZM202.194 236.484H236.756V218.273H202.194V236.484ZM209.03 230.906V223.742H229.811V230.906H209.03ZM281.644 187.266H274.753V237.031H281.644V212.477H288.972V206.734H281.644V187.266ZM242.105 200.281H271.363V194.703H260.37V188.031H253.37V194.703H242.105V200.281ZM244.128 214.938C244.101 221.883 249.515 226.777 256.87 226.805C264.116 226.777 269.558 221.883 269.558 214.938C269.558 207.992 264.116 203.043 256.87 203.07C249.515 203.043 244.101 207.992 244.128 214.938ZM250.8 214.938C250.8 211.109 253.343 208.758 256.87 208.703C260.343 208.758 262.886 211.109 262.886 214.938C262.886 218.793 260.343 221.09 256.87 221.062C253.343 221.09 250.8 218.793 250.8 214.938ZM327.242 187.266H320.242V237.141H327.242V211.438H334.57V205.75H327.242V187.266ZM289.945 225.055H294.156C302.934 225.082 309.715 224.891 317.453 223.578L316.688 217.727C310.07 218.875 304.109 219.258 296.891 219.312V197.492H313.297V191.859H289.945V225.055ZM359.278 191.312H335.653V215.539H359.278V211.328H368.575V223.523H375.52V187.32H368.575V195.086H359.278V191.312ZM342.38 236.156H376.559V230.578H349.434V220.078H342.38V236.156ZM342.598 210.125V196.836H352.442V210.125H342.598ZM359.278 205.805V200.719H368.575V205.805H359.278ZM387.869 219.531V220.133H395.087V219.531C395.115 215.703 396.482 213.926 399.572 212.094C403.154 209.934 405.478 207.09 405.478 202.578C405.478 195.824 400.091 191.859 392.462 191.859C385.462 191.859 379.748 195.551 379.611 203.234H387.377C387.486 200.035 389.865 198.34 392.408 198.312C395.06 198.34 397.193 200.117 397.166 202.852C397.193 205.367 395.361 207.062 393.009 208.594C389.728 210.645 387.896 212.723 387.869 219.531ZM387.048 227.898C386.994 230.441 389.072 232.492 391.642 232.492C394.076 232.492 396.181 230.441 396.181 227.898C396.181 225.383 394.076 223.332 391.642 223.359C389.072 223.332 386.994 225.383 387.048 227.898Z" fill="white"/>
<rect x="94" y="271" width="213" height="66" rx="33" fill="white"/>
<path d="M138.762 296.961V294.992H145.195V291.336H127.477V294.992H134.262V296.961C134.227 302.252 131.537 308.193 126.211 310.672L128.812 314.223C132.504 312.482 135.141 308.896 136.564 304.678C138.006 308.51 140.537 311.779 144.105 313.414L146.602 309.898C141.346 307.455 138.744 301.83 138.762 296.961ZM147.691 320.234H152.191V304.203H156.902V300.441H152.191V288.242H147.691V320.234ZM166.528 296.293V290.984H162.169V296.504C162.169 301.918 160.411 307.561 155.665 310.496L158.407 313.801C161.307 312.043 163.223 309.002 164.366 305.381C165.386 308.65 167.126 311.428 169.903 313.098L172.329 309.617C167.952 306.822 166.511 301.479 166.528 296.293ZM168.954 302.691H173.102V318.758H177.286V288.699H173.102V299.035H168.954V302.691ZM179.712 320.234H184.001V288.242H179.712V320.234ZM212.365 288.242H207.83V320.234H212.365V288.242ZM186.244 296.645H205.369V293.059H198.091V288.664H193.521V293.059H186.244V296.645ZM187.615 306.031C187.615 310.496 191.13 313.643 195.877 313.66C200.605 313.643 204.103 310.496 204.103 306.031C204.103 301.566 200.605 298.385 195.877 298.402C191.13 298.385 187.615 301.566 187.615 306.031ZM191.904 306.031C191.886 303.57 193.539 302.059 195.877 302.023C198.179 302.059 199.814 303.57 199.814 306.031C199.814 308.51 198.179 309.986 195.877 309.969C193.539 309.986 191.886 308.51 191.904 306.031ZM244.174 312.852H231.694V306.945H240.905V290.281H236.44V295.238H222.483V290.281H217.983V306.945H227.229V312.852H214.889V316.508H244.174V312.852ZM222.483 303.359V298.824H236.44V303.359H222.483ZM271.097 288.242H266.562V320.234H271.097V288.242ZM244.308 311.164L246.663 314.75C258.089 309.354 261.482 301.285 261.499 291.582H246.03V295.098H256.929C256.208 302.199 252.57 307.262 244.308 311.164Z" fill="#304FFB"/>
<path d="M1102.99 338.771C1102.3 338.068 1101.47 337.418 1100.44 336.841L908.255 230.145C901.344 226.302 889.002 227.132 880.683 232.004L608.089 391.154C607.151 391.695 606.321 392.272 605.563 392.868L604.3 393.806C602.297 395.304 601.088 389.945 601.07 392.381V400.627V401.222C601.359 403.388 602.802 405.391 605.509 406.888L797.698 513.584C804.609 517.427 816.951 516.597 825.269 511.725L1097.85 352.557C1102.16 350.031 1104.54 346.927 1104.86 343.968V335.704" fill="#4076C8"/>
<path d="M1102.99 338.771C1102.3 338.068 1101.47 337.418 1100.44 336.841L908.255 230.145C901.344 226.302 889.002 227.132 880.683 232.004L608.089 391.154C607.151 391.695 606.321 392.272 605.563 392.868L604.3 393.806C602.297 395.304 601.088 389.945 601.07 392.381V400.627V401.222C601.359 403.388 602.802 405.391 605.509 406.888L797.698 513.584C804.609 517.427 816.951 516.597 825.269 511.725L1097.85 352.557C1102.16 350.031 1104.54 346.927 1104.86 343.968V335.704" stroke="#4076C8" stroke-width="1.51572" stroke-miterlimit="10"/>
<path d="M1102.99 330.234C1102.3 329.53 1101.47 328.881 1100.44 328.303L908.255 221.608C901.344 217.764 889.002 218.594 880.683 223.466L608.089 382.635C607.151 383.176 606.321 383.753 605.563 384.349L604.3 385.287C602.297 386.785 601.106 389.094 601.088 391.548V392.703C601.359 394.869 602.82 396.871 605.527 398.369L797.716 505.065C804.627 508.908 816.969 508.078 825.287 503.206L1097.86 344.038C1102.18 341.512 1104.56 338.408 1104.88 335.449L1104.85 335.232C1104.58 333.446 1103.94 331.75 1102.97 330.216L1102.99 330.234Z" fill="#DCEAFF" stroke="#4076C8" stroke-width="1.51572" stroke-miterlimit="10"/>
<path d="M810.239 486.085L625.466 383.503L898.637 227.926L1083.41 330.507L810.239 486.085Z" fill="#FFF9F0" stroke="#4076C8" stroke-width="1.51572" stroke-miterlimit="10"/>
<path d="M1038.07 291.782L1031.75 288.281C1039.42 283.915 1039.58 277.022 1032.15 272.89L997.936 253.889C990.484 249.757 978.232 249.937 970.581 254.304L966.34 251.94C958.581 247.628 945.842 247.826 937.867 252.373C929.891 256.92 929.711 264.084 937.47 268.396L1009.21 308.238C1016.97 312.551 1029.71 312.352 1037.69 307.805C1045.66 303.258 1045.84 296.094 1038.08 291.782H1038.07Z" fill="#4076C8" stroke="#4076C8" stroke-width="1.51572" stroke-miterlimit="10"/>
<path d="M1038.21 285.737L1031.89 282.236C1039.56 277.87 1039.73 270.977 1032.29 266.845L998.079 247.844C990.627 243.712 978.375 243.892 970.724 248.259L966.484 245.895C958.725 241.583 945.986 241.781 938.01 246.328C930.035 250.875 929.854 258.039 937.613 262.352L1009.36 302.193C1017.12 306.506 1029.86 306.307 1037.83 301.76C1045.81 297.213 1045.99 290.049 1038.23 285.737H1038.21Z" fill="#76BBFF" stroke="#4076C8" stroke-width="1.51572" stroke-miterlimit="10"/>
<path d="M854.283 304.11L848.562 305.012V71.5917L854.283 70.6895V304.11Z" fill="#A9C9F7" stroke="#4775BA" stroke-width="0.902212" stroke-miterlimit="10"/>
<path d="M848.562 305.3C848.562 305.3 848.634 305.3 848.652 305.3L854.372 304.398C854.481 304.398 854.553 304.29 854.553 304.181V70.7432C854.553 70.7432 854.517 70.5628 854.445 70.4906C854.372 70.4184 854.282 70.4004 854.192 70.4004L848.472 71.3026C848.364 71.3026 848.292 71.4109 848.292 71.5191V304.939C848.292 304.939 848.328 305.12 848.4 305.192C848.454 305.228 848.508 305.264 848.562 305.282V305.3ZM853.993 303.875L848.833 304.687V71.8439L853.993 71.0319V303.875Z" fill="black" stroke="#4775BA" stroke-width="0.902212" stroke-miterlimit="10"/>
<path d="M675.808 206.613L848.564 305.009V71.5163L675.808 -26.8789V206.613Z" fill="#A9C9F7" stroke="#4775BA" stroke-width="0.902212" stroke-miterlimit="10"/>
<path d="M848.563 305.299C848.563 305.299 848.671 305.299 848.725 305.299C848.797 305.263 848.833 305.191 848.833 305.101V71.5903C848.833 71.482 848.761 71.3557 848.653 71.3016L675.897 -27.1297C675.897 -27.1297 675.717 -27.1838 675.645 -27.1478C675.573 -27.1117 675.519 -27.0395 675.519 -26.9493V206.543C675.519 206.651 675.591 206.778 675.699 206.832L848.454 305.245C848.454 305.245 848.509 305.281 848.545 305.281L848.563 305.299ZM848.292 71.6625V304.577L676.078 206.489V-26.426L848.292 71.6625Z" fill="black" stroke="#4775BA" stroke-width="0.902212" stroke-miterlimit="10"/>
<path d="M681.51 -27.709L854.283 70.6862L848.563 71.5163L675.808 -26.8789L681.51 -27.709Z" fill="#A9C9F7" stroke="#4775BA" stroke-width="0.902212" stroke-miterlimit="10"/>
<path d="M848.563 71.8063C848.563 71.8063 848.617 71.8063 848.653 71.8063L854.373 70.9763C854.481 70.9763 854.553 70.868 854.553 70.7598C854.553 70.6515 854.481 70.5252 854.373 70.471L681.599 -27.9602C681.599 -27.9602 681.473 -28.0144 681.419 -27.9963L675.699 -27.1663C675.591 -27.1663 675.519 -27.058 675.519 -26.9498C675.519 -26.8415 675.591 -26.7152 675.699 -26.661L848.454 71.7522C848.454 71.7522 848.509 71.7883 848.545 71.7883L848.563 71.8063ZM853.453 70.5252L848.563 71.2289L676.619 -26.7152L681.509 -27.4189L853.453 70.5252Z" fill="black" stroke="#4775BA" stroke-width="0.902212" stroke-miterlimit="10"/>
<path d="M902.48 412.607L896.182 413.6V155.946L902.48 154.936V412.607Z" fill="white" stroke="#4775BA" stroke-width="0.902212" stroke-miterlimit="10"/>
<path d="M896.183 413.909C896.183 413.909 896.255 413.909 896.292 413.909L902.589 412.916C902.715 412.898 902.787 412.808 902.787 412.664V155.01C902.787 154.92 902.733 154.812 902.661 154.739C902.589 154.667 902.481 154.631 902.39 154.649L896.093 155.642C895.967 155.66 895.895 155.75 895.895 155.894V413.548C895.895 413.638 895.949 413.746 896.021 413.818C896.075 413.873 896.129 413.891 896.201 413.909H896.183ZM902.192 412.339L896.49 413.241V156.219L902.192 155.317V412.321V412.339Z" fill="#4076C8" stroke="#4775BA" stroke-width="0.902212" stroke-miterlimit="10"/>
<path d="M705.474 304.972L896.183 413.599V155.855L705.474 47.2285V304.972Z" fill="white" stroke="#4775BA" stroke-width="0.902212" stroke-miterlimit="10"/>
<path d="M896.182 413.906C896.182 413.906 896.309 413.906 896.363 413.888C896.435 413.852 896.489 413.762 896.489 413.672V155.928C896.489 155.802 896.417 155.675 896.291 155.603L705.581 46.9768C705.491 46.9227 705.383 46.9227 705.31 46.9587C705.22 46.9948 705.184 47.0851 705.184 47.1753V304.919C705.184 305.045 705.256 305.172 705.383 305.244L896.074 413.87C896.074 413.87 896.146 413.906 896.182 413.906ZM895.875 156.018V413.112L705.78 304.829V47.7346L895.875 156.018Z" fill="#4076C8" stroke="#4775BA" stroke-width="0.902212" stroke-miterlimit="10"/>
<path d="M711.789 46.3105L902.481 154.937L896.183 155.857L705.474 47.2308L711.789 46.3105Z" fill="white" stroke="#4775BA" stroke-width="0.902212" stroke-miterlimit="10"/>
<path d="M896.183 156.165C896.183 156.165 896.255 156.165 896.291 156.165L902.588 155.245C902.715 155.245 902.787 155.137 902.787 155.01C902.787 154.884 902.715 154.758 902.588 154.686L711.897 46.0593C711.897 46.0593 711.753 46.0052 711.699 46.0232L705.401 46.9435C705.275 46.9435 705.203 47.0517 705.203 47.178C705.203 47.3044 705.275 47.4307 705.401 47.5028L896.093 156.129C896.093 156.129 896.165 156.165 896.201 156.165H896.183ZM901.578 154.758L896.183 155.552L706.376 47.4307L711.771 46.6367L901.578 154.758Z" fill="#4076C8" stroke="#4775BA" stroke-width="0.902212" stroke-miterlimit="10"/>
<path d="M824.365 240.212L877.686 270.49V216.015L824.365 185.736V240.212Z" fill="#FF8D4D" stroke="#4775BA" stroke-width="0.902212" stroke-miterlimit="10"/>
<path d="M877.686 270.798C877.686 270.798 877.812 270.798 877.866 270.78C877.938 270.744 877.992 270.653 877.992 270.563V216.088C877.992 215.961 877.92 215.835 877.794 215.763L824.491 185.485C824.401 185.43 824.293 185.43 824.221 185.467C824.148 185.503 824.094 185.593 824.094 185.683V240.159C824.094 240.285 824.166 240.411 824.293 240.483L877.595 270.762C877.595 270.762 877.668 270.798 877.704 270.798H877.686ZM877.379 216.16V269.986L824.672 240.05V186.224L877.379 216.16Z" fill="#4076C8" stroke="#4775BA" stroke-width="0.902212" stroke-miterlimit="10"/>
<path d="M724.652 109.409L878.191 196.635V172.546L724.652 85.3379V109.409Z" fill="#A6CAFF" stroke="#4775BA" stroke-width="0.902212" stroke-miterlimit="10"/>
<path d="M878.192 196.926C878.192 196.926 878.318 196.926 878.372 196.908C878.444 196.872 878.499 196.782 878.499 196.692V172.621C878.499 172.494 878.426 172.368 878.3 172.296L724.762 85.0881C724.672 85.034 724.563 85.034 724.491 85.0701C724.419 85.1062 724.365 85.1964 724.365 85.2866V109.358C724.365 109.484 724.437 109.61 724.563 109.682L878.102 196.89C878.102 196.89 878.174 196.926 878.21 196.926H878.192ZM877.885 172.693V196.132L724.96 109.267V85.8279L877.885 172.693Z" fill="#4076C8" stroke="#4775BA" stroke-width="0.902212" stroke-miterlimit="10"/>
<path d="M724.654 227.003L878.193 314.211V293.081L724.654 205.873V227.003Z" fill="#E9F4FF" stroke="#4775BA" stroke-width="0.902212" stroke-miterlimit="10"/>
<path d="M878.192 314.518C878.192 314.518 878.318 314.518 878.372 314.5C878.444 314.464 878.499 314.374 878.499 314.284V293.154C878.499 293.028 878.426 292.901 878.3 292.829L724.762 205.621C724.672 205.567 724.563 205.567 724.491 205.603C724.419 205.639 724.365 205.73 724.365 205.82V226.95C724.365 227.076 724.437 227.202 724.563 227.274L878.102 314.482C878.102 314.482 878.174 314.518 878.21 314.518H878.192ZM877.885 293.244V313.724L724.96 226.859V206.379L877.885 293.244Z" fill="#4076C8" stroke="#4775BA" stroke-width="0.902212" stroke-miterlimit="10"/>
<path d="M791.941 168.272C792.067 168.29 792.175 168.235 792.229 168.127C792.283 167.983 792.211 167.784 792.049 167.694L725.105 129.675C724.942 129.585 724.78 129.639 724.708 129.783C724.654 129.928 724.726 130.126 724.888 130.216L791.832 168.235C791.832 168.235 791.904 168.272 791.941 168.272Z" fill="#4076C8" stroke="#4775BA" stroke-width="0.902212" stroke-miterlimit="10"/>
<path d="M791.941 210.567C792.067 210.585 792.175 210.53 792.229 210.422C792.283 210.278 792.211 210.079 792.049 209.989L725.105 171.97C724.942 171.88 724.78 171.934 724.708 172.078C724.654 172.223 724.726 172.421 724.888 172.511L791.832 210.53C791.832 210.53 791.904 210.567 791.941 210.567Z" fill="#4076C8" stroke="#4775BA" stroke-width="0.902212" stroke-miterlimit="10"/>
<path d="M791.941 196.455C792.067 196.473 792.175 196.419 792.229 196.311C792.283 196.166 792.211 195.968 792.049 195.878L725.105 157.859C724.942 157.768 724.78 157.822 724.708 157.967C724.654 158.111 724.726 158.31 724.888 158.4L791.832 196.419C791.832 196.419 791.904 196.455 791.941 196.455Z" fill="#4076C8" stroke="#4775BA" stroke-width="0.902212" stroke-miterlimit="10"/>
<path d="M791.94 222.53C792.067 222.548 792.175 222.494 792.229 222.385C792.283 222.241 792.211 222.043 792.049 221.952L736.815 190.573C736.653 190.483 736.49 190.537 736.418 190.682C736.364 190.826 736.436 191.025 736.599 191.115L791.832 222.494C791.832 222.494 791.904 222.53 791.94 222.53Z" fill="#4076C8" stroke="#4775BA" stroke-width="0.902212" stroke-miterlimit="10"/>
<path d="M791.94 182.362C792.066 182.38 792.174 182.326 792.229 182.218C792.283 182.074 792.211 181.875 792.048 181.785L757.945 162.405C757.782 162.315 757.62 162.369 757.548 162.514C757.493 162.658 757.566 162.857 757.728 162.947L791.832 182.326C791.832 182.326 791.904 182.362 791.94 182.362Z" fill="#4076C8" stroke="#4775BA" stroke-width="0.902212" stroke-miterlimit="10"/>
<path d="M752.063 159.718C752.189 159.736 752.297 159.682 752.351 159.574C752.406 159.429 752.333 159.231 752.171 159.14L725.105 143.767C724.942 143.677 724.78 143.731 724.708 143.875C724.654 144.019 724.726 144.218 724.888 144.308L751.955 159.682C751.955 159.682 752.027 159.718 752.063 159.718Z" fill="#4076C8" stroke="#4775BA" stroke-width="0.902212" stroke-miterlimit="10"/>
<path d="M791.941 310.348C792.067 310.366 792.175 310.312 792.229 310.203C792.283 310.059 792.211 309.861 792.049 309.77L725.105 271.751C724.942 271.661 724.78 271.715 724.708 271.859C724.654 272.004 724.726 272.202 724.888 272.292L791.832 310.312C791.832 310.312 791.904 310.348 791.941 310.348Z" fill="#4076C8" stroke="#4775BA" stroke-width="0.902212" stroke-miterlimit="10"/>
<path d="M791.941 282.167C792.067 282.185 792.175 282.131 792.229 282.022C792.283 281.878 792.211 281.68 792.049 281.589L744.232 254.433C744.069 254.343 743.907 254.397 743.835 254.541C743.781 254.685 743.853 254.884 744.015 254.974L791.832 282.131C791.832 282.131 791.905 282.167 791.941 282.167Z" fill="#4076C8" stroke="#4775BA" stroke-width="0.902212" stroke-miterlimit="10"/>
<path d="M738.349 251.724C738.475 251.742 738.584 251.688 738.638 251.58C738.692 251.435 738.62 251.237 738.457 251.147L725.105 243.55C724.942 243.46 724.78 243.514 724.708 243.658C724.654 243.803 724.726 244.001 724.888 244.091L738.241 251.688C738.241 251.688 738.313 251.724 738.349 251.724Z" fill="#4076C8" stroke="#4775BA" stroke-width="0.902212" stroke-miterlimit="10"/>
<path d="M771.009 284.365C771.136 284.383 771.244 284.329 771.298 284.22C771.352 284.076 771.28 283.878 771.117 283.787L725.105 257.659C724.942 257.569 724.78 257.623 724.708 257.768C724.654 257.912 724.726 258.11 724.888 258.201L770.901 284.329C770.901 284.329 770.973 284.365 771.009 284.365Z" fill="#4076C8" stroke="#4775BA" stroke-width="0.902212" stroke-miterlimit="10"/>
<path d="M791.94 296.258C792.066 296.276 792.175 296.222 792.229 296.114C792.283 295.97 792.211 295.771 792.048 295.681L776.873 287.056C776.711 286.966 776.548 287.02 776.476 287.164C776.422 287.308 776.494 287.507 776.657 287.597L791.832 296.222C791.832 296.222 791.904 296.258 791.94 296.258Z" fill="#4076C8" stroke="#4775BA" stroke-width="0.902212" stroke-miterlimit="10"/>
<path d="M791.94 324.441C792.066 324.459 792.174 324.405 792.229 324.297C792.283 324.152 792.211 323.954 792.048 323.864L738.457 293.423C738.294 293.333 738.132 293.387 738.06 293.531C738.006 293.676 738.078 293.874 738.24 293.964L791.832 324.405C791.832 324.405 791.904 324.441 791.94 324.441Z" fill="#4076C8" stroke="#4775BA" stroke-width="0.902212" stroke-miterlimit="10"/>
<path d="M874.564 330.436C874.69 330.454 874.798 330.4 874.852 330.291C874.906 330.147 874.834 329.948 874.672 329.858L807.728 291.839C807.565 291.749 807.403 291.803 807.331 291.947C807.277 292.092 807.349 292.29 807.511 292.38L874.455 330.4C874.455 330.4 874.527 330.436 874.564 330.436Z" fill="#4076C8" stroke="#4775BA" stroke-width="0.902212" stroke-miterlimit="10"/>
<path d="M874.564 372.731C874.69 372.749 874.798 372.694 874.852 372.586C874.906 372.442 874.834 372.243 874.672 372.153L807.728 334.134C807.565 334.044 807.403 334.098 807.331 334.242C807.277 334.387 807.349 334.585 807.511 334.675L874.455 372.694C874.455 372.694 874.527 372.731 874.564 372.731Z" fill="#4076C8" stroke="#4775BA" stroke-width="0.902212" stroke-miterlimit="10"/>
<path d="M834.705 321.882C834.831 321.9 834.939 321.846 834.994 321.738C835.048 321.593 834.976 321.395 834.813 321.305L807.747 305.931C807.584 305.841 807.422 305.895 807.35 306.039C807.296 306.183 807.368 306.382 807.53 306.472L834.597 321.846C834.597 321.846 834.669 321.882 834.705 321.882Z" fill="#4076C8" stroke="#4775BA" stroke-width="0.902212" stroke-miterlimit="10"/>
<path d="M855.383 347.738C855.509 347.756 855.617 347.702 855.671 347.594C855.725 347.449 855.653 347.251 855.491 347.161L807.728 320.04C807.565 319.95 807.403 320.004 807.331 320.148C807.277 320.293 807.349 320.491 807.511 320.582L855.274 347.702C855.274 347.702 855.346 347.738 855.383 347.738Z" fill="#4076C8" stroke="#4775BA" stroke-width="0.902212" stroke-miterlimit="10"/>
<path d="M874.563 358.638C874.689 358.656 874.798 358.602 874.852 358.493C874.906 358.349 874.834 358.15 874.671 358.06L861.463 350.554C861.301 350.464 861.138 350.518 861.066 350.662C861.012 350.807 861.084 351.005 861.247 351.095L874.455 358.602C874.455 358.602 874.527 358.638 874.563 358.638Z" fill="#4076C8" stroke="#4775BA" stroke-width="0.902212" stroke-miterlimit="10"/>
<path d="M874.563 344.546C874.689 344.564 874.798 344.51 874.852 344.401C874.906 344.257 874.834 344.058 874.671 343.968L853.361 331.861C853.199 331.77 853.036 331.824 852.964 331.969C852.91 332.113 852.982 332.312 853.145 332.402L874.455 344.51C874.455 344.51 874.527 344.546 874.563 344.546Z" fill="#4076C8" stroke="#4775BA" stroke-width="0.902212" stroke-miterlimit="10"/>
<path d="M847.496 329.156C847.622 329.174 847.731 329.12 847.785 329.012C847.839 328.867 847.767 328.669 847.604 328.579L840.567 324.591C840.405 324.501 840.242 324.555 840.17 324.699C840.116 324.844 840.188 325.042 840.351 325.132L847.388 329.12C847.388 329.12 847.46 329.156 847.496 329.156Z" fill="#4076C8" stroke="#4775BA" stroke-width="0.902212" stroke-miterlimit="10"/>
<path fill-rule="evenodd" clip-rule="evenodd" d="M945.751 213.019V213.055L927.652 204.015C924.206 202.301 922.004 198.115 922.004 192.178V104.104C922.004 93.7468 928.735 81.9819 937.017 77.8318L1010.87 40.8952C1014.41 39.1269 1017.67 39.0367 1020.24 40.3178L1039.26 49.8271C1036.66 48.4197 1033.3 48.4558 1029.64 50.2782L955.783 87.2148C947.501 91.3649 940.77 103.13 940.77 113.487V201.561C940.77 207.101 942.701 211.125 945.751 213.037V213.019Z" fill="white"/>
<path fill-rule="evenodd" clip-rule="evenodd" d="M1016.48 38.7656C1017.84 38.7656 1019.21 39.0543 1020.42 39.6498C1020.47 39.6859 1020.54 39.722 1020.54 39.722C1026.81 42.8436 1033.07 45.9653 1039.31 49.105L1039.54 49.2313L1039.76 49.3937L1039.89 49.6283V49.8989L1039.82 50.1696L1039.63 50.3681C1039.4 50.4944 1039.15 50.5124 1038.9 50.4402C1038.53 50.3139 1037.96 49.9891 1037.42 49.8267C1034.96 49.123 1032.24 49.7365 1029.95 50.8733C1005.26 63.1795 980.558 75.4315 955.946 87.864C951.218 90.2819 947.627 94.6666 945.101 99.4484C942.846 103.761 941.42 108.543 941.402 113.415C941.366 142.827 941.276 172.257 941.402 201.669C941.42 205.693 942.431 209.933 945.769 212.243C945.859 212.315 945.967 212.369 946.058 212.441L946.256 212.622C946.256 212.622 946.346 212.766 946.364 212.856C946.418 213.091 946.364 213.145 946.292 213.362C946.292 213.362 945.985 213.759 945.624 213.741C945.534 213.741 945.462 213.686 945.372 213.668C939.345 210.655 933.192 207.858 927.291 204.628C925.83 203.834 924.513 202.697 923.538 201.164C921.86 198.529 921.283 195.335 921.283 192.268C921.247 162.838 921.175 133.426 921.283 103.996C921.337 96.0741 924.747 88.2249 929.998 82.4507C931.893 80.3576 934.112 78.5351 936.602 77.272C961.251 64.8937 985.881 52.5153 1010.6 40.2813C1012.39 39.3972 1014.35 38.8198 1016.34 38.8017C1016.36 38.8017 1016.39 38.8017 1016.41 38.8017L1016.48 38.7656ZM1016.41 40.137C1014.61 40.137 1012.84 40.6964 1011.23 41.4903C986.549 53.7965 961.846 66.0305 937.234 78.481C932.578 80.8628 929.024 85.1393 926.516 89.8488C924.188 94.2155 922.708 99.0875 922.69 104.032C922.654 133.426 922.654 162.838 922.69 192.232C922.708 196.418 923.719 200.929 927.526 203.149C927.707 203.257 927.959 203.383 927.959 203.383L942.413 210.601C940.68 207.948 940.103 204.736 940.085 201.597C940.049 172.185 939.977 142.755 940.085 113.342C940.139 105.638 943.369 97.9687 948.475 92.1765C950.442 89.9391 952.752 87.9722 955.422 86.6189C980.071 74.2406 1004.7 61.8442 1029.42 49.6102C1030.99 48.8343 1032.67 48.293 1034.4 48.1667H1034.42C1029.57 45.7487 1024.73 43.2947 1019.88 40.8948C1018.79 40.3716 1017.6 40.1189 1016.39 40.1189L1016.41 40.137Z" fill="#4076C8"/>
<path fill-rule="evenodd" clip-rule="evenodd" d="M980.884 200.244L955.784 212.803C947.502 216.953 940.771 211.901 940.771 201.543V113.47C940.771 103.112 947.502 91.3473 955.784 87.1971L1029.64 50.2606C1037.92 46.1104 1044.65 51.1628 1044.65 61.5202V149.594C1044.65 159.951 1037.92 171.716 1029.64 175.866L1009.36 186.007L995.121 221.591L980.884 200.244Z" fill="#AEC9FF"/>
<path fill-rule="evenodd" clip-rule="evenodd" d="M1035.27 48.1509C1038.25 48.1869 1041.08 49.6485 1042.86 52.2649C1044.69 54.9174 1045.3 58.2376 1045.32 61.4134C1045.41 90.8615 1045.41 120.292 1045.32 149.74C1045.26 157.679 1041.84 165.547 1036.55 171.321C1034.65 173.396 1032.47 175.2 1029.98 176.463H1029.93L1009.86 186.514L995.715 221.863L995.552 222.097L995.3 222.242L995.011 222.278L994.74 222.187L994.524 221.989L980.63 201.13C972.402 205.244 964.21 209.394 955.963 213.454C952.95 214.934 949.377 215.493 946.346 214.104C942.43 212.317 940.481 207.554 940.139 203.403C940.085 202.808 940.066 202.194 940.066 201.581C940.03 172.169 939.958 142.739 940.066 113.327C940.121 105.622 943.35 97.9529 948.457 92.1607C950.424 89.9232 952.734 87.9564 955.404 86.6031C980.052 74.2248 1004.7 61.8284 1029.42 49.5944C1031.21 48.7102 1033.16 48.1328 1035.16 48.1328H1035.25L1035.27 48.1509ZM981.279 199.704L981.442 199.885L994.957 220.166L1008.71 185.792L1008.83 185.576L1009.03 185.431C1015.82 182.039 1022.64 178.665 1029.4 175.236C1034.17 172.8 1037.78 168.38 1040.3 163.526C1042.52 159.267 1043.91 154.522 1043.95 149.74C1044.04 120.31 1044.04 90.8616 1043.95 61.4314C1043.93 57.4076 1042.92 53.1491 1039.56 50.8394C1037.9 49.7027 1035.77 49.3237 1033.75 49.6305C1032.45 49.829 1031.21 50.2801 1030.03 50.8394C1005.3 63.0734 980.612 75.4157 955.981 87.8662C951.254 90.2841 947.663 94.6689 945.137 99.4506C942.881 103.763 941.456 108.545 941.438 113.417C941.402 142.829 941.33 172.241 941.438 201.671C941.456 205.695 942.448 209.972 945.859 212.281C947.537 213.418 949.666 213.779 951.687 213.454C953.004 213.256 954.267 212.786 955.458 212.191L980.558 199.632C980.792 199.56 980.792 199.56 981.045 199.578C981.117 199.614 981.189 199.65 981.261 199.686L981.279 199.704Z" fill="#4076C8"/>
<path fill-rule="evenodd" clip-rule="evenodd" d="M971.5 204.936L980.883 200.244L995.12 221.609L976.354 212.226L971.5 204.936Z" fill="white"/>
<path fill-rule="evenodd" clip-rule="evenodd" d="M980.955 199.577C981.279 199.631 981.279 199.649 981.46 199.883L995.697 221.23C996.003 221.753 995.426 222.475 994.831 222.222L976.065 212.839C976.065 212.839 975.938 212.785 975.794 212.605L970.94 205.315C970.742 204.972 970.85 204.539 971.211 204.322L980.594 199.631C980.738 199.577 980.774 199.559 980.955 199.559V199.577ZM972.51 205.206L976.841 211.702L993.134 219.858L980.666 201.146C977.941 202.5 975.235 203.871 972.51 205.224V205.206Z" fill="#4076C8"/>
<path fill-rule="evenodd" clip-rule="evenodd" d="M1041.85 67.4564C1043.37 64.1904 1045.75 61.3935 1048.4 60.0582C1052.99 57.7666 1056.71 60.6898 1056.71 66.5902C1056.71 69.0623 1056.06 71.6607 1054.95 74.0245C1054.67 74.656 1054.32 75.2875 1053.96 75.883L1002.9 172.095C1001.38 175.235 999.072 177.905 996.492 179.186C994.074 180.395 991.908 180.161 990.393 178.789H990.357L965.221 156.035C964.914 155.819 964.625 155.566 964.373 155.26C963.272 153.996 962.604 152.048 962.604 149.558C962.604 143.657 966.322 137.017 970.905 134.725C973.251 133.552 975.362 133.751 976.877 134.996C976.986 135.086 977.076 135.158 977.166 135.267L996.546 152.751L1041.84 67.4744L1041.85 67.4564Z" fill="white"/>
<path fill-rule="evenodd" clip-rule="evenodd" d="M989.959 179.275C981.568 171.715 973.196 164.118 964.823 156.54C964.823 156.54 964.3 156.143 963.885 155.691C963.885 155.691 963.632 155.403 963.849 155.655C962.333 153.905 961.882 151.343 961.936 149.178C962.08 143.151 965.346 136.853 970.435 134.183C972.528 133.082 975.253 132.757 977.328 134.453C977.328 134.453 977.418 134.544 977.346 134.471C977.328 134.453 977.652 134.742 977.652 134.742L996.364 151.632L1041.24 67.1304C1042.68 64.0629 1044.8 61.2119 1047.79 59.5879C1049.45 58.6857 1051.45 58.2165 1053.33 58.9203C1056.18 60.0029 1057.5 63.5215 1057.39 67.0582C1057.3 69.5483 1056.63 72.0204 1055.59 74.2939L1055.55 74.3661V74.33C1055.28 74.9616 1054.95 75.557 1054.61 76.1525V76.1886L1003.55 172.364C1002.07 175.396 999.937 178.193 996.87 179.744C994.722 180.827 991.98 181.044 989.977 179.275H989.959ZM997.014 153.255C996.725 153.418 996.418 153.436 996.112 153.255L976.732 135.771C976.065 135.121 975.18 134.706 974.242 134.652C971.914 134.49 969.839 135.987 968.287 137.575C964.733 141.22 962.622 146.561 963.47 151.523C963.686 152.732 964.101 153.905 964.913 154.825C964.913 154.825 965.166 155.114 964.931 154.843C965.22 155.168 965.707 155.529 965.707 155.529C974.098 163.108 982.47 170.704 990.879 178.283C991.059 178.445 991.113 178.481 991.222 178.572C992.936 179.799 995.498 179.131 997.158 178.03C997.411 177.868 997.663 177.669 997.916 177.489C999.811 175.991 1001.25 173.97 1002.32 171.787L1053.38 75.557C1055.46 72.0925 1056.65 67.8882 1055.77 64.117C1055.3 62.096 1053.93 60.1292 1051.69 60.0029C1049.63 59.8766 1047.74 61.0856 1046.31 62.4028C1044.67 63.9005 1043.42 65.7771 1042.49 67.78V67.8161L997.176 153.093C997.122 153.165 997.068 153.219 997.032 153.292L997.014 153.255Z" fill="#4076C8"/>
<path fill-rule="evenodd" clip-rule="evenodd" d="M991.42 179.457L983.607 175.541C983.246 175.361 982.903 175.126 982.597 174.856H982.561L957.425 152.102C957.118 151.885 956.83 151.633 956.577 151.326C955.476 150.063 954.809 148.114 954.809 145.624C954.809 139.724 958.526 133.083 963.109 130.792C965.094 129.799 966.916 129.781 968.342 130.557L975.74 134.256C974.387 133.697 972.727 133.787 970.94 134.689C966.357 136.981 962.64 143.621 962.64 149.522C962.64 152.012 963.307 153.96 964.408 155.224C964.661 155.512 964.949 155.783 965.256 155.999L990.392 178.717H990.428V178.753C990.735 179.042 991.077 179.258 991.438 179.439L991.42 179.457ZM989.869 146.707L1034.02 63.5408C1035.54 60.2748 1037.92 57.4779 1040.57 56.1427C1042.49 55.1863 1044.25 55.1322 1045.66 55.8359L1053.47 59.7515C1052.07 59.0478 1050.3 59.1019 1048.39 60.0583C1045.72 61.3935 1043.35 64.1904 1041.84 67.4564L996.545 152.733L989.85 146.707H989.869Z" fill="#4076C8"/>
<path fill-rule="evenodd" clip-rule="evenodd" d="M966.177 129.348C967.043 129.348 967.891 129.565 968.649 129.98L976.029 133.679C976.21 133.805 976.21 133.805 976.336 133.986L976.408 134.256L976.372 134.527L976.228 134.762L976.011 134.924L975.74 134.978L975.47 134.924C973.629 134.166 971.464 135.032 969.948 136.115C966.574 138.533 964.409 142.503 963.597 146.617C963.037 149.468 963.037 152.679 964.896 154.809C964.896 154.809 965.148 155.097 964.914 154.827C965.203 155.152 965.69 155.512 965.69 155.512C974.062 163.091 982.453 170.652 990.825 178.23C991.096 178.483 991.367 178.663 991.655 178.826L991.908 179.006C992.034 179.223 992.034 179.223 992.088 179.457L992.034 179.728L991.872 179.962L991.637 180.107L991.367 180.143L991.096 180.071C988.498 178.771 985.881 177.472 983.283 176.155C983.138 176.083 983.138 176.083 983.084 176.047C982.742 175.848 982.417 175.614 982.11 175.361C973.665 167.855 965.347 160.204 956.974 152.643C956.974 152.643 956.126 151.976 955.657 151.308C954.304 149.395 953.997 146.941 954.141 144.704C954.484 139.345 957.173 133.986 961.449 131.008C962.803 130.07 964.391 129.384 966.033 129.348C966.087 129.348 966.123 129.348 966.177 129.348ZM966.087 130.72C963.127 130.738 960.529 133.138 958.689 135.808C956.361 139.2 954.989 143.441 955.603 147.411C955.801 148.674 956.235 149.937 957.065 150.893C957.065 150.893 957.389 151.254 957.768 151.543L957.877 151.633C966.267 159.211 974.694 166.754 983.048 174.387C983.319 174.621 983.608 174.82 983.914 174.982L986.711 176.372L964.824 156.577C964.481 156.324 964.174 156.036 963.885 155.729C963.885 155.729 963.633 155.44 963.849 155.693C962.388 154.015 961.918 151.543 961.937 149.431C961.991 144.145 964.517 138.767 968.523 135.519C969.696 134.563 971.031 133.805 972.492 133.462L968.017 131.225C967.422 130.9 966.772 130.756 966.105 130.756L966.087 130.72ZM997.014 153.257C996.726 153.419 996.419 153.437 996.112 153.257L989.418 147.23L989.237 146.977L989.183 146.689L989.255 146.4L1033.41 63.2522C1033.41 63.2522 1033.45 63.162 1033.48 63.1079C1035.05 59.8238 1037.43 56.7924 1040.66 55.3669C1042.27 54.6632 1044.15 54.4286 1045.79 55.1504C1045.82 55.1504 1045.86 55.1865 1045.9 55.2045C1045.93 55.2226 1045.97 55.2406 1045.97 55.2406L1053.78 59.1562L1053.98 59.3006C1054.11 59.5171 1054.11 59.5171 1054.16 59.7517L1054.11 60.0223L1053.94 60.2569L1053.71 60.4013L1053.44 60.4373C1052.84 60.2749 1052.27 59.9862 1051.56 59.9682C1049.34 59.878 1047.36 61.2674 1045.86 62.765C1044.43 64.1905 1043.3 65.9228 1042.45 67.7453V67.7813L997.141 153.058C997.087 153.131 997.033 153.185 996.996 153.257H997.014ZM1043.57 56.0526C1041.26 56.0706 1039.18 57.6224 1037.65 59.3006C1036.42 60.6358 1035.43 62.2057 1034.65 63.8657L990.735 146.562L996.383 151.651L1041.26 67.1498C1042.74 63.974 1044.98 61.0328 1048.08 59.463C1048.68 59.1562 1049.31 58.9216 1049.97 58.7592H1049.99C1048.44 57.9833 1046.91 57.2074 1045.36 56.4315C1044.81 56.1609 1044.18 56.0345 1043.57 56.0345V56.0526Z" fill="#4076C8"/>
</g>
</g>
<defs>
<clipPath id="clip0_129_692">
<rect width="1200" height="427" fill="white"/>
</clipPath>
<clipPath id="clip1_129_692">
<rect width="1200" height="427" fill="white"/>
</clipPath>
</defs>
</svg>
