<svg width="1200" height="427" viewBox="0 0 1200 427" fill="none" xmlns="http://www.w3.org/2000/svg">
<g clip-path="url(#clip0_33_1026)">
<rect width="1200" height="427" fill="#F78752"/>
<path d="M155.406 150.266H148.68V169.516H144.031V151.086H137.469V197.625H144.031V175.148H148.68V200.031H155.406V150.266ZM114.5 187.891H117.891C123.031 187.918 128.719 187.562 135.391 186.414L134.68 180.398C129.895 181.328 125.492 181.684 121.5 181.793V155.789H114.5V187.891ZM200.02 150.266H193.075V160.82H184.708V166.508H193.075V174.328H184.544V180.07H193.075V200.141H200.02V150.266ZM159.716 159.945H175.247V168.148H159.825V188.984H163.763C171.419 189.012 177.763 188.848 185.2 187.672L184.653 181.984C178.364 182.941 172.923 183.215 166.77 183.27V173.562H182.083V154.422H159.716V159.945ZM244.252 173.289H215.923V160.055H243.869V154.422H209.033V178.867H244.252V173.289ZM203.673 193.961H249.228V188.219H203.673V193.961ZM290.944 150.32H283.944V179.797H290.944V150.32ZM251.842 158.633H267.975V162.789H251.897V178.102H256.272C266.143 178.102 272.87 177.855 280.498 176.625L279.623 171.047C272.924 172.168 267.045 172.387 258.733 172.414V168.094H274.92V153.164H251.842V158.633ZM257.584 199.484H290.944V181.984H257.584V199.484ZM264.475 193.906V187.508H284.108V193.906H264.475ZM305.37 190.953H297.605L294.87 206.539H300.667L305.37 190.953ZM131.781 241.828V238.766H142.172V233.078H114.062V238.766H124.617V241.828C124.617 250.25 120.352 259.465 112.094 263.156L116.086 268.68C121.965 265.973 126.094 260.504 128.336 253.969C130.578 259.984 134.625 264.934 140.477 267.422L144.25 261.953C135.91 258.48 131.754 249.867 131.781 241.828ZM147.094 278.031H154.148V228.266H147.094V278.031ZM198.216 230.508H163.653V236.086H191.27C191.216 239.586 191.079 243.441 190.013 248.391H158.075V254.023H203.63V248.391H197.04C198.243 242.676 198.243 238.383 198.216 234.5V230.508ZM163.489 277.484H198.052V259.273H163.489V277.484ZM170.325 271.906V264.742H191.106V271.906H170.325ZM255.452 228.32H248.452V264.633H255.452V228.32ZM213.616 252.328L217.225 257.852C223.049 255.855 227.014 251.754 229.256 246.668C231.471 251.398 235.327 255.117 240.959 256.977L244.514 251.508C236.338 248.883 232.811 242.457 232.866 235.867V231.055H225.592V235.867C225.592 242.621 221.955 249.539 213.616 252.328ZM222.092 277.156H256.764V271.578H229.147V261.133H222.092V277.156ZM287.761 233.461H277.808V228.047H270.753V233.461H260.745V238.93H270.753C270.698 244.562 267.007 250.25 259.05 252.547L262.331 257.961C268.21 256.266 272.202 252.629 274.363 248.035C276.632 252.082 280.597 255.227 286.284 256.648L289.511 251.289C281.499 249.238 277.78 244.043 277.698 238.93H287.761V233.461ZM267.198 268.516C267.198 274.559 273.761 278.059 284.316 278.031C294.925 278.059 301.46 274.559 301.488 268.516C301.46 262.555 294.925 259.191 284.316 259.164C273.761 259.191 267.198 262.555 267.198 268.516ZM274.144 268.516C274.144 265.863 277.726 264.523 284.316 264.523C291.042 264.523 294.515 265.863 294.542 268.516C294.515 271.25 291.042 272.727 284.316 272.727C277.726 272.727 274.144 271.25 274.144 268.516ZM286.284 247.188H294.378V258.344H301.323V228.266H294.378V241.609H286.284V247.188ZM328.984 235.867H320.453V229.633H313.562V235.867H304.922V241.391H328.984V235.867ZM306.07 255.445C306.07 262.391 310.719 267.312 317.062 267.312C323.434 267.312 327.973 262.391 328 255.445C327.973 248.527 323.434 243.66 317.062 243.633C310.719 243.66 306.07 248.527 306.07 255.445ZM312.195 255.445C312.195 251.699 314.164 249.43 317.062 249.43C319.852 249.43 321.848 251.699 321.875 255.445C321.848 259.246 319.852 261.406 317.062 261.406C314.164 261.406 312.195 259.246 312.195 255.445ZM330.844 275.898H337.352V254.078H341.398V278.031H348.016V228.266H341.398V248.5H337.352V229.25H330.844V275.898ZM396.13 266.547H376.716V257.359H391.044V231.438H384.098V239.148H362.387V231.438H355.387V257.359H369.77V266.547H350.575V272.234H396.13V266.547ZM362.387 251.781V244.727H384.098V251.781H362.387ZM412.142 240.789V232.531H405.361V241.117C405.361 249.539 402.627 258.316 395.244 262.883L399.509 268.023C404.021 265.289 407.002 260.559 408.779 254.926C410.365 260.012 413.072 264.332 417.392 266.93L421.166 261.516C414.357 257.168 412.115 248.855 412.142 240.789ZM415.916 250.742H422.369V275.734H428.877V228.977H422.369V245.055H415.916V250.742ZM432.65 278.031H439.322V228.266H432.65V278.031ZM487.327 266.492H477.209V254.16C480.955 251.836 483.198 248.363 483.225 244.07C483.198 236.004 475.241 230.699 464.467 230.672C453.639 230.699 445.764 236.004 445.764 244.07C445.764 248.445 448.088 251.973 451.944 254.297V266.492H441.772V272.234H487.327V266.492ZM452.655 244.07C452.655 239.066 457.33 236.168 464.467 236.195C471.495 236.168 476.307 239.066 476.334 244.07C476.307 248.938 471.495 251.945 464.467 251.945C457.33 251.945 452.655 248.938 452.655 244.07ZM458.834 266.492V256.84C460.584 257.168 462.471 257.359 464.467 257.359C466.463 257.359 468.377 257.168 470.155 256.812V266.492H458.834ZM498.691 233.406H490.269L490.98 261.133H497.98L498.691 233.406ZM489.941 268.898C489.886 271.441 491.964 273.492 494.534 273.492C496.968 273.492 499.073 271.441 499.073 268.898C499.073 266.383 496.968 264.332 494.534 264.359C491.964 264.332 489.886 266.383 489.941 268.898Z" fill="white"/>
<path d="M1141.19 274.164C1140.44 273.382 1139.53 272.668 1138.38 272.036L926.926 154.641C919.332 150.42 905.737 151.334 896.597 156.685L596.694 331.798C595.664 332.396 594.75 333.027 593.919 333.692L592.54 334.722C590.33 336.368 589.017 330.468 589 333.16V342.234V342.882C589.316 345.259 590.911 347.469 593.886 349.114L805.343 466.509C812.938 470.731 826.532 469.817 835.673 464.465L1135.59 289.337C1140.34 286.561 1142.95 283.138 1143.3 279.897V270.807" fill="#B94915"/>
<path d="M1141.19 274.164C1140.44 273.382 1139.53 272.668 1138.38 272.036L926.926 154.641C919.332 150.42 905.737 151.334 896.597 156.685L596.694 331.798C595.664 332.396 594.75 333.027 593.919 333.692L592.54 334.722C590.33 336.368 589.017 330.468 589 333.16V342.234V342.882C589.316 345.259 590.911 347.469 593.886 349.114L805.343 466.509C812.938 470.731 826.532 469.817 835.673 464.465L1135.59 289.337C1140.34 286.561 1142.95 283.138 1143.3 279.897V270.807" stroke="#B94915" stroke-width="1.66188" stroke-miterlimit="10"/>
<path d="M1141.19 263.791C1140.44 263.009 1139.53 262.295 1138.38 261.663L926.926 144.268C919.332 140.047 905.737 140.961 896.597 146.312L596.694 321.424C595.664 322.023 594.75 322.654 593.919 323.319L592.54 324.349C590.33 325.995 589.017 328.554 589 331.23V332.493C589.299 334.869 590.895 337.079 593.886 338.725L805.343 456.12C812.938 460.341 826.532 459.427 835.673 454.076L1135.59 278.947C1140.34 276.172 1142.95 272.748 1143.3 269.507L1143.27 269.275C1142.99 267.314 1142.27 265.436 1141.21 263.757L1141.19 263.791Z" fill="#FFDDCC" stroke="#B94915" stroke-width="1.66188" stroke-miterlimit="10"/>
<path d="M819.104 435.263L615.807 322.388L916.374 151.215L1119.67 264.073L819.104 435.263Z" fill="#FFF9F0" stroke="#B94915" stroke-width="1.66188" stroke-miterlimit="10"/>
<path d="M1069.78 221.463L1062.83 217.608C1071.26 212.805 1071.46 205.227 1063.27 200.673L1025.63 179.767C1017.43 175.213 1003.95 175.412 995.529 180.215L990.859 177.623C982.334 172.886 968.307 173.102 959.533 178.105C950.758 183.107 950.558 191.001 959.084 195.737L1038.02 239.561C1046.55 244.297 1060.57 244.081 1069.35 239.079C1078.12 234.077 1078.32 226.183 1069.8 221.446L1069.78 221.463Z" fill="#B94915" stroke="#B94915" stroke-width="1.66188" stroke-miterlimit="10"/>
<path d="M1069.95 214.815L1063 210.959C1071.43 206.156 1071.63 198.578 1063.43 194.025L1025.79 173.118C1017.6 168.565 1004.12 168.764 995.695 173.567L991.025 170.974C982.5 166.238 968.473 166.454 959.699 171.456C950.924 176.458 950.724 184.352 959.25 189.089L1038.19 232.912C1046.71 237.649 1060.74 237.433 1069.52 232.431C1078.29 227.428 1078.49 219.534 1069.96 214.798L1069.95 214.815Z" fill="#FFAC82" stroke="#B94915" stroke-width="1.66188" stroke-miterlimit="10"/>
<path fill-rule="evenodd" clip-rule="evenodd" d="M776.014 271.306L808.709 287.652C819.497 293.044 828.257 286.478 828.257 272.992V158.295C828.257 144.809 819.497 129.483 808.709 124.087L712.513 75.9908C701.725 70.5987 692.969 77.1685 692.969 90.6509V205.348C692.969 218.834 701.729 234.16 712.517 239.556L738.394 252.495C738.745 252.668 739.017 252.967 739.163 253.33L756.347 296.294C756.824 297.487 758.447 297.656 759.16 296.585L776.014 271.302V271.306Z" fill="#FFC1A1"/>
<path fill-rule="evenodd" clip-rule="evenodd" d="M705.178 73.2188C701.306 73.2542 697.623 75.1803 695.319 78.5243C692.905 82.0179 692.093 86.3781 692.078 90.5729C692.027 128.885 691.932 167.201 692.078 205.514C692.141 215.759 696.54 225.928 703.327 233.448C705.836 236.228 708.766 238.674 712.114 240.352L738.086 253.338C738.181 253.386 738.256 253.468 738.295 253.567L756.646 299.445L756.862 299.76L757.193 299.957L757.575 299.997L757.938 299.871L758.213 299.607L776.103 272.772C776.225 272.591 776.462 272.528 776.659 272.626C787.25 277.924 797.822 283.269 808.44 288.515C812.348 290.43 816.972 291.15 820.855 289.413C825.992 287.117 828.599 280.874 829.044 275.439C829.107 274.651 829.139 273.863 829.143 273.075C829.19 234.763 829.288 196.447 829.143 158.134C829.08 147.811 824.613 137.547 817.728 130.02C815.286 127.353 812.462 125.006 809.236 123.363C777.163 107.131 745.003 91.0613 712.78 75.133C710.456 73.9947 707.927 73.2384 705.355 73.2188H705.178ZM775.497 270.586L775.272 270.815L758.127 296.531C757.934 296.822 757.493 296.775 757.363 296.452L739.756 252.44L739.587 252.168L739.331 251.975C730.485 247.552 721.614 243.168 712.788 238.702C706.639 235.567 702.019 229.93 698.754 223.754C695.764 218.098 693.878 211.8 693.854 205.431C693.803 167.123 693.704 128.81 693.854 90.502C693.886 85.2753 695.189 79.7098 699.573 76.7085C701.743 75.2236 704.52 74.743 707.143 75.1448C708.829 75.4008 710.456 75.9798 711.992 76.7321C744.211 92.6565 776.363 108.723 808.429 124.95C814.569 128.082 819.197 133.722 822.462 139.898C825.452 145.554 827.339 151.852 827.362 158.221C827.41 196.53 827.508 234.842 827.362 273.15C827.331 278.389 826.051 283.958 821.604 286.971C819.43 288.444 816.645 288.913 814.018 288.5C812.304 288.232 810.65 287.633 809.102 286.861L776.407 270.515C776.131 270.436 776.099 270.429 775.863 270.444C775.812 270.448 775.757 270.464 775.709 270.484C775.638 270.519 775.564 270.551 775.493 270.586H775.497Z" fill="#B94A15"/>
<path fill-rule="evenodd" clip-rule="evenodd" d="M821.757 287.928L821.781 287.967L845.334 276.19C849.813 273.949 852.684 268.498 852.684 260.778V146.081C852.684 132.595 843.924 117.269 833.136 111.873L736.948 63.7767C732.335 61.4725 728.093 61.3504 724.749 63.0244L699.99 75.4039C703.382 73.5645 707.75 73.6157 712.512 75.9947L808.708 124.091C819.496 129.483 828.256 144.813 828.256 158.299V272.996C828.256 280.211 825.747 285.45 821.761 287.931L821.757 287.928Z" fill="white"/>
<path fill-rule="evenodd" clip-rule="evenodd" d="M729.653 61C727.884 61.0118 726.112 61.3821 724.52 62.1423C724.438 62.1816 724.323 62.2171 724.351 62.225C715.623 64.8285 708.045 70.3506 699.907 74.4469C699.694 74.552 699.495 74.6793 699.308 74.829L699.135 75.1441L699.104 75.5025L699.218 75.8491L699.442 76.1052C699.742 76.2588 700.072 76.2982 700.411 76.1839C700.876 76.0264 701.624 75.601 702.329 75.3962C705.508 74.4745 709.065 75.2898 712.003 76.7314C744.214 92.6598 776.362 108.718 808.428 124.942C814.568 128.073 819.196 133.713 822.462 139.889C825.451 145.545 827.338 151.844 827.361 158.213C827.409 196.525 827.519 234.837 827.361 273.15C827.326 278.372 826.026 283.879 821.709 286.888C821.571 286.986 821.43 287.077 821.284 287.168L821.036 287.4C820.91 287.664 820.831 287.739 820.874 288.046C820.969 288.739 821.5 288.948 822.174 288.759C830.028 284.832 838.063 281.252 845.732 276.978C847.406 276.045 848.997 274.772 850.202 273.087C852.723 269.557 853.55 265.095 853.57 260.865C853.625 222.548 853.716 184.228 853.57 145.912C853.507 135.643 849.103 125.458 842.266 117.919C839.796 115.197 836.933 112.807 833.663 111.14C801.598 94.9206 769.438 78.8741 737.231 62.9261C734.871 61.7641 732.299 60.9961 729.653 61ZM729.747 62.7764C732.106 62.7922 734.407 63.509 736.498 64.541C768.642 80.556 800.818 96.5119 832.868 112.724C839.004 115.851 843.636 121.495 846.902 127.671C849.875 133.296 851.758 139.539 851.801 145.92C851.947 184.232 851.856 222.544 851.801 260.857C851.778 266.339 850.513 272.181 845.464 275.107C845.259 275.225 844.94 275.391 844.94 275.391L826.121 284.8C828.358 281.358 829.13 277.163 829.146 273.075C829.193 234.758 829.291 196.442 829.146 158.126C829.083 147.802 824.616 137.538 817.731 130.011C815.289 127.344 812.465 124.997 809.239 123.355C777.166 107.135 745.01 91.0724 712.795 75.1402C710.758 74.1397 708.564 73.4347 706.304 73.2574H706.272C712.586 70.0986 718.884 66.9003 725.217 63.7808C726.62 63.0994 728.183 62.7725 729.747 62.7764Z" fill="#B94A15"/>
<path fill-rule="evenodd" clip-rule="evenodd" d="M788.23 277.414L776.012 271.305L757.473 299.112L781.905 286.898L788.23 277.414Z" fill="#B94A15"/>
<path fill-rule="evenodd" clip-rule="evenodd" d="M775.929 270.42C775.516 270.483 775.504 270.503 775.271 270.81L756.732 298.617C756.33 299.299 757.031 300.268 757.87 299.905L782.302 287.687C782.416 287.624 782.471 287.616 782.645 287.384L788.966 277.9C789.226 277.458 789.093 276.879 788.624 276.612L776.406 270.503C776.217 270.42 776.162 270.404 775.925 270.412L775.929 270.42ZM786.93 277.758L781.361 286.112C781.317 286.175 781.262 286.226 781.195 286.258L761.529 296.089C761.131 296.286 760.73 295.829 760.974 295.459L776.102 272.767C776.225 272.586 776.461 272.523 776.658 272.622C780.081 274.335 783.507 276.044 786.93 277.758Z" fill="#B94A15"/>
<path d="M747.973 234.584C749.836 237.956 752.05 240.264 754.614 241.513C757.178 242.757 759.392 242.6 761.255 241.04C763.118 239.48 764.051 237.003 764.051 233.612C764.051 230.22 763.118 226.841 761.255 223.465C759.392 220.09 757.178 217.786 754.614 216.537C752.05 215.292 749.836 215.45 747.973 217.01C746.11 218.569 745.177 221.047 745.177 224.438C745.177 227.829 746.11 231.209 747.973 234.584ZM770.184 157.144C770.869 152.339 769.542 146.431 766.552 140.96C763.563 135.489 759.202 131.003 754.618 128.671C750.033 126.339 745.673 126.395 742.683 128.821C739.694 131.251 738.366 135.808 739.052 141.311C741.187 158.46 744.046 181.435 745.618 194.074C746.283 199.427 750.076 205.063 754.539 207.332C754.59 207.36 754.645 207.387 754.697 207.411C759.159 209.68 762.952 207.903 763.618 203.228C765.189 192.188 768.053 172.12 770.184 157.144Z" fill="white"/>
<path fill-rule="evenodd" clip-rule="evenodd" d="M751.333 214.906C748.71 214.95 746.358 216.88 745.299 219.318C743.845 222.654 744.164 226.541 745.192 230.059C746.725 235.286 749.848 240.374 754.775 242.466C756.816 243.332 759.242 243.352 761.066 242.174C763.795 240.414 764.867 236.707 764.855 233.529C764.835 228.834 763.074 224.202 760.246 220.393C758.135 217.549 755.083 215.099 751.762 214.914C751.62 214.906 751.479 214.902 751.337 214.906H751.333ZM751.439 216.517C753.716 216.549 755.819 217.951 757.462 219.613C758.694 220.862 759.695 222.323 760.546 223.859C762.602 227.577 763.811 231.855 763.035 236.113C762.637 238.291 761.4 240.54 759.234 241.3C757.781 241.812 756.115 241.383 754.744 240.678C752.105 239.315 750.159 236.877 748.678 234.194C746.634 230.496 745.445 226.167 746.181 222.004C746.642 219.4 748.308 216.565 751.357 216.517C751.385 216.517 751.416 216.517 751.447 216.517H751.439ZM748.135 126.154C744.885 126.174 741.77 127.777 739.985 130.727C738.087 133.862 737.807 137.73 738.225 141.275C740.352 158.937 742.585 176.59 744.818 194.24C745.437 198.935 747.989 203.393 751.644 206.387C754.133 208.423 757.343 209.983 760.467 208.841C762.649 208.041 764.039 205.768 764.398 203.405C766.651 187.993 768.872 172.577 770.991 157.144C771.779 151.256 769.885 145.175 766.923 139.995C764.083 135.024 760.112 130.601 755.031 127.99L754.866 127.915L754.921 127.935C752.841 126.883 750.565 126.182 748.241 126.166C748.206 126.166 748.174 126.166 748.139 126.166L748.135 126.154ZM748.229 127.765C750.309 127.781 752.377 128.443 754.244 129.388L754.354 129.435L754.295 129.416C754.362 129.451 754.433 129.486 754.5 129.522C762.921 133.985 768.565 143.524 769.443 152.505C769.589 153.99 769.589 155.494 769.384 156.975C767.214 172.376 765.048 187.772 762.803 203.161C762.499 205.162 761.357 207.116 759.234 207.509C757.489 207.828 755.693 207.112 754.263 206.265C751.392 204.563 749.214 201.79 747.804 198.722C747.118 197.233 746.626 195.65 746.413 194.027C744.18 176.381 741.951 158.736 739.824 141.078C739.284 136.509 739.985 131.35 743.936 128.9C745.212 128.108 746.701 127.749 748.229 127.757V127.765Z" fill="#B94A15"/>
<path d="M760.096 241.805L766.174 238.768C766.572 238.567 766.958 238.315 767.328 238.004C769.191 236.445 770.124 233.967 770.124 230.576C770.124 227.184 769.191 223.805 767.328 220.43C765.465 217.058 763.251 214.75 760.687 213.501C758.671 212.52 756.871 212.41 755.287 213.166C755.232 213.194 755.177 213.222 755.126 213.249L749.214 216.203C750.797 215.447 752.597 215.557 754.614 216.538C757.178 217.783 759.391 220.095 761.254 223.466C763.117 226.838 764.051 230.221 764.051 233.613C764.051 237.004 763.117 239.477 761.254 241.041C760.884 241.352 760.498 241.608 760.1 241.805H760.096ZM760.908 207.751L766.524 204.942C766.682 204.875 766.836 204.797 766.985 204.71C768.395 203.902 769.38 202.358 769.687 200.188C771.259 189.148 774.122 169.08 776.253 154.105C776.939 149.299 775.611 143.391 772.622 137.92C769.632 132.449 765.272 127.963 760.687 125.631C756.811 123.658 753.097 123.394 750.234 124.824L744.156 127.861C747.02 126.431 750.734 126.695 754.61 128.668C759.194 131 763.555 135.49 766.544 140.957C769.534 146.428 770.861 152.336 770.176 157.142C768.041 172.117 765.181 192.185 763.61 203.225C763.299 205.395 762.318 206.943 760.908 207.747V207.751Z" fill="#B94A15"/>
<path fill-rule="evenodd" clip-rule="evenodd" d="M757.444 211.865C756.582 211.873 755.723 212.066 754.943 212.437C754.943 212.437 754.833 212.488 754.758 212.527L748.85 215.481C748.692 215.599 748.499 215.702 748.405 216.202L748.468 216.517L748.649 216.781L748.921 216.954L749.24 217.005C749.941 216.832 750.579 216.517 751.375 216.509C753.919 216.493 756.133 218.167 757.756 219.912C761.694 224.142 763.888 230.33 763.093 235.722C762.777 237.857 761.809 240.028 759.729 241.079L759.489 241.264C759.327 241.536 759.233 241.843 759.351 242.119C759.398 242.229 759.52 242.367 759.52 242.367L759.8 242.548L760.127 242.6L760.45 242.517C762.478 241.505 764.542 240.567 766.531 239.476C769.981 237.582 770.994 233.619 770.919 230.153C770.82 225.643 769.119 221.224 766.464 217.553C764.266 214.516 761.033 211.905 757.535 211.861C757.503 211.861 757.472 211.861 757.44 211.861L757.444 211.865ZM757.523 213.476C759.78 213.508 761.86 214.882 763.49 216.521C764.743 217.777 765.759 219.258 766.622 220.818C768.658 224.501 769.848 228.759 769.131 232.946C768.78 234.99 767.776 237.054 765.81 238.046L763.77 239.066C765.464 235.569 765.074 231.394 763.955 227.743C762.238 222.126 758.551 216.556 753.163 215.138H753.147C754.486 214.465 755.731 213.516 757.381 213.476C757.429 213.476 757.476 213.476 757.523 213.476ZM754.219 123.113C752.773 123.121 751.328 123.409 750.024 124.031C749.953 124.066 749.874 124.102 749.874 124.102L743.797 127.143L743.548 127.336L743.395 127.607L743.355 127.919L743.438 128.222C743.438 128.222 743.797 128.695 744.214 128.667C744.423 128.651 744.604 128.541 744.793 128.454C747.814 127.107 751.517 128.009 754.246 129.388L754.356 129.431L754.297 129.411C754.364 129.447 754.435 129.482 754.502 129.518C762.923 133.98 768.567 143.52 769.446 152.5C769.592 153.985 769.592 155.49 769.387 156.971C767.216 172.367 765.046 187.768 762.805 203.153C762.577 204.669 761.919 206.225 760.505 207.044L760.245 207.281L760.111 207.608L760.131 207.958L760.296 208.269L760.58 208.478L760.926 208.545L761.269 208.458L766.866 205.662C766.905 205.646 766.945 205.626 766.984 205.611C767.161 205.528 767.39 205.402 767.39 205.402C769.135 204.397 770.167 202.424 770.482 200.352C772.715 184.94 774.956 169.528 777.075 154.096C777.867 148.187 775.972 142.106 772.971 136.879C770.139 131.948 766.173 127.556 761.17 124.965C761.17 124.965 761.159 124.949 760.95 124.862L761.005 124.882C758.898 123.814 756.57 123.109 754.226 123.113H754.219ZM754.297 124.724C756.393 124.74 758.441 125.398 760.324 126.347L760.434 126.39L760.375 126.371C760.442 126.406 760.513 126.442 760.58 126.477C765.176 128.911 768.887 133.031 771.533 137.62C774.397 142.583 776.209 148.4 775.476 153.879C773.361 169.303 771.12 184.708 768.887 200.116C768.634 201.79 767.858 203.476 766.185 204.208L763.884 205.359C763.9 205.315 763.92 205.272 763.935 205.229C764.156 204.638 764.31 204.019 764.404 203.389C766.649 187.977 768.879 172.56 770.998 157.132C771.785 151.244 769.891 145.162 766.929 139.983C764.089 135.012 760.119 130.589 755.038 127.978L754.872 127.903L754.928 127.923C753.163 127.032 751.257 126.394 749.295 126.205H749.283C750.292 125.701 751.284 125.161 752.375 124.921C753.009 124.783 753.667 124.72 754.309 124.724H754.297Z" fill="#B94A15"/>
<g clip-path="url(#clip1_33_1026)">
<rect width="1200" height="427" fill="#304FFB"/>
<path d="M131.406 150.266H124.68V169.516H120.031V151.086H113.469V197.625H120.031V175.148H124.68V200.031H131.406V150.266ZM90.5 187.891H93.8906C99.0312 187.918 104.719 187.562 111.391 186.414L110.68 180.398C105.895 181.328 101.492 181.684 97.5 181.793V155.789H90.5V187.891ZM176.02 150.266H169.075V160.82H160.708V166.508H169.075V174.328H160.544V180.07H169.075V200.141H176.02V150.266ZM135.716 159.945H151.247V168.148H135.825V188.984H139.763C147.419 189.012 153.763 188.848 161.2 187.672L160.653 181.984C154.364 182.941 148.923 183.215 142.77 183.27V173.562H158.083V154.422H135.716V159.945ZM220.252 173.289H191.923V160.055H219.869V154.422H185.033V178.867H220.252V173.289ZM179.673 193.961H225.228V188.219H179.673V193.961ZM266.944 150.32H259.944V179.797H266.944V150.32ZM227.842 158.633H243.975V162.789H227.897V178.102H232.272C242.143 178.102 248.87 177.855 256.498 176.625L255.623 171.047C248.924 172.168 243.045 172.387 234.733 172.414V168.094H250.92V153.164H227.842V158.633ZM233.584 199.484H266.944V181.984H233.584V199.484ZM240.475 193.906V187.508H260.108V193.906H240.475ZM312.542 150.266H305.488V200.141H312.542V150.266ZM272.347 171.484C272.32 182.422 277.87 189.258 285.527 189.258C293.019 189.258 298.597 182.422 298.597 171.484C298.597 160.629 293.019 153.766 285.527 153.766C277.87 153.766 272.32 160.629 272.347 171.484ZM279.073 171.484C279.046 164.102 281.644 160.055 285.527 160.055C289.3 160.055 291.843 164.102 291.87 171.484C291.843 178.895 289.3 182.941 285.527 182.914C281.644 182.941 279.046 178.895 279.073 171.484ZM351.622 154.641H328.927V188.109H332.973C342.161 188.164 348.177 187.891 355.012 186.578L354.302 180.945C348.45 182.012 343.227 182.34 335.981 182.422V160.328H351.622V154.641ZM349.161 173.18H361.684V200.141H368.63V150.266H361.684V167.492H349.161V173.18ZM128.617 230.016H94.0547V235.539H121.672C121.617 238.902 121.508 242.566 120.551 247.297H88.4766V252.875H107.672V259.027C98.7852 259.711 93.4805 263.047 93.5078 268.406C93.4805 274.586 100.207 278.059 111.172 278.031C122.055 278.059 128.754 274.586 128.781 268.406C128.754 263.047 123.449 259.684 114.617 259.027V252.875H134.031V247.297H127.578C128.645 241.992 128.645 237.672 128.617 233.953V230.016ZM100.508 268.406C100.508 265.699 104.199 264.441 111.172 264.414C118.035 264.441 121.727 265.699 121.727 268.406C121.727 271.195 118.035 272.508 111.172 272.508C104.199 272.508 100.508 271.195 100.508 268.406ZM174.216 230.508H139.653V236.086H167.27C167.216 239.586 167.079 243.441 166.013 248.391H134.075V254.023H179.63V248.391H173.04C174.243 242.676 174.243 238.383 174.216 234.5V230.508ZM139.489 277.484H174.052V259.273H139.489V277.484ZM146.325 271.906V264.742H167.106V271.906H146.325ZM218.939 228.266H212.048V278.031H218.939V253.477H226.267V247.734H218.939V228.266ZM179.4 241.281H208.658V235.703H197.666V229.031H190.666V235.703H179.4V241.281ZM181.423 255.938C181.396 262.883 186.81 267.777 194.166 267.805C201.412 267.777 206.853 262.883 206.853 255.938C206.853 248.992 201.412 244.043 194.166 244.07C186.81 244.043 181.396 248.992 181.423 255.938ZM188.095 255.938C188.095 252.109 190.638 249.758 194.166 249.703C197.638 249.758 200.181 252.109 200.181 255.938C200.181 259.793 197.638 262.09 194.166 262.062C190.638 262.09 188.095 259.793 188.095 255.938ZM264.538 228.266H257.538V278.141H264.538V252.438H271.866V246.75H264.538V228.266ZM227.241 266.055H231.452C240.229 266.082 247.01 265.891 254.748 264.578L253.983 258.727C247.366 259.875 241.405 260.258 234.186 260.312V238.492H250.592V232.859H227.241V266.055ZM296.573 232.312H272.948V256.539H296.573V252.328H305.87V264.523H312.816V228.32H305.87V236.086H296.573V232.312ZM279.675 277.156H313.855V271.578H286.73V261.078H279.675V277.156ZM279.894 251.125V237.836H289.738V251.125H279.894ZM296.573 246.805V241.719H305.87V246.805H296.573ZM325.164 260.531V261.133H332.383V260.531C332.41 256.703 333.777 254.926 336.867 253.094C340.449 250.934 342.773 248.09 342.773 243.578C342.773 236.824 337.387 232.859 329.758 232.859C322.758 232.859 317.043 236.551 316.906 244.234H324.672C324.781 241.035 327.16 239.34 329.703 239.312C332.355 239.34 334.488 241.117 334.461 243.852C334.488 246.367 332.656 248.062 330.305 249.594C327.023 251.645 325.191 253.723 325.164 260.531ZM324.344 268.898C324.289 271.441 326.367 273.492 328.938 273.492C331.371 273.492 333.477 271.441 333.477 268.898C333.477 266.383 331.371 264.332 328.938 264.359C326.367 264.332 324.289 266.383 324.344 268.898Z" fill="white"/>
<path d="M1091.07 317.849C1090.42 317.189 1089.65 316.58 1088.68 316.039L908.504 216.012C902.025 212.408 890.454 213.186 882.655 217.754L627.098 366.957C626.218 367.465 625.44 368.006 624.73 368.564L623.546 369.444C621.668 370.848 620.534 365.824 620.518 368.108V375.838V376.397C620.788 378.427 622.142 380.304 624.679 381.708L804.857 481.736C811.336 485.339 822.906 484.561 830.705 479.993L1086.25 330.773C1090.29 328.405 1092.52 325.495 1092.83 322.721V314.973" fill="#4076C8"/>
<path d="M1091.07 317.849C1090.42 317.189 1089.65 316.58 1088.68 316.039L908.504 216.012C902.025 212.408 890.454 213.186 882.655 217.754L627.098 366.957C626.218 367.465 625.44 368.006 624.73 368.564L623.546 369.444C621.668 370.848 620.534 365.824 620.518 368.108V375.838V376.397C620.788 378.427 622.142 380.304 624.679 381.708L804.857 481.736C811.336 485.339 822.906 484.561 830.705 479.993L1086.25 330.773C1090.29 328.405 1092.52 325.495 1092.83 322.721V314.973" stroke="#4076C8" stroke-width="1.42098" stroke-miterlimit="10"/>
<path d="M1091.07 309.845C1090.42 309.185 1089.65 308.576 1088.68 308.035L908.504 208.008C902.025 204.404 890.454 205.183 882.655 209.75L627.098 358.97C626.218 359.478 625.44 360.019 624.729 360.577L623.545 361.457C621.668 362.861 620.551 365.026 620.534 367.327V368.41C620.788 370.44 622.158 372.317 624.696 373.721L804.873 473.749C811.352 477.352 822.923 476.574 830.722 472.006L1086.26 322.786C1090.3 320.418 1092.54 317.508 1092.84 314.734L1092.81 314.531C1092.55 312.856 1091.96 311.266 1091.05 309.828L1091.07 309.845Z" fill="#DCEAFF" stroke="#4076C8" stroke-width="1.42098" stroke-miterlimit="10"/>
<path d="M816.613 455.954L643.389 359.784L899.487 213.93L1072.71 310.1L816.613 455.954Z" fill="#FFF9F0" stroke="#4076C8" stroke-width="1.42098" stroke-miterlimit="10"/>
<path d="M1030.2 273.797L1024.28 270.515C1031.47 266.421 1031.62 259.959 1024.65 256.085L992.58 238.272C985.593 234.398 974.107 234.567 966.934 238.661L962.959 236.445C955.685 232.402 943.742 232.588 936.265 236.851C928.787 241.114 928.618 247.83 935.892 251.873L1003.15 289.224C1010.43 293.267 1022.37 293.081 1029.85 288.818C1037.32 284.555 1037.49 277.84 1030.22 273.797H1030.2Z" fill="#4076C8" stroke="#4076C8" stroke-width="1.42098" stroke-miterlimit="10"/>
<path d="M1030.34 268.129L1024.42 264.847C1031.61 260.753 1031.76 254.291 1024.79 250.417L992.714 232.604C985.728 228.73 974.242 228.899 967.069 232.993L963.094 230.777C955.819 226.734 943.876 226.92 936.399 231.183C928.922 235.446 928.753 242.162 936.027 246.205L1003.29 283.556C1010.56 287.6 1022.5 287.413 1029.98 283.15C1037.46 278.888 1037.63 272.172 1030.35 268.129H1030.34Z" fill="#76BBFF" stroke="#4076C8" stroke-width="1.42098" stroke-miterlimit="10"/>
<path d="M857.905 285.353L852.543 286.199V67.3673L857.905 66.5215V285.353Z" fill="#A9C9F7" stroke="#4775BA" stroke-width="0.845824" stroke-miterlimit="10"/>
<path d="M852.543 286.469C852.543 286.469 852.61 286.469 852.627 286.469L857.99 285.623C858.091 285.623 858.159 285.521 858.159 285.42V66.5714C858.159 66.5714 858.125 66.4023 858.058 66.3346C857.99 66.2669 857.905 66.25 857.821 66.25L852.458 67.0958C852.357 67.0958 852.289 67.1973 852.289 67.2988V286.13C852.289 286.13 852.323 286.3 852.391 286.367C852.441 286.401 852.492 286.435 852.543 286.452V286.469ZM857.635 285.132L852.797 285.894V67.6033L857.635 66.8421V285.132Z" fill="black" stroke="#4775BA" stroke-width="0.845824" stroke-miterlimit="10"/>
<path d="M690.586 193.95L852.544 286.196V67.2964L690.586 -24.9492V193.95Z" fill="#A9C9F7" stroke="#4775BA" stroke-width="0.845824" stroke-miterlimit="10"/>
<path d="M852.544 286.468C852.544 286.468 852.645 286.468 852.696 286.468C852.763 286.434 852.797 286.367 852.797 286.282V67.3657C852.797 67.2642 852.73 67.1458 852.628 67.0951L690.67 -25.1843C690.67 -25.1843 690.501 -25.2351 690.433 -25.2013C690.365 -25.1674 690.314 -25.0998 690.314 -25.0152V193.884C690.314 193.986 690.382 194.104 690.484 194.155L852.442 286.417C852.442 286.417 852.493 286.451 852.527 286.451L852.544 286.468ZM852.29 67.4334V285.791L690.839 193.833V-24.5246L852.29 67.4334Z" fill="black" stroke="#4775BA" stroke-width="0.845824" stroke-miterlimit="10"/>
<path d="M695.932 -25.7266L857.907 66.519L852.544 67.2972L690.586 -24.9484L695.932 -25.7266Z" fill="#A9C9F7" stroke="#4775BA" stroke-width="0.845824" stroke-miterlimit="10"/>
<path d="M852.544 67.5685C852.544 67.5685 852.594 67.5685 852.628 67.5685L857.991 66.7904C858.092 66.7904 858.16 66.6889 858.16 66.5874C858.16 66.4859 858.092 66.3675 857.991 66.3167L696.015 -25.9627C696.015 -25.9627 695.897 -26.0135 695.846 -25.9965L690.484 -25.2184C690.382 -25.2184 690.314 -25.1169 690.314 -25.0154C690.314 -24.9139 690.382 -24.7955 690.484 -24.7447L852.442 67.5178C852.442 67.5178 852.493 67.5516 852.527 67.5516L852.544 67.5685ZM857.128 66.3674L852.544 67.0272L691.346 -24.7955L695.931 -25.4552L857.128 66.3674Z" fill="black" stroke="#4775BA" stroke-width="0.845824" stroke-miterlimit="10"/>
<path d="M903.089 387.067L897.186 387.998V146.447L903.089 145.5V387.067Z" fill="white" stroke="#4775BA" stroke-width="0.845824" stroke-miterlimit="10"/>
<path d="M897.187 388.287C897.187 388.287 897.254 388.287 897.288 388.287L903.192 387.357C903.31 387.34 903.378 387.255 903.378 387.12V145.569C903.378 145.485 903.327 145.383 903.26 145.315C903.192 145.248 903.091 145.214 903.006 145.231L897.102 146.161C896.984 146.178 896.916 146.263 896.916 146.398V387.949C896.916 388.033 896.967 388.135 897.034 388.202C897.085 388.253 897.136 388.27 897.204 388.287H897.187ZM902.82 386.815L897.474 387.661V146.703L902.82 145.857V386.798V386.815Z" fill="#4076C8" stroke="#4775BA" stroke-width="0.845824" stroke-miterlimit="10"/>
<path d="M718.396 286.16L897.187 387.998V146.363L718.396 44.5254V286.16Z" fill="white" stroke="#4775BA" stroke-width="0.845824" stroke-miterlimit="10"/>
<path d="M897.186 388.285C897.186 388.285 897.304 388.285 897.355 388.268C897.423 388.234 897.474 388.15 897.474 388.065V146.43C897.474 146.312 897.406 146.193 897.287 146.126L718.497 44.2885C718.413 44.2378 718.311 44.2378 718.243 44.2716C718.159 44.3055 718.125 44.39 718.125 44.4746V286.11C718.125 286.228 718.193 286.347 718.311 286.414L897.084 388.251C897.084 388.251 897.152 388.285 897.186 388.285ZM896.898 146.515V387.541L718.683 286.025V44.999L896.898 146.515Z" fill="#4076C8" stroke="#4775BA" stroke-width="0.845824" stroke-miterlimit="10"/>
<path d="M724.317 43.6641L903.091 145.501L897.187 146.364L718.396 44.5268L724.317 43.6641Z" fill="white" stroke="#4775BA" stroke-width="0.845824" stroke-miterlimit="10"/>
<path d="M897.187 146.652C897.187 146.652 897.254 146.652 897.288 146.652L903.192 145.79C903.31 145.79 903.378 145.688 903.378 145.57C903.378 145.451 903.31 145.333 903.192 145.265L724.419 43.4279C724.419 43.4279 724.283 43.3772 724.233 43.3941L718.329 44.2568C718.21 44.2568 718.143 44.3583 718.143 44.4767C718.143 44.5951 718.21 44.7136 718.329 44.7812L897.102 146.618C897.102 146.618 897.17 146.652 897.204 146.652H897.187ZM902.245 145.333L897.187 146.077L719.242 44.7136L724.3 43.9692L902.245 145.333Z" fill="#4076C8" stroke="#4775BA" stroke-width="0.845824" stroke-miterlimit="10"/>
<path d="M829.857 225.45L879.846 253.836V202.765L829.857 174.379V225.45Z" fill="#FF8D4D" stroke="#4775BA" stroke-width="0.845824" stroke-miterlimit="10"/>
<path d="M879.845 254.123C879.845 254.123 879.964 254.123 880.015 254.106C880.082 254.072 880.133 253.988 880.133 253.903V202.832C880.133 202.714 880.065 202.596 879.947 202.528L829.976 174.142C829.891 174.091 829.79 174.091 829.722 174.125C829.654 174.159 829.604 174.244 829.604 174.328V225.399C829.604 225.517 829.671 225.636 829.79 225.703L879.761 254.089C879.761 254.089 879.829 254.123 879.862 254.123H879.845ZM879.558 202.9V253.362L830.145 225.298V174.836L879.558 202.9Z" fill="#4076C8" stroke="#4775BA" stroke-width="0.845824" stroke-miterlimit="10"/>
<path d="M736.377 102.82L880.319 184.595V162.011L736.377 80.2539V102.82Z" fill="#A6CAFF" stroke="#4775BA" stroke-width="0.845824" stroke-miterlimit="10"/>
<path d="M880.32 184.867C880.32 184.867 880.439 184.867 880.49 184.85C880.557 184.817 880.608 184.732 880.608 184.647V162.081C880.608 161.962 880.54 161.844 880.422 161.776L736.48 80.019C736.395 79.9683 736.294 79.9683 736.226 80.0021C736.158 80.0359 736.107 80.1205 736.107 80.2051V102.772C736.107 102.89 736.175 103.009 736.294 103.076L880.236 184.834C880.236 184.834 880.304 184.867 880.337 184.867H880.32ZM880.033 162.149V184.123L736.666 102.687V80.7126L880.033 162.149Z" fill="#4076C8" stroke="#4775BA" stroke-width="0.845824" stroke-miterlimit="10"/>
<path d="M736.379 213.067L880.321 294.824V275.015L736.379 193.258V213.067Z" fill="#E9F4FF" stroke="#4775BA" stroke-width="0.845824" stroke-miterlimit="10"/>
<path d="M880.32 295.112C880.32 295.112 880.439 295.112 880.49 295.095C880.557 295.061 880.608 294.977 880.608 294.892V275.083C880.608 274.964 880.54 274.846 880.422 274.778L736.48 193.021C736.395 192.97 736.294 192.97 736.226 193.004C736.158 193.038 736.107 193.122 736.107 193.207V213.016C736.107 213.135 736.175 213.253 736.294 213.321L880.236 295.078C880.236 295.078 880.304 295.112 880.337 295.112H880.32ZM880.033 275.167V294.368L736.666 212.932V193.731L880.033 275.167Z" fill="#4076C8" stroke="#4775BA" stroke-width="0.845824" stroke-miterlimit="10"/>
<path d="M799.46 158.003C799.578 158.02 799.68 157.969 799.73 157.868C799.781 157.732 799.713 157.546 799.561 157.462L736.801 121.819C736.649 121.734 736.496 121.785 736.429 121.92C736.378 122.056 736.446 122.242 736.598 122.326L799.358 157.969C799.358 157.969 799.426 158.003 799.46 158.003Z" fill="#4076C8" stroke="#4775BA" stroke-width="0.845824" stroke-miterlimit="10"/>
<path d="M799.46 197.655C799.578 197.672 799.68 197.622 799.73 197.52C799.781 197.385 799.713 197.199 799.561 197.114L736.801 161.471C736.649 161.386 736.496 161.437 736.429 161.573C736.378 161.708 736.446 161.894 736.598 161.979L799.358 197.622C799.358 197.622 799.426 197.655 799.46 197.655Z" fill="#4076C8" stroke="#4775BA" stroke-width="0.845824" stroke-miterlimit="10"/>
<path d="M799.46 184.425C799.578 184.442 799.68 184.391 799.73 184.29C799.781 184.154 799.713 183.968 799.561 183.884L736.801 148.241C736.649 148.156 736.496 148.207 736.429 148.342C736.378 148.477 736.446 148.663 736.598 148.748L799.358 184.391C799.358 184.391 799.426 184.425 799.46 184.425Z" fill="#4076C8" stroke="#4775BA" stroke-width="0.845824" stroke-miterlimit="10"/>
<path d="M799.459 208.87C799.578 208.886 799.679 208.836 799.73 208.734C799.781 208.599 799.713 208.413 799.561 208.328L747.779 178.91C747.627 178.826 747.475 178.877 747.407 179.012C747.357 179.147 747.424 179.333 747.576 179.418L799.358 208.836C799.358 208.836 799.425 208.87 799.459 208.87Z" fill="#4076C8" stroke="#4775BA" stroke-width="0.845824" stroke-miterlimit="10"/>
<path d="M799.459 171.214C799.577 171.231 799.679 171.18 799.729 171.079C799.78 170.943 799.712 170.757 799.56 170.673L767.588 152.504C767.436 152.42 767.284 152.47 767.216 152.606C767.165 152.741 767.233 152.927 767.385 153.012L799.357 171.18C799.357 171.18 799.425 171.214 799.459 171.214Z" fill="#4076C8" stroke="#4775BA" stroke-width="0.845824" stroke-miterlimit="10"/>
<path d="M762.074 149.984C762.193 150.001 762.294 149.95 762.345 149.848C762.396 149.713 762.328 149.527 762.176 149.442L736.801 135.03C736.649 134.945 736.496 134.996 736.429 135.131C736.378 135.266 736.446 135.453 736.598 135.537L761.973 149.95C761.973 149.95 762.04 149.984 762.074 149.984Z" fill="#4076C8" stroke="#4775BA" stroke-width="0.845824" stroke-miterlimit="10"/>
<path d="M799.46 291.2C799.578 291.217 799.68 291.166 799.73 291.065C799.781 290.93 799.713 290.744 799.561 290.659L736.801 255.016C736.649 254.931 736.496 254.982 736.429 255.117C736.378 255.253 736.446 255.439 736.598 255.523L799.358 291.167C799.358 291.167 799.426 291.2 799.46 291.2Z" fill="#4076C8" stroke="#4775BA" stroke-width="0.845824" stroke-miterlimit="10"/>
<path d="M799.46 264.78C799.578 264.797 799.68 264.746 799.73 264.645C799.781 264.51 799.714 264.324 799.561 264.239L754.733 238.78C754.58 238.695 754.428 238.746 754.36 238.881C754.31 239.016 754.377 239.203 754.53 239.287L799.358 264.746C799.358 264.746 799.426 264.78 799.46 264.78Z" fill="#4076C8" stroke="#4775BA" stroke-width="0.845824" stroke-miterlimit="10"/>
<path d="M749.218 236.24C749.336 236.257 749.438 236.206 749.488 236.104C749.539 235.969 749.471 235.783 749.319 235.698L736.801 228.577C736.649 228.492 736.496 228.543 736.429 228.678C736.378 228.813 736.446 228.999 736.598 229.084L749.116 236.206C749.116 236.206 749.184 236.24 749.218 236.24Z" fill="#4076C8" stroke="#4775BA" stroke-width="0.845824" stroke-miterlimit="10"/>
<path d="M779.836 266.841C779.955 266.858 780.056 266.808 780.107 266.706C780.158 266.571 780.09 266.385 779.938 266.3L736.801 241.805C736.649 241.72 736.496 241.771 736.429 241.907C736.378 242.042 736.446 242.228 736.598 242.313L779.735 266.808C779.735 266.808 779.803 266.841 779.836 266.841Z" fill="#4076C8" stroke="#4775BA" stroke-width="0.845824" stroke-miterlimit="10"/>
<path d="M799.459 277.989C799.578 278.006 799.679 277.955 799.73 277.854C799.781 277.718 799.713 277.532 799.561 277.448L785.334 269.362C785.182 269.277 785.03 269.328 784.962 269.463C784.911 269.598 784.979 269.785 785.131 269.869L799.358 277.955C799.358 277.955 799.426 277.989 799.459 277.989Z" fill="#4076C8" stroke="#4775BA" stroke-width="0.845824" stroke-miterlimit="10"/>
<path d="M799.459 304.412C799.577 304.429 799.679 304.378 799.73 304.276C799.78 304.141 799.713 303.955 799.56 303.87L749.319 275.332C749.166 275.248 749.014 275.299 748.946 275.434C748.896 275.569 748.963 275.755 749.116 275.84L799.357 304.378C799.357 304.378 799.425 304.412 799.459 304.412Z" fill="#4076C8" stroke="#4775BA" stroke-width="0.845824" stroke-miterlimit="10"/>
<path d="M876.919 310.032C877.037 310.049 877.138 309.999 877.189 309.897C877.24 309.762 877.172 309.576 877.02 309.491L814.26 273.848C814.108 273.763 813.955 273.814 813.888 273.949C813.837 274.085 813.905 274.271 814.057 274.355L876.817 309.999C876.817 309.999 876.885 310.032 876.919 310.032Z" fill="#4076C8" stroke="#4775BA" stroke-width="0.845824" stroke-miterlimit="10"/>
<path d="M876.919 349.685C877.037 349.702 877.138 349.651 877.189 349.549C877.24 349.414 877.172 349.228 877.02 349.143L814.26 313.5C814.108 313.416 813.955 313.466 813.888 313.602C813.837 313.737 813.905 313.923 814.057 314.008L876.817 349.651C876.817 349.651 876.885 349.685 876.919 349.685Z" fill="#4076C8" stroke="#4775BA" stroke-width="0.845824" stroke-miterlimit="10"/>
<path d="M839.551 302.013C839.669 302.03 839.771 301.979 839.821 301.878C839.872 301.742 839.804 301.556 839.652 301.472L814.277 287.059C814.125 286.974 813.973 287.025 813.905 287.16C813.855 287.296 813.922 287.482 814.074 287.566L839.449 301.979C839.449 301.979 839.517 302.013 839.551 302.013Z" fill="#4076C8" stroke="#4775BA" stroke-width="0.845824" stroke-miterlimit="10"/>
<path d="M858.936 326.254C859.055 326.271 859.156 326.22 859.207 326.119C859.258 325.984 859.19 325.798 859.038 325.713L814.26 300.287C814.108 300.203 813.955 300.254 813.888 300.389C813.837 300.524 813.905 300.71 814.057 300.795L858.835 326.22C858.835 326.22 858.903 326.254 858.936 326.254Z" fill="#4076C8" stroke="#4775BA" stroke-width="0.845824" stroke-miterlimit="10"/>
<path d="M876.918 336.472C877.037 336.488 877.138 336.438 877.189 336.336C877.24 336.201 877.172 336.015 877.02 335.93L864.637 328.893C864.485 328.808 864.332 328.859 864.265 328.994C864.214 329.13 864.282 329.316 864.434 329.4L876.817 336.438C876.817 336.438 876.884 336.472 876.918 336.472Z" fill="#4076C8" stroke="#4775BA" stroke-width="0.845824" stroke-miterlimit="10"/>
<path d="M876.918 323.262C877.036 323.279 877.138 323.228 877.189 323.126C877.239 322.991 877.172 322.805 877.02 322.72L857.041 311.369C856.889 311.285 856.737 311.336 856.669 311.471C856.618 311.606 856.686 311.792 856.838 311.877L876.817 323.228C876.817 323.228 876.884 323.262 876.918 323.262Z" fill="#4076C8" stroke="#4775BA" stroke-width="0.845824" stroke-miterlimit="10"/>
<path d="M851.543 308.833C851.661 308.85 851.763 308.799 851.814 308.698C851.864 308.562 851.797 308.376 851.644 308.292L845.047 304.553C844.895 304.468 844.743 304.519 844.675 304.655C844.624 304.79 844.692 304.976 844.844 305.061L851.441 308.799C851.441 308.799 851.509 308.833 851.543 308.833Z" fill="#4076C8" stroke="#4775BA" stroke-width="0.845824" stroke-miterlimit="10"/>
<path fill-rule="evenodd" clip-rule="evenodd" d="M943.657 199.956V199.99L926.689 191.515C923.458 189.908 921.395 185.983 921.395 180.418V97.8485C921.395 88.1384 927.704 77.1089 935.469 73.2181L1004.71 38.59C1008.02 36.9322 1011.09 36.8476 1013.49 38.0487L1031.32 46.9637C1028.88 45.6442 1025.74 45.678 1022.3 47.3866L953.062 82.0146C945.298 85.9054 938.988 96.935 938.988 106.645V189.214C938.988 194.408 940.798 198.18 943.657 199.973V199.956Z" fill="white"/>
<path fill-rule="evenodd" clip-rule="evenodd" d="M1009.97 36.5938C1011.24 36.5938 1012.52 36.8644 1013.66 37.4227C1013.71 37.4565 1013.78 37.4903 1013.78 37.4903C1019.65 40.4169 1025.52 43.3434 1031.37 46.2869L1031.59 46.4053L1031.79 46.5576L1031.91 46.7775V47.0312L1031.84 47.285L1031.67 47.471C1031.45 47.5895 1031.22 47.6064 1030.98 47.5387C1030.64 47.4203 1030.1 47.1158 1029.59 46.9636C1027.29 46.3038 1024.74 46.879 1022.59 47.9447C999.447 59.4818 976.288 70.968 953.214 82.6235C948.782 84.8903 945.416 89.001 943.047 93.4839C940.933 97.5269 939.596 102.01 939.58 106.577C939.546 134.151 939.461 161.742 939.58 189.316C939.596 193.088 940.544 197.064 943.673 199.229C943.758 199.296 943.859 199.347 943.944 199.415L944.13 199.584C944.13 199.584 944.215 199.719 944.232 199.804C944.282 200.024 944.232 200.075 944.164 200.278C944.164 200.278 943.876 200.65 943.538 200.633C943.453 200.633 943.386 200.582 943.301 200.565C937.651 197.74 931.883 195.118 926.351 192.09C924.981 191.346 923.746 190.28 922.832 188.842C921.259 186.372 920.718 183.378 920.718 180.502C920.684 152.911 920.616 125.338 920.718 97.7468C920.768 90.3205 923.966 82.9618 928.888 77.5486C930.665 75.5862 932.745 73.8777 935.08 72.6935C958.188 61.0888 981.279 49.4841 1004.45 38.0147C1006.13 37.1858 1007.97 36.6445 1009.83 36.6276C1009.85 36.6276 1009.88 36.6276 1009.9 36.6276L1009.97 36.5938ZM1009.9 37.8794C1008.21 37.8794 1006.55 38.4038 1005.05 39.1481C981.905 50.6852 958.746 62.1546 935.672 73.8269C931.307 76.0599 927.975 80.0691 925.623 84.4843C923.441 88.5781 922.054 93.1456 922.037 97.7807C922.003 125.338 922.003 152.911 922.037 180.468C922.054 184.393 923.001 188.622 926.571 190.703C926.74 190.804 926.977 190.923 926.977 190.923L940.527 197.689C938.903 195.203 938.362 192.192 938.345 189.248C938.311 161.674 938.243 134.083 938.345 106.51C938.395 99.2862 941.423 92.0967 946.211 86.6665C948.055 84.5689 950.22 82.725 952.724 81.4563C975.832 69.8516 998.923 58.2299 1022.1 46.7606C1023.57 46.0331 1025.14 45.5257 1026.77 45.4072H1026.78C1022.23 43.1404 1017.7 40.8398 1013.15 38.5899C1012.13 38.0993 1011.02 37.8625 1009.88 37.8625L1009.9 37.8794Z" fill="#4076C8"/>
<path fill-rule="evenodd" clip-rule="evenodd" d="M976.594 187.979L953.063 199.753C945.298 203.643 938.988 198.907 938.988 189.197V106.627C938.988 96.9174 945.298 85.8879 953.063 81.9971L1022.3 47.369C1030.07 43.4782 1036.38 48.2149 1036.38 57.9249V140.494C1036.38 150.204 1030.07 161.234 1022.3 165.125L1003.29 174.632L989.941 207.991L976.594 187.979Z" fill="#AEC9FF"/>
<path fill-rule="evenodd" clip-rule="evenodd" d="M1027.58 45.3919C1030.37 45.4258 1033.03 46.796 1034.7 49.2489C1036.41 51.7356 1036.98 54.8482 1037 57.8255C1037.09 85.4332 1037.09 113.024 1037 140.632C1036.95 148.075 1033.74 155.451 1028.78 160.864C1027 162.809 1024.96 164.501 1022.62 165.685H1022.57L1003.76 175.108L990.497 208.247L990.345 208.467L990.108 208.602L989.838 208.636L989.584 208.551L989.381 208.365L976.355 188.81C968.641 192.667 960.961 196.558 953.23 200.364C950.405 201.751 947.056 202.275 944.214 200.973C940.543 199.298 938.716 194.832 938.395 190.941C938.344 190.383 938.327 189.808 938.327 189.233C938.293 161.659 938.226 134.068 938.327 106.494C938.378 99.2709 941.406 92.0814 946.193 86.6512C948.037 84.5536 950.202 82.7097 952.706 81.4409C975.814 69.8362 998.922 58.2146 1022.1 46.7452C1023.77 45.9163 1025.6 45.375 1027.48 45.375H1027.56L1027.58 45.3919ZM976.964 187.473L977.117 187.643L989.787 206.657L1002.68 174.431L1002.8 174.228L1002.98 174.093C1009.34 170.912 1015.74 167.749 1022.08 164.535C1026.55 162.251 1029.93 158.106 1032.3 153.556C1034.38 149.564 1035.68 145.115 1035.72 140.632C1035.8 113.041 1035.8 85.4332 1035.72 57.8425C1035.7 54.0701 1034.75 50.0778 1031.6 47.9125C1030.05 46.8467 1028.05 46.4915 1026.16 46.7791C1024.94 46.9652 1023.77 47.3881 1022.67 47.9125C999.48 59.3818 976.338 70.9527 953.247 82.6251C948.815 84.8919 945.449 89.0026 943.081 93.4855C940.966 97.5285 939.63 102.011 939.613 106.579C939.579 134.153 939.511 161.727 939.613 189.317C939.63 193.09 940.56 197.099 943.757 199.264C945.33 200.33 947.327 200.668 949.221 200.364C950.456 200.178 951.64 199.738 952.757 199.18L976.288 187.406C976.508 187.338 976.508 187.338 976.744 187.355C976.812 187.389 976.88 187.423 976.947 187.457L976.964 187.473Z" fill="#4076C8"/>
<path fill-rule="evenodd" clip-rule="evenodd" d="M967.797 192.379L976.593 187.98L989.941 208.01L972.347 199.213L967.797 192.379Z" fill="white"/>
<path fill-rule="evenodd" clip-rule="evenodd" d="M976.66 187.353C976.965 187.404 976.965 187.421 977.134 187.64L990.481 207.653C990.769 208.143 990.227 208.82 989.669 208.583L972.076 199.786C972.076 199.786 971.958 199.736 971.822 199.567L967.272 192.732C967.086 192.411 967.187 192.005 967.526 191.802L976.322 187.404C976.457 187.353 976.491 187.336 976.66 187.336V187.353ZM968.744 192.631L972.803 198.721L988.079 206.367L976.39 188.825C973.835 190.093 971.298 191.379 968.744 192.648V192.631Z" fill="#4076C8"/>
<path fill-rule="evenodd" clip-rule="evenodd" d="M1033.75 63.4921C1035.18 60.4302 1037.41 57.8081 1039.89 56.5563C1044.19 54.4079 1047.68 57.1484 1047.68 62.6801C1047.68 64.9976 1047.07 67.4336 1046.04 69.6497C1045.76 70.2417 1045.44 70.8338 1045.11 71.392L997.232 161.591C995.811 164.534 993.645 167.038 991.226 168.239C988.959 169.372 986.929 169.152 985.508 167.867H985.475L961.91 146.535C961.622 146.332 961.352 146.095 961.115 145.808C960.083 144.624 959.457 142.797 959.457 140.462C959.457 134.93 962.942 128.705 967.239 126.557C969.438 125.457 971.417 125.643 972.838 126.81C972.939 126.895 973.024 126.963 973.109 127.064L991.277 143.456L1033.74 63.509L1033.75 63.4921Z" fill="white"/>
<path fill-rule="evenodd" clip-rule="evenodd" d="M985.101 168.322C977.235 161.234 969.386 154.112 961.537 147.007C961.537 147.007 961.046 146.635 960.657 146.212C960.657 146.212 960.42 145.941 960.623 146.178C959.202 144.537 958.779 142.135 958.83 140.105C958.966 134.455 962.027 128.551 966.798 126.048C968.76 125.016 971.315 124.711 973.26 126.301C973.26 126.301 973.345 126.386 973.277 126.318C973.26 126.301 973.564 126.572 973.564 126.572L991.107 142.406L1033.18 63.1858C1034.53 60.31 1036.51 57.6372 1039.32 56.1148C1040.88 55.2689 1042.75 54.8291 1044.51 55.4888C1047.18 56.5038 1048.42 59.8025 1048.32 63.1182C1048.23 65.4527 1047.61 67.7702 1046.63 69.9017L1046.59 69.9694V69.9355C1046.34 70.5276 1046.03 71.0858 1045.71 71.6441V71.6779L997.84 161.843C996.452 164.685 994.456 167.307 991.58 168.762C989.567 169.777 986.996 169.98 985.118 168.322H985.101ZM991.716 143.928C991.445 144.08 991.158 144.097 990.87 143.928L972.702 127.536C972.076 126.927 971.247 126.538 970.367 126.487C968.185 126.335 966.24 127.739 964.785 129.228C961.452 132.645 959.473 137.652 960.268 142.304C960.471 143.438 960.86 144.537 961.621 145.4C961.621 145.4 961.858 145.671 961.638 145.417C961.909 145.721 962.366 146.06 962.366 146.06C970.232 153.165 978.081 160.286 985.964 167.391C986.133 167.544 986.184 167.577 986.286 167.662C987.893 168.812 990.295 168.186 991.851 167.155C992.088 167.002 992.325 166.816 992.562 166.647C994.338 165.243 995.691 163.348 996.689 161.301L1044.56 71.0858C1046.51 67.8379 1047.62 63.8963 1046.8 60.3608C1046.36 58.4661 1045.07 56.6222 1042.97 56.5038C1041.04 56.3854 1039.27 57.5188 1037.93 58.7537C1036.39 60.1578 1035.23 61.9171 1034.35 63.7948V63.8287L991.868 143.776C991.817 143.844 991.767 143.894 991.733 143.962L991.716 143.928Z" fill="#4076C8"/>
<path fill-rule="evenodd" clip-rule="evenodd" d="M986.472 168.492L979.147 164.821C978.809 164.652 978.487 164.432 978.2 164.178H978.166L954.601 142.847C954.314 142.644 954.043 142.407 953.806 142.119C952.774 140.935 952.148 139.108 952.148 136.774C952.148 131.242 955.633 125.017 959.93 122.868C961.791 121.938 963.499 121.921 964.836 122.648L971.772 126.116C970.503 125.592 968.947 125.676 967.272 126.522C962.975 128.671 959.49 134.896 959.49 140.428C959.49 142.762 960.116 144.589 961.148 145.773C961.385 146.044 961.656 146.298 961.943 146.501L985.508 167.798H985.542V167.832C985.829 168.103 986.151 168.306 986.489 168.475L986.472 168.492ZM985.017 137.789L1026.41 59.8205C1027.83 56.7586 1030.07 54.1365 1032.55 52.8847C1034.35 51.9881 1036 51.9374 1037.32 52.5971L1044.65 56.268C1043.33 55.6083 1041.67 55.659 1039.88 56.5556C1037.37 57.8074 1035.16 60.4295 1033.74 63.4914L991.276 143.439L985 137.789H985.017Z" fill="#4076C8"/>
<path fill-rule="evenodd" clip-rule="evenodd" d="M962.806 121.516C963.618 121.516 964.413 121.719 965.124 122.108L972.042 125.575C972.212 125.694 972.212 125.694 972.33 125.863L972.398 126.117L972.364 126.371L972.228 126.59L972.025 126.743L971.772 126.793L971.518 126.743C969.792 126.032 967.762 126.844 966.342 127.859C963.178 130.126 961.148 133.848 960.387 137.705C959.863 140.377 959.862 143.389 961.605 145.385C961.605 145.385 961.842 145.655 961.622 145.402C961.892 145.706 962.349 146.044 962.349 146.044C970.198 153.149 978.065 160.237 985.914 167.342C986.168 167.579 986.421 167.748 986.692 167.901L986.929 168.07C987.047 168.273 987.047 168.273 987.098 168.493L987.047 168.746L986.895 168.966L986.675 169.102L986.421 169.135L986.168 169.068C983.732 167.85 981.279 166.632 978.843 165.397C978.707 165.329 978.707 165.329 978.657 165.295C978.335 165.109 978.031 164.889 977.743 164.653C969.826 157.615 962.028 150.443 954.179 143.355C954.179 143.355 953.383 142.729 952.944 142.103C951.675 140.31 951.387 138.009 951.523 135.911C951.844 130.887 954.365 125.863 958.374 123.072C959.643 122.192 961.131 121.549 962.671 121.516C962.721 121.516 962.755 121.516 962.806 121.516ZM962.721 122.801C959.947 122.818 957.511 125.068 955.786 127.572C953.603 130.752 952.318 134.727 952.893 138.449C953.079 139.633 953.485 140.817 954.263 141.714C954.263 141.714 954.568 142.052 954.923 142.323L955.024 142.407C962.891 149.512 970.791 156.583 978.623 163.739C978.877 163.959 979.147 164.145 979.435 164.297L982.057 165.6L961.537 147.043C961.216 146.806 960.928 146.535 960.658 146.247C960.658 146.247 960.421 145.977 960.624 146.214C959.254 144.64 958.814 142.323 958.831 140.344C958.881 135.387 961.25 130.346 965.005 127.301C966.105 126.404 967.357 125.694 968.727 125.372L964.531 123.275C963.973 122.97 963.364 122.835 962.738 122.835L962.721 122.801ZM991.716 143.93C991.446 144.082 991.158 144.099 990.87 143.93L984.594 138.28L984.425 138.043L984.374 137.772L984.442 137.502L1025.84 59.5504C1025.84 59.5504 1025.87 59.4659 1025.9 59.4151C1027.38 56.3363 1029.61 53.4943 1032.64 52.1579C1034.14 51.4982 1035.9 51.2783 1037.44 51.955C1037.48 51.955 1037.51 51.9888 1037.54 52.0057C1037.58 52.0226 1037.61 52.0395 1037.61 52.0395L1044.94 55.7104L1045.12 55.8457C1045.24 56.0487 1045.24 56.0487 1045.29 56.2687L1045.24 56.5224L1045.09 56.7423L1044.87 56.8776L1044.61 56.9115C1044.06 56.7592 1043.51 56.4886 1042.85 56.4716C1040.77 56.3871 1038.91 57.6896 1037.51 59.0937C1036.17 60.4301 1035.11 62.0541 1034.31 63.7627V63.7965L991.835 143.744C991.784 143.811 991.733 143.862 991.699 143.93H991.716ZM1035.36 52.8008C1033.2 52.8177 1031.25 54.2725 1029.81 55.8457C1028.66 57.0976 1027.73 58.5693 1027 60.1256L985.829 137.654L991.124 142.424L1033.2 63.2044C1034.58 60.2271 1036.68 57.4697 1039.59 55.998C1040.15 55.7104 1040.74 55.4905 1041.37 55.3382H1041.38C1039.93 54.6108 1038.49 53.8834 1037.04 53.156C1036.53 52.9023 1035.94 52.7839 1035.36 52.7839V52.8008Z" fill="#4076C8"/>
</g>
</g>
<defs>
<clipPath id="clip0_33_1026">
<rect width="1200" height="427" fill="white"/>
</clipPath>
<clipPath id="clip1_33_1026">
<rect width="1200" height="427" fill="white"/>
</clipPath>
</defs>
</svg>
