<svg width="228" height="84" viewBox="0 0 228 84" fill="none" xmlns="http://www.w3.org/2000/svg">
<path d="M164.467 16.2969C162.585 16.2969 161.072 17.8095 161.072 19.6918V34.2129H156.534V19.6918C156.534 17.8095 155.021 16.2969 153.139 16.2969C151.257 16.2969 149.744 17.8095 149.744 19.6918V65.5743C149.744 67.4567 151.257 68.9693 153.139 68.9693C155.021 68.9693 156.534 67.4567 156.534 65.5743V41.0028H161.072V65.5743C161.072 67.4567 162.585 68.9693 164.467 68.9693C166.349 68.9693 167.862 67.4567 167.862 65.5743V19.6918C167.862 17.8095 166.349 16.2969 164.467 16.2969Z" fill="white"/>
<path d="M224.299 16.2969C222.417 16.2969 220.904 17.8095 220.904 19.6918V65.5743C220.904 67.4567 222.417 68.9693 224.299 68.9693C226.182 68.9693 227.694 67.4567 227.694 65.5743V19.6918C227.694 17.8095 226.182 16.2969 224.299 16.2969Z" fill="white"/>
<path d="M141.777 17.4727C139.895 17.4727 138.382 18.9853 138.382 20.8676V34.1786H131.122V20.8676C131.122 18.9853 129.609 17.4727 127.727 17.4727C125.844 17.4727 124.332 18.9853 124.332 20.8676V34.1786H117.071V20.8676C117.071 18.9853 115.559 17.4727 113.676 17.4727C111.794 17.4727 110.281 18.9853 110.281 20.8676V51.8257C110.281 56.1954 113.038 60.1282 117.138 61.6072L117.306 61.6745C119.525 62.4476 121.878 62.4476 124.13 61.6745L124.332 61.6072C125.542 61.1702 126.651 60.498 127.626 59.624L127.727 59.5232L127.828 59.624C128.87 60.5316 130.046 61.2375 131.323 61.6745C132.433 62.0442 133.575 62.2459 134.718 62.2459C135.861 62.2459 137.004 62.0442 138.113 61.6745C142.315 60.2291 145.138 56.2627 145.138 51.8257V20.8676C145.138 18.9853 143.626 17.4727 141.744 17.4727H141.777ZM132.231 54.4475C131.491 53.7417 131.088 52.8341 131.088 51.8257V41.0021H138.349V51.624C138.349 53.6408 136.802 55.3551 134.92 55.4559C133.912 55.5232 132.937 55.1534 132.231 54.4812V54.4475ZM124.298 40.9685V51.7921C124.298 52.8005 123.895 53.7417 123.155 54.4139C122.483 55.0526 121.575 55.4223 120.668 55.4223C120.601 55.4223 120.533 55.4223 120.466 55.4223C118.584 55.3215 117.038 53.6072 117.038 51.5904V40.9685H124.298Z" fill="white"/>
<path d="M179.526 22.1129C179.526 23.928 181.005 25.407 182.82 25.407H201.711V32.6675C201.711 36.7348 201.005 40.197 199.66 42.9197C198.249 45.7096 196.434 48.0289 194.081 50.0121C191.862 51.8273 189.207 53.239 186.215 54.2138C184.4 54.8189 182.518 55.2894 180.602 55.6256C179.022 55.8945 177.879 57.2726 177.879 58.8861C177.879 60.9365 179.728 62.4827 181.778 62.1466C185.274 61.5416 188.333 60.6676 191.089 59.4575C195.022 57.8105 198.316 55.6256 201.139 52.7684C203.761 50.1466 205.778 47.0541 207.224 43.323C208.602 39.7264 209.308 35.76 209.308 31.4911V23.0205C209.308 20.7011 207.392 18.7852 205.072 18.7852H182.854C181.039 18.7852 179.56 20.2642 179.56 22.0793L179.526 22.1129Z" fill="white"/>
<rect x="0.636719" y="0.574219" width="83.4251" height="83.4251" rx="18.2492" fill="white"/>
<g clip-path="url(#clip0_33_728)">
<path d="M60.6917 28.6016H24.2625C16.6854 28.6016 10.543 34.744 10.543 42.3211V42.3219C10.543 49.899 16.6854 56.0414 24.2625 56.0414H60.6917C68.2688 56.0414 74.4112 49.899 74.4112 42.3219V42.3211C74.4112 34.744 68.2688 28.6016 60.6917 28.6016Z" fill="#2100FF"/>
<path d="M37.6065 28.6016H24.2617C26.0634 28.6015 27.8475 28.9562 29.5121 29.6457C31.1767 30.3351 32.6891 31.3457 33.9631 32.6197C35.2371 33.8937 36.2477 35.4061 36.9371 37.0707C37.6266 38.7353 37.9813 40.5194 37.9812 42.3211C37.9813 44.1228 37.6266 45.9069 36.9371 47.5714C36.2477 49.236 35.2371 50.7485 33.9631 52.0225C32.6891 53.2965 31.1767 54.3071 29.5121 54.9965C27.8475 55.6859 26.0634 56.0407 24.2617 56.0406H37.6065C39.4082 56.0407 41.1923 55.6859 42.857 54.9965C44.5216 54.3071 46.0341 53.2965 47.3082 52.0225C48.5822 50.7486 49.5929 49.2361 50.2824 47.5715C50.9719 45.9069 51.3268 44.1228 51.3268 42.3211C51.3268 40.5193 50.9719 38.7352 50.2824 37.0707C49.5929 35.4061 48.5822 33.8936 47.3082 32.6196C46.0341 31.3456 44.5216 30.3351 42.857 29.6457C41.1923 28.9562 39.4082 28.6015 37.6065 28.6016Z" fill="#1E3FFF"/>
<path d="M24.2633 28.6016H24.2625C16.6854 28.6016 10.543 34.744 10.543 42.3211V42.3219C10.543 49.899 16.6854 56.0414 24.2625 56.0414H24.2633C31.8404 56.0414 37.9828 49.899 37.9828 42.3219V42.3211C37.9828 34.744 31.8404 28.6016 24.2633 28.6016Z" fill="#3178FF"/>
</g>
<defs>
<clipPath id="clip0_33_728">
<rect width="63.8683" height="27.4399" fill="white" transform="translate(10.543 28.6016)"/>
</clipPath>
</defs>
</svg>
