<svg width="247" height="52" viewBox="0 0 247 52" fill="none" xmlns="http://www.w3.org/2000/svg">
<path d="M89.5059 0.292969H25.8555C11.7798 0.292969 0.369141 11.6305 0.369141 25.616C0.369141 39.6015 11.7798 50.939 25.8555 50.939H89.5059C103.582 50.939 114.992 39.6015 114.992 25.616C114.992 11.6305 103.582 0.292969 89.5059 0.292969Z" fill="#131FFF"/>
<path d="M50.6212 0.292969H25.8228C39.9091 0.292969 51.3419 11.62 51.3419 25.5834C51.3419 39.5794 39.9418 50.9064 25.8555 50.9064H50.6539C64.7402 50.9064 76.1403 39.5794 76.1403 25.5834C76.1076 11.62 64.7075 0.292969 50.6212 0.292969Z" fill="#1F47FF"/>
<path d="M51.3419 25.616C51.3419 11.6305 39.9312 0.292969 25.8555 0.292969C11.7798 0.292969 0.369141 11.6305 0.369141 25.616C0.369141 39.6015 11.7798 50.939 25.8555 50.939C39.9312 50.939 51.3419 39.6015 51.3419 25.616Z" fill="#417AFF"/>
<path d="M185.13 0.0976562C183.295 0.0976562 181.821 1.56235 181.821 3.38509V17.4462H177.399V3.38509C177.399 1.56235 175.924 0.0976562 174.09 0.0976562C172.255 0.0976562 170.781 1.56235 170.781 3.38509V47.8143C170.781 49.637 172.255 51.1017 174.09 51.1017C175.924 51.1017 177.399 49.637 177.399 47.8143V24.0211H181.821V47.8143C181.821 49.637 183.295 51.1017 185.13 51.1017C186.964 51.1017 188.438 49.637 188.438 47.8143V3.38509C188.438 1.56235 186.964 0.0976562 185.13 0.0976562Z" fill="white"/>
<path d="M243.441 0.0976562C241.607 0.0976562 240.133 1.56235 240.133 3.38509V47.8143C240.133 49.637 241.607 51.1017 243.441 51.1017C245.276 51.1017 246.75 49.637 246.75 47.8143V3.38509C246.75 1.56235 245.276 0.0976562 243.441 0.0976562Z" fill="white"/>
<path d="M163.017 1.2373C161.183 1.2373 159.709 2.702 159.709 4.52474V17.4141H152.633V4.52474C152.633 2.702 151.159 1.2373 149.324 1.2373C147.49 1.2373 146.015 2.702 146.015 4.52474V17.4141H138.94V4.52474C138.94 2.702 137.465 1.2373 135.631 1.2373C133.796 1.2373 132.322 2.702 132.322 4.52474V34.5022C132.322 38.7336 135.008 42.5418 139.005 43.9739L139.169 44.039C141.331 44.7877 143.624 44.7877 145.819 44.039L146.015 43.9739C147.195 43.5508 148.276 42.8998 149.226 42.0536L149.324 41.9559L149.422 42.0536C150.438 42.9324 151.584 43.6159 152.829 44.039C153.91 44.3971 155.024 44.5924 156.138 44.5924C157.252 44.5924 158.366 44.3971 159.447 44.039C163.541 42.6394 166.293 38.7987 166.293 34.5022V4.52474C166.293 2.702 164.819 1.2373 162.985 1.2373H163.017ZM153.714 37.041C152.993 36.3575 152.6 35.4787 152.6 34.5022V24.0215H159.676V34.3069C159.676 36.2599 158.169 37.9198 156.334 38.0175C155.352 38.0826 154.402 37.7246 153.714 37.0736V37.041ZM145.983 23.9889V34.4697C145.983 35.4461 145.59 36.3575 144.869 37.0085C144.214 37.6269 143.329 37.9849 142.445 37.9849C142.379 37.9849 142.314 37.9849 142.248 37.9849C140.414 37.8873 138.907 36.2273 138.907 34.2744V23.9889H145.983Z" fill="white"/>
<path d="M199.806 5.72917C199.806 7.48681 201.248 8.91896 203.017 8.91896H221.427V15.9495C221.427 19.8879 220.739 23.2404 219.429 25.8769C218.053 28.5785 216.284 30.8243 213.991 32.7447C211.829 34.5023 209.241 35.8694 206.325 36.8133C204.556 37.3992 202.722 37.8549 200.855 38.1804C199.315 38.4408 198.201 39.7753 198.201 41.3376C198.201 43.3231 200.003 44.8203 202.001 44.4948C205.408 43.909 208.389 43.0627 211.075 41.8909C214.908 40.296 218.119 38.1804 220.87 35.4137C223.425 32.8749 225.391 29.8804 226.8 26.2675C228.143 22.7848 228.831 18.944 228.831 14.8103V6.60799C228.831 4.36212 226.963 2.50684 224.703 2.50684H203.049C201.281 2.50684 199.839 3.93898 199.839 5.69662L199.806 5.72917Z" fill="white"/>
</svg>
