<svg width="468" height="480" viewBox="0 0 468 480" fill="none" xmlns="http://www.w3.org/2000/svg">
<g filter="url(#filter0_d_33_716)">
<path d="M95.0453 385.927L274.342 437.453C319.086 450.311 366.363 424.413 379.94 379.612L434.337 200.078C447.914 155.273 457.934 98.9916 374.615 72.7509L198.603 44.1488C153.858 31.2915 106.581 57.189 93.0042 101.99L18.8691 262.17C-5.80129 351.571 50.3045 373.07 95.0489 385.927L95.0453 385.927Z" fill="url(#paint0_linear_33_716)"/>
<path d="M77.7381 357.57L257.034 409.096C301.779 421.953 349.056 396.056 362.633 351.255L417.03 171.721C430.607 126.916 405.337 80.1714 360.592 67.314L181.3 15.7847C136.555 2.92733 89.2781 28.8249 75.7014 73.6258L21.3042 253.16C7.72717 297.964 32.9977 344.709 77.7421 357.567L77.7381 357.57Z" fill="white"/>
<path d="M301.015 180.091L169.234 140.938C140.098 132.282 109.462 148.884 100.805 178.02L100.804 178.024C92.148 207.16 108.75 237.796 137.886 246.453L269.667 285.605C298.803 294.261 329.44 277.659 338.096 248.523L338.097 248.52C346.753 219.384 330.151 188.747 301.015 180.091Z" fill="#0A26FF"/>
<path d="M220.557 156.176L169.24 140.933C198.377 149.587 214.981 180.222 206.328 209.363C197.675 238.501 167.035 255.104 137.898 246.451L189.215 261.693C218.352 270.346 248.988 253.742 257.645 224.606C266.298 195.468 249.694 164.832 220.557 156.176Z" fill="#0053FF"/>
<path d="M100.816 178.027L100.815 178.031C92.1584 207.167 108.761 237.803 137.896 246.46L137.9 246.461C167.036 255.117 197.673 238.515 206.329 209.379L206.33 209.376C214.986 180.24 198.384 149.603 169.248 140.947L169.245 140.946C140.109 132.289 109.472 148.891 100.816 178.027Z" fill="#2E87FF"/>
</g>
<defs>
<filter id="filter0_d_33_716" x="12.8379" y="12.4885" width="454.554" height="466.798" filterUnits="userSpaceOnUse" color-interpolation-filters="sRGB">
<feFlood flood-opacity="0" result="BackgroundImageFix"/>
<feColorMatrix in="SourceAlpha" type="matrix" values="0 0 0 0 0 0 0 0 0 0 0 0 0 0 0 0 0 0 127 0" result="hardAlpha"/>
<feOffset dx="12.4984" dy="27.0799"/>
<feGaussianBlur stdDeviation="5.72844"/>
<feComposite in2="hardAlpha" operator="out"/>
<feColorMatrix type="matrix" values="0 0 0 0 0.0862745 0 0 0 0 0.270588 0 0 0 0 0.776471 0 0 0 0.25 0"/>
<feBlend mode="normal" in2="BackgroundImageFix" result="effect1_dropShadow_33_716"/>
<feBlend mode="normal" in="SourceGraphic" in2="effect1_dropShadow_33_716" result="shape"/>
</filter>
<linearGradient id="paint0_linear_33_716" x1="21.1383" y1="217.873" x2="490.105" y2="267.799" gradientUnits="userSpaceOnUse">
<stop stop-color="#EAEAEA"/>
<stop offset="1" stop-color="#C4C4C4"/>
</linearGradient>
</defs>
</svg>
