<svg width="80" height="80" viewBox="0 0 80 80" fill="none" xmlns="http://www.w3.org/2000/svg">
<g clip-path="url(#clip0_33_1665)">
<path d="M46.2125 13.2253C44.61 10.3716 42.4034 8.80078 39.9997 8.80078C37.5961 8.80078 35.3894 10.3716 33.787 13.2253L6.95261 61.0311C5.3633 63.8586 5.16628 66.5945 6.41408 68.702C7.66189 70.8357 10.1706 72.0008 13.4543 72.0008H66.5451C69.8288 72.0008 72.3376 70.8227 73.5854 68.702C74.8332 66.5814 74.6362 63.8586 73.0468 61.0311L46.2125 13.2253Z" fill="#F0763C"/>
<path d="M40.0001 57.0645C38.043 57.0645 36.4668 58.6484 36.4668 60.5857C36.4668 62.5231 38.0561 64.107 40.0001 64.107C41.944 64.107 43.5464 62.5231 43.5464 60.5857C43.5464 58.6484 41.9571 57.0645 40.0001 57.0645Z" fill="white"/>
<path d="M39.9998 52.9416C41.3002 52.9416 42.456 51.3577 42.5611 49.4204L43.914 26.4861C44.0322 24.5488 42.5349 22.9648 40.5778 22.9648H39.3956C37.4517 22.9648 35.9543 24.5488 36.0594 26.4861L37.4123 49.4204C37.5305 51.3577 38.6864 52.9416 39.9736 52.9416H39.9998Z" fill="white"/>
</g>
<defs>
<clipPath id="clip0_33_1665">
<rect width="68.8" height="63.2" fill="white" transform="translate(5.6001 8.80078)"/>
</clipPath>
</defs>
</svg>
