<svg width="70" height="70" viewBox="0 0 70 70" fill="none" xmlns="http://www.w3.org/2000/svg">
<g clip-path="url(#clip0_33_1486)">
<path fill-rule="evenodd" clip-rule="evenodd" d="M34.7079 11.375C33.2581 11.375 32.0829 12.5503 32.0829 14V32.0833H13.9995C12.5498 32.0833 11.3745 33.2585 11.3745 34.7083C11.3745 36.158 12.5498 37.3333 13.9995 37.3333H32.0829V55.7083C32.0829 57.1581 33.2581 58.3333 34.7079 58.3333C36.1576 58.3333 37.3329 57.1581 37.3329 55.7083V37.3333H55.7078C57.1576 37.3333 58.3328 36.158 58.3328 34.7083C58.3328 33.2585 57.1576 32.0833 55.7078 32.0833H37.3329V14C37.3329 12.5503 36.1576 11.375 34.7079 11.375Z" fill="#B9B9B9"/>
</g>
<defs>
<clipPath id="clip0_33_1486">
<rect width="70" height="70" fill="white"/>
</clipPath>
</defs>
</svg>
