<svg width="1116" height="1237" viewBox="0 0 1116 1237" fill="none" xmlns="http://www.w3.org/2000/svg">
<path d="M49.0717 200.861L27.2148 229.325L39.8655 239.039L61.7224 210.575L49.0717 200.861Z" fill="#A6FFF2"/>
<path d="M14.64 839.998L0.630859 847.624L17.7879 879.144L31.7971 871.519L14.64 839.998Z" fill="#A6FFF2"/>
<path d="M619.244 106.192L605.234 113.817L622.391 145.338L636.401 137.712L619.244 106.192Z" fill="#A6FFF2"/>
<path d="M462.581 34.999L439.609 62.5708L451.864 72.7806L474.835 45.2088L462.581 34.999Z" fill="#FFF2A6"/>
<path d="M48.9909 1197.78L31.8008 1229.28L45.802 1236.92L62.992 1205.42L48.9909 1197.78Z" fill="#FFF2A6"/>
<path d="M1071.66 373.914L1058.81 407.422L1073.71 413.133L1086.55 379.625L1071.66 373.914Z" fill="#A6FFF2"/>
<path d="M1022.81 630.625L1013.1 643.274L1041.56 665.136L1051.27 652.487L1022.81 630.625Z" fill="#A6FFF2"/>
<path d="M218.959 137.564L209.242 150.213L237.702 172.075L247.419 159.426L218.959 137.564Z" fill="#FFA6A6"/>
<path d="M1062.17 131.999L1031.83 151.17L1040.35 164.654L1070.69 145.483L1062.17 131.999Z" fill="#FFA6A6"/>
<path d="M124.75 978.999L94.748 998.692L103.5 1012.03L133.502 992.333L124.75 978.999Z" fill="#FFA6A6"/>
<path d="M1085.2 1175.08L1076.95 1188.73L1107.67 1207.29L1115.92 1193.63L1085.2 1175.08Z" fill="#FFA6A6"/>
<path d="M160.002 695.997L130 715.69L138.752 729.024L168.754 709.332L160.002 695.997Z" fill="#A6FFF2"/>
<path d="M835.415 53.9198L834.105 69.8159L869.872 72.7627L871.182 56.8666L835.415 53.9198Z" fill="#FFF2A6"/>
<path d="M1012.72 847.202L998.678 880.227L1013.36 886.469L1027.4 853.445L1012.72 847.202Z" fill="#FFF2A6"/>
<path d="M61.4107 445.403L47.3652 478.428L62.043 484.671L76.0884 451.646L61.4107 445.403Z" fill="#FFF2A6"/>
<path d="M121.045 3.65965e-05L107 33.0249L121.678 39.2673L135.723 6.24246L121.045 3.65965e-05Z" fill="#FFF2A6"/>
</svg>
