<svg width="703" height="728" viewBox="0 0 703 728" fill="none" xmlns="http://www.w3.org/2000/svg">
<g opacity="0.9">
<path d="M351.438 241L0 404.308V728H702.877V404.308L351.438 241Z" fill="#EFF6FF"/>
<path d="M82.8759 286.162L31.7285 557.371L554.924 656.041L606.072 384.832L82.8759 286.162Z" fill="url(#paint0_linear_124_697)"/>
<path d="M0 404.309L351.438 566.154L702.877 404.309V728H0V404.309Z" fill="#303CC4"/>
<path d="M0 728L351.438 520.299L702.877 728H0Z" fill="#1827CB"/>
</g>
<path d="M665.273 195.987C643.382 200.268 622.163 185.992 617.882 164.101C613.6 142.211 627.877 120.992 649.767 116.711L634.266 37.4532C630.237 16.855 610.086 3.29673 589.487 7.32544L199.813 83.54L260.976 396.256L650.65 320.042C671.248 316.013 684.807 295.862 680.778 275.263L665.276 196.006L665.273 195.987Z" fill="white"/>
<path d="M91.0083 225.976C113.089 221.657 134.46 235.904 138.741 257.794C143.023 279.685 128.598 300.952 106.517 305.271L122.023 384.547C126.051 405.146 146.355 418.674 167.124 414.612L267.075 395.063L205.904 82.3088L105.954 101.858C85.1845 105.92 71.4743 126.101 75.503 146.699L91.0083 225.976Z" fill="#1827CB"/>
<g clip-path="url(#clip0_124_697)">
<path d="M344.3 251.212C341.627 249.889 339.477 247.53 338.902 244.102C338.014 238.811 341.629 233.588 346.902 232.703C349.287 232.303 350.981 232.698 352.764 233.616C359.141 236.751 364.866 237.705 371.34 236.618C379.938 235.176 385.496 229.483 384.12 221.286L384.077 221.025C382.745 213.089 375.233 209.59 365.574 211.21C357.777 212.519 354.731 215.481 351.964 215.946C349.196 216.41 346.614 215.627 342.019 213.41C338.918 211.89 337.253 209.324 336.936 205.834L333.556 174.175C332.996 169.24 336.182 164.769 341.09 163.946L381.276 157.202C386.166 156.381 390.96 159.782 391.783 164.69C392.607 169.598 389.18 174.235 384.272 175.058L353.067 180.295L354.689 196.467C358.242 194.923 361.437 193.706 366.589 192.842C384.828 189.781 400.441 196.126 403.945 217.011L403.989 217.272C407.272 236.834 395.208 251.634 374.845 255.051C362.019 257.204 352.585 255.262 344.3 251.212Z" fill="#283581"/>
<path d="M411.149 175.703L411.105 175.442C408.909 162.354 416.253 150.242 429.741 147.979C443.229 145.715 453.84 154.671 456.012 167.62L456.056 167.881C458.229 180.829 450.909 193.08 437.421 195.343C423.933 197.607 413.322 188.651 411.146 175.685L411.149 175.703ZM442.215 170.49L442.171 170.229C441.128 164.015 436.792 159.178 431.501 160.066C425.949 160.998 423.93 166.776 424.95 172.85L424.993 173.111C426.036 179.324 430.39 184.159 435.664 183.274C441.215 182.342 443.214 176.442 442.215 170.49ZM437.477 233.001L483.003 142.172C483.897 140.251 485.842 138.833 487.948 138.479C491.394 137.901 494.629 140.221 495.204 143.65C495.493 145.373 495.193 146.783 494.452 148.124L448.943 238.95C448.049 240.871 446.104 242.289 443.998 242.643C440.552 243.221 437.317 240.901 436.742 237.472C436.453 235.749 436.892 234.316 437.494 232.998L437.477 233.001ZM475.934 213.503L475.89 213.242C473.694 200.154 481.038 188.042 494.525 185.779C508.013 183.515 518.624 192.471 520.797 205.42L520.841 205.681C523.014 218.629 515.693 230.88 502.205 233.143C488.717 235.407 478.106 226.451 475.934 213.503ZM506.999 208.29L506.956 208.029C505.913 201.815 501.576 196.978 496.285 197.866C490.734 198.798 488.715 204.576 489.734 210.65L489.778 210.911C490.821 217.124 495.175 221.959 500.448 221.074C506 220.142 507.998 214.242 506.999 208.29Z" fill="#283581"/>
</g>
<defs>
<linearGradient id="paint0_linear_124_697" x1="354.398" y1="337.618" x2="294.234" y2="663.77" gradientUnits="userSpaceOnUse">
<stop stop-color="#D5DFFF"/>
<stop offset="1" stop-color="#B1C5FF"/>
</linearGradient>
<clipPath id="clip0_124_697">
<rect width="185.789" height="96.5123" fill="white" transform="translate(325.701 165.438) rotate(-9.52596)"/>
</clipPath>
</defs>
</svg>
