<svg width="578" height="64" viewBox="0 0 578 64" fill="none" xmlns="http://www.w3.org/2000/svg">
<path opacity="0.7" d="M2.01978 39.5674C-4.06657 35.4521 6.10872 29.6553 2.94065 23.5338C1.11509 20.0165 10.3289 17.4285 18.8107 5.86767C19.0694 5.52454 19.4335 5.21423 19.7976 4.90393C24.2754 1.48518 31.457 0.31505 39.7732 1.92163C51.774 4.26884 82.3808 3.27509 106.958 3.16624C124.761 3.10025 142.516 3.44305 160.319 3.37706C178.384 3.3081 196.456 3.74936 214.524 3.95252C240.787 4.3008 267.084 2.94774 293.4 3.36346C313.413 3.68062 333.52 3.07819 353.489 4.07625C377.24 5.26951 380.209 3.02456 428.838 2.84683C448.899 2.75521 468.966 3.13981 488.957 1.51812C495.883 0.963238 503.073 0.57545 510.065 1.14247C523.311 2.21682 536.283 2.20567 549.553 0.694276C558.417 -0.324854 563.422 1.01314 566.142 4.7244C568.009 7.28868 569.352 9.89294 570.59 12.5324C572.85 17.3035 575.74 22.0674 573.959 27.0885C571.821 33.1002 579.195 35.0236 577.355 39.467C574.543 46.1668 580.602 47.935 574.975 51.8771C567.577 57.064 575.95 63.7388 554.57 63.2331C552.888 63.1841 551.155 63.1357 549.525 62.9501C541.427 62.0555 516.517 60.6712 497.352 60.9908C463.432 61.5799 429.503 61.4207 395.533 62.2485C334.944 63.7187 299.72 60.5124 253.156 62.2316C239.665 62.7249 226.007 62.4717 212.506 62.0806C183.717 61.2847 154.841 62.1227 126.002 61.5655C103.152 61.1105 80.2115 62.0172 57.3165 62.2771C51.9604 62.3379 46.6027 62.2626 41.2527 62.8676C19.9045 65.2191 1.34327 58.6259 0.665251 54.4152C0.325113 52.2078 -0.0687307 49.899 2.48118 47.8289C6.07161 44.8965 5.8311 42.2116 1.80893 39.5017L2.01978 39.5674Z" fill="#BCCBFF"/>
</svg>
